<?xml version="1.0" encoding="UTF-8" standalone="no"?><svg xmlns="http://www.w3.org/2000/svg" xmlns:xlink="http://www.w3.org/1999/xlink" contentScriptType="application/ecmascript" contentStyleType="text/css" height="883px" preserveAspectRatio="none" style="width:867px;height:883px;" version="1.1" viewBox="0 0 867 883" width="867px" zoomAndPan="magnify"><defs><filter height="300%" id="f1grhq5u8oeov8" width="300%" x="-1" y="-1"><feGaussianBlur result="blurOut" stdDeviation="2.0"/><feColorMatrix in="blurOut" result="blurOut2" type="matrix" values="0 0 0 0 0 0 0 0 0 0 0 0 0 0 0 0 0 0 .4 0"/><feOffset dx="4.0" dy="4.0" in="blurOut2" result="blurOut3"/><feBlend in="SourceGraphic" in2="blurOut3" mode="normal"/></filter></defs><g><!--MD5=[11ce86fd4409221905d4cddf5201631a]
class Series--><rect fill="#FEFECE" filter="url(#f1grhq5u8oeov8)" height="79.5469" id="Series" style="stroke: #A80036; stroke-width: 1.5;" width="137" x="719" y="417"/><ellipse cx="734" cy="435.9688" fill="#ADD1B2" rx="11" ry="11" style="stroke: #A80036; stroke-width: 1.0;"/><path d="M736.9688,441.6094 Q736.3906,441.9063 735.75,442.0469 Q735.1094,442.2031 734.4063,442.2031 Q731.9063,442.2031 730.5781,440.5625 Q729.2656,438.9063 729.2656,435.7813 Q729.2656,432.6563 730.5781,431 Q731.9063,429.3438 734.4063,429.3438 Q735.1094,429.3438 735.75,429.5 Q736.4063,429.6563 736.9688,429.9531 L736.9688,432.6719 Q736.3438,432.0938 735.75,431.8281 Q735.1563,431.5469 734.5313,431.5469 Q733.1875,431.5469 732.5,432.625 Q731.8125,433.6875 731.8125,435.7813 Q731.8125,437.875 732.5,438.9531 Q733.1875,440.0156 734.5313,440.0156 Q735.1563,440.0156 735.75,439.75 Q736.3438,439.4688 736.9688,438.8906 L736.9688,441.6094 Z "/><text fill="#000000" font-family="sans-serif" font-size="12" font-style="italic" lengthAdjust="spacingAndGlyphs" textLength="109" x="746" y="433.1387">«AggregateRoot»</text><text fill="#000000" font-family="sans-serif" font-size="12" lengthAdjust="spacingAndGlyphs" textLength="39" x="781" y="447.1074">Series</text><line style="stroke: #A80036; stroke-width: 1.5;" x1="720" x2="855" y1="454.9375" y2="454.9375"/><text fill="#000000" font-family="sans-serif" font-size="11" lengthAdjust="spacingAndGlyphs" textLength="54" x="725" y="469.1479">+Id: UUID</text><text fill="#000000" font-family="sans-serif" font-size="11" lengthAdjust="spacingAndGlyphs" textLength="74" x="725" y="481.9526">+Title: string</text><line style="stroke: #A80036; stroke-width: 1.5;" x1="720" x2="855" y1="488.5469" y2="488.5469"/><!--MD5=[c3dd83c4944f050787f4b644933234ea]
class MediaWork--><rect fill="#FEFECE" filter="url(#f1grhq5u8oeov8)" height="181.9844" id="MediaWork" style="stroke: #A80036; stroke-width: 1.5;" width="211" x="505" y="169"/><ellipse cx="553.75" cy="187.9688" fill="#A9DCDF" rx="11" ry="11" style="stroke: #A80036; stroke-width: 1.0;"/><path d="M553.8594,183.3125 L552.7031,188.3906 L555.0313,188.3906 L553.8594,183.3125 Z M552.375,181.0781 L555.3594,181.0781 L558.7188,193.4688 L556.2656,193.4688 L555.5,190.4063 L552.2188,190.4063 L551.4688,193.4688 L549.0313,193.4688 L552.375,181.0781 Z "/><text fill="#000000" font-family="sans-serif" font-size="12" font-style="italic" lengthAdjust="spacingAndGlyphs" textLength="109" x="572.25" y="185.1387">«AggregateRoot»</text><text fill="#000000" font-family="sans-serif" font-size="12" font-style="italic" lengthAdjust="spacingAndGlyphs" textLength="69" x="592.25" y="199.1074">MediaWork</text><line style="stroke: #A80036; stroke-width: 1.5;" x1="506" x2="715" y1="206.9375" y2="206.9375"/><text fill="#000000" font-family="sans-serif" font-size="11" lengthAdjust="spacingAndGlyphs" textLength="54" x="511" y="221.1479">+Id: UUID</text><text fill="#000000" font-family="sans-serif" font-size="11" lengthAdjust="spacingAndGlyphs" textLength="74" x="511" y="233.9526">+Title: string</text><text fill="#000000" font-family="sans-serif" font-size="11" lengthAdjust="spacingAndGlyphs" textLength="187" x="511" y="246.7573">+OriginalReleaseDate: LocalDate</text><text fill="#000000" font-family="sans-serif" font-size="11" lengthAdjust="spacingAndGlyphs" textLength="91" x="511" y="259.562">+SeriesId: UUID</text><text fill="#000000" font-family="sans-serif" font-size="11" lengthAdjust="spacingAndGlyphs" textLength="139" x="511" y="272.3667">-_editions: List&lt;Edition&gt;</text><text fill="#000000" font-family="sans-serif" font-size="11" lengthAdjust="spacingAndGlyphs" textLength="199" x="511" y="285.1714">-_contributions: List&lt;Contribution&gt;</text><line style="stroke: #A80036; stroke-width: 1.0;" x1="506" x2="715" y1="291.7656" y2="291.7656"/><text fill="#000000" font-family="sans-serif" font-size="11" lengthAdjust="spacingAndGlyphs" textLength="117" x="511" y="305.9761">+AddEdition(id): void</text><text fill="#000000" font-family="sans-serif" font-size="11" lengthAdjust="spacingAndGlyphs" textLength="141" x="511" y="318.7808">+RemoveEdition(id): void</text><text fill="#000000" font-family="sans-serif" font-size="11" lengthAdjust="spacingAndGlyphs" textLength="178" x="511" y="331.5854">+AddContribution(id, role): void</text><text fill="#000000" font-family="sans-serif" font-size="11" lengthAdjust="spacingAndGlyphs" textLength="172" x="511" y="344.3901">+RemoveContribution(id): void</text><!--MD5=[e69084ab16b022bdbef99762ea85e9d6]
class Movie--><rect fill="#FEFECE" filter="url(#f1grhq5u8oeov8)" height="48" id="Movie" style="stroke: #A80036; stroke-width: 1.5;" width="67" x="477" y="34.5"/><ellipse cx="492" cy="50.5" fill="#ADD1B2" rx="11" ry="11" style="stroke: #A80036; stroke-width: 1.0;"/><path d="M494.9688,56.1406 Q494.3906,56.4375 493.75,56.5781 Q493.1094,56.7344 492.4063,56.7344 Q489.9063,56.7344 488.5781,55.0938 Q487.2656,53.4375 487.2656,50.3125 Q487.2656,47.1875 488.5781,45.5313 Q489.9063,43.875 492.4063,43.875 Q493.1094,43.875 493.75,44.0313 Q494.4063,44.1875 494.9688,44.4844 L494.9688,47.2031 Q494.3438,46.625 493.75,46.3594 Q493.1563,46.0781 492.5313,46.0781 Q491.1875,46.0781 490.5,47.1563 Q489.8125,48.2188 489.8125,50.3125 Q489.8125,52.4063 490.5,53.4844 Q491.1875,54.5469 492.5313,54.5469 Q493.1563,54.5469 493.75,54.2813 Q494.3438,54 494.9688,53.4219 L494.9688,56.1406 Z "/><text fill="#000000" font-family="sans-serif" font-size="12" lengthAdjust="spacingAndGlyphs" textLength="35" x="506" y="54.6543">Movie</text><line style="stroke: #A80036; stroke-width: 1.5;" x1="478" x2="543" y1="66.5" y2="66.5"/><line style="stroke: #A80036; stroke-width: 1.5;" x1="478" x2="543" y1="74.5" y2="74.5"/><!--MD5=[a37707a5a7e4fa9ccccea367e3a415b8]
class Edition--><rect fill="#FEFECE" filter="url(#f1grhq5u8oeov8)" height="92.3516" id="Edition" style="stroke: #A80036; stroke-width: 1.5;" width="155" x="226" y="411"/><ellipse cx="276.25" cy="429.9688" fill="#A9DCDF" rx="11" ry="11" style="stroke: #A80036; stroke-width: 1.0;"/><path d="M276.3594,425.3125 L275.2031,430.3906 L277.5313,430.3906 L276.3594,425.3125 Z M274.875,423.0781 L277.8594,423.0781 L281.2188,435.4688 L278.7656,435.4688 L278,432.4063 L274.7188,432.4063 L273.9688,435.4688 L271.5313,435.4688 L274.875,423.0781 Z "/><text fill="#000000" font-family="sans-serif" font-size="12" font-style="italic" lengthAdjust="spacingAndGlyphs" textLength="50" x="294.75" y="427.1387">«Entity»</text><text fill="#000000" font-family="sans-serif" font-size="12" font-style="italic" lengthAdjust="spacingAndGlyphs" textLength="43" x="298.25" y="441.1074">Edition</text><line style="stroke: #A80036; stroke-width: 1.5;" x1="227" x2="380" y1="448.9375" y2="448.9375"/><text fill="#000000" font-family="sans-serif" font-size="11" lengthAdjust="spacingAndGlyphs" textLength="54" x="232" y="463.1479">+Id: UUID</text><text fill="#000000" font-family="sans-serif" font-size="11" lengthAdjust="spacingAndGlyphs" textLength="143" x="232" y="475.9526">+ReleaseDate: LocalDate</text><text fill="#000000" font-family="sans-serif" font-size="11" lengthAdjust="spacingAndGlyphs" textLength="124" x="232" y="488.7573">+Extras: List&lt;string&gt;</text><line style="stroke: #A80036; stroke-width: 1.5;" x1="227" x2="380" y1="495.3516" y2="495.3516"/><!--MD5=[73944afb6e9f06e6d5ee91305b4bcc5c]
class MovieEdition--><rect fill="#FEFECE" filter="url(#f1grhq5u8oeov8)" height="112.0234" id="MovieEdition" style="stroke: #A80036; stroke-width: 1.5;" width="198" x="106.5" y="563"/><ellipse cx="162.25" cy="579" fill="#ADD1B2" rx="11" ry="11" style="stroke: #A80036; stroke-width: 1.0;"/><path d="M165.2188,584.6406 Q164.6406,584.9375 164,585.0781 Q163.3594,585.2344 162.6563,585.2344 Q160.1563,585.2344 158.8281,583.5938 Q157.5156,581.9375 157.5156,578.8125 Q157.5156,575.6875 158.8281,574.0313 Q160.1563,572.375 162.6563,572.375 Q163.3594,572.375 164,572.5313 Q164.6563,572.6875 165.2188,572.9844 L165.2188,575.7031 Q164.5938,575.125 164,574.8594 Q163.4063,574.5781 162.7813,574.5781 Q161.4375,574.5781 160.75,575.6563 Q160.0625,576.7188 160.0625,578.8125 Q160.0625,580.9063 160.75,581.9844 Q161.4375,583.0469 162.7813,583.0469 Q163.4063,583.0469 164,582.7813 Q164.5938,582.5 165.2188,581.9219 L165.2188,584.6406 Z "/><text fill="#000000" font-family="sans-serif" font-size="12" lengthAdjust="spacingAndGlyphs" textLength="78" x="182.75" y="583.1543">MovieEdition</text><line style="stroke: #A80036; stroke-width: 1.5;" x1="107.5" x2="303.5" y1="595" y2="595"/><text fill="#000000" font-family="sans-serif" font-size="11" lengthAdjust="spacingAndGlyphs" textLength="121" x="112.5" y="609.2104">+RuntimeMinutes: int</text><text fill="#000000" font-family="sans-serif" font-size="11" lengthAdjust="spacingAndGlyphs" textLength="137" x="112.5" y="622.0151">+Medium: MovieMedium</text><text fill="#000000" font-family="sans-serif" font-size="11" lengthAdjust="spacingAndGlyphs" textLength="107" x="112.5" y="634.8198">+Case: MovieCase</text><text fill="#000000" font-family="sans-serif" font-size="11" lengthAdjust="spacingAndGlyphs" textLength="186" x="112.5" y="647.6245">+AudioTracks: List&lt;AudioTrack&gt;</text><text fill="#000000" font-family="sans-serif" font-size="11" lengthAdjust="spacingAndGlyphs" textLength="169" x="112.5" y="660.4292">+SubtitleTracks: List&lt;string&gt;</text><line style="stroke: #A80036; stroke-width: 1.5;" x1="107.5" x2="303.5" y1="667.0234" y2="667.0234"/><!--MD5=[da7008e6f46e455de1b7e2d79357466b]
class MovieMedium--><rect fill="#FEFECE" filter="url(#f1grhq5u8oeov8)" height="99.2188" id="MovieMedium" style="stroke: #A80036; stroke-width: 1.5;" width="115" x="6" y="754.5"/><ellipse cx="21" cy="770.5" fill="#EB937F" rx="11" ry="11" style="stroke: #A80036; stroke-width: 1.0;"/><path d="M25.1094,776.5 L17.3906,776.5 L17.3906,764.1094 L25.1094,764.1094 L25.1094,766.2656 L19.8438,766.2656 L19.8438,768.9375 L24.6094,768.9375 L24.6094,771.0938 L19.8438,771.0938 L19.8438,774.3438 L25.1094,774.3438 L25.1094,776.5 Z "/><text fill="#000000" font-family="sans-serif" font-size="12" lengthAdjust="spacingAndGlyphs" textLength="83" x="35" y="774.6543">MovieMedium</text><line style="stroke: #A80036; stroke-width: 1.5;" x1="7" x2="120" y1="786.5" y2="786.5"/><text fill="#000000" font-family="sans-serif" font-size="11" lengthAdjust="spacingAndGlyphs" textLength="23" x="12" y="800.7104">DVD</text><text fill="#000000" font-family="sans-serif" font-size="11" lengthAdjust="spacingAndGlyphs" textLength="38" x="12" y="813.5151">BluRay</text><text fill="#000000" font-family="sans-serif" font-size="11" lengthAdjust="spacingAndGlyphs" textLength="24" x="12" y="826.3198">UHD</text><text fill="#000000" font-family="sans-serif" font-size="11" lengthAdjust="spacingAndGlyphs" textLength="35" x="12" y="839.1245">Digital</text><line style="stroke: #A80036; stroke-width: 1.5;" x1="7" x2="120" y1="845.7188" y2="845.7188"/><!--MD5=[c65f0ac25cb63799cfa3ccab71fc1f4e]
class MovieCase--><rect fill="#FEFECE" filter="url(#f1grhq5u8oeov8)" height="137.6328" id="MovieCase" style="stroke: #A80036; stroke-width: 1.5;" width="98" x="156.5" y="735"/><ellipse cx="171.5" cy="751" fill="#EB937F" rx="11" ry="11" style="stroke: #A80036; stroke-width: 1.0;"/><path d="M175.6094,757 L167.8906,757 L167.8906,744.6094 L175.6094,744.6094 L175.6094,746.7656 L170.3438,746.7656 L170.3438,749.4375 L175.1094,749.4375 L175.1094,751.5938 L170.3438,751.5938 L170.3438,754.8438 L175.6094,754.8438 L175.6094,757 Z "/><text fill="#000000" font-family="sans-serif" font-size="12" lengthAdjust="spacingAndGlyphs" textLength="66" x="185.5" y="755.1543">MovieCase</text><line style="stroke: #A80036; stroke-width: 1.5;" x1="157.5" x2="253.5" y1="767" y2="767"/><text fill="#000000" font-family="sans-serif" font-size="11" lengthAdjust="spacingAndGlyphs" textLength="52" x="162.5" y="781.2104">Standard</text><text fill="#000000" font-family="sans-serif" font-size="11" lengthAdjust="spacingAndGlyphs" textLength="56" x="162.5" y="794.0151">Steelbook</text><text fill="#000000" font-family="sans-serif" font-size="11" lengthAdjust="spacingAndGlyphs" textLength="47" x="162.5" y="806.8198">Digipack</text><text fill="#000000" font-family="sans-serif" font-size="11" lengthAdjust="spacingAndGlyphs" textLength="52" x="162.5" y="819.6245">Slipcover</text><text fill="#000000" font-family="sans-serif" font-size="11" lengthAdjust="spacingAndGlyphs" textLength="39" x="162.5" y="832.4292">Boxset</text><text fill="#000000" font-family="sans-serif" font-size="11" lengthAdjust="spacingAndGlyphs" textLength="60" x="162.5" y="845.2339">Mediabook</text><text fill="#000000" font-family="sans-serif" font-size="11" lengthAdjust="spacingAndGlyphs" textLength="32" x="162.5" y="858.0386">Other</text><line style="stroke: #A80036; stroke-width: 1.5;" x1="157.5" x2="253.5" y1="864.6328" y2="864.6328"/><!--MD5=[55a6f80882d3cd7368bedd1107f01aad]
class AudioTrack--><rect fill="#FEFECE" filter="url(#f1grhq5u8oeov8)" height="79.5469" id="AudioTrack" style="stroke: #A80036; stroke-width: 1.5;" width="117" x="290" y="764"/><ellipse cx="305.45" cy="782.9688" fill="#ADD1B2" rx="11" ry="11" style="stroke: #A80036; stroke-width: 1.0;"/><path d="M308.4188,788.6094 Q307.8406,788.9063 307.2,789.0469 Q306.5594,789.2031 305.8563,789.2031 Q303.3563,789.2031 302.0281,787.5625 Q300.7156,785.9063 300.7156,782.7813 Q300.7156,779.6563 302.0281,778 Q303.3563,776.3438 305.8563,776.3438 Q306.5594,776.3438 307.2,776.5 Q307.8563,776.6563 308.4188,776.9531 L308.4188,779.6719 Q307.7938,779.0938 307.2,778.8281 Q306.6063,778.5469 305.9813,778.5469 Q304.6375,778.5469 303.95,779.625 Q303.2625,780.6875 303.2625,782.7813 Q303.2625,784.875 303.95,785.9531 Q304.6375,787.0156 305.9813,787.0156 Q306.6063,787.0156 307.2,786.75 Q307.7938,786.4688 308.4188,785.8906 L308.4188,788.6094 Z "/><text fill="#000000" font-family="sans-serif" font-size="12" font-style="italic" lengthAdjust="spacingAndGlyphs" textLength="88" x="317.55" y="780.1387">«ValueObject»</text><text fill="#000000" font-family="sans-serif" font-size="12" lengthAdjust="spacingAndGlyphs" textLength="69" x="327.05" y="794.1074">AudioTrack</text><line style="stroke: #A80036; stroke-width: 1.5;" x1="291" x2="406" y1="801.9375" y2="801.9375"/><text fill="#000000" font-family="sans-serif" font-size="11" lengthAdjust="spacingAndGlyphs" textLength="105" x="296" y="816.1479">+Language: string</text><text fill="#000000" font-family="sans-serif" font-size="11" lengthAdjust="spacingAndGlyphs" textLength="90" x="296" y="828.9526">+Format: string</text><line style="stroke: #A80036; stroke-width: 1.5;" x1="291" x2="406" y1="835.5469" y2="835.5469"/><!--MD5=[1a95835255177050dd8028a7da1b3a6a]
class Contributor--><rect fill="#FEFECE" filter="url(#f1grhq5u8oeov8)" height="79.5469" id="Contributor" style="stroke: #A80036; stroke-width: 1.5;" width="137" x="714" y="579"/><ellipse cx="729" cy="597.9688" fill="#ADD1B2" rx="11" ry="11" style="stroke: #A80036; stroke-width: 1.0;"/><path d="M731.9688,603.6094 Q731.3906,603.9063 730.75,604.0469 Q730.1094,604.2031 729.4063,604.2031 Q726.9063,604.2031 725.5781,602.5625 Q724.2656,600.9063 724.2656,597.7813 Q724.2656,594.6563 725.5781,593 Q726.9063,591.3438 729.4063,591.3438 Q730.1094,591.3438 730.75,591.5 Q731.4063,591.6563 731.9688,591.9531 L731.9688,594.6719 Q731.3438,594.0938 730.75,593.8281 Q730.1563,593.5469 729.5313,593.5469 Q728.1875,593.5469 727.5,594.625 Q726.8125,595.6875 726.8125,597.7813 Q726.8125,599.875 727.5,600.9531 Q728.1875,602.0156 729.5313,602.0156 Q730.1563,602.0156 730.75,601.75 Q731.3438,601.4688 731.9688,600.8906 L731.9688,603.6094 Z "/><text fill="#000000" font-family="sans-serif" font-size="12" font-style="italic" lengthAdjust="spacingAndGlyphs" textLength="109" x="741" y="595.1387">«AggregateRoot»</text><text fill="#000000" font-family="sans-serif" font-size="12" lengthAdjust="spacingAndGlyphs" textLength="71" x="760" y="609.1074">Contributor</text><line style="stroke: #A80036; stroke-width: 1.5;" x1="715" x2="850" y1="616.9375" y2="616.9375"/><text fill="#000000" font-family="sans-serif" font-size="11" lengthAdjust="spacingAndGlyphs" textLength="54" x="720" y="631.1479">+Id: UUID</text><text fill="#000000" font-family="sans-serif" font-size="11" lengthAdjust="spacingAndGlyphs" textLength="83" x="720" y="643.9526">+Name: string</text><line style="stroke: #A80036; stroke-width: 1.5;" x1="715" x2="850" y1="650.5469" y2="650.5469"/><!--MD5=[8943b56400e757f675b04ec0bb9ca022]
class ContributionRole--><rect fill="#FEFECE" filter="url(#f1grhq5u8oeov8)" height="79.5469" id="ContributionRole" style="stroke: #A80036; stroke-width: 1.5;" width="136" x="542.5" y="579"/><ellipse cx="557.5" cy="597.9688" fill="#ADD1B2" rx="11" ry="11" style="stroke: #A80036; stroke-width: 1.0;"/><path d="M560.4688,603.6094 Q559.8906,603.9063 559.25,604.0469 Q558.6094,604.2031 557.9063,604.2031 Q555.4063,604.2031 554.0781,602.5625 Q552.7656,600.9063 552.7656,597.7813 Q552.7656,594.6563 554.0781,593 Q555.4063,591.3438 557.9063,591.3438 Q558.6094,591.3438 559.25,591.5 Q559.9063,591.6563 560.4688,591.9531 L560.4688,594.6719 Q559.8438,594.0938 559.25,593.8281 Q558.6563,593.5469 558.0313,593.5469 Q556.6875,593.5469 556,594.625 Q555.3125,595.6875 555.3125,597.7813 Q555.3125,599.875 556,600.9531 Q556.6875,602.0156 558.0313,602.0156 Q558.6563,602.0156 559.25,601.75 Q559.8438,601.4688 560.4688,600.8906 L560.4688,603.6094 Z "/><text fill="#000000" font-family="sans-serif" font-size="12" font-style="italic" lengthAdjust="spacingAndGlyphs" textLength="88" x="579.5" y="595.1387">«ValueObject»</text><text fill="#000000" font-family="sans-serif" font-size="12" lengthAdjust="spacingAndGlyphs" textLength="104" x="571.5" y="609.1074">ContributionRole</text><line style="stroke: #A80036; stroke-width: 1.5;" x1="543.5" x2="677.5" y1="616.9375" y2="616.9375"/><text fill="#000000" font-family="sans-serif" font-size="11" lengthAdjust="spacingAndGlyphs" textLength="83" x="548.5" y="631.1479">+Name: string</text><line style="stroke: #A80036; stroke-width: 1.0;" x1="543.5" x2="677.5" y1="637.7422" y2="637.7422"/><text fill="#000000" font-family="sans-serif" font-size="11" lengthAdjust="spacingAndGlyphs" textLength="102" x="548.5" y="651.9526">+IsCreator(): bool</text><path d="M340,591.5 L340,646.8984 A0,0 0 0 0 340,646.8984 L507,646.8984 A0,0 0 0 0 507,646.8984 L507,623 L542.27,619 L507,615 L507,601.5 L497,591.5 L340,591.5 A0,0 0 0 0 340,591.5 " fill="#FBFB77" filter="url(#f1grhq5u8oeov8)" style="stroke: #A80036; stroke-width: 1.0;"/><path d="M497,591.5 L497,601.5 L507,601.5 L497,591.5 " fill="#FBFB77" style="stroke: #A80036; stroke-width: 1.0;"/><text fill="#000000" font-family="sans-serif" font-size="13" lengthAdjust="spacingAndGlyphs" textLength="59" x="346" y="608.5669">Invariant:</text><text fill="#000000" font-family="sans-serif" font-size="13" lengthAdjust="spacingAndGlyphs" textLength="146" x="346" y="623.6997">- Role knows whether it</text><text fill="#000000" font-family="sans-serif" font-size="13" lengthAdjust="spacingAndGlyphs" textLength="100" x="354" y="638.8325">is a creator role</text><!--MD5=[0330879a1a385efee19ba3488ed490fa]
class Contribution--><rect fill="#FEFECE" filter="url(#f1grhq5u8oeov8)" height="92.3516" id="Contribution" style="stroke: #A80036; stroke-width: 1.5;" width="146" x="537.5" y="411"/><ellipse cx="569.15" cy="429.9688" fill="#ADD1B2" rx="11" ry="11" style="stroke: #A80036; stroke-width: 1.0;"/><path d="M572.1188,435.6094 Q571.5406,435.9063 570.9,436.0469 Q570.2594,436.2031 569.5563,436.2031 Q567.0563,436.2031 565.7281,434.5625 Q564.4156,432.9063 564.4156,429.7813 Q564.4156,426.6563 565.7281,425 Q567.0563,423.3438 569.5563,423.3438 Q570.2594,423.3438 570.9,423.5 Q571.5563,423.6563 572.1188,423.9531 L572.1188,426.6719 Q571.4938,426.0938 570.9,425.8281 Q570.3063,425.5469 569.6813,425.5469 Q568.3375,425.5469 567.65,426.625 Q566.9625,427.6875 566.9625,429.7813 Q566.9625,431.875 567.65,432.9531 Q568.3375,434.0156 569.6813,434.0156 Q570.3063,434.0156 570.9,433.75 Q571.4938,433.4688 572.1188,432.8906 L572.1188,435.6094 Z "/><text fill="#000000" font-family="sans-serif" font-size="12" font-style="italic" lengthAdjust="spacingAndGlyphs" textLength="50" x="600.35" y="427.1387">«Entity»</text><text fill="#000000" font-family="sans-serif" font-size="12" lengthAdjust="spacingAndGlyphs" textLength="77" x="586.85" y="441.1074">Contribution</text><line style="stroke: #A80036; stroke-width: 1.5;" x1="538.5" x2="682.5" y1="448.9375" y2="448.9375"/><text fill="#000000" font-family="sans-serif" font-size="11" lengthAdjust="spacingAndGlyphs" textLength="54" x="543.5" y="463.1479">+Id: UUID</text><text fill="#000000" font-family="sans-serif" font-size="11" lengthAdjust="spacingAndGlyphs" textLength="118" x="543.5" y="475.9526">+ContributorId: UUID</text><text fill="#000000" font-family="sans-serif" font-size="11" lengthAdjust="spacingAndGlyphs" textLength="134" x="543.5" y="488.7573">+Role: ContributionRole</text><line style="stroke: #A80036; stroke-width: 1.5;" x1="538.5" x2="682.5" y1="495.3516" y2="495.3516"/><path d="M579,8 L579,108.7969 A0,0 0 0 0 579,108.7969 L680.9,108.7969 L655.24,168.85 L688.9,108.7969 L840,108.7969 A0,0 0 0 0 840,108.7969 L840,18 L830,8 L579,8 A0,0 0 0 0 579,8 " fill="#FBFB77" filter="url(#f1grhq5u8oeov8)" style="stroke: #A80036; stroke-width: 1.0;"/><path d="M830,8 L830,18 L840,18 L830,8 " fill="#FBFB77" style="stroke: #A80036; stroke-width: 1.0;"/><text fill="#000000" font-family="sans-serif" font-size="13" lengthAdjust="spacingAndGlyphs" textLength="59" x="585" y="25.0669">Invariant:</text><text fill="#000000" font-family="sans-serif" font-size="13" lengthAdjust="spacingAndGlyphs" textLength="237" x="585" y="40.1997">- Must have at least one Contribution</text><text fill="#000000" font-family="sans-serif" font-size="13" lengthAdjust="spacingAndGlyphs" textLength="197" x="593" y="55.3325">where Role.IsCreator() == true</text><text fill="#000000" font-family="sans-serif" font-size="13" lengthAdjust="spacingAndGlyphs" textLength="185" x="585" y="70.4653">- Cannot remove last creator</text><text fill="#000000" font-family="sans-serif" font-size="13" lengthAdjust="spacingAndGlyphs" textLength="240" x="585" y="85.5981">- Cannot remove Edition if MediaCopy</text><text fill="#000000" font-family="sans-serif" font-size="13" lengthAdjust="spacingAndGlyphs" textLength="125" x="593" y="100.731">exists referencing it</text><!--MD5=[148a3002404242a1fb9bf2331f66864f]
class MediaCopy--><rect fill="#FEFECE" filter="url(#f1grhq5u8oeov8)" height="92.3516" id="MediaCopy" style="stroke: #A80036; stroke-width: 1.5;" width="137" x="235" y="214"/><ellipse cx="250" cy="232.9688" fill="#ADD1B2" rx="11" ry="11" style="stroke: #A80036; stroke-width: 1.0;"/><path d="M252.9688,238.6094 Q252.3906,238.9063 251.75,239.0469 Q251.1094,239.2031 250.4063,239.2031 Q247.9063,239.2031 246.5781,237.5625 Q245.2656,235.9063 245.2656,232.7813 Q245.2656,229.6563 246.5781,228 Q247.9063,226.3438 250.4063,226.3438 Q251.1094,226.3438 251.75,226.5 Q252.4063,226.6563 252.9688,226.9531 L252.9688,229.6719 Q252.3438,229.0938 251.75,228.8281 Q251.1563,228.5469 250.5313,228.5469 Q249.1875,228.5469 248.5,229.625 Q247.8125,230.6875 247.8125,232.7813 Q247.8125,234.875 248.5,235.9531 Q249.1875,237.0156 250.5313,237.0156 Q251.1563,237.0156 251.75,236.75 Q252.3438,236.4688 252.9688,235.8906 L252.9688,238.6094 Z "/><text fill="#000000" font-family="sans-serif" font-size="12" font-style="italic" lengthAdjust="spacingAndGlyphs" textLength="109" x="262" y="230.1387">«AggregateRoot»</text><text fill="#000000" font-family="sans-serif" font-size="12" lengthAdjust="spacingAndGlyphs" textLength="67" x="283" y="244.1074">MediaCopy</text><line style="stroke: #A80036; stroke-width: 1.5;" x1="236" x2="371" y1="251.9375" y2="251.9375"/><text fill="#000000" font-family="sans-serif" font-size="11" lengthAdjust="spacingAndGlyphs" textLength="54" x="241" y="266.1479">+Id: UUID</text><text fill="#000000" font-family="sans-serif" font-size="11" lengthAdjust="spacingAndGlyphs" textLength="92" x="241" y="278.9526">+EditionId: UUID</text><text fill="#000000" font-family="sans-serif" font-size="11" lengthAdjust="spacingAndGlyphs" textLength="90" x="241" y="291.7573">+Format: string</text><line style="stroke: #A80036; stroke-width: 1.5;" x1="236" x2="371" y1="298.3516" y2="298.3516"/><!--MD5=[73d79d0ca417bfbe0881f0a21c238934]
link MediaWork to Series--><path d="M692.26,351.08 C711.8,372.6 731.78,394.61 748.36,412.88 " fill="none" id="MediaWork-&gt;Series" style="stroke: #A80036; stroke-width: 1.0; stroke-dasharray: 7.0,7.0;"/><polygon fill="#A80036" points="752.06,416.96,748.9926,407.601,748.7073,413.2506,743.0576,412.9653,752.06,416.96" style="stroke: #A80036; stroke-width: 1.0;"/><!--MD5=[03e7ed0dc0f99b05489eb432a809d4e2]
reverse link MediaWork to Edition--><path d="M493.64,335.22 C453.56,360.69 409.93,388.4 374.58,410.85 " fill="none" id="MediaWork&lt;-Edition" style="stroke: #A80036; stroke-width: 1.0;"/><polygon fill="#A80036" points="504.85,328.11,497.6406,327.9517,494.7217,334.5457,501.9311,334.7039,504.85,328.11" style="stroke: #A80036; stroke-width: 1.0;"/><text fill="#000000" font-family="sans-serif" font-size="13" lengthAdjust="spacingAndGlyphs" textLength="8" x="489.1402" y="329.4438">1</text><text fill="#000000" font-family="sans-serif" font-size="13" lengthAdjust="spacingAndGlyphs" textLength="23" x="360.3308" y="400.021">0..*</text><!--MD5=[72246856af6937c3268263d759065537]
link Movie to MediaWork--><path d="M522.17,82.78 C530.79,99.98 543.22,124.77 556.04,150.34 " fill="none" id="Movie-&gt;MediaWork" style="stroke: #A80036; stroke-width: 1.0;"/><polygon fill="none" points="562.46,147.53,565.16,168.55,549.94,153.81,562.46,147.53" style="stroke: #A80036; stroke-width: 1.0;"/><!--MD5=[89afce3a63b81d8da54f15196f69167d]
reverse link Edition to MovieEdition--><path d="M265.19,520.55 C256.65,534.49 247.65,549.18 239.31,562.8 " fill="none" id="Edition&lt;-MovieEdition" style="stroke: #A80036; stroke-width: 1.0;"/><polygon fill="none" points="259.26,516.82,275.68,503.42,271.2,524.13,259.26,516.82" style="stroke: #A80036; stroke-width: 1.0;"/><!--MD5=[4b2448ab1b2d83e81312be3778cec9c7]
reverse link MovieEdition to AudioTrack--><path d="M257.06,685.98 C277.42,712.04 300.14,741.11 317.83,763.75 " fill="none" id="MovieEdition&lt;-AudioTrack" style="stroke: #A80036; stroke-width: 1.0;"/><polygon fill="#A80036" points="248.79,675.4,249.337,682.5903,256.1846,684.8509,255.6376,677.6606,248.79,675.4" style="stroke: #A80036; stroke-width: 1.0;"/><text fill="#000000" font-family="sans-serif" font-size="13" lengthAdjust="spacingAndGlyphs" textLength="23" x="229.6644" y="695.2614">0..*</text><text fill="#000000" font-family="sans-serif" font-size="13" lengthAdjust="spacingAndGlyphs" textLength="23" x="287.8456" y="752.9568">0..*</text><!--MD5=[32eccda26555e7c1dd16c9356315390e]
link MovieEdition to MovieMedium--><path d="M162.51,675.4 C144.07,699.17 122.62,726.81 104.42,750.27 " fill="none" id="MovieEdition-&gt;MovieMedium" style="stroke: #A80036; stroke-width: 1.0;"/><polygon fill="#A80036" points="101.29,754.3,109.9577,749.6233,104.3468,750.3433,103.6269,744.7324,101.29,754.3" style="stroke: #A80036; stroke-width: 1.0;"/><!--MD5=[87081d5a00b446b74a24e9ba1358f46b]
link MovieEdition to MovieCase--><path d="M205.5,675.4 C205.5,692.52 205.5,711.64 205.5,729.77 " fill="none" id="MovieEdition-&gt;MovieCase" style="stroke: #A80036; stroke-width: 1.0;"/><polygon fill="#A80036" points="205.5,734.85,209.5,725.85,205.5,729.85,201.5,725.85,205.5,734.85" style="stroke: #A80036; stroke-width: 1.0;"/><!--MD5=[9ad4f954b28ad54f2491927702a17c0b]
reverse link MediaWork to Contribution--><path d="M610.5,364.24 C610.5,380.63 610.5,396.81 610.5,410.91 " fill="none" id="MediaWork&lt;-Contribution" style="stroke: #A80036; stroke-width: 1.0;"/><polygon fill="#A80036" points="610.5,351.08,606.5,357.08,610.5,363.08,614.5,357.08,610.5,351.08" style="stroke: #A80036; stroke-width: 1.0;"/><text fill="#000000" font-family="sans-serif" font-size="13" lengthAdjust="spacingAndGlyphs" textLength="8" x="602.1813" y="371.0084">1</text><text fill="#000000" font-family="sans-serif" font-size="13" lengthAdjust="spacingAndGlyphs" textLength="23" x="585.8109" y="400.0898">1..*</text><!--MD5=[6381786feb9a91c8b22723cc062b1e26]
reverse link Contribution to ContributionRole--><path d="M610.5,516.7 C610.5,537.45 610.5,560.27 610.5,578.98 " fill="none" id="Contribution&lt;-ContributionRole" style="stroke: #A80036; stroke-width: 1.0;"/><polygon fill="#A80036" points="610.5,503.42,606.5,509.42,610.5,515.42,614.5,509.42,610.5,503.42" style="stroke: #A80036; stroke-width: 1.0;"/><text fill="#000000" font-family="sans-serif" font-size="13" lengthAdjust="spacingAndGlyphs" textLength="8" x="601.9125" y="523.3903">1</text><text fill="#000000" font-family="sans-serif" font-size="13" lengthAdjust="spacingAndGlyphs" textLength="8" x="601.8125" y="567.9297">1</text><!--MD5=[96eca555c283861625927cf39bbe0ece]
link Contribution to Contributor--><path d="M659.33,503.42 C683.65,526.05 712.89,553.24 736.77,575.46 " fill="none" id="Contribution-&gt;Contributor" style="stroke: #A80036; stroke-width: 1.0; stroke-dasharray: 7.0,7.0;"/><polygon fill="#A80036" points="740.55,578.98,736.6834,569.9219,736.8886,575.575,731.2354,575.7802,740.55,578.98" style="stroke: #A80036; stroke-width: 1.0;"/><!--MD5=[58863ec6cf083fff19df8be0751786f0]
link MediaCopy to Edition--><path d="M303.5,306.23 C303.5,335.9 303.5,374.75 303.5,405.44 " fill="none" id="MediaCopy-&gt;Edition" style="stroke: #A80036; stroke-width: 1.0; stroke-dasharray: 7.0,7.0;"/><polygon fill="#A80036" points="303.5,410.68,307.5,401.68,303.5,405.68,299.5,401.68,303.5,410.68" style="stroke: #A80036; stroke-width: 1.0;"/><!--MD5=[648a365aae2b11c3b4cd429cb8b0a9b5]
@startuml
skinparam classAttributeIconSize 0

class Series <<AggregateRoot>> {
    +Id: UUID
    +Title: string
}

abstract class MediaWork <<AggregateRoot>> {
    +Id: UUID
    +Title: string
    +OriginalReleaseDate: LocalDate
    +SeriesId: UUID
    -_editions: List<Edition>
    -_contributions: List<Contribution>
    - -
    +AddEdition(id): void
    +RemoveEdition(id): void
    +AddContribution(id, role): void
    +RemoveContribution(id): void
}

class Movie

abstract class Edition <<Entity>> {
    +Id: UUID
    +ReleaseDate: LocalDate
    +Extras: List<string>
}

class MovieEdition {
    +RuntimeMinutes: int
    +Medium: MovieMedium
    +Case: MovieCase
    +AudioTracks: List<AudioTrack>
    +SubtitleTracks: List<string>
}

enum MovieMedium {
    DVD
    BluRay
    UHD
    Digital
}

enum MovieCase {
    Standard
    Steelbook
    Digipack
    Slipcover
    Boxset
    Mediabook
    Other
}

class AudioTrack <<ValueObject>> {
    +Language: string
    +Format: string
}

MediaWork ..> Series
MediaWork "1" *- - "0..*" Edition
Movie - -|> MediaWork
Edition <|- - MovieEdition
MovieEdition "0..*" *- - "0..*" AudioTrack
MovieEdition - -> MovieMedium
MovieEdition - -> MovieCase

class Contributor <<AggregateRoot>> {
    +Id: UUID
    +Name: string
}

class ContributionRole <<ValueObject>> {
    +Name: string
    - -
    +IsCreator(): bool
}

note left of ContributionRole
Invariant:
- Role knows whether it
  is a creator role
end note

class Contribution <<Entity>> {
    +Id: UUID
    +ContributorId: UUID
    +Role: ContributionRole
}

MediaWork "1" *- - "1..*" Contribution
Contribution "1" *- - "1" ContributionRole
Contribution ..> Contributor

note top of MediaWork
Invariant:
- Must have at least one Contribution
  where Role.IsCreator() == true
- Cannot remove last creator
- Cannot remove Edition if MediaCopy
  exists referencing it
end note

class MediaCopy <<AggregateRoot>> {
    +Id: UUID
    +EditionId: UUID
    +Format: string
}

MediaCopy ..> Edition

@enduml

PlantUML version 1.2020.02(Sun Mar 01 10:22:07 UTC 2020)
(GPL source distribution)
Java Runtime: OpenJDK Runtime Environment
JVM: OpenJDK 64-Bit Server VM
Java Version: 17.0.18+8
Operating System: Linux
Default Encoding: UTF-8
Language: en
Country: null
--></g></svg>