<?xml version="1.0" encoding="UTF-8" standalone="no"?><svg xmlns="http://www.w3.org/2000/svg" xmlns:xlink="http://www.w3.org/1999/xlink" contentScriptType="application/ecmascript" contentStyleType="text/css" height="870px" preserveAspectRatio="none" style="width:865px;height:870px;" version="1.1" viewBox="0 0 865 870" width="865px" zoomAndPan="magnify"><defs><filter height="300%" id="f1d6aaa450b7r4" width="300%" x="-1" y="-1"><feGaussianBlur result="blurOut" stdDeviation="2.0"/><feColorMatrix in="blurOut" result="blurOut2" type="matrix" values="0 0 0 0 0 0 0 0 0 0 0 0 0 0 0 0 0 0 .4 0"/><feOffset dx="4.0" dy="4.0" in="blurOut2" result="blurOut3"/><feBlend in="SourceGraphic" in2="blurOut3" mode="normal"/></filter></defs><g><!--MD5=[8b4fc05e36d07b1a9826242b20f809b8]
class Franchise--><rect fill="#FEFECE" filter="url(#f1d6aaa450b7r4)" height="79.5469" id="Franchise" style="stroke: #A80036; stroke-width: 1.5;" width="137" x="169" y="213.5"/><ellipse cx="184" cy="232.4688" fill="#ADD1B2" rx="11" ry="11" style="stroke: #A80036; stroke-width: 1.0;"/><path d="M186.9688,238.1094 Q186.3906,238.4063 185.75,238.5469 Q185.1094,238.7031 184.4063,238.7031 Q181.9063,238.7031 180.5781,237.0625 Q179.2656,235.4063 179.2656,232.2813 Q179.2656,229.1563 180.5781,227.5 Q181.9063,225.8438 184.4063,225.8438 Q185.1094,225.8438 185.75,226 Q186.4063,226.1563 186.9688,226.4531 L186.9688,229.1719 Q186.3438,228.5938 185.75,228.3281 Q185.1563,228.0469 184.5313,228.0469 Q183.1875,228.0469 182.5,229.125 Q181.8125,230.1875 181.8125,232.2813 Q181.8125,234.375 182.5,235.4531 Q183.1875,236.5156 184.5313,236.5156 Q185.1563,236.5156 185.75,236.25 Q186.3438,235.9688 186.9688,235.3906 L186.9688,238.1094 Z "/><text fill="#000000" font-family="sans-serif" font-size="12" font-style="italic" lengthAdjust="spacingAndGlyphs" textLength="109" x="196" y="229.6387">«AggregateRoot»</text><text fill="#000000" font-family="sans-serif" font-size="12" lengthAdjust="spacingAndGlyphs" textLength="61" x="220" y="243.6074">Franchise</text><line style="stroke: #A80036; stroke-width: 1.5;" x1="170" x2="305" y1="251.4375" y2="251.4375"/><text fill="#000000" font-family="sans-serif" font-size="11" lengthAdjust="spacingAndGlyphs" textLength="54" x="175" y="265.6479">+Id: UUID</text><text fill="#000000" font-family="sans-serif" font-size="11" lengthAdjust="spacingAndGlyphs" textLength="74" x="175" y="278.4526">+Title: string</text><line style="stroke: #A80036; stroke-width: 1.5;" x1="170" x2="305" y1="285.0469" y2="285.0469"/><!--MD5=[b367696a7efde553d41f3151b70a6a04]
class FranchiseMembership--><rect fill="#FEFECE" filter="url(#f1d6aaa450b7r4)" height="92.3516" id="FranchiseMembership" style="stroke: #A80036; stroke-width: 1.5;" width="169" x="161" y="398"/><ellipse cx="176" cy="416.9688" fill="#ADD1B2" rx="11" ry="11" style="stroke: #A80036; stroke-width: 1.0;"/><path d="M178.9688,422.6094 Q178.3906,422.9063 177.75,423.0469 Q177.1094,423.2031 176.4063,423.2031 Q173.9063,423.2031 172.5781,421.5625 Q171.2656,419.9063 171.2656,416.7813 Q171.2656,413.6563 172.5781,412 Q173.9063,410.3438 176.4063,410.3438 Q177.1094,410.3438 177.75,410.5 Q178.4063,410.6563 178.9688,410.9531 L178.9688,413.6719 Q178.3438,413.0938 177.75,412.8281 Q177.1563,412.5469 176.5313,412.5469 Q175.1875,412.5469 174.5,413.625 Q173.8125,414.6875 173.8125,416.7813 Q173.8125,418.875 174.5,419.9531 Q175.1875,421.0156 176.5313,421.0156 Q177.1563,421.0156 177.75,420.75 Q178.3438,420.4688 178.9688,419.8906 L178.9688,422.6094 Z "/><text fill="#000000" font-family="sans-serif" font-size="12" font-style="italic" lengthAdjust="spacingAndGlyphs" textLength="50" x="233.5" y="414.1387">«Entity»</text><text fill="#000000" font-family="sans-serif" font-size="12" lengthAdjust="spacingAndGlyphs" textLength="137" x="190" y="428.1074">FranchiseMembership</text><line style="stroke: #A80036; stroke-width: 1.5;" x1="162" x2="329" y1="435.9375" y2="435.9375"/><text fill="#000000" font-family="sans-serif" font-size="11" lengthAdjust="spacingAndGlyphs" textLength="114" x="167" y="450.1479">+MediaWorkId: UUID</text><text fill="#000000" font-family="sans-serif" font-size="11" lengthAdjust="spacingAndGlyphs" textLength="109" x="167" y="462.9526">+FranchiseId: UUID</text><text fill="#000000" font-family="sans-serif" font-size="11" lengthAdjust="spacingAndGlyphs" textLength="129" x="167" y="475.7573">+OrderInFranchise: int</text><line style="stroke: #A80036; stroke-width: 1.5;" x1="162" x2="329" y1="482.3516" y2="482.3516"/><!--MD5=[c3dd83c4944f050787f4b644933234ea]
class MediaWork--><rect fill="#FEFECE" filter="url(#f1d6aaa450b7r4)" height="169.1797" id="MediaWork" style="stroke: #A80036; stroke-width: 1.5;" width="211" x="341" y="169"/><ellipse cx="389.75" cy="187.9688" fill="#A9DCDF" rx="11" ry="11" style="stroke: #A80036; stroke-width: 1.0;"/><path d="M389.8594,183.3125 L388.7031,188.3906 L391.0313,188.3906 L389.8594,183.3125 Z M388.375,181.0781 L391.3594,181.0781 L394.7188,193.4688 L392.2656,193.4688 L391.5,190.4063 L388.2188,190.4063 L387.4688,193.4688 L385.0313,193.4688 L388.375,181.0781 Z "/><text fill="#000000" font-family="sans-serif" font-size="12" font-style="italic" lengthAdjust="spacingAndGlyphs" textLength="109" x="408.25" y="185.1387">«AggregateRoot»</text><text fill="#000000" font-family="sans-serif" font-size="12" font-style="italic" lengthAdjust="spacingAndGlyphs" textLength="69" x="428.25" y="199.1074">MediaWork</text><line style="stroke: #A80036; stroke-width: 1.5;" x1="342" x2="551" y1="206.9375" y2="206.9375"/><text fill="#000000" font-family="sans-serif" font-size="11" lengthAdjust="spacingAndGlyphs" textLength="54" x="347" y="221.1479">+Id: UUID</text><text fill="#000000" font-family="sans-serif" font-size="11" lengthAdjust="spacingAndGlyphs" textLength="74" x="347" y="233.9526">+Title: string</text><text fill="#000000" font-family="sans-serif" font-size="11" lengthAdjust="spacingAndGlyphs" textLength="187" x="347" y="246.7573">+OriginalReleaseDate: LocalDate</text><text fill="#000000" font-family="sans-serif" font-size="11" lengthAdjust="spacingAndGlyphs" textLength="139" x="347" y="259.562">-_editions: List&lt;Edition&gt;</text><text fill="#000000" font-family="sans-serif" font-size="11" lengthAdjust="spacingAndGlyphs" textLength="199" x="347" y="272.3667">-_contributions: List&lt;Contribution&gt;</text><line style="stroke: #A80036; stroke-width: 1.0;" x1="342" x2="551" y1="278.9609" y2="278.9609"/><text fill="#000000" font-family="sans-serif" font-size="11" lengthAdjust="spacingAndGlyphs" textLength="117" x="347" y="293.1714">+AddEdition(id): void</text><text fill="#000000" font-family="sans-serif" font-size="11" lengthAdjust="spacingAndGlyphs" textLength="141" x="347" y="305.9761">+RemoveEdition(id): void</text><text fill="#000000" font-family="sans-serif" font-size="11" lengthAdjust="spacingAndGlyphs" textLength="178" x="347" y="318.7808">+AddContribution(id, role): void</text><text fill="#000000" font-family="sans-serif" font-size="11" lengthAdjust="spacingAndGlyphs" textLength="172" x="347" y="331.5854">+RemoveContribution(id): void</text><!--MD5=[e69084ab16b022bdbef99762ea85e9d6]
class Movie--><rect fill="#FEFECE" filter="url(#f1d6aaa450b7r4)" height="48" id="Movie" style="stroke: #A80036; stroke-width: 1.5;" width="67" x="313" y="34.5"/><ellipse cx="328" cy="50.5" fill="#ADD1B2" rx="11" ry="11" style="stroke: #A80036; stroke-width: 1.0;"/><path d="M330.9688,56.1406 Q330.3906,56.4375 329.75,56.5781 Q329.1094,56.7344 328.4063,56.7344 Q325.9063,56.7344 324.5781,55.0938 Q323.2656,53.4375 323.2656,50.3125 Q323.2656,47.1875 324.5781,45.5313 Q325.9063,43.875 328.4063,43.875 Q329.1094,43.875 329.75,44.0313 Q330.4063,44.1875 330.9688,44.4844 L330.9688,47.2031 Q330.3438,46.625 329.75,46.3594 Q329.1563,46.0781 328.5313,46.0781 Q327.1875,46.0781 326.5,47.1563 Q325.8125,48.2188 325.8125,50.3125 Q325.8125,52.4063 326.5,53.4844 Q327.1875,54.5469 328.5313,54.5469 Q329.1563,54.5469 329.75,54.2813 Q330.3438,54 330.9688,53.4219 L330.9688,56.1406 Z "/><text fill="#000000" font-family="sans-serif" font-size="12" lengthAdjust="spacingAndGlyphs" textLength="35" x="342" y="54.6543">Movie</text><line style="stroke: #A80036; stroke-width: 1.5;" x1="314" x2="379" y1="66.5" y2="66.5"/><line style="stroke: #A80036; stroke-width: 1.5;" x1="314" x2="379" y1="74.5" y2="74.5"/><!--MD5=[a37707a5a7e4fa9ccccea367e3a415b8]
class Edition--><rect fill="#FEFECE" filter="url(#f1d6aaa450b7r4)" height="92.3516" id="Edition" style="stroke: #A80036; stroke-width: 1.5;" width="155" x="575" y="398"/><ellipse cx="625.25" cy="416.9688" fill="#A9DCDF" rx="11" ry="11" style="stroke: #A80036; stroke-width: 1.0;"/><path d="M625.3594,412.3125 L624.2031,417.3906 L626.5313,417.3906 L625.3594,412.3125 Z M623.875,410.0781 L626.8594,410.0781 L630.2188,422.4688 L627.7656,422.4688 L627,419.4063 L623.7188,419.4063 L622.9688,422.4688 L620.5313,422.4688 L623.875,410.0781 Z "/><text fill="#000000" font-family="sans-serif" font-size="12" font-style="italic" lengthAdjust="spacingAndGlyphs" textLength="50" x="643.75" y="414.1387">«Entity»</text><text fill="#000000" font-family="sans-serif" font-size="12" font-style="italic" lengthAdjust="spacingAndGlyphs" textLength="43" x="647.25" y="428.1074">Edition</text><line style="stroke: #A80036; stroke-width: 1.5;" x1="576" x2="729" y1="435.9375" y2="435.9375"/><text fill="#000000" font-family="sans-serif" font-size="11" lengthAdjust="spacingAndGlyphs" textLength="54" x="581" y="450.1479">+Id: UUID</text><text fill="#000000" font-family="sans-serif" font-size="11" lengthAdjust="spacingAndGlyphs" textLength="143" x="581" y="462.9526">+ReleaseDate: LocalDate</text><text fill="#000000" font-family="sans-serif" font-size="11" lengthAdjust="spacingAndGlyphs" textLength="124" x="581" y="475.7573">+Extras: List&lt;string&gt;</text><line style="stroke: #A80036; stroke-width: 1.5;" x1="576" x2="729" y1="482.3516" y2="482.3516"/><!--MD5=[73944afb6e9f06e6d5ee91305b4bcc5c]
class MovieEdition--><rect fill="#FEFECE" filter="url(#f1d6aaa450b7r4)" height="112.0234" id="MovieEdition" style="stroke: #A80036; stroke-width: 1.5;" width="198" x="553.5" y="550"/><ellipse cx="609.25" cy="566" fill="#ADD1B2" rx="11" ry="11" style="stroke: #A80036; stroke-width: 1.0;"/><path d="M612.2188,571.6406 Q611.6406,571.9375 611,572.0781 Q610.3594,572.2344 609.6563,572.2344 Q607.1563,572.2344 605.8281,570.5938 Q604.5156,568.9375 604.5156,565.8125 Q604.5156,562.6875 605.8281,561.0313 Q607.1563,559.375 609.6563,559.375 Q610.3594,559.375 611,559.5313 Q611.6563,559.6875 612.2188,559.9844 L612.2188,562.7031 Q611.5938,562.125 611,561.8594 Q610.4063,561.5781 609.7813,561.5781 Q608.4375,561.5781 607.75,562.6563 Q607.0625,563.7188 607.0625,565.8125 Q607.0625,567.9063 607.75,568.9844 Q608.4375,570.0469 609.7813,570.0469 Q610.4063,570.0469 611,569.7813 Q611.5938,569.5 612.2188,568.9219 L612.2188,571.6406 Z "/><text fill="#000000" font-family="sans-serif" font-size="12" lengthAdjust="spacingAndGlyphs" textLength="78" x="629.75" y="570.1543">MovieEdition</text><line style="stroke: #A80036; stroke-width: 1.5;" x1="554.5" x2="750.5" y1="582" y2="582"/><text fill="#000000" font-family="sans-serif" font-size="11" lengthAdjust="spacingAndGlyphs" textLength="121" x="559.5" y="596.2104">+RuntimeMinutes: int</text><text fill="#000000" font-family="sans-serif" font-size="11" lengthAdjust="spacingAndGlyphs" textLength="137" x="559.5" y="609.0151">+Medium: MovieMedium</text><text fill="#000000" font-family="sans-serif" font-size="11" lengthAdjust="spacingAndGlyphs" textLength="107" x="559.5" y="621.8198">+Case: MovieCase</text><text fill="#000000" font-family="sans-serif" font-size="11" lengthAdjust="spacingAndGlyphs" textLength="186" x="559.5" y="634.6245">+AudioTracks: List&lt;AudioTrack&gt;</text><text fill="#000000" font-family="sans-serif" font-size="11" lengthAdjust="spacingAndGlyphs" textLength="169" x="559.5" y="647.4292">+SubtitleTracks: List&lt;string&gt;</text><line style="stroke: #A80036; stroke-width: 1.5;" x1="554.5" x2="750.5" y1="654.0234" y2="654.0234"/><!--MD5=[f6c43adb90ae37bff2480345367d59dd]
class VideoMedium--><rect fill="#FEFECE" filter="url(#f1d6aaa450b7r4)" height="99.2188" id="VideoMedium" style="stroke: #A80036; stroke-width: 1.5;" width="115" x="453" y="741.5"/><ellipse cx="468" cy="757.5" fill="#EB937F" rx="11" ry="11" style="stroke: #A80036; stroke-width: 1.0;"/><path d="M472.1094,763.5 L464.3906,763.5 L464.3906,751.1094 L472.1094,751.1094 L472.1094,753.2656 L466.8438,753.2656 L466.8438,755.9375 L471.6094,755.9375 L471.6094,758.0938 L466.8438,758.0938 L466.8438,761.3438 L472.1094,761.3438 L472.1094,763.5 Z "/><text fill="#000000" font-family="sans-serif" font-size="12" lengthAdjust="spacingAndGlyphs" textLength="83" x="482" y="761.6543">VideoMedium</text><line style="stroke: #A80036; stroke-width: 1.5;" x1="454" x2="567" y1="773.5" y2="773.5"/><text fill="#000000" font-family="sans-serif" font-size="11" lengthAdjust="spacingAndGlyphs" textLength="23" x="459" y="787.7104">DVD</text><text fill="#000000" font-family="sans-serif" font-size="11" lengthAdjust="spacingAndGlyphs" textLength="38" x="459" y="800.5151">BluRay</text><text fill="#000000" font-family="sans-serif" font-size="11" lengthAdjust="spacingAndGlyphs" textLength="24" x="459" y="813.3198">UHD</text><text fill="#000000" font-family="sans-serif" font-size="11" lengthAdjust="spacingAndGlyphs" textLength="35" x="459" y="826.1245">Digital</text><line style="stroke: #A80036; stroke-width: 1.5;" x1="454" x2="567" y1="832.7188" y2="832.7188"/><!--MD5=[da9345c54be575bfa6ea5f631e9062b6]
class VideoCase--><rect fill="#FEFECE" filter="url(#f1d6aaa450b7r4)" height="137.6328" id="VideoCase" style="stroke: #A80036; stroke-width: 1.5;" width="98" x="603.5" y="722"/><ellipse cx="618.5" cy="738" fill="#EB937F" rx="11" ry="11" style="stroke: #A80036; stroke-width: 1.0;"/><path d="M622.6094,744 L614.8906,744 L614.8906,731.6094 L622.6094,731.6094 L622.6094,733.7656 L617.3438,733.7656 L617.3438,736.4375 L622.1094,736.4375 L622.1094,738.5938 L617.3438,738.5938 L617.3438,741.8438 L622.6094,741.8438 L622.6094,744 Z "/><text fill="#000000" font-family="sans-serif" font-size="12" lengthAdjust="spacingAndGlyphs" textLength="66" x="632.5" y="742.1543">VideoCase</text><line style="stroke: #A80036; stroke-width: 1.5;" x1="604.5" x2="700.5" y1="754" y2="754"/><text fill="#000000" font-family="sans-serif" font-size="11" lengthAdjust="spacingAndGlyphs" textLength="52" x="609.5" y="768.2104">Standard</text><text fill="#000000" font-family="sans-serif" font-size="11" lengthAdjust="spacingAndGlyphs" textLength="56" x="609.5" y="781.0151">Steelbook</text><text fill="#000000" font-family="sans-serif" font-size="11" lengthAdjust="spacingAndGlyphs" textLength="47" x="609.5" y="793.8198">Digipack</text><text fill="#000000" font-family="sans-serif" font-size="11" lengthAdjust="spacingAndGlyphs" textLength="52" x="609.5" y="806.6245">Slipcover</text><text fill="#000000" font-family="sans-serif" font-size="11" lengthAdjust="spacingAndGlyphs" textLength="39" x="609.5" y="819.4292">Boxset</text><text fill="#000000" font-family="sans-serif" font-size="11" lengthAdjust="spacingAndGlyphs" textLength="60" x="609.5" y="832.2339">Mediabook</text><text fill="#000000" font-family="sans-serif" font-size="11" lengthAdjust="spacingAndGlyphs" textLength="32" x="609.5" y="845.0386">Other</text><line style="stroke: #A80036; stroke-width: 1.5;" x1="604.5" x2="700.5" y1="851.6328" y2="851.6328"/><!--MD5=[55a6f80882d3cd7368bedd1107f01aad]
class AudioTrack--><rect fill="#FEFECE" filter="url(#f1d6aaa450b7r4)" height="79.5469" id="AudioTrack" style="stroke: #A80036; stroke-width: 1.5;" width="117" x="737" y="751"/><ellipse cx="752.45" cy="769.9688" fill="#ADD1B2" rx="11" ry="11" style="stroke: #A80036; stroke-width: 1.0;"/><path d="M755.4188,775.6094 Q754.8406,775.9063 754.2,776.0469 Q753.5594,776.2031 752.8563,776.2031 Q750.3563,776.2031 749.0281,774.5625 Q747.7156,772.9063 747.7156,769.7813 Q747.7156,766.6563 749.0281,765 Q750.3563,763.3438 752.8563,763.3438 Q753.5594,763.3438 754.2,763.5 Q754.8563,763.6563 755.4188,763.9531 L755.4188,766.6719 Q754.7938,766.0938 754.2,765.8281 Q753.6063,765.5469 752.9813,765.5469 Q751.6375,765.5469 750.95,766.625 Q750.2625,767.6875 750.2625,769.7813 Q750.2625,771.875 750.95,772.9531 Q751.6375,774.0156 752.9813,774.0156 Q753.6063,774.0156 754.2,773.75 Q754.7938,773.4688 755.4188,772.8906 L755.4188,775.6094 Z "/><text fill="#000000" font-family="sans-serif" font-size="12" font-style="italic" lengthAdjust="spacingAndGlyphs" textLength="88" x="764.55" y="767.1387">«ValueObject»</text><text fill="#000000" font-family="sans-serif" font-size="12" lengthAdjust="spacingAndGlyphs" textLength="69" x="774.05" y="781.1074">AudioTrack</text><line style="stroke: #A80036; stroke-width: 1.5;" x1="738" x2="853" y1="788.9375" y2="788.9375"/><text fill="#000000" font-family="sans-serif" font-size="11" lengthAdjust="spacingAndGlyphs" textLength="105" x="743" y="803.1479">+Language: string</text><text fill="#000000" font-family="sans-serif" font-size="11" lengthAdjust="spacingAndGlyphs" textLength="90" x="743" y="815.9526">+Format: string</text><line style="stroke: #A80036; stroke-width: 1.5;" x1="738" x2="853" y1="822.5469" y2="822.5469"/><!--MD5=[1a95835255177050dd8028a7da1b3a6a]
class Contributor--><rect fill="#FEFECE" filter="url(#f1d6aaa450b7r4)" height="79.5469" id="Contributor" style="stroke: #A80036; stroke-width: 1.5;" width="137" x="380" y="566"/><ellipse cx="395" cy="584.9688" fill="#ADD1B2" rx="11" ry="11" style="stroke: #A80036; stroke-width: 1.0;"/><path d="M397.9688,590.6094 Q397.3906,590.9063 396.75,591.0469 Q396.1094,591.2031 395.4063,591.2031 Q392.9063,591.2031 391.5781,589.5625 Q390.2656,587.9063 390.2656,584.7813 Q390.2656,581.6563 391.5781,580 Q392.9063,578.3438 395.4063,578.3438 Q396.1094,578.3438 396.75,578.5 Q397.4063,578.6563 397.9688,578.9531 L397.9688,581.6719 Q397.3438,581.0938 396.75,580.8281 Q396.1563,580.5469 395.5313,580.5469 Q394.1875,580.5469 393.5,581.625 Q392.8125,582.6875 392.8125,584.7813 Q392.8125,586.875 393.5,587.9531 Q394.1875,589.0156 395.5313,589.0156 Q396.1563,589.0156 396.75,588.75 Q397.3438,588.4688 397.9688,587.8906 L397.9688,590.6094 Z "/><text fill="#000000" font-family="sans-serif" font-size="12" font-style="italic" lengthAdjust="spacingAndGlyphs" textLength="109" x="407" y="582.1387">«AggregateRoot»</text><text fill="#000000" font-family="sans-serif" font-size="12" lengthAdjust="spacingAndGlyphs" textLength="71" x="426" y="596.1074">Contributor</text><line style="stroke: #A80036; stroke-width: 1.5;" x1="381" x2="516" y1="603.9375" y2="603.9375"/><text fill="#000000" font-family="sans-serif" font-size="11" lengthAdjust="spacingAndGlyphs" textLength="54" x="386" y="618.1479">+Id: UUID</text><text fill="#000000" font-family="sans-serif" font-size="11" lengthAdjust="spacingAndGlyphs" textLength="83" x="386" y="630.9526">+Name: string</text><line style="stroke: #A80036; stroke-width: 1.5;" x1="381" x2="516" y1="637.5469" y2="637.5469"/><!--MD5=[8943b56400e757f675b04ec0bb9ca022]
class ContributionRole--><rect fill="#FEFECE" filter="url(#f1d6aaa450b7r4)" height="79.5469" id="ContributionRole" style="stroke: #A80036; stroke-width: 1.5;" width="136" x="208.5" y="566"/><ellipse cx="223.5" cy="584.9688" fill="#ADD1B2" rx="11" ry="11" style="stroke: #A80036; stroke-width: 1.0;"/><path d="M226.4688,590.6094 Q225.8906,590.9063 225.25,591.0469 Q224.6094,591.2031 223.9063,591.2031 Q221.4063,591.2031 220.0781,589.5625 Q218.7656,587.9063 218.7656,584.7813 Q218.7656,581.6563 220.0781,580 Q221.4063,578.3438 223.9063,578.3438 Q224.6094,578.3438 225.25,578.5 Q225.9063,578.6563 226.4688,578.9531 L226.4688,581.6719 Q225.8438,581.0938 225.25,580.8281 Q224.6563,580.5469 224.0313,580.5469 Q222.6875,580.5469 222,581.625 Q221.3125,582.6875 221.3125,584.7813 Q221.3125,586.875 222,587.9531 Q222.6875,589.0156 224.0313,589.0156 Q224.6563,589.0156 225.25,588.75 Q225.8438,588.4688 226.4688,587.8906 L226.4688,590.6094 Z "/><text fill="#000000" font-family="sans-serif" font-size="12" font-style="italic" lengthAdjust="spacingAndGlyphs" textLength="88" x="245.5" y="582.1387">«ValueObject»</text><text fill="#000000" font-family="sans-serif" font-size="12" lengthAdjust="spacingAndGlyphs" textLength="104" x="237.5" y="596.1074">ContributionRole</text><line style="stroke: #A80036; stroke-width: 1.5;" x1="209.5" x2="343.5" y1="603.9375" y2="603.9375"/><text fill="#000000" font-family="sans-serif" font-size="11" lengthAdjust="spacingAndGlyphs" textLength="83" x="214.5" y="618.1479">+Name: string</text><line style="stroke: #A80036; stroke-width: 1.0;" x1="209.5" x2="343.5" y1="624.7422" y2="624.7422"/><text fill="#000000" font-family="sans-serif" font-size="11" lengthAdjust="spacingAndGlyphs" textLength="102" x="214.5" y="638.9526">+IsCreator(): bool</text><path d="M6,578.5 L6,633.8984 A0,0 0 0 0 6,633.8984 L173,633.8984 A0,0 0 0 0 173,633.8984 L173,610 L208.27,606 L173,602 L173,588.5 L163,578.5 L6,578.5 A0,0 0 0 0 6,578.5 " fill="#FBFB77" filter="url(#f1d6aaa450b7r4)" style="stroke: #A80036; stroke-width: 1.0;"/><path d="M163,578.5 L163,588.5 L173,588.5 L163,578.5 " fill="#FBFB77" style="stroke: #A80036; stroke-width: 1.0;"/><text fill="#000000" font-family="sans-serif" font-size="13" lengthAdjust="spacingAndGlyphs" textLength="59" x="12" y="595.5669">Invariant:</text><text fill="#000000" font-family="sans-serif" font-size="13" lengthAdjust="spacingAndGlyphs" textLength="146" x="12" y="610.6997">- Role knows whether it</text><text fill="#000000" font-family="sans-serif" font-size="13" lengthAdjust="spacingAndGlyphs" textLength="100" x="20" y="625.8325">is a creator role</text><!--MD5=[0330879a1a385efee19ba3488ed490fa]
class Contribution--><rect fill="#FEFECE" filter="url(#f1d6aaa450b7r4)" height="92.3516" id="Contribution" style="stroke: #A80036; stroke-width: 1.5;" width="146" x="373.5" y="398"/><ellipse cx="405.15" cy="416.9688" fill="#ADD1B2" rx="11" ry="11" style="stroke: #A80036; stroke-width: 1.0;"/><path d="M408.1188,422.6094 Q407.5406,422.9063 406.9,423.0469 Q406.2594,423.2031 405.5563,423.2031 Q403.0563,423.2031 401.7281,421.5625 Q400.4156,419.9063 400.4156,416.7813 Q400.4156,413.6563 401.7281,412 Q403.0563,410.3438 405.5563,410.3438 Q406.2594,410.3438 406.9,410.5 Q407.5563,410.6563 408.1188,410.9531 L408.1188,413.6719 Q407.4938,413.0938 406.9,412.8281 Q406.3063,412.5469 405.6813,412.5469 Q404.3375,412.5469 403.65,413.625 Q402.9625,414.6875 402.9625,416.7813 Q402.9625,418.875 403.65,419.9531 Q404.3375,421.0156 405.6813,421.0156 Q406.3063,421.0156 406.9,420.75 Q407.4938,420.4688 408.1188,419.8906 L408.1188,422.6094 Z "/><text fill="#000000" font-family="sans-serif" font-size="12" font-style="italic" lengthAdjust="spacingAndGlyphs" textLength="50" x="436.35" y="414.1387">«Entity»</text><text fill="#000000" font-family="sans-serif" font-size="12" lengthAdjust="spacingAndGlyphs" textLength="77" x="422.85" y="428.1074">Contribution</text><line style="stroke: #A80036; stroke-width: 1.5;" x1="374.5" x2="518.5" y1="435.9375" y2="435.9375"/><text fill="#000000" font-family="sans-serif" font-size="11" lengthAdjust="spacingAndGlyphs" textLength="54" x="379.5" y="450.1479">+Id: UUID</text><text fill="#000000" font-family="sans-serif" font-size="11" lengthAdjust="spacingAndGlyphs" textLength="118" x="379.5" y="462.9526">+ContributorId: UUID</text><text fill="#000000" font-family="sans-serif" font-size="11" lengthAdjust="spacingAndGlyphs" textLength="134" x="379.5" y="475.7573">+Role: ContributionRole</text><line style="stroke: #A80036; stroke-width: 1.5;" x1="374.5" x2="518.5" y1="482.3516" y2="482.3516"/><path d="M415,8 L415,108.7969 A0,0 0 0 0 415,108.7969 L516.01,108.7969 L489.38,168.9 L524.01,108.7969 L676,108.7969 A0,0 0 0 0 676,108.7969 L676,18 L666,8 L415,8 A0,0 0 0 0 415,8 " fill="#FBFB77" filter="url(#f1d6aaa450b7r4)" style="stroke: #A80036; stroke-width: 1.0;"/><path d="M666,8 L666,18 L676,18 L666,8 " fill="#FBFB77" style="stroke: #A80036; stroke-width: 1.0;"/><text fill="#000000" font-family="sans-serif" font-size="13" lengthAdjust="spacingAndGlyphs" textLength="59" x="421" y="25.0669">Invariant:</text><text fill="#000000" font-family="sans-serif" font-size="13" lengthAdjust="spacingAndGlyphs" textLength="237" x="421" y="40.1997">- Must have at least one Contribution</text><text fill="#000000" font-family="sans-serif" font-size="13" lengthAdjust="spacingAndGlyphs" textLength="197" x="429" y="55.3325">where Role.IsCreator() == true</text><text fill="#000000" font-family="sans-serif" font-size="13" lengthAdjust="spacingAndGlyphs" textLength="185" x="421" y="70.4653">- Cannot remove last creator</text><text fill="#000000" font-family="sans-serif" font-size="13" lengthAdjust="spacingAndGlyphs" textLength="240" x="421" y="85.5981">- Cannot remove Edition if MediaCopy</text><text fill="#000000" font-family="sans-serif" font-size="13" lengthAdjust="spacingAndGlyphs" textLength="125" x="429" y="100.731">exists referencing it</text><!--MD5=[148a3002404242a1fb9bf2331f66864f]
class MediaCopy--><rect fill="#FEFECE" filter="url(#f1d6aaa450b7r4)" height="92.3516" id="MediaCopy" style="stroke: #A80036; stroke-width: 1.5;" width="137" x="587" y="207.5"/><ellipse cx="602" cy="226.4688" fill="#ADD1B2" rx="11" ry="11" style="stroke: #A80036; stroke-width: 1.0;"/><path d="M604.9688,232.1094 Q604.3906,232.4063 603.75,232.5469 Q603.1094,232.7031 602.4063,232.7031 Q599.9063,232.7031 598.5781,231.0625 Q597.2656,229.4063 597.2656,226.2813 Q597.2656,223.1563 598.5781,221.5 Q599.9063,219.8438 602.4063,219.8438 Q603.1094,219.8438 603.75,220 Q604.4063,220.1563 604.9688,220.4531 L604.9688,223.1719 Q604.3438,222.5938 603.75,222.3281 Q603.1563,222.0469 602.5313,222.0469 Q601.1875,222.0469 600.5,223.125 Q599.8125,224.1875 599.8125,226.2813 Q599.8125,228.375 600.5,229.4531 Q601.1875,230.5156 602.5313,230.5156 Q603.1563,230.5156 603.75,230.25 Q604.3438,229.9688 604.9688,229.3906 L604.9688,232.1094 Z "/><text fill="#000000" font-family="sans-serif" font-size="12" font-style="italic" lengthAdjust="spacingAndGlyphs" textLength="109" x="614" y="223.6387">«AggregateRoot»</text><text fill="#000000" font-family="sans-serif" font-size="12" lengthAdjust="spacingAndGlyphs" textLength="67" x="635" y="237.6074">MediaCopy</text><line style="stroke: #A80036; stroke-width: 1.5;" x1="588" x2="723" y1="245.4375" y2="245.4375"/><text fill="#000000" font-family="sans-serif" font-size="11" lengthAdjust="spacingAndGlyphs" textLength="54" x="593" y="259.6479">+Id: UUID</text><text fill="#000000" font-family="sans-serif" font-size="11" lengthAdjust="spacingAndGlyphs" textLength="92" x="593" y="272.4526">+EditionId: UUID</text><text fill="#000000" font-family="sans-serif" font-size="11" lengthAdjust="spacingAndGlyphs" textLength="90" x="593" y="285.2573">+Format: string</text><line style="stroke: #A80036; stroke-width: 1.5;" x1="588" x2="723" y1="291.8516" y2="291.8516"/><!--MD5=[8e5598e971a6e533adf117e9ddab4c4a]
reverse link Franchise to FranchiseMembership--><path d="M239.71,306.59 C240.92,335.17 242.41,370.26 243.58,397.69 " fill="none" id="Franchise&lt;-FranchiseMembership" style="stroke: #A80036; stroke-width: 1.0;"/><polygon fill="#A80036" points="239.16,293.56,235.4209,299.7259,239.6744,305.549,243.4135,299.383,239.16,293.56" style="stroke: #A80036; stroke-width: 1.0;"/><text fill="#000000" font-family="sans-serif" font-size="13" lengthAdjust="spacingAndGlyphs" textLength="8" x="230.7871" y="313.2535">1</text><text fill="#000000" font-family="sans-serif" font-size="13" lengthAdjust="spacingAndGlyphs" textLength="23" x="218.6089" y="386.8375">0..*</text><!--MD5=[83ba30049ecbee829cf46810f0566891]
reverse link MediaWork to FranchiseMembership--><path d="M347.91,346.96 C329.03,364.66 310.06,382.46 293.66,397.83 " fill="none" id="MediaWork&lt;-FranchiseMembership" style="stroke: #A80036; stroke-width: 1.0;"/><polygon fill="#A80036" points="357.46,338,350.3474,339.188,348.7084,346.2104,355.821,345.0224,357.46,338" style="stroke: #A80036; stroke-width: 1.0;"/><text fill="#000000" font-family="sans-serif" font-size="13" lengthAdjust="spacingAndGlyphs" textLength="8" x="341.1736" y="358.2586">1</text><text fill="#000000" font-family="sans-serif" font-size="13" lengthAdjust="spacingAndGlyphs" textLength="23" x="276.0444" y="386.998">0..*</text><!--MD5=[03e7ed0dc0f99b05489eb432a809d4e2]
reverse link MediaWork to Edition--><path d="M547.54,346.96 C566.89,364.66 586.33,382.46 603.14,397.83 " fill="none" id="MediaWork&lt;-Edition" style="stroke: #A80036; stroke-width: 1.0;"/><polygon fill="#A80036" points="537.75,338,539.4705,345.0028,546.5964,346.1081,544.8759,339.1053,537.75,338" style="stroke: #A80036; stroke-width: 1.0;"/><text fill="#000000" font-family="sans-serif" font-size="13" lengthAdjust="spacingAndGlyphs" textLength="8" x="537.5207" y="358.2586">1</text><text fill="#000000" font-family="sans-serif" font-size="13" lengthAdjust="spacingAndGlyphs" textLength="23" x="571.2012" y="386.998">0..*</text><!--MD5=[72246856af6937c3268263d759065537]
link Movie to MediaWork--><path d="M358.56,82.78 C367.55,100.13 380.51,125.14 393.73,150.64 " fill="none" id="Movie-&gt;MediaWork" style="stroke: #A80036; stroke-width: 1.0;"/><polygon fill="none" points="400.12,147.77,403.11,168.75,387.69,154.21,400.12,147.77" style="stroke: #A80036; stroke-width: 1.0;"/><!--MD5=[89afce3a63b81d8da54f15196f69167d]
reverse link Edition to MovieEdition--><path d="M652.5,510.81 C652.5,523.77 652.5,537.24 652.5,549.8 " fill="none" id="Edition&lt;-MovieEdition" style="stroke: #A80036; stroke-width: 1.0;"/><polygon fill="none" points="645.5,510.42,652.5,490.42,659.5,510.42,645.5,510.42" style="stroke: #A80036; stroke-width: 1.0;"/><!--MD5=[4b2448ab1b2d83e81312be3778cec9c7]
reverse link MovieEdition to AudioTrack--><path d="M704.06,672.98 C724.42,699.04 747.14,728.11 764.83,750.75 " fill="none" id="MovieEdition&lt;-AudioTrack" style="stroke: #A80036; stroke-width: 1.0;"/><polygon fill="#A80036" points="695.79,662.4,696.337,669.5903,703.1846,671.8509,702.6376,664.6606,695.79,662.4" style="stroke: #A80036; stroke-width: 1.0;"/><text fill="#000000" font-family="sans-serif" font-size="13" lengthAdjust="spacingAndGlyphs" textLength="23" x="676.6644" y="682.2614">0..*</text><text fill="#000000" font-family="sans-serif" font-size="13" lengthAdjust="spacingAndGlyphs" textLength="23" x="734.8456" y="739.9568">0..*</text><!--MD5=[379a89bfe4b214e2127bd988e6267588]
link MovieEdition to VideoMedium--><path d="M609.51,662.4 C591.07,686.17 569.62,713.81 551.42,737.27 " fill="none" id="MovieEdition-&gt;VideoMedium" style="stroke: #A80036; stroke-width: 1.0;"/><polygon fill="#A80036" points="548.29,741.3,556.9577,736.6233,551.3468,737.3433,550.6269,731.7324,548.29,741.3" style="stroke: #A80036; stroke-width: 1.0;"/><!--MD5=[569660afef68e54f8e7b0a445822999f]
link MovieEdition to VideoCase--><path d="M652.5,662.4 C652.5,679.52 652.5,698.64 652.5,716.77 " fill="none" id="MovieEdition-&gt;VideoCase" style="stroke: #A80036; stroke-width: 1.0;"/><polygon fill="#A80036" points="652.5,721.85,656.5,712.85,652.5,716.85,648.5,712.85,652.5,721.85" style="stroke: #A80036; stroke-width: 1.0;"/><!--MD5=[9ad4f954b28ad54f2491927702a17c0b]
reverse link MediaWork to Contribution--><path d="M446.5,351.08 C446.5,367.41 446.5,383.65 446.5,397.83 " fill="none" id="MediaWork&lt;-Contribution" style="stroke: #A80036; stroke-width: 1.0;"/><polygon fill="#A80036" points="446.5,338,442.5,344,446.5,350,450.5,344,446.5,338" style="stroke: #A80036; stroke-width: 1.0;"/><text fill="#000000" font-family="sans-serif" font-size="13" lengthAdjust="spacingAndGlyphs" textLength="8" x="438.1438" y="358.2586">1</text><text fill="#000000" font-family="sans-serif" font-size="13" lengthAdjust="spacingAndGlyphs" textLength="23" x="421.8109" y="386.998">1..*</text><!--MD5=[6381786feb9a91c8b22723cc062b1e26]
reverse link Contribution to ContributionRole--><path d="M388.51,499.58 C365.34,521.39 339.17,546.02 317.96,565.98 " fill="none" id="Contribution&lt;-ContributionRole" style="stroke: #A80036; stroke-width: 1.0;"/><polygon fill="#A80036" points="398.24,490.42,391.1302,491.6247,389.5078,498.651,396.6176,497.4462,398.24,490.42" style="stroke: #A80036; stroke-width: 1.0;"/><text fill="#000000" font-family="sans-serif" font-size="13" lengthAdjust="spacingAndGlyphs" textLength="8" x="382.5643" y="510.3903">1</text><text fill="#000000" font-family="sans-serif" font-size="13" lengthAdjust="spacingAndGlyphs" textLength="8" x="316.3984" y="554.9297">1</text><!--MD5=[96eca555c283861625927cf39bbe0ece]
link Contribution to Contributor--><path d="M447.07,490.42 C447.34,512.49 447.67,538.9 447.95,560.8 " fill="none" id="Contribution-&gt;Contributor" style="stroke: #A80036; stroke-width: 1.0; stroke-dasharray: 7.0,7.0;"/><polygon fill="#A80036" points="448.01,565.98,451.9069,556.9349,447.9529,560.9803,443.9074,557.0263,448.01,565.98" style="stroke: #A80036; stroke-width: 1.0;"/><!--MD5=[58863ec6cf083fff19df8be0751786f0]
link MediaCopy to Edition--><path d="M654.78,299.65 C654.34,327.64 653.76,363.65 653.3,392.58 " fill="none" id="MediaCopy-&gt;Edition" style="stroke: #A80036; stroke-width: 1.0; stroke-dasharray: 7.0,7.0;"/><polygon fill="#A80036" points="653.22,397.89,657.3737,388.9599,653.3057,392.8907,649.3749,388.8228,653.22,397.89" style="stroke: #A80036; stroke-width: 1.0;"/><!--MD5=[0e6c0289e14101184cf24e56533e79e8]
@startuml
skinparam classAttributeIconSize 0

class Franchise <<AggregateRoot>> {
    +Id: UUID
    +Title: string
}

class FranchiseMembership <<Entity>> {
    +MediaWorkId: UUID
    +FranchiseId: UUID
    +OrderInFranchise: int
}

abstract class MediaWork <<AggregateRoot>> {
    +Id: UUID
    +Title: string
    +OriginalReleaseDate: LocalDate
    -_editions: List<Edition>
    -_contributions: List<Contribution>
    - -
    +AddEdition(id): void
    +RemoveEdition(id): void
    +AddContribution(id, role): void
    +RemoveContribution(id): void
}

class Movie

abstract class Edition <<Entity>> {
    +Id: UUID
    +ReleaseDate: LocalDate
    +Extras: List<string>
}

class MovieEdition {
    +RuntimeMinutes: int
    +Medium: MovieMedium
    +Case: MovieCase
    +AudioTracks: List<AudioTrack>
    +SubtitleTracks: List<string>
}

enum VideoMedium {
    DVD
    BluRay
    UHD
    Digital
}

enum VideoCase {
    Standard
    Steelbook
    Digipack
    Slipcover
    Boxset
    Mediabook
    Other
}

class AudioTrack <<ValueObject>> {
    +Language: string
    +Format: string
}

Franchise "1" *- - "0..*" FranchiseMembership
MediaWork "1" *- - "0..*" FranchiseMembership
MediaWork "1" *- - "0..*" Edition
Movie - -|> MediaWork
Edition <|- - MovieEdition
MovieEdition "0..*" *- - "0..*" AudioTrack
MovieEdition - -> VideoMedium
MovieEdition - -> VideoCase

class Contributor <<AggregateRoot>> {
    +Id: UUID
    +Name: string
}

class ContributionRole <<ValueObject>> {
    +Name: string
    - -
    +IsCreator(): bool
}

note left of ContributionRole
Invariant:
- Role knows whether it
  is a creator role
end note

class Contribution <<Entity>> {
    +Id: UUID
    +ContributorId: UUID
    +Role: ContributionRole
}

MediaWork "1" *- - "1..*" Contribution
Contribution "1" *- - "1" ContributionRole
Contribution ..> Contributor

note top of MediaWork
Invariant:
- Must have at least one Contribution
  where Role.IsCreator() == true
- Cannot remove last creator
- Cannot remove Edition if MediaCopy
  exists referencing it
end note

class MediaCopy <<AggregateRoot>> {
    +Id: UUID
    +EditionId: UUID
    +Format: string
}

MediaCopy ..> Edition

@enduml

PlantUML version 1.2020.02(Sun Mar 01 10:22:07 UTC 2020)
(GPL source distribution)
Java Runtime: OpenJDK Runtime Environment
JVM: OpenJDK 64-Bit Server VM
Java Version: 17.0.18+8
Operating System: Linux
Default Encoding: UTF-8
Language: en
Country: null
--></g></svg>