<?xml version="1.0" encoding="UTF-8" standalone="no"?><svg xmlns="http://www.w3.org/2000/svg" xmlns:xlink="http://www.w3.org/1999/xlink" contentScriptType="application/ecmascript" contentStyleType="text/css" height="1061px" preserveAspectRatio="none" style="width:1186px;height:1061px;" version="1.1" viewBox="0 0 1186 1061" width="1186px" zoomAndPan="magnify"><defs><filter height="300%" id="f27xl3ltu9a1u" width="300%" x="-1" y="-1"><feGaussianBlur result="blurOut" stdDeviation="2.0"/><feColorMatrix in="blurOut" result="blurOut2" type="matrix" values="0 0 0 0 0 0 0 0 0 0 0 0 0 0 0 0 0 0 .4 0"/><feOffset dx="4.0" dy="4.0" in="blurOut2" result="blurOut3"/><feBlend in="SourceGraphic" in2="blurOut3" mode="normal"/></filter></defs><g><!--MD5=[8b4fc05e36d07b1a9826242b20f809b8]
class Franchise--><rect fill="#FEFECE" filter="url(#f27xl3ltu9a1u)" height="79.5469" id="Franchise" style="stroke: #A80036; stroke-width: 1.5;" width="137" x="175" y="213.5"/><ellipse cx="190" cy="232.4688" fill="#ADD1B2" rx="11" ry="11" style="stroke: #A80036; stroke-width: 1.0;"/><path d="M192.9688,238.1094 Q192.3906,238.4063 191.75,238.5469 Q191.1094,238.7031 190.4063,238.7031 Q187.9063,238.7031 186.5781,237.0625 Q185.2656,235.4063 185.2656,232.2813 Q185.2656,229.1563 186.5781,227.5 Q187.9063,225.8438 190.4063,225.8438 Q191.1094,225.8438 191.75,226 Q192.4063,226.1563 192.9688,226.4531 L192.9688,229.1719 Q192.3438,228.5938 191.75,228.3281 Q191.1563,228.0469 190.5313,228.0469 Q189.1875,228.0469 188.5,229.125 Q187.8125,230.1875 187.8125,232.2813 Q187.8125,234.375 188.5,235.4531 Q189.1875,236.5156 190.5313,236.5156 Q191.1563,236.5156 191.75,236.25 Q192.3438,235.9688 192.9688,235.3906 L192.9688,238.1094 Z "/><text fill="#000000" font-family="sans-serif" font-size="12" font-style="italic" lengthAdjust="spacingAndGlyphs" textLength="109" x="202" y="229.6387">«AggregateRoot»</text><text fill="#000000" font-family="sans-serif" font-size="12" lengthAdjust="spacingAndGlyphs" textLength="61" x="226" y="243.6074">Franchise</text><line style="stroke: #A80036; stroke-width: 1.5;" x1="176" x2="311" y1="251.4375" y2="251.4375"/><text fill="#000000" font-family="sans-serif" font-size="11" lengthAdjust="spacingAndGlyphs" textLength="54" x="181" y="265.6479">+Id: UUID</text><text fill="#000000" font-family="sans-serif" font-size="11" lengthAdjust="spacingAndGlyphs" textLength="74" x="181" y="278.4526">+Title: string</text><line style="stroke: #A80036; stroke-width: 1.5;" x1="176" x2="311" y1="285.0469" y2="285.0469"/><!--MD5=[b367696a7efde553d41f3151b70a6a04]
class FranchiseMembership--><rect fill="#FEFECE" filter="url(#f27xl3ltu9a1u)" height="92.3516" id="FranchiseMembership" style="stroke: #A80036; stroke-width: 1.5;" width="169" x="167" y="398"/><ellipse cx="182" cy="416.9688" fill="#ADD1B2" rx="11" ry="11" style="stroke: #A80036; stroke-width: 1.0;"/><path d="M184.9688,422.6094 Q184.3906,422.9063 183.75,423.0469 Q183.1094,423.2031 182.4063,423.2031 Q179.9063,423.2031 178.5781,421.5625 Q177.2656,419.9063 177.2656,416.7813 Q177.2656,413.6563 178.5781,412 Q179.9063,410.3438 182.4063,410.3438 Q183.1094,410.3438 183.75,410.5 Q184.4063,410.6563 184.9688,410.9531 L184.9688,413.6719 Q184.3438,413.0938 183.75,412.8281 Q183.1563,412.5469 182.5313,412.5469 Q181.1875,412.5469 180.5,413.625 Q179.8125,414.6875 179.8125,416.7813 Q179.8125,418.875 180.5,419.9531 Q181.1875,421.0156 182.5313,421.0156 Q183.1563,421.0156 183.75,420.75 Q184.3438,420.4688 184.9688,419.8906 L184.9688,422.6094 Z "/><text fill="#000000" font-family="sans-serif" font-size="12" font-style="italic" lengthAdjust="spacingAndGlyphs" textLength="50" x="239.5" y="414.1387">«Entity»</text><text fill="#000000" font-family="sans-serif" font-size="12" lengthAdjust="spacingAndGlyphs" textLength="137" x="196" y="428.1074">FranchiseMembership</text><line style="stroke: #A80036; stroke-width: 1.5;" x1="168" x2="335" y1="435.9375" y2="435.9375"/><text fill="#000000" font-family="sans-serif" font-size="11" lengthAdjust="spacingAndGlyphs" textLength="114" x="173" y="450.1479">+MediaWorkId: UUID</text><text fill="#000000" font-family="sans-serif" font-size="11" lengthAdjust="spacingAndGlyphs" textLength="109" x="173" y="462.9526">+FranchiseId: UUID</text><text fill="#000000" font-family="sans-serif" font-size="11" lengthAdjust="spacingAndGlyphs" textLength="129" x="173" y="475.7573">+OrderInFranchise: int</text><line style="stroke: #A80036; stroke-width: 1.5;" x1="168" x2="335" y1="482.3516" y2="482.3516"/><!--MD5=[c3dd83c4944f050787f4b644933234ea]
class MediaWork--><rect fill="#FEFECE" filter="url(#f27xl3ltu9a1u)" height="169.1797" id="MediaWork" style="stroke: #A80036; stroke-width: 1.5;" width="211" x="347" y="169"/><ellipse cx="395.75" cy="187.9688" fill="#A9DCDF" rx="11" ry="11" style="stroke: #A80036; stroke-width: 1.0;"/><path d="M395.8594,183.3125 L394.7031,188.3906 L397.0313,188.3906 L395.8594,183.3125 Z M394.375,181.0781 L397.3594,181.0781 L400.7188,193.4688 L398.2656,193.4688 L397.5,190.4063 L394.2188,190.4063 L393.4688,193.4688 L391.0313,193.4688 L394.375,181.0781 Z "/><text fill="#000000" font-family="sans-serif" font-size="12" font-style="italic" lengthAdjust="spacingAndGlyphs" textLength="109" x="414.25" y="185.1387">«AggregateRoot»</text><text fill="#000000" font-family="sans-serif" font-size="12" font-style="italic" lengthAdjust="spacingAndGlyphs" textLength="69" x="434.25" y="199.1074">MediaWork</text><line style="stroke: #A80036; stroke-width: 1.5;" x1="348" x2="557" y1="206.9375" y2="206.9375"/><text fill="#000000" font-family="sans-serif" font-size="11" lengthAdjust="spacingAndGlyphs" textLength="54" x="353" y="221.1479">+Id: UUID</text><text fill="#000000" font-family="sans-serif" font-size="11" lengthAdjust="spacingAndGlyphs" textLength="74" x="353" y="233.9526">+Title: string</text><text fill="#000000" font-family="sans-serif" font-size="11" lengthAdjust="spacingAndGlyphs" textLength="187" x="353" y="246.7573">+OriginalReleaseDate: LocalDate</text><text fill="#000000" font-family="sans-serif" font-size="11" lengthAdjust="spacingAndGlyphs" textLength="139" x="353" y="259.562">-_editions: List&lt;Edition&gt;</text><text fill="#000000" font-family="sans-serif" font-size="11" lengthAdjust="spacingAndGlyphs" textLength="199" x="353" y="272.3667">-_contributions: List&lt;Contribution&gt;</text><line style="stroke: #A80036; stroke-width: 1.0;" x1="348" x2="557" y1="278.9609" y2="278.9609"/><text fill="#000000" font-family="sans-serif" font-size="11" lengthAdjust="spacingAndGlyphs" textLength="117" x="353" y="293.1714">+AddEdition(id): void</text><text fill="#000000" font-family="sans-serif" font-size="11" lengthAdjust="spacingAndGlyphs" textLength="141" x="353" y="305.9761">+RemoveEdition(id): void</text><text fill="#000000" font-family="sans-serif" font-size="11" lengthAdjust="spacingAndGlyphs" textLength="178" x="353" y="318.7808">+AddContribution(id, role): void</text><text fill="#000000" font-family="sans-serif" font-size="11" lengthAdjust="spacingAndGlyphs" textLength="172" x="353" y="331.5854">+RemoveContribution(id): void</text><!--MD5=[e69084ab16b022bdbef99762ea85e9d6]
class Movie--><rect fill="#FEFECE" filter="url(#f27xl3ltu9a1u)" height="48" id="Movie" style="stroke: #A80036; stroke-width: 1.5;" width="67" x="518" y="34.5"/><ellipse cx="533" cy="50.5" fill="#ADD1B2" rx="11" ry="11" style="stroke: #A80036; stroke-width: 1.0;"/><path d="M535.9688,56.1406 Q535.3906,56.4375 534.75,56.5781 Q534.1094,56.7344 533.4063,56.7344 Q530.9063,56.7344 529.5781,55.0938 Q528.2656,53.4375 528.2656,50.3125 Q528.2656,47.1875 529.5781,45.5313 Q530.9063,43.875 533.4063,43.875 Q534.1094,43.875 534.75,44.0313 Q535.4063,44.1875 535.9688,44.4844 L535.9688,47.2031 Q535.3438,46.625 534.75,46.3594 Q534.1563,46.0781 533.5313,46.0781 Q532.1875,46.0781 531.5,47.1563 Q530.8125,48.2188 530.8125,50.3125 Q530.8125,52.4063 531.5,53.4844 Q532.1875,54.5469 533.5313,54.5469 Q534.1563,54.5469 534.75,54.2813 Q535.3438,54 535.9688,53.4219 L535.9688,56.1406 Z "/><text fill="#000000" font-family="sans-serif" font-size="12" lengthAdjust="spacingAndGlyphs" textLength="35" x="547" y="54.6543">Movie</text><line style="stroke: #A80036; stroke-width: 1.5;" x1="519" x2="584" y1="66.5" y2="66.5"/><line style="stroke: #A80036; stroke-width: 1.5;" x1="519" x2="584" y1="74.5" y2="74.5"/><!--MD5=[89eb8d6c2c48a50233b8a4288adeec87]
class TVShow--><rect fill="#FEFECE" filter="url(#f27xl3ltu9a1u)" height="60.8047" id="TVShow" style="stroke: #A80036; stroke-width: 1.5;" width="137" x="857" y="28"/><ellipse cx="897.65" cy="44" fill="#ADD1B2" rx="11" ry="11" style="stroke: #A80036; stroke-width: 1.0;"/><path d="M900.6188,49.6406 Q900.0406,49.9375 899.4,50.0781 Q898.7594,50.2344 898.0563,50.2344 Q895.5563,50.2344 894.2281,48.5938 Q892.9156,46.9375 892.9156,43.8125 Q892.9156,40.6875 894.2281,39.0313 Q895.5563,37.375 898.0563,37.375 Q898.7594,37.375 899.4,37.5313 Q900.0563,37.6875 900.6188,37.9844 L900.6188,40.7031 Q899.9938,40.125 899.4,39.8594 Q898.8063,39.5781 898.1813,39.5781 Q896.8375,39.5781 896.15,40.6563 Q895.4625,41.7188 895.4625,43.8125 Q895.4625,45.9063 896.15,46.9844 Q896.8375,48.0469 898.1813,48.0469 Q898.8063,48.0469 899.4,47.7813 Q899.9938,47.5 900.6188,46.9219 L900.6188,49.6406 Z "/><text fill="#000000" font-family="sans-serif" font-size="12" lengthAdjust="spacingAndGlyphs" textLength="48" x="917.35" y="48.1543">TVShow</text><line style="stroke: #A80036; stroke-width: 1.5;" x1="858" x2="993" y1="60" y2="60"/><text fill="#000000" font-family="sans-serif" font-size="11" lengthAdjust="spacingAndGlyphs" textLength="125" x="863" y="74.2104">+EndDate: LocalDate?</text><line style="stroke: #A80036; stroke-width: 1.5;" x1="858" x2="993" y1="80.8047" y2="80.8047"/><!--MD5=[a37707a5a7e4fa9ccccea367e3a415b8]
class Edition--><rect fill="#FEFECE" filter="url(#f27xl3ltu9a1u)" height="92.3516" id="Edition" style="stroke: #A80036; stroke-width: 1.5;" width="155" x="574" y="398"/><ellipse cx="624.25" cy="416.9688" fill="#A9DCDF" rx="11" ry="11" style="stroke: #A80036; stroke-width: 1.0;"/><path d="M624.3594,412.3125 L623.2031,417.3906 L625.5313,417.3906 L624.3594,412.3125 Z M622.875,410.0781 L625.8594,410.0781 L629.2188,422.4688 L626.7656,422.4688 L626,419.4063 L622.7188,419.4063 L621.9688,422.4688 L619.5313,422.4688 L622.875,410.0781 Z "/><text fill="#000000" font-family="sans-serif" font-size="12" font-style="italic" lengthAdjust="spacingAndGlyphs" textLength="50" x="642.75" y="414.1387">«Entity»</text><text fill="#000000" font-family="sans-serif" font-size="12" font-style="italic" lengthAdjust="spacingAndGlyphs" textLength="43" x="646.25" y="428.1074">Edition</text><line style="stroke: #A80036; stroke-width: 1.5;" x1="575" x2="728" y1="435.9375" y2="435.9375"/><text fill="#000000" font-family="sans-serif" font-size="11" lengthAdjust="spacingAndGlyphs" textLength="54" x="580" y="450.1479">+Id: UUID</text><text fill="#000000" font-family="sans-serif" font-size="11" lengthAdjust="spacingAndGlyphs" textLength="143" x="580" y="462.9526">+ReleaseDate: LocalDate</text><text fill="#000000" font-family="sans-serif" font-size="11" lengthAdjust="spacingAndGlyphs" textLength="124" x="580" y="475.7573">+Extras: List&lt;string&gt;</text><line style="stroke: #A80036; stroke-width: 1.5;" x1="575" x2="728" y1="482.3516" y2="482.3516"/><!--MD5=[73944afb6e9f06e6d5ee91305b4bcc5c]
class MovieEdition--><rect fill="#FEFECE" filter="url(#f27xl3ltu9a1u)" height="124.8281" id="MovieEdition" style="stroke: #A80036; stroke-width: 1.5;" width="198" x="552.5" y="550"/><ellipse cx="608.25" cy="566" fill="#ADD1B2" rx="11" ry="11" style="stroke: #A80036; stroke-width: 1.0;"/><path d="M611.2188,571.6406 Q610.6406,571.9375 610,572.0781 Q609.3594,572.2344 608.6563,572.2344 Q606.1563,572.2344 604.8281,570.5938 Q603.5156,568.9375 603.5156,565.8125 Q603.5156,562.6875 604.8281,561.0313 Q606.1563,559.375 608.6563,559.375 Q609.3594,559.375 610,559.5313 Q610.6563,559.6875 611.2188,559.9844 L611.2188,562.7031 Q610.5938,562.125 610,561.8594 Q609.4063,561.5781 608.7813,561.5781 Q607.4375,561.5781 606.75,562.6563 Q606.0625,563.7188 606.0625,565.8125 Q606.0625,567.9063 606.75,568.9844 Q607.4375,570.0469 608.7813,570.0469 Q609.4063,570.0469 610,569.7813 Q610.5938,569.5 611.2188,568.9219 L611.2188,571.6406 Z "/><text fill="#000000" font-family="sans-serif" font-size="12" lengthAdjust="spacingAndGlyphs" textLength="78" x="628.75" y="570.1543">MovieEdition</text><line style="stroke: #A80036; stroke-width: 1.5;" x1="553.5" x2="749.5" y1="582" y2="582"/><text fill="#000000" font-family="sans-serif" font-size="11" lengthAdjust="spacingAndGlyphs" textLength="121" x="558.5" y="596.2104">+RuntimeMinutes: int</text><text fill="#000000" font-family="sans-serif" font-size="11" lengthAdjust="spacingAndGlyphs" textLength="136" x="558.5" y="609.0151">+Medium: VideoMedium</text><text fill="#000000" font-family="sans-serif" font-size="11" lengthAdjust="spacingAndGlyphs" textLength="106" x="558.5" y="621.8198">+Case: VideoCase</text><text fill="#000000" font-family="sans-serif" font-size="11" lengthAdjust="spacingAndGlyphs" textLength="88" x="558.5" y="634.6245">+DiscCount: int</text><text fill="#000000" font-family="sans-serif" font-size="11" lengthAdjust="spacingAndGlyphs" textLength="186" x="558.5" y="647.4292">+AudioTracks: List&lt;AudioTrack&gt;</text><text fill="#000000" font-family="sans-serif" font-size="11" lengthAdjust="spacingAndGlyphs" textLength="169" x="558.5" y="660.2339">+SubtitleTracks: List&lt;string&gt;</text><line style="stroke: #A80036; stroke-width: 1.5;" x1="553.5" x2="749.5" y1="666.8281" y2="666.8281"/><!--MD5=[89f1af135d226d270851fb7756972918]
class Episode--><rect fill="#FEFECE" filter="url(#f27xl3ltu9a1u)" height="117.9609" id="Episode" style="stroke: #A80036; stroke-width: 1.5;" width="133" x="1009" y="933"/><ellipse cx="1046.95" cy="951.9688" fill="#ADD1B2" rx="11" ry="11" style="stroke: #A80036; stroke-width: 1.0;"/><path d="M1049.9188,957.6094 Q1049.3406,957.9063 1048.7,958.0469 Q1048.0594,958.2031 1047.3563,958.2031 Q1044.8563,958.2031 1043.5281,956.5625 Q1042.2156,954.9063 1042.2156,951.7813 Q1042.2156,948.6563 1043.5281,947 Q1044.8563,945.3438 1047.3563,945.3438 Q1048.0594,945.3438 1048.7,945.5 Q1049.3563,945.6563 1049.9188,945.9531 L1049.9188,948.6719 Q1049.2938,948.0938 1048.7,947.8281 Q1048.1063,947.5469 1047.4813,947.5469 Q1046.1375,947.5469 1045.45,948.625 Q1044.7625,949.6875 1044.7625,951.7813 Q1044.7625,953.875 1045.45,954.9531 Q1046.1375,956.0156 1047.4813,956.0156 Q1048.1063,956.0156 1048.7,955.75 Q1049.2938,955.4688 1049.9188,954.8906 L1049.9188,957.6094 Z "/><text fill="#000000" font-family="sans-serif" font-size="12" font-style="italic" lengthAdjust="spacingAndGlyphs" textLength="50" x="1066.05" y="949.1387">«Entity»</text><text fill="#000000" font-family="sans-serif" font-size="12" lengthAdjust="spacingAndGlyphs" textLength="50" x="1066.05" y="963.1074">Episode</text><line style="stroke: #A80036; stroke-width: 1.5;" x1="1010" x2="1141" y1="970.9375" y2="970.9375"/><text fill="#000000" font-family="sans-serif" font-size="11" lengthAdjust="spacingAndGlyphs" textLength="54" x="1015" y="985.1479">+Id: UUID</text><text fill="#000000" font-family="sans-serif" font-size="11" lengthAdjust="spacingAndGlyphs" textLength="121" x="1015" y="997.9526">+EpisodeNumber: int</text><text fill="#000000" font-family="sans-serif" font-size="11" lengthAdjust="spacingAndGlyphs" textLength="113" x="1015" y="1010.7573">+AirDate: LocalDate</text><text fill="#000000" font-family="sans-serif" font-size="11" lengthAdjust="spacingAndGlyphs" textLength="121" x="1015" y="1023.562">+RuntimeMinutes: int</text><text fill="#000000" font-family="sans-serif" font-size="11" lengthAdjust="spacingAndGlyphs" textLength="80" x="1015" y="1036.3667">+Title: string?</text><line style="stroke: #A80036; stroke-width: 1.5;" x1="1010" x2="1141" y1="1042.9609" y2="1042.9609"/><!--MD5=[2916714cae8f0462c1096d4fd55ce4c3]
class Season--><rect fill="#FEFECE" filter="url(#f27xl3ltu9a1u)" height="117.9609" id="Season" style="stroke: #A80036; stroke-width: 1.5;" width="199" x="976" y="745"/><ellipse cx="1047.75" cy="763.9688" fill="#ADD1B2" rx="11" ry="11" style="stroke: #A80036; stroke-width: 1.0;"/><path d="M1050.7188,769.6094 Q1050.1406,769.9063 1049.5,770.0469 Q1048.8594,770.2031 1048.1563,770.2031 Q1045.6563,770.2031 1044.3281,768.5625 Q1043.0156,766.9063 1043.0156,763.7813 Q1043.0156,760.6563 1044.3281,759 Q1045.6563,757.3438 1048.1563,757.3438 Q1048.8594,757.3438 1049.5,757.5 Q1050.1563,757.6563 1050.7188,757.9531 L1050.7188,760.6719 Q1050.0938,760.0938 1049.5,759.8281 Q1048.9063,759.5469 1048.2813,759.5469 Q1046.9375,759.5469 1046.25,760.625 Q1045.5625,761.6875 1045.5625,763.7813 Q1045.5625,765.875 1046.25,766.9531 Q1046.9375,768.0156 1048.2813,768.0156 Q1048.9063,768.0156 1049.5,767.75 Q1050.0938,767.4688 1050.7188,766.8906 L1050.7188,769.6094 Z "/><text fill="#000000" font-family="sans-serif" font-size="12" font-style="italic" lengthAdjust="spacingAndGlyphs" textLength="50" x="1066.75" y="761.1387">«Entity»</text><text fill="#000000" font-family="sans-serif" font-size="12" lengthAdjust="spacingAndGlyphs" textLength="47" x="1068.25" y="775.1074">Season</text><line style="stroke: #A80036; stroke-width: 1.5;" x1="977" x2="1174" y1="782.9375" y2="782.9375"/><text fill="#000000" font-family="sans-serif" font-size="11" lengthAdjust="spacingAndGlyphs" textLength="54" x="982" y="797.1479">+Id: UUID</text><text fill="#000000" font-family="sans-serif" font-size="11" lengthAdjust="spacingAndGlyphs" textLength="119" x="982" y="809.9526">+SeasonNumber: int</text><text fill="#000000" font-family="sans-serif" font-size="11" lengthAdjust="spacingAndGlyphs" textLength="145" x="982" y="822.7573">+Episode: List&lt;Episode&gt;</text><text fill="#000000" font-family="sans-serif" font-size="11" lengthAdjust="spacingAndGlyphs" textLength="187" x="982" y="835.562">+OriginalReleaseDate: LocalDate</text><text fill="#000000" font-family="sans-serif" font-size="11" lengthAdjust="spacingAndGlyphs" textLength="80" x="982" y="848.3667">+Title: string?</text><line style="stroke: #A80036; stroke-width: 1.5;" x1="977" x2="1174" y1="854.9609" y2="854.9609"/><!--MD5=[d14416ff4c1e75c59ff3de413e920f4a]
class TVShowEdition--><rect fill="#FEFECE" filter="url(#f27xl3ltu9a1u)" height="124.8281" id="TVShowEdition" style="stroke: #A80036; stroke-width: 1.5;" width="198" x="785.5" y="550"/><ellipse cx="834.75" cy="566" fill="#ADD1B2" rx="11" ry="11" style="stroke: #A80036; stroke-width: 1.0;"/><path d="M837.7188,571.6406 Q837.1406,571.9375 836.5,572.0781 Q835.8594,572.2344 835.1563,572.2344 Q832.6563,572.2344 831.3281,570.5938 Q830.0156,568.9375 830.0156,565.8125 Q830.0156,562.6875 831.3281,561.0313 Q832.6563,559.375 835.1563,559.375 Q835.8594,559.375 836.5,559.5313 Q837.1563,559.6875 837.7188,559.9844 L837.7188,562.7031 Q837.0938,562.125 836.5,561.8594 Q835.9063,561.5781 835.2813,561.5781 Q833.9375,561.5781 833.25,562.6563 Q832.5625,563.7188 832.5625,565.8125 Q832.5625,567.9063 833.25,568.9844 Q833.9375,570.0469 835.2813,570.0469 Q835.9063,570.0469 836.5,569.7813 Q837.0938,569.5 837.7188,568.9219 L837.7188,571.6406 Z "/><text fill="#000000" font-family="sans-serif" font-size="12" lengthAdjust="spacingAndGlyphs" textLength="91" x="855.25" y="570.1543">TVShowEdition</text><line style="stroke: #A80036; stroke-width: 1.5;" x1="786.5" x2="982.5" y1="582" y2="582"/><text fill="#000000" font-family="sans-serif" font-size="11" lengthAdjust="spacingAndGlyphs" textLength="142" x="791.5" y="596.2104">+SeasonIds: List&lt;UUID&gt;</text><text fill="#000000" font-family="sans-serif" font-size="11" lengthAdjust="spacingAndGlyphs" textLength="136" x="791.5" y="609.0151">+Medium: VideoMedium</text><text fill="#000000" font-family="sans-serif" font-size="11" lengthAdjust="spacingAndGlyphs" textLength="106" x="791.5" y="621.8198">+Case: VideoCase</text><text fill="#000000" font-family="sans-serif" font-size="11" lengthAdjust="spacingAndGlyphs" textLength="88" x="791.5" y="634.6245">+DiscCount: int</text><text fill="#000000" font-family="sans-serif" font-size="11" lengthAdjust="spacingAndGlyphs" textLength="186" x="791.5" y="647.4292">+AudioTracks: List&lt;AudioTrack&gt;</text><text fill="#000000" font-family="sans-serif" font-size="11" lengthAdjust="spacingAndGlyphs" textLength="169" x="791.5" y="660.2339">+SubtitleTracks: List&lt;string&gt;</text><line style="stroke: #A80036; stroke-width: 1.5;" x1="786.5" x2="982.5" y1="666.8281" y2="666.8281"/><!--MD5=[f6c43adb90ae37bff2480345367d59dd]
class VideoMedium--><rect fill="#FEFECE" filter="url(#f27xl3ltu9a1u)" height="99.2188" id="VideoMedium" style="stroke: #A80036; stroke-width: 1.5;" width="115" x="826" y="754.5"/><ellipse cx="841" cy="770.5" fill="#EB937F" rx="11" ry="11" style="stroke: #A80036; stroke-width: 1.0;"/><path d="M845.1094,776.5 L837.3906,776.5 L837.3906,764.1094 L845.1094,764.1094 L845.1094,766.2656 L839.8438,766.2656 L839.8438,768.9375 L844.6094,768.9375 L844.6094,771.0938 L839.8438,771.0938 L839.8438,774.3438 L845.1094,774.3438 L845.1094,776.5 Z "/><text fill="#000000" font-family="sans-serif" font-size="12" lengthAdjust="spacingAndGlyphs" textLength="83" x="855" y="774.6543">VideoMedium</text><line style="stroke: #A80036; stroke-width: 1.5;" x1="827" x2="940" y1="786.5" y2="786.5"/><text fill="#000000" font-family="sans-serif" font-size="11" lengthAdjust="spacingAndGlyphs" textLength="23" x="832" y="800.7104">DVD</text><text fill="#000000" font-family="sans-serif" font-size="11" lengthAdjust="spacingAndGlyphs" textLength="38" x="832" y="813.5151">BluRay</text><text fill="#000000" font-family="sans-serif" font-size="11" lengthAdjust="spacingAndGlyphs" textLength="24" x="832" y="826.3198">UHD</text><text fill="#000000" font-family="sans-serif" font-size="11" lengthAdjust="spacingAndGlyphs" textLength="35" x="832" y="839.1245">Digital</text><line style="stroke: #A80036; stroke-width: 1.5;" x1="827" x2="940" y1="845.7188" y2="845.7188"/><!--MD5=[da9345c54be575bfa6ea5f631e9062b6]
class VideoCase--><rect fill="#FEFECE" filter="url(#f27xl3ltu9a1u)" height="137.6328" id="VideoCase" style="stroke: #A80036; stroke-width: 1.5;" width="98" x="540.5" y="735"/><ellipse cx="555.5" cy="751" fill="#EB937F" rx="11" ry="11" style="stroke: #A80036; stroke-width: 1.0;"/><path d="M559.6094,757 L551.8906,757 L551.8906,744.6094 L559.6094,744.6094 L559.6094,746.7656 L554.3438,746.7656 L554.3438,749.4375 L559.1094,749.4375 L559.1094,751.5938 L554.3438,751.5938 L554.3438,754.8438 L559.6094,754.8438 L559.6094,757 Z "/><text fill="#000000" font-family="sans-serif" font-size="12" lengthAdjust="spacingAndGlyphs" textLength="66" x="569.5" y="755.1543">VideoCase</text><line style="stroke: #A80036; stroke-width: 1.5;" x1="541.5" x2="637.5" y1="767" y2="767"/><text fill="#000000" font-family="sans-serif" font-size="11" lengthAdjust="spacingAndGlyphs" textLength="52" x="546.5" y="781.2104">Standard</text><text fill="#000000" font-family="sans-serif" font-size="11" lengthAdjust="spacingAndGlyphs" textLength="56" x="546.5" y="794.0151">Steelbook</text><text fill="#000000" font-family="sans-serif" font-size="11" lengthAdjust="spacingAndGlyphs" textLength="47" x="546.5" y="806.8198">Digipack</text><text fill="#000000" font-family="sans-serif" font-size="11" lengthAdjust="spacingAndGlyphs" textLength="52" x="546.5" y="819.6245">Slipcover</text><text fill="#000000" font-family="sans-serif" font-size="11" lengthAdjust="spacingAndGlyphs" textLength="39" x="546.5" y="832.4292">Boxset</text><text fill="#000000" font-family="sans-serif" font-size="11" lengthAdjust="spacingAndGlyphs" textLength="60" x="546.5" y="845.2339">Mediabook</text><text fill="#000000" font-family="sans-serif" font-size="11" lengthAdjust="spacingAndGlyphs" textLength="32" x="546.5" y="858.0386">Other</text><line style="stroke: #A80036; stroke-width: 1.5;" x1="541.5" x2="637.5" y1="864.6328" y2="864.6328"/><!--MD5=[55a6f80882d3cd7368bedd1107f01aad]
class AudioTrack--><rect fill="#FEFECE" filter="url(#f27xl3ltu9a1u)" height="79.5469" id="AudioTrack" style="stroke: #A80036; stroke-width: 1.5;" width="117" x="674" y="764"/><ellipse cx="689.45" cy="782.9688" fill="#ADD1B2" rx="11" ry="11" style="stroke: #A80036; stroke-width: 1.0;"/><path d="M692.4188,788.6094 Q691.8406,788.9063 691.2,789.0469 Q690.5594,789.2031 689.8563,789.2031 Q687.3563,789.2031 686.0281,787.5625 Q684.7156,785.9063 684.7156,782.7813 Q684.7156,779.6563 686.0281,778 Q687.3563,776.3438 689.8563,776.3438 Q690.5594,776.3438 691.2,776.5 Q691.8563,776.6563 692.4188,776.9531 L692.4188,779.6719 Q691.7938,779.0938 691.2,778.8281 Q690.6063,778.5469 689.9813,778.5469 Q688.6375,778.5469 687.95,779.625 Q687.2625,780.6875 687.2625,782.7813 Q687.2625,784.875 687.95,785.9531 Q688.6375,787.0156 689.9813,787.0156 Q690.6063,787.0156 691.2,786.75 Q691.7938,786.4688 692.4188,785.8906 L692.4188,788.6094 Z "/><text fill="#000000" font-family="sans-serif" font-size="12" font-style="italic" lengthAdjust="spacingAndGlyphs" textLength="88" x="701.55" y="780.1387">«ValueObject»</text><text fill="#000000" font-family="sans-serif" font-size="12" lengthAdjust="spacingAndGlyphs" textLength="69" x="711.05" y="794.1074">AudioTrack</text><line style="stroke: #A80036; stroke-width: 1.5;" x1="675" x2="790" y1="801.9375" y2="801.9375"/><text fill="#000000" font-family="sans-serif" font-size="11" lengthAdjust="spacingAndGlyphs" textLength="105" x="680" y="816.1479">+Language: string</text><text fill="#000000" font-family="sans-serif" font-size="11" lengthAdjust="spacingAndGlyphs" textLength="90" x="680" y="828.9526">+Format: string</text><line style="stroke: #A80036; stroke-width: 1.5;" x1="675" x2="790" y1="835.5469" y2="835.5469"/><!--MD5=[1a95835255177050dd8028a7da1b3a6a]
class Contributor--><rect fill="#FEFECE" filter="url(#f27xl3ltu9a1u)" height="79.5469" id="Contributor" style="stroke: #A80036; stroke-width: 1.5;" width="137" x="380" y="572.5"/><ellipse cx="395" cy="591.4688" fill="#ADD1B2" rx="11" ry="11" style="stroke: #A80036; stroke-width: 1.0;"/><path d="M397.9688,597.1094 Q397.3906,597.4063 396.75,597.5469 Q396.1094,597.7031 395.4063,597.7031 Q392.9063,597.7031 391.5781,596.0625 Q390.2656,594.4063 390.2656,591.2813 Q390.2656,588.1563 391.5781,586.5 Q392.9063,584.8438 395.4063,584.8438 Q396.1094,584.8438 396.75,585 Q397.4063,585.1563 397.9688,585.4531 L397.9688,588.1719 Q397.3438,587.5938 396.75,587.3281 Q396.1563,587.0469 395.5313,587.0469 Q394.1875,587.0469 393.5,588.125 Q392.8125,589.1875 392.8125,591.2813 Q392.8125,593.375 393.5,594.4531 Q394.1875,595.5156 395.5313,595.5156 Q396.1563,595.5156 396.75,595.25 Q397.3438,594.9688 397.9688,594.3906 L397.9688,597.1094 Z "/><text fill="#000000" font-family="sans-serif" font-size="12" font-style="italic" lengthAdjust="spacingAndGlyphs" textLength="109" x="407" y="588.6387">«AggregateRoot»</text><text fill="#000000" font-family="sans-serif" font-size="12" lengthAdjust="spacingAndGlyphs" textLength="71" x="426" y="602.6074">Contributor</text><line style="stroke: #A80036; stroke-width: 1.5;" x1="381" x2="516" y1="610.4375" y2="610.4375"/><text fill="#000000" font-family="sans-serif" font-size="11" lengthAdjust="spacingAndGlyphs" textLength="54" x="386" y="624.6479">+Id: UUID</text><text fill="#000000" font-family="sans-serif" font-size="11" lengthAdjust="spacingAndGlyphs" textLength="83" x="386" y="637.4526">+Name: string</text><line style="stroke: #A80036; stroke-width: 1.5;" x1="381" x2="516" y1="644.0469" y2="644.0469"/><!--MD5=[8943b56400e757f675b04ec0bb9ca022]
class ContributionRole--><rect fill="#FEFECE" filter="url(#f27xl3ltu9a1u)" height="79.5469" id="ContributionRole" style="stroke: #A80036; stroke-width: 1.5;" width="136" x="208.5" y="572.5"/><ellipse cx="223.5" cy="591.4688" fill="#ADD1B2" rx="11" ry="11" style="stroke: #A80036; stroke-width: 1.0;"/><path d="M226.4688,597.1094 Q225.8906,597.4063 225.25,597.5469 Q224.6094,597.7031 223.9063,597.7031 Q221.4063,597.7031 220.0781,596.0625 Q218.7656,594.4063 218.7656,591.2813 Q218.7656,588.1563 220.0781,586.5 Q221.4063,584.8438 223.9063,584.8438 Q224.6094,584.8438 225.25,585 Q225.9063,585.1563 226.4688,585.4531 L226.4688,588.1719 Q225.8438,587.5938 225.25,587.3281 Q224.6563,587.0469 224.0313,587.0469 Q222.6875,587.0469 222,588.125 Q221.3125,589.1875 221.3125,591.2813 Q221.3125,593.375 222,594.4531 Q222.6875,595.5156 224.0313,595.5156 Q224.6563,595.5156 225.25,595.25 Q225.8438,594.9688 226.4688,594.3906 L226.4688,597.1094 Z "/><text fill="#000000" font-family="sans-serif" font-size="12" font-style="italic" lengthAdjust="spacingAndGlyphs" textLength="88" x="245.5" y="588.6387">«ValueObject»</text><text fill="#000000" font-family="sans-serif" font-size="12" lengthAdjust="spacingAndGlyphs" textLength="104" x="237.5" y="602.6074">ContributionRole</text><line style="stroke: #A80036; stroke-width: 1.5;" x1="209.5" x2="343.5" y1="610.4375" y2="610.4375"/><text fill="#000000" font-family="sans-serif" font-size="11" lengthAdjust="spacingAndGlyphs" textLength="83" x="214.5" y="624.6479">+Name: string</text><line style="stroke: #A80036; stroke-width: 1.0;" x1="209.5" x2="343.5" y1="631.2422" y2="631.2422"/><text fill="#000000" font-family="sans-serif" font-size="11" lengthAdjust="spacingAndGlyphs" textLength="102" x="214.5" y="645.4526">+IsCreator(): bool</text><path d="M6,585 L6,640.3984 A0,0 0 0 0 6,640.3984 L173,640.3984 A0,0 0 0 0 173,640.3984 L173,616.5 L208.27,612.5 L173,608.5 L173,595 L163,585 L6,585 A0,0 0 0 0 6,585 " fill="#FBFB77" filter="url(#f27xl3ltu9a1u)" style="stroke: #A80036; stroke-width: 1.0;"/><path d="M163,585 L163,595 L173,595 L163,585 " fill="#FBFB77" style="stroke: #A80036; stroke-width: 1.0;"/><text fill="#000000" font-family="sans-serif" font-size="13" lengthAdjust="spacingAndGlyphs" textLength="59" x="12" y="602.0669">Invariant:</text><text fill="#000000" font-family="sans-serif" font-size="13" lengthAdjust="spacingAndGlyphs" textLength="146" x="12" y="617.1997">- Role knows whether it</text><text fill="#000000" font-family="sans-serif" font-size="13" lengthAdjust="spacingAndGlyphs" textLength="100" x="20" y="632.3325">is a creator role</text><!--MD5=[0330879a1a385efee19ba3488ed490fa]
class Contribution--><rect fill="#FEFECE" filter="url(#f27xl3ltu9a1u)" height="92.3516" id="Contribution" style="stroke: #A80036; stroke-width: 1.5;" width="146" x="375.5" y="398"/><ellipse cx="407.15" cy="416.9688" fill="#ADD1B2" rx="11" ry="11" style="stroke: #A80036; stroke-width: 1.0;"/><path d="M410.1188,422.6094 Q409.5406,422.9063 408.9,423.0469 Q408.2594,423.2031 407.5563,423.2031 Q405.0563,423.2031 403.7281,421.5625 Q402.4156,419.9063 402.4156,416.7813 Q402.4156,413.6563 403.7281,412 Q405.0563,410.3438 407.5563,410.3438 Q408.2594,410.3438 408.9,410.5 Q409.5563,410.6563 410.1188,410.9531 L410.1188,413.6719 Q409.4938,413.0938 408.9,412.8281 Q408.3063,412.5469 407.6813,412.5469 Q406.3375,412.5469 405.65,413.625 Q404.9625,414.6875 404.9625,416.7813 Q404.9625,418.875 405.65,419.9531 Q406.3375,421.0156 407.6813,421.0156 Q408.3063,421.0156 408.9,420.75 Q409.4938,420.4688 410.1188,419.8906 L410.1188,422.6094 Z "/><text fill="#000000" font-family="sans-serif" font-size="12" font-style="italic" lengthAdjust="spacingAndGlyphs" textLength="50" x="438.35" y="414.1387">«Entity»</text><text fill="#000000" font-family="sans-serif" font-size="12" lengthAdjust="spacingAndGlyphs" textLength="77" x="424.85" y="428.1074">Contribution</text><line style="stroke: #A80036; stroke-width: 1.5;" x1="376.5" x2="520.5" y1="435.9375" y2="435.9375"/><text fill="#000000" font-family="sans-serif" font-size="11" lengthAdjust="spacingAndGlyphs" textLength="54" x="381.5" y="450.1479">+Id: UUID</text><text fill="#000000" font-family="sans-serif" font-size="11" lengthAdjust="spacingAndGlyphs" textLength="118" x="381.5" y="462.9526">+ContributorId: UUID</text><text fill="#000000" font-family="sans-serif" font-size="11" lengthAdjust="spacingAndGlyphs" textLength="134" x="381.5" y="475.7573">+Role: ContributionRole</text><line style="stroke: #A80036; stroke-width: 1.5;" x1="376.5" x2="520.5" y1="482.3516" y2="482.3516"/><path d="M222,8 L222,108.7969 A0,0 0 0 0 222,108.7969 L374.25,108.7969 L409.18,168.9 L382.25,108.7969 L483,108.7969 A0,0 0 0 0 483,108.7969 L483,18 L473,8 L222,8 A0,0 0 0 0 222,8 " fill="#FBFB77" filter="url(#f27xl3ltu9a1u)" style="stroke: #A80036; stroke-width: 1.0;"/><path d="M473,8 L473,18 L483,18 L473,8 " fill="#FBFB77" style="stroke: #A80036; stroke-width: 1.0;"/><text fill="#000000" font-family="sans-serif" font-size="13" lengthAdjust="spacingAndGlyphs" textLength="59" x="228" y="25.0669">Invariant:</text><text fill="#000000" font-family="sans-serif" font-size="13" lengthAdjust="spacingAndGlyphs" textLength="237" x="228" y="40.1997">- Must have at least one Contribution</text><text fill="#000000" font-family="sans-serif" font-size="13" lengthAdjust="spacingAndGlyphs" textLength="197" x="236" y="55.3325">where Role.IsCreator() == true</text><text fill="#000000" font-family="sans-serif" font-size="13" lengthAdjust="spacingAndGlyphs" textLength="185" x="228" y="70.4653">- Cannot remove last creator</text><text fill="#000000" font-family="sans-serif" font-size="13" lengthAdjust="spacingAndGlyphs" textLength="240" x="228" y="85.5981">- Cannot remove Edition if MediaCopy</text><text fill="#000000" font-family="sans-serif" font-size="13" lengthAdjust="spacingAndGlyphs" textLength="125" x="236" y="100.731">exists referencing it</text><path d="M764.5,424 L764.5,464.2656 A0,0 0 0 0 764.5,464.2656 L888.47,464.2656 L887.84,549.75 L896.47,464.2656 L1022.5,464.2656 A0,0 0 0 0 1022.5,464.2656 L1022.5,434 L1012.5,424 L764.5,424 A0,0 0 0 0 764.5,424 " fill="#FBFB77" filter="url(#f27xl3ltu9a1u)" style="stroke: #A80036; stroke-width: 1.0;"/><path d="M1012.5,424 L1012.5,434 L1022.5,434 L1012.5,424 " fill="#FBFB77" style="stroke: #A80036; stroke-width: 1.0;"/><text fill="#000000" font-family="sans-serif" font-size="13" lengthAdjust="spacingAndGlyphs" textLength="59" x="770.5" y="441.0669">Invariant:</text><text fill="#000000" font-family="sans-serif" font-size="13" lengthAdjust="spacingAndGlyphs" textLength="237" x="770.5" y="456.1997">- Must reference at least one Season</text><!--MD5=[148a3002404242a1fb9bf2331f66864f]
class MediaCopy--><rect fill="#FEFECE" filter="url(#f27xl3ltu9a1u)" height="79.5469" id="MediaCopy" style="stroke: #A80036; stroke-width: 1.5;" width="137" x="593" y="213.5"/><ellipse cx="608" cy="232.4688" fill="#ADD1B2" rx="11" ry="11" style="stroke: #A80036; stroke-width: 1.0;"/><path d="M610.9688,238.1094 Q610.3906,238.4063 609.75,238.5469 Q609.1094,238.7031 608.4063,238.7031 Q605.9063,238.7031 604.5781,237.0625 Q603.2656,235.4063 603.2656,232.2813 Q603.2656,229.1563 604.5781,227.5 Q605.9063,225.8438 608.4063,225.8438 Q609.1094,225.8438 609.75,226 Q610.4063,226.1563 610.9688,226.4531 L610.9688,229.1719 Q610.3438,228.5938 609.75,228.3281 Q609.1563,228.0469 608.5313,228.0469 Q607.1875,228.0469 606.5,229.125 Q605.8125,230.1875 605.8125,232.2813 Q605.8125,234.375 606.5,235.4531 Q607.1875,236.5156 608.5313,236.5156 Q609.1563,236.5156 609.75,236.25 Q610.3438,235.9688 610.9688,235.3906 L610.9688,238.1094 Z "/><text fill="#000000" font-family="sans-serif" font-size="12" font-style="italic" lengthAdjust="spacingAndGlyphs" textLength="109" x="620" y="229.6387">«AggregateRoot»</text><text fill="#000000" font-family="sans-serif" font-size="12" lengthAdjust="spacingAndGlyphs" textLength="67" x="641" y="243.6074">MediaCopy</text><line style="stroke: #A80036; stroke-width: 1.5;" x1="594" x2="729" y1="251.4375" y2="251.4375"/><text fill="#000000" font-family="sans-serif" font-size="11" lengthAdjust="spacingAndGlyphs" textLength="54" x="599" y="265.6479">+Id: UUID</text><text fill="#000000" font-family="sans-serif" font-size="11" lengthAdjust="spacingAndGlyphs" textLength="92" x="599" y="278.4526">+EditionId: UUID</text><line style="stroke: #A80036; stroke-width: 1.5;" x1="594" x2="729" y1="285.0469" y2="285.0469"/><!--MD5=[ff064e4e2613780c041fbf5360d2bb00]
reverse link Season to Episode--><path d="M1075.5,876.11 C1075.5,894.82 1075.5,914.77 1075.5,932.71 " fill="none" id="Season&lt;-Episode" style="stroke: #A80036; stroke-width: 1.0;"/><polygon fill="#A80036" points="1075.5,863.09,1071.5,869.09,1075.5,875.09,1079.5,869.09,1075.5,863.09" style="stroke: #A80036; stroke-width: 1.0;"/><text fill="#000000" font-family="sans-serif" font-size="13" lengthAdjust="spacingAndGlyphs" textLength="8" x="1067.0375" y="882.8663">1</text><text fill="#000000" font-family="sans-serif" font-size="13" lengthAdjust="spacingAndGlyphs" textLength="23" x="1051.1703" y="922.0642">1..*</text><!--MD5=[8e5598e971a6e533adf117e9ddab4c4a]
reverse link Franchise to FranchiseMembership--><path d="M245.71,306.59 C246.92,335.17 248.41,370.26 249.58,397.69 " fill="none" id="Franchise&lt;-FranchiseMembership" style="stroke: #A80036; stroke-width: 1.0;"/><polygon fill="#A80036" points="245.16,293.56,241.4209,299.7259,245.6744,305.549,249.4135,299.383,245.16,293.56" style="stroke: #A80036; stroke-width: 1.0;"/><text fill="#000000" font-family="sans-serif" font-size="13" lengthAdjust="spacingAndGlyphs" textLength="8" x="236.7871" y="313.2535">1</text><text fill="#000000" font-family="sans-serif" font-size="13" lengthAdjust="spacingAndGlyphs" textLength="23" x="224.6089" y="386.8375">0..*</text><!--MD5=[83ba30049ecbee829cf46810f0566891]
reverse link MediaWork to FranchiseMembership--><path d="M353.91,346.96 C335.03,364.66 316.06,382.46 299.66,397.83 " fill="none" id="MediaWork&lt;-FranchiseMembership" style="stroke: #A80036; stroke-width: 1.0;"/><polygon fill="#A80036" points="363.46,338,356.3474,339.188,354.7084,346.2104,361.821,345.0224,363.46,338" style="stroke: #A80036; stroke-width: 1.0;"/><text fill="#000000" font-family="sans-serif" font-size="13" lengthAdjust="spacingAndGlyphs" textLength="8" x="347.1736" y="358.2586">1</text><text fill="#000000" font-family="sans-serif" font-size="13" lengthAdjust="spacingAndGlyphs" textLength="23" x="282.0444" y="386.998">0..*</text><!--MD5=[03e7ed0dc0f99b05489eb432a809d4e2]
reverse link MediaWork to Edition--><path d="M550.11,346.96 C568.8,364.66 587.58,382.46 603.81,397.83 " fill="none" id="MediaWork&lt;-Edition" style="stroke: #A80036; stroke-width: 1.0;"/><polygon fill="#A80036" points="540.65,338,542.2559,345.03,549.3628,346.2515,547.7569,339.2215,540.65,338" style="stroke: #A80036; stroke-width: 1.0;"/><text fill="#000000" font-family="sans-serif" font-size="13" lengthAdjust="spacingAndGlyphs" textLength="8" x="540.1446" y="358.2586">1</text><text fill="#000000" font-family="sans-serif" font-size="13" lengthAdjust="spacingAndGlyphs" textLength="23" x="572.1165" y="386.998">0..*</text><!--MD5=[72246856af6937c3268263d759065537]
link Movie to MediaWork--><path d="M539.56,82.78 C530.66,100.13 517.83,125.14 504.75,150.64 " fill="none" id="Movie-&gt;MediaWork" style="stroke: #A80036; stroke-width: 1.0;"/><polygon fill="none" points="510.82,154.15,495.46,168.75,498.36,147.76,510.82,154.15" style="stroke: #A80036; stroke-width: 1.0;"/><!--MD5=[e07d945f8e00bcc0a5c98c65b8287e2c]
link TVShow to MediaWork--><path d="M856.82,74.65 C788.53,91.07 681.22,120.56 576.21,169.41 " fill="none" id="TVShow-&gt;MediaWork" style="stroke: #A80036; stroke-width: 1.0;"/><polygon fill="none" points="579.08,175.8,558.02,178.09,573.06,163.16,579.08,175.8" style="stroke: #A80036; stroke-width: 1.0;"/><!--MD5=[89afce3a63b81d8da54f15196f69167d]
reverse link Edition to MovieEdition--><path d="M651.5,510.42 C651.5,523.4 651.5,536.99 651.5,549.84 " fill="none" id="Edition&lt;-MovieEdition" style="stroke: #A80036; stroke-width: 1.0;"/><polygon fill="none" points="644.5,510.06,651.5,490.06,658.5,510.06,644.5,510.06" style="stroke: #A80036; stroke-width: 1.0;"/><!--MD5=[98808c8208bcd9aad69e03683ff61e9e]
reverse link Edition to TVShowEdition--><path d="M731.05,501.85 C752.69,517.31 776.22,534.13 798.21,549.84 " fill="none" id="Edition&lt;-TVShowEdition" style="stroke: #A80036; stroke-width: 1.0;"/><polygon fill="none" points="726.76,507.38,714.55,490.06,734.9,495.99,726.76,507.38" style="stroke: #A80036; stroke-width: 1.0;"/><!--MD5=[4b2448ab1b2d83e81312be3778cec9c7]
reverse link MovieEdition to AudioTrack--><path d="M683.02,687.23 C694.18,713.34 706.3,741.7 715.75,763.81 " fill="none" id="MovieEdition&lt;-AudioTrack" style="stroke: #A80036; stroke-width: 1.0;"/><polygon fill="#A80036" points="677.8,675.03,676.4818,682.1196,682.5191,686.0631,683.8373,678.9735,677.8,675.03" style="stroke: #A80036; stroke-width: 1.0;"/><text fill="#000000" font-family="sans-serif" font-size="13" lengthAdjust="spacingAndGlyphs" textLength="23" x="656.4187" y="694.7731">0..*</text><text fill="#000000" font-family="sans-serif" font-size="13" lengthAdjust="spacingAndGlyphs" textLength="23" x="688.0711" y="753.0268">0..*</text><!--MD5=[379a89bfe4b214e2127bd988e6267588]
link MovieEdition to VideoMedium--><path d="M733.54,675.06 C757.97,693.91 784.59,714.96 808.5,735 C814.52,740.05 820.73,745.41 826.88,750.82 " fill="none" id="MovieEdition-&gt;VideoMedium" style="stroke: #A80036; stroke-width: 1.0;"/><polygon fill="#A80036" points="830.69,754.19,826.6038,745.2288,826.9467,750.8753,821.3002,751.2182,830.69,754.19" style="stroke: #A80036; stroke-width: 1.0;"/><!--MD5=[569660afef68e54f8e7b0a445822999f]
link MovieEdition to VideoCase--><path d="M631.37,675.03 C625.65,692.51 619.36,711.72 613.44,729.83 " fill="none" id="MovieEdition-&gt;VideoCase" style="stroke: #A80036; stroke-width: 1.0;"/><polygon fill="#A80036" points="611.78,734.9,618.3813,727.5909,613.3354,730.1481,610.7782,725.1022,611.78,734.9" style="stroke: #A80036; stroke-width: 1.0;"/><!--MD5=[1cf5310223cc518f4f1fa5685c4b887a]
reverse link TVShow to Season--><path d="M943.37,101.3 C969.48,164.33 1017.42,288.04 1040.5,398 C1066.01,519.56 1072.99,665.4 1074.86,744.68 " fill="none" id="TVShow&lt;-Season" style="stroke: #A80036; stroke-width: 1.0;"/><polygon fill="#A80036" points="938.31,89.16,936.9356,96.2389,942.9413,100.2303,944.3157,93.1514,938.31,89.16" style="stroke: #A80036; stroke-width: 1.0;"/><text fill="#000000" font-family="sans-serif" font-size="13" lengthAdjust="spacingAndGlyphs" textLength="8" x="932.0445" y="108.7719">1</text><text fill="#000000" font-family="sans-serif" font-size="13" lengthAdjust="spacingAndGlyphs" textLength="23" x="1050.4563" y="734.0308">1..*</text><!--MD5=[6c2439728dc67f875b10f0ff997573b1]
link TVShowEdition to Season--><path d="M946.51,675.03 C967.83,696.17 991.69,719.85 1013.04,741.03 " fill="none" id="TVShowEdition-&gt;Season" style="stroke: #A80036; stroke-width: 1.0; stroke-dasharray: 7.0,7.0;"/><polygon fill="#A80036" points="1016.72,744.68,1013.1473,735.502,1013.1702,741.1588,1007.5134,741.1817,1016.72,744.68" style="stroke: #A80036; stroke-width: 1.0;"/><!--MD5=[f1892248dd6bf88e26f622af705a7c94]
reverse link TVShowEdition to AudioTrack--><path d="M826.78,685.46 C805.45,712.06 782.07,741.2 763.93,763.81 " fill="none" id="TVShowEdition&lt;-AudioTrack" style="stroke: #A80036; stroke-width: 1.0;"/><polygon fill="#A80036" points="835.15,675.03,828.2765,677.2105,827.6456,684.394,834.5191,682.2135,835.15,675.03" style="stroke: #A80036; stroke-width: 1.0;"/><text fill="#000000" font-family="sans-serif" font-size="13" lengthAdjust="spacingAndGlyphs" textLength="23" x="805.4945" y="694.7731">0..*</text><text fill="#000000" font-family="sans-serif" font-size="13" lengthAdjust="spacingAndGlyphs" textLength="23" x="744.2309" y="753.0268">0..*</text><!--MD5=[b05106bd2cc504a1d738aa8275d7301f]
link TVShowEdition to VideoMedium--><path d="M884.18,675.03 C884.05,698.94 883.91,726.08 883.78,749.2 " fill="none" id="TVShowEdition-&gt;VideoMedium" style="stroke: #A80036; stroke-width: 1.0;"/><polygon fill="#A80036" points="883.76,754.37,887.8114,745.393,883.7886,749.3701,879.8115,745.3473,883.76,754.37" style="stroke: #A80036; stroke-width: 1.0;"/><!--MD5=[d7804a31aedcc06aed9faa1cd48115fa]
link TVShowEdition to VideoCase--><path d="M785.48,666.06 C724.66,698.37 658.06,733.84 656.5,735 C651.83,738.49 647.18,742.3 642.63,746.28 " fill="none" id="TVShowEdition-&gt;VideoCase" style="stroke: #A80036; stroke-width: 1.0;"/><polygon fill="#A80036" points="638.84,749.66,648.2298,746.6882,642.5833,746.3453,642.9262,740.6988,638.84,749.66" style="stroke: #A80036; stroke-width: 1.0;"/><!--MD5=[9ad4f954b28ad54f2491927702a17c0b]
reverse link MediaWork to Contribution--><path d="M450.45,351.08 C450.1,367.41 449.76,383.65 449.46,397.83 " fill="none" id="MediaWork&lt;-Contribution" style="stroke: #A80036; stroke-width: 1.0;"/><polygon fill="#A80036" points="450.73,338,446.5991,343.9107,450.4663,349.9971,454.5972,344.0864,450.73,338" style="stroke: #A80036; stroke-width: 1.0;"/><text fill="#000000" font-family="sans-serif" font-size="13" lengthAdjust="spacingAndGlyphs" textLength="8" x="442.2161" y="358.2586">1</text><text fill="#000000" font-family="sans-serif" font-size="13" lengthAdjust="spacingAndGlyphs" textLength="23" x="424.9119" y="386.998">1..*</text><!--MD5=[6381786feb9a91c8b22723cc062b1e26]
reverse link Contribution to ContributionRole--><path d="M392.37,499.33 C367.77,523.15 339.43,550.58 316.94,572.35 " fill="none" id="Contribution&lt;-ContributionRole" style="stroke: #A80036; stroke-width: 1.0;"/><polygon fill="#A80036" points="401.95,490.06,394.8568,491.3587,393.3274,498.4057,400.4206,497.1071,401.95,490.06" style="stroke: #A80036; stroke-width: 1.0;"/><text fill="#000000" font-family="sans-serif" font-size="13" lengthAdjust="spacingAndGlyphs" textLength="8" x="386.2095" y="510.3115">1</text><text fill="#000000" font-family="sans-serif" font-size="13" lengthAdjust="spacingAndGlyphs" textLength="8" x="314.9754" y="561.5734">1</text><!--MD5=[96eca555c283861625927cf39bbe0ece]
link Contribution to Contributor--><path d="M448.5,490.06 C448.5,514.06 448.5,543.48 448.5,567.35 " fill="none" id="Contribution-&gt;Contributor" style="stroke: #A80036; stroke-width: 1.0; stroke-dasharray: 7.0,7.0;"/><polygon fill="#A80036" points="448.5,572.35,452.5,563.35,448.5,567.35,444.5,563.35,448.5,572.35" style="stroke: #A80036; stroke-width: 1.0;"/><!--MD5=[58863ec6cf083fff19df8be0751786f0]
link MediaCopy to Edition--><path d="M659.43,293.56 C657.91,322.2 655.83,361.35 654.18,392.39 " fill="none" id="MediaCopy-&gt;Edition" style="stroke: #A80036; stroke-width: 1.0; stroke-dasharray: 7.0,7.0;"/><polygon fill="#A80036" points="653.9,397.69,658.357,388.9073,654.1568,392.6966,650.3675,388.4964,653.9,397.69" style="stroke: #A80036; stroke-width: 1.0;"/><!--MD5=[a4978858ed7ec0346c1e2c92914f70b3]
@startuml
skinparam classAttributeIconSize 0

class Franchise <<AggregateRoot>> {
    +Id: UUID
    +Title: string
}

class FranchiseMembership <<Entity>> {
    +MediaWorkId: UUID
    +FranchiseId: UUID
    +OrderInFranchise: int
}

abstract class MediaWork <<AggregateRoot>> {
    +Id: UUID
    +Title: string
    +OriginalReleaseDate: LocalDate
    -_editions: List<Edition>
    -_contributions: List<Contribution>
    - -
    +AddEdition(id): void
    +RemoveEdition(id): void
    +AddContribution(id, role): void
    +RemoveContribution(id): void
}

class Movie
class TVShow {
    +EndDate: LocalDate?
}

abstract class Edition <<Entity>> {
    +Id: UUID
    +ReleaseDate: LocalDate
    +Extras: List<string>
}

class MovieEdition {
    +RuntimeMinutes: int
    +Medium: VideoMedium
    +Case: VideoCase
    +DiscCount: int
    +AudioTracks: List<AudioTrack>
    +SubtitleTracks: List<string>
}

class Episode <<Entity>> {
    +Id: UUID
    +EpisodeNumber: int
    +AirDate: LocalDate
    +RuntimeMinutes: int
    +Title: string?
}

class Season <<Entity>> {
    +Id: UUID
    +SeasonNumber: int
    +Episode: List<Episode>
    +OriginalReleaseDate: LocalDate
    +Title: string?
}

Season "1" *- - "1..*" Episode

class TVShowEdition {
    +SeasonIds: List<UUID>
    +Medium: VideoMedium
    +Case: VideoCase
    +DiscCount: int
    +AudioTracks: List<AudioTrack>
    +SubtitleTracks: List<string>
}

enum VideoMedium {
    DVD
    BluRay
    UHD
    Digital
}

enum VideoCase {
    Standard
    Steelbook
    Digipack
    Slipcover
    Boxset
    Mediabook
    Other
}

class AudioTrack <<ValueObject>> {
    +Language: string
    +Format: string
}

Franchise "1" *- - "0..*" FranchiseMembership

MediaWork "1" *- - "0..*" FranchiseMembership
MediaWork "1" *- - "0..*" Edition

Movie - -|> MediaWork
TVShow - -|> MediaWork

Edition <|- - MovieEdition
Edition <|- - TVShowEdition

MovieEdition "0..*" *- - "0..*" AudioTrack
MovieEdition - -> VideoMedium
MovieEdition - -> VideoCase

TVShow "1" *- - "1..*" Season

TVShowEdition ..> Season
TVShowEdition "0..*" *- - "0..*" AudioTrack
TVShowEdition - -> VideoMedium
TVShowEdition - -> VideoCase

class Contributor <<AggregateRoot>> {
    +Id: UUID
    +Name: string
}

class ContributionRole <<ValueObject>> {
    +Name: string
    - -
    +IsCreator(): bool
}

note left of ContributionRole
Invariant:
- Role knows whether it
  is a creator role
end note

class Contribution <<Entity>> {
    +Id: UUID
    +ContributorId: UUID
    +Role: ContributionRole
}

MediaWork "1" *- - "1..*" Contribution
Contribution "1" *- - "1" ContributionRole
Contribution ..> Contributor

note top of MediaWork
Invariant:
- Must have at least one Contribution
  where Role.IsCreator() == true
- Cannot remove last creator
- Cannot remove Edition if MediaCopy
  exists referencing it
end note

note top of TVShowEdition
Invariant:
- Must reference at least one Season
end note

class MediaCopy <<AggregateRoot>> {
    +Id: UUID
    +EditionId: UUID
}

MediaCopy ..> Edition

@enduml

PlantUML version 1.2020.02(Sun Mar 01 10:22:07 UTC 2020)
(GPL source distribution)
Java Runtime: OpenJDK Runtime Environment
JVM: OpenJDK 64-Bit Server VM
Java Version: 17.0.18+8
Operating System: Linux
Default Encoding: UTF-8
Language: en
Country: null
--></g></svg>