<?xml version="1.0" encoding="UTF-8" standalone="no"?><svg xmlns="http://www.w3.org/2000/svg" xmlns:xlink="http://www.w3.org/1999/xlink" contentScriptType="application/ecmascript" contentStyleType="text/css" height="1376px" preserveAspectRatio="none" style="width:813px;height:1376px;" version="1.1" viewBox="0 0 813 1376" width="813px" zoomAndPan="magnify"><defs><filter height="300%" id="ftb6ll0htgpet" width="300%" x="-1" y="-1"><feGaussianBlur result="blurOut" stdDeviation="2.0"/><feColorMatrix in="blurOut" result="blurOut2" type="matrix" values="0 0 0 0 0 0 0 0 0 0 0 0 0 0 0 0 0 0 .4 0"/><feOffset dx="4.0" dy="4.0" in="blurOut2" result="blurOut3"/><feBlend in="SourceGraphic" in2="blurOut3" mode="normal"/></filter></defs><g><!--MD5=[c3dd83c4944f050787f4b644933234ea]
class MediaWork--><rect fill="#FEFECE" filter="url(#ftb6ll0htgpet)" height="194.7891" id="MediaWork" style="stroke: #A80036; stroke-width: 1.5;" width="211" x="508" y="231"/><ellipse cx="556.75" cy="249.9688" fill="#ADD1B2" rx="11" ry="11" style="stroke: #A80036; stroke-width: 1.0;"/><path d="M559.7188,255.6094 Q559.1406,255.9063 558.5,256.0469 Q557.8594,256.2031 557.1563,256.2031 Q554.6563,256.2031 553.3281,254.5625 Q552.0156,252.9063 552.0156,249.7813 Q552.0156,246.6563 553.3281,245 Q554.6563,243.3438 557.1563,243.3438 Q557.8594,243.3438 558.5,243.5 Q559.1563,243.6563 559.7188,243.9531 L559.7188,246.6719 Q559.0938,246.0938 558.5,245.8281 Q557.9063,245.5469 557.2813,245.5469 Q555.9375,245.5469 555.25,246.625 Q554.5625,247.6875 554.5625,249.7813 Q554.5625,251.875 555.25,252.9531 Q555.9375,254.0156 557.2813,254.0156 Q557.9063,254.0156 558.5,253.75 Q559.0938,253.4688 559.7188,252.8906 L559.7188,255.6094 Z "/><text fill="#000000" font-family="sans-serif" font-size="12" font-style="italic" lengthAdjust="spacingAndGlyphs" textLength="109" x="575.25" y="247.1387">«AggregateRoot»</text><text fill="#000000" font-family="sans-serif" font-size="12" lengthAdjust="spacingAndGlyphs" textLength="68" x="595.75" y="261.1074">MediaWork</text><line style="stroke: #A80036; stroke-width: 1.5;" x1="509" x2="718" y1="268.9375" y2="268.9375"/><text fill="#000000" font-family="sans-serif" font-size="11" lengthAdjust="spacingAndGlyphs" textLength="54" x="514" y="283.1479">+Id: UUID</text><text fill="#000000" font-family="sans-serif" font-size="11" lengthAdjust="spacingAndGlyphs" textLength="74" x="514" y="295.9526">+Title: string</text><text fill="#000000" font-family="sans-serif" font-size="11" lengthAdjust="spacingAndGlyphs" textLength="120" x="514" y="308.7573">+Description?: string</text><text fill="#000000" font-family="sans-serif" font-size="11" lengthAdjust="spacingAndGlyphs" textLength="187" x="514" y="321.562">+OriginalReleaseDate: LocalDate</text><text fill="#000000" font-family="sans-serif" font-size="11" lengthAdjust="spacingAndGlyphs" textLength="156" x="514" y="334.3667">-_structure: MediaStructure</text><text fill="#000000" font-family="sans-serif" font-size="11" lengthAdjust="spacingAndGlyphs" textLength="199" x="514" y="347.1714">-_contributions: List&lt;Contribution&gt;</text><text fill="#000000" font-family="sans-serif" font-size="11" lengthAdjust="spacingAndGlyphs" textLength="142" x="514" y="359.9761">-_content: List&lt;Content&gt;</text><line style="stroke: #A80036; stroke-width: 1.0;" x1="509" x2="718" y1="366.5703" y2="366.5703"/><text fill="#000000" font-family="sans-serif" font-size="11" lengthAdjust="spacingAndGlyphs" textLength="178" x="514" y="380.7808">+AddContribution(id, role): void</text><text fill="#000000" font-family="sans-serif" font-size="11" lengthAdjust="spacingAndGlyphs" textLength="172" x="514" y="393.5854">+RemoveContribution(id): void</text><text fill="#000000" font-family="sans-serif" font-size="11" lengthAdjust="spacingAndGlyphs" textLength="155" x="514" y="406.3901">+AddContent(content): void</text><text fill="#000000" font-family="sans-serif" font-size="11" lengthAdjust="spacingAndGlyphs" textLength="147" x="514" y="419.1948">+RemoveContent(id): void</text><path d="M460.5,24 L460.5,155.0625 A0,0 0 0 0 460.5,155.0625 L609.5,155.0625 L613.5,230.8 L617.5,155.0625 L766.5,155.0625 A0,0 0 0 0 766.5,155.0625 L766.5,34 L756.5,24 L460.5,24 A0,0 0 0 0 460.5,24 " fill="#FBFB77" filter="url(#ftb6ll0htgpet)" style="stroke: #A80036; stroke-width: 1.0;"/><path d="M756.5,24 L756.5,34 L766.5,34 L756.5,24 " fill="#FBFB77" style="stroke: #A80036; stroke-width: 1.0;"/><text fill="#000000" font-family="sans-serif" font-size="13" lengthAdjust="spacingAndGlyphs" textLength="59" x="466.5" y="41.0669">Invariant:</text><text fill="#000000" font-family="sans-serif" font-size="13" lengthAdjust="spacingAndGlyphs" textLength="254" x="466.5" y="56.1997">- Must have exactly one MediaStructure</text><text fill="#000000" font-family="sans-serif" font-size="13" lengthAdjust="spacingAndGlyphs" textLength="249" x="466.5" y="71.3325">- Structure defines the MediaWork type</text><text fill="#000000" font-family="sans-serif" font-size="13" lengthAdjust="spacingAndGlyphs" textLength="285" x="466.5" y="86.4653">- Must have at least one creator contribution</text><text fill="#000000" font-family="sans-serif" font-size="13" lengthAdjust="spacingAndGlyphs" textLength="185" x="466.5" y="101.5981">- Cannot remove last creator</text><text fill="#000000" font-family="sans-serif" font-size="13" lengthAdjust="spacingAndGlyphs" textLength="267" x="466.5" y="116.731">- All Features / Episodes must reference a</text><text fill="#000000" font-family="sans-serif" font-size="13" lengthAdjust="spacingAndGlyphs" textLength="256" x="474.5" y="131.8638">Content that is a PlayableContent inside</text><text fill="#000000" font-family="sans-serif" font-size="13" lengthAdjust="spacingAndGlyphs" textLength="136" x="474.5" y="146.9966">MediaWork._contents</text><!--MD5=[d72d8c3c7ec9fd0574988ac0e6c89053]
class MediaStructure--><rect fill="#FEFECE" filter="url(#ftb6ll0htgpet)" height="79.5469" id="MediaStructure" style="stroke: #A80036; stroke-width: 1.5;" width="160" x="347.5" y="492"/><ellipse cx="376.9" cy="510.9688" fill="#A9DCDF" rx="11" ry="11" style="stroke: #A80036; stroke-width: 1.0;"/><path d="M377.0094,506.3125 L375.8531,511.3906 L378.1813,511.3906 L377.0094,506.3125 Z M375.525,504.0781 L378.5094,504.0781 L381.8688,516.4688 L379.4156,516.4688 L378.65,513.4063 L375.3688,513.4063 L374.6188,516.4688 L372.1813,516.4688 L375.525,504.0781 Z "/><text fill="#000000" font-family="sans-serif" font-size="12" font-style="italic" lengthAdjust="spacingAndGlyphs" textLength="50" x="417.1" y="508.1387">«Entity»</text><text fill="#000000" font-family="sans-serif" font-size="12" font-style="italic" lengthAdjust="spacingAndGlyphs" textLength="96" x="394.1" y="522.1074">MediaStructure</text><line style="stroke: #A80036; stroke-width: 1.5;" x1="348.5" x2="506.5" y1="529.9375" y2="529.9375"/><line style="stroke: #A80036; stroke-width: 1.0;" x1="348.5" x2="506.5" y1="537.9375" y2="537.9375"/><text fill="#000000" font-family="sans-serif" font-size="11" lengthAdjust="spacingAndGlyphs" textLength="139" x="353.5" y="552.1479">+Type(): MediaWorkType</text><text fill="#000000" font-family="sans-serif" font-size="11" lengthAdjust="spacingAndGlyphs" textLength="148" x="353.5" y="564.9526">+IsCreatorRole(role): bool</text><!--MD5=[3993688172772fa3ddb685ff7da315ec]
class MediaWorkType--><rect fill="#FEFECE" filter="url(#ftb6ll0htgpet)" height="73.6094" id="MediaWorkType" style="stroke: #A80036; stroke-width: 1.5;" width="129" x="6" y="52.5"/><ellipse cx="21" cy="68.5" fill="#EB937F" rx="11" ry="11" style="stroke: #A80036; stroke-width: 1.0;"/><path d="M25.1094,74.5 L17.3906,74.5 L17.3906,62.1094 L25.1094,62.1094 L25.1094,64.2656 L19.8438,64.2656 L19.8438,66.9375 L24.6094,66.9375 L24.6094,69.0938 L19.8438,69.0938 L19.8438,72.3438 L25.1094,72.3438 L25.1094,74.5 Z "/><text fill="#000000" font-family="sans-serif" font-size="12" lengthAdjust="spacingAndGlyphs" textLength="97" x="35" y="72.6543">MediaWorkType</text><line style="stroke: #A80036; stroke-width: 1.5;" x1="7" x2="134" y1="84.5" y2="84.5"/><text fill="#000000" font-family="sans-serif" font-size="11" lengthAdjust="spacingAndGlyphs" textLength="32" x="12" y="98.7104">Movie</text><text fill="#000000" font-family="sans-serif" font-size="11" lengthAdjust="spacingAndGlyphs" textLength="14" x="12" y="111.5151">TV</text><line style="stroke: #A80036; stroke-width: 1.5;" x1="7" x2="134" y1="118.1094" y2="118.1094"/><!--MD5=[0330879a1a385efee19ba3488ed490fa]
class Contribution--><rect fill="#FEFECE" filter="url(#ftb6ll0htgpet)" height="92.3516" id="Contribution" style="stroke: #A80036; stroke-width: 1.5;" width="141" x="543" y="486"/><ellipse cx="572.4" cy="504.9688" fill="#ADD1B2" rx="11" ry="11" style="stroke: #A80036; stroke-width: 1.0;"/><path d="M575.3688,510.6094 Q574.7906,510.9063 574.15,511.0469 Q573.5094,511.2031 572.8063,511.2031 Q570.3063,511.2031 568.9781,509.5625 Q567.6656,507.9063 567.6656,504.7813 Q567.6656,501.6563 568.9781,500 Q570.3063,498.3438 572.8063,498.3438 Q573.5094,498.3438 574.15,498.5 Q574.8063,498.6563 575.3688,498.9531 L575.3688,501.6719 Q574.7438,501.0938 574.15,500.8281 Q573.5563,500.5469 572.9313,500.5469 Q571.5875,500.5469 570.9,501.625 Q570.2125,502.6875 570.2125,504.7813 Q570.2125,506.875 570.9,507.9531 Q571.5875,509.0156 572.9313,509.0156 Q573.5563,509.0156 574.15,508.75 Q574.7438,508.4688 575.3688,507.8906 L575.3688,510.6094 Z "/><text fill="#000000" font-family="sans-serif" font-size="12" font-style="italic" lengthAdjust="spacingAndGlyphs" textLength="50" x="603.1" y="502.1387">«Entity»</text><text fill="#000000" font-family="sans-serif" font-size="12" lengthAdjust="spacingAndGlyphs" textLength="77" x="589.6" y="516.1074">Contribution</text><line style="stroke: #A80036; stroke-width: 1.5;" x1="544" x2="683" y1="523.9375" y2="523.9375"/><text fill="#000000" font-family="sans-serif" font-size="11" lengthAdjust="spacingAndGlyphs" textLength="54" x="549" y="538.1479">+Id: UUID</text><text fill="#000000" font-family="sans-serif" font-size="11" lengthAdjust="spacingAndGlyphs" textLength="118" x="549" y="550.9526">+ContributorId: UUID</text><text fill="#000000" font-family="sans-serif" font-size="11" lengthAdjust="spacingAndGlyphs" textLength="129" x="549" y="563.7573">+Role: ContributorRole</text><line style="stroke: #A80036; stroke-width: 1.5;" x1="544" x2="683" y1="570.3516" y2="570.3516"/><!--MD5=[dd2cb4d4918b743616ebdb19b9302e86]
class ContributorRole--><rect fill="#FEFECE" filter="url(#ftb6ll0htgpet)" height="66.7422" id="ContributorRole" style="stroke: #A80036; stroke-width: 1.5;" width="130" x="170.5" y="56"/><ellipse cx="185.5" cy="74.9688" fill="#ADD1B2" rx="11" ry="11" style="stroke: #A80036; stroke-width: 1.0;"/><path d="M188.4688,80.6094 Q187.8906,80.9063 187.25,81.0469 Q186.6094,81.2031 185.9063,81.2031 Q183.4063,81.2031 182.0781,79.5625 Q180.7656,77.9063 180.7656,74.7813 Q180.7656,71.6563 182.0781,70 Q183.4063,68.3438 185.9063,68.3438 Q186.6094,68.3438 187.25,68.5 Q187.9063,68.6563 188.4688,68.9531 L188.4688,71.6719 Q187.8438,71.0938 187.25,70.8281 Q186.6563,70.5469 186.0313,70.5469 Q184.6875,70.5469 184,71.625 Q183.3125,72.6875 183.3125,74.7813 Q183.3125,76.875 184,77.9531 Q184.6875,79.0156 186.0313,79.0156 Q186.6563,79.0156 187.25,78.75 Q187.8438,78.4688 188.4688,77.8906 L188.4688,80.6094 Z "/><text fill="#000000" font-family="sans-serif" font-size="12" font-style="italic" lengthAdjust="spacingAndGlyphs" textLength="88" x="204.5" y="72.1387">«ValueObject»</text><text fill="#000000" font-family="sans-serif" font-size="12" lengthAdjust="spacingAndGlyphs" textLength="98" x="199.5" y="86.1074">ContributorRole</text><line style="stroke: #A80036; stroke-width: 1.5;" x1="171.5" x2="299.5" y1="93.9375" y2="93.9375"/><text fill="#000000" font-family="sans-serif" font-size="11" lengthAdjust="spacingAndGlyphs" textLength="83" x="176.5" y="108.1479">+Name: string</text><line style="stroke: #A80036; stroke-width: 1.5;" x1="171.5" x2="299.5" y1="114.7422" y2="114.7422"/><!--MD5=[fd7366e9f96236d9aa60dcc04f2b83e5]
class Content--><rect fill="#FEFECE" filter="url(#ftb6ll0htgpet)" height="92.3516" id="Content" style="stroke: #A80036; stroke-width: 1.5;" width="132" x="670.5" y="816.5"/><ellipse cx="708" cy="835.4688" fill="#ADD1B2" rx="11" ry="11" style="stroke: #A80036; stroke-width: 1.0;"/><path d="M710.9688,841.1094 Q710.3906,841.4063 709.75,841.5469 Q709.1094,841.7031 708.4063,841.7031 Q705.9063,841.7031 704.5781,840.0625 Q703.2656,838.4063 703.2656,835.2813 Q703.2656,832.1563 704.5781,830.5 Q705.9063,828.8438 708.4063,828.8438 Q709.1094,828.8438 709.75,829 Q710.4063,829.1563 710.9688,829.4531 L710.9688,832.1719 Q710.3438,831.5938 709.75,831.3281 Q709.1563,831.0469 708.5313,831.0469 Q707.1875,831.0469 706.5,832.125 Q705.8125,833.1875 705.8125,835.2813 Q705.8125,837.375 706.5,838.4531 Q707.1875,839.5156 708.5313,839.5156 Q709.1563,839.5156 709.75,839.25 Q710.3438,838.9688 710.9688,838.3906 L710.9688,841.1094 Z "/><text fill="#000000" font-family="sans-serif" font-size="12" font-style="italic" lengthAdjust="spacingAndGlyphs" textLength="50" x="727" y="832.6387">«Entity»</text><text fill="#000000" font-family="sans-serif" font-size="12" lengthAdjust="spacingAndGlyphs" textLength="50" x="727" y="846.6074">Content</text><line style="stroke: #A80036; stroke-width: 1.5;" x1="671.5" x2="801.5" y1="854.4375" y2="854.4375"/><text fill="#000000" font-family="sans-serif" font-size="11" lengthAdjust="spacingAndGlyphs" textLength="54" x="676.5" y="868.6479">+Id: UUID</text><text fill="#000000" font-family="sans-serif" font-size="11" lengthAdjust="spacingAndGlyphs" textLength="80" x="676.5" y="881.4526">+Title?: string</text><text fill="#000000" font-family="sans-serif" font-size="11" lengthAdjust="spacingAndGlyphs" textLength="120" x="676.5" y="894.2573">+Description?: string</text><line style="stroke: #A80036; stroke-width: 1.5;" x1="671.5" x2="801.5" y1="900.8516" y2="900.8516"/><!--MD5=[9e73ca2041b22575b2d551193cb62c11]
class PlayableContent--><rect fill="#FEFECE" filter="url(#ftb6ll0htgpet)" height="86.4141" id="PlayableContent" style="stroke: #A80036; stroke-width: 1.5;" width="181" x="417" y="1140"/><ellipse cx="453.15" cy="1156" fill="#ADD1B2" rx="11" ry="11" style="stroke: #A80036; stroke-width: 1.0;"/><path d="M456.1188,1161.6406 Q455.5406,1161.9375 454.9,1162.0781 Q454.2594,1162.2344 453.5563,1162.2344 Q451.0563,1162.2344 449.7281,1160.5938 Q448.4156,1158.9375 448.4156,1155.8125 Q448.4156,1152.6875 449.7281,1151.0313 Q451.0563,1149.375 453.5563,1149.375 Q454.2594,1149.375 454.9,1149.5313 Q455.5563,1149.6875 456.1188,1149.9844 L456.1188,1152.7031 Q455.4938,1152.125 454.9,1151.8594 Q454.3063,1151.5781 453.6813,1151.5781 Q452.3375,1151.5781 451.65,1152.6563 Q450.9625,1153.7188 450.9625,1155.8125 Q450.9625,1157.9063 451.65,1158.9844 Q452.3375,1160.0469 453.6813,1160.0469 Q454.3063,1160.0469 454.9,1159.7813 Q455.4938,1159.5 456.1188,1158.9219 L456.1188,1161.6406 Z "/><text fill="#000000" font-family="sans-serif" font-size="12" lengthAdjust="spacingAndGlyphs" textLength="102" x="471.85" y="1160.1543">PlayableContent</text><line style="stroke: #A80036; stroke-width: 1.5;" x1="418" x2="597" y1="1172" y2="1172"/><text fill="#000000" font-family="sans-serif" font-size="11" lengthAdjust="spacingAndGlyphs" textLength="121" x="423" y="1186.2104">+RuntimeMinutes: int</text><text fill="#000000" font-family="sans-serif" font-size="11" lengthAdjust="spacingAndGlyphs" textLength="115" x="423" y="1199.0151">+CutType?: CutType</text><text fill="#000000" font-family="sans-serif" font-size="11" lengthAdjust="spacingAndGlyphs" textLength="169" x="423" y="1211.8198">+SubtitleTracks: List&lt;string&gt;</text><line style="stroke: #A80036; stroke-width: 1.5;" x1="418" x2="597" y1="1218.4141" y2="1218.4141"/><!--MD5=[ffdd170a53eba6d79fedf145c7c9114b]
class CutType--><rect fill="#FEFECE" filter="url(#ftb6ll0htgpet)" height="163.2422" id="CutType" style="stroke: #A80036; stroke-width: 1.5;" width="90" x="335.5" y="8"/><ellipse cx="354.1" cy="24" fill="#EB937F" rx="11" ry="11" style="stroke: #A80036; stroke-width: 1.0;"/><path d="M358.2094,30 L350.4906,30 L350.4906,17.6094 L358.2094,17.6094 L358.2094,19.7656 L352.9438,19.7656 L352.9438,22.4375 L357.7094,22.4375 L357.7094,24.5938 L352.9438,24.5938 L352.9438,27.8438 L358.2094,27.8438 L358.2094,30 Z "/><text fill="#000000" font-family="sans-serif" font-size="12" lengthAdjust="spacingAndGlyphs" textLength="50" x="368.9" y="28.1543">CutType</text><line style="stroke: #A80036; stroke-width: 1.5;" x1="336.5" x2="424.5" y1="40" y2="40"/><text fill="#000000" font-family="sans-serif" font-size="11" lengthAdjust="spacingAndGlyphs" textLength="64" x="341.5" y="54.2104">DirectorCut</text><text fill="#000000" font-family="sans-serif" font-size="11" lengthAdjust="spacingAndGlyphs" textLength="52" x="341.5" y="67.0151">Extended</text><text fill="#000000" font-family="sans-serif" font-size="11" lengthAdjust="spacingAndGlyphs" textLength="45" x="341.5" y="79.8198">FinalCut</text><text fill="#000000" font-family="sans-serif" font-size="11" lengthAdjust="spacingAndGlyphs" textLength="78" x="341.5" y="92.6245">HomeRelease</text><text fill="#000000" font-family="sans-serif" font-size="11" lengthAdjust="spacingAndGlyphs" textLength="71" x="341.5" y="105.4292">International</text><text fill="#000000" font-family="sans-serif" font-size="11" lengthAdjust="spacingAndGlyphs" textLength="44" x="341.5" y="118.2339">Original</text><text fill="#000000" font-family="sans-serif" font-size="11" lengthAdjust="spacingAndGlyphs" textLength="32" x="341.5" y="131.0386">Other</text><text fill="#000000" font-family="sans-serif" font-size="11" lengthAdjust="spacingAndGlyphs" textLength="56" x="341.5" y="143.8433">Theatrical</text><text fill="#000000" font-family="sans-serif" font-size="11" lengthAdjust="spacingAndGlyphs" textLength="32" x="341.5" y="156.6479">Uncut</text><line style="stroke: #A80036; stroke-width: 1.5;" x1="336.5" x2="424.5" y1="163.2422" y2="163.2422"/><!--MD5=[55a6f80882d3cd7368bedd1107f01aad]
class AudioTrack--><rect fill="#FEFECE" filter="url(#ftb6ll0htgpet)" height="79.5469" id="AudioTrack" style="stroke: #A80036; stroke-width: 1.5;" width="117" x="449" y="1286"/><ellipse cx="464.45" cy="1304.9688" fill="#ADD1B2" rx="11" ry="11" style="stroke: #A80036; stroke-width: 1.0;"/><path d="M467.4188,1310.6094 Q466.8406,1310.9063 466.2,1311.0469 Q465.5594,1311.2031 464.8563,1311.2031 Q462.3563,1311.2031 461.0281,1309.5625 Q459.7156,1307.9063 459.7156,1304.7813 Q459.7156,1301.6563 461.0281,1300 Q462.3563,1298.3438 464.8563,1298.3438 Q465.5594,1298.3438 466.2,1298.5 Q466.8563,1298.6563 467.4188,1298.9531 L467.4188,1301.6719 Q466.7938,1301.0938 466.2,1300.8281 Q465.6063,1300.5469 464.9813,1300.5469 Q463.6375,1300.5469 462.95,1301.625 Q462.2625,1302.6875 462.2625,1304.7813 Q462.2625,1306.875 462.95,1307.9531 Q463.6375,1309.0156 464.9813,1309.0156 Q465.6063,1309.0156 466.2,1308.75 Q466.7938,1308.4688 467.4188,1307.8906 L467.4188,1310.6094 Z "/><text fill="#000000" font-family="sans-serif" font-size="12" font-style="italic" lengthAdjust="spacingAndGlyphs" textLength="88" x="476.55" y="1302.1387">«ValueObject»</text><text fill="#000000" font-family="sans-serif" font-size="12" lengthAdjust="spacingAndGlyphs" textLength="69" x="486.05" y="1316.1074">AudioTrack</text><line style="stroke: #A80036; stroke-width: 1.5;" x1="450" x2="565" y1="1323.9375" y2="1323.9375"/><text fill="#000000" font-family="sans-serif" font-size="11" lengthAdjust="spacingAndGlyphs" textLength="105" x="455" y="1338.1479">+Language: string</text><text fill="#000000" font-family="sans-serif" font-size="11" lengthAdjust="spacingAndGlyphs" textLength="90" x="455" y="1350.9526">+Format: string</text><line style="stroke: #A80036; stroke-width: 1.5;" x1="450" x2="565" y1="1357.5469" y2="1357.5469"/><!--MD5=[585ee8f65e307620999c6f40d00190ed]
class MovieStructure--><rect fill="#FEFECE" filter="url(#ftb6ll0htgpet)" height="86.4141" id="MovieStructure" style="stroke: #A80036; stroke-width: 1.5;" width="158" x="235.5" y="984.5"/><ellipse cx="264.9" cy="1000.5" fill="#ADD1B2" rx="11" ry="11" style="stroke: #A80036; stroke-width: 1.0;"/><path d="M267.8688,1006.1406 Q267.2906,1006.4375 266.65,1006.5781 Q266.0094,1006.7344 265.3063,1006.7344 Q262.8063,1006.7344 261.4781,1005.0938 Q260.1656,1003.4375 260.1656,1000.3125 Q260.1656,997.1875 261.4781,995.5313 Q262.8063,993.875 265.3063,993.875 Q266.0094,993.875 266.65,994.0313 Q267.3063,994.1875 267.8688,994.4844 L267.8688,997.2031 Q267.2438,996.625 266.65,996.3594 Q266.0563,996.0781 265.4313,996.0781 Q264.0875,996.0781 263.4,997.1563 Q262.7125,998.2188 262.7125,1000.3125 Q262.7125,1002.4063 263.4,1003.4844 Q264.0875,1004.5469 265.4313,1004.5469 Q266.0563,1004.5469 266.65,1004.2813 Q267.2438,1004 267.8688,1003.4219 L267.8688,1006.1406 Z "/><text fill="#000000" font-family="sans-serif" font-size="12" lengthAdjust="spacingAndGlyphs" textLength="94" x="282.1" y="1004.6543">MovieStructure</text><line style="stroke: #A80036; stroke-width: 1.5;" x1="236.5" x2="392.5" y1="1016.5" y2="1016.5"/><text fill="#000000" font-family="sans-serif" font-size="11" lengthAdjust="spacingAndGlyphs" textLength="131" x="241.5" y="1030.7104">-_features: List&lt;UUID&gt;</text><line style="stroke: #A80036; stroke-width: 1.0;" x1="236.5" x2="392.5" y1="1037.3047" y2="1037.3047"/><text fill="#000000" font-family="sans-serif" font-size="11" lengthAdjust="spacingAndGlyphs" textLength="122" x="241.5" y="1051.5151">+AddFeature(id): void</text><text fill="#000000" font-family="sans-serif" font-size="11" lengthAdjust="spacingAndGlyphs" textLength="146" x="241.5" y="1064.3198">+RemoveFeature(id): void</text><!--MD5=[cd683f41d8e1b15da58d9cd5310581c5]
class TVStructure--><rect fill="#FEFECE" filter="url(#ftb6ll0htgpet)" height="112.0234" id="TVStructure" style="stroke: #A80036; stroke-width: 1.5;" width="160" x="367.5" y="638"/><ellipse cx="406.8" cy="654" fill="#ADD1B2" rx="11" ry="11" style="stroke: #A80036; stroke-width: 1.0;"/><path d="M409.7688,659.6406 Q409.1906,659.9375 408.55,660.0781 Q407.9094,660.2344 407.2063,660.2344 Q404.7063,660.2344 403.3781,658.5938 Q402.0656,656.9375 402.0656,653.8125 Q402.0656,650.6875 403.3781,649.0313 Q404.7063,647.375 407.2063,647.375 Q407.9094,647.375 408.55,647.5313 Q409.2063,647.6875 409.7688,647.9844 L409.7688,650.7031 Q409.1438,650.125 408.55,649.8594 Q407.9563,649.5781 407.3313,649.5781 Q405.9875,649.5781 405.3,650.6563 Q404.6125,651.7188 404.6125,653.8125 Q404.6125,655.9063 405.3,656.9844 Q405.9875,658.0469 407.3313,658.0469 Q407.9563,658.0469 408.55,657.7813 Q409.1438,657.5 409.7688,656.9219 L409.7688,659.6406 Z "/><text fill="#000000" font-family="sans-serif" font-size="12" lengthAdjust="spacingAndGlyphs" textLength="74" x="426.2" y="658.1543">TVStructure</text><line style="stroke: #A80036; stroke-width: 1.5;" x1="368.5" x2="526.5" y1="670" y2="670"/><text fill="#000000" font-family="sans-serif" font-size="11" lengthAdjust="spacingAndGlyphs" textLength="105" x="373.5" y="684.2104">+Status: TVStatus</text><text fill="#000000" font-family="sans-serif" font-size="11" lengthAdjust="spacingAndGlyphs" textLength="129" x="373.5" y="697.0151">+EndedOn?: LocalDate</text><text fill="#000000" font-family="sans-serif" font-size="11" lengthAdjust="spacingAndGlyphs" textLength="135" x="373.5" y="709.8198">-_episodes: List&lt;UUID&gt;</text><line style="stroke: #A80036; stroke-width: 1.0;" x1="368.5" x2="526.5" y1="716.4141" y2="716.4141"/><text fill="#000000" font-family="sans-serif" font-size="11" lengthAdjust="spacingAndGlyphs" textLength="124" x="373.5" y="730.6245">+AddEpisode(id): void</text><text fill="#000000" font-family="sans-serif" font-size="11" lengthAdjust="spacingAndGlyphs" textLength="148" x="373.5" y="743.4292">+RemoveEpisode(id): void</text><!--MD5=[ec068ab7b1cfb32e88f15482ccdce528]
class TVStatus--><rect fill="#FEFECE" filter="url(#ftb6ll0htgpet)" height="99.2188" id="TVStatus" style="stroke: #A80036; stroke-width: 1.5;" width="88" x="26.5" y="279"/><ellipse cx="41.5" cy="295" fill="#EB937F" rx="11" ry="11" style="stroke: #A80036; stroke-width: 1.0;"/><path d="M45.6094,301 L37.8906,301 L37.8906,288.6094 L45.6094,288.6094 L45.6094,290.7656 L40.3438,290.7656 L40.3438,293.4375 L45.1094,293.4375 L45.1094,295.5938 L40.3438,295.5938 L40.3438,298.8438 L45.6094,298.8438 L45.6094,301 Z "/><text fill="#000000" font-family="sans-serif" font-size="12" lengthAdjust="spacingAndGlyphs" textLength="56" x="55.5" y="299.1543">TVStatus</text><line style="stroke: #A80036; stroke-width: 1.5;" x1="27.5" x2="113.5" y1="311" y2="311"/><text fill="#000000" font-family="sans-serif" font-size="11" lengthAdjust="spacingAndGlyphs" textLength="47" x="32.5" y="325.2104">Ongoing</text><text fill="#000000" font-family="sans-serif" font-size="11" lengthAdjust="spacingAndGlyphs" textLength="35" x="32.5" y="338.0151">Ended</text><text fill="#000000" font-family="sans-serif" font-size="11" lengthAdjust="spacingAndGlyphs" textLength="55" x="32.5" y="350.8198">Cancelled</text><text fill="#000000" font-family="sans-serif" font-size="11" lengthAdjust="spacingAndGlyphs" textLength="51" x="32.5" y="363.6245">Unknown</text><line style="stroke: #A80036; stroke-width: 1.5;" x1="27.5" x2="113.5" y1="370.2188" y2="370.2188"/><!--MD5=[2916714cae8f0462c1096d4fd55ce4c3]
class Season--><rect fill="#FEFECE" filter="url(#ftb6ll0htgpet)" height="105.1563" id="Season" style="stroke: #A80036; stroke-width: 1.5;" width="132" x="501.5" y="810"/><ellipse cx="540.35" cy="828.9688" fill="#ADD1B2" rx="11" ry="11" style="stroke: #A80036; stroke-width: 1.0;"/><path d="M543.3188,834.6094 Q542.7406,834.9063 542.1,835.0469 Q541.4594,835.2031 540.7563,835.2031 Q538.2563,835.2031 536.9281,833.5625 Q535.6156,831.9063 535.6156,828.7813 Q535.6156,825.6563 536.9281,824 Q538.2563,822.3438 540.7563,822.3438 Q541.4594,822.3438 542.1,822.5 Q542.7563,822.6563 543.3188,822.9531 L543.3188,825.6719 Q542.6938,825.0938 542.1,824.8281 Q541.5063,824.5469 540.8813,824.5469 Q539.5375,824.5469 538.85,825.625 Q538.1625,826.6875 538.1625,828.7813 Q538.1625,830.875 538.85,831.9531 Q539.5375,833.0156 540.8813,833.0156 Q541.5063,833.0156 542.1,832.75 Q542.6938,832.4688 543.3188,831.8906 L543.3188,834.6094 Z "/><text fill="#000000" font-family="sans-serif" font-size="12" font-style="italic" lengthAdjust="spacingAndGlyphs" textLength="50" x="558.15" y="826.1387">«Entity»</text><text fill="#000000" font-family="sans-serif" font-size="12" lengthAdjust="spacingAndGlyphs" textLength="47" x="559.65" y="840.1074">Season</text><line style="stroke: #A80036; stroke-width: 1.5;" x1="502.5" x2="632.5" y1="847.9375" y2="847.9375"/><text fill="#000000" font-family="sans-serif" font-size="11" lengthAdjust="spacingAndGlyphs" textLength="54" x="507.5" y="862.1479">+Id: UUID</text><text fill="#000000" font-family="sans-serif" font-size="11" lengthAdjust="spacingAndGlyphs" textLength="119" x="507.5" y="874.9526">+SeasonNumber: int</text><text fill="#000000" font-family="sans-serif" font-size="11" lengthAdjust="spacingAndGlyphs" textLength="80" x="507.5" y="887.7573">+Title: string?</text><text fill="#000000" font-family="sans-serif" font-size="11" lengthAdjust="spacingAndGlyphs" textLength="120" x="507.5" y="900.562">+Description: string?</text><line style="stroke: #A80036; stroke-width: 1.5;" x1="502.5" x2="632.5" y1="907.1563" y2="907.1563"/><!--MD5=[89f1af135d226d270851fb7756972918]
class Episode--><rect fill="#FEFECE" filter="url(#ftb6ll0htgpet)" height="105.1563" id="Episode" style="stroke: #A80036; stroke-width: 1.5;" width="139" x="500" y="975"/><ellipse cx="540.65" cy="993.9688" fill="#ADD1B2" rx="11" ry="11" style="stroke: #A80036; stroke-width: 1.0;"/><path d="M543.6188,999.6094 Q543.0406,999.9063 542.4,1000.0469 Q541.7594,1000.2031 541.0563,1000.2031 Q538.5563,1000.2031 537.2281,998.5625 Q535.9156,996.9063 535.9156,993.7813 Q535.9156,990.6563 537.2281,989 Q538.5563,987.3438 541.0563,987.3438 Q541.7594,987.3438 542.4,987.5 Q543.0563,987.6563 543.6188,987.9531 L543.6188,990.6719 Q542.9938,990.0938 542.4,989.8281 Q541.8063,989.5469 541.1813,989.5469 Q539.8375,989.5469 539.15,990.625 Q538.4625,991.6875 538.4625,993.7813 Q538.4625,995.875 539.15,996.9531 Q539.8375,998.0156 541.1813,998.0156 Q541.8063,998.0156 542.4,997.75 Q542.9938,997.4688 543.6188,996.8906 L543.6188,999.6094 Z "/><text fill="#000000" font-family="sans-serif" font-size="12" font-style="italic" lengthAdjust="spacingAndGlyphs" textLength="50" x="560.35" y="991.1387">«Entity»</text><text fill="#000000" font-family="sans-serif" font-size="12" lengthAdjust="spacingAndGlyphs" textLength="50" x="560.35" y="1005.1074">Episode</text><line style="stroke: #A80036; stroke-width: 1.5;" x1="501" x2="638" y1="1012.9375" y2="1012.9375"/><text fill="#000000" font-family="sans-serif" font-size="11" lengthAdjust="spacingAndGlyphs" textLength="96" x="506" y="1027.1479">+contentId: UUID</text><text fill="#000000" font-family="sans-serif" font-size="11" lengthAdjust="spacingAndGlyphs" textLength="127" x="506" y="1039.9526">+EpisodeNumber?: int</text><text fill="#000000" font-family="sans-serif" font-size="11" lengthAdjust="spacingAndGlyphs" textLength="113" x="506" y="1052.7573">+AirDate: LocalDate</text><text fill="#000000" font-family="sans-serif" font-size="11" lengthAdjust="spacingAndGlyphs" textLength="120" x="506" y="1065.562">+Role?: EpisodeRole;</text><line style="stroke: #A80036; stroke-width: 1.5;" x1="501" x2="638" y1="1072.1563" y2="1072.1563"/><!--MD5=[07d2bb4561db7ebe8a29842a6983f241]
class EpisodeRole--><rect fill="#FEFECE" filter="url(#ftb6ll0htgpet)" height="86.4141" id="EpisodeRole" style="stroke: #A80036; stroke-width: 1.5;" width="109" x="150" y="285.5"/><ellipse cx="165" cy="301.5" fill="#EB937F" rx="11" ry="11" style="stroke: #A80036; stroke-width: 1.0;"/><path d="M169.1094,307.5 L161.3906,307.5 L161.3906,295.1094 L169.1094,295.1094 L169.1094,297.2656 L163.8438,297.2656 L163.8438,299.9375 L168.6094,299.9375 L168.6094,302.0938 L163.8438,302.0938 L163.8438,305.3438 L169.1094,305.3438 L169.1094,307.5 Z "/><text fill="#000000" font-family="sans-serif" font-size="12" lengthAdjust="spacingAndGlyphs" textLength="77" x="179" y="305.6543">EpisodeRole</text><line style="stroke: #A80036; stroke-width: 1.5;" x1="151" x2="258" y1="317.5" y2="317.5"/><text fill="#000000" font-family="sans-serif" font-size="11" lengthAdjust="spacingAndGlyphs" textLength="43" x="156" y="331.7104">Regular</text><text fill="#000000" font-family="sans-serif" font-size="11" lengthAdjust="spacingAndGlyphs" textLength="36" x="156" y="344.5151">Bonus</text><text fill="#000000" font-family="sans-serif" font-size="11" lengthAdjust="spacingAndGlyphs" textLength="41" x="156" y="357.3198">Special</text><line style="stroke: #A80036; stroke-width: 1.5;" x1="151" x2="258" y1="363.9141" y2="363.9141"/><!--MD5=[1a95835255177050dd8028a7da1b3a6a]
class Contributor--><rect fill="#FEFECE" filter="url(#ftb6ll0htgpet)" height="48" id="Contributor" style="stroke: #A80036; stroke-width: 1.5;" width="103" x="563" y="670"/><ellipse cx="578" cy="686" fill="#ADD1B2" rx="11" ry="11" style="stroke: #A80036; stroke-width: 1.0;"/><path d="M580.9688,691.6406 Q580.3906,691.9375 579.75,692.0781 Q579.1094,692.2344 578.4063,692.2344 Q575.9063,692.2344 574.5781,690.5938 Q573.2656,688.9375 573.2656,685.8125 Q573.2656,682.6875 574.5781,681.0313 Q575.9063,679.375 578.4063,679.375 Q579.1094,679.375 579.75,679.5313 Q580.4063,679.6875 580.9688,679.9844 L580.9688,682.7031 Q580.3438,682.125 579.75,681.8594 Q579.1563,681.5781 578.5313,681.5781 Q577.1875,681.5781 576.5,682.6563 Q575.8125,683.7188 575.8125,685.8125 Q575.8125,687.9063 576.5,688.9844 Q577.1875,690.0469 578.5313,690.0469 Q579.1563,690.0469 579.75,689.7813 Q580.3438,689.5 580.9688,688.9219 L580.9688,691.6406 Z "/><text fill="#000000" font-family="sans-serif" font-size="12" lengthAdjust="spacingAndGlyphs" textLength="71" x="592" y="690.1543">Contributor</text><line style="stroke: #A80036; stroke-width: 1.5;" x1="564" x2="665" y1="702" y2="702"/><line style="stroke: #A80036; stroke-width: 1.5;" x1="564" x2="665" y1="710" y2="710"/><!--MD5=[66780e464ae187471ee6373dab337c1f]
reverse link MediaWork to MediaStructure--><path d="M515.26,435.92 C496.85,455.87 478.71,475.53 463.74,491.74 " fill="none" id="MediaWork&lt;-MediaStructure" style="stroke: #A80036; stroke-width: 1.0;"/><polygon fill="#A80036" points="524.31,426.12,517.3005,427.8131,516.1674,434.9346,523.1769,433.2415,524.31,426.12" style="stroke: #A80036; stroke-width: 1.0;"/><text fill="#000000" font-family="sans-serif" font-size="13" lengthAdjust="spacingAndGlyphs" textLength="8" x="509.4664" y="445.9193">1</text><text fill="#000000" font-family="sans-serif" font-size="13" lengthAdjust="spacingAndGlyphs" textLength="8" x="461.0798" y="480.9452">1</text><!--MD5=[9ad4f954b28ad54f2491927702a17c0b]
reverse link MediaWork to Contribution--><path d="M613.5,439.35 C613.5,455.8 613.5,471.92 613.5,485.95 " fill="none" id="MediaWork&lt;-Contribution" style="stroke: #A80036; stroke-width: 1.0;"/><polygon fill="#A80036" points="613.5,426.12,609.5,432.12,613.5,438.12,617.5,432.12,613.5,426.12" style="stroke: #A80036; stroke-width: 1.0;"/><text fill="#000000" font-family="sans-serif" font-size="13" lengthAdjust="spacingAndGlyphs" textLength="8" x="605.2063" y="445.9193">1</text><text fill="#000000" font-family="sans-serif" font-size="13" lengthAdjust="spacingAndGlyphs" textLength="23" x="588.7391" y="474.8003">1..*</text><!--MD5=[6bfd38223bfcf85fe0a1d8f856fb6bfe]
reverse link MediaWork to Content--><path d="M681.96,437.87 C689.62,453.57 696.47,469.88 701.5,486 C737.4,601 739.77,744.67 738.27,816.39 " fill="none" id="MediaWork&lt;-Content" style="stroke: #A80036; stroke-width: 1.0;"/><polygon fill="#A80036" points="675.95,426,675.0907,433.1597,681.3692,436.7066,682.2285,429.5469,675.95,426" style="stroke: #A80036; stroke-width: 1.0;"/><text fill="#000000" font-family="sans-serif" font-size="13" lengthAdjust="spacingAndGlyphs" textLength="8" x="672.2424" y="445.7905">1</text><text fill="#000000" font-family="sans-serif" font-size="13" lengthAdjust="spacingAndGlyphs" textLength="23" x="713.8409" y="805.5669">0..*</text><!--MD5=[6f2cdbc98b0558b784c7cac9865fcd06]
reverse link Content to PlayableContent--><path d="M723.56,928.54 C711.92,974.46 691.19,1035.51 656.5,1080 C638.09,1103.61 612.68,1123.8 588.06,1139.83 " fill="none" id="Content&lt;-PlayableContent" style="stroke: #A80036; stroke-width: 1.0;"/><polygon fill="none" points="716.78,926.77,728.21,908.93,730.4,930,716.78,926.77" style="stroke: #A80036; stroke-width: 1.0;"/><!--MD5=[66cb92c5741c367094de724f81452974]
reverse link PlayableContent to AudioTrack--><path d="M507.5,1239.51 C507.5,1254.92 507.5,1271.34 507.5,1285.62 " fill="none" id="PlayableContent&lt;-AudioTrack" style="stroke: #A80036; stroke-width: 1.0;"/><polygon fill="#A80036" points="507.5,1226.3,503.5,1232.3,507.5,1238.3,511.5,1232.3,507.5,1226.3" style="stroke: #A80036; stroke-width: 1.0;"/><text fill="#000000" font-family="sans-serif" font-size="13" lengthAdjust="spacingAndGlyphs" textLength="8" x="498.8625" y="1246.4407">1</text><text fill="#000000" font-family="sans-serif" font-size="13" lengthAdjust="spacingAndGlyphs" textLength="23" x="482.5953" y="1274.8053">0..*</text><!--MD5=[755a94a156c45b2770e2136e086b4693]
reverse link MediaStructure to MovieStructure--><path d="M377.62,588.41 C366.55,603.53 356.14,620.58 349.5,638 C304.07,757.11 306.53,911.13 311.01,984.3 " fill="none" id="MediaStructure&lt;-MovieStructure" style="stroke: #A80036; stroke-width: 1.0;"/><polygon fill="none" points="372.41,583.71,390.24,572.24,383.45,592.32,372.41,583.71" style="stroke: #A80036; stroke-width: 1.0;"/><!--MD5=[f9850155753dff298f6540f5486509cf]
link MovieStructure to PlayableContent--><path d="M367.49,1070.65 C393.23,1091.12 424.2,1115.75 450.45,1136.63 " fill="none" id="MovieStructure-&gt;PlayableContent" style="stroke: #A80036; stroke-width: 1.0; stroke-dasharray: 7.0,7.0;"/><polygon fill="#A80036" points="454.62,1139.95,450.0676,1131.2164,450.7073,1136.837,445.0867,1137.4767,454.62,1139.95" style="stroke: #A80036; stroke-width: 1.0;"/><!--MD5=[95e6b51c1441291895ec20d875b5c906]
reverse link MediaStructure to TVStructure--><path d="M434.88,592.07 C436.76,607.08 438.77,623.15 440.62,637.95 " fill="none" id="MediaStructure&lt;-TVStructure" style="stroke: #A80036; stroke-width: 1.0;"/><polygon fill="none" points="427.93,592.85,432.39,572.14,441.82,591.12,427.93,592.85" style="stroke: #A80036; stroke-width: 1.0;"/><!--MD5=[cd8c40cef97c0c5dd6f5a58eb2e3e2bc]
link TVStructure to PlayableContent--><path d="M449.92,750.16 C453.79,825.21 463.04,963.49 482.5,1080 C485.49,1097.93 489.95,1117.36 494.27,1134.41 " fill="none" id="TVStructure-&gt;PlayableContent" style="stroke: #A80036; stroke-width: 1.0; stroke-dasharray: 7.0,7.0;"/><polygon fill="#A80036" points="495.6,1139.62,497.2372,1129.9082,494.3571,1134.7769,489.4883,1131.8968,495.6,1139.62" style="stroke: #A80036; stroke-width: 1.0;"/><!--MD5=[715f6fc953806b9e755f3a7cd209b8c2]
reverse link TVStructure to Season--><path d="M495.39,761.45 C507.03,777.59 519.3,794.62 530.35,809.96 " fill="none" id="TVStructure&lt;-Season" style="stroke: #A80036; stroke-width: 1.0;"/><polygon fill="#A80036" points="487.46,750.44,487.7238,757.6463,494.4772,760.1744,494.2134,752.9681,487.46,750.44" style="stroke: #A80036; stroke-width: 1.0;"/><text fill="#000000" font-family="sans-serif" font-size="13" lengthAdjust="spacingAndGlyphs" textLength="8" x="483.6179" y="769.9063">1</text><text fill="#000000" font-family="sans-serif" font-size="13" lengthAdjust="spacingAndGlyphs" textLength="23" x="500.8127" y="798.9574">1..*</text><!--MD5=[ff064e4e2613780c041fbf5360d2bb00]
reverse link Season to Episode--><path d="M568.3,928.4 C568.49,943.88 568.69,960.2 568.87,974.98 " fill="none" id="Season&lt;-Episode" style="stroke: #A80036; stroke-width: 1.0;"/><polygon fill="#A80036" points="568.13,915.07,564.2028,921.1179,568.275,927.0691,572.2022,921.0212,568.13,915.07" style="stroke: #A80036; stroke-width: 1.0;"/><text fill="#000000" font-family="sans-serif" font-size="13" lengthAdjust="spacingAndGlyphs" textLength="8" x="559.6772" y="935.2072">1</text><text fill="#000000" font-family="sans-serif" font-size="13" lengthAdjust="spacingAndGlyphs" textLength="23" x="544.24" y="963.9801">1..*</text><!--MD5=[9b1e0c9b1b7df58fa8be67b96718dd0f]
link Episode to PlayableContent--><path d="M548.68,1080.04 C541.54,1097.71 533.59,1117.39 526.6,1134.71 " fill="none" id="Episode-&gt;PlayableContent" style="stroke: #A80036; stroke-width: 1.0; stroke-dasharray: 7.0,7.0;"/><polygon fill="#A80036" points="524.65,1139.53,531.7246,1132.678,526.5192,1134.8926,524.3047,1129.6872,524.65,1139.53" style="stroke: #A80036; stroke-width: 1.0;"/><!--MD5=[96eca555c283861625927cf39bbe0ece]
link Contribution to Contributor--><path d="M613.78,578.42 C613.96,606.08 614.17,640.56 614.32,664.44 " fill="none" id="Contribution-&gt;Contributor" style="stroke: #A80036; stroke-width: 1.0; stroke-dasharray: 7.0,7.0;"/><polygon fill="#A80036" points="614.35,669.67,618.2727,660.636,614.3071,664.6702,610.273,660.7046,614.35,669.67" style="stroke: #A80036; stroke-width: 1.0;"/><!--MD5=[5d16b4e1c091feb99c1616c4a998592f]
link MediaWorkType to ContributorRole--><!--MD5=[31d224b1485796796e2c2d5560997cb2]
link ContributorRole to CutType--><!--MD5=[a8939840f3e354cab637560f69015c97]
link MediaWorkType to TVStatus--><!--MD5=[3ec277588cdc5ed9689a79e2f250b553]
link TVStatus to EpisodeRole--><!--MD5=[f06c307b49bf8f24762ba5a2c21bb430]
@startuml
skinparam classAttributeIconSize 0

class MediaWork <<AggregateRoot>> {
    +Id: UUID
    +Title: string
    +Description?: string
    +OriginalReleaseDate: LocalDate
    -_structure: MediaStructure
    -_contributions: List<Contribution>
    -_content: List<Content>
    - -
    +AddContribution(id, role): void
    +RemoveContribution(id): void
    +AddContent(content): void
    +RemoveContent(id): void
}

note top of MediaWork
Invariant:
- Must have exactly one MediaStructure
- Structure defines the MediaWork type
- Must have at least one creator contribution
- Cannot remove last creator
- All Features / Episodes must reference a
  Content that is a PlayableContent inside
  MediaWork._contents
end note

abstract class MediaStructure <<Entity>> {
    - -
    +Type(): MediaWorkType
    +IsCreatorRole(role): bool
}

MediaWork "1" *- - "1" MediaStructure

enum MediaWorkType {
    Movie
    TV
}

class Contribution <<Entity>> {
    +Id: UUID
    +ContributorId: UUID
    +Role: ContributorRole
}

class ContributorRole <<ValueObject>> {
    +Name: string
}

MediaWork "1" *- - "1..*" Contribution

class Content <<Entity>> {
    +Id: UUID
    +Title?: string
    +Description?: string
}

MediaWork "1" *- - "0..*" Content

class PlayableContent {
    +RuntimeMinutes: int
    +CutType?: CutType
    +SubtitleTracks: List<string>
}

enum CutType {
    DirectorCut
    Extended
    FinalCut
    HomeRelease
    International
    Original
    Other
    Theatrical
    Uncut
}

Content <|- - PlayableContent

class AudioTrack <<ValueObject>> {
    +Language: string
    +Format: string
}

PlayableContent "1" *- - "0..*" AudioTrack

class MovieStructure {
    -_features: List<UUID>
    - -
    +AddFeature(id): void
    +RemoveFeature(id): void
}

MediaStructure <|- - MovieStructure
MovieStructure ..> PlayableContent

class TVStructure {
    +Status: TVStatus
    +EndedOn?: LocalDate
    -_episodes: List<UUID>
    - -
    +AddEpisode(id): void
    +RemoveEpisode(id): void
}

MediaStructure <|- - TVStructure
TVStructure ..> PlayableContent

enum TVStatus {
    Ongoing
    Ended
    Cancelled
    Unknown
}

class Season <<Entity>> {
    +Id: UUID
    +SeasonNumber: int
    +Title: string?
    +Description: string?
}

TVStructure "1" *- - "1..*" Season

class Episode <<Entity>> {
    +contentId: UUID
    +EpisodeNumber?: int
    +AirDate: LocalDate
    +Role?: EpisodeRole;
}

Season "1" *- - "1..*" Episode
Episode ..> PlayableContent

enum EpisodeRole {
    Regular
    Bonus
    Special
}

Contribution ..> Contributor

@enduml

PlantUML version 1.2020.02(Sun Mar 01 10:22:07 UTC 2020)
(GPL source distribution)
Java Runtime: OpenJDK Runtime Environment
JVM: OpenJDK 64-Bit Server VM
Java Version: 17.0.18+8
Operating System: Linux
Default Encoding: UTF-8
Language: en
Country: null
--></g></svg>