<?xml version="1.0" encoding="UTF-8" standalone="no"?><svg xmlns="http://www.w3.org/2000/svg" xmlns:xlink="http://www.w3.org/1999/xlink" contentScriptType="application/ecmascript" contentStyleType="text/css" height="731px" preserveAspectRatio="none" style="width:1240px;height:731px;" version="1.1" viewBox="0 0 1240 731" width="1240px" zoomAndPan="magnify"><defs><filter height="300%" id="f14dre1qn2neoh" width="300%" x="-1" y="-1"><feGaussianBlur result="blurOut" stdDeviation="2.0"/><feColorMatrix in="blurOut" result="blurOut2" type="matrix" values="0 0 0 0 0 0 0 0 0 0 0 0 0 0 0 0 0 0 .4 0"/><feOffset dx="4.0" dy="4.0" in="blurOut2" result="blurOut3"/><feBlend in="SourceGraphic" in2="blurOut3" mode="normal"/></filter></defs><g><!--MD5=[45bc2ed3d1efce51d6e5e8f0ca873e96]
class CollectionGroup--><rect fill="#FEFECE" filter="url(#f14dre1qn2neoh)" height="79.5469" id="CollectionGroup" style="stroke: #A80036; stroke-width: 1.5;" width="137" x="400.5" y="265"/><ellipse cx="415.5" cy="283.9688" fill="#ADD1B2" rx="11" ry="11" style="stroke: #A80036; stroke-width: 1.0;"/><path d="M418.4688,289.6094 Q417.8906,289.9063 417.25,290.0469 Q416.6094,290.2031 415.9063,290.2031 Q413.4063,290.2031 412.0781,288.5625 Q410.7656,286.9063 410.7656,283.7813 Q410.7656,280.6563 412.0781,279 Q413.4063,277.3438 415.9063,277.3438 Q416.6094,277.3438 417.25,277.5 Q417.9063,277.6563 418.4688,277.9531 L418.4688,280.6719 Q417.8438,280.0938 417.25,279.8281 Q416.6563,279.5469 416.0313,279.5469 Q414.6875,279.5469 414,280.625 Q413.3125,281.6875 413.3125,283.7813 Q413.3125,285.875 414,286.9531 Q414.6875,288.0156 416.0313,288.0156 Q416.6563,288.0156 417.25,287.75 Q417.8438,287.4688 418.4688,286.8906 L418.4688,289.6094 Z "/><text fill="#000000" font-family="sans-serif" font-size="12" font-style="italic" lengthAdjust="spacingAndGlyphs" textLength="109" x="427.5" y="281.1387">«AggregateRoot»</text><text fill="#000000" font-family="sans-serif" font-size="12" lengthAdjust="spacingAndGlyphs" textLength="99" x="432.5" y="295.1074">CollectionGroup</text><line style="stroke: #A80036; stroke-width: 1.5;" x1="401.5" x2="536.5" y1="302.9375" y2="302.9375"/><text fill="#000000" font-family="sans-serif" font-size="11" lengthAdjust="spacingAndGlyphs" textLength="54" x="406.5" y="317.1479">+Id: UUID</text><text fill="#000000" font-family="sans-serif" font-size="11" lengthAdjust="spacingAndGlyphs" textLength="74" x="406.5" y="329.9526">+Title: string</text><line style="stroke: #A80036; stroke-width: 1.5;" x1="401.5" x2="536.5" y1="336.5469" y2="336.5469"/><!--MD5=[1544e71f2cb389b780e9180c5c78ad2d]
class CollectionGroupMembership--><rect fill="#FEFECE" filter="url(#f14dre1qn2neoh)" height="92.3516" id="CollectionGroupMembership" style="stroke: #A80036; stroke-width: 1.5;" width="207" x="365.5" y="469"/><ellipse cx="380.5" cy="487.9688" fill="#ADD1B2" rx="11" ry="11" style="stroke: #A80036; stroke-width: 1.0;"/><path d="M383.4688,493.6094 Q382.8906,493.9063 382.25,494.0469 Q381.6094,494.2031 380.9063,494.2031 Q378.4063,494.2031 377.0781,492.5625 Q375.7656,490.9063 375.7656,487.7813 Q375.7656,484.6563 377.0781,483 Q378.4063,481.3438 380.9063,481.3438 Q381.6094,481.3438 382.25,481.5 Q382.9063,481.6563 383.4688,481.9531 L383.4688,484.6719 Q382.8438,484.0938 382.25,483.8281 Q381.6563,483.5469 381.0313,483.5469 Q379.6875,483.5469 379,484.625 Q378.3125,485.6875 378.3125,487.7813 Q378.3125,489.875 379,490.9531 Q379.6875,492.0156 381.0313,492.0156 Q381.6563,492.0156 382.25,491.75 Q382.8438,491.4688 383.4688,490.8906 L383.4688,493.6094 Z "/><text fill="#000000" font-family="sans-serif" font-size="12" font-style="italic" lengthAdjust="spacingAndGlyphs" textLength="50" x="457" y="485.1387">«Entity»</text><text fill="#000000" font-family="sans-serif" font-size="12" lengthAdjust="spacingAndGlyphs" textLength="175" x="394.5" y="499.1074">CollectionGroupMembership</text><line style="stroke: #A80036; stroke-width: 1.5;" x1="366.5" x2="571.5" y1="506.9375" y2="506.9375"/><text fill="#000000" font-family="sans-serif" font-size="11" lengthAdjust="spacingAndGlyphs" textLength="54" x="371.5" y="521.1479">+Id: UUID</text><text fill="#000000" font-family="sans-serif" font-size="11" lengthAdjust="spacingAndGlyphs" textLength="114" x="371.5" y="533.9526">+MediaWorkId: UUID</text><text fill="#000000" font-family="sans-serif" font-size="11" lengthAdjust="spacingAndGlyphs" textLength="85" x="371.5" y="546.7573">+SortIndex: int</text><line style="stroke: #A80036; stroke-width: 1.5;" x1="366.5" x2="571.5" y1="553.3516" y2="553.3516"/><path d="M328.5,634 L328.5,719.6641 A0,0 0 0 0 328.5,719.6641 L593.5,719.6641 A0,0 0 0 0 593.5,719.6641 L593.5,644 L583.5,634 L467.11,634 L466.73,561.42 L459.11,634 L328.5,634 A0,0 0 0 0 328.5,634 " fill="#FBFB77" filter="url(#f14dre1qn2neoh)" style="stroke: #A80036; stroke-width: 1.0;"/><path d="M583.5,634 L583.5,644 L593.5,644 L583.5,634 " fill="#FBFB77" style="stroke: #A80036; stroke-width: 1.0;"/><text fill="#000000" font-family="sans-serif" font-size="13" lengthAdjust="spacingAndGlyphs" textLength="59" x="334.5" y="651.0669">Invariant:</text><text fill="#000000" font-family="sans-serif" font-size="13" lengthAdjust="spacingAndGlyphs" textLength="244" x="334.5" y="666.1997">- MediaWork can appear only once per</text><text fill="#000000" font-family="sans-serif" font-size="13" lengthAdjust="spacingAndGlyphs" textLength="101" x="342.5" y="681.3325">CollectionGroup</text><text fill="#000000" font-family="sans-serif" font-size="13" lengthAdjust="spacingAndGlyphs" textLength="226" x="334.5" y="696.4653">- SortIndex must be unique within a</text><text fill="#000000" font-family="sans-serif" font-size="13" lengthAdjust="spacingAndGlyphs" textLength="101" x="342.5" y="711.5981">CollectionGroup</text><!--MD5=[1a95835255177050dd8028a7da1b3a6a]
class Contributor--><rect fill="#FEFECE" filter="url(#f14dre1qn2neoh)" height="79.5469" id="Contributor" style="stroke: #A80036; stroke-width: 1.5;" width="137" x="628.5" y="637"/><ellipse cx="643.5" cy="655.9688" fill="#ADD1B2" rx="11" ry="11" style="stroke: #A80036; stroke-width: 1.0;"/><path d="M646.4688,661.6094 Q645.8906,661.9063 645.25,662.0469 Q644.6094,662.2031 643.9063,662.2031 Q641.4063,662.2031 640.0781,660.5625 Q638.7656,658.9063 638.7656,655.7813 Q638.7656,652.6563 640.0781,651 Q641.4063,649.3438 643.9063,649.3438 Q644.6094,649.3438 645.25,649.5 Q645.9063,649.6563 646.4688,649.9531 L646.4688,652.6719 Q645.8438,652.0938 645.25,651.8281 Q644.6563,651.5469 644.0313,651.5469 Q642.6875,651.5469 642,652.625 Q641.3125,653.6875 641.3125,655.7813 Q641.3125,657.875 642,658.9531 Q642.6875,660.0156 644.0313,660.0156 Q644.6563,660.0156 645.25,659.75 Q645.8438,659.4688 646.4688,658.8906 L646.4688,661.6094 Z "/><text fill="#000000" font-family="sans-serif" font-size="12" font-style="italic" lengthAdjust="spacingAndGlyphs" textLength="109" x="655.5" y="653.1387">«AggregateRoot»</text><text fill="#000000" font-family="sans-serif" font-size="12" lengthAdjust="spacingAndGlyphs" textLength="71" x="674.5" y="667.1074">Contributor</text><line style="stroke: #A80036; stroke-width: 1.5;" x1="629.5" x2="764.5" y1="674.9375" y2="674.9375"/><text fill="#000000" font-family="sans-serif" font-size="11" lengthAdjust="spacingAndGlyphs" textLength="54" x="634.5" y="689.1479">+Id: UUID</text><text fill="#000000" font-family="sans-serif" font-size="11" lengthAdjust="spacingAndGlyphs" textLength="83" x="634.5" y="701.9526">+Name: string</text><line style="stroke: #A80036; stroke-width: 1.5;" x1="629.5" x2="764.5" y1="708.5469" y2="708.5469"/><!--MD5=[148a3002404242a1fb9bf2331f66864f]
class MediaCopy--><rect fill="#FEFECE" filter="url(#f14dre1qn2neoh)" height="130.7656" id="MediaCopy" style="stroke: #A80036; stroke-width: 1.5;" width="151" x="844.5" y="239.5"/><ellipse cx="865.8" cy="258.4688" fill="#ADD1B2" rx="11" ry="11" style="stroke: #A80036; stroke-width: 1.0;"/><path d="M868.7688,264.1094 Q868.1906,264.4063 867.55,264.5469 Q866.9094,264.7031 866.2063,264.7031 Q863.7063,264.7031 862.3781,263.0625 Q861.0656,261.4063 861.0656,258.2813 Q861.0656,255.1563 862.3781,253.5 Q863.7063,251.8438 866.2063,251.8438 Q866.9094,251.8438 867.55,252 Q868.2063,252.1563 868.7688,252.4531 L868.7688,255.1719 Q868.1438,254.5938 867.55,254.3281 Q866.9563,254.0469 866.3313,254.0469 Q864.9875,254.0469 864.3,255.125 Q863.6125,256.1875 863.6125,258.2813 Q863.6125,260.375 864.3,261.4531 Q864.9875,262.5156 866.3313,262.5156 Q866.9563,262.5156 867.55,262.25 Q868.1438,261.9688 868.7688,261.3906 L868.7688,264.1094 Z "/><text fill="#000000" font-family="sans-serif" font-size="12" font-style="italic" lengthAdjust="spacingAndGlyphs" textLength="109" x="879.2" y="255.6387">«AggregateRoot»</text><text fill="#000000" font-family="sans-serif" font-size="12" lengthAdjust="spacingAndGlyphs" textLength="67" x="900.2" y="269.6074">MediaCopy</text><line style="stroke: #A80036; stroke-width: 1.5;" x1="845.5" x2="994.5" y1="277.4375" y2="277.4375"/><text fill="#000000" font-family="sans-serif" font-size="11" lengthAdjust="spacingAndGlyphs" textLength="54" x="850.5" y="291.6479">+Id: UUID</text><text fill="#000000" font-family="sans-serif" font-size="11" lengthAdjust="spacingAndGlyphs" textLength="92" x="850.5" y="304.4526">+EditionId: UUID</text><text fill="#000000" font-family="sans-serif" font-size="11" lengthAdjust="spacingAndGlyphs" textLength="111" x="850.5" y="317.2573">+Location: Location</text><text fill="#000000" font-family="sans-serif" font-size="11" lengthAdjust="spacingAndGlyphs" textLength="114" x="850.5" y="330.062">+Notes: List&lt;Note&gt;</text><text fill="#000000" font-family="sans-serif" font-size="11" lengthAdjust="spacingAndGlyphs" textLength="139" x="850.5" y="342.8667">+DateAdded?: LocalDate</text><text fill="#000000" font-family="sans-serif" font-size="11" lengthAdjust="spacingAndGlyphs" textLength="127" x="850.5" y="355.6714">+CreatedAt: DateTime</text><line style="stroke: #A80036; stroke-width: 1.5;" x1="845.5" x2="994.5" y1="362.2656" y2="362.2656"/><!--MD5=[4f1f3706c1a355a8488e154afcaed5df]
class Location--><rect fill="#FEFECE" filter="url(#f14dre1qn2neoh)" height="66.7422" id="Location" style="stroke: #A80036; stroke-width: 1.5;" width="116" x="13" y="47.5"/><ellipse cx="28" cy="66.4688" fill="#ADD1B2" rx="11" ry="11" style="stroke: #A80036; stroke-width: 1.0;"/><path d="M30.9688,72.1094 Q30.3906,72.4063 29.75,72.5469 Q29.1094,72.7031 28.4063,72.7031 Q25.9063,72.7031 24.5781,71.0625 Q23.2656,69.4063 23.2656,66.2813 Q23.2656,63.1563 24.5781,61.5 Q25.9063,59.8438 28.4063,59.8438 Q29.1094,59.8438 29.75,60 Q30.4063,60.1563 30.9688,60.4531 L30.9688,63.1719 Q30.3438,62.5938 29.75,62.3281 Q29.1563,62.0469 28.5313,62.0469 Q27.1875,62.0469 26.5,63.125 Q25.8125,64.1875 25.8125,66.2813 Q25.8125,68.375 26.5,69.4531 Q27.1875,70.5156 28.5313,70.5156 Q29.1563,70.5156 29.75,70.25 Q30.3438,69.9688 30.9688,69.3906 L30.9688,72.1094 Z "/><text fill="#000000" font-family="sans-serif" font-size="12" font-style="italic" lengthAdjust="spacingAndGlyphs" textLength="88" x="40" y="63.6387">«ValueObject»</text><text fill="#000000" font-family="sans-serif" font-size="12" lengthAdjust="spacingAndGlyphs" textLength="53" x="57.5" y="77.6074">Location</text><line style="stroke: #A80036; stroke-width: 1.5;" x1="14" x2="128" y1="85.4375" y2="85.4375"/><text fill="#000000" font-family="sans-serif" font-size="11" lengthAdjust="spacingAndGlyphs" textLength="83" x="19" y="99.6479">+Name: string</text><line style="stroke: #A80036; stroke-width: 1.5;" x1="14" x2="128" y1="106.2422" y2="106.2422"/><!--MD5=[5d3c9bb25b1b07c105e03cfa5bc0b7ee]
class Note--><rect fill="#FEFECE" filter="url(#f14dre1qn2neoh)" height="79.5469" id="Note" style="stroke: #A80036; stroke-width: 1.5;" width="139" x="164.5" y="41"/><ellipse cx="189.85" cy="59.9688" fill="#ADD1B2" rx="11" ry="11" style="stroke: #A80036; stroke-width: 1.0;"/><path d="M192.8188,65.6094 Q192.2406,65.9063 191.6,66.0469 Q190.9594,66.2031 190.2563,66.2031 Q187.7563,66.2031 186.4281,64.5625 Q185.1156,62.9063 185.1156,59.7813 Q185.1156,56.6563 186.4281,55 Q187.7563,53.3438 190.2563,53.3438 Q190.9594,53.3438 191.6,53.5 Q192.2563,53.6563 192.8188,53.9531 L192.8188,56.6719 Q192.1938,56.0938 191.6,55.8281 Q191.0063,55.5469 190.3813,55.5469 Q189.0375,55.5469 188.35,56.625 Q187.6625,57.6875 187.6625,59.7813 Q187.6625,61.875 188.35,62.9531 Q189.0375,64.0156 190.3813,64.0156 Q191.0063,64.0156 191.6,63.75 Q192.1938,63.4688 192.8188,62.8906 L192.8188,65.6094 Z "/><text fill="#000000" font-family="sans-serif" font-size="12" font-style="italic" lengthAdjust="spacingAndGlyphs" textLength="88" x="204.15" y="57.1387">«ValueObject»</text><text fill="#000000" font-family="sans-serif" font-size="12" lengthAdjust="spacingAndGlyphs" textLength="30" x="233.15" y="71.1074">Note</text><line style="stroke: #A80036; stroke-width: 1.5;" x1="165.5" x2="302.5" y1="78.9375" y2="78.9375"/><text fill="#000000" font-family="sans-serif" font-size="11" lengthAdjust="spacingAndGlyphs" textLength="74" x="170.5" y="93.1479">+Text: string</text><text fill="#000000" font-family="sans-serif" font-size="11" lengthAdjust="spacingAndGlyphs" textLength="127" x="170.5" y="105.9526">+CreatedAt: DateTime</text><line style="stroke: #A80036; stroke-width: 1.5;" x1="165.5" x2="302.5" y1="112.5469" y2="112.5469"/><!--MD5=[c3dd83c4944f050787f4b644933234ea]
class MediaWork--><rect fill="#FEFECE" filter="url(#f14dre1qn2neoh)" height="181.9844" id="MediaWork" style="stroke: #A80036; stroke-width: 1.5;" width="233" x="576.5" y="214"/><ellipse cx="636.25" cy="232.9688" fill="#A9DCDF" rx="11" ry="11" style="stroke: #A80036; stroke-width: 1.0;"/><path d="M636.3594,228.3125 L635.2031,233.3906 L637.5313,233.3906 L636.3594,228.3125 Z M634.875,226.0781 L637.8594,226.0781 L641.2188,238.4688 L638.7656,238.4688 L638,235.4063 L634.7188,235.4063 L633.9688,238.4688 L631.5313,238.4688 L634.875,226.0781 Z "/><text fill="#000000" font-family="sans-serif" font-size="12" font-style="italic" lengthAdjust="spacingAndGlyphs" textLength="109" x="654.75" y="230.1387">«AggregateRoot»</text><text fill="#000000" font-family="sans-serif" font-size="12" font-style="italic" lengthAdjust="spacingAndGlyphs" textLength="69" x="674.75" y="244.1074">MediaWork</text><line style="stroke: #A80036; stroke-width: 1.5;" x1="577.5" x2="808.5" y1="251.9375" y2="251.9375"/><text fill="#000000" font-family="sans-serif" font-size="11" lengthAdjust="spacingAndGlyphs" textLength="54" x="582.5" y="266.1479">+Id: UUID</text><text fill="#000000" font-family="sans-serif" font-size="11" lengthAdjust="spacingAndGlyphs" textLength="74" x="582.5" y="278.9526">+Title: string</text><text fill="#000000" font-family="sans-serif" font-size="11" lengthAdjust="spacingAndGlyphs" textLength="187" x="582.5" y="291.7573">+OriginalReleaseDate: LocalDate</text><text fill="#000000" font-family="sans-serif" font-size="11" lengthAdjust="spacingAndGlyphs" textLength="199" x="582.5" y="304.562">-_contributions: List&lt;Contribution&gt;</text><text fill="#000000" font-family="sans-serif" font-size="11" lengthAdjust="spacingAndGlyphs" textLength="221" x="582.5" y="317.3667">#_creatorRoles: List&lt;ContributorRole&gt;</text><line style="stroke: #A80036; stroke-width: 1.0;" x1="577.5" x2="808.5" y1="323.9609" y2="323.9609"/><text fill="#000000" font-family="sans-serif" font-size="11" lengthAdjust="spacingAndGlyphs" textLength="178" x="582.5" y="338.1714">+AddContribution(id, role): void</text><text fill="#000000" font-family="sans-serif" font-size="11" lengthAdjust="spacingAndGlyphs" textLength="172" x="582.5" y="350.9761">+RemoveContribution(id): void</text><text fill="#000000" font-family="sans-serif" font-size="11" lengthAdjust="spacingAndGlyphs" textLength="117" x="582.5" y="363.7808">+AddEdition(id): void</text><text fill="#000000" font-family="sans-serif" font-size="11" lengthAdjust="spacingAndGlyphs" textLength="141" x="582.5" y="376.5854">+RemoveEdition(id): void</text><text fill="#000000" font-family="sans-serif" font-size="11" lengthAdjust="spacingAndGlyphs" textLength="148" x="582.5" y="389.3901">+IsCreatorRole(role): bool</text><path d="M401,8 L401,154.1953 A0,0 0 0 0 401,154.1953 L591.75,154.1953 L634.38,213.62 L599.75,154.1953 L697,154.1953 A0,0 0 0 0 697,154.1953 L697,18 L687,8 L401,8 A0,0 0 0 0 401,8 " fill="#FBFB77" filter="url(#f14dre1qn2neoh)" style="stroke: #A80036; stroke-width: 1.0;"/><path d="M687,8 L687,18 L697,18 L687,8 " fill="#FBFB77" style="stroke: #A80036; stroke-width: 1.0;"/><text fill="#000000" font-family="sans-serif" font-size="13" lengthAdjust="spacingAndGlyphs" textLength="59" x="407" y="25.0669">Invariant:</text><text fill="#000000" font-family="sans-serif" font-size="13" lengthAdjust="spacingAndGlyphs" textLength="237" x="407" y="40.1997">- Must have at least one Contribution</text><text fill="#000000" font-family="sans-serif" font-size="13" lengthAdjust="spacingAndGlyphs" textLength="267" x="415" y="55.3325">where concrete MediaWork considers Role</text><text fill="#000000" font-family="sans-serif" font-size="13" lengthAdjust="spacingAndGlyphs" textLength="234" x="415" y="70.4653">a creator (member of _creatorRoles)</text><text fill="#000000" font-family="sans-serif" font-size="13" lengthAdjust="spacingAndGlyphs" textLength="185" x="407" y="85.5981">- Cannot remove last creator</text><text fill="#000000" font-family="sans-serif" font-size="13" lengthAdjust="spacingAndGlyphs" textLength="240" x="407" y="100.731">- Cannot remove Edition if MediaCopy</text><text fill="#000000" font-family="sans-serif" font-size="13" lengthAdjust="spacingAndGlyphs" textLength="239" x="415" y="115.8638">exists referencing it (cross-aggregate</text><text fill="#000000" font-family="sans-serif" font-size="13" lengthAdjust="spacingAndGlyphs" textLength="208" x="415" y="130.9966">constraint, enforce in application</text><text fill="#000000" font-family="sans-serif" font-size="13" lengthAdjust="spacingAndGlyphs" textLength="36" x="415" y="146.1294">layer)</text><!--MD5=[0330879a1a385efee19ba3488ed490fa]
class Contribution--><rect fill="#FEFECE" filter="url(#f14dre1qn2neoh)" height="92.3516" id="Contribution" style="stroke: #A80036; stroke-width: 1.5;" width="141" x="624.5" y="469"/><ellipse cx="653.9" cy="487.9688" fill="#ADD1B2" rx="11" ry="11" style="stroke: #A80036; stroke-width: 1.0;"/><path d="M656.8688,493.6094 Q656.2906,493.9063 655.65,494.0469 Q655.0094,494.2031 654.3063,494.2031 Q651.8063,494.2031 650.4781,492.5625 Q649.1656,490.9063 649.1656,487.7813 Q649.1656,484.6563 650.4781,483 Q651.8063,481.3438 654.3063,481.3438 Q655.0094,481.3438 655.65,481.5 Q656.3063,481.6563 656.8688,481.9531 L656.8688,484.6719 Q656.2438,484.0938 655.65,483.8281 Q655.0563,483.5469 654.4313,483.5469 Q653.0875,483.5469 652.4,484.625 Q651.7125,485.6875 651.7125,487.7813 Q651.7125,489.875 652.4,490.9531 Q653.0875,492.0156 654.4313,492.0156 Q655.0563,492.0156 655.65,491.75 Q656.2438,491.4688 656.8688,490.8906 L656.8688,493.6094 Z "/><text fill="#000000" font-family="sans-serif" font-size="12" font-style="italic" lengthAdjust="spacingAndGlyphs" textLength="50" x="684.6" y="485.1387">«Entity»</text><text fill="#000000" font-family="sans-serif" font-size="12" lengthAdjust="spacingAndGlyphs" textLength="77" x="671.1" y="499.1074">Contribution</text><line style="stroke: #A80036; stroke-width: 1.5;" x1="625.5" x2="764.5" y1="506.9375" y2="506.9375"/><text fill="#000000" font-family="sans-serif" font-size="11" lengthAdjust="spacingAndGlyphs" textLength="54" x="630.5" y="521.1479">+Id: UUID</text><text fill="#000000" font-family="sans-serif" font-size="11" lengthAdjust="spacingAndGlyphs" textLength="118" x="630.5" y="533.9526">+ContributorId: UUID</text><text fill="#000000" font-family="sans-serif" font-size="11" lengthAdjust="spacingAndGlyphs" textLength="129" x="630.5" y="546.7573">+Role: ContributorRole</text><line style="stroke: #A80036; stroke-width: 1.5;" x1="625.5" x2="764.5" y1="553.3516" y2="553.3516"/><!--MD5=[dd2cb4d4918b743616ebdb19b9302e86]
class ContributorRole--><rect fill="#FEFECE" filter="url(#f14dre1qn2neoh)" height="66.7422" id="ContributorRole" style="stroke: #A80036; stroke-width: 1.5;" width="130" x="6" y="271.5"/><ellipse cx="21" cy="290.4688" fill="#ADD1B2" rx="11" ry="11" style="stroke: #A80036; stroke-width: 1.0;"/><path d="M23.9688,296.1094 Q23.3906,296.4063 22.75,296.5469 Q22.1094,296.7031 21.4063,296.7031 Q18.9063,296.7031 17.5781,295.0625 Q16.2656,293.4063 16.2656,290.2813 Q16.2656,287.1563 17.5781,285.5 Q18.9063,283.8438 21.4063,283.8438 Q22.1094,283.8438 22.75,284 Q23.4063,284.1563 23.9688,284.4531 L23.9688,287.1719 Q23.3438,286.5938 22.75,286.3281 Q22.1563,286.0469 21.5313,286.0469 Q20.1875,286.0469 19.5,287.125 Q18.8125,288.1875 18.8125,290.2813 Q18.8125,292.375 19.5,293.4531 Q20.1875,294.5156 21.5313,294.5156 Q22.1563,294.5156 22.75,294.25 Q23.3438,293.9688 23.9688,293.3906 L23.9688,296.1094 Z "/><text fill="#000000" font-family="sans-serif" font-size="12" font-style="italic" lengthAdjust="spacingAndGlyphs" textLength="88" x="40" y="287.6387">«ValueObject»</text><text fill="#000000" font-family="sans-serif" font-size="12" lengthAdjust="spacingAndGlyphs" textLength="98" x="35" y="301.6074">ContributorRole</text><line style="stroke: #A80036; stroke-width: 1.5;" x1="7" x2="135" y1="309.4375" y2="309.4375"/><text fill="#000000" font-family="sans-serif" font-size="11" lengthAdjust="spacingAndGlyphs" textLength="83" x="12" y="323.6479">+Name: string</text><line style="stroke: #A80036; stroke-width: 1.5;" x1="7" x2="135" y1="330.2422" y2="330.2422"/><!--MD5=[e69084ab16b022bdbef99762ea85e9d6]
class Movie--><rect fill="#FEFECE" filter="url(#f14dre1qn2neoh)" height="48" id="Movie" style="stroke: #A80036; stroke-width: 1.5;" width="67" x="732.5" y="57"/><ellipse cx="747.5" cy="73" fill="#ADD1B2" rx="11" ry="11" style="stroke: #A80036; stroke-width: 1.0;"/><path d="M750.4688,78.6406 Q749.8906,78.9375 749.25,79.0781 Q748.6094,79.2344 747.9063,79.2344 Q745.4063,79.2344 744.0781,77.5938 Q742.7656,75.9375 742.7656,72.8125 Q742.7656,69.6875 744.0781,68.0313 Q745.4063,66.375 747.9063,66.375 Q748.6094,66.375 749.25,66.5313 Q749.9063,66.6875 750.4688,66.9844 L750.4688,69.7031 Q749.8438,69.125 749.25,68.8594 Q748.6563,68.5781 748.0313,68.5781 Q746.6875,68.5781 746,69.6563 Q745.3125,70.7188 745.3125,72.8125 Q745.3125,74.9063 746,75.9844 Q746.6875,77.0469 748.0313,77.0469 Q748.6563,77.0469 749.25,76.7813 Q749.8438,76.5 750.4688,75.9219 L750.4688,78.6406 Z "/><text fill="#000000" font-family="sans-serif" font-size="12" lengthAdjust="spacingAndGlyphs" textLength="35" x="761.5" y="77.1543">Movie</text><line style="stroke: #A80036; stroke-width: 1.5;" x1="733.5" x2="798.5" y1="89" y2="89"/><line style="stroke: #A80036; stroke-width: 1.5;" x1="733.5" x2="798.5" y1="97" y2="97"/><!--MD5=[9022e2192881f166c529fc3ae75dec7b]
class TV--><rect fill="#FEFECE" filter="url(#f14dre1qn2neoh)" height="60.8047" id="TV" style="stroke: #A80036; stroke-width: 1.5;" width="137" x="907.5" y="50.5"/><ellipse cx="964.25" cy="66.5" fill="#ADD1B2" rx="11" ry="11" style="stroke: #A80036; stroke-width: 1.0;"/><path d="M967.2188,72.1406 Q966.6406,72.4375 966,72.5781 Q965.3594,72.7344 964.6563,72.7344 Q962.1563,72.7344 960.8281,71.0938 Q959.5156,69.4375 959.5156,66.3125 Q959.5156,63.1875 960.8281,61.5313 Q962.1563,59.875 964.6563,59.875 Q965.3594,59.875 966,60.0313 Q966.6563,60.1875 967.2188,60.4844 L967.2188,63.2031 Q966.5938,62.625 966,62.3594 Q965.4063,62.0781 964.7813,62.0781 Q963.4375,62.0781 962.75,63.1563 Q962.0625,64.2188 962.0625,66.3125 Q962.0625,68.4063 962.75,69.4844 Q963.4375,70.5469 964.7813,70.5469 Q965.4063,70.5469 966,70.2813 Q966.5938,70 967.2188,69.4219 L967.2188,72.1406 Z "/><text fill="#000000" font-family="sans-serif" font-size="12" lengthAdjust="spacingAndGlyphs" textLength="15" x="984.75" y="70.6543">TV</text><line style="stroke: #A80036; stroke-width: 1.5;" x1="908.5" x2="1043.5" y1="82.5" y2="82.5"/><text fill="#000000" font-family="sans-serif" font-size="11" lengthAdjust="spacingAndGlyphs" textLength="125" x="913.5" y="96.7104">+EndDate: LocalDate?</text><line style="stroke: #A80036; stroke-width: 1.5;" x1="908.5" x2="1043.5" y1="103.3047" y2="103.3047"/><!--MD5=[2916714cae8f0462c1096d4fd55ce4c3]
class Season--><rect fill="#FEFECE" filter="url(#f14dre1qn2neoh)" height="117.9609" id="Season" style="stroke: #A80036; stroke-width: 1.5;" width="199" x="1030.5" y="246"/><ellipse cx="1102.25" cy="264.9688" fill="#ADD1B2" rx="11" ry="11" style="stroke: #A80036; stroke-width: 1.0;"/><path d="M1105.2188,270.6094 Q1104.6406,270.9063 1104,271.0469 Q1103.3594,271.2031 1102.6563,271.2031 Q1100.1563,271.2031 1098.8281,269.5625 Q1097.5156,267.9063 1097.5156,264.7813 Q1097.5156,261.6563 1098.8281,260 Q1100.1563,258.3438 1102.6563,258.3438 Q1103.3594,258.3438 1104,258.5 Q1104.6563,258.6563 1105.2188,258.9531 L1105.2188,261.6719 Q1104.5938,261.0938 1104,260.8281 Q1103.4063,260.5469 1102.7813,260.5469 Q1101.4375,260.5469 1100.75,261.625 Q1100.0625,262.6875 1100.0625,264.7813 Q1100.0625,266.875 1100.75,267.9531 Q1101.4375,269.0156 1102.7813,269.0156 Q1103.4063,269.0156 1104,268.75 Q1104.5938,268.4688 1105.2188,267.8906 L1105.2188,270.6094 Z "/><text fill="#000000" font-family="sans-serif" font-size="12" font-style="italic" lengthAdjust="spacingAndGlyphs" textLength="50" x="1121.25" y="262.1387">«Entity»</text><text fill="#000000" font-family="sans-serif" font-size="12" lengthAdjust="spacingAndGlyphs" textLength="47" x="1122.75" y="276.1074">Season</text><line style="stroke: #A80036; stroke-width: 1.5;" x1="1031.5" x2="1228.5" y1="283.9375" y2="283.9375"/><text fill="#000000" font-family="sans-serif" font-size="11" lengthAdjust="spacingAndGlyphs" textLength="54" x="1036.5" y="298.1479">+Id: UUID</text><text fill="#000000" font-family="sans-serif" font-size="11" lengthAdjust="spacingAndGlyphs" textLength="119" x="1036.5" y="310.9526">+SeasonNumber: int</text><text fill="#000000" font-family="sans-serif" font-size="11" lengthAdjust="spacingAndGlyphs" textLength="145" x="1036.5" y="323.7573">+Episode: List&lt;Episode&gt;</text><text fill="#000000" font-family="sans-serif" font-size="11" lengthAdjust="spacingAndGlyphs" textLength="187" x="1036.5" y="336.562">+OriginalReleaseDate: LocalDate</text><text fill="#000000" font-family="sans-serif" font-size="11" lengthAdjust="spacingAndGlyphs" textLength="80" x="1036.5" y="349.3667">+Title: string?</text><line style="stroke: #A80036; stroke-width: 1.5;" x1="1031.5" x2="1228.5" y1="355.9609" y2="355.9609"/><!--MD5=[89f1af135d226d270851fb7756972918]
class Episode--><rect fill="#FEFECE" filter="url(#f14dre1qn2neoh)" height="117.9609" id="Episode" style="stroke: #A80036; stroke-width: 1.5;" width="133" x="1063.5" y="456"/><ellipse cx="1101.45" cy="474.9688" fill="#ADD1B2" rx="11" ry="11" style="stroke: #A80036; stroke-width: 1.0;"/><path d="M1104.4188,480.6094 Q1103.8406,480.9063 1103.2,481.0469 Q1102.5594,481.2031 1101.8563,481.2031 Q1099.3563,481.2031 1098.0281,479.5625 Q1096.7156,477.9063 1096.7156,474.7813 Q1096.7156,471.6563 1098.0281,470 Q1099.3563,468.3438 1101.8563,468.3438 Q1102.5594,468.3438 1103.2,468.5 Q1103.8563,468.6563 1104.4188,468.9531 L1104.4188,471.6719 Q1103.7938,471.0938 1103.2,470.8281 Q1102.6063,470.5469 1101.9813,470.5469 Q1100.6375,470.5469 1099.95,471.625 Q1099.2625,472.6875 1099.2625,474.7813 Q1099.2625,476.875 1099.95,477.9531 Q1100.6375,479.0156 1101.9813,479.0156 Q1102.6063,479.0156 1103.2,478.75 Q1103.7938,478.4688 1104.4188,477.8906 L1104.4188,480.6094 Z "/><text fill="#000000" font-family="sans-serif" font-size="12" font-style="italic" lengthAdjust="spacingAndGlyphs" textLength="50" x="1120.55" y="472.1387">«Entity»</text><text fill="#000000" font-family="sans-serif" font-size="12" lengthAdjust="spacingAndGlyphs" textLength="50" x="1120.55" y="486.1074">Episode</text><line style="stroke: #A80036; stroke-width: 1.5;" x1="1064.5" x2="1195.5" y1="493.9375" y2="493.9375"/><text fill="#000000" font-family="sans-serif" font-size="11" lengthAdjust="spacingAndGlyphs" textLength="54" x="1069.5" y="508.1479">+Id: UUID</text><text fill="#000000" font-family="sans-serif" font-size="11" lengthAdjust="spacingAndGlyphs" textLength="121" x="1069.5" y="520.9526">+EpisodeNumber: int</text><text fill="#000000" font-family="sans-serif" font-size="11" lengthAdjust="spacingAndGlyphs" textLength="113" x="1069.5" y="533.7573">+AirDate: LocalDate</text><text fill="#000000" font-family="sans-serif" font-size="11" lengthAdjust="spacingAndGlyphs" textLength="121" x="1069.5" y="546.562">+RuntimeMinutes: int</text><text fill="#000000" font-family="sans-serif" font-size="11" lengthAdjust="spacingAndGlyphs" textLength="80" x="1069.5" y="559.3667">+Title: string?</text><line style="stroke: #A80036; stroke-width: 1.5;" x1="1064.5" x2="1195.5" y1="565.9609" y2="565.9609"/><!--MD5=[55a6f80882d3cd7368bedd1107f01aad]
class AudioTrack--><rect fill="#FEFECE" filter="url(#f14dre1qn2neoh)" height="79.5469" id="AudioTrack" style="stroke: #A80036; stroke-width: 1.5;" width="117" x="171.5" y="265"/><ellipse cx="186.95" cy="283.9688" fill="#ADD1B2" rx="11" ry="11" style="stroke: #A80036; stroke-width: 1.0;"/><path d="M189.9188,289.6094 Q189.3406,289.9063 188.7,290.0469 Q188.0594,290.2031 187.3563,290.2031 Q184.8563,290.2031 183.5281,288.5625 Q182.2156,286.9063 182.2156,283.7813 Q182.2156,280.6563 183.5281,279 Q184.8563,277.3438 187.3563,277.3438 Q188.0594,277.3438 188.7,277.5 Q189.3563,277.6563 189.9188,277.9531 L189.9188,280.6719 Q189.2938,280.0938 188.7,279.8281 Q188.1063,279.5469 187.4813,279.5469 Q186.1375,279.5469 185.45,280.625 Q184.7625,281.6875 184.7625,283.7813 Q184.7625,285.875 185.45,286.9531 Q186.1375,288.0156 187.4813,288.0156 Q188.1063,288.0156 188.7,287.75 Q189.2938,287.4688 189.9188,286.8906 L189.9188,289.6094 Z "/><text fill="#000000" font-family="sans-serif" font-size="12" font-style="italic" lengthAdjust="spacingAndGlyphs" textLength="88" x="199.05" y="281.1387">«ValueObject»</text><text fill="#000000" font-family="sans-serif" font-size="12" lengthAdjust="spacingAndGlyphs" textLength="69" x="208.55" y="295.1074">AudioTrack</text><line style="stroke: #A80036; stroke-width: 1.5;" x1="172.5" x2="287.5" y1="302.9375" y2="302.9375"/><text fill="#000000" font-family="sans-serif" font-size="11" lengthAdjust="spacingAndGlyphs" textLength="105" x="177.5" y="317.1479">+Language: string</text><text fill="#000000" font-family="sans-serif" font-size="11" lengthAdjust="spacingAndGlyphs" textLength="90" x="177.5" y="329.9526">+Format: string</text><line style="stroke: #A80036; stroke-width: 1.5;" x1="172.5" x2="287.5" y1="336.5469" y2="336.5469"/><!--MD5=[a37707a5a7e4fa9ccccea367e3a415b8]
class Edition--><rect fill="#FEFECE" filter="url(#f14dre1qn2neoh)" height="48" id="Edition" style="stroke: #A80036; stroke-width: 1.5;" width="75" x="840.5" y="491"/><ellipse cx="855.5" cy="507" fill="#ADD1B2" rx="11" ry="11" style="stroke: #A80036; stroke-width: 1.0;"/><path d="M858.4688,512.6406 Q857.8906,512.9375 857.25,513.0781 Q856.6094,513.2344 855.9063,513.2344 Q853.4063,513.2344 852.0781,511.5938 Q850.7656,509.9375 850.7656,506.8125 Q850.7656,503.6875 852.0781,502.0313 Q853.4063,500.375 855.9063,500.375 Q856.6094,500.375 857.25,500.5313 Q857.9063,500.6875 858.4688,500.9844 L858.4688,503.7031 Q857.8438,503.125 857.25,502.8594 Q856.6563,502.5781 856.0313,502.5781 Q854.6875,502.5781 854,503.6563 Q853.3125,504.7188 853.3125,506.8125 Q853.3125,508.9063 854,509.9844 Q854.6875,511.0469 856.0313,511.0469 Q856.6563,511.0469 857.25,510.7813 Q857.8438,510.5 858.4688,509.9219 L858.4688,512.6406 Z "/><text fill="#000000" font-family="sans-serif" font-size="12" lengthAdjust="spacingAndGlyphs" textLength="43" x="869.5" y="511.1543">Edition</text><line style="stroke: #A80036; stroke-width: 1.5;" x1="841.5" x2="914.5" y1="523" y2="523"/><line style="stroke: #A80036; stroke-width: 1.5;" x1="841.5" x2="914.5" y1="531" y2="531"/><!--MD5=[996c329a84fbff679e423f9789dbe47e]
reverse link CollectionGroup to CollectionGroupMembership--><path d="M469,358.58 C469,392.61 469,436.46 469,468.91 " fill="none" id="CollectionGroup&lt;-CollectionGroupMembership" style="stroke: #A80036; stroke-width: 1.0;"/><polygon fill="#A80036" points="469,345.12,465,351.12,469,357.12,473,351.12,469,345.12" style="stroke: #A80036; stroke-width: 1.0;"/><text fill="#000000" font-family="sans-serif" font-size="13" lengthAdjust="spacingAndGlyphs" textLength="8" x="460.3875" y="364.5236">1</text><text fill="#000000" font-family="sans-serif" font-size="13" lengthAdjust="spacingAndGlyphs" textLength="23" x="444.3109" y="458.0898">0..*</text><!--MD5=[9ad4f954b28ad54f2491927702a17c0b]
reverse link MediaWork to Contribution--><path d="M693.99,409.05 C694.19,430.04 694.4,451.09 694.56,468.76 " fill="none" id="MediaWork&lt;-Contribution" style="stroke: #A80036; stroke-width: 1.0;"/><polygon fill="#A80036" points="693.87,396.02,689.9295,402.0593,693.9887,408.0194,697.9291,401.9801,693.87,396.02" style="stroke: #A80036; stroke-width: 1.0;"/><text fill="#000000" font-family="sans-serif" font-size="13" lengthAdjust="spacingAndGlyphs" textLength="8" x="685.6206" y="415.9436">1</text><text fill="#000000" font-family="sans-serif" font-size="13" lengthAdjust="spacingAndGlyphs" textLength="23" x="669.8063" y="457.9178">1..*</text><!--MD5=[72246856af6937c3268263d759065537]
link Movie to MediaWork--><path d="M758.33,105.34 C751.19,127.03 740.03,160.98 728.93,194.72 " fill="none" id="Movie-&gt;MediaWork" style="stroke: #A80036; stroke-width: 1.0;"/><polygon fill="none" points="735.52,197.1,722.62,213.91,722.22,192.73,735.52,197.1" style="stroke: #A80036; stroke-width: 1.0;"/><!--MD5=[5cfdab32e7fdab8dd7cdb1fe4a097602]
link TV to MediaWork--><path d="M938.13,111.71 C908.54,134.92 865.59,168.61 823.87,201.34 " fill="none" id="TV-&gt;MediaWork" style="stroke: #A80036; stroke-width: 1.0;"/><polygon fill="none" points="828.03,206.97,807.97,213.81,819.39,195.96,828.03,206.97" style="stroke: #A80036; stroke-width: 1.0;"/><!--MD5=[ff064e4e2613780c041fbf5360d2bb00]
reverse link Season to Episode--><path d="M1130,377.3 C1130,402.9 1130,431.44 1130,455.8 " fill="none" id="Season&lt;-Episode" style="stroke: #A80036; stroke-width: 1.0;"/><polygon fill="#A80036" points="1130,364.22,1126,370.22,1130,376.22,1134,370.22,1130,364.22" style="stroke: #A80036; stroke-width: 1.0;"/><text fill="#000000" font-family="sans-serif" font-size="13" lengthAdjust="spacingAndGlyphs" textLength="8" x="1121.5375" y="384.0113">1</text><text fill="#000000" font-family="sans-serif" font-size="13" lengthAdjust="spacingAndGlyphs" textLength="23" x="1105.5984" y="444.7483">1..*</text><!--MD5=[214de68e22dbb54cfb3bb7ba7775e660]
reverse link TV to Season--><path d="M1004.46,123.02 C1028.4,157.54 1062.91,207.29 1089.7,245.9 " fill="none" id="TV&lt;-Season" style="stroke: #A80036; stroke-width: 1.0;"/><polygon fill="#A80036" points="996.77,111.94,996.8975,119.15,1003.6019,121.8054,1003.4744,114.5954,996.77,111.94" style="stroke: #A80036; stroke-width: 1.0;"/><text fill="#000000" font-family="sans-serif" font-size="13" lengthAdjust="spacingAndGlyphs" textLength="8" x="991.9668" y="131.3658">1</text><text fill="#000000" font-family="sans-serif" font-size="13" lengthAdjust="spacingAndGlyphs" textLength="23" x="1060.3869" y="234.8605">1..*</text><!--MD5=[96eca555c283861625927cf39bbe0ece]
link Contribution to Contributor--><path d="M695.57,561.42 C695.84,583.49 696.17,609.9 696.45,631.8 " fill="none" id="Contribution-&gt;Contributor" style="stroke: #A80036; stroke-width: 1.0; stroke-dasharray: 7.0,7.0;"/><polygon fill="#A80036" points="696.51,636.98,700.4069,627.9349,696.4529,631.9803,692.4074,628.0263,696.51,636.98" style="stroke: #A80036; stroke-width: 1.0;"/><!--MD5=[b56c7005511cc776453792ca81a63561]
reverse link MediaWork to CollectionGroupMembership--><path d="M592.24,399.56 C566.34,423.62 539.63,448.42 517.72,468.76 " fill="none" id="MediaWork&lt;-CollectionGroupMembership" style="stroke: #A80036; stroke-width: 1.0; stroke-dasharray: 7.0,7.0;"/><polygon fill="#A80036" points="596.05,396.02,586.7288,399.2004,592.3815,399.4173,592.1645,405.07,596.05,396.02" style="stroke: #A80036; stroke-width: 1.0;"/><!--MD5=[58863ec6cf083fff19df8be0751786f0]
link MediaCopy to Edition--><path d="M906.94,370.67 C899.13,409.34 889.61,456.51 883.67,485.91 " fill="none" id="MediaCopy-&gt;Edition" style="stroke: #A80036; stroke-width: 1.0; stroke-dasharray: 7.0,7.0;"/><polygon fill="#A80036" points="882.68,490.83,888.3989,482.8116,883.6798,485.931,880.5604,481.2119,882.68,490.83" style="stroke: #A80036; stroke-width: 1.0;"/><!--MD5=[03e7ed0dc0f99b05489eb432a809d4e2]
reverse link MediaWork to Edition--><path d="M781.78,405.82 C809.96,437.5 838.59,469.69 857.21,490.62 " fill="none" id="MediaWork&lt;-Edition" style="stroke: #A80036; stroke-width: 1.0;"/><polygon fill="#A80036" points="773.07,396.02,774.0698,403.1615,781.0465,404.9853,780.0467,397.8438,773.07,396.02" style="stroke: #A80036; stroke-width: 1.0;"/><text fill="#000000" font-family="sans-serif" font-size="13" lengthAdjust="spacingAndGlyphs" textLength="8" x="771.1318" y="415.9436">1</text><text fill="#000000" font-family="sans-serif" font-size="13" lengthAdjust="spacingAndGlyphs" textLength="23" x="826.3393" y="479.9323">0..*</text><!--MD5=[9971b6f5a857983fce83de644f3fa591]
link Location to Note--><!--MD5=[1542551ce2b22a42bbeaea5410bee2f3]
link Location to ContributorRole--><!--MD5=[9699088459bd35630a6c26e49c7b3ef9]
link ContributorRole to AudioTrack--><!--MD5=[e375f284449cd256fa23e5623597770c]
@startuml
skinparam classAttributeIconSize 0

skinparam classAttributeIconSize 0

class CollectionGroup <<AggregateRoot>> {
    +Id: UUID
    +Title: string
}

class CollectionGroupMembership <<Entity>> {
    +Id: UUID
    +MediaWorkId: UUID
    +SortIndex: int
}

note bottom of CollectionGroupMembership
Invariant:
- MediaWork can appear only once per
  CollectionGroup
- SortIndex must be unique within a
  CollectionGroup
end note

CollectionGroup "1" *- - "0..*" CollectionGroupMembership

skinparam classAttributeIconSize 0

class Contributor <<AggregateRoot>> {
    +Id: UUID
    +Name: string
}

skinparam classAttributeIconSize 0

class MediaCopy <<AggregateRoot>> {
    +Id: UUID
    +EditionId: UUID
    +Location: Location
    +Notes: List<Note>
    +DateAdded?: LocalDate
    +CreatedAt: DateTime
}

class Location <<ValueObject>> {
    +Name: string
}

class Note <<ValueObject>> {
    +Text: string
    +CreatedAt: DateTime
}

skinparam classAttributeIconSize 0

abstract class MediaWork <<AggregateRoot>> {
    +Id: UUID
    +Title: string
    +OriginalReleaseDate: LocalDate
    -_contributions: List<Contribution>
    #_creatorRoles: List<ContributorRole>
    - -
    +AddContribution(id, role): void
    +RemoveContribution(id): void
    +AddEdition(id): void
    +RemoveEdition(id): void
    +IsCreatorRole(role): bool
}

note top of MediaWork
Invariant:
- Must have at least one Contribution
  where concrete MediaWork considers Role
  a creator (member of _creatorRoles)
- Cannot remove last creator
- Cannot remove Edition if MediaCopy
  exists referencing it (cross-aggregate
  constraint, enforce in application
  layer)
end note

class Contribution <<Entity>> {
    +Id: UUID
    +ContributorId: UUID
    +Role: ContributorRole
}

class ContributorRole <<ValueObject>> {
    +Name: string
}

MediaWork "1" *- - "1..*" Contribution

class Movie

Movie - -|> MediaWork

class TV {
    +EndDate: LocalDate?
}

TV - -|> MediaWork

class Season <<Entity>> {
    +Id: UUID
    +SeasonNumber: int
    +Episode: List<Episode>
    +OriginalReleaseDate: LocalDate
    +Title: string?
}

class Episode <<Entity>> {
    +Id: UUID
    +EpisodeNumber: int
    +AirDate: LocalDate
    +RuntimeMinutes: int
    +Title: string?
}

Season "1" *- - "1..*" Episode
TV "1" *- - "1..*" Season

class AudioTrack <<ValueObject>> {
    +Language: string
    +Format: string
}


Contribution ..> Contributor

MediaWork <.. CollectionGroupMembership

MediaCopy ..> Edition

MediaWork "1" *- - "0..*" Edition

@enduml

PlantUML version 1.2020.02(Sun Mar 01 10:22:07 UTC 2020)
(GPL source distribution)
Java Runtime: OpenJDK Runtime Environment
JVM: OpenJDK 64-Bit Server VM
Java Version: 17.0.18+8
Operating System: Linux
Default Encoding: UTF-8
Language: en
Country: null
--></g></svg>