<?xml version="1.0" encoding="UTF-8" standalone="no"?><svg xmlns="http://www.w3.org/2000/svg" xmlns:xlink="http://www.w3.org/1999/xlink" contentScriptType="application/ecmascript" contentStyleType="text/css" height="567px" preserveAspectRatio="none" style="width:326px;height:567px;" version="1.1" viewBox="0 0 326 567" width="326px" zoomAndPan="magnify"><defs><filter height="300%" id="ffrsm049xs2ig" width="300%" x="-1" y="-1"><feGaussianBlur result="blurOut" stdDeviation="2.0"/><feColorMatrix in="blurOut" result="blurOut2" type="matrix" values="0 0 0 0 0 0 0 0 0 0 0 0 0 0 0 0 0 0 .4 0"/><feOffset dx="4.0" dy="4.0" in="blurOut2" result="blurOut3"/><feBlend in="SourceGraphic" in2="blurOut3" mode="normal"/></filter></defs><g><!--MD5=[c3dd83c4944f050787f4b644933234ea]
class MediaWork--><rect fill="#FEFECE" filter="url(#ffrsm049xs2ig)" height="48" id="MediaWork" style="stroke: #A80036; stroke-width: 1.5;" width="100" x="161.5" y="258"/><ellipse cx="176.5" cy="274" fill="#ADD1B2" rx="11" ry="11" style="stroke: #A80036; stroke-width: 1.0;"/><path d="M179.4688,279.6406 Q178.8906,279.9375 178.25,280.0781 Q177.6094,280.2344 176.9063,280.2344 Q174.4063,280.2344 173.0781,278.5938 Q171.7656,276.9375 171.7656,273.8125 Q171.7656,270.6875 173.0781,269.0313 Q174.4063,267.375 176.9063,267.375 Q177.6094,267.375 178.25,267.5313 Q178.9063,267.6875 179.4688,267.9844 L179.4688,270.7031 Q178.8438,270.125 178.25,269.8594 Q177.6563,269.5781 177.0313,269.5781 Q175.6875,269.5781 175,270.6563 Q174.3125,271.7188 174.3125,273.8125 Q174.3125,275.9063 175,276.9844 Q175.6875,278.0469 177.0313,278.0469 Q177.6563,278.0469 178.25,277.7813 Q178.8438,277.5 179.4688,276.9219 L179.4688,279.6406 Z "/><text fill="#000000" font-family="sans-serif" font-size="12" lengthAdjust="spacingAndGlyphs" textLength="68" x="190.5" y="278.1543">MediaWork</text><line style="stroke: #A80036; stroke-width: 1.5;" x1="162.5" x2="260.5" y1="290" y2="290"/><line style="stroke: #A80036; stroke-width: 1.5;" x1="162.5" x2="260.5" y1="298" y2="298"/><!--MD5=[a37707a5a7e4fa9ccccea367e3a415b8]
class Edition--><rect fill="#FEFECE" filter="url(#ffrsm049xs2ig)" height="48" id="Edition" style="stroke: #A80036; stroke-width: 1.5;" width="75" x="43" y="383"/><ellipse cx="58" cy="399" fill="#ADD1B2" rx="11" ry="11" style="stroke: #A80036; stroke-width: 1.0;"/><path d="M60.9688,404.6406 Q60.3906,404.9375 59.75,405.0781 Q59.1094,405.2344 58.4063,405.2344 Q55.9063,405.2344 54.5781,403.5938 Q53.2656,401.9375 53.2656,398.8125 Q53.2656,395.6875 54.5781,394.0313 Q55.9063,392.375 58.4063,392.375 Q59.1094,392.375 59.75,392.5313 Q60.4063,392.6875 60.9688,392.9844 L60.9688,395.7031 Q60.3438,395.125 59.75,394.8594 Q59.1563,394.5781 58.5313,394.5781 Q57.1875,394.5781 56.5,395.6563 Q55.8125,396.7188 55.8125,398.8125 Q55.8125,400.9063 56.5,401.9844 Q57.1875,403.0469 58.5313,403.0469 Q59.1563,403.0469 59.75,402.7813 Q60.3438,402.5 60.9688,401.9219 L60.9688,404.6406 Z "/><text fill="#000000" font-family="sans-serif" font-size="12" lengthAdjust="spacingAndGlyphs" textLength="43" x="72" y="403.1543">Edition</text><line style="stroke: #A80036; stroke-width: 1.5;" x1="44" x2="117" y1="415" y2="415"/><line style="stroke: #A80036; stroke-width: 1.5;" x1="44" x2="117" y1="423" y2="423"/><!--MD5=[148a3002404242a1fb9bf2331f66864f]
class MediaCopy--><rect fill="#FEFECE" filter="url(#ffrsm049xs2ig)" height="48" id="MediaCopy" style="stroke: #A80036; stroke-width: 1.5;" width="99" x="6" y="258"/><ellipse cx="21" cy="274" fill="#ADD1B2" rx="11" ry="11" style="stroke: #A80036; stroke-width: 1.0;"/><path d="M23.9688,279.6406 Q23.3906,279.9375 22.75,280.0781 Q22.1094,280.2344 21.4063,280.2344 Q18.9063,280.2344 17.5781,278.5938 Q16.2656,276.9375 16.2656,273.8125 Q16.2656,270.6875 17.5781,269.0313 Q18.9063,267.375 21.4063,267.375 Q22.1094,267.375 22.75,267.5313 Q23.4063,267.6875 23.9688,267.9844 L23.9688,270.7031 Q23.3438,270.125 22.75,269.8594 Q22.1563,269.5781 21.5313,269.5781 Q20.1875,269.5781 19.5,270.6563 Q18.8125,271.7188 18.8125,273.8125 Q18.8125,275.9063 19.5,276.9844 Q20.1875,278.0469 21.5313,278.0469 Q22.1563,278.0469 22.75,277.7813 Q23.3438,277.5 23.9688,276.9219 L23.9688,279.6406 Z "/><text fill="#000000" font-family="sans-serif" font-size="12" lengthAdjust="spacingAndGlyphs" textLength="67" x="35" y="278.1543">MediaCopy</text><line style="stroke: #A80036; stroke-width: 1.5;" x1="7" x2="104" y1="290" y2="290"/><line style="stroke: #A80036; stroke-width: 1.5;" x1="7" x2="104" y1="298" y2="298"/><!--MD5=[45bc2ed3d1efce51d6e5e8f0ca873e96]
class CollectionGroup--><rect fill="#FEFECE" filter="url(#ffrsm049xs2ig)" height="48" id="CollectionGroup" style="stroke: #A80036; stroke-width: 1.5;" width="131" x="146" y="8"/><ellipse cx="161" cy="24" fill="#ADD1B2" rx="11" ry="11" style="stroke: #A80036; stroke-width: 1.0;"/><path d="M163.9688,29.6406 Q163.3906,29.9375 162.75,30.0781 Q162.1094,30.2344 161.4063,30.2344 Q158.9063,30.2344 157.5781,28.5938 Q156.2656,26.9375 156.2656,23.8125 Q156.2656,20.6875 157.5781,19.0313 Q158.9063,17.375 161.4063,17.375 Q162.1094,17.375 162.75,17.5313 Q163.4063,17.6875 163.9688,17.9844 L163.9688,20.7031 Q163.3438,20.125 162.75,19.8594 Q162.1563,19.5781 161.5313,19.5781 Q160.1875,19.5781 159.5,20.6563 Q158.8125,21.7188 158.8125,23.8125 Q158.8125,25.9063 159.5,26.9844 Q160.1875,28.0469 161.5313,28.0469 Q162.1563,28.0469 162.75,27.7813 Q163.3438,27.5 163.9688,26.9219 L163.9688,29.6406 Z "/><text fill="#000000" font-family="sans-serif" font-size="12" lengthAdjust="spacingAndGlyphs" textLength="99" x="175" y="28.1543">CollectionGroup</text><line style="stroke: #A80036; stroke-width: 1.5;" x1="147" x2="276" y1="40" y2="40"/><line style="stroke: #A80036; stroke-width: 1.5;" x1="147" x2="276" y1="48" y2="48"/><!--MD5=[1544e71f2cb389b780e9180c5c78ad2d]
class CollectionGroupMembership--><rect fill="#FEFECE" filter="url(#ffrsm049xs2ig)" height="48" id="CollectionGroupMembership" style="stroke: #A80036; stroke-width: 1.5;" width="207" x="108" y="133"/><ellipse cx="123" cy="149" fill="#ADD1B2" rx="11" ry="11" style="stroke: #A80036; stroke-width: 1.0;"/><path d="M125.9688,154.6406 Q125.3906,154.9375 124.75,155.0781 Q124.1094,155.2344 123.4063,155.2344 Q120.9063,155.2344 119.5781,153.5938 Q118.2656,151.9375 118.2656,148.8125 Q118.2656,145.6875 119.5781,144.0313 Q120.9063,142.375 123.4063,142.375 Q124.1094,142.375 124.75,142.5313 Q125.4063,142.6875 125.9688,142.9844 L125.9688,145.7031 Q125.3438,145.125 124.75,144.8594 Q124.1563,144.5781 123.5313,144.5781 Q122.1875,144.5781 121.5,145.6563 Q120.8125,146.7188 120.8125,148.8125 Q120.8125,150.9063 121.5,151.9844 Q122.1875,153.0469 123.5313,153.0469 Q124.1563,153.0469 124.75,152.7813 Q125.3438,152.5 125.9688,151.9219 L125.9688,154.6406 Z "/><text fill="#000000" font-family="sans-serif" font-size="12" lengthAdjust="spacingAndGlyphs" textLength="175" x="137" y="153.1543">CollectionGroupMembership</text><line style="stroke: #A80036; stroke-width: 1.5;" x1="109" x2="314" y1="165" y2="165"/><line style="stroke: #A80036; stroke-width: 1.5;" x1="109" x2="314" y1="173" y2="173"/><!--MD5=[0330879a1a385efee19ba3488ed490fa]
class Contribution--><rect fill="#FEFECE" filter="url(#ffrsm049xs2ig)" height="48" id="Contribution" style="stroke: #A80036; stroke-width: 1.5;" width="109" x="178" y="383"/><ellipse cx="193" cy="399" fill="#ADD1B2" rx="11" ry="11" style="stroke: #A80036; stroke-width: 1.0;"/><path d="M195.9688,404.6406 Q195.3906,404.9375 194.75,405.0781 Q194.1094,405.2344 193.4063,405.2344 Q190.9063,405.2344 189.5781,403.5938 Q188.2656,401.9375 188.2656,398.8125 Q188.2656,395.6875 189.5781,394.0313 Q190.9063,392.375 193.4063,392.375 Q194.1094,392.375 194.75,392.5313 Q195.4063,392.6875 195.9688,392.9844 L195.9688,395.7031 Q195.3438,395.125 194.75,394.8594 Q194.1563,394.5781 193.5313,394.5781 Q192.1875,394.5781 191.5,395.6563 Q190.8125,396.7188 190.8125,398.8125 Q190.8125,400.9063 191.5,401.9844 Q192.1875,403.0469 193.5313,403.0469 Q194.1563,403.0469 194.75,402.7813 Q195.3438,402.5 195.9688,401.9219 L195.9688,404.6406 Z "/><text fill="#000000" font-family="sans-serif" font-size="12" lengthAdjust="spacingAndGlyphs" textLength="77" x="207" y="403.1543">Contribution</text><line style="stroke: #A80036; stroke-width: 1.5;" x1="179" x2="286" y1="415" y2="415"/><line style="stroke: #A80036; stroke-width: 1.5;" x1="179" x2="286" y1="423" y2="423"/><!--MD5=[1a95835255177050dd8028a7da1b3a6a]
class Contributor--><rect fill="#FEFECE" filter="url(#ffrsm049xs2ig)" height="48" id="Contributor" style="stroke: #A80036; stroke-width: 1.5;" width="103" x="181" y="508"/><ellipse cx="196" cy="524" fill="#ADD1B2" rx="11" ry="11" style="stroke: #A80036; stroke-width: 1.0;"/><path d="M198.9688,529.6406 Q198.3906,529.9375 197.75,530.0781 Q197.1094,530.2344 196.4063,530.2344 Q193.9063,530.2344 192.5781,528.5938 Q191.2656,526.9375 191.2656,523.8125 Q191.2656,520.6875 192.5781,519.0313 Q193.9063,517.375 196.4063,517.375 Q197.1094,517.375 197.75,517.5313 Q198.4063,517.6875 198.9688,517.9844 L198.9688,520.7031 Q198.3438,520.125 197.75,519.8594 Q197.1563,519.5781 196.5313,519.5781 Q195.1875,519.5781 194.5,520.6563 Q193.8125,521.7188 193.8125,523.8125 Q193.8125,525.9063 194.5,526.9844 Q195.1875,528.0469 196.5313,528.0469 Q197.1563,528.0469 197.75,527.7813 Q198.3438,527.5 198.9688,526.9219 L198.9688,529.6406 Z "/><text fill="#000000" font-family="sans-serif" font-size="12" lengthAdjust="spacingAndGlyphs" textLength="71" x="210" y="528.1543">Contributor</text><line style="stroke: #A80036; stroke-width: 1.5;" x1="182" x2="283" y1="540" y2="540"/><line style="stroke: #A80036; stroke-width: 1.5;" x1="182" x2="283" y1="548" y2="548"/><!--MD5=[7b208c38cbbdca26fcb7e8880d710ea0]
link CollectionGroup to CollectionGroupMembership--><path d="M211.5,56.14 C211.5,76.49 211.5,106.19 211.5,127.91 " fill="none" id="CollectionGroup-&gt;CollectionGroupMembership" style="stroke: #A80036; stroke-width: 1.0;"/><polygon fill="#A80036" points="211.5,132.97,215.5,123.97,211.5,127.97,207.5,123.97,211.5,132.97" style="stroke: #A80036; stroke-width: 1.0;"/><text fill="#000000" font-family="sans-serif" font-size="13" lengthAdjust="spacingAndGlyphs" textLength="54" x="212.5" y="99.0669">contains</text><!--MD5=[029b0f2b0590c17a20dde8c2bbf701f2]
link CollectionGroupMembership to MediaWork--><path d="M211.5,181.14 C211.5,201.49 211.5,231.19 211.5,252.91 " fill="none" id="CollectionGroupMembership-&gt;MediaWork" style="stroke: #A80036; stroke-width: 1.0;"/><polygon fill="#A80036" points="211.5,257.97,215.5,248.97,211.5,252.97,207.5,248.97,211.5,257.97" style="stroke: #A80036; stroke-width: 1.0;"/><text fill="#000000" font-family="sans-serif" font-size="13" lengthAdjust="spacingAndGlyphs" textLength="68" x="212.5" y="224.0669">references</text><!--MD5=[fa44da9fd858e6fe61c3a9392c9ff143]
link MediaWork to Edition--><path d="M186.86,306.14 C164.63,327.01 131.94,357.7 108.68,379.54 " fill="none" id="MediaWork-&gt;Edition" style="stroke: #A80036; stroke-width: 1.0;"/><polygon fill="#A80036" points="105.03,382.97,114.332,379.7339,108.6781,379.5508,108.8613,373.8969,105.03,382.97" style="stroke: #A80036; stroke-width: 1.0;"/><text fill="#000000" font-family="sans-serif" font-size="13" lengthAdjust="spacingAndGlyphs" textLength="23" x="155.5" y="349.0669">has</text><!--MD5=[58863ec6cf083fff19df8be0751786f0]
link MediaCopy to Edition--><path d="M51.27,306.03 C49.53,319.84 48.69,337.65 52.5,353 C54.64,361.62 58.46,370.37 62.6,378.22 " fill="none" id="MediaCopy-&gt;Edition" style="stroke: #A80036; stroke-width: 1.0;"/><polygon fill="#A80036" points="65.21,382.98,64.385,373.1658,62.8037,378.5971,57.3724,377.0158,65.21,382.98" style="stroke: #A80036; stroke-width: 1.0;"/><text fill="#000000" font-family="sans-serif" font-size="13" lengthAdjust="spacingAndGlyphs" textLength="70" x="53.5" y="349.0669">instance of</text><!--MD5=[8a22a3985988d7d130dcd3a8b1335fd0]
link MediaWork to Contribution--><path d="M215.45,306.14 C218.93,326.49 224,356.19 227.7,377.91 " fill="none" id="MediaWork-&gt;Contribution" style="stroke: #A80036; stroke-width: 1.0;"/><polygon fill="#A80036" points="228.57,382.97,231.0225,373.4314,227.7411,378.0392,223.1333,374.7577,228.57,382.97" style="stroke: #A80036; stroke-width: 1.0;"/><text fill="#000000" font-family="sans-serif" font-size="13" lengthAdjust="spacingAndGlyphs" textLength="23" x="223.5" y="349.0669">has</text><!--MD5=[96eca555c283861625927cf39bbe0ece]
link Contribution to Contributor--><path d="M232.5,431.14 C232.5,451.49 232.5,481.19 232.5,502.91 " fill="none" id="Contribution-&gt;Contributor" style="stroke: #A80036; stroke-width: 1.0;"/><polygon fill="#A80036" points="232.5,507.97,236.5,498.97,232.5,502.97,228.5,498.97,232.5,507.97" style="stroke: #A80036; stroke-width: 1.0;"/><text fill="#000000" font-family="sans-serif" font-size="13" lengthAdjust="spacingAndGlyphs" textLength="15" x="233.5" y="474.0669">by</text><!--MD5=[667b3dfa1b75e2899de8c47f0c3f1e16]
@startuml
skinparam classAttributeIconSize 0

class MediaWork
class Edition
class MediaCopy
class CollectionGroup
class CollectionGroupMembership
class Contribution
class Contributor

CollectionGroup - -> CollectionGroupMembership : contains
CollectionGroupMembership - -> MediaWork : references

MediaWork - -> Edition : has
MediaCopy - -> Edition : instance of

MediaWork - -> Contribution : has
Contribution - -> Contributor : by

@enduml

PlantUML version 1.2020.02(Sun Mar 01 10:22:07 UTC 2020)
(GPL source distribution)
Java Runtime: OpenJDK Runtime Environment
JVM: OpenJDK 64-Bit Server VM
Java Version: 17.0.18+8
Operating System: Linux
Default Encoding: UTF-8
Language: en
Country: null
--></g></svg>