<?xml version="1.0" encoding="UTF-8" standalone="no"?><svg xmlns="http://www.w3.org/2000/svg" xmlns:xlink="http://www.w3.org/1999/xlink" contentScriptType="application/ecmascript" contentStyleType="text/css" height="706px" preserveAspectRatio="none" style="width:634px;height:706px;" version="1.1" viewBox="0 0 634 706" width="634px" zoomAndPan="magnify"><defs><filter height="300%" id="fz1enz47f8a49" width="300%" x="-1" y="-1"><feGaussianBlur result="blurOut" stdDeviation="2.0"/><feColorMatrix in="blurOut" result="blurOut2" type="matrix" values="0 0 0 0 0 0 0 0 0 0 0 0 0 0 0 0 0 0 .4 0"/><feOffset dx="4.0" dy="4.0" in="blurOut2" result="blurOut3"/><feBlend in="SourceGraphic" in2="blurOut3" mode="normal"/></filter></defs><g><!--MD5=[c3dd83c4944f050787f4b644933234ea]
class MediaWork--><rect fill="#FEFECE" filter="url(#fz1enz47f8a49)" height="79.5469" id="MediaWork" style="stroke: #A80036; stroke-width: 1.5;" width="137" x="215" y="334"/><ellipse cx="230" cy="352.9688" fill="#ADD1B2" rx="11" ry="11" style="stroke: #A80036; stroke-width: 1.0;"/><path d="M232.9688,358.6094 Q232.3906,358.9063 231.75,359.0469 Q231.1094,359.2031 230.4063,359.2031 Q227.9063,359.2031 226.5781,357.5625 Q225.2656,355.9063 225.2656,352.7813 Q225.2656,349.6563 226.5781,348 Q227.9063,346.3438 230.4063,346.3438 Q231.1094,346.3438 231.75,346.5 Q232.4063,346.6563 232.9688,346.9531 L232.9688,349.6719 Q232.3438,349.0938 231.75,348.8281 Q231.1563,348.5469 230.5313,348.5469 Q229.1875,348.5469 228.5,349.625 Q227.8125,350.6875 227.8125,352.7813 Q227.8125,354.875 228.5,355.9531 Q229.1875,357.0156 230.5313,357.0156 Q231.1563,357.0156 231.75,356.75 Q232.3438,356.4688 232.9688,355.8906 L232.9688,358.6094 Z "/><text fill="#000000" font-family="sans-serif" font-size="12" font-style="italic" lengthAdjust="spacingAndGlyphs" textLength="109" x="242" y="350.1387">«AggregateRoot»</text><text fill="#000000" font-family="sans-serif" font-size="12" lengthAdjust="spacingAndGlyphs" textLength="68" x="262.5" y="364.1074">MediaWork</text><line style="stroke: #A80036; stroke-width: 1.5;" x1="216" x2="351" y1="371.9375" y2="371.9375"/><text fill="#000000" font-family="sans-serif" font-size="11" lengthAdjust="spacingAndGlyphs" textLength="19" x="221" y="386.1479">+Id</text><text fill="#000000" font-family="sans-serif" font-size="11" lengthAdjust="spacingAndGlyphs" textLength="33" x="221" y="398.9526">+Title</text><line style="stroke: #A80036; stroke-width: 1.5;" x1="216" x2="351" y1="405.5469" y2="405.5469"/><!--MD5=[a37707a5a7e4fa9ccccea367e3a415b8]
class Edition--><rect fill="#FEFECE" filter="url(#fz1enz47f8a49)" height="92.3516" id="Edition" style="stroke: #A80036; stroke-width: 1.5;" width="137" x="6" y="165"/><ellipse cx="21" cy="183.9688" fill="#ADD1B2" rx="11" ry="11" style="stroke: #A80036; stroke-width: 1.0;"/><path d="M23.9688,189.6094 Q23.3906,189.9063 22.75,190.0469 Q22.1094,190.2031 21.4063,190.2031 Q18.9063,190.2031 17.5781,188.5625 Q16.2656,186.9063 16.2656,183.7813 Q16.2656,180.6563 17.5781,179 Q18.9063,177.3438 21.4063,177.3438 Q22.1094,177.3438 22.75,177.5 Q23.4063,177.6563 23.9688,177.9531 L23.9688,180.6719 Q23.3438,180.0938 22.75,179.8281 Q22.1563,179.5469 21.5313,179.5469 Q20.1875,179.5469 19.5,180.625 Q18.8125,181.6875 18.8125,183.7813 Q18.8125,185.875 19.5,186.9531 Q20.1875,188.0156 21.5313,188.0156 Q22.1563,188.0156 22.75,187.75 Q23.3438,187.4688 23.9688,186.8906 L23.9688,189.6094 Z "/><text fill="#000000" font-family="sans-serif" font-size="12" font-style="italic" lengthAdjust="spacingAndGlyphs" textLength="109" x="33" y="181.1387">«AggregateRoot»</text><text fill="#000000" font-family="sans-serif" font-size="12" lengthAdjust="spacingAndGlyphs" textLength="43" x="66" y="195.1074">Edition</text><line style="stroke: #A80036; stroke-width: 1.5;" x1="7" x2="142" y1="202.9375" y2="202.9375"/><text fill="#000000" font-family="sans-serif" font-size="11" lengthAdjust="spacingAndGlyphs" textLength="19" x="12" y="217.1479">+Id</text><text fill="#000000" font-family="sans-serif" font-size="11" lengthAdjust="spacingAndGlyphs" textLength="33" x="12" y="229.9526">+Title</text><text fill="#000000" font-family="sans-serif" font-size="11" lengthAdjust="spacingAndGlyphs" textLength="80" x="12" y="242.7573">+ReleaseDate</text><line style="stroke: #A80036; stroke-width: 1.5;" x1="7" x2="142" y1="249.3516" y2="249.3516"/><!--MD5=[148a3002404242a1fb9bf2331f66864f]
class MediaCopy--><rect fill="#FEFECE" filter="url(#fz1enz47f8a49)" height="79.5469" id="MediaCopy" style="stroke: #A80036; stroke-width: 1.5;" width="137" x="6" y="8"/><ellipse cx="21" cy="26.9688" fill="#ADD1B2" rx="11" ry="11" style="stroke: #A80036; stroke-width: 1.0;"/><path d="M23.9688,32.6094 Q23.3906,32.9063 22.75,33.0469 Q22.1094,33.2031 21.4063,33.2031 Q18.9063,33.2031 17.5781,31.5625 Q16.2656,29.9063 16.2656,26.7813 Q16.2656,23.6563 17.5781,22 Q18.9063,20.3438 21.4063,20.3438 Q22.1094,20.3438 22.75,20.5 Q23.4063,20.6563 23.9688,20.9531 L23.9688,23.6719 Q23.3438,23.0938 22.75,22.8281 Q22.1563,22.5469 21.5313,22.5469 Q20.1875,22.5469 19.5,23.625 Q18.8125,24.6875 18.8125,26.7813 Q18.8125,28.875 19.5,29.9531 Q20.1875,31.0156 21.5313,31.0156 Q22.1563,31.0156 22.75,30.75 Q23.3438,30.4688 23.9688,29.8906 L23.9688,32.6094 Z "/><text fill="#000000" font-family="sans-serif" font-size="12" font-style="italic" lengthAdjust="spacingAndGlyphs" textLength="109" x="33" y="24.1387">«AggregateRoot»</text><text fill="#000000" font-family="sans-serif" font-size="12" lengthAdjust="spacingAndGlyphs" textLength="67" x="54" y="38.1074">MediaCopy</text><line style="stroke: #A80036; stroke-width: 1.5;" x1="7" x2="142" y1="45.9375" y2="45.9375"/><text fill="#000000" font-family="sans-serif" font-size="11" lengthAdjust="spacingAndGlyphs" textLength="19" x="12" y="60.1479">+Id</text><text fill="#000000" font-family="sans-serif" font-size="11" lengthAdjust="spacingAndGlyphs" textLength="56" x="12" y="72.9526">+Location</text><line style="stroke: #A80036; stroke-width: 1.5;" x1="7" x2="142" y1="79.5469" y2="79.5469"/><!--MD5=[45bc2ed3d1efce51d6e5e8f0ca873e96]
class CollectionGroup--><rect fill="#FEFECE" filter="url(#fz1enz47f8a49)" height="79.5469" id="CollectionGroup" style="stroke: #A80036; stroke-width: 1.5;" width="137" x="451" y="8"/><ellipse cx="466" cy="26.9688" fill="#ADD1B2" rx="11" ry="11" style="stroke: #A80036; stroke-width: 1.0;"/><path d="M468.9688,32.6094 Q468.3906,32.9063 467.75,33.0469 Q467.1094,33.2031 466.4063,33.2031 Q463.9063,33.2031 462.5781,31.5625 Q461.2656,29.9063 461.2656,26.7813 Q461.2656,23.6563 462.5781,22 Q463.9063,20.3438 466.4063,20.3438 Q467.1094,20.3438 467.75,20.5 Q468.4063,20.6563 468.9688,20.9531 L468.9688,23.6719 Q468.3438,23.0938 467.75,22.8281 Q467.1563,22.5469 466.5313,22.5469 Q465.1875,22.5469 464.5,23.625 Q463.8125,24.6875 463.8125,26.7813 Q463.8125,28.875 464.5,29.9531 Q465.1875,31.0156 466.5313,31.0156 Q467.1563,31.0156 467.75,30.75 Q468.3438,30.4688 468.9688,29.8906 L468.9688,32.6094 Z "/><text fill="#000000" font-family="sans-serif" font-size="12" font-style="italic" lengthAdjust="spacingAndGlyphs" textLength="109" x="478" y="24.1387">«AggregateRoot»</text><text fill="#000000" font-family="sans-serif" font-size="12" lengthAdjust="spacingAndGlyphs" textLength="99" x="483" y="38.1074">CollectionGroup</text><line style="stroke: #A80036; stroke-width: 1.5;" x1="452" x2="587" y1="45.9375" y2="45.9375"/><text fill="#000000" font-family="sans-serif" font-size="11" lengthAdjust="spacingAndGlyphs" textLength="19" x="457" y="60.1479">+Id</text><text fill="#000000" font-family="sans-serif" font-size="11" lengthAdjust="spacingAndGlyphs" textLength="33" x="457" y="72.9526">+Title</text><line style="stroke: #A80036; stroke-width: 1.5;" x1="452" x2="587" y1="79.5469" y2="79.5469"/><!--MD5=[1a95835255177050dd8028a7da1b3a6a]
class Contributor--><rect fill="#FEFECE" filter="url(#fz1enz47f8a49)" height="79.5469" id="Contributor" style="stroke: #A80036; stroke-width: 1.5;" width="137" x="215" y="616"/><ellipse cx="230" cy="634.9688" fill="#ADD1B2" rx="11" ry="11" style="stroke: #A80036; stroke-width: 1.0;"/><path d="M232.9688,640.6094 Q232.3906,640.9063 231.75,641.0469 Q231.1094,641.2031 230.4063,641.2031 Q227.9063,641.2031 226.5781,639.5625 Q225.2656,637.9063 225.2656,634.7813 Q225.2656,631.6563 226.5781,630 Q227.9063,628.3438 230.4063,628.3438 Q231.1094,628.3438 231.75,628.5 Q232.4063,628.6563 232.9688,628.9531 L232.9688,631.6719 Q232.3438,631.0938 231.75,630.8281 Q231.1563,630.5469 230.5313,630.5469 Q229.1875,630.5469 228.5,631.625 Q227.8125,632.6875 227.8125,634.7813 Q227.8125,636.875 228.5,637.9531 Q229.1875,639.0156 230.5313,639.0156 Q231.1563,639.0156 231.75,638.75 Q232.3438,638.4688 232.9688,637.8906 L232.9688,640.6094 Z "/><text fill="#000000" font-family="sans-serif" font-size="12" font-style="italic" lengthAdjust="spacingAndGlyphs" textLength="109" x="242" y="632.1387">«AggregateRoot»</text><text fill="#000000" font-family="sans-serif" font-size="12" lengthAdjust="spacingAndGlyphs" textLength="71" x="261" y="646.1074">Contributor</text><line style="stroke: #A80036; stroke-width: 1.5;" x1="216" x2="351" y1="653.9375" y2="653.9375"/><text fill="#000000" font-family="sans-serif" font-size="11" lengthAdjust="spacingAndGlyphs" textLength="19" x="221" y="668.1479">+Id</text><text fill="#000000" font-family="sans-serif" font-size="11" lengthAdjust="spacingAndGlyphs" textLength="42" x="221" y="680.9526">+Name</text><line style="stroke: #A80036; stroke-width: 1.5;" x1="216" x2="351" y1="687.5469" y2="687.5469"/><!--MD5=[fd7366e9f96236d9aa60dcc04f2b83e5]
class Content--><rect fill="#FEFECE" filter="url(#fz1enz47f8a49)" height="48" id="Content" style="stroke: #A80036; stroke-width: 1.5;" width="82" x="65.5" y="491"/><ellipse cx="80.5" cy="507" fill="#ADD1B2" rx="11" ry="11" style="stroke: #A80036; stroke-width: 1.0;"/><path d="M83.4688,512.6406 Q82.8906,512.9375 82.25,513.0781 Q81.6094,513.2344 80.9063,513.2344 Q78.4063,513.2344 77.0781,511.5938 Q75.7656,509.9375 75.7656,506.8125 Q75.7656,503.6875 77.0781,502.0313 Q78.4063,500.375 80.9063,500.375 Q81.6094,500.375 82.25,500.5313 Q82.9063,500.6875 83.4688,500.9844 L83.4688,503.7031 Q82.8438,503.125 82.25,502.8594 Q81.6563,502.5781 81.0313,502.5781 Q79.6875,502.5781 79,503.6563 Q78.3125,504.7188 78.3125,506.8125 Q78.3125,508.9063 79,509.9844 Q79.6875,511.0469 81.0313,511.0469 Q81.6563,511.0469 82.25,510.7813 Q82.8438,510.5 83.4688,509.9219 L83.4688,512.6406 Z "/><text fill="#000000" font-family="sans-serif" font-size="12" lengthAdjust="spacingAndGlyphs" textLength="50" x="94.5" y="511.1543">Content</text><line style="stroke: #A80036; stroke-width: 1.5;" x1="66.5" x2="146.5" y1="523" y2="523"/><line style="stroke: #A80036; stroke-width: 1.5;" x1="66.5" x2="146.5" y1="531" y2="531"/><!--MD5=[9e73ca2041b22575b2d551193cb62c11]
class PlayableContent--><rect fill="#FEFECE" filter="url(#fz1enz47f8a49)" height="48" id="PlayableContent" style="stroke: #A80036; stroke-width: 1.5;" width="134" x="39.5" y="632"/><ellipse cx="54.5" cy="648" fill="#ADD1B2" rx="11" ry="11" style="stroke: #A80036; stroke-width: 1.0;"/><path d="M57.4688,653.6406 Q56.8906,653.9375 56.25,654.0781 Q55.6094,654.2344 54.9063,654.2344 Q52.4063,654.2344 51.0781,652.5938 Q49.7656,650.9375 49.7656,647.8125 Q49.7656,644.6875 51.0781,643.0313 Q52.4063,641.375 54.9063,641.375 Q55.6094,641.375 56.25,641.5313 Q56.9063,641.6875 57.4688,641.9844 L57.4688,644.7031 Q56.8438,644.125 56.25,643.8594 Q55.6563,643.5781 55.0313,643.5781 Q53.6875,643.5781 53,644.6563 Q52.3125,645.7188 52.3125,647.8125 Q52.3125,649.9063 53,650.9844 Q53.6875,652.0469 55.0313,652.0469 Q55.6563,652.0469 56.25,651.7813 Q56.8438,651.5 57.4688,650.9219 L57.4688,653.6406 Z "/><text fill="#000000" font-family="sans-serif" font-size="12" lengthAdjust="spacingAndGlyphs" textLength="102" x="68.5" y="652.1543">PlayableContent</text><line style="stroke: #A80036; stroke-width: 1.5;" x1="40.5" x2="172.5" y1="664" y2="664"/><line style="stroke: #A80036; stroke-width: 1.5;" x1="40.5" x2="172.5" y1="672" y2="672"/><!--MD5=[0330879a1a385efee19ba3488ed490fa]
class Contribution--><rect fill="#FEFECE" filter="url(#fz1enz47f8a49)" height="48" id="Contribution" style="stroke: #A80036; stroke-width: 1.5;" width="109" x="229" y="491"/><ellipse cx="244" cy="507" fill="#ADD1B2" rx="11" ry="11" style="stroke: #A80036; stroke-width: 1.0;"/><path d="M246.9688,512.6406 Q246.3906,512.9375 245.75,513.0781 Q245.1094,513.2344 244.4063,513.2344 Q241.9063,513.2344 240.5781,511.5938 Q239.2656,509.9375 239.2656,506.8125 Q239.2656,503.6875 240.5781,502.0313 Q241.9063,500.375 244.4063,500.375 Q245.1094,500.375 245.75,500.5313 Q246.4063,500.6875 246.9688,500.9844 L246.9688,503.7031 Q246.3438,503.125 245.75,502.8594 Q245.1563,502.5781 244.5313,502.5781 Q243.1875,502.5781 242.5,503.6563 Q241.8125,504.7188 241.8125,506.8125 Q241.8125,508.9063 242.5,509.9844 Q243.1875,511.0469 244.5313,511.0469 Q245.1563,511.0469 245.75,510.7813 Q246.3438,510.5 246.9688,509.9219 L246.9688,512.6406 Z "/><text fill="#000000" font-family="sans-serif" font-size="12" lengthAdjust="spacingAndGlyphs" textLength="77" x="258" y="511.1543">Contribution</text><line style="stroke: #A80036; stroke-width: 1.5;" x1="230" x2="337" y1="523" y2="523"/><line style="stroke: #A80036; stroke-width: 1.5;" x1="230" x2="337" y1="531" y2="531"/><!--MD5=[1544e71f2cb389b780e9180c5c78ad2d]
class CollectionGroupMembership--><rect fill="#FEFECE" filter="url(#fz1enz47f8a49)" height="48" id="CollectionGroupMembership" style="stroke: #A80036; stroke-width: 1.5;" width="207" x="416" y="187"/><ellipse cx="431" cy="203" fill="#ADD1B2" rx="11" ry="11" style="stroke: #A80036; stroke-width: 1.0;"/><path d="M433.9688,208.6406 Q433.3906,208.9375 432.75,209.0781 Q432.1094,209.2344 431.4063,209.2344 Q428.9063,209.2344 427.5781,207.5938 Q426.2656,205.9375 426.2656,202.8125 Q426.2656,199.6875 427.5781,198.0313 Q428.9063,196.375 431.4063,196.375 Q432.1094,196.375 432.75,196.5313 Q433.4063,196.6875 433.9688,196.9844 L433.9688,199.7031 Q433.3438,199.125 432.75,198.8594 Q432.1563,198.5781 431.5313,198.5781 Q430.1875,198.5781 429.5,199.6563 Q428.8125,200.7188 428.8125,202.8125 Q428.8125,204.9063 429.5,205.9844 Q430.1875,207.0469 431.5313,207.0469 Q432.1563,207.0469 432.75,206.7813 Q433.3438,206.5 433.9688,205.9219 L433.9688,208.6406 Z "/><text fill="#000000" font-family="sans-serif" font-size="12" lengthAdjust="spacingAndGlyphs" textLength="175" x="445" y="207.1543">CollectionGroupMembership</text><line style="stroke: #A80036; stroke-width: 1.5;" x1="417" x2="622" y1="219" y2="219"/><line style="stroke: #A80036; stroke-width: 1.5;" x1="417" x2="622" y1="227" y2="227"/><!--MD5=[2a0e6f3083803ff4799f87740b9e7a87]
class EditionContent--><rect fill="#FEFECE" filter="url(#fz1enz47f8a49)" height="48" id="EditionContent" style="stroke: #A80036; stroke-width: 1.5;" width="125" x="16" y="350"/><ellipse cx="31" cy="366" fill="#ADD1B2" rx="11" ry="11" style="stroke: #A80036; stroke-width: 1.0;"/><path d="M33.9688,371.6406 Q33.3906,371.9375 32.75,372.0781 Q32.1094,372.2344 31.4063,372.2344 Q28.9063,372.2344 27.5781,370.5938 Q26.2656,368.9375 26.2656,365.8125 Q26.2656,362.6875 27.5781,361.0313 Q28.9063,359.375 31.4063,359.375 Q32.1094,359.375 32.75,359.5313 Q33.4063,359.6875 33.9688,359.9844 L33.9688,362.7031 Q33.3438,362.125 32.75,361.8594 Q32.1563,361.5781 31.5313,361.5781 Q30.1875,361.5781 29.5,362.6563 Q28.8125,363.7188 28.8125,365.8125 Q28.8125,367.9063 29.5,368.9844 Q30.1875,370.0469 31.5313,370.0469 Q32.1563,370.0469 32.75,369.7813 Q33.3438,369.5 33.9688,368.9219 L33.9688,371.6406 Z "/><text fill="#000000" font-family="sans-serif" font-size="12" lengthAdjust="spacingAndGlyphs" textLength="93" x="45" y="370.1543">EditionContent</text><line style="stroke: #A80036; stroke-width: 1.5;" x1="17" x2="140" y1="382" y2="382"/><line style="stroke: #A80036; stroke-width: 1.5;" x1="17" x2="140" y1="390" y2="390"/><path d="M387,338.5 L387,370 L352.21,374 L387,378 L387,409.0313 A0,0 0 0 0 387,409.0313 L622,409.0313 A0,0 0 0 0 622,409.0313 L622,348.5 L612,338.5 L387,338.5 A0,0 0 0 0 387,338.5 " fill="#FBFB77" filter="url(#fz1enz47f8a49)" style="stroke: #A80036; stroke-width: 1.0;"/><path d="M612,338.5 L612,348.5 L622,348.5 L612,338.5 " fill="#FBFB77" style="stroke: #A80036; stroke-width: 1.0;"/><text fill="#000000" font-family="sans-serif" font-size="13" lengthAdjust="spacingAndGlyphs" textLength="214" x="393" y="355.5669">- MediaWork uses MediaStructure</text><text fill="#000000" font-family="sans-serif" font-size="13" lengthAdjust="spacingAndGlyphs" textLength="153" x="401" y="370.6997">polymorphism internally</text><text fill="#000000" font-family="sans-serif" font-size="13" lengthAdjust="spacingAndGlyphs" textLength="182" x="393" y="385.8325">- Owns all Content related to</text><text fill="#000000" font-family="sans-serif" font-size="13" lengthAdjust="spacingAndGlyphs" textLength="96" x="401" y="400.9653">this MediaWork</text><path d="M178.5,183.5 L178.5,207 L143.05,211 L178.5,215 L178.5,238.8984 A0,0 0 0 0 178.5,238.8984 L380.5,238.8984 A0,0 0 0 0 380.5,238.8984 L380.5,193.5 L370.5,183.5 L178.5,183.5 A0,0 0 0 0 178.5,183.5 " fill="#FBFB77" filter="url(#fz1enz47f8a49)" style="stroke: #A80036; stroke-width: 1.0;"/><path d="M370.5,183.5 L370.5,193.5 L380.5,193.5 L370.5,183.5 " fill="#FBFB77" style="stroke: #A80036; stroke-width: 1.0;"/><text fill="#000000" font-family="sans-serif" font-size="13" lengthAdjust="spacingAndGlyphs" textLength="181" x="184.5" y="200.5669">- Edition links to MediaWorks</text><text fill="#000000" font-family="sans-serif" font-size="13" lengthAdjust="spacingAndGlyphs" textLength="132" x="192.5" y="215.6997">and their content via</text><text fill="#000000" font-family="sans-serif" font-size="13" lengthAdjust="spacingAndGlyphs" textLength="94" x="192.5" y="230.8325">EditionContent</text><path d="M178.5,28 L178.5,44 L143.01,48 L178.5,52 L178.5,68.2656 A0,0 0 0 0 178.5,68.2656 L392.5,68.2656 A0,0 0 0 0 392.5,68.2656 L392.5,38 L382.5,28 L178.5,28 A0,0 0 0 0 178.5,28 " fill="#FBFB77" filter="url(#fz1enz47f8a49)" style="stroke: #A80036; stroke-width: 1.0;"/><path d="M382.5,28 L382.5,38 L392.5,38 L382.5,28 " fill="#FBFB77" style="stroke: #A80036; stroke-width: 1.0;"/><text fill="#000000" font-family="sans-serif" font-size="13" lengthAdjust="spacingAndGlyphs" textLength="193" x="184.5" y="45.0669">- Owned instance of an Edition</text><text fill="#000000" font-family="sans-serif" font-size="13" lengthAdjust="spacingAndGlyphs" textLength="185" x="184.5" y="60.1997">- Location and Notes tracked</text><!--MD5=[7b208c38cbbdca26fcb7e8880d710ea0]
link CollectionGroup to CollectionGroupMembership--><path d="M519.5,88.29 C519.5,88.29 519.5,181.83 519.5,181.83 " fill="none" id="CollectionGroup-&gt;CollectionGroupMembership" style="stroke: #A80036; stroke-width: 1.0;"/><polygon fill="#A80036" points="519.5,186.83,523.5,177.83,519.5,181.83,515.5,177.83,519.5,186.83" style="stroke: #A80036; stroke-width: 1.0;"/><text fill="#000000" font-family="sans-serif" font-size="13" lengthAdjust="spacingAndGlyphs" textLength="54" x="520.5" y="131.0669">contains</text><!--MD5=[029b0f2b0590c17a20dde8c2bbf701f2]
link CollectionGroupMembership to MediaWork--><path d="M519,235.06 C519,242.13 519,248 519,248 C519,248 283.5,248 283.5,248 C283.5,248 283.5,328.79 283.5,328.79 " fill="none" id="CollectionGroupMembership-&gt;MediaWork" style="stroke: #A80036; stroke-width: 1.0;"/><polygon fill="#A80036" points="283.5,333.79,287.5,324.79,283.5,328.79,279.5,324.79,283.5,333.79" style="stroke: #A80036; stroke-width: 1.0;"/><text fill="#000000" font-family="sans-serif" font-size="13" lengthAdjust="spacingAndGlyphs" textLength="68" x="457.5" y="300.0669">references</text><!--MD5=[69d170bc9e7bf07bdd9192a67b429436]
link Edition to MediaWork--><path d="M99.33,257.19 C99.33,294.9 99.33,342 99.33,342 C99.33,342 209.92,342 209.92,342 " fill="none" id="Edition-&gt;MediaWork" style="stroke: #A80036; stroke-width: 1.0; stroke-dasharray: 7.0,7.0;"/><polygon fill="#A80036" points="214.92,342,205.92,338,209.92,342,205.92,346,214.92,342" style="stroke: #A80036; stroke-width: 1.0;"/><text fill="#000000" font-family="sans-serif" font-size="13" lengthAdjust="spacingAndGlyphs" textLength="68" x="284.5" y="300.0669">references</text><!--MD5=[58863ec6cf083fff19df8be0751786f0]
link MediaCopy to Edition--><path d="M74.5,88.29 C74.5,88.29 74.5,159.83 74.5,159.83 " fill="none" id="MediaCopy-&gt;Edition" style="stroke: #A80036; stroke-width: 1.0; stroke-dasharray: 7.0,7.0;"/><polygon fill="#A80036" points="74.5,164.83,78.5,155.83,74.5,159.83,70.5,155.83,74.5,164.83" style="stroke: #A80036; stroke-width: 1.0;"/><text fill="#000000" font-family="sans-serif" font-size="13" lengthAdjust="spacingAndGlyphs" textLength="70" x="75.5" y="131.0669">instance of</text><!--MD5=[d6574b399b91fbb0b5deb84c2ed7156e]
link MediaWork to Content--><path d="M222,414.03 C222,455.71 222,515 222,515 C222,515 152.55,515 152.55,515 " fill="none" id="MediaWork-&gt;Content" style="stroke: #A80036; stroke-width: 1.0;"/><polygon fill="#A80036" points="147.55,515,156.55,519,152.55,515,156.55,511,147.55,515" style="stroke: #A80036; stroke-width: 1.0;"/><text fill="#000000" font-family="sans-serif" font-size="13" lengthAdjust="spacingAndGlyphs" textLength="32" x="207.5" y="457.0669">owns</text><!--MD5=[6f2cdbc98b0558b784c7cac9865fcd06]
reverse link Content to PlayableContent--><path d="M106.5,559.24 C106.5,559.24 106.5,631.61 106.5,631.61 " fill="none" id="Content&lt;-PlayableContent" style="stroke: #A80036; stroke-width: 1.0;"/><polygon fill="none" points="99.5,559.24,106.5,539.24,113.5,559.24,99.5,559.24" style="stroke: #A80036; stroke-width: 1.0;"/><!--MD5=[8a22a3985988d7d130dcd3a8b1335fd0]
link MediaWork to Contribution--><path d="M283.5,414.03 C283.5,414.03 283.5,485.8 283.5,485.8 " fill="none" id="MediaWork-&gt;Contribution" style="stroke: #A80036; stroke-width: 1.0;"/><polygon fill="#A80036" points="283.5,490.8,287.5,481.8,283.5,485.8,279.5,481.8,283.5,490.8" style="stroke: #A80036; stroke-width: 1.0;"/><text fill="#000000" font-family="sans-serif" font-size="13" lengthAdjust="spacingAndGlyphs" textLength="23" x="284.5" y="457.0669">has</text><!--MD5=[96eca555c283861625927cf39bbe0ece]
link Contribution to Contributor--><path d="M283.5,539.24 C283.5,539.24 283.5,610.82 283.5,610.82 " fill="none" id="Contribution-&gt;Contributor" style="stroke: #A80036; stroke-width: 1.0;"/><polygon fill="#A80036" points="283.5,615.82,287.5,606.82,283.5,610.82,279.5,606.82,283.5,615.82" style="stroke: #A80036; stroke-width: 1.0;"/><text fill="#000000" font-family="sans-serif" font-size="13" lengthAdjust="spacingAndGlyphs" textLength="15" x="284.5" y="582.0669">by</text><!--MD5=[3f96bd93655999fad9e6f036dbf8b5c0]
link Edition to EditionContent--><path d="M57.67,257.27 C57.67,257.27 57.67,344.77 57.67,344.77 " fill="none" id="Edition-&gt;EditionContent" style="stroke: #A80036; stroke-width: 1.0;"/><polygon fill="#A80036" points="57.67,349.77,61.67,340.77,57.67,344.77,53.67,340.77,57.67,349.77" style="stroke: #A80036; stroke-width: 1.0;"/><text fill="#000000" font-family="sans-serif" font-size="13" lengthAdjust="spacingAndGlyphs" textLength="167" x="75.5" y="300.0669">contains content mapping</text><!--MD5=[0ca8187d5fb681a72996edbf10bad70b]
link EditionContent to Content--><path d="M103.25,398.24 C103.25,398.24 103.25,485.61 103.25,485.61 " fill="none" id="EditionContent-&gt;Content" style="stroke: #A80036; stroke-width: 1.0; stroke-dasharray: 7.0,7.0;"/><polygon fill="#A80036" points="103.25,490.61,107.25,481.61,103.25,485.61,99.25,481.61,103.25,490.61" style="stroke: #A80036; stroke-width: 1.0;"/><text fill="#000000" font-family="sans-serif" font-size="13" lengthAdjust="spacingAndGlyphs" textLength="68" x="91.5" y="457.0669">references</text><!--MD5=[8c523da5b3c07266d474d5dd21941e8e]
@startuml
skinparam classAttributeIconSize 0
skinparam linetype ortho

class MediaWork <<AggregateRoot>> {
    +Id
    +Title
}

class Edition <<AggregateRoot>> {
    +Id
    +Title
    +ReleaseDate
}

class MediaCopy <<AggregateRoot>> {
    +Id
    +Location
}

class CollectionGroup <<AggregateRoot>> {
    +Id
    +Title
}

class Contributor <<AggregateRoot>> {
    +Id
    +Name
}

class Content
class PlayableContent
class Contribution
class CollectionGroupMembership
class EditionContent

CollectionGroup - -> CollectionGroupMembership : contains
CollectionGroupMembership - -> MediaWork : references

Edition ..> MediaWork : references
MediaCopy ..> Edition : instance of

MediaWork - -> Content : owns
Content <|- - PlayableContent
MediaWork - -> Contribution : has
Contribution - -> Contributor : by

Edition - -> EditionContent : contains content mapping
EditionContent ..> Content : references

note right of MediaWork
- MediaWork uses MediaStructure
  polymorphism internally
- Owns all Content related to
  this MediaWork
end note

note right of Edition
- Edition links to MediaWorks
  and their content via
  EditionContent
end note

note right of MediaCopy
- Owned instance of an Edition
- Location and Notes tracked
end note

@enduml

PlantUML version 1.2020.02(Sun Mar 01 10:22:07 UTC 2020)
(GPL source distribution)
Java Runtime: OpenJDK Runtime Environment
JVM: OpenJDK 64-Bit Server VM
Java Version: 17.0.18+8
Operating System: Linux
Default Encoding: UTF-8
Language: en
Country: null
--></g></svg>