<?xml version="1.0" encoding="UTF-8" standalone="no"?><svg xmlns="http://www.w3.org/2000/svg" xmlns:xlink="http://www.w3.org/1999/xlink" contentScriptType="application/ecmascript" contentStyleType="text/css" height="276px" preserveAspectRatio="none" style="width:319px;height:276px;" version="1.1" viewBox="0 0 319 276" width="319px" zoomAndPan="magnify"><defs><filter height="300%" id="f8vfsy0a53u71" width="300%" x="-1" y="-1"><feGaussianBlur result="blurOut" stdDeviation="2.0"/><feColorMatrix in="blurOut" result="blurOut2" type="matrix" values="0 0 0 0 0 0 0 0 0 0 0 0 0 0 0 0 0 0 .4 0"/><feOffset dx="4.0" dy="4.0" in="blurOut2" result="blurOut3"/><feBlend in="SourceGraphic" in2="blurOut3" mode="normal"/></filter></defs><g><!--MD5=[148a3002404242a1fb9bf2331f66864f]
class MediaCopy--><rect fill="#FEFECE" filter="url(#f8vfsy0a53u71)" height="117.9609" id="MediaCopy" style="stroke: #A80036; stroke-width: 1.5;" width="151" x="6" y="8"/><ellipse cx="27.3" cy="26.9688" fill="#ADD1B2" rx="11" ry="11" style="stroke: #A80036; stroke-width: 1.0;"/><path d="M30.2688,32.6094 Q29.6906,32.9063 29.05,33.0469 Q28.4094,33.2031 27.7063,33.2031 Q25.2063,33.2031 23.8781,31.5625 Q22.5656,29.9063 22.5656,26.7813 Q22.5656,23.6563 23.8781,22 Q25.2063,20.3438 27.7063,20.3438 Q28.4094,20.3438 29.05,20.5 Q29.7063,20.6563 30.2688,20.9531 L30.2688,23.6719 Q29.6438,23.0938 29.05,22.8281 Q28.4563,22.5469 27.8313,22.5469 Q26.4875,22.5469 25.8,23.625 Q25.1125,24.6875 25.1125,26.7813 Q25.1125,28.875 25.8,29.9531 Q26.4875,31.0156 27.8313,31.0156 Q28.4563,31.0156 29.05,30.75 Q29.6438,30.4688 30.2688,29.8906 L30.2688,32.6094 Z "/><text fill="#000000" font-family="sans-serif" font-size="12" font-style="italic" lengthAdjust="spacingAndGlyphs" textLength="109" x="40.7" y="24.1387">«AggregateRoot»</text><text fill="#000000" font-family="sans-serif" font-size="12" lengthAdjust="spacingAndGlyphs" textLength="67" x="61.7" y="38.1074">MediaCopy</text><line style="stroke: #A80036; stroke-width: 1.5;" x1="7" x2="156" y1="45.9375" y2="45.9375"/><text fill="#000000" font-family="sans-serif" font-size="11" lengthAdjust="spacingAndGlyphs" textLength="54" x="12" y="60.1479">+Id: UUID</text><text fill="#000000" font-family="sans-serif" font-size="11" lengthAdjust="spacingAndGlyphs" textLength="92" x="12" y="72.9526">+EditionId: UUID</text><text fill="#000000" font-family="sans-serif" font-size="11" lengthAdjust="spacingAndGlyphs" textLength="111" x="12" y="85.7573">+Location: Location</text><text fill="#000000" font-family="sans-serif" font-size="11" lengthAdjust="spacingAndGlyphs" textLength="114" x="12" y="98.562">+Notes: List&lt;Note&gt;</text><text fill="#000000" font-family="sans-serif" font-size="11" lengthAdjust="spacingAndGlyphs" textLength="139" x="12" y="111.3667">+DateAdded?: LocalDate</text><line style="stroke: #A80036; stroke-width: 1.5;" x1="7" x2="156" y1="117.9609" y2="117.9609"/><!--MD5=[4f1f3706c1a355a8488e154afcaed5df]
class Location--><rect fill="#FEFECE" filter="url(#f8vfsy0a53u71)" height="66.7422" id="Location" style="stroke: #A80036; stroke-width: 1.5;" width="116" x="192.5" y="33.5"/><ellipse cx="207.5" cy="52.4688" fill="#ADD1B2" rx="11" ry="11" style="stroke: #A80036; stroke-width: 1.0;"/><path d="M210.4688,58.1094 Q209.8906,58.4063 209.25,58.5469 Q208.6094,58.7031 207.9063,58.7031 Q205.4063,58.7031 204.0781,57.0625 Q202.7656,55.4063 202.7656,52.2813 Q202.7656,49.1563 204.0781,47.5 Q205.4063,45.8438 207.9063,45.8438 Q208.6094,45.8438 209.25,46 Q209.9063,46.1563 210.4688,46.4531 L210.4688,49.1719 Q209.8438,48.5938 209.25,48.3281 Q208.6563,48.0469 208.0313,48.0469 Q206.6875,48.0469 206,49.125 Q205.3125,50.1875 205.3125,52.2813 Q205.3125,54.375 206,55.4531 Q206.6875,56.5156 208.0313,56.5156 Q208.6563,56.5156 209.25,56.25 Q209.8438,55.9688 210.4688,55.3906 L210.4688,58.1094 Z "/><text fill="#000000" font-family="sans-serif" font-size="12" font-style="italic" lengthAdjust="spacingAndGlyphs" textLength="88" x="219.5" y="49.6387">«ValueObject»</text><text fill="#000000" font-family="sans-serif" font-size="12" lengthAdjust="spacingAndGlyphs" textLength="53" x="237" y="63.6074">Location</text><line style="stroke: #A80036; stroke-width: 1.5;" x1="193.5" x2="307.5" y1="71.4375" y2="71.4375"/><text fill="#000000" font-family="sans-serif" font-size="11" lengthAdjust="spacingAndGlyphs" textLength="83" x="198.5" y="85.6479">+Name: string</text><line style="stroke: #A80036; stroke-width: 1.5;" x1="193.5" x2="307.5" y1="92.2422" y2="92.2422"/><!--MD5=[5d3c9bb25b1b07c105e03cfa5bc0b7ee]
class Note--><rect fill="#FEFECE" filter="url(#f8vfsy0a53u71)" height="79.5469" id="Note" style="stroke: #A80036; stroke-width: 1.5;" width="139" x="12" y="186"/><ellipse cx="37.35" cy="204.9688" fill="#ADD1B2" rx="11" ry="11" style="stroke: #A80036; stroke-width: 1.0;"/><path d="M40.3188,210.6094 Q39.7406,210.9063 39.1,211.0469 Q38.4594,211.2031 37.7563,211.2031 Q35.2563,211.2031 33.9281,209.5625 Q32.6156,207.9063 32.6156,204.7813 Q32.6156,201.6563 33.9281,200 Q35.2563,198.3438 37.7563,198.3438 Q38.4594,198.3438 39.1,198.5 Q39.7563,198.6563 40.3188,198.9531 L40.3188,201.6719 Q39.6938,201.0938 39.1,200.8281 Q38.5063,200.5469 37.8813,200.5469 Q36.5375,200.5469 35.85,201.625 Q35.1625,202.6875 35.1625,204.7813 Q35.1625,206.875 35.85,207.9531 Q36.5375,209.0156 37.8813,209.0156 Q38.5063,209.0156 39.1,208.75 Q39.6938,208.4688 40.3188,207.8906 L40.3188,210.6094 Z "/><text fill="#000000" font-family="sans-serif" font-size="12" font-style="italic" lengthAdjust="spacingAndGlyphs" textLength="88" x="51.65" y="202.1387">«ValueObject»</text><text fill="#000000" font-family="sans-serif" font-size="12" lengthAdjust="spacingAndGlyphs" textLength="30" x="80.65" y="216.1074">Note</text><line style="stroke: #A80036; stroke-width: 1.5;" x1="13" x2="150" y1="223.9375" y2="223.9375"/><text fill="#000000" font-family="sans-serif" font-size="11" lengthAdjust="spacingAndGlyphs" textLength="74" x="18" y="238.1479">+Text: string</text><text fill="#000000" font-family="sans-serif" font-size="11" lengthAdjust="spacingAndGlyphs" textLength="127" x="18" y="250.9526">+CreatedAt: DateTime</text><line style="stroke: #A80036; stroke-width: 1.5;" x1="13" x2="150" y1="257.5469" y2="257.5469"/><!--MD5=[07e4e16f15b61eddf53326128228f821]
link MediaCopy to Location--><!--MD5=[3d73fe65c06dcab68fac4f5778267488]
link MediaCopy to Note--><!--MD5=[926d11e5bb2f9513b97bc46cc5e8a408]
@startuml
skinparam classAttributeIconSize 0

class MediaCopy <<AggregateRoot>> {
    +Id: UUID
    +EditionId: UUID
    +Location: Location
    +Notes: List<Note>
    +DateAdded?: LocalDate
}

class Location <<ValueObject>> {
    +Name: string
}

class Note <<ValueObject>> {
    +Text: string
    +CreatedAt: DateTime
}

@enduml

PlantUML version 1.2020.02(Sun Mar 01 10:22:07 UTC 2020)
(GPL source distribution)
Java Runtime: OpenJDK Runtime Environment
JVM: OpenJDK 64-Bit Server VM
Java Version: 17.0.18+8
Operating System: Linux
Default Encoding: UTF-8
Language: en
Country: null
--></g></svg>