<?xml version="1.0" encoding="UTF-8" standalone="no"?><svg xmlns="http://www.w3.org/2000/svg" xmlns:xlink="http://www.w3.org/1999/xlink" contentScriptType="application/ecmascript" contentStyleType="text/css" height="769px" preserveAspectRatio="none" style="width:1172px;height:769px;" version="1.1" viewBox="0 0 1172 769" width="1172px" zoomAndPan="magnify"><defs><filter height="300%" id="f18g5pcjku9e3u" width="300%" x="-1" y="-1"><feGaussianBlur result="blurOut" stdDeviation="2.0"/><feColorMatrix in="blurOut" result="blurOut2" type="matrix" values="0 0 0 0 0 0 0 0 0 0 0 0 0 0 0 0 0 0 .4 0"/><feOffset dx="4.0" dy="4.0" in="blurOut2" result="blurOut3"/><feBlend in="SourceGraphic" in2="blurOut3" mode="normal"/></filter></defs><g><!--MD5=[c3dd83c4944f050787f4b644933234ea]
class MediaWork--><rect fill="#FEFECE" filter="url(#f18g5pcjku9e3u)" height="181.9844" id="MediaWork" style="stroke: #A80036; stroke-width: 1.5;" width="233" x="694.5" y="214"/><ellipse cx="754.25" cy="232.9688" fill="#A9DCDF" rx="11" ry="11" style="stroke: #A80036; stroke-width: 1.0;"/><path d="M754.3594,228.3125 L753.2031,233.3906 L755.5313,233.3906 L754.3594,228.3125 Z M752.875,226.0781 L755.8594,226.0781 L759.2188,238.4688 L756.7656,238.4688 L756,235.4063 L752.7188,235.4063 L751.9688,238.4688 L749.5313,238.4688 L752.875,226.0781 Z "/><text fill="#000000" font-family="sans-serif" font-size="12" font-style="italic" lengthAdjust="spacingAndGlyphs" textLength="109" x="772.75" y="230.1387">«AggregateRoot»</text><text fill="#000000" font-family="sans-serif" font-size="12" font-style="italic" lengthAdjust="spacingAndGlyphs" textLength="69" x="792.75" y="244.1074">MediaWork</text><line style="stroke: #A80036; stroke-width: 1.5;" x1="695.5" x2="926.5" y1="251.9375" y2="251.9375"/><text fill="#000000" font-family="sans-serif" font-size="11" lengthAdjust="spacingAndGlyphs" textLength="54" x="700.5" y="266.1479">+Id: UUID</text><text fill="#000000" font-family="sans-serif" font-size="11" lengthAdjust="spacingAndGlyphs" textLength="74" x="700.5" y="278.9526">+Title: string</text><text fill="#000000" font-family="sans-serif" font-size="11" lengthAdjust="spacingAndGlyphs" textLength="187" x="700.5" y="291.7573">+OriginalReleaseDate: LocalDate</text><text fill="#000000" font-family="sans-serif" font-size="11" lengthAdjust="spacingAndGlyphs" textLength="199" x="700.5" y="304.562">-_contributions: List&lt;Contribution&gt;</text><text fill="#000000" font-family="sans-serif" font-size="11" lengthAdjust="spacingAndGlyphs" textLength="221" x="700.5" y="317.3667">#_creatorRoles: List&lt;ContributorRole&gt;</text><line style="stroke: #A80036; stroke-width: 1.0;" x1="695.5" x2="926.5" y1="323.9609" y2="323.9609"/><text fill="#000000" font-family="sans-serif" font-size="11" lengthAdjust="spacingAndGlyphs" textLength="178" x="700.5" y="338.1714">+AddContribution(id, role): void</text><text fill="#000000" font-family="sans-serif" font-size="11" lengthAdjust="spacingAndGlyphs" textLength="172" x="700.5" y="350.9761">+RemoveContribution(id): void</text><text fill="#000000" font-family="sans-serif" font-size="11" lengthAdjust="spacingAndGlyphs" textLength="117" x="700.5" y="363.7808">+AddEdition(id): void</text><text fill="#000000" font-family="sans-serif" font-size="11" lengthAdjust="spacingAndGlyphs" textLength="141" x="700.5" y="376.5854">+RemoveEdition(id): void</text><text fill="#000000" font-family="sans-serif" font-size="11" lengthAdjust="spacingAndGlyphs" textLength="148" x="700.5" y="389.3901">+IsCreatorRole(role): bool</text><path d="M475,8 L475,154.1953 A0,0 0 0 0 475,154.1953 L680.04,154.1953 L734.46,213.62 L688.04,154.1953 L771,154.1953 A0,0 0 0 0 771,154.1953 L771,18 L761,8 L475,8 A0,0 0 0 0 475,8 " fill="#FBFB77" filter="url(#f18g5pcjku9e3u)" style="stroke: #A80036; stroke-width: 1.0;"/><path d="M761,8 L761,18 L771,18 L761,8 " fill="#FBFB77" style="stroke: #A80036; stroke-width: 1.0;"/><text fill="#000000" font-family="sans-serif" font-size="13" lengthAdjust="spacingAndGlyphs" textLength="59" x="481" y="25.0669">Invariant:</text><text fill="#000000" font-family="sans-serif" font-size="13" lengthAdjust="spacingAndGlyphs" textLength="237" x="481" y="40.1997">- Must have at least one Contribution</text><text fill="#000000" font-family="sans-serif" font-size="13" lengthAdjust="spacingAndGlyphs" textLength="267" x="489" y="55.3325">where concrete MediaWork considers Role</text><text fill="#000000" font-family="sans-serif" font-size="13" lengthAdjust="spacingAndGlyphs" textLength="234" x="489" y="70.4653">a creator (member of _creatorRoles)</text><text fill="#000000" font-family="sans-serif" font-size="13" lengthAdjust="spacingAndGlyphs" textLength="185" x="481" y="85.5981">- Cannot remove last creator</text><text fill="#000000" font-family="sans-serif" font-size="13" lengthAdjust="spacingAndGlyphs" textLength="240" x="481" y="100.731">- Cannot remove Edition if MediaCopy</text><text fill="#000000" font-family="sans-serif" font-size="13" lengthAdjust="spacingAndGlyphs" textLength="239" x="489" y="115.8638">exists referencing it (cross-aggregate</text><text fill="#000000" font-family="sans-serif" font-size="13" lengthAdjust="spacingAndGlyphs" textLength="208" x="489" y="130.9966">constraint, enforce in application</text><text fill="#000000" font-family="sans-serif" font-size="13" lengthAdjust="spacingAndGlyphs" textLength="36" x="489" y="146.1294">layer)</text><!--MD5=[a37707a5a7e4fa9ccccea367e3a415b8]
class Edition--><rect fill="#FEFECE" filter="url(#f18g5pcjku9e3u)" height="92.3516" id="Edition" style="stroke: #A80036; stroke-width: 1.5;" width="155" x="590.5" y="469"/><ellipse cx="640.75" cy="487.9688" fill="#A9DCDF" rx="11" ry="11" style="stroke: #A80036; stroke-width: 1.0;"/><path d="M640.8594,483.3125 L639.7031,488.3906 L642.0313,488.3906 L640.8594,483.3125 Z M639.375,481.0781 L642.3594,481.0781 L645.7188,493.4688 L643.2656,493.4688 L642.5,490.4063 L639.2188,490.4063 L638.4688,493.4688 L636.0313,493.4688 L639.375,481.0781 Z "/><text fill="#000000" font-family="sans-serif" font-size="12" font-style="italic" lengthAdjust="spacingAndGlyphs" textLength="50" x="659.25" y="485.1387">«Entity»</text><text fill="#000000" font-family="sans-serif" font-size="12" font-style="italic" lengthAdjust="spacingAndGlyphs" textLength="43" x="662.75" y="499.1074">Edition</text><line style="stroke: #A80036; stroke-width: 1.5;" x1="591.5" x2="744.5" y1="506.9375" y2="506.9375"/><text fill="#000000" font-family="sans-serif" font-size="11" lengthAdjust="spacingAndGlyphs" textLength="54" x="596.5" y="521.1479">+Id: UUID</text><text fill="#000000" font-family="sans-serif" font-size="11" lengthAdjust="spacingAndGlyphs" textLength="143" x="596.5" y="533.9526">+ReleaseDate: LocalDate</text><text fill="#000000" font-family="sans-serif" font-size="11" lengthAdjust="spacingAndGlyphs" textLength="120" x="596.5" y="546.7573">+Extras: List&lt;Extra&gt;</text><line style="stroke: #A80036; stroke-width: 1.5;" x1="591.5" x2="744.5" y1="553.3516" y2="553.3516"/><path d="M519.5,669 L519.5,724.3984 A0,0 0 0 0 519.5,724.3984 L816.5,724.3984 A0,0 0 0 0 816.5,724.3984 L816.5,679 L806.5,669 L672,669 L668,561.3 L664,669 L519.5,669 A0,0 0 0 0 519.5,669 " fill="#FBFB77" filter="url(#f18g5pcjku9e3u)" style="stroke: #A80036; stroke-width: 1.0;"/><path d="M806.5,669 L806.5,679 L816.5,679 L806.5,669 " fill="#FBFB77" style="stroke: #A80036; stroke-width: 1.0;"/><text fill="#000000" font-family="sans-serif" font-size="13" lengthAdjust="spacingAndGlyphs" textLength="59" x="525.5" y="686.0669">Invariant:</text><text fill="#000000" font-family="sans-serif" font-size="13" lengthAdjust="spacingAndGlyphs" textLength="276" x="525.5" y="701.1997">- Edition must always belong to exactly one</text><text fill="#000000" font-family="sans-serif" font-size="13" lengthAdjust="spacingAndGlyphs" textLength="69" x="525.5" y="716.3325">MediaWork</text><!--MD5=[0330879a1a385efee19ba3488ed490fa]
class Contribution--><rect fill="#FEFECE" filter="url(#f18g5pcjku9e3u)" height="92.3516" id="Contribution" style="stroke: #A80036; stroke-width: 1.5;" width="141" x="780.5" y="469"/><ellipse cx="809.9" cy="487.9688" fill="#ADD1B2" rx="11" ry="11" style="stroke: #A80036; stroke-width: 1.0;"/><path d="M812.8688,493.6094 Q812.2906,493.9063 811.65,494.0469 Q811.0094,494.2031 810.3063,494.2031 Q807.8063,494.2031 806.4781,492.5625 Q805.1656,490.9063 805.1656,487.7813 Q805.1656,484.6563 806.4781,483 Q807.8063,481.3438 810.3063,481.3438 Q811.0094,481.3438 811.65,481.5 Q812.3063,481.6563 812.8688,481.9531 L812.8688,484.6719 Q812.2438,484.0938 811.65,483.8281 Q811.0563,483.5469 810.4313,483.5469 Q809.0875,483.5469 808.4,484.625 Q807.7125,485.6875 807.7125,487.7813 Q807.7125,489.875 808.4,490.9531 Q809.0875,492.0156 810.4313,492.0156 Q811.0563,492.0156 811.65,491.75 Q812.2438,491.4688 812.8688,490.8906 L812.8688,493.6094 Z "/><text fill="#000000" font-family="sans-serif" font-size="12" font-style="italic" lengthAdjust="spacingAndGlyphs" textLength="50" x="840.6" y="485.1387">«Entity»</text><text fill="#000000" font-family="sans-serif" font-size="12" lengthAdjust="spacingAndGlyphs" textLength="77" x="827.1" y="499.1074">Contribution</text><line style="stroke: #A80036; stroke-width: 1.5;" x1="781.5" x2="920.5" y1="506.9375" y2="506.9375"/><text fill="#000000" font-family="sans-serif" font-size="11" lengthAdjust="spacingAndGlyphs" textLength="54" x="786.5" y="521.1479">+Id: UUID</text><text fill="#000000" font-family="sans-serif" font-size="11" lengthAdjust="spacingAndGlyphs" textLength="118" x="786.5" y="533.9526">+ContributorId: UUID</text><text fill="#000000" font-family="sans-serif" font-size="11" lengthAdjust="spacingAndGlyphs" textLength="129" x="786.5" y="546.7573">+Role: ContributorRole</text><line style="stroke: #A80036; stroke-width: 1.5;" x1="781.5" x2="920.5" y1="553.3516" y2="553.3516"/><!--MD5=[dd2cb4d4918b743616ebdb19b9302e86]
class ContributorRole--><rect fill="#FEFECE" filter="url(#f18g5pcjku9e3u)" height="66.7422" id="ContributorRole" style="stroke: #A80036; stroke-width: 1.5;" width="130" x="6" y="47.5"/><ellipse cx="21" cy="66.4688" fill="#ADD1B2" rx="11" ry="11" style="stroke: #A80036; stroke-width: 1.0;"/><path d="M23.9688,72.1094 Q23.3906,72.4063 22.75,72.5469 Q22.1094,72.7031 21.4063,72.7031 Q18.9063,72.7031 17.5781,71.0625 Q16.2656,69.4063 16.2656,66.2813 Q16.2656,63.1563 17.5781,61.5 Q18.9063,59.8438 21.4063,59.8438 Q22.1094,59.8438 22.75,60 Q23.4063,60.1563 23.9688,60.4531 L23.9688,63.1719 Q23.3438,62.5938 22.75,62.3281 Q22.1563,62.0469 21.5313,62.0469 Q20.1875,62.0469 19.5,63.125 Q18.8125,64.1875 18.8125,66.2813 Q18.8125,68.375 19.5,69.4531 Q20.1875,70.5156 21.5313,70.5156 Q22.1563,70.5156 22.75,70.25 Q23.3438,69.9688 23.9688,69.3906 L23.9688,72.1094 Z "/><text fill="#000000" font-family="sans-serif" font-size="12" font-style="italic" lengthAdjust="spacingAndGlyphs" textLength="88" x="40" y="63.6387">«ValueObject»</text><text fill="#000000" font-family="sans-serif" font-size="12" lengthAdjust="spacingAndGlyphs" textLength="98" x="35" y="77.6074">ContributorRole</text><line style="stroke: #A80036; stroke-width: 1.5;" x1="7" x2="135" y1="85.4375" y2="85.4375"/><text fill="#000000" font-family="sans-serif" font-size="11" lengthAdjust="spacingAndGlyphs" textLength="83" x="12" y="99.6479">+Name: string</text><line style="stroke: #A80036; stroke-width: 1.5;" x1="7" x2="135" y1="106.2422" y2="106.2422"/><!--MD5=[e69084ab16b022bdbef99762ea85e9d6]
class Movie--><rect fill="#FEFECE" filter="url(#f18g5pcjku9e3u)" height="48" id="Movie" style="stroke: #A80036; stroke-width: 1.5;" width="67" x="806.5" y="57"/><ellipse cx="821.5" cy="73" fill="#ADD1B2" rx="11" ry="11" style="stroke: #A80036; stroke-width: 1.0;"/><path d="M824.4688,78.6406 Q823.8906,78.9375 823.25,79.0781 Q822.6094,79.2344 821.9063,79.2344 Q819.4063,79.2344 818.0781,77.5938 Q816.7656,75.9375 816.7656,72.8125 Q816.7656,69.6875 818.0781,68.0313 Q819.4063,66.375 821.9063,66.375 Q822.6094,66.375 823.25,66.5313 Q823.9063,66.6875 824.4688,66.9844 L824.4688,69.7031 Q823.8438,69.125 823.25,68.8594 Q822.6563,68.5781 822.0313,68.5781 Q820.6875,68.5781 820,69.6563 Q819.3125,70.7188 819.3125,72.8125 Q819.3125,74.9063 820,75.9844 Q820.6875,77.0469 822.0313,77.0469 Q822.6563,77.0469 823.25,76.7813 Q823.8438,76.5 824.4688,75.9219 L824.4688,78.6406 Z "/><text fill="#000000" font-family="sans-serif" font-size="12" lengthAdjust="spacingAndGlyphs" textLength="35" x="835.5" y="77.1543">Movie</text><line style="stroke: #A80036; stroke-width: 1.5;" x1="807.5" x2="872.5" y1="89" y2="89"/><line style="stroke: #A80036; stroke-width: 1.5;" x1="807.5" x2="872.5" y1="97" y2="97"/><!--MD5=[73944afb6e9f06e6d5ee91305b4bcc5c]
class MovieEdition--><rect fill="#FEFECE" filter="url(#f18g5pcjku9e3u)" height="124.8281" id="MovieEdition" style="stroke: #A80036; stroke-width: 1.5;" width="198" x="852" y="634"/><ellipse cx="907.75" cy="650" fill="#ADD1B2" rx="11" ry="11" style="stroke: #A80036; stroke-width: 1.0;"/><path d="M910.7188,655.6406 Q910.1406,655.9375 909.5,656.0781 Q908.8594,656.2344 908.1563,656.2344 Q905.6563,656.2344 904.3281,654.5938 Q903.0156,652.9375 903.0156,649.8125 Q903.0156,646.6875 904.3281,645.0313 Q905.6563,643.375 908.1563,643.375 Q908.8594,643.375 909.5,643.5313 Q910.1563,643.6875 910.7188,643.9844 L910.7188,646.7031 Q910.0938,646.125 909.5,645.8594 Q908.9063,645.5781 908.2813,645.5781 Q906.9375,645.5781 906.25,646.6563 Q905.5625,647.7188 905.5625,649.8125 Q905.5625,651.9063 906.25,652.9844 Q906.9375,654.0469 908.2813,654.0469 Q908.9063,654.0469 909.5,653.7813 Q910.0938,653.5 910.7188,652.9219 L910.7188,655.6406 Z "/><text fill="#000000" font-family="sans-serif" font-size="12" lengthAdjust="spacingAndGlyphs" textLength="78" x="928.25" y="654.1543">MovieEdition</text><line style="stroke: #A80036; stroke-width: 1.5;" x1="853" x2="1049" y1="666" y2="666"/><text fill="#000000" font-family="sans-serif" font-size="11" lengthAdjust="spacingAndGlyphs" textLength="121" x="858" y="680.2104">+RuntimeMinutes: int</text><text fill="#000000" font-family="sans-serif" font-size="11" lengthAdjust="spacingAndGlyphs" textLength="136" x="858" y="693.0151">+Medium: VideoMedium</text><text fill="#000000" font-family="sans-serif" font-size="11" lengthAdjust="spacingAndGlyphs" textLength="106" x="858" y="705.8198">+Case: VideoCase</text><text fill="#000000" font-family="sans-serif" font-size="11" lengthAdjust="spacingAndGlyphs" textLength="88" x="858" y="718.6245">+DiscCount: int</text><text fill="#000000" font-family="sans-serif" font-size="11" lengthAdjust="spacingAndGlyphs" textLength="186" x="858" y="731.4292">+AudioTracks: List&lt;AudioTrack&gt;</text><text fill="#000000" font-family="sans-serif" font-size="11" lengthAdjust="spacingAndGlyphs" textLength="169" x="858" y="744.2339">+SubtitleTracks: List&lt;string&gt;</text><line style="stroke: #A80036; stroke-width: 1.5;" x1="853" x2="1049" y1="750.8281" y2="750.8281"/><!--MD5=[9022e2192881f166c529fc3ae75dec7b]
class TV--><rect fill="#FEFECE" filter="url(#f18g5pcjku9e3u)" height="60.8047" id="TV" style="stroke: #A80036; stroke-width: 1.5;" width="137" x="965.5" y="50.5"/><ellipse cx="1022.25" cy="66.5" fill="#ADD1B2" rx="11" ry="11" style="stroke: #A80036; stroke-width: 1.0;"/><path d="M1025.2188,72.1406 Q1024.6406,72.4375 1024,72.5781 Q1023.3594,72.7344 1022.6563,72.7344 Q1020.1563,72.7344 1018.8281,71.0938 Q1017.5156,69.4375 1017.5156,66.3125 Q1017.5156,63.1875 1018.8281,61.5313 Q1020.1563,59.875 1022.6563,59.875 Q1023.3594,59.875 1024,60.0313 Q1024.6563,60.1875 1025.2188,60.4844 L1025.2188,63.2031 Q1024.5938,62.625 1024,62.3594 Q1023.4063,62.0781 1022.7813,62.0781 Q1021.4375,62.0781 1020.75,63.1563 Q1020.0625,64.2188 1020.0625,66.3125 Q1020.0625,68.4063 1020.75,69.4844 Q1021.4375,70.5469 1022.7813,70.5469 Q1023.4063,70.5469 1024,70.2813 Q1024.5938,70 1025.2188,69.4219 L1025.2188,72.1406 Z "/><text fill="#000000" font-family="sans-serif" font-size="12" lengthAdjust="spacingAndGlyphs" textLength="15" x="1042.75" y="70.6543">TV</text><line style="stroke: #A80036; stroke-width: 1.5;" x1="966.5" x2="1101.5" y1="82.5" y2="82.5"/><text fill="#000000" font-family="sans-serif" font-size="11" lengthAdjust="spacingAndGlyphs" textLength="125" x="971.5" y="96.7104">+EndDate: LocalDate?</text><line style="stroke: #A80036; stroke-width: 1.5;" x1="966.5" x2="1101.5" y1="103.3047" y2="103.3047"/><!--MD5=[f7d989908576bdfdf3e6a0e309ffeaa3]
class TVEdition--><rect fill="#FEFECE" filter="url(#f18g5pcjku9e3u)" height="124.8281" id="TVEdition" style="stroke: #A80036; stroke-width: 1.5;" width="223" x="261.5" y="634"/><ellipse cx="339.75" cy="650" fill="#ADD1B2" rx="11" ry="11" style="stroke: #A80036; stroke-width: 1.0;"/><path d="M342.7188,655.6406 Q342.1406,655.9375 341.5,656.0781 Q340.8594,656.2344 340.1563,656.2344 Q337.6563,656.2344 336.3281,654.5938 Q335.0156,652.9375 335.0156,649.8125 Q335.0156,646.6875 336.3281,645.0313 Q337.6563,643.375 340.1563,643.375 Q340.8594,643.375 341.5,643.5313 Q342.1563,643.6875 342.7188,643.9844 L342.7188,646.7031 Q342.0938,646.125 341.5,645.8594 Q340.9063,645.5781 340.2813,645.5781 Q338.9375,645.5781 338.25,646.6563 Q337.5625,647.7188 337.5625,649.8125 Q337.5625,651.9063 338.25,652.9844 Q338.9375,654.0469 340.2813,654.0469 Q340.9063,654.0469 341.5,653.7813 Q342.0938,653.5 342.7188,652.9219 L342.7188,655.6406 Z "/><text fill="#000000" font-family="sans-serif" font-size="12" lengthAdjust="spacingAndGlyphs" textLength="58" x="360.25" y="654.1543">TVEdition</text><line style="stroke: #A80036; stroke-width: 1.5;" x1="262.5" x2="483.5" y1="666" y2="666"/><text fill="#000000" font-family="sans-serif" font-size="11" lengthAdjust="spacingAndGlyphs" textLength="211" x="267.5" y="680.2104">+CoveredSeasonNumbers: List&lt;int&gt;</text><text fill="#000000" font-family="sans-serif" font-size="11" lengthAdjust="spacingAndGlyphs" textLength="136" x="267.5" y="693.0151">+Medium: VideoMedium</text><text fill="#000000" font-family="sans-serif" font-size="11" lengthAdjust="spacingAndGlyphs" textLength="106" x="267.5" y="705.8198">+Case: VideoCase</text><text fill="#000000" font-family="sans-serif" font-size="11" lengthAdjust="spacingAndGlyphs" textLength="88" x="267.5" y="718.6245">+DiscCount: int</text><text fill="#000000" font-family="sans-serif" font-size="11" lengthAdjust="spacingAndGlyphs" textLength="186" x="267.5" y="731.4292">+AudioTracks: List&lt;AudioTrack&gt;</text><text fill="#000000" font-family="sans-serif" font-size="11" lengthAdjust="spacingAndGlyphs" textLength="169" x="267.5" y="744.2339">+SubtitleTracks: List&lt;string&gt;</text><line style="stroke: #A80036; stroke-width: 1.5;" x1="262.5" x2="483.5" y1="750.8281" y2="750.8281"/><path d="M206.5,495 L206.5,535.2656 A0,0 0 0 0 206.5,535.2656 L369,535.2656 L373,633.92 L377,535.2656 L539.5,535.2656 A0,0 0 0 0 539.5,535.2656 L539.5,505 L529.5,495 L206.5,495 A0,0 0 0 0 206.5,495 " fill="#FBFB77" filter="url(#f18g5pcjku9e3u)" style="stroke: #A80036; stroke-width: 1.0;"/><path d="M529.5,495 L529.5,505 L539.5,505 L529.5,495 " fill="#FBFB77" style="stroke: #A80036; stroke-width: 1.0;"/><text fill="#000000" font-family="sans-serif" font-size="13" lengthAdjust="spacingAndGlyphs" textLength="59" x="212.5" y="512.0669">Invariant:</text><text fill="#000000" font-family="sans-serif" font-size="13" lengthAdjust="spacingAndGlyphs" textLength="312" x="212.5" y="527.1997">- Must have at least one CoveredSeasonNumber</text><!--MD5=[2916714cae8f0462c1096d4fd55ce4c3]
class Season--><rect fill="#FEFECE" filter="url(#f18g5pcjku9e3u)" height="117.9609" id="Season" style="stroke: #A80036; stroke-width: 1.5;" width="199" x="962.5" y="246"/><ellipse cx="1034.25" cy="264.9688" fill="#ADD1B2" rx="11" ry="11" style="stroke: #A80036; stroke-width: 1.0;"/><path d="M1037.2188,270.6094 Q1036.6406,270.9063 1036,271.0469 Q1035.3594,271.2031 1034.6563,271.2031 Q1032.1563,271.2031 1030.8281,269.5625 Q1029.5156,267.9063 1029.5156,264.7813 Q1029.5156,261.6563 1030.8281,260 Q1032.1563,258.3438 1034.6563,258.3438 Q1035.3594,258.3438 1036,258.5 Q1036.6563,258.6563 1037.2188,258.9531 L1037.2188,261.6719 Q1036.5938,261.0938 1036,260.8281 Q1035.4063,260.5469 1034.7813,260.5469 Q1033.4375,260.5469 1032.75,261.625 Q1032.0625,262.6875 1032.0625,264.7813 Q1032.0625,266.875 1032.75,267.9531 Q1033.4375,269.0156 1034.7813,269.0156 Q1035.4063,269.0156 1036,268.75 Q1036.5938,268.4688 1037.2188,267.8906 L1037.2188,270.6094 Z "/><text fill="#000000" font-family="sans-serif" font-size="12" font-style="italic" lengthAdjust="spacingAndGlyphs" textLength="50" x="1053.25" y="262.1387">«Entity»</text><text fill="#000000" font-family="sans-serif" font-size="12" lengthAdjust="spacingAndGlyphs" textLength="47" x="1054.75" y="276.1074">Season</text><line style="stroke: #A80036; stroke-width: 1.5;" x1="963.5" x2="1160.5" y1="283.9375" y2="283.9375"/><text fill="#000000" font-family="sans-serif" font-size="11" lengthAdjust="spacingAndGlyphs" textLength="54" x="968.5" y="298.1479">+Id: UUID</text><text fill="#000000" font-family="sans-serif" font-size="11" lengthAdjust="spacingAndGlyphs" textLength="119" x="968.5" y="310.9526">+SeasonNumber: int</text><text fill="#000000" font-family="sans-serif" font-size="11" lengthAdjust="spacingAndGlyphs" textLength="145" x="968.5" y="323.7573">+Episode: List&lt;Episode&gt;</text><text fill="#000000" font-family="sans-serif" font-size="11" lengthAdjust="spacingAndGlyphs" textLength="187" x="968.5" y="336.562">+OriginalReleaseDate: LocalDate</text><text fill="#000000" font-family="sans-serif" font-size="11" lengthAdjust="spacingAndGlyphs" textLength="80" x="968.5" y="349.3667">+Title: string?</text><line style="stroke: #A80036; stroke-width: 1.5;" x1="963.5" x2="1160.5" y1="355.9609" y2="355.9609"/><!--MD5=[89f1af135d226d270851fb7756972918]
class Episode--><rect fill="#FEFECE" filter="url(#f18g5pcjku9e3u)" height="117.9609" id="Episode" style="stroke: #A80036; stroke-width: 1.5;" width="133" x="995.5" y="456"/><ellipse cx="1033.45" cy="474.9688" fill="#ADD1B2" rx="11" ry="11" style="stroke: #A80036; stroke-width: 1.0;"/><path d="M1036.4188,480.6094 Q1035.8406,480.9063 1035.2,481.0469 Q1034.5594,481.2031 1033.8563,481.2031 Q1031.3563,481.2031 1030.0281,479.5625 Q1028.7156,477.9063 1028.7156,474.7813 Q1028.7156,471.6563 1030.0281,470 Q1031.3563,468.3438 1033.8563,468.3438 Q1034.5594,468.3438 1035.2,468.5 Q1035.8563,468.6563 1036.4188,468.9531 L1036.4188,471.6719 Q1035.7938,471.0938 1035.2,470.8281 Q1034.6063,470.5469 1033.9813,470.5469 Q1032.6375,470.5469 1031.95,471.625 Q1031.2625,472.6875 1031.2625,474.7813 Q1031.2625,476.875 1031.95,477.9531 Q1032.6375,479.0156 1033.9813,479.0156 Q1034.6063,479.0156 1035.2,478.75 Q1035.7938,478.4688 1036.4188,477.8906 L1036.4188,480.6094 Z "/><text fill="#000000" font-family="sans-serif" font-size="12" font-style="italic" lengthAdjust="spacingAndGlyphs" textLength="50" x="1052.55" y="472.1387">«Entity»</text><text fill="#000000" font-family="sans-serif" font-size="12" lengthAdjust="spacingAndGlyphs" textLength="50" x="1052.55" y="486.1074">Episode</text><line style="stroke: #A80036; stroke-width: 1.5;" x1="996.5" x2="1127.5" y1="493.9375" y2="493.9375"/><text fill="#000000" font-family="sans-serif" font-size="11" lengthAdjust="spacingAndGlyphs" textLength="54" x="1001.5" y="508.1479">+Id: UUID</text><text fill="#000000" font-family="sans-serif" font-size="11" lengthAdjust="spacingAndGlyphs" textLength="121" x="1001.5" y="520.9526">+EpisodeNumber: int</text><text fill="#000000" font-family="sans-serif" font-size="11" lengthAdjust="spacingAndGlyphs" textLength="113" x="1001.5" y="533.7573">+AirDate: LocalDate</text><text fill="#000000" font-family="sans-serif" font-size="11" lengthAdjust="spacingAndGlyphs" textLength="121" x="1001.5" y="546.562">+RuntimeMinutes: int</text><text fill="#000000" font-family="sans-serif" font-size="11" lengthAdjust="spacingAndGlyphs" textLength="80" x="1001.5" y="559.3667">+Title: string?</text><line style="stroke: #A80036; stroke-width: 1.5;" x1="996.5" x2="1127.5" y1="565.9609" y2="565.9609"/><!--MD5=[55a6f80882d3cd7368bedd1107f01aad]
class AudioTrack--><rect fill="#FEFECE" filter="url(#f18g5pcjku9e3u)" height="79.5469" id="AudioTrack" style="stroke: #A80036; stroke-width: 1.5;" width="117" x="171.5" y="41"/><ellipse cx="186.95" cy="59.9688" fill="#ADD1B2" rx="11" ry="11" style="stroke: #A80036; stroke-width: 1.0;"/><path d="M189.9188,65.6094 Q189.3406,65.9063 188.7,66.0469 Q188.0594,66.2031 187.3563,66.2031 Q184.8563,66.2031 183.5281,64.5625 Q182.2156,62.9063 182.2156,59.7813 Q182.2156,56.6563 183.5281,55 Q184.8563,53.3438 187.3563,53.3438 Q188.0594,53.3438 188.7,53.5 Q189.3563,53.6563 189.9188,53.9531 L189.9188,56.6719 Q189.2938,56.0938 188.7,55.8281 Q188.1063,55.5469 187.4813,55.5469 Q186.1375,55.5469 185.45,56.625 Q184.7625,57.6875 184.7625,59.7813 Q184.7625,61.875 185.45,62.9531 Q186.1375,64.0156 187.4813,64.0156 Q188.1063,64.0156 188.7,63.75 Q189.2938,63.4688 189.9188,62.8906 L189.9188,65.6094 Z "/><text fill="#000000" font-family="sans-serif" font-size="12" font-style="italic" lengthAdjust="spacingAndGlyphs" textLength="88" x="199.05" y="57.1387">«ValueObject»</text><text fill="#000000" font-family="sans-serif" font-size="12" lengthAdjust="spacingAndGlyphs" textLength="69" x="208.55" y="71.1074">AudioTrack</text><line style="stroke: #A80036; stroke-width: 1.5;" x1="172.5" x2="287.5" y1="78.9375" y2="78.9375"/><text fill="#000000" font-family="sans-serif" font-size="11" lengthAdjust="spacingAndGlyphs" textLength="105" x="177.5" y="93.1479">+Language: string</text><text fill="#000000" font-family="sans-serif" font-size="11" lengthAdjust="spacingAndGlyphs" textLength="90" x="177.5" y="105.9526">+Format: string</text><line style="stroke: #A80036; stroke-width: 1.5;" x1="172.5" x2="287.5" y1="112.5469" y2="112.5469"/><!--MD5=[dceb4b406ced08de099542c8b8ef0f44]
class Extra--><rect fill="#FEFECE" filter="url(#f18g5pcjku9e3u)" height="79.5469" id="Extra" style="stroke: #A80036; stroke-width: 1.5;" width="116" x="324" y="41"/><ellipse cx="339" cy="59.9688" fill="#ADD1B2" rx="11" ry="11" style="stroke: #A80036; stroke-width: 1.0;"/><path d="M341.9688,65.6094 Q341.3906,65.9063 340.75,66.0469 Q340.1094,66.2031 339.4063,66.2031 Q336.9063,66.2031 335.5781,64.5625 Q334.2656,62.9063 334.2656,59.7813 Q334.2656,56.6563 335.5781,55 Q336.9063,53.3438 339.4063,53.3438 Q340.1094,53.3438 340.75,53.5 Q341.4063,53.6563 341.9688,53.9531 L341.9688,56.6719 Q341.3438,56.0938 340.75,55.8281 Q340.1563,55.5469 339.5313,55.5469 Q338.1875,55.5469 337.5,56.625 Q336.8125,57.6875 336.8125,59.7813 Q336.8125,61.875 337.5,62.9531 Q338.1875,64.0156 339.5313,64.0156 Q340.1563,64.0156 340.75,63.75 Q341.3438,63.4688 341.9688,62.8906 L341.9688,65.6094 Z "/><text fill="#000000" font-family="sans-serif" font-size="12" font-style="italic" lengthAdjust="spacingAndGlyphs" textLength="88" x="351" y="57.1387">«ValueObject»</text><text fill="#000000" font-family="sans-serif" font-size="12" lengthAdjust="spacingAndGlyphs" textLength="32" x="379" y="71.1074">Extra</text><line style="stroke: #A80036; stroke-width: 1.5;" x1="325" x2="439" y1="78.9375" y2="78.9375"/><text fill="#000000" font-family="sans-serif" font-size="11" lengthAdjust="spacingAndGlyphs" textLength="74" x="330" y="93.1479">+Title: string</text><text fill="#000000" font-family="sans-serif" font-size="11" lengthAdjust="spacingAndGlyphs" textLength="100" x="330" y="105.9526">+Type: ExtraType</text><line style="stroke: #A80036; stroke-width: 1.5;" x1="325" x2="439" y1="112.5469" y2="112.5469"/><!--MD5=[2efeaadd23cb57e387f3b3b5c71cb833]
class ExtraType--><rect fill="#FEFECE" filter="url(#f18g5pcjku9e3u)" height="66.7422" id="ExtraType" style="stroke: #A80036; stroke-width: 1.5;" width="116" x="13" y="271.5"/><ellipse cx="28" cy="290.4688" fill="#ADD1B2" rx="11" ry="11" style="stroke: #A80036; stroke-width: 1.0;"/><path d="M30.9688,296.1094 Q30.3906,296.4063 29.75,296.5469 Q29.1094,296.7031 28.4063,296.7031 Q25.9063,296.7031 24.5781,295.0625 Q23.2656,293.4063 23.2656,290.2813 Q23.2656,287.1563 24.5781,285.5 Q25.9063,283.8438 28.4063,283.8438 Q29.1094,283.8438 29.75,284 Q30.4063,284.1563 30.9688,284.4531 L30.9688,287.1719 Q30.3438,286.5938 29.75,286.3281 Q29.1563,286.0469 28.5313,286.0469 Q27.1875,286.0469 26.5,287.125 Q25.8125,288.1875 25.8125,290.2813 Q25.8125,292.375 26.5,293.4531 Q27.1875,294.5156 28.5313,294.5156 Q29.1563,294.5156 29.75,294.25 Q30.3438,293.9688 30.9688,293.3906 L30.9688,296.1094 Z "/><text fill="#000000" font-family="sans-serif" font-size="12" font-style="italic" lengthAdjust="spacingAndGlyphs" textLength="88" x="40" y="287.6387">«ValueObject»</text><text fill="#000000" font-family="sans-serif" font-size="12" lengthAdjust="spacingAndGlyphs" textLength="61" x="53.5" y="301.6074">ExtraType</text><line style="stroke: #A80036; stroke-width: 1.5;" x1="14" x2="128" y1="309.4375" y2="309.4375"/><text fill="#000000" font-family="sans-serif" font-size="11" lengthAdjust="spacingAndGlyphs" textLength="83" x="19" y="323.6479">+Name: string</text><line style="stroke: #A80036; stroke-width: 1.5;" x1="14" x2="128" y1="330.2422" y2="330.2422"/><!--MD5=[f6c43adb90ae37bff2480345367d59dd]
class VideoMedium--><rect fill="#FEFECE" filter="url(#f18g5pcjku9e3u)" height="99.2188" id="VideoMedium" style="stroke: #A80036; stroke-width: 1.5;" width="115" x="164.5" y="255.5"/><ellipse cx="179.5" cy="271.5" fill="#EB937F" rx="11" ry="11" style="stroke: #A80036; stroke-width: 1.0;"/><path d="M183.6094,277.5 L175.8906,277.5 L175.8906,265.1094 L183.6094,265.1094 L183.6094,267.2656 L178.3438,267.2656 L178.3438,269.9375 L183.1094,269.9375 L183.1094,272.0938 L178.3438,272.0938 L178.3438,275.3438 L183.6094,275.3438 L183.6094,277.5 Z "/><text fill="#000000" font-family="sans-serif" font-size="12" lengthAdjust="spacingAndGlyphs" textLength="83" x="193.5" y="275.6543">VideoMedium</text><line style="stroke: #A80036; stroke-width: 1.5;" x1="165.5" x2="278.5" y1="287.5" y2="287.5"/><text fill="#000000" font-family="sans-serif" font-size="11" lengthAdjust="spacingAndGlyphs" textLength="23" x="170.5" y="301.7104">DVD</text><text fill="#000000" font-family="sans-serif" font-size="11" lengthAdjust="spacingAndGlyphs" textLength="38" x="170.5" y="314.5151">BluRay</text><text fill="#000000" font-family="sans-serif" font-size="11" lengthAdjust="spacingAndGlyphs" textLength="24" x="170.5" y="327.3198">UHD</text><text fill="#000000" font-family="sans-serif" font-size="11" lengthAdjust="spacingAndGlyphs" textLength="35" x="170.5" y="340.1245">Digital</text><line style="stroke: #A80036; stroke-width: 1.5;" x1="165.5" x2="278.5" y1="346.7188" y2="346.7188"/><!--MD5=[da9345c54be575bfa6ea5f631e9062b6]
class VideoCase--><rect fill="#FEFECE" filter="url(#f18g5pcjku9e3u)" height="137.6328" id="VideoCase" style="stroke: #A80036; stroke-width: 1.5;" width="98" x="315" y="236"/><ellipse cx="330" cy="252" fill="#EB937F" rx="11" ry="11" style="stroke: #A80036; stroke-width: 1.0;"/><path d="M334.1094,258 L326.3906,258 L326.3906,245.6094 L334.1094,245.6094 L334.1094,247.7656 L328.8438,247.7656 L328.8438,250.4375 L333.6094,250.4375 L333.6094,252.5938 L328.8438,252.5938 L328.8438,255.8438 L334.1094,255.8438 L334.1094,258 Z "/><text fill="#000000" font-family="sans-serif" font-size="12" lengthAdjust="spacingAndGlyphs" textLength="66" x="344" y="256.1543">VideoCase</text><line style="stroke: #A80036; stroke-width: 1.5;" x1="316" x2="412" y1="268" y2="268"/><text fill="#000000" font-family="sans-serif" font-size="11" lengthAdjust="spacingAndGlyphs" textLength="52" x="321" y="282.2104">Standard</text><text fill="#000000" font-family="sans-serif" font-size="11" lengthAdjust="spacingAndGlyphs" textLength="56" x="321" y="295.0151">Steelbook</text><text fill="#000000" font-family="sans-serif" font-size="11" lengthAdjust="spacingAndGlyphs" textLength="47" x="321" y="307.8198">Digipack</text><text fill="#000000" font-family="sans-serif" font-size="11" lengthAdjust="spacingAndGlyphs" textLength="52" x="321" y="320.6245">Slipcover</text><text fill="#000000" font-family="sans-serif" font-size="11" lengthAdjust="spacingAndGlyphs" textLength="39" x="321" y="333.4292">Boxset</text><text fill="#000000" font-family="sans-serif" font-size="11" lengthAdjust="spacingAndGlyphs" textLength="60" x="321" y="346.2339">Mediabook</text><text fill="#000000" font-family="sans-serif" font-size="11" lengthAdjust="spacingAndGlyphs" textLength="32" x="321" y="359.0386">Other</text><line style="stroke: #A80036; stroke-width: 1.5;" x1="316" x2="412" y1="365.6328" y2="365.6328"/><!--MD5=[03e7ed0dc0f99b05489eb432a809d4e2]
reverse link MediaWork to Edition--><path d="M741.58,406.98 C726.68,428.65 711.65,450.5 699.1,468.76 " fill="none" id="MediaWork&lt;-Edition" style="stroke: #A80036; stroke-width: 1.0;"/><polygon fill="#A80036" points="749.11,396.02,742.4145,398.6978,742.3111,405.9081,749.0066,403.2304,749.11,396.02" style="stroke: #A80036; stroke-width: 1.0;"/><text fill="#000000" font-family="sans-serif" font-size="13" lengthAdjust="spacingAndGlyphs" textLength="8" x="735.8594" y="415.9436">1</text><text fill="#000000" font-family="sans-serif" font-size="13" lengthAdjust="spacingAndGlyphs" textLength="23" x="678.9788" y="457.9178">0..*</text><!--MD5=[9ad4f954b28ad54f2491927702a17c0b]
reverse link MediaWork to Contribution--><path d="M830.82,409.05 C834.85,430.04 838.9,451.09 842.3,468.76 " fill="none" id="MediaWork&lt;-Contribution" style="stroke: #A80036; stroke-width: 1.0;"/><polygon fill="#A80036" points="828.31,396.02,825.5156,402.6677,830.5771,407.8039,833.3715,401.1562,828.31,396.02" style="stroke: #A80036; stroke-width: 1.0;"/><text fill="#000000" font-family="sans-serif" font-size="13" lengthAdjust="spacingAndGlyphs" textLength="8" x="821.3706" y="415.9436">1</text><text fill="#000000" font-family="sans-serif" font-size="13" lengthAdjust="spacingAndGlyphs" textLength="23" x="816.3331" y="457.9178">1..*</text><!--MD5=[72246856af6937c3268263d759065537]
link Movie to MediaWork--><path d="M836.95,105.34 C834.14,126.83 829.77,160.35 825.4,193.78 " fill="none" id="Movie-&gt;MediaWork" style="stroke: #A80036; stroke-width: 1.0;"/><polygon fill="none" points="832.3,194.99,822.77,213.91,818.42,193.18,832.3,194.99" style="stroke: #A80036; stroke-width: 1.0;"/><!--MD5=[89afce3a63b81d8da54f15196f69167d]
reverse link Edition to MovieEdition--><path d="M756.3,572.01 C787.31,591.67 822.3,613.87 853.99,633.97 " fill="none" id="Edition&lt;-MovieEdition" style="stroke: #A80036; stroke-width: 1.0;"/><polygon fill="none" points="752.19,577.69,739.05,561.06,759.69,565.86,752.19,577.69" style="stroke: #A80036; stroke-width: 1.0;"/><!--MD5=[5cfdab32e7fdab8dd7cdb1fe4a097602]
link TV to MediaWork--><path d="M1003.93,111.94 C981.04,134.72 948.09,167.53 915.88,199.59 " fill="none" id="TV-&gt;MediaWork" style="stroke: #A80036; stroke-width: 1.0;"/><polygon fill="none" points="920.77,204.6,901.66,213.75,910.9,194.68,920.77,204.6" style="stroke: #A80036; stroke-width: 1.0;"/><!--MD5=[ab6de9624f2e1f667cfcdb677bac027f]
reverse link Edition to TVEdition--><path d="M576.41,571.73 C543.97,591.47 507.31,613.78 474.13,633.97 " fill="none" id="Edition&lt;-TVEdition" style="stroke: #A80036; stroke-width: 1.0;"/><polygon fill="none" points="573.22,565.48,593.94,561.06,580.49,577.44,573.22,565.48" style="stroke: #A80036; stroke-width: 1.0;"/><!--MD5=[ff064e4e2613780c041fbf5360d2bb00]
reverse link Season to Episode--><path d="M1062,377.3 C1062,402.9 1062,431.44 1062,455.8 " fill="none" id="Season&lt;-Episode" style="stroke: #A80036; stroke-width: 1.0;"/><polygon fill="#A80036" points="1062,364.22,1058,370.22,1062,376.22,1066,370.22,1062,364.22" style="stroke: #A80036; stroke-width: 1.0;"/><text fill="#000000" font-family="sans-serif" font-size="13" lengthAdjust="spacingAndGlyphs" textLength="8" x="1053.5375" y="384.0113">1</text><text fill="#000000" font-family="sans-serif" font-size="13" lengthAdjust="spacingAndGlyphs" textLength="23" x="1037.5984" y="444.7483">1..*</text><!--MD5=[214de68e22dbb54cfb3bb7ba7775e660]
reverse link TV to Season--><path d="M1039.46,125.29 C1043.8,159.69 1049.91,208.13 1054.67,245.9 " fill="none" id="TV&lt;-Season" style="stroke: #A80036; stroke-width: 1.0;"/><polygon fill="#A80036" points="1037.78,111.94,1034.563,118.3938,1039.283,123.8455,1042.5,117.3917,1037.78,111.94" style="stroke: #A80036; stroke-width: 1.0;"/><text fill="#000000" font-family="sans-serif" font-size="13" lengthAdjust="spacingAndGlyphs" textLength="8" x="1029.7381" y="131.3658">1</text><text fill="#000000" font-family="sans-serif" font-size="13" lengthAdjust="spacingAndGlyphs" textLength="23" x="1029.3751" y="234.8605">1..*</text><!--MD5=[9699088459bd35630a6c26e49c7b3ef9]
link ContributorRole to AudioTrack--><!--MD5=[8f3a44c86f72a820c9500090548cad71]
link AudioTrack to Extra--><!--MD5=[b876773f4ab83f3700cb29cd85906f7e]
link ContributorRole to ExtraType--><!--MD5=[994b789827a077dd731221d5ab91145c]
link ExtraType to VideoMedium--><!--MD5=[725ec48c0ea772d2559e8eb9f471d0e3]
link VideoMedium to VideoCase--><!--MD5=[2844562f9ccabd69d51f423d6ca3d215]
@startuml
skinparam classAttributeIconSize 0

abstract class MediaWork <<AggregateRoot>> {
    +Id: UUID
    +Title: string
    +OriginalReleaseDate: LocalDate
    -_contributions: List<Contribution>
    #_creatorRoles: List<ContributorRole>
    - -
    +AddContribution(id, role): void
    +RemoveContribution(id): void
    +AddEdition(id): void
    +RemoveEdition(id): void
    +IsCreatorRole(role): bool
}

note top of MediaWork
Invariant:
- Must have at least one Contribution
  where concrete MediaWork considers Role
  a creator (member of _creatorRoles)
- Cannot remove last creator
- Cannot remove Edition if MediaCopy
  exists referencing it (cross-aggregate
  constraint, enforce in application
  layer)
end note

abstract class Edition <<Entity>> {
    +Id: UUID
    +ReleaseDate: LocalDate
    +Extras: List<Extra>
}

note bottom of Edition
Invariant:
- Edition must always belong to exactly one
MediaWork
end note

MediaWork "1" *- - "0..*" Edition

class Contribution <<Entity>> {
    +Id: UUID
    +ContributorId: UUID
    +Role: ContributorRole
}

class ContributorRole <<ValueObject>> {
    +Name: string
}

MediaWork "1" *- - "1..*" Contribution

class Movie

Movie - -|> MediaWork

class MovieEdition {
    +RuntimeMinutes: int
    +Medium: VideoMedium
    +Case: VideoCase
    +DiscCount: int
    +AudioTracks: List<AudioTrack>
    +SubtitleTracks: List<string>
}

Edition <|- - MovieEdition

class TV {
    +EndDate: LocalDate?
}

TV - -|> MediaWork

class TVEdition {
    +CoveredSeasonNumbers: List<int>
    +Medium: VideoMedium
    +Case: VideoCase
    +DiscCount: int
    +AudioTracks: List<AudioTrack>
    +SubtitleTracks: List<string>
}

Edition <|- - TVEdition

note top of TVEdition
Invariant:
- Must have at least one CoveredSeasonNumber
end note

class Season <<Entity>> {
    +Id: UUID
    +SeasonNumber: int
    +Episode: List<Episode>
    +OriginalReleaseDate: LocalDate
    +Title: string?
}

class Episode <<Entity>> {
    +Id: UUID
    +EpisodeNumber: int
    +AirDate: LocalDate
    +RuntimeMinutes: int
    +Title: string?
}

Season "1" *- - "1..*" Episode
TV "1" *- - "1..*" Season

class AudioTrack <<ValueObject>> {
    +Language: string
    +Format: string
}

class Extra <<ValueObject>> {
    +Title: string
    +Type: ExtraType
}

class ExtraType <<ValueObject>> {
    +Name: string
}

enum VideoMedium {
    DVD
    BluRay
    UHD
    Digital
}

enum VideoCase {
    Standard
    Steelbook
    Digipack
    Slipcover
    Boxset
    Mediabook
    Other
}

@enduml

PlantUML version 1.2020.02(Sun Mar 01 10:22:07 UTC 2020)
(GPL source distribution)
Java Runtime: OpenJDK Runtime Environment
JVM: OpenJDK 64-Bit Server VM
Java Version: 17.0.18+8
Operating System: Linux
Default Encoding: UTF-8
Language: en
Country: null
--></g></svg>