<?xml version="1.0" encoding="UTF-8" standalone="no"?><svg xmlns="http://www.w3.org/2000/svg" xmlns:xlink="http://www.w3.org/1999/xlink" contentScriptType="application/ecmascript" contentStyleType="text/css" height="397px" preserveAspectRatio="none" style="width:296px;height:397px;" version="1.1" viewBox="0 0 296 397" width="296px" zoomAndPan="magnify"><defs><filter height="300%" id="fjfty8n5b7ck9" width="300%" x="-1" y="-1"><feGaussianBlur result="blurOut" stdDeviation="2.0"/><feColorMatrix in="blurOut" result="blurOut2" type="matrix" values="0 0 0 0 0 0 0 0 0 0 0 0 0 0 0 0 0 0 .4 0"/><feOffset dx="4.0" dy="4.0" in="blurOut2" result="blurOut3"/><feBlend in="SourceGraphic" in2="blurOut3" mode="normal"/></filter></defs><g><!--MD5=[45bc2ed3d1efce51d6e5e8f0ca873e96]
class CollectionGroup--><rect fill="#FEFECE" filter="url(#fjfty8n5b7ck9)" height="79.5469" id="CollectionGroup" style="stroke: #A80036; stroke-width: 1.5;" width="137" x="6" y="8"/><ellipse cx="21" cy="26.9688" fill="#ADD1B2" rx="11" ry="11" style="stroke: #A80036; stroke-width: 1.0;"/><path d="M23.9688,32.6094 Q23.3906,32.9063 22.75,33.0469 Q22.1094,33.2031 21.4063,33.2031 Q18.9063,33.2031 17.5781,31.5625 Q16.2656,29.9063 16.2656,26.7813 Q16.2656,23.6563 17.5781,22 Q18.9063,20.3438 21.4063,20.3438 Q22.1094,20.3438 22.75,20.5 Q23.4063,20.6563 23.9688,20.9531 L23.9688,23.6719 Q23.3438,23.0938 22.75,22.8281 Q22.1563,22.5469 21.5313,22.5469 Q20.1875,22.5469 19.5,23.625 Q18.8125,24.6875 18.8125,26.7813 Q18.8125,28.875 19.5,29.9531 Q20.1875,31.0156 21.5313,31.0156 Q22.1563,31.0156 22.75,30.75 Q23.3438,30.4688 23.9688,29.8906 L23.9688,32.6094 Z "/><text fill="#000000" font-family="sans-serif" font-size="12" font-style="italic" lengthAdjust="spacingAndGlyphs" textLength="109" x="33" y="24.1387">«AggregateRoot»</text><text fill="#000000" font-family="sans-serif" font-size="12" lengthAdjust="spacingAndGlyphs" textLength="99" x="38" y="38.1074">CollectionGroup</text><line style="stroke: #A80036; stroke-width: 1.5;" x1="7" x2="142" y1="45.9375" y2="45.9375"/><text fill="#000000" font-family="sans-serif" font-size="11" lengthAdjust="spacingAndGlyphs" textLength="54" x="12" y="60.1479">+Id: UUID</text><text fill="#000000" font-family="sans-serif" font-size="11" lengthAdjust="spacingAndGlyphs" textLength="74" x="12" y="72.9526">+Title: string</text><line style="stroke: #A80036; stroke-width: 1.5;" x1="7" x2="142" y1="79.5469" y2="79.5469"/><!--MD5=[1544e71f2cb389b780e9180c5c78ad2d]
class CollectionGroupMembership--><rect fill="#FEFECE" filter="url(#fjfty8n5b7ck9)" height="92.3516" id="CollectionGroupMembership" style="stroke: #A80036; stroke-width: 1.5;" width="207" x="48" y="148"/><ellipse cx="63" cy="166.9688" fill="#ADD1B2" rx="11" ry="11" style="stroke: #A80036; stroke-width: 1.0;"/><path d="M65.9688,172.6094 Q65.3906,172.9063 64.75,173.0469 Q64.1094,173.2031 63.4063,173.2031 Q60.9063,173.2031 59.5781,171.5625 Q58.2656,169.9063 58.2656,166.7813 Q58.2656,163.6563 59.5781,162 Q60.9063,160.3438 63.4063,160.3438 Q64.1094,160.3438 64.75,160.5 Q65.4063,160.6563 65.9688,160.9531 L65.9688,163.6719 Q65.3438,163.0938 64.75,162.8281 Q64.1563,162.5469 63.5313,162.5469 Q62.1875,162.5469 61.5,163.625 Q60.8125,164.6875 60.8125,166.7813 Q60.8125,168.875 61.5,169.9531 Q62.1875,171.0156 63.5313,171.0156 Q64.1563,171.0156 64.75,170.75 Q65.3438,170.4688 65.9688,169.8906 L65.9688,172.6094 Z "/><text fill="#000000" font-family="sans-serif" font-size="12" font-style="italic" lengthAdjust="spacingAndGlyphs" textLength="50" x="139.5" y="164.1387">«Entity»</text><text fill="#000000" font-family="sans-serif" font-size="12" lengthAdjust="spacingAndGlyphs" textLength="175" x="77" y="178.1074">CollectionGroupMembership</text><line style="stroke: #A80036; stroke-width: 1.5;" x1="49" x2="254" y1="185.9375" y2="185.9375"/><text fill="#000000" font-family="sans-serif" font-size="11" lengthAdjust="spacingAndGlyphs" textLength="54" x="54" y="200.1479">+Id: UUID</text><text fill="#000000" font-family="sans-serif" font-size="11" lengthAdjust="spacingAndGlyphs" textLength="114" x="54" y="212.9526">+MediaWorkId: UUID</text><text fill="#000000" font-family="sans-serif" font-size="11" lengthAdjust="spacingAndGlyphs" textLength="85" x="54" y="225.7573">+SortIndex: int</text><line style="stroke: #A80036; stroke-width: 1.5;" x1="49" x2="254" y1="232.3516" y2="232.3516"/><path d="M19,300 L19,385.6641 A0,0 0 0 0 19,385.6641 L284,385.6641 A0,0 0 0 0 284,385.6641 L284,310 L274,300 L155.5,300 L151.5,240.3 L147.5,300 L19,300 A0,0 0 0 0 19,300 " fill="#FBFB77" filter="url(#fjfty8n5b7ck9)" style="stroke: #A80036; stroke-width: 1.0;"/><path d="M274,300 L274,310 L284,310 L274,300 " fill="#FBFB77" style="stroke: #A80036; stroke-width: 1.0;"/><text fill="#000000" font-family="sans-serif" font-size="13" lengthAdjust="spacingAndGlyphs" textLength="59" x="25" y="317.0669">Invariant:</text><text fill="#000000" font-family="sans-serif" font-size="13" lengthAdjust="spacingAndGlyphs" textLength="244" x="25" y="332.1997">- MediaWork can appear only once per</text><text fill="#000000" font-family="sans-serif" font-size="13" lengthAdjust="spacingAndGlyphs" textLength="101" x="33" y="347.3325">CollectionGroup</text><text fill="#000000" font-family="sans-serif" font-size="13" lengthAdjust="spacingAndGlyphs" textLength="226" x="25" y="362.4653">- SortIndex must be unique within a</text><text fill="#000000" font-family="sans-serif" font-size="13" lengthAdjust="spacingAndGlyphs" textLength="101" x="33" y="377.5981">CollectionGroup</text><!--MD5=[c3dd83c4944f050787f4b644933234ea]
class MediaWork--><rect fill="#FEFECE" filter="url(#fjfty8n5b7ck9)" height="48" id="MediaWork" style="stroke: #A80036; stroke-width: 1.5;" width="100" x="178.5" y="24"/><ellipse cx="193.5" cy="40" fill="#ADD1B2" rx="11" ry="11" style="stroke: #A80036; stroke-width: 1.0;"/><path d="M196.4688,45.6406 Q195.8906,45.9375 195.25,46.0781 Q194.6094,46.2344 193.9063,46.2344 Q191.4063,46.2344 190.0781,44.5938 Q188.7656,42.9375 188.7656,39.8125 Q188.7656,36.6875 190.0781,35.0313 Q191.4063,33.375 193.9063,33.375 Q194.6094,33.375 195.25,33.5313 Q195.9063,33.6875 196.4688,33.9844 L196.4688,36.7031 Q195.8438,36.125 195.25,35.8594 Q194.6563,35.5781 194.0313,35.5781 Q192.6875,35.5781 192,36.6563 Q191.3125,37.7188 191.3125,39.8125 Q191.3125,41.9063 192,42.9844 Q192.6875,44.0469 194.0313,44.0469 Q194.6563,44.0469 195.25,43.7813 Q195.8438,43.5 196.4688,42.9219 L196.4688,45.6406 Z "/><text fill="#000000" font-family="sans-serif" font-size="12" lengthAdjust="spacingAndGlyphs" textLength="68" x="207.5" y="44.1543">MediaWork</text><line style="stroke: #A80036; stroke-width: 1.5;" x1="179.5" x2="277.5" y1="56" y2="56"/><line style="stroke: #A80036; stroke-width: 1.5;" x1="179.5" x2="277.5" y1="64" y2="64"/><!--MD5=[996c329a84fbff679e423f9789dbe47e]
reverse link CollectionGroup to CollectionGroupMembership--><path d="M101.75,99.96 C110.1,115.57 119.22,132.64 127.35,147.84 " fill="none" id="CollectionGroup&lt;-CollectionGroupMembership" style="stroke: #A80036; stroke-width: 1.0;"/><polygon fill="#A80036" points="95.54,88.35,94.8429,95.5273,101.2001,98.9313,101.8971,91.754,95.54,88.35" style="stroke: #A80036; stroke-width: 1.0;"/><text fill="#000000" font-family="sans-serif" font-size="13" lengthAdjust="spacingAndGlyphs" textLength="8" x="90.0428" y="107.4879">1</text><text fill="#000000" font-family="sans-serif" font-size="13" lengthAdjust="spacingAndGlyphs" textLength="23" x="99.1139" y="137.0095">0..*</text><!--MD5=[b56c7005511cc776453792ca81a63561]
reverse link MediaWork to CollectionGroupMembership--><path d="M213.76,76.57 C202.99,96.71 188.14,124.47 175.65,147.83 " fill="none" id="MediaWork&lt;-CollectionGroupMembership" style="stroke: #A80036; stroke-width: 1.0; stroke-dasharray: 7.0,7.0;"/><polygon fill="#A80036" points="216.13,72.14,208.3541,78.1844,213.7689,76.5474,215.4059,81.9622,216.13,72.14" style="stroke: #A80036; stroke-width: 1.0;"/><!--MD5=[2f78ef67a8f731d40c4ebc3f68be39fc]
@startuml
skinparam classAttributeIconSize 0

class CollectionGroup <<AggregateRoot>> {
    +Id: UUID
    +Title: string
}

class CollectionGroupMembership <<Entity>> {
    +Id: UUID
    +MediaWorkId: UUID
    +SortIndex: int
}

note bottom of CollectionGroupMembership
Invariant:
- MediaWork can appear only once per
  CollectionGroup
- SortIndex must be unique within a
  CollectionGroup
end note

CollectionGroup "1" *- - "0..*" CollectionGroupMembership

MediaWork <.. CollectionGroupMembership

@enduml

PlantUML version 1.2020.02(Sun Mar 01 10:22:07 UTC 2020)
(GPL source distribution)
Java Runtime: OpenJDK Runtime Environment
JVM: OpenJDK 64-Bit Server VM
Java Version: 17.0.18+8
Operating System: Linux
Default Encoding: UTF-8
Language: en
Country: null
--></g></svg>