<?xml version="1.0" encoding="UTF-8" standalone="no"?><svg xmlns="http://www.w3.org/2000/svg" xmlns:xlink="http://www.w3.org/1999/xlink" contentScriptType="application/ecmascript" contentStyleType="text/css" height="1441px" preserveAspectRatio="none" style="width:786px;height:1441px;" version="1.1" viewBox="0 0 786 1441" width="786px" zoomAndPan="magnify"><defs><filter height="300%" id="f1egd44ua5uw7j" width="300%" x="-1" y="-1"><feGaussianBlur result="blurOut" stdDeviation="2.0"/><feColorMatrix in="blurOut" result="blurOut2" type="matrix" values="0 0 0 0 0 0 0 0 0 0 0 0 0 0 0 0 0 0 .4 0"/><feOffset dx="4.0" dy="4.0" in="blurOut2" result="blurOut3"/><feBlend in="SourceGraphic" in2="blurOut3" mode="normal"/></filter></defs><g><!--MD5=[c3dd83c4944f050787f4b644933234ea]
class MediaWork--><rect fill="#FEFECE" filter="url(#f1egd44ua5uw7j)" height="194.7891" id="MediaWork" style="stroke: #A80036; stroke-width: 1.5;" width="211" x="508" y="231"/><ellipse cx="556.75" cy="249.9688" fill="#ADD1B2" rx="11" ry="11" style="stroke: #A80036; stroke-width: 1.0;"/><path d="M559.7188,255.6094 Q559.1406,255.9063 558.5,256.0469 Q557.8594,256.2031 557.1563,256.2031 Q554.6563,256.2031 553.3281,254.5625 Q552.0156,252.9063 552.0156,249.7813 Q552.0156,246.6563 553.3281,245 Q554.6563,243.3438 557.1563,243.3438 Q557.8594,243.3438 558.5,243.5 Q559.1563,243.6563 559.7188,243.9531 L559.7188,246.6719 Q559.0938,246.0938 558.5,245.8281 Q557.9063,245.5469 557.2813,245.5469 Q555.9375,245.5469 555.25,246.625 Q554.5625,247.6875 554.5625,249.7813 Q554.5625,251.875 555.25,252.9531 Q555.9375,254.0156 557.2813,254.0156 Q557.9063,254.0156 558.5,253.75 Q559.0938,253.4688 559.7188,252.8906 L559.7188,255.6094 Z "/><text fill="#000000" font-family="sans-serif" font-size="12" font-style="italic" lengthAdjust="spacingAndGlyphs" textLength="109" x="575.25" y="247.1387">«AggregateRoot»</text><text fill="#000000" font-family="sans-serif" font-size="12" lengthAdjust="spacingAndGlyphs" textLength="68" x="595.75" y="261.1074">MediaWork</text><line style="stroke: #A80036; stroke-width: 1.5;" x1="509" x2="718" y1="268.9375" y2="268.9375"/><text fill="#000000" font-family="sans-serif" font-size="11" lengthAdjust="spacingAndGlyphs" textLength="54" x="514" y="283.1479">+Id: UUID</text><text fill="#000000" font-family="sans-serif" font-size="11" lengthAdjust="spacingAndGlyphs" textLength="74" x="514" y="295.9526">+Title: string</text><text fill="#000000" font-family="sans-serif" font-size="11" lengthAdjust="spacingAndGlyphs" textLength="120" x="514" y="308.7573">+Description?: string</text><text fill="#000000" font-family="sans-serif" font-size="11" lengthAdjust="spacingAndGlyphs" textLength="187" x="514" y="321.562">+OriginalReleaseDate: LocalDate</text><text fill="#000000" font-family="sans-serif" font-size="11" lengthAdjust="spacingAndGlyphs" textLength="156" x="514" y="334.3667">-_structure: MediaStructure</text><text fill="#000000" font-family="sans-serif" font-size="11" lengthAdjust="spacingAndGlyphs" textLength="199" x="514" y="347.1714">-_contributions: List&lt;Contribution&gt;</text><text fill="#000000" font-family="sans-serif" font-size="11" lengthAdjust="spacingAndGlyphs" textLength="142" x="514" y="359.9761">-_content: List&lt;Content&gt;</text><line style="stroke: #A80036; stroke-width: 1.0;" x1="509" x2="718" y1="366.5703" y2="366.5703"/><text fill="#000000" font-family="sans-serif" font-size="11" lengthAdjust="spacingAndGlyphs" textLength="178" x="514" y="380.7808">+AddContribution(id, role): void</text><text fill="#000000" font-family="sans-serif" font-size="11" lengthAdjust="spacingAndGlyphs" textLength="172" x="514" y="393.5854">+RemoveContribution(id): void</text><text fill="#000000" font-family="sans-serif" font-size="11" lengthAdjust="spacingAndGlyphs" textLength="155" x="514" y="406.3901">+AddContent(content): void</text><text fill="#000000" font-family="sans-serif" font-size="11" lengthAdjust="spacingAndGlyphs" textLength="147" x="514" y="419.1948">+RemoveContent(id): void</text><path d="M460.5,24 L460.5,155.0625 A0,0 0 0 0 460.5,155.0625 L609.5,155.0625 L613.5,230.8 L617.5,155.0625 L766.5,155.0625 A0,0 0 0 0 766.5,155.0625 L766.5,34 L756.5,24 L460.5,24 A0,0 0 0 0 460.5,24 " fill="#FBFB77" filter="url(#f1egd44ua5uw7j)" style="stroke: #A80036; stroke-width: 1.0;"/><path d="M756.5,24 L756.5,34 L766.5,34 L756.5,24 " fill="#FBFB77" style="stroke: #A80036; stroke-width: 1.0;"/><text fill="#000000" font-family="sans-serif" font-size="13" lengthAdjust="spacingAndGlyphs" textLength="59" x="466.5" y="41.0669">Invariant:</text><text fill="#000000" font-family="sans-serif" font-size="13" lengthAdjust="spacingAndGlyphs" textLength="254" x="466.5" y="56.1997">- Must have exactly one MediaStructure</text><text fill="#000000" font-family="sans-serif" font-size="13" lengthAdjust="spacingAndGlyphs" textLength="249" x="466.5" y="71.3325">- Structure defines the MediaWork type</text><text fill="#000000" font-family="sans-serif" font-size="13" lengthAdjust="spacingAndGlyphs" textLength="285" x="466.5" y="86.4653">- Must have at least one creator contribution</text><text fill="#000000" font-family="sans-serif" font-size="13" lengthAdjust="spacingAndGlyphs" textLength="185" x="466.5" y="101.5981">- Cannot remove last creator</text><text fill="#000000" font-family="sans-serif" font-size="13" lengthAdjust="spacingAndGlyphs" textLength="267" x="466.5" y="116.731">- All Features / Episodes must reference a</text><text fill="#000000" font-family="sans-serif" font-size="13" lengthAdjust="spacingAndGlyphs" textLength="256" x="474.5" y="131.8638">Content that is a PlayableContent inside</text><text fill="#000000" font-family="sans-serif" font-size="13" lengthAdjust="spacingAndGlyphs" textLength="136" x="474.5" y="146.9966">MediaWork._contents</text><!--MD5=[d72d8c3c7ec9fd0574988ac0e6c89053]
class MediaStructure--><rect fill="#FEFECE" filter="url(#f1egd44ua5uw7j)" height="79.5469" id="MediaStructure" style="stroke: #A80036; stroke-width: 1.5;" width="160" x="292.5" y="492"/><ellipse cx="321.9" cy="510.9688" fill="#A9DCDF" rx="11" ry="11" style="stroke: #A80036; stroke-width: 1.0;"/><path d="M322.0094,506.3125 L320.8531,511.3906 L323.1813,511.3906 L322.0094,506.3125 Z M320.525,504.0781 L323.5094,504.0781 L326.8688,516.4688 L324.4156,516.4688 L323.65,513.4063 L320.3688,513.4063 L319.6188,516.4688 L317.1813,516.4688 L320.525,504.0781 Z "/><text fill="#000000" font-family="sans-serif" font-size="12" font-style="italic" lengthAdjust="spacingAndGlyphs" textLength="50" x="362.1" y="508.1387">«Entity»</text><text fill="#000000" font-family="sans-serif" font-size="12" font-style="italic" lengthAdjust="spacingAndGlyphs" textLength="96" x="339.1" y="522.1074">MediaStructure</text><line style="stroke: #A80036; stroke-width: 1.5;" x1="293.5" x2="451.5" y1="529.9375" y2="529.9375"/><line style="stroke: #A80036; stroke-width: 1.0;" x1="293.5" x2="451.5" y1="537.9375" y2="537.9375"/><text fill="#000000" font-family="sans-serif" font-size="11" lengthAdjust="spacingAndGlyphs" textLength="139" x="298.5" y="552.1479">+Type(): MediaWorkType</text><text fill="#000000" font-family="sans-serif" font-size="11" lengthAdjust="spacingAndGlyphs" textLength="148" x="298.5" y="564.9526">+IsCreatorRole(role): bool</text><!--MD5=[3993688172772fa3ddb685ff7da315ec]
class MediaWorkType--><rect fill="#FEFECE" filter="url(#f1egd44ua5uw7j)" height="73.6094" id="MediaWorkType" style="stroke: #A80036; stroke-width: 1.5;" width="129" x="6" y="52.5"/><ellipse cx="21" cy="68.5" fill="#EB937F" rx="11" ry="11" style="stroke: #A80036; stroke-width: 1.0;"/><path d="M25.1094,74.5 L17.3906,74.5 L17.3906,62.1094 L25.1094,62.1094 L25.1094,64.2656 L19.8438,64.2656 L19.8438,66.9375 L24.6094,66.9375 L24.6094,69.0938 L19.8438,69.0938 L19.8438,72.3438 L25.1094,72.3438 L25.1094,74.5 Z "/><text fill="#000000" font-family="sans-serif" font-size="12" lengthAdjust="spacingAndGlyphs" textLength="97" x="35" y="72.6543">MediaWorkType</text><line style="stroke: #A80036; stroke-width: 1.5;" x1="7" x2="134" y1="84.5" y2="84.5"/><text fill="#000000" font-family="sans-serif" font-size="11" lengthAdjust="spacingAndGlyphs" textLength="32" x="12" y="98.7104">Movie</text><text fill="#000000" font-family="sans-serif" font-size="11" lengthAdjust="spacingAndGlyphs" textLength="14" x="12" y="111.5151">TV</text><line style="stroke: #A80036; stroke-width: 1.5;" x1="7" x2="134" y1="118.1094" y2="118.1094"/><!--MD5=[0330879a1a385efee19ba3488ed490fa]
class Contribution--><rect fill="#FEFECE" filter="url(#f1egd44ua5uw7j)" height="92.3516" id="Contribution" style="stroke: #A80036; stroke-width: 1.5;" width="205" x="511" y="486"/><ellipse cx="570.75" cy="504.9688" fill="#ADD1B2" rx="11" ry="11" style="stroke: #A80036; stroke-width: 1.0;"/><path d="M573.7188,510.6094 Q573.1406,510.9063 572.5,511.0469 Q571.8594,511.2031 571.1563,511.2031 Q568.6563,511.2031 567.3281,509.5625 Q566.0156,507.9063 566.0156,504.7813 Q566.0156,501.6563 567.3281,500 Q568.6563,498.3438 571.1563,498.3438 Q571.8594,498.3438 572.5,498.5 Q573.1563,498.6563 573.7188,498.9531 L573.7188,501.6719 Q573.0938,501.0938 572.5,500.8281 Q571.9063,500.5469 571.2813,500.5469 Q569.9375,500.5469 569.25,501.625 Q568.5625,502.6875 568.5625,504.7813 Q568.5625,506.875 569.25,507.9531 Q569.9375,509.0156 571.2813,509.0156 Q571.9063,509.0156 572.5,508.75 Q573.0938,508.4688 573.7188,507.8906 L573.7188,510.6094 Z "/><text fill="#000000" font-family="sans-serif" font-size="12" font-style="italic" lengthAdjust="spacingAndGlyphs" textLength="50" x="604.75" y="502.1387">«Entity»</text><text fill="#000000" font-family="sans-serif" font-size="12" lengthAdjust="spacingAndGlyphs" textLength="77" x="591.25" y="516.1074">Contribution</text><line style="stroke: #A80036; stroke-width: 1.5;" x1="512" x2="715" y1="523.9375" y2="523.9375"/><text fill="#000000" font-family="sans-serif" font-size="11" lengthAdjust="spacingAndGlyphs" textLength="54" x="517" y="538.1479">+Id: UUID</text><text fill="#000000" font-family="sans-serif" font-size="11" lengthAdjust="spacingAndGlyphs" textLength="118" x="517" y="550.9526">+ContributorId: UUID</text><text fill="#000000" font-family="sans-serif" font-size="11" lengthAdjust="spacingAndGlyphs" textLength="193" x="517" y="563.7573">+ContributorRole: ContributorRole</text><line style="stroke: #A80036; stroke-width: 1.5;" x1="512" x2="715" y1="570.3516" y2="570.3516"/><!--MD5=[dd2cb4d4918b743616ebdb19b9302e86]
class ContributorRole--><rect fill="#FEFECE" filter="url(#f1egd44ua5uw7j)" height="66.7422" id="ContributorRole" style="stroke: #A80036; stroke-width: 1.5;" width="130" x="170.5" y="56"/><ellipse cx="185.5" cy="74.9688" fill="#ADD1B2" rx="11" ry="11" style="stroke: #A80036; stroke-width: 1.0;"/><path d="M188.4688,80.6094 Q187.8906,80.9063 187.25,81.0469 Q186.6094,81.2031 185.9063,81.2031 Q183.4063,81.2031 182.0781,79.5625 Q180.7656,77.9063 180.7656,74.7813 Q180.7656,71.6563 182.0781,70 Q183.4063,68.3438 185.9063,68.3438 Q186.6094,68.3438 187.25,68.5 Q187.9063,68.6563 188.4688,68.9531 L188.4688,71.6719 Q187.8438,71.0938 187.25,70.8281 Q186.6563,70.5469 186.0313,70.5469 Q184.6875,70.5469 184,71.625 Q183.3125,72.6875 183.3125,74.7813 Q183.3125,76.875 184,77.9531 Q184.6875,79.0156 186.0313,79.0156 Q186.6563,79.0156 187.25,78.75 Q187.8438,78.4688 188.4688,77.8906 L188.4688,80.6094 Z "/><text fill="#000000" font-family="sans-serif" font-size="12" font-style="italic" lengthAdjust="spacingAndGlyphs" textLength="88" x="204.5" y="72.1387">«ValueObject»</text><text fill="#000000" font-family="sans-serif" font-size="12" lengthAdjust="spacingAndGlyphs" textLength="98" x="199.5" y="86.1074">ContributorRole</text><line style="stroke: #A80036; stroke-width: 1.5;" x1="171.5" x2="299.5" y1="93.9375" y2="93.9375"/><text fill="#000000" font-family="sans-serif" font-size="11" lengthAdjust="spacingAndGlyphs" textLength="83" x="176.5" y="108.1479">+Name: string</text><line style="stroke: #A80036; stroke-width: 1.5;" x1="171.5" x2="299.5" y1="114.7422" y2="114.7422"/><!--MD5=[fd7366e9f96236d9aa60dcc04f2b83e5]
class Content--><rect fill="#FEFECE" filter="url(#f1egd44ua5uw7j)" height="92.3516" id="Content" style="stroke: #A80036; stroke-width: 1.5;" width="132" x="614.5" y="862"/><ellipse cx="652" cy="880.9688" fill="#ADD1B2" rx="11" ry="11" style="stroke: #A80036; stroke-width: 1.0;"/><path d="M654.9688,886.6094 Q654.3906,886.9063 653.75,887.0469 Q653.1094,887.2031 652.4063,887.2031 Q649.9063,887.2031 648.5781,885.5625 Q647.2656,883.9063 647.2656,880.7813 Q647.2656,877.6563 648.5781,876 Q649.9063,874.3438 652.4063,874.3438 Q653.1094,874.3438 653.75,874.5 Q654.4063,874.6563 654.9688,874.9531 L654.9688,877.6719 Q654.3438,877.0938 653.75,876.8281 Q653.1563,876.5469 652.5313,876.5469 Q651.1875,876.5469 650.5,877.625 Q649.8125,878.6875 649.8125,880.7813 Q649.8125,882.875 650.5,883.9531 Q651.1875,885.0156 652.5313,885.0156 Q653.1563,885.0156 653.75,884.75 Q654.3438,884.4688 654.9688,883.8906 L654.9688,886.6094 Z "/><text fill="#000000" font-family="sans-serif" font-size="12" font-style="italic" lengthAdjust="spacingAndGlyphs" textLength="50" x="671" y="878.1387">«Entity»</text><text fill="#000000" font-family="sans-serif" font-size="12" lengthAdjust="spacingAndGlyphs" textLength="50" x="671" y="892.1074">Content</text><line style="stroke: #A80036; stroke-width: 1.5;" x1="615.5" x2="745.5" y1="899.9375" y2="899.9375"/><text fill="#000000" font-family="sans-serif" font-size="11" lengthAdjust="spacingAndGlyphs" textLength="54" x="620.5" y="914.1479">+Id: UUID</text><text fill="#000000" font-family="sans-serif" font-size="11" lengthAdjust="spacingAndGlyphs" textLength="80" x="620.5" y="926.9526">+Title?: string</text><text fill="#000000" font-family="sans-serif" font-size="11" lengthAdjust="spacingAndGlyphs" textLength="120" x="620.5" y="939.7573">+Description?: string</text><line style="stroke: #A80036; stroke-width: 1.5;" x1="615.5" x2="745.5" y1="946.3516" y2="946.3516"/><!--MD5=[9e73ca2041b22575b2d551193cb62c11]
class PlayableContent--><rect fill="#FEFECE" filter="url(#f1egd44ua5uw7j)" height="86.4141" id="PlayableContent" style="stroke: #A80036; stroke-width: 1.5;" width="181" x="282" y="1205"/><ellipse cx="318.15" cy="1221" fill="#ADD1B2" rx="11" ry="11" style="stroke: #A80036; stroke-width: 1.0;"/><path d="M321.1188,1226.6406 Q320.5406,1226.9375 319.9,1227.0781 Q319.2594,1227.2344 318.5563,1227.2344 Q316.0563,1227.2344 314.7281,1225.5938 Q313.4156,1223.9375 313.4156,1220.8125 Q313.4156,1217.6875 314.7281,1216.0313 Q316.0563,1214.375 318.5563,1214.375 Q319.2594,1214.375 319.9,1214.5313 Q320.5563,1214.6875 321.1188,1214.9844 L321.1188,1217.7031 Q320.4938,1217.125 319.9,1216.8594 Q319.3063,1216.5781 318.6813,1216.5781 Q317.3375,1216.5781 316.65,1217.6563 Q315.9625,1218.7188 315.9625,1220.8125 Q315.9625,1222.9063 316.65,1223.9844 Q317.3375,1225.0469 318.6813,1225.0469 Q319.3063,1225.0469 319.9,1224.7813 Q320.4938,1224.5 321.1188,1223.9219 L321.1188,1226.6406 Z "/><text fill="#000000" font-family="sans-serif" font-size="12" lengthAdjust="spacingAndGlyphs" textLength="102" x="336.85" y="1225.1543">PlayableContent</text><line style="stroke: #A80036; stroke-width: 1.5;" x1="283" x2="462" y1="1237" y2="1237"/><text fill="#000000" font-family="sans-serif" font-size="11" lengthAdjust="spacingAndGlyphs" textLength="121" x="288" y="1251.2104">+RuntimeMinutes: int</text><text fill="#000000" font-family="sans-serif" font-size="11" lengthAdjust="spacingAndGlyphs" textLength="115" x="288" y="1264.0151">+CutType?: CutType</text><text fill="#000000" font-family="sans-serif" font-size="11" lengthAdjust="spacingAndGlyphs" textLength="169" x="288" y="1276.8198">+SubtitleTracks: List&lt;string&gt;</text><line style="stroke: #A80036; stroke-width: 1.5;" x1="283" x2="462" y1="1283.4141" y2="1283.4141"/><!--MD5=[ffdd170a53eba6d79fedf145c7c9114b]
class CutType--><rect fill="#FEFECE" filter="url(#f1egd44ua5uw7j)" height="163.2422" id="CutType" style="stroke: #A80036; stroke-width: 1.5;" width="90" x="335.5" y="8"/><ellipse cx="354.1" cy="24" fill="#EB937F" rx="11" ry="11" style="stroke: #A80036; stroke-width: 1.0;"/><path d="M358.2094,30 L350.4906,30 L350.4906,17.6094 L358.2094,17.6094 L358.2094,19.7656 L352.9438,19.7656 L352.9438,22.4375 L357.7094,22.4375 L357.7094,24.5938 L352.9438,24.5938 L352.9438,27.8438 L358.2094,27.8438 L358.2094,30 Z "/><text fill="#000000" font-family="sans-serif" font-size="12" lengthAdjust="spacingAndGlyphs" textLength="50" x="368.9" y="28.1543">CutType</text><line style="stroke: #A80036; stroke-width: 1.5;" x1="336.5" x2="424.5" y1="40" y2="40"/><text fill="#000000" font-family="sans-serif" font-size="11" lengthAdjust="spacingAndGlyphs" textLength="64" x="341.5" y="54.2104">DirectorCut</text><text fill="#000000" font-family="sans-serif" font-size="11" lengthAdjust="spacingAndGlyphs" textLength="52" x="341.5" y="67.0151">Extended</text><text fill="#000000" font-family="sans-serif" font-size="11" lengthAdjust="spacingAndGlyphs" textLength="45" x="341.5" y="79.8198">FinalCut</text><text fill="#000000" font-family="sans-serif" font-size="11" lengthAdjust="spacingAndGlyphs" textLength="78" x="341.5" y="92.6245">HomeRelease</text><text fill="#000000" font-family="sans-serif" font-size="11" lengthAdjust="spacingAndGlyphs" textLength="71" x="341.5" y="105.4292">International</text><text fill="#000000" font-family="sans-serif" font-size="11" lengthAdjust="spacingAndGlyphs" textLength="44" x="341.5" y="118.2339">Original</text><text fill="#000000" font-family="sans-serif" font-size="11" lengthAdjust="spacingAndGlyphs" textLength="32" x="341.5" y="131.0386">Other</text><text fill="#000000" font-family="sans-serif" font-size="11" lengthAdjust="spacingAndGlyphs" textLength="56" x="341.5" y="143.8433">Theatrical</text><text fill="#000000" font-family="sans-serif" font-size="11" lengthAdjust="spacingAndGlyphs" textLength="32" x="341.5" y="156.6479">Uncut</text><line style="stroke: #A80036; stroke-width: 1.5;" x1="336.5" x2="424.5" y1="163.2422" y2="163.2422"/><!--MD5=[55a6f80882d3cd7368bedd1107f01aad]
class AudioTrack--><rect fill="#FEFECE" filter="url(#f1egd44ua5uw7j)" height="79.5469" id="AudioTrack" style="stroke: #A80036; stroke-width: 1.5;" width="117" x="314" y="1351"/><ellipse cx="329.45" cy="1369.9688" fill="#ADD1B2" rx="11" ry="11" style="stroke: #A80036; stroke-width: 1.0;"/><path d="M332.4188,1375.6094 Q331.8406,1375.9063 331.2,1376.0469 Q330.5594,1376.2031 329.8563,1376.2031 Q327.3563,1376.2031 326.0281,1374.5625 Q324.7156,1372.9063 324.7156,1369.7813 Q324.7156,1366.6563 326.0281,1365 Q327.3563,1363.3438 329.8563,1363.3438 Q330.5594,1363.3438 331.2,1363.5 Q331.8563,1363.6563 332.4188,1363.9531 L332.4188,1366.6719 Q331.7938,1366.0938 331.2,1365.8281 Q330.6063,1365.5469 329.9813,1365.5469 Q328.6375,1365.5469 327.95,1366.625 Q327.2625,1367.6875 327.2625,1369.7813 Q327.2625,1371.875 327.95,1372.9531 Q328.6375,1374.0156 329.9813,1374.0156 Q330.6063,1374.0156 331.2,1373.75 Q331.7938,1373.4688 332.4188,1372.8906 L332.4188,1375.6094 Z "/><text fill="#000000" font-family="sans-serif" font-size="12" font-style="italic" lengthAdjust="spacingAndGlyphs" textLength="88" x="341.55" y="1367.1387">«ValueObject»</text><text fill="#000000" font-family="sans-serif" font-size="12" lengthAdjust="spacingAndGlyphs" textLength="69" x="351.05" y="1381.1074">AudioTrack</text><line style="stroke: #A80036; stroke-width: 1.5;" x1="315" x2="430" y1="1388.9375" y2="1388.9375"/><text fill="#000000" font-family="sans-serif" font-size="11" lengthAdjust="spacingAndGlyphs" textLength="105" x="320" y="1403.1479">+Language: string</text><text fill="#000000" font-family="sans-serif" font-size="11" lengthAdjust="spacingAndGlyphs" textLength="90" x="320" y="1415.9526">+Format: string</text><line style="stroke: #A80036; stroke-width: 1.5;" x1="315" x2="430" y1="1422.5469" y2="1422.5469"/><!--MD5=[585ee8f65e307620999c6f40d00190ed]
class MovieStructure--><rect fill="#FEFECE" filter="url(#f1egd44ua5uw7j)" height="86.4141" id="MovieStructure" style="stroke: #A80036; stroke-width: 1.5;" width="158" x="63.5" y="1049.5"/><ellipse cx="92.9" cy="1065.5" fill="#ADD1B2" rx="11" ry="11" style="stroke: #A80036; stroke-width: 1.0;"/><path d="M95.8688,1071.1406 Q95.2906,1071.4375 94.65,1071.5781 Q94.0094,1071.7344 93.3063,1071.7344 Q90.8063,1071.7344 89.4781,1070.0938 Q88.1656,1068.4375 88.1656,1065.3125 Q88.1656,1062.1875 89.4781,1060.5313 Q90.8063,1058.875 93.3063,1058.875 Q94.0094,1058.875 94.65,1059.0313 Q95.3063,1059.1875 95.8688,1059.4844 L95.8688,1062.2031 Q95.2438,1061.625 94.65,1061.3594 Q94.0563,1061.0781 93.4313,1061.0781 Q92.0875,1061.0781 91.4,1062.1563 Q90.7125,1063.2188 90.7125,1065.3125 Q90.7125,1067.4063 91.4,1068.4844 Q92.0875,1069.5469 93.4313,1069.5469 Q94.0563,1069.5469 94.65,1069.2813 Q95.2438,1069 95.8688,1068.4219 L95.8688,1071.1406 Z "/><text fill="#000000" font-family="sans-serif" font-size="12" lengthAdjust="spacingAndGlyphs" textLength="94" x="110.1" y="1069.6543">MovieStructure</text><line style="stroke: #A80036; stroke-width: 1.5;" x1="64.5" x2="220.5" y1="1081.5" y2="1081.5"/><text fill="#000000" font-family="sans-serif" font-size="11" lengthAdjust="spacingAndGlyphs" textLength="131" x="69.5" y="1095.7104">-_features: List&lt;UUID&gt;</text><line style="stroke: #A80036; stroke-width: 1.0;" x1="64.5" x2="220.5" y1="1102.3047" y2="1102.3047"/><text fill="#000000" font-family="sans-serif" font-size="11" lengthAdjust="spacingAndGlyphs" textLength="122" x="69.5" y="1116.5151">+AddFeature(id): void</text><text fill="#000000" font-family="sans-serif" font-size="11" lengthAdjust="spacingAndGlyphs" textLength="146" x="69.5" y="1129.3198">+RemoveFeature(id): void</text><!--MD5=[cd683f41d8e1b15da58d9cd5310581c5]
class TVStructure--><rect fill="#FEFECE" filter="url(#f1egd44ua5uw7j)" height="137.6328" id="TVStructure" style="stroke: #A80036; stroke-width: 1.5;" width="410" x="167.5" y="638"/><ellipse cx="331.25" cy="654" fill="#ADD1B2" rx="11" ry="11" style="stroke: #A80036; stroke-width: 1.0;"/><path d="M334.2188,659.6406 Q333.6406,659.9375 333,660.0781 Q332.3594,660.2344 331.6563,660.2344 Q329.1563,660.2344 327.8281,658.5938 Q326.5156,656.9375 326.5156,653.8125 Q326.5156,650.6875 327.8281,649.0313 Q329.1563,647.375 331.6563,647.375 Q332.3594,647.375 333,647.5313 Q333.6563,647.6875 334.2188,647.9844 L334.2188,650.7031 Q333.5938,650.125 333,649.8594 Q332.4063,649.5781 331.7813,649.5781 Q330.4375,649.5781 329.75,650.6563 Q329.0625,651.7188 329.0625,653.8125 Q329.0625,655.9063 329.75,656.9844 Q330.4375,658.0469 331.7813,658.0469 Q332.4063,658.0469 333,657.7813 Q333.5938,657.5 334.2188,656.9219 L334.2188,659.6406 Z "/><text fill="#000000" font-family="sans-serif" font-size="12" lengthAdjust="spacingAndGlyphs" textLength="74" x="351.75" y="658.1543">TVStructure</text><line style="stroke: #A80036; stroke-width: 1.5;" x1="168.5" x2="576.5" y1="670" y2="670"/><text fill="#000000" font-family="sans-serif" font-size="11" lengthAdjust="spacingAndGlyphs" textLength="105" x="173.5" y="684.2104">+Status: TVStatus</text><text fill="#000000" font-family="sans-serif" font-size="11" lengthAdjust="spacingAndGlyphs" textLength="129" x="173.5" y="697.0151">+EndedOn?: LocalDate</text><text fill="#000000" font-family="sans-serif" font-size="11" lengthAdjust="spacingAndGlyphs" textLength="132" x="173.5" y="709.8198">-_seasons: List&lt;UUID&gt;</text><line style="stroke: #A80036; stroke-width: 1.0;" x1="168.5" x2="576.5" y1="716.4141" y2="716.4141"/><text fill="#000000" font-family="sans-serif" font-size="11" lengthAdjust="spacingAndGlyphs" textLength="122" x="173.5" y="730.6245">+AddSeason(id): void</text><text fill="#000000" font-family="sans-serif" font-size="11" lengthAdjust="spacingAndGlyphs" textLength="146" x="173.5" y="743.4292">+RemoveSeason(id): void</text><text fill="#000000" font-family="sans-serif" font-size="11" lengthAdjust="spacingAndGlyphs" textLength="398" x="173.5" y="756.2339">+AddEpisodeToSeason(seasonId, episodeId, number?, airDate, role?)</text><text fill="#000000" font-family="sans-serif" font-size="11" lengthAdjust="spacingAndGlyphs" textLength="294" x="173.5" y="769.0386">+RemoveEpisodeFromSeason(seasonId, episodeId)</text><!--MD5=[ec068ab7b1cfb32e88f15482ccdce528]
class TVStatus--><rect fill="#FEFECE" filter="url(#f1egd44ua5uw7j)" height="99.2188" id="TVStatus" style="stroke: #A80036; stroke-width: 1.5;" width="88" x="26.5" y="279"/><ellipse cx="41.5" cy="295" fill="#EB937F" rx="11" ry="11" style="stroke: #A80036; stroke-width: 1.0;"/><path d="M45.6094,301 L37.8906,301 L37.8906,288.6094 L45.6094,288.6094 L45.6094,290.7656 L40.3438,290.7656 L40.3438,293.4375 L45.1094,293.4375 L45.1094,295.5938 L40.3438,295.5938 L40.3438,298.8438 L45.6094,298.8438 L45.6094,301 Z "/><text fill="#000000" font-family="sans-serif" font-size="12" lengthAdjust="spacingAndGlyphs" textLength="56" x="55.5" y="299.1543">TVStatus</text><line style="stroke: #A80036; stroke-width: 1.5;" x1="27.5" x2="113.5" y1="311" y2="311"/><text fill="#000000" font-family="sans-serif" font-size="11" lengthAdjust="spacingAndGlyphs" textLength="47" x="32.5" y="325.2104">Ongoing</text><text fill="#000000" font-family="sans-serif" font-size="11" lengthAdjust="spacingAndGlyphs" textLength="35" x="32.5" y="338.0151">Ended</text><text fill="#000000" font-family="sans-serif" font-size="11" lengthAdjust="spacingAndGlyphs" textLength="55" x="32.5" y="350.8198">Cancelled</text><text fill="#000000" font-family="sans-serif" font-size="11" lengthAdjust="spacingAndGlyphs" textLength="51" x="32.5" y="363.6245">Unknown</text><line style="stroke: #A80036; stroke-width: 1.5;" x1="27.5" x2="113.5" y1="370.2188" y2="370.2188"/><!--MD5=[2916714cae8f0462c1096d4fd55ce4c3]
class Season--><rect fill="#FEFECE" filter="url(#f1egd44ua5uw7j)" height="143.5703" id="Season" style="stroke: #A80036; stroke-width: 1.5;" width="236" x="254.5" y="836"/><ellipse cx="344.75" cy="854.9688" fill="#ADD1B2" rx="11" ry="11" style="stroke: #A80036; stroke-width: 1.0;"/><path d="M347.7188,860.6094 Q347.1406,860.9063 346.5,861.0469 Q345.8594,861.2031 345.1563,861.2031 Q342.6563,861.2031 341.3281,859.5625 Q340.0156,857.9063 340.0156,854.7813 Q340.0156,851.6563 341.3281,850 Q342.6563,848.3438 345.1563,848.3438 Q345.8594,848.3438 346.5,848.5 Q347.1563,848.6563 347.7188,848.9531 L347.7188,851.6719 Q347.0938,851.0938 346.5,850.8281 Q345.9063,850.5469 345.2813,850.5469 Q343.9375,850.5469 343.25,851.625 Q342.5625,852.6875 342.5625,854.7813 Q342.5625,856.875 343.25,857.9531 Q343.9375,859.0156 345.2813,859.0156 Q345.9063,859.0156 346.5,858.75 Q347.0938,858.4688 347.7188,857.8906 L347.7188,860.6094 Z "/><text fill="#000000" font-family="sans-serif" font-size="12" font-style="italic" lengthAdjust="spacingAndGlyphs" textLength="50" x="363.75" y="852.1387">«Entity»</text><text fill="#000000" font-family="sans-serif" font-size="12" lengthAdjust="spacingAndGlyphs" textLength="47" x="365.25" y="866.1074">Season</text><line style="stroke: #A80036; stroke-width: 1.5;" x1="255.5" x2="489.5" y1="873.9375" y2="873.9375"/><text fill="#000000" font-family="sans-serif" font-size="11" lengthAdjust="spacingAndGlyphs" textLength="54" x="260.5" y="888.1479">+Id: UUID</text><text fill="#000000" font-family="sans-serif" font-size="11" lengthAdjust="spacingAndGlyphs" textLength="119" x="260.5" y="900.9526">+SeasonNumber: int</text><text fill="#000000" font-family="sans-serif" font-size="11" lengthAdjust="spacingAndGlyphs" textLength="80" x="260.5" y="913.7573">+Title: string?</text><text fill="#000000" font-family="sans-serif" font-size="11" lengthAdjust="spacingAndGlyphs" textLength="120" x="260.5" y="926.562">+Description: string?</text><text fill="#000000" font-family="sans-serif" font-size="11" lengthAdjust="spacingAndGlyphs" textLength="149" x="260.5" y="939.3667">_episodes: List&lt;Episode&gt;</text><line style="stroke: #A80036; stroke-width: 1.0;" x1="255.5" x2="489.5" y1="945.9609" y2="945.9609"/><text fill="#000000" font-family="sans-serif" font-size="11" lengthAdjust="spacingAndGlyphs" textLength="224" x="260.5" y="960.1714">+AddEpisode(id, number, airDate, role)</text><text fill="#000000" font-family="sans-serif" font-size="11" lengthAdjust="spacingAndGlyphs" textLength="117" x="260.5" y="972.9761">+RemoveEpisode(id)</text><!--MD5=[89f1af135d226d270851fb7756972918]
class Episode--><rect fill="#FEFECE" filter="url(#f1egd44ua5uw7j)" height="105.1563" id="Episode" style="stroke: #A80036; stroke-width: 1.5;" width="177" x="284" y="1040"/><ellipse cx="343.25" cy="1058.9688" fill="#ADD1B2" rx="11" ry="11" style="stroke: #A80036; stroke-width: 1.0;"/><path d="M346.2188,1064.6094 Q345.6406,1064.9063 345,1065.0469 Q344.3594,1065.2031 343.6563,1065.2031 Q341.1563,1065.2031 339.8281,1063.5625 Q338.5156,1061.9063 338.5156,1058.7813 Q338.5156,1055.6563 339.8281,1054 Q341.1563,1052.3438 343.6563,1052.3438 Q344.3594,1052.3438 345,1052.5 Q345.6563,1052.6563 346.2188,1052.9531 L346.2188,1055.6719 Q345.5938,1055.0938 345,1054.8281 Q344.4063,1054.5469 343.7813,1054.5469 Q342.4375,1054.5469 341.75,1055.625 Q341.0625,1056.6875 341.0625,1058.7813 Q341.0625,1060.875 341.75,1061.9531 Q342.4375,1063.0156 343.7813,1063.0156 Q344.4063,1063.0156 345,1062.75 Q345.5938,1062.4688 346.2188,1061.8906 L346.2188,1064.6094 Z "/><text fill="#000000" font-family="sans-serif" font-size="12" font-style="italic" lengthAdjust="spacingAndGlyphs" textLength="50" x="363.75" y="1056.1387">«Entity»</text><text fill="#000000" font-family="sans-serif" font-size="12" lengthAdjust="spacingAndGlyphs" textLength="50" x="363.75" y="1070.1074">Episode</text><line style="stroke: #A80036; stroke-width: 1.5;" x1="285" x2="460" y1="1077.9375" y2="1077.9375"/><text fill="#000000" font-family="sans-serif" font-size="11" lengthAdjust="spacingAndGlyphs" textLength="96" x="290" y="1092.1479">+contentId: UUID</text><text fill="#000000" font-family="sans-serif" font-size="11" lengthAdjust="spacingAndGlyphs" textLength="127" x="290" y="1104.9526">+EpisodeNumber?: int</text><text fill="#000000" font-family="sans-serif" font-size="11" lengthAdjust="spacingAndGlyphs" textLength="113" x="290" y="1117.7573">+AirDate: LocalDate</text><text fill="#000000" font-family="sans-serif" font-size="11" lengthAdjust="spacingAndGlyphs" textLength="165" x="290" y="1130.562">+EpisodeRole?: EpisodeRole;</text><line style="stroke: #A80036; stroke-width: 1.5;" x1="285" x2="460" y1="1137.1563" y2="1137.1563"/><!--MD5=[07d2bb4561db7ebe8a29842a6983f241]
class EpisodeRole--><rect fill="#FEFECE" filter="url(#f1egd44ua5uw7j)" height="86.4141" id="EpisodeRole" style="stroke: #A80036; stroke-width: 1.5;" width="109" x="150" y="285.5"/><ellipse cx="165" cy="301.5" fill="#EB937F" rx="11" ry="11" style="stroke: #A80036; stroke-width: 1.0;"/><path d="M169.1094,307.5 L161.3906,307.5 L161.3906,295.1094 L169.1094,295.1094 L169.1094,297.2656 L163.8438,297.2656 L163.8438,299.9375 L168.6094,299.9375 L168.6094,302.0938 L163.8438,302.0938 L163.8438,305.3438 L169.1094,305.3438 L169.1094,307.5 Z "/><text fill="#000000" font-family="sans-serif" font-size="12" lengthAdjust="spacingAndGlyphs" textLength="77" x="179" y="305.6543">EpisodeRole</text><line style="stroke: #A80036; stroke-width: 1.5;" x1="151" x2="258" y1="317.5" y2="317.5"/><text fill="#000000" font-family="sans-serif" font-size="11" lengthAdjust="spacingAndGlyphs" textLength="43" x="156" y="331.7104">Regular</text><text fill="#000000" font-family="sans-serif" font-size="11" lengthAdjust="spacingAndGlyphs" textLength="36" x="156" y="344.5151">Bonus</text><text fill="#000000" font-family="sans-serif" font-size="11" lengthAdjust="spacingAndGlyphs" textLength="41" x="156" y="357.3198">Special</text><line style="stroke: #A80036; stroke-width: 1.5;" x1="151" x2="258" y1="363.9141" y2="363.9141"/><!--MD5=[1a95835255177050dd8028a7da1b3a6a]
class Contributor--><rect fill="#FEFECE" filter="url(#f1egd44ua5uw7j)" height="48" id="Contributor" style="stroke: #A80036; stroke-width: 1.5;" width="103" x="613" y="683"/><ellipse cx="628" cy="699" fill="#ADD1B2" rx="11" ry="11" style="stroke: #A80036; stroke-width: 1.0;"/><path d="M630.9688,704.6406 Q630.3906,704.9375 629.75,705.0781 Q629.1094,705.2344 628.4063,705.2344 Q625.9063,705.2344 624.5781,703.5938 Q623.2656,701.9375 623.2656,698.8125 Q623.2656,695.6875 624.5781,694.0313 Q625.9063,692.375 628.4063,692.375 Q629.1094,692.375 629.75,692.5313 Q630.4063,692.6875 630.9688,692.9844 L630.9688,695.7031 Q630.3438,695.125 629.75,694.8594 Q629.1563,694.5781 628.5313,694.5781 Q627.1875,694.5781 626.5,695.6563 Q625.8125,696.7188 625.8125,698.8125 Q625.8125,700.9063 626.5,701.9844 Q627.1875,703.0469 628.5313,703.0469 Q629.1563,703.0469 629.75,702.7813 Q630.3438,702.5 630.9688,701.9219 L630.9688,704.6406 Z "/><text fill="#000000" font-family="sans-serif" font-size="12" lengthAdjust="spacingAndGlyphs" textLength="71" x="642" y="703.1543">Contributor</text><line style="stroke: #A80036; stroke-width: 1.5;" x1="614" x2="715" y1="715" y2="715"/><line style="stroke: #A80036; stroke-width: 1.5;" x1="614" x2="715" y1="723" y2="723"/><!--MD5=[66780e464ae187471ee6373dab337c1f]
reverse link MediaWork to MediaStructure--><path d="M497.59,426.41 C469.82,449.63 441.73,473.11 419.23,491.93 " fill="none" id="MediaWork&lt;-MediaStructure" style="stroke: #A80036; stroke-width: 1.0;"/><polygon fill="#A80036" points="507.79,417.88,500.6215,418.6623,498.5865,425.5804,505.755,424.798,507.79,417.88" style="stroke: #A80036; stroke-width: 1.0;"/><text fill="#000000" font-family="sans-serif" font-size="13" lengthAdjust="spacingAndGlyphs" textLength="8" x="492.076" y="420.7162">1</text><text fill="#000000" font-family="sans-serif" font-size="13" lengthAdjust="spacingAndGlyphs" textLength="8" x="418.5742" y="480.8712">1</text><!--MD5=[9ad4f954b28ad54f2491927702a17c0b]
reverse link MediaWork to Contribution--><path d="M613.5,439.35 C613.5,455.8 613.5,471.92 613.5,485.95 " fill="none" id="MediaWork&lt;-Contribution" style="stroke: #A80036; stroke-width: 1.0;"/><polygon fill="#A80036" points="613.5,426.12,609.5,432.12,613.5,438.12,617.5,432.12,613.5,426.12" style="stroke: #A80036; stroke-width: 1.0;"/><text fill="#000000" font-family="sans-serif" font-size="13" lengthAdjust="spacingAndGlyphs" textLength="8" x="605.2063" y="445.9193">1</text><text fill="#000000" font-family="sans-serif" font-size="13" lengthAdjust="spacingAndGlyphs" textLength="23" x="588.7391" y="474.8003">1..*</text><!--MD5=[6bfd38223bfcf85fe0a1d8f856fb6bfe]
reverse link MediaWork to Content--><path d="M709.82,437.22 C719.46,452.73 727.79,469.17 733.5,486 C774.91,608.06 758.12,649.49 733.5,776 C727.71,805.74 715.17,837.27 703.74,861.95 " fill="none" id="MediaWork&lt;-Content" style="stroke: #A80036; stroke-width: 1.0;"/><polygon fill="#A80036" points="702.58,426.1,702.4965,433.3106,709.1203,436.161,709.2038,428.9504,702.58,426.1" style="stroke: #A80036; stroke-width: 1.0;"/><text fill="#000000" font-family="sans-serif" font-size="13" lengthAdjust="spacingAndGlyphs" textLength="8" x="700.8281" y="445.8978">1</text><text fill="#000000" font-family="sans-serif" font-size="13" lengthAdjust="spacingAndGlyphs" textLength="23" x="682.5377" y="850.8003">0..*</text><!--MD5=[6f2cdbc98b0558b784c7cac9865fcd06]
reverse link Content to PlayableContent--><path d="M631.33,969.66 C591.35,1018.18 532.86,1087.37 478.5,1145 C459.4,1165.25 437.35,1186.75 418.32,1204.76 " fill="none" id="Content&lt;-PlayableContent" style="stroke: #A80036; stroke-width: 1.0;"/><polygon fill="none" points="626.04,965.07,644.14,954.05,636.86,973.95,626.04,965.07" style="stroke: #A80036; stroke-width: 1.0;"/><!--MD5=[66cb92c5741c367094de724f81452974]
reverse link PlayableContent to AudioTrack--><path d="M372.5,1304.51 C372.5,1319.92 372.5,1336.34 372.5,1350.62 " fill="none" id="PlayableContent&lt;-AudioTrack" style="stroke: #A80036; stroke-width: 1.0;"/><polygon fill="#A80036" points="372.5,1291.3,368.5,1297.3,372.5,1303.3,376.5,1297.3,372.5,1291.3" style="stroke: #A80036; stroke-width: 1.0;"/><text fill="#000000" font-family="sans-serif" font-size="13" lengthAdjust="spacingAndGlyphs" textLength="8" x="363.8625" y="1311.4407">1</text><text fill="#000000" font-family="sans-serif" font-size="13" lengthAdjust="spacingAndGlyphs" textLength="23" x="347.5953" y="1339.8053">0..*</text><!--MD5=[755a94a156c45b2770e2136e086b4693]
reverse link MediaStructure to MovieStructure--><path d="M272.98,554.27 C227.24,569.52 177.11,595.21 149.5,638 C65.92,767.51 106.07,964.12 129.59,1049.49 " fill="none" id="MediaStructure&lt;-MovieStructure" style="stroke: #A80036; stroke-width: 1.0;"/><polygon fill="none" points="271.07,547.53,292.24,548.35,275.18,560.92,271.07,547.53" style="stroke: #A80036; stroke-width: 1.0;"/><!--MD5=[f9850155753dff298f6540f5486509cf]
link MovieStructure to PlayableContent--><path d="M205.65,1135.65 C236.58,1156.29 273.83,1181.15 305.29,1202.14 " fill="none" id="MovieStructure-&gt;PlayableContent" style="stroke: #A80036; stroke-width: 1.0; stroke-dasharray: 7.0,7.0;"/><polygon fill="#A80036" points="309.49,1204.95,304.2203,1196.6295,305.3297,1202.1765,299.7827,1203.2859,309.49,1204.95" style="stroke: #A80036; stroke-width: 1.0;"/><!--MD5=[95e6b51c1441291895ec20d875b5c906]
reverse link MediaStructure to TVStructure--><path d="M372.5,592.29 C372.5,606.91 372.5,622.68 372.5,637.69 " fill="none" id="MediaStructure&lt;-TVStructure" style="stroke: #A80036; stroke-width: 1.0;"/><polygon fill="none" points="365.5,592.26,372.5,572.26,379.5,592.26,365.5,592.26" style="stroke: #A80036; stroke-width: 1.0;"/><!--MD5=[715f6fc953806b9e755f3a7cd209b8c2]
reverse link TVStructure to Season--><path d="M372.5,789.51 C372.5,804.87 372.5,820.82 372.5,835.83 " fill="none" id="TVStructure&lt;-Season" style="stroke: #A80036; stroke-width: 1.0;"/><polygon fill="#A80036" points="372.5,776.21,368.5,782.21,372.5,788.21,376.5,782.21,372.5,776.21" style="stroke: #A80036; stroke-width: 1.0;"/><text fill="#000000" font-family="sans-serif" font-size="13" lengthAdjust="spacingAndGlyphs" textLength="8" x="364.1188" y="795.6121">1</text><text fill="#000000" font-family="sans-serif" font-size="13" lengthAdjust="spacingAndGlyphs" textLength="23" x="348.3141" y="824.7099">1..*</text><!--MD5=[ff064e4e2613780c041fbf5360d2bb00]
reverse link Season to Episode--><path d="M372.5,993.3 C372.5,1009.17 372.5,1025.32 372.5,1039.82 " fill="none" id="Season&lt;-Episode" style="stroke: #A80036; stroke-width: 1.0;"/><polygon fill="#A80036" points="372.5,980.08,368.5,986.08,372.5,992.08,376.5,986.08,372.5,980.08" style="stroke: #A80036; stroke-width: 1.0;"/><text fill="#000000" font-family="sans-serif" font-size="13" lengthAdjust="spacingAndGlyphs" textLength="8" x="364.1188" y="999.7587">1</text><text fill="#000000" font-family="sans-serif" font-size="13" lengthAdjust="spacingAndGlyphs" textLength="23" x="347.9547" y="1028.7986">1..*</text><!--MD5=[9b1e0c9b1b7df58fa8be67b96718dd0f]
link Episode to PlayableContent--><path d="M372.5,1145.04 C372.5,1162.56 372.5,1182.06 372.5,1199.27 " fill="none" id="Episode-&gt;PlayableContent" style="stroke: #A80036; stroke-width: 1.0; stroke-dasharray: 7.0,7.0;"/><polygon fill="#A80036" points="372.5,1204.53,376.5,1195.53,372.5,1199.53,368.5,1195.53,372.5,1204.53" style="stroke: #A80036; stroke-width: 1.0;"/><!--MD5=[96eca555c283861625927cf39bbe0ece]
link Contribution to Contributor--><path d="M626.77,578 C636.1,609.67 648.3,651.06 656.27,678.08 " fill="none" id="Contribution-&gt;Contributor" style="stroke: #A80036; stroke-width: 1.0; stroke-dasharray: 7.0,7.0;"/><polygon fill="#A80036" points="657.7,682.95,658.9932,673.1864,656.2869,678.1539,651.3194,675.4475,657.7,682.95" style="stroke: #A80036; stroke-width: 1.0;"/><!--MD5=[5d16b4e1c091feb99c1616c4a998592f]
link MediaWorkType to ContributorRole--><!--MD5=[31d224b1485796796e2c2d5560997cb2]
link ContributorRole to CutType--><!--MD5=[a8939840f3e354cab637560f69015c97]
link MediaWorkType to TVStatus--><!--MD5=[3ec277588cdc5ed9689a79e2f250b553]
link TVStatus to EpisodeRole--><!--MD5=[94012b85e051361a660b4d13f49d7443]
@startuml
skinparam classAttributeIconSize 0

class MediaWork <<AggregateRoot>> {
    +Id: UUID
    +Title: string
    +Description?: string
    +OriginalReleaseDate: LocalDate
    -_structure: MediaStructure
    -_contributions: List<Contribution>
    -_content: List<Content>
    - -
    +AddContribution(id, role): void
    +RemoveContribution(id): void
    +AddContent(content): void
    +RemoveContent(id): void
}

note top of MediaWork
Invariant:
- Must have exactly one MediaStructure
- Structure defines the MediaWork type
- Must have at least one creator contribution
- Cannot remove last creator
- All Features / Episodes must reference a
  Content that is a PlayableContent inside
  MediaWork._contents
end note

abstract class MediaStructure <<Entity>> {
    - -
    +Type(): MediaWorkType
    +IsCreatorRole(role): bool
}

MediaWork "1" *- - "1" MediaStructure

enum MediaWorkType {
    Movie
    TV
}

class Contribution <<Entity>> {
    +Id: UUID
    +ContributorId: UUID
    +ContributorRole: ContributorRole
}

class ContributorRole <<ValueObject>> {
    +Name: string
}

MediaWork "1" *- - "1..*" Contribution

class Content <<Entity>> {
    +Id: UUID
    +Title?: string
    +Description?: string
}

MediaWork "1" *- - "0..*" Content

class PlayableContent {
    +RuntimeMinutes: int
    +CutType?: CutType
    +SubtitleTracks: List<string>
}

enum CutType {
    DirectorCut
    Extended
    FinalCut
    HomeRelease
    International
    Original
    Other
    Theatrical
    Uncut
}

Content <|- - PlayableContent

class AudioTrack <<ValueObject>> {
    +Language: string
    +Format: string
}

PlayableContent "1" *- - "0..*" AudioTrack

class MovieStructure {
    -_features: List<UUID>
    - -
    +AddFeature(id): void
    +RemoveFeature(id): void
}

MediaStructure <|- - MovieStructure
MovieStructure ..> PlayableContent

class TVStructure {
    +Status: TVStatus
    +EndedOn?: LocalDate
    -_seasons: List<UUID>
    - -
    +AddSeason(id): void
    +RemoveSeason(id): void
    +AddEpisodeToSeason(seasonId, episodeId, number?, airDate, role?)
    +RemoveEpisodeFromSeason(seasonId, episodeId)
}

MediaStructure <|- - TVStructure

enum TVStatus {
    Ongoing
    Ended
    Cancelled
    Unknown
}

class Season <<Entity>> {
    +Id: UUID
    +SeasonNumber: int
    +Title: string?
    +Description: string?
    _episodes: List<Episode>
    - -
    +AddEpisode(id, number, airDate, role)
    +RemoveEpisode(id)
}

TVStructure "1" *- - "1..*" Season

class Episode <<Entity>> {
    +contentId: UUID
    +EpisodeNumber?: int
    +AirDate: LocalDate
    +EpisodeRole?: EpisodeRole;
}

Season "1" *- - "1..*" Episode
Episode ..> PlayableContent

enum EpisodeRole {
    Regular
    Bonus
    Special
}

Contribution ..> Contributor

@enduml

PlantUML version 1.2020.02(Sun Mar 01 10:22:07 UTC 2020)
(GPL source distribution)
Java Runtime: OpenJDK Runtime Environment
JVM: OpenJDK 64-Bit Server VM
Java Version: 17.0.18+8
Operating System: Linux
Default Encoding: UTF-8
Language: en
Country: null
--></g></svg>