<?xml version="1.0" encoding="UTF-8" standalone="no"?><svg xmlns="http://www.w3.org/2000/svg" xmlns:xlink="http://www.w3.org/1999/xlink" contentScriptType="application/ecmascript" contentStyleType="text/css" height="691px" preserveAspectRatio="none" style="width:1103px;height:691px;" version="1.1" viewBox="0 0 1103 691" width="1103px" zoomAndPan="magnify"><defs><filter height="300%" id="f6bj7vffyf00a" width="300%" x="-1" y="-1"><feGaussianBlur result="blurOut" stdDeviation="2.0"/><feColorMatrix in="blurOut" result="blurOut2" type="matrix" values="0 0 0 0 0 0 0 0 0 0 0 0 0 0 0 0 0 0 .4 0"/><feOffset dx="4.0" dy="4.0" in="blurOut2" result="blurOut3"/><feBlend in="SourceGraphic" in2="blurOut3" mode="normal"/></filter></defs><g><!--MD5=[a37707a5a7e4fa9ccccea367e3a415b8]
class Edition--><rect fill="#FEFECE" filter="url(#f6bj7vffyf00a)" height="117.9609" id="Edition" style="stroke: #A80036; stroke-width: 1.5;" width="182" x="653.5" y="235"/><ellipse cx="688.75" cy="253.9688" fill="#ADD1B2" rx="11" ry="11" style="stroke: #A80036; stroke-width: 1.0;"/><path d="M691.7188,259.6094 Q691.1406,259.9063 690.5,260.0469 Q689.8594,260.2031 689.1563,260.2031 Q686.6563,260.2031 685.3281,258.5625 Q684.0156,256.9063 684.0156,253.7813 Q684.0156,250.6563 685.3281,249 Q686.6563,247.3438 689.1563,247.3438 Q689.8594,247.3438 690.5,247.5 Q691.1563,247.6563 691.7188,247.9531 L691.7188,250.6719 Q691.0938,250.0938 690.5,249.8281 Q689.9063,249.5469 689.2813,249.5469 Q687.9375,249.5469 687.25,250.625 Q686.5625,251.6875 686.5625,253.7813 Q686.5625,255.875 687.25,256.9531 Q687.9375,258.0156 689.2813,258.0156 Q689.9063,258.0156 690.5,257.75 Q691.0938,257.4688 691.7188,256.8906 L691.7188,259.6094 Z "/><text fill="#000000" font-family="sans-serif" font-size="12" font-style="italic" lengthAdjust="spacingAndGlyphs" textLength="109" x="705.25" y="251.1387">«AggregateRoot»</text><text fill="#000000" font-family="sans-serif" font-size="12" lengthAdjust="spacingAndGlyphs" textLength="43" x="738.25" y="265.1074">Edition</text><line style="stroke: #A80036; stroke-width: 1.5;" x1="654.5" x2="834.5" y1="272.9375" y2="272.9375"/><text fill="#000000" font-family="sans-serif" font-size="11" lengthAdjust="spacingAndGlyphs" textLength="54" x="659.5" y="287.1479">+Id: UUID</text><text fill="#000000" font-family="sans-serif" font-size="11" lengthAdjust="spacingAndGlyphs" textLength="74" x="659.5" y="299.9526">+Title: string</text><text fill="#000000" font-family="sans-serif" font-size="11" lengthAdjust="spacingAndGlyphs" textLength="143" x="659.5" y="312.7573">+ReleaseDate: LocalDate</text><text fill="#000000" font-family="sans-serif" font-size="11" lengthAdjust="spacingAndGlyphs" textLength="149" x="659.5" y="325.562">+MediaWorks: List&lt;UUID&gt;</text><text fill="#000000" font-family="sans-serif" font-size="11" lengthAdjust="spacingAndGlyphs" textLength="170" x="659.5" y="338.3667">+Packaging?: MediaPackaging</text><line style="stroke: #A80036; stroke-width: 1.5;" x1="654.5" x2="834.5" y1="344.9609" y2="344.9609"/><path d="M442,35 L442,105.5313 A0,0 0 0 0 442,105.5313 L631.66,105.5313 L710.69,234.95 L639.66,105.5313 L789,105.5313 A0,0 0 0 0 789,105.5313 L789,45 L779,35 L442,35 A0,0 0 0 0 442,35 " fill="#FBFB77" filter="url(#f6bj7vffyf00a)" style="stroke: #A80036; stroke-width: 1.0;"/><path d="M779,35 L779,45 L789,45 L779,35 " fill="#FBFB77" style="stroke: #A80036; stroke-width: 1.0;"/><text fill="#000000" font-family="sans-serif" font-size="13" lengthAdjust="spacingAndGlyphs" textLength="59" x="448" y="52.0669">Invariant:</text><text fill="#000000" font-family="sans-serif" font-size="13" lengthAdjust="spacingAndGlyphs" textLength="287" x="448" y="67.1997">- For each contentId in MediaCarrier.Content,</text><text fill="#000000" font-family="sans-serif" font-size="13" lengthAdjust="spacingAndGlyphs" textLength="316" x="456" y="82.3325">there exists an EditionContent with that contentId</text><text fill="#000000" font-family="sans-serif" font-size="13" lengthAdjust="spacingAndGlyphs" textLength="318" x="456" y="97.4653">that references a content in MediaWork._contents</text><!--MD5=[2a0e6f3083803ff4799f87740b9e7a87]
class EditionContent--><rect fill="#FEFECE" filter="url(#f6bj7vffyf00a)" height="79.5469" id="EditionContent" style="stroke: #A80036; stroke-width: 1.5;" width="125" x="595" y="461"/><ellipse cx="610" cy="479.9688" fill="#ADD1B2" rx="11" ry="11" style="stroke: #A80036; stroke-width: 1.0;"/><path d="M612.9688,485.6094 Q612.3906,485.9063 611.75,486.0469 Q611.1094,486.2031 610.4063,486.2031 Q607.9063,486.2031 606.5781,484.5625 Q605.2656,482.9063 605.2656,479.7813 Q605.2656,476.6563 606.5781,475 Q607.9063,473.3438 610.4063,473.3438 Q611.1094,473.3438 611.75,473.5 Q612.4063,473.6563 612.9688,473.9531 L612.9688,476.6719 Q612.3438,476.0938 611.75,475.8281 Q611.1563,475.5469 610.5313,475.5469 Q609.1875,475.5469 608.5,476.625 Q607.8125,477.6875 607.8125,479.7813 Q607.8125,481.875 608.5,482.9531 Q609.1875,484.0156 610.5313,484.0156 Q611.1563,484.0156 611.75,483.75 Q612.3438,483.4688 612.9688,482.8906 L612.9688,485.6094 Z "/><text fill="#000000" font-family="sans-serif" font-size="12" font-style="italic" lengthAdjust="spacingAndGlyphs" textLength="88" x="626.5" y="477.1387">«ValueObject»</text><text fill="#000000" font-family="sans-serif" font-size="12" lengthAdjust="spacingAndGlyphs" textLength="93" x="624" y="491.1074">EditionContent</text><line style="stroke: #A80036; stroke-width: 1.5;" x1="596" x2="719" y1="498.9375" y2="498.9375"/><text fill="#000000" font-family="sans-serif" font-size="11" lengthAdjust="spacingAndGlyphs" textLength="98" x="601" y="513.1479">+ContentId: UUID</text><text fill="#000000" font-family="sans-serif" font-size="11" lengthAdjust="spacingAndGlyphs" textLength="109" x="601" y="525.9526">+Role: ContentRole</text><line style="stroke: #A80036; stroke-width: 1.5;" x1="596" x2="719" y1="532.5469" y2="532.5469"/><!--MD5=[c2b00153e41c72f71e6c335b117f4bc3]
class ContentRole--><rect fill="#FEFECE" filter="url(#f6bj7vffyf00a)" height="73.6094" id="ContentRole" style="stroke: #A80036; stroke-width: 1.5;" width="109" x="6" y="33.5"/><ellipse cx="21" cy="49.5" fill="#EB937F" rx="11" ry="11" style="stroke: #A80036; stroke-width: 1.0;"/><path d="M25.1094,55.5 L17.3906,55.5 L17.3906,43.1094 L25.1094,43.1094 L25.1094,45.2656 L19.8438,45.2656 L19.8438,47.9375 L24.6094,47.9375 L24.6094,50.0938 L19.8438,50.0938 L19.8438,53.3438 L25.1094,53.3438 L25.1094,55.5 Z "/><text fill="#000000" font-family="sans-serif" font-size="12" lengthAdjust="spacingAndGlyphs" textLength="77" x="35" y="53.6543">ContentRole</text><line style="stroke: #A80036; stroke-width: 1.5;" x1="7" x2="114" y1="65.5" y2="65.5"/><text fill="#000000" font-family="sans-serif" font-size="11" lengthAdjust="spacingAndGlyphs" textLength="44" x="12" y="79.7104">Primary</text><text fill="#000000" font-family="sans-serif" font-size="11" lengthAdjust="spacingAndGlyphs" textLength="60" x="12" y="92.5151">Secondary</text><line style="stroke: #A80036; stroke-width: 1.5;" x1="7" x2="114" y1="99.1094" y2="99.1094"/><!--MD5=[26f95a208f048184ec699ca7d3a2e108]
class MediaCarrier--><rect fill="#FEFECE" filter="url(#f6bj7vffyf00a)" height="92.3516" id="MediaCarrier" style="stroke: #A80036; stroke-width: 1.5;" width="138" x="763.5" y="455"/><ellipse cx="790.65" cy="473.9688" fill="#ADD1B2" rx="11" ry="11" style="stroke: #A80036; stroke-width: 1.0;"/><path d="M793.6188,479.6094 Q793.0406,479.9063 792.4,480.0469 Q791.7594,480.2031 791.0563,480.2031 Q788.5563,480.2031 787.2281,478.5625 Q785.9156,476.9063 785.9156,473.7813 Q785.9156,470.6563 787.2281,469 Q788.5563,467.3438 791.0563,467.3438 Q791.7594,467.3438 792.4,467.5 Q793.0563,467.6563 793.6188,467.9531 L793.6188,470.6719 Q792.9938,470.0938 792.4,469.8281 Q791.8063,469.5469 791.1813,469.5469 Q789.8375,469.5469 789.15,470.625 Q788.4625,471.6875 788.4625,473.7813 Q788.4625,475.875 789.15,476.9531 Q789.8375,478.0156 791.1813,478.0156 Q791.8063,478.0156 792.4,477.75 Q792.9938,477.4688 793.6188,476.8906 L793.6188,479.6094 Z "/><text fill="#000000" font-family="sans-serif" font-size="12" font-style="italic" lengthAdjust="spacingAndGlyphs" textLength="50" x="821.85" y="471.1387">«Entity»</text><text fill="#000000" font-family="sans-serif" font-size="12" lengthAdjust="spacingAndGlyphs" textLength="79" x="807.35" y="485.1074">MediaCarrier</text><line style="stroke: #A80036; stroke-width: 1.5;" x1="764.5" x2="900.5" y1="492.9375" y2="492.9375"/><text fill="#000000" font-family="sans-serif" font-size="11" lengthAdjust="spacingAndGlyphs" textLength="54" x="769.5" y="507.1479">+Id: UUID</text><text fill="#000000" font-family="sans-serif" font-size="11" lengthAdjust="spacingAndGlyphs" textLength="80" x="769.5" y="519.9526">+Title?: string</text><text fill="#000000" font-family="sans-serif" font-size="11" lengthAdjust="spacingAndGlyphs" textLength="126" x="769.5" y="532.7573">+Content: List&lt;UUID&gt;</text><line style="stroke: #A80036; stroke-width: 1.5;" x1="764.5" x2="900.5" y1="539.3516" y2="539.3516"/><!--MD5=[2a241da4127023b626ed54137c821762]
class DiscCarrier--><rect fill="#FEFECE" filter="url(#f6bj7vffyf00a)" height="73.6094" id="DiscCarrier" style="stroke: #A80036; stroke-width: 1.5;" width="214" x="725.5" y="607"/><ellipse cx="794.25" cy="623" fill="#ADD1B2" rx="11" ry="11" style="stroke: #A80036; stroke-width: 1.0;"/><path d="M797.2188,628.6406 Q796.6406,628.9375 796,629.0781 Q795.3594,629.2344 794.6563,629.2344 Q792.1563,629.2344 790.8281,627.5938 Q789.5156,625.9375 789.5156,622.8125 Q789.5156,619.6875 790.8281,618.0313 Q792.1563,616.375 794.6563,616.375 Q795.3594,616.375 796,616.5313 Q796.6563,616.6875 797.2188,616.9844 L797.2188,619.7031 Q796.5938,619.125 796,618.8594 Q795.4063,618.5781 794.7813,618.5781 Q793.4375,618.5781 792.75,619.6563 Q792.0625,620.7188 792.0625,622.8125 Q792.0625,624.9063 792.75,625.9844 Q793.4375,627.0469 794.7813,627.0469 Q795.4063,627.0469 796,626.7813 Q796.5938,626.5 797.2188,625.9219 L797.2188,628.6406 Z "/><text fill="#000000" font-family="sans-serif" font-size="12" lengthAdjust="spacingAndGlyphs" textLength="68" x="814.75" y="627.1543">DiscCarrier</text><line style="stroke: #A80036; stroke-width: 1.5;" x1="726.5" x2="938.5" y1="639" y2="639"/><text fill="#000000" font-family="sans-serif" font-size="11" lengthAdjust="spacingAndGlyphs" textLength="95" x="731.5" y="653.2104">+Type: DiscType</text><text fill="#000000" font-family="sans-serif" font-size="11" lengthAdjust="spacingAndGlyphs" textLength="202" x="731.5" y="666.0151">+RegionCodes?: List&lt;RegionCode&gt;</text><line style="stroke: #A80036; stroke-width: 1.5;" x1="726.5" x2="938.5" y1="672.6094" y2="672.6094"/><!--MD5=[6cff1fe544dc98a43ad5557173188fbe]
class DigitalCarrier--><rect fill="#FEFECE" filter="url(#f6bj7vffyf00a)" height="73.6094" id="DigitalCarrier" style="stroke: #A80036; stroke-width: 1.5;" width="118" x="974.5" y="607"/><ellipse cx="991.75" cy="623" fill="#ADD1B2" rx="11" ry="11" style="stroke: #A80036; stroke-width: 1.0;"/><path d="M994.7188,628.6406 Q994.1406,628.9375 993.5,629.0781 Q992.8594,629.2344 992.1563,629.2344 Q989.6563,629.2344 988.3281,627.5938 Q987.0156,625.9375 987.0156,622.8125 Q987.0156,619.6875 988.3281,618.0313 Q989.6563,616.375 992.1563,616.375 Q992.8594,616.375 993.5,616.5313 Q994.1563,616.6875 994.7188,616.9844 L994.7188,619.7031 Q994.0938,619.125 993.5,618.8594 Q992.9063,618.5781 992.2813,618.5781 Q990.9375,618.5781 990.25,619.6563 Q989.5625,620.7188 989.5625,622.8125 Q989.5625,624.9063 990.25,625.9844 Q990.9375,627.0469 992.2813,627.0469 Q992.9063,627.0469 993.5,626.7813 Q994.0938,626.5 994.7188,625.9219 L994.7188,628.6406 Z "/><text fill="#000000" font-family="sans-serif" font-size="12" lengthAdjust="spacingAndGlyphs" textLength="81" x="1006.25" y="627.1543">DigitalCarrier</text><line style="stroke: #A80036; stroke-width: 1.5;" x1="975.5" x2="1091.5" y1="639" y2="639"/><text fill="#000000" font-family="sans-serif" font-size="11" lengthAdjust="spacingAndGlyphs" textLength="106" x="980.5" y="653.2104">+Type: DigitalType</text><text fill="#000000" font-family="sans-serif" font-size="11" lengthAdjust="spacingAndGlyphs" textLength="104" x="980.5" y="666.0151">+Platform?: string</text><line style="stroke: #A80036; stroke-width: 1.5;" x1="975.5" x2="1091.5" y1="672.6094" y2="672.6094"/><!--MD5=[d2457eeb15b01f55cef6d73d49dcca83]
class MediaPackaging--><rect fill="#FEFECE" filter="url(#f6bj7vffyf00a)" height="124.8281" id="MediaPackaging" style="stroke: #A80036; stroke-width: 1.5;" width="134" x="150.5" y="8"/><ellipse cx="165.5" cy="24" fill="#EB937F" rx="11" ry="11" style="stroke: #A80036; stroke-width: 1.0;"/><path d="M169.6094,30 L161.8906,30 L161.8906,17.6094 L169.6094,17.6094 L169.6094,19.7656 L164.3438,19.7656 L164.3438,22.4375 L169.1094,22.4375 L169.1094,24.5938 L164.3438,24.5938 L164.3438,27.8438 L169.6094,27.8438 L169.6094,30 Z "/><text fill="#000000" font-family="sans-serif" font-size="12" lengthAdjust="spacingAndGlyphs" textLength="102" x="179.5" y="28.1543">MediaPackaging</text><line style="stroke: #A80036; stroke-width: 1.5;" x1="151.5" x2="283.5" y1="40" y2="40"/><text fill="#000000" font-family="sans-serif" font-size="11" lengthAdjust="spacingAndGlyphs" textLength="43" x="156.5" y="54.2104">Amaray</text><text fill="#000000" font-family="sans-serif" font-size="11" lengthAdjust="spacingAndGlyphs" textLength="39" x="156.5" y="67.0151">Boxset</text><text fill="#000000" font-family="sans-serif" font-size="11" lengthAdjust="spacingAndGlyphs" textLength="47" x="156.5" y="79.8198">Digipack</text><text fill="#000000" font-family="sans-serif" font-size="11" lengthAdjust="spacingAndGlyphs" textLength="60" x="156.5" y="92.6245">Mediabook</text><text fill="#000000" font-family="sans-serif" font-size="11" lengthAdjust="spacingAndGlyphs" textLength="52" x="156.5" y="105.4292">Slipcover</text><text fill="#000000" font-family="sans-serif" font-size="11" lengthAdjust="spacingAndGlyphs" textLength="56" x="156.5" y="118.2339">Steelbook</text><line style="stroke: #A80036; stroke-width: 1.5;" x1="151.5" x2="283.5" y1="124.8281" y2="124.8281"/><!--MD5=[99fc6a6aa0fa2e849ea18a19a95bfbff]
class DiscType--><rect fill="#FEFECE" filter="url(#f6bj7vffyf00a)" height="86.4141" id="DiscType" style="stroke: #A80036; stroke-width: 1.5;" width="87" x="320" y="27.5"/><ellipse cx="335" cy="43.5" fill="#EB937F" rx="11" ry="11" style="stroke: #A80036; stroke-width: 1.0;"/><path d="M339.1094,49.5 L331.3906,49.5 L331.3906,37.1094 L339.1094,37.1094 L339.1094,39.2656 L333.8438,39.2656 L333.8438,41.9375 L338.6094,41.9375 L338.6094,44.0938 L333.8438,44.0938 L333.8438,47.3438 L339.1094,47.3438 L339.1094,49.5 Z "/><text fill="#000000" font-family="sans-serif" font-size="12" lengthAdjust="spacingAndGlyphs" textLength="55" x="349" y="47.6543">DiscType</text><line style="stroke: #A80036; stroke-width: 1.5;" x1="321" x2="406" y1="59.5" y2="59.5"/><text fill="#000000" font-family="sans-serif" font-size="11" lengthAdjust="spacingAndGlyphs" textLength="38" x="326" y="73.7104">BluRay</text><text fill="#000000" font-family="sans-serif" font-size="11" lengthAdjust="spacingAndGlyphs" textLength="23" x="326" y="86.5151">DVD</text><text fill="#000000" font-family="sans-serif" font-size="11" lengthAdjust="spacingAndGlyphs" textLength="24" x="326" y="99.3198">UHD</text><line style="stroke: #A80036; stroke-width: 1.5;" x1="321" x2="406" y1="105.9141" y2="105.9141"/><!--MD5=[ec676e076541c90b7d0d2488eecba3e8]
class DigitalType--><rect fill="#FEFECE" filter="url(#f6bj7vffyf00a)" height="73.6094" id="DigitalType" style="stroke: #A80036; stroke-width: 1.5;" width="100" x="10.5" y="257"/><ellipse cx="25.5" cy="273" fill="#EB937F" rx="11" ry="11" style="stroke: #A80036; stroke-width: 1.0;"/><path d="M29.6094,279 L21.8906,279 L21.8906,266.6094 L29.6094,266.6094 L29.6094,268.7656 L24.3438,268.7656 L24.3438,271.4375 L29.1094,271.4375 L29.1094,273.5938 L24.3438,273.5938 L24.3438,276.8438 L29.6094,276.8438 L29.6094,279 Z "/><text fill="#000000" font-family="sans-serif" font-size="12" lengthAdjust="spacingAndGlyphs" textLength="68" x="39.5" y="277.1543">DigitalType</text><line style="stroke: #A80036; stroke-width: 1.5;" x1="11.5" x2="109.5" y1="289" y2="289"/><text fill="#000000" font-family="sans-serif" font-size="11" lengthAdjust="spacingAndGlyphs" textLength="55" x="16.5" y="303.2104">Download</text><text fill="#000000" font-family="sans-serif" font-size="11" lengthAdjust="spacingAndGlyphs" textLength="59" x="16.5" y="316.0151">Streaming</text><line style="stroke: #A80036; stroke-width: 1.5;" x1="11.5" x2="109.5" y1="322.6094" y2="322.6094"/><!--MD5=[f970b41b8ad8f81382c41974a9667f1c]
class RegionCode--><rect fill="#FEFECE" filter="url(#f6bj7vffyf00a)" height="201.6563" id="RegionCode" style="stroke: #A80036; stroke-width: 1.5;" width="107" x="146" y="193"/><ellipse cx="161" cy="209" fill="#EB937F" rx="11" ry="11" style="stroke: #A80036; stroke-width: 1.0;"/><path d="M165.1094,215 L157.3906,215 L157.3906,202.6094 L165.1094,202.6094 L165.1094,204.7656 L159.8438,204.7656 L159.8438,207.4375 L164.6094,207.4375 L164.6094,209.5938 L159.8438,209.5938 L159.8438,212.8438 L165.1094,212.8438 L165.1094,215 Z "/><text fill="#000000" font-family="sans-serif" font-size="12" lengthAdjust="spacingAndGlyphs" textLength="75" x="175" y="213.1543">RegionCode</text><line style="stroke: #A80036; stroke-width: 1.5;" x1="147" x2="252" y1="225" y2="225"/><text fill="#000000" font-family="sans-serif" font-size="11" lengthAdjust="spacingAndGlyphs" textLength="7" x="152" y="239.2104">A</text><text fill="#000000" font-family="sans-serif" font-size="11" lengthAdjust="spacingAndGlyphs" textLength="8" x="152" y="252.0151">B</text><text fill="#000000" font-family="sans-serif" font-size="11" lengthAdjust="spacingAndGlyphs" textLength="8" x="152" y="264.8198">C</text><text fill="#000000" font-family="sans-serif" font-size="11" lengthAdjust="spacingAndGlyphs" textLength="26" x="152" y="277.6245">0ALL</text><text fill="#000000" font-family="sans-serif" font-size="11" lengthAdjust="spacingAndGlyphs" textLength="7" x="152" y="290.4292">1</text><text fill="#000000" font-family="sans-serif" font-size="11" lengthAdjust="spacingAndGlyphs" textLength="7" x="152" y="303.2339">2</text><text fill="#000000" font-family="sans-serif" font-size="11" lengthAdjust="spacingAndGlyphs" textLength="7" x="152" y="316.0386">3</text><text fill="#000000" font-family="sans-serif" font-size="11" lengthAdjust="spacingAndGlyphs" textLength="7" x="152" y="328.8433">4</text><text fill="#000000" font-family="sans-serif" font-size="11" lengthAdjust="spacingAndGlyphs" textLength="7" x="152" y="341.6479">5</text><text fill="#000000" font-family="sans-serif" font-size="11" lengthAdjust="spacingAndGlyphs" textLength="7" x="152" y="354.4526">6</text><text fill="#000000" font-family="sans-serif" font-size="11" lengthAdjust="spacingAndGlyphs" textLength="7" x="152" y="367.2573">7</text><text fill="#000000" font-family="sans-serif" font-size="11" lengthAdjust="spacingAndGlyphs" textLength="7" x="152" y="380.062">8</text><line style="stroke: #A80036; stroke-width: 1.5;" x1="147" x2="252" y1="386.6563" y2="386.6563"/><!--MD5=[c3dd83c4944f050787f4b644933234ea]
class MediaWork--><rect fill="#FEFECE" filter="url(#f6bj7vffyf00a)" height="48" id="MediaWork" style="stroke: #A80036; stroke-width: 1.5;" width="100" x="824.5" y="46.5"/><ellipse cx="839.5" cy="62.5" fill="#ADD1B2" rx="11" ry="11" style="stroke: #A80036; stroke-width: 1.0;"/><path d="M842.4688,68.1406 Q841.8906,68.4375 841.25,68.5781 Q840.6094,68.7344 839.9063,68.7344 Q837.4063,68.7344 836.0781,67.0938 Q834.7656,65.4375 834.7656,62.3125 Q834.7656,59.1875 836.0781,57.5313 Q837.4063,55.875 839.9063,55.875 Q840.6094,55.875 841.25,56.0313 Q841.9063,56.1875 842.4688,56.4844 L842.4688,59.2031 Q841.8438,58.625 841.25,58.3594 Q840.6563,58.0781 840.0313,58.0781 Q838.6875,58.0781 838,59.1563 Q837.3125,60.2188 837.3125,62.3125 Q837.3125,64.4063 838,65.4844 Q838.6875,66.5469 840.0313,66.5469 Q840.6563,66.5469 841.25,66.2813 Q841.8438,66 842.4688,65.4219 L842.4688,68.1406 Z "/><text fill="#000000" font-family="sans-serif" font-size="12" lengthAdjust="spacingAndGlyphs" textLength="68" x="853.5" y="66.6543">MediaWork</text><line style="stroke: #A80036; stroke-width: 1.5;" x1="825.5" x2="923.5" y1="78.5" y2="78.5"/><line style="stroke: #A80036; stroke-width: 1.5;" x1="825.5" x2="923.5" y1="86.5" y2="86.5"/><!--MD5=[fd7366e9f96236d9aa60dcc04f2b83e5]
class Content--><rect fill="#FEFECE" filter="url(#f6bj7vffyf00a)" height="48" id="Content" style="stroke: #A80036; stroke-width: 1.5;" width="82" x="608.5" y="620"/><ellipse cx="623.5" cy="636" fill="#ADD1B2" rx="11" ry="11" style="stroke: #A80036; stroke-width: 1.0;"/><path d="M626.4688,641.6406 Q625.8906,641.9375 625.25,642.0781 Q624.6094,642.2344 623.9063,642.2344 Q621.4063,642.2344 620.0781,640.5938 Q618.7656,638.9375 618.7656,635.8125 Q618.7656,632.6875 620.0781,631.0313 Q621.4063,629.375 623.9063,629.375 Q624.6094,629.375 625.25,629.5313 Q625.9063,629.6875 626.4688,629.9844 L626.4688,632.7031 Q625.8438,632.125 625.25,631.8594 Q624.6563,631.5781 624.0313,631.5781 Q622.6875,631.5781 622,632.6563 Q621.3125,633.7188 621.3125,635.8125 Q621.3125,637.9063 622,638.9844 Q622.6875,640.0469 624.0313,640.0469 Q624.6563,640.0469 625.25,639.7813 Q625.8438,639.5 626.4688,638.9219 L626.4688,641.6406 Z "/><text fill="#000000" font-family="sans-serif" font-size="12" lengthAdjust="spacingAndGlyphs" textLength="50" x="637.5" y="640.1543">Content</text><line style="stroke: #A80036; stroke-width: 1.5;" x1="609.5" x2="689.5" y1="652" y2="652"/><line style="stroke: #A80036; stroke-width: 1.5;" x1="609.5" x2="689.5" y1="660" y2="660"/><!--MD5=[c7160cc777ebd537655f080cd9c6ab73]
reverse link Edition to EditionContent--><path d="M714.71,365.19 C701.14,397.16 685.59,433.81 674.13,460.81 " fill="none" id="Edition&lt;-EditionContent" style="stroke: #A80036; stroke-width: 1.0;"/><polygon fill="#A80036" points="719.8,353.2,713.7764,357.1644,715.1192,364.2494,721.1427,360.285,719.8,353.2" style="stroke: #A80036; stroke-width: 1.0;"/><text fill="#000000" font-family="sans-serif" font-size="13" lengthAdjust="spacingAndGlyphs" textLength="8" x="708.4816" y="372.989">1</text><text fill="#000000" font-family="sans-serif" font-size="13" lengthAdjust="spacingAndGlyphs" textLength="23" x="651.9797" y="450.0268">1..*</text><!--MD5=[e595a1a337a95b51d2413c229490e10b]
reverse link Edition to MediaCarrier--><path d="M774.63,365.18 C787.34,394.8 801.78,428.43 813.05,454.69 " fill="none" id="Edition&lt;-MediaCarrier" style="stroke: #A80036; stroke-width: 1.0;"/><polygon fill="#A80036" points="769.48,353.2,768.1721,360.2915,774.215,364.2263,775.5229,357.1348,769.48,353.2" style="stroke: #A80036; stroke-width: 1.0;"/><text fill="#000000" font-family="sans-serif" font-size="13" lengthAdjust="spacingAndGlyphs" textLength="8" x="763.9058" y="372.989">1</text><text fill="#000000" font-family="sans-serif" font-size="13" lengthAdjust="spacingAndGlyphs" textLength="23" x="785.5042" y="443.8375">1..*</text><!--MD5=[efdc30dedef3b0ff0eb3264e74ea98f2]
reverse link MediaCarrier to DiscCarrier--><path d="M832.5,567.23 C832.5,580.87 832.5,594.77 832.5,606.88 " fill="none" id="MediaCarrier&lt;-DiscCarrier" style="stroke: #A80036; stroke-width: 1.0;"/><polygon fill="none" points="825.5,567,832.5,547,839.5,567,825.5,567" style="stroke: #A80036; stroke-width: 1.0;"/><!--MD5=[a6eacf8c3da2ec96c0ea75ee95c79966]
reverse link MediaCarrier to DigitalCarrier--><path d="M913.22,558.62 C936.42,574.9 961.09,592.21 982.01,606.88 " fill="none" id="MediaCarrier&lt;-DigitalCarrier" style="stroke: #A80036; stroke-width: 1.0;"/><polygon fill="none" points="909,564.22,896.65,547,917.04,552.76,909,564.22" style="stroke: #A80036; stroke-width: 1.0;"/><!--MD5=[03e7ed0dc0f99b05489eb432a809d4e2]
reverse link MediaWork to Edition--><path d="M858.25,99.19 C838.39,133.02 804.27,191.15 778.57,234.95 " fill="none" id="MediaWork&lt;-Edition" style="stroke: #A80036; stroke-width: 1.0; stroke-dasharray: 7.0,7.0;"/><polygon fill="#A80036" points="860.83,94.79,852.8282,100.5321,858.3018,99.1037,859.7301,104.5773,860.83,94.79" style="stroke: #A80036; stroke-width: 1.0;"/><!--MD5=[0ca8187d5fb681a72996edbf10bad70b]
link EditionContent to Content--><path d="M655.27,541.28 C653.95,564.56 652.31,593.55 651.11,614.61 " fill="none" id="EditionContent-&gt;Content" style="stroke: #A80036; stroke-width: 1.0; stroke-dasharray: 7.0,7.0;"/><polygon fill="#A80036" points="650.82,619.79,655.3269,611.0329,651.1052,614.7981,647.34,610.5765,650.82,619.79" style="stroke: #A80036; stroke-width: 1.0;"/><!--MD5=[68c6db89ec9b2fdeb34d63f21d56af52]
link ContentRole to MediaPackaging--><!--MD5=[7dbeb9db8182683a606adfff4e108a5d]
link MediaPackaging to DiscType--><!--MD5=[202219218c879fed4e9a8e652fc33ab4]
link ContentRole to DigitalType--><!--MD5=[18dac58eb19f256c9d08cf089c6607f2]
link DigitalType to RegionCode--><!--MD5=[56372202259dfb6a0bf6a8ebe55aea4c]
@startuml
skinparam classAttributeIconSize 0

class Edition <<AggregateRoot>> {
    +Id: UUID
    +Title: string
    +ReleaseDate: LocalDate
    +MediaWorks: List<UUID>
    +Packaging?: MediaPackaging
}

note top of Edition
Invariant:
- For each contentId in MediaCarrier.Content,
  there exists an EditionContent with that contentId
  that references a content in MediaWork._contents
end note

class EditionContent <<ValueObject>> {
    +ContentId: UUID
    +Role: ContentRole
}

Edition "1" *- - "1..*" EditionContent

enum ContentRole {
    Primary
    Secondary
}

class MediaCarrier <<Entity>> {
    +Id: UUID
    +Title?: string
    +Content: List<UUID>
}

Edition "1" *- - "1..*" MediaCarrier

class DiscCarrier {
    +Type: DiscType
    +RegionCodes?: List<RegionCode>
}

MediaCarrier <|- - DiscCarrier

class DigitalCarrier {
    +Type: DigitalType
    +Platform?: string
}

MediaCarrier <|- - DigitalCarrier

enum MediaPackaging {
    Amaray
    Boxset
    Digipack
    Mediabook
    Slipcover
    Steelbook
}

enum DiscType {
    BluRay
    DVD
    UHD
}

enum DigitalType {
    Download
    Streaming
}

enum RegionCode {
    A
    B
    C
    0ALL
    1
    2
    3
    4
    5
    6
    7
    8
}

MediaWork <.. Edition
EditionContent ..> Content

@enduml

PlantUML version 1.2020.02(Sun Mar 01 10:22:07 UTC 2020)
(GPL source distribution)
Java Runtime: OpenJDK Runtime Environment
JVM: OpenJDK 64-Bit Server VM
Java Version: 17.0.18+8
Operating System: Linux
Default Encoding: UTF-8
Language: en
Country: null
--></g></svg>