<?xml version="1.0" encoding="UTF-8" standalone="no"?><svg xmlns="http://www.w3.org/2000/svg" xmlns:xlink="http://www.w3.org/1999/xlink" contentScriptType="application/ecmascript" contentStyleType="text/css" height="679px" preserveAspectRatio="none" style="width:869px;height:679px;" version="1.1" viewBox="0 0 869 679" width="869px" zoomAndPan="magnify"><defs><filter height="300%" id="f2qnsko3i1c8e" width="300%" x="-1" y="-1"><feGaussianBlur result="blurOut" stdDeviation="2.0"/><feColorMatrix in="blurOut" result="blurOut2" type="matrix" values="0 0 0 0 0 0 0 0 0 0 0 0 0 0 0 0 0 0 .4 0"/><feOffset dx="4.0" dy="4.0" in="blurOut2" result="blurOut3"/><feBlend in="SourceGraphic" in2="blurOut3" mode="normal"/></filter></defs><g><!--MD5=[a37707a5a7e4fa9ccccea367e3a415b8]
class Edition--><rect fill="#FEFECE" filter="url(#f2qnsko3i1c8e)" height="117.9609" id="Edition" style="stroke: #A80036; stroke-width: 1.5;" width="182" x="523.5" y="235"/><ellipse cx="558.75" cy="253.9688" fill="#ADD1B2" rx="11" ry="11" style="stroke: #A80036; stroke-width: 1.0;"/><path d="M561.7188,259.6094 Q561.1406,259.9063 560.5,260.0469 Q559.8594,260.2031 559.1563,260.2031 Q556.6563,260.2031 555.3281,258.5625 Q554.0156,256.9063 554.0156,253.7813 Q554.0156,250.6563 555.3281,249 Q556.6563,247.3438 559.1563,247.3438 Q559.8594,247.3438 560.5,247.5 Q561.1563,247.6563 561.7188,247.9531 L561.7188,250.6719 Q561.0938,250.0938 560.5,249.8281 Q559.9063,249.5469 559.2813,249.5469 Q557.9375,249.5469 557.25,250.625 Q556.5625,251.6875 556.5625,253.7813 Q556.5625,255.875 557.25,256.9531 Q557.9375,258.0156 559.2813,258.0156 Q559.9063,258.0156 560.5,257.75 Q561.0938,257.4688 561.7188,256.8906 L561.7188,259.6094 Z "/><text fill="#000000" font-family="sans-serif" font-size="12" font-style="italic" lengthAdjust="spacingAndGlyphs" textLength="109" x="575.25" y="251.1387">«AggregateRoot»</text><text fill="#000000" font-family="sans-serif" font-size="12" lengthAdjust="spacingAndGlyphs" textLength="43" x="608.25" y="265.1074">Edition</text><line style="stroke: #A80036; stroke-width: 1.5;" x1="524.5" x2="704.5" y1="272.9375" y2="272.9375"/><text fill="#000000" font-family="sans-serif" font-size="11" lengthAdjust="spacingAndGlyphs" textLength="54" x="529.5" y="287.1479">+Id: UUID</text><text fill="#000000" font-family="sans-serif" font-size="11" lengthAdjust="spacingAndGlyphs" textLength="74" x="529.5" y="299.9526">+Title: string</text><text fill="#000000" font-family="sans-serif" font-size="11" lengthAdjust="spacingAndGlyphs" textLength="143" x="529.5" y="312.7573">+ReleaseDate: LocalDate</text><text fill="#000000" font-family="sans-serif" font-size="11" lengthAdjust="spacingAndGlyphs" textLength="149" x="529.5" y="325.562">+MediaWorks: List&lt;UUID&gt;</text><text fill="#000000" font-family="sans-serif" font-size="11" lengthAdjust="spacingAndGlyphs" textLength="170" x="529.5" y="338.3667">+Packaging?: MediaPackaging</text><line style="stroke: #A80036; stroke-width: 1.5;" x1="524.5" x2="704.5" y1="344.9609" y2="344.9609"/><path d="M442,43 L442,98.3984 A0,0 0 0 0 442,98.3984 L610.5,98.3984 L614.5,234.63 L618.5,98.3984 L787,98.3984 A0,0 0 0 0 787,98.3984 L787,53 L777,43 L442,43 A0,0 0 0 0 442,43 " fill="#FBFB77" filter="url(#f2qnsko3i1c8e)" style="stroke: #A80036; stroke-width: 1.0;"/><path d="M777,43 L777,53 L787,53 L777,43 " fill="#FBFB77" style="stroke: #A80036; stroke-width: 1.0;"/><text fill="#000000" font-family="sans-serif" font-size="13" lengthAdjust="spacingAndGlyphs" textLength="59" x="448" y="60.0669">Invariant:</text><text fill="#000000" font-family="sans-serif" font-size="13" lengthAdjust="spacingAndGlyphs" textLength="287" x="448" y="75.1997">- For each contentId in MediaCarrier.Content,</text><text fill="#000000" font-family="sans-serif" font-size="13" lengthAdjust="spacingAndGlyphs" textLength="316" x="456" y="90.3325">there exists an EditionContent with that contentId</text><!--MD5=[2a0e6f3083803ff4799f87740b9e7a87]
class EditionContent--><rect fill="#FEFECE" filter="url(#f2qnsko3i1c8e)" height="73.6094" id="EditionContent" style="stroke: #A80036; stroke-width: 1.5;" width="125" x="469" y="458"/><ellipse cx="484" cy="474" fill="#ADD1B2" rx="11" ry="11" style="stroke: #A80036; stroke-width: 1.0;"/><path d="M486.9688,479.6406 Q486.3906,479.9375 485.75,480.0781 Q485.1094,480.2344 484.4063,480.2344 Q481.9063,480.2344 480.5781,478.5938 Q479.2656,476.9375 479.2656,473.8125 Q479.2656,470.6875 480.5781,469.0313 Q481.9063,467.375 484.4063,467.375 Q485.1094,467.375 485.75,467.5313 Q486.4063,467.6875 486.9688,467.9844 L486.9688,470.7031 Q486.3438,470.125 485.75,469.8594 Q485.1563,469.5781 484.5313,469.5781 Q483.1875,469.5781 482.5,470.6563 Q481.8125,471.7188 481.8125,473.8125 Q481.8125,475.9063 482.5,476.9844 Q483.1875,478.0469 484.5313,478.0469 Q485.1563,478.0469 485.75,477.7813 Q486.3438,477.5 486.9688,476.9219 L486.9688,479.6406 Z "/><text fill="#000000" font-family="sans-serif" font-size="12" lengthAdjust="spacingAndGlyphs" textLength="93" x="498" y="478.1543">EditionContent</text><line style="stroke: #A80036; stroke-width: 1.5;" x1="470" x2="593" y1="490" y2="490"/><text fill="#000000" font-family="sans-serif" font-size="11" lengthAdjust="spacingAndGlyphs" textLength="98" x="475" y="504.2104">+ContentId: UUID</text><text fill="#000000" font-family="sans-serif" font-size="11" lengthAdjust="spacingAndGlyphs" textLength="109" x="475" y="517.0151">+Role: ContentRole</text><line style="stroke: #A80036; stroke-width: 1.5;" x1="470" x2="593" y1="523.6094" y2="523.6094"/><!--MD5=[c2b00153e41c72f71e6c335b117f4bc3]
class ContentRole--><rect fill="#FEFECE" filter="url(#f2qnsko3i1c8e)" height="73.6094" id="ContentRole" style="stroke: #A80036; stroke-width: 1.5;" width="109" x="6" y="33.5"/><ellipse cx="21" cy="49.5" fill="#EB937F" rx="11" ry="11" style="stroke: #A80036; stroke-width: 1.0;"/><path d="M25.1094,55.5 L17.3906,55.5 L17.3906,43.1094 L25.1094,43.1094 L25.1094,45.2656 L19.8438,45.2656 L19.8438,47.9375 L24.6094,47.9375 L24.6094,50.0938 L19.8438,50.0938 L19.8438,53.3438 L25.1094,53.3438 L25.1094,55.5 Z "/><text fill="#000000" font-family="sans-serif" font-size="12" lengthAdjust="spacingAndGlyphs" textLength="77" x="35" y="53.6543">ContentRole</text><line style="stroke: #A80036; stroke-width: 1.5;" x1="7" x2="114" y1="65.5" y2="65.5"/><text fill="#000000" font-family="sans-serif" font-size="11" lengthAdjust="spacingAndGlyphs" textLength="26" x="12" y="79.7104">Main</text><text fill="#000000" font-family="sans-serif" font-size="11" lengthAdjust="spacingAndGlyphs" textLength="36" x="12" y="92.5151">Bonus</text><line style="stroke: #A80036; stroke-width: 1.5;" x1="7" x2="114" y1="99.1094" y2="99.1094"/><!--MD5=[26f95a208f048184ec699ca7d3a2e108]
class MediaCarrier--><rect fill="#FEFECE" filter="url(#f2qnsko3i1c8e)" height="79.5469" id="MediaCarrier" style="stroke: #A80036; stroke-width: 1.5;" width="138" x="629.5" y="455"/><ellipse cx="654.4" cy="473.9688" fill="#ADD1B2" rx="11" ry="11" style="stroke: #A80036; stroke-width: 1.0;"/><path d="M657.3688,479.6094 Q656.7906,479.9063 656.15,480.0469 Q655.5094,480.2031 654.8063,480.2031 Q652.3063,480.2031 650.9781,478.5625 Q649.6656,476.9063 649.6656,473.7813 Q649.6656,470.6563 650.9781,469 Q652.3063,467.3438 654.8063,467.3438 Q655.5094,467.3438 656.15,467.5 Q656.8063,467.6563 657.3688,467.9531 L657.3688,470.6719 Q656.7438,470.0938 656.15,469.8281 Q655.5563,469.5469 654.9313,469.5469 Q653.5875,469.5469 652.9,470.625 Q652.2125,471.6875 652.2125,473.7813 Q652.2125,475.875 652.9,476.9531 Q653.5875,478.0156 654.9313,478.0156 Q655.5563,478.0156 656.15,477.75 Q656.7438,477.4688 657.3688,476.8906 L657.3688,479.6094 Z "/><text fill="#000000" font-family="sans-serif" font-size="12" font-style="italic" lengthAdjust="spacingAndGlyphs" textLength="88" x="668.6" y="471.1387">«ValueObject»</text><text fill="#000000" font-family="sans-serif" font-size="12" lengthAdjust="spacingAndGlyphs" textLength="79" x="673.1" y="485.1074">MediaCarrier</text><line style="stroke: #A80036; stroke-width: 1.5;" x1="630.5" x2="766.5" y1="492.9375" y2="492.9375"/><text fill="#000000" font-family="sans-serif" font-size="11" lengthAdjust="spacingAndGlyphs" textLength="80" x="635.5" y="507.1479">+Title?: string</text><text fill="#000000" font-family="sans-serif" font-size="11" lengthAdjust="spacingAndGlyphs" textLength="126" x="635.5" y="519.9526">+Content: List&lt;UUID&gt;</text><line style="stroke: #A80036; stroke-width: 1.5;" x1="630.5" x2="766.5" y1="526.5469" y2="526.5469"/><!--MD5=[2a241da4127023b626ed54137c821762]
class DiscCarrier--><rect fill="#FEFECE" filter="url(#f2qnsko3i1c8e)" height="73.6094" id="DiscCarrier" style="stroke: #A80036; stroke-width: 1.5;" width="214" x="491.5" y="595"/><ellipse cx="560.25" cy="611" fill="#ADD1B2" rx="11" ry="11" style="stroke: #A80036; stroke-width: 1.0;"/><path d="M563.2188,616.6406 Q562.6406,616.9375 562,617.0781 Q561.3594,617.2344 560.6563,617.2344 Q558.1563,617.2344 556.8281,615.5938 Q555.5156,613.9375 555.5156,610.8125 Q555.5156,607.6875 556.8281,606.0313 Q558.1563,604.375 560.6563,604.375 Q561.3594,604.375 562,604.5313 Q562.6563,604.6875 563.2188,604.9844 L563.2188,607.7031 Q562.5938,607.125 562,606.8594 Q561.4063,606.5781 560.7813,606.5781 Q559.4375,606.5781 558.75,607.6563 Q558.0625,608.7188 558.0625,610.8125 Q558.0625,612.9063 558.75,613.9844 Q559.4375,615.0469 560.7813,615.0469 Q561.4063,615.0469 562,614.7813 Q562.5938,614.5 563.2188,613.9219 L563.2188,616.6406 Z "/><text fill="#000000" font-family="sans-serif" font-size="12" lengthAdjust="spacingAndGlyphs" textLength="68" x="580.75" y="615.1543">DiscCarrier</text><line style="stroke: #A80036; stroke-width: 1.5;" x1="492.5" x2="704.5" y1="627" y2="627"/><text fill="#000000" font-family="sans-serif" font-size="11" lengthAdjust="spacingAndGlyphs" textLength="95" x="497.5" y="641.2104">+Type: DiscType</text><text fill="#000000" font-family="sans-serif" font-size="11" lengthAdjust="spacingAndGlyphs" textLength="202" x="497.5" y="654.0151">+RegionCodes?: List&lt;RegionCode&gt;</text><line style="stroke: #A80036; stroke-width: 1.5;" x1="492.5" x2="704.5" y1="660.6094" y2="660.6094"/><!--MD5=[6cff1fe544dc98a43ad5557173188fbe]
class DigitalCarrier--><rect fill="#FEFECE" filter="url(#f2qnsko3i1c8e)" height="73.6094" id="DigitalCarrier" style="stroke: #A80036; stroke-width: 1.5;" width="118" x="740.5" y="595"/><ellipse cx="757.75" cy="611" fill="#ADD1B2" rx="11" ry="11" style="stroke: #A80036; stroke-width: 1.0;"/><path d="M760.7188,616.6406 Q760.1406,616.9375 759.5,617.0781 Q758.8594,617.2344 758.1563,617.2344 Q755.6563,617.2344 754.3281,615.5938 Q753.0156,613.9375 753.0156,610.8125 Q753.0156,607.6875 754.3281,606.0313 Q755.6563,604.375 758.1563,604.375 Q758.8594,604.375 759.5,604.5313 Q760.1563,604.6875 760.7188,604.9844 L760.7188,607.7031 Q760.0938,607.125 759.5,606.8594 Q758.9063,606.5781 758.2813,606.5781 Q756.9375,606.5781 756.25,607.6563 Q755.5625,608.7188 755.5625,610.8125 Q755.5625,612.9063 756.25,613.9844 Q756.9375,615.0469 758.2813,615.0469 Q758.9063,615.0469 759.5,614.7813 Q760.0938,614.5 760.7188,613.9219 L760.7188,616.6406 Z "/><text fill="#000000" font-family="sans-serif" font-size="12" lengthAdjust="spacingAndGlyphs" textLength="81" x="772.25" y="615.1543">DigitalCarrier</text><line style="stroke: #A80036; stroke-width: 1.5;" x1="741.5" x2="857.5" y1="627" y2="627"/><text fill="#000000" font-family="sans-serif" font-size="11" lengthAdjust="spacingAndGlyphs" textLength="106" x="746.5" y="641.2104">+Type: DigitalType</text><text fill="#000000" font-family="sans-serif" font-size="11" lengthAdjust="spacingAndGlyphs" textLength="104" x="746.5" y="654.0151">+Platform?: string</text><line style="stroke: #A80036; stroke-width: 1.5;" x1="741.5" x2="857.5" y1="660.6094" y2="660.6094"/><!--MD5=[d2457eeb15b01f55cef6d73d49dcca83]
class MediaPackaging--><rect fill="#FEFECE" filter="url(#f2qnsko3i1c8e)" height="124.8281" id="MediaPackaging" style="stroke: #A80036; stroke-width: 1.5;" width="134" x="150.5" y="8"/><ellipse cx="165.5" cy="24" fill="#EB937F" rx="11" ry="11" style="stroke: #A80036; stroke-width: 1.0;"/><path d="M169.6094,30 L161.8906,30 L161.8906,17.6094 L169.6094,17.6094 L169.6094,19.7656 L164.3438,19.7656 L164.3438,22.4375 L169.1094,22.4375 L169.1094,24.5938 L164.3438,24.5938 L164.3438,27.8438 L169.6094,27.8438 L169.6094,30 Z "/><text fill="#000000" font-family="sans-serif" font-size="12" lengthAdjust="spacingAndGlyphs" textLength="102" x="179.5" y="28.1543">MediaPackaging</text><line style="stroke: #A80036; stroke-width: 1.5;" x1="151.5" x2="283.5" y1="40" y2="40"/><text fill="#000000" font-family="sans-serif" font-size="11" lengthAdjust="spacingAndGlyphs" textLength="43" x="156.5" y="54.2104">Amaray</text><text fill="#000000" font-family="sans-serif" font-size="11" lengthAdjust="spacingAndGlyphs" textLength="39" x="156.5" y="67.0151">Boxset</text><text fill="#000000" font-family="sans-serif" font-size="11" lengthAdjust="spacingAndGlyphs" textLength="47" x="156.5" y="79.8198">Digipack</text><text fill="#000000" font-family="sans-serif" font-size="11" lengthAdjust="spacingAndGlyphs" textLength="60" x="156.5" y="92.6245">Mediabook</text><text fill="#000000" font-family="sans-serif" font-size="11" lengthAdjust="spacingAndGlyphs" textLength="52" x="156.5" y="105.4292">Slipcover</text><text fill="#000000" font-family="sans-serif" font-size="11" lengthAdjust="spacingAndGlyphs" textLength="56" x="156.5" y="118.2339">Steelbook</text><line style="stroke: #A80036; stroke-width: 1.5;" x1="151.5" x2="283.5" y1="124.8281" y2="124.8281"/><!--MD5=[99fc6a6aa0fa2e849ea18a19a95bfbff]
class DiscType--><rect fill="#FEFECE" filter="url(#f2qnsko3i1c8e)" height="86.4141" id="DiscType" style="stroke: #A80036; stroke-width: 1.5;" width="87" x="320" y="27.5"/><ellipse cx="335" cy="43.5" fill="#EB937F" rx="11" ry="11" style="stroke: #A80036; stroke-width: 1.0;"/><path d="M339.1094,49.5 L331.3906,49.5 L331.3906,37.1094 L339.1094,37.1094 L339.1094,39.2656 L333.8438,39.2656 L333.8438,41.9375 L338.6094,41.9375 L338.6094,44.0938 L333.8438,44.0938 L333.8438,47.3438 L339.1094,47.3438 L339.1094,49.5 Z "/><text fill="#000000" font-family="sans-serif" font-size="12" lengthAdjust="spacingAndGlyphs" textLength="55" x="349" y="47.6543">DiscType</text><line style="stroke: #A80036; stroke-width: 1.5;" x1="321" x2="406" y1="59.5" y2="59.5"/><text fill="#000000" font-family="sans-serif" font-size="11" lengthAdjust="spacingAndGlyphs" textLength="38" x="326" y="73.7104">BluRay</text><text fill="#000000" font-family="sans-serif" font-size="11" lengthAdjust="spacingAndGlyphs" textLength="23" x="326" y="86.5151">DVD</text><text fill="#000000" font-family="sans-serif" font-size="11" lengthAdjust="spacingAndGlyphs" textLength="24" x="326" y="99.3198">UHD</text><line style="stroke: #A80036; stroke-width: 1.5;" x1="321" x2="406" y1="105.9141" y2="105.9141"/><!--MD5=[ec676e076541c90b7d0d2488eecba3e8]
class DigitalType--><rect fill="#FEFECE" filter="url(#f2qnsko3i1c8e)" height="73.6094" id="DigitalType" style="stroke: #A80036; stroke-width: 1.5;" width="100" x="10.5" y="257"/><ellipse cx="25.5" cy="273" fill="#EB937F" rx="11" ry="11" style="stroke: #A80036; stroke-width: 1.0;"/><path d="M29.6094,279 L21.8906,279 L21.8906,266.6094 L29.6094,266.6094 L29.6094,268.7656 L24.3438,268.7656 L24.3438,271.4375 L29.1094,271.4375 L29.1094,273.5938 L24.3438,273.5938 L24.3438,276.8438 L29.6094,276.8438 L29.6094,279 Z "/><text fill="#000000" font-family="sans-serif" font-size="12" lengthAdjust="spacingAndGlyphs" textLength="68" x="39.5" y="277.1543">DigitalType</text><line style="stroke: #A80036; stroke-width: 1.5;" x1="11.5" x2="109.5" y1="289" y2="289"/><text fill="#000000" font-family="sans-serif" font-size="11" lengthAdjust="spacingAndGlyphs" textLength="55" x="16.5" y="303.2104">Download</text><text fill="#000000" font-family="sans-serif" font-size="11" lengthAdjust="spacingAndGlyphs" textLength="59" x="16.5" y="316.0151">Streaming</text><line style="stroke: #A80036; stroke-width: 1.5;" x1="11.5" x2="109.5" y1="322.6094" y2="322.6094"/><!--MD5=[f970b41b8ad8f81382c41974a9667f1c]
class RegionCode--><rect fill="#FEFECE" filter="url(#f2qnsko3i1c8e)" height="201.6563" id="RegionCode" style="stroke: #A80036; stroke-width: 1.5;" width="107" x="146" y="193"/><ellipse cx="161" cy="209" fill="#EB937F" rx="11" ry="11" style="stroke: #A80036; stroke-width: 1.0;"/><path d="M165.1094,215 L157.3906,215 L157.3906,202.6094 L165.1094,202.6094 L165.1094,204.7656 L159.8438,204.7656 L159.8438,207.4375 L164.6094,207.4375 L164.6094,209.5938 L159.8438,209.5938 L159.8438,212.8438 L165.1094,212.8438 L165.1094,215 Z "/><text fill="#000000" font-family="sans-serif" font-size="12" lengthAdjust="spacingAndGlyphs" textLength="75" x="175" y="213.1543">RegionCode</text><line style="stroke: #A80036; stroke-width: 1.5;" x1="147" x2="252" y1="225" y2="225"/><text fill="#000000" font-family="sans-serif" font-size="11" lengthAdjust="spacingAndGlyphs" textLength="7" x="152" y="239.2104">A</text><text fill="#000000" font-family="sans-serif" font-size="11" lengthAdjust="spacingAndGlyphs" textLength="8" x="152" y="252.0151">B</text><text fill="#000000" font-family="sans-serif" font-size="11" lengthAdjust="spacingAndGlyphs" textLength="8" x="152" y="264.8198">C</text><text fill="#000000" font-family="sans-serif" font-size="11" lengthAdjust="spacingAndGlyphs" textLength="26" x="152" y="277.6245">0ALL</text><text fill="#000000" font-family="sans-serif" font-size="11" lengthAdjust="spacingAndGlyphs" textLength="7" x="152" y="290.4292">1</text><text fill="#000000" font-family="sans-serif" font-size="11" lengthAdjust="spacingAndGlyphs" textLength="7" x="152" y="303.2339">2</text><text fill="#000000" font-family="sans-serif" font-size="11" lengthAdjust="spacingAndGlyphs" textLength="7" x="152" y="316.0386">3</text><text fill="#000000" font-family="sans-serif" font-size="11" lengthAdjust="spacingAndGlyphs" textLength="7" x="152" y="328.8433">4</text><text fill="#000000" font-family="sans-serif" font-size="11" lengthAdjust="spacingAndGlyphs" textLength="7" x="152" y="341.6479">5</text><text fill="#000000" font-family="sans-serif" font-size="11" lengthAdjust="spacingAndGlyphs" textLength="7" x="152" y="354.4526">6</text><text fill="#000000" font-family="sans-serif" font-size="11" lengthAdjust="spacingAndGlyphs" textLength="7" x="152" y="367.2573">7</text><text fill="#000000" font-family="sans-serif" font-size="11" lengthAdjust="spacingAndGlyphs" textLength="7" x="152" y="380.062">8</text><line style="stroke: #A80036; stroke-width: 1.5;" x1="147" x2="252" y1="386.6563" y2="386.6563"/><!--MD5=[c7160cc777ebd537655f080cd9c6ab73]
reverse link Edition to EditionContent--><path d="M585.19,365.28 C572.16,396.52 557.37,431.98 546.62,457.76 " fill="none" id="Edition&lt;-EditionContent" style="stroke: #A80036; stroke-width: 1.0;"/><polygon fill="#A80036" points="590.27,353.09,584.2683,357.0875,585.6499,364.165,591.6516,360.1675,590.27,353.09" style="stroke: #A80036; stroke-width: 1.0;"/><text fill="#000000" font-family="sans-serif" font-size="13" lengthAdjust="spacingAndGlyphs" textLength="8" x="579.0059" y="372.8663">1</text><text fill="#000000" font-family="sans-serif" font-size="13" lengthAdjust="spacingAndGlyphs" textLength="23" x="524.2648" y="446.9042">1..*</text><!--MD5=[e595a1a337a95b51d2413c229490e10b]
reverse link Edition to MediaCarrier--><path d="M644.16,365.26 C656.84,395.31 671.17,429.26 681.93,454.75 " fill="none" id="Edition&lt;-MediaCarrier" style="stroke: #A80036; stroke-width: 1.0;"/><polygon fill="#A80036" points="639.02,353.09,637.6701,360.1736,643.6897,364.1442,645.0395,357.0605,639.02,353.09" style="stroke: #A80036; stroke-width: 1.0;"/><text fill="#000000" font-family="sans-serif" font-size="13" lengthAdjust="spacingAndGlyphs" textLength="8" x="633.3926" y="372.8663">1</text><text fill="#000000" font-family="sans-serif" font-size="13" lengthAdjust="spacingAndGlyphs" textLength="23" x="654.2809" y="443.9568">1..*</text><!--MD5=[efdc30dedef3b0ff0eb3264e74ea98f2]
reverse link MediaCarrier to DiscCarrier--><path d="M657.64,551.16 C646.74,565.88 635.24,581.41 625.3,594.81 " fill="none" id="MediaCarrier&lt;-DiscCarrier" style="stroke: #A80036; stroke-width: 1.0;"/><polygon fill="none" points="652.05,546.95,669.58,535.05,663.3,555.29,652.05,546.95" style="stroke: #A80036; stroke-width: 1.0;"/><!--MD5=[a6eacf8c3da2ec96c0ea75ee95c79966]
reverse link MediaCarrier to DigitalCarrier--><path d="M739.77,551.16 C750.78,565.88 762.4,581.41 772.43,594.81 " fill="none" id="MediaCarrier&lt;-DigitalCarrier" style="stroke: #A80036; stroke-width: 1.0;"/><polygon fill="none" points="734.09,555.26,727.71,535.05,745.3,546.87,734.09,555.26" style="stroke: #A80036; stroke-width: 1.0;"/><!--MD5=[68c6db89ec9b2fdeb34d63f21d56af52]
link ContentRole to MediaPackaging--><!--MD5=[7dbeb9db8182683a606adfff4e108a5d]
link MediaPackaging to DiscType--><!--MD5=[202219218c879fed4e9a8e652fc33ab4]
link ContentRole to DigitalType--><!--MD5=[18dac58eb19f256c9d08cf089c6607f2]
link DigitalType to RegionCode--><!--MD5=[88c037608328416a09621e4d89a50c7b]
@startuml
skinparam classAttributeIconSize 0

class Edition <<AggregateRoot>> {
    +Id: UUID
    +Title: string
    +ReleaseDate: LocalDate
    +MediaWorks: List<UUID>
    +Packaging?: MediaPackaging
}

note top of Edition
Invariant:
- For each contentId in MediaCarrier.Content,
  there exists an EditionContent with that contentId
end note

class EditionContent {
    +ContentId: UUID
    +Role: ContentRole
}

Edition "1" *- - "1..*" EditionContent

enum ContentRole {
    Main
    Bonus
}

class MediaCarrier <<ValueObject>> {
    +Title?: string
    +Content: List<UUID>
}

Edition "1" *- - "1..*" MediaCarrier

class DiscCarrier {
    +Type: DiscType
    +RegionCodes?: List<RegionCode>
}

MediaCarrier <|- - DiscCarrier

class DigitalCarrier {
    +Type: DigitalType
    +Platform?: string
}

MediaCarrier <|- - DigitalCarrier

enum MediaPackaging {
    Amaray
    Boxset
    Digipack
    Mediabook
    Slipcover
    Steelbook
}

enum DiscType {
    BluRay
    DVD
    UHD
}

enum DigitalType {
    Download
    Streaming
}

enum RegionCode {
    A
    B
    C
    0ALL
    1
    2
    3
    4
    5
    6
    7
    8
}

@enduml

PlantUML version 1.2020.02(Sun Mar 01 10:22:07 UTC 2020)
(GPL source distribution)
Java Runtime: OpenJDK Runtime Environment
JVM: OpenJDK 64-Bit Server VM
Java Version: 17.0.18+8
Operating System: Linux
Default Encoding: UTF-8
Language: en
Country: null
--></g></svg>