<?xml version="1.0" encoding="UTF-8" standalone="no"?><svg xmlns="http://www.w3.org/2000/svg" xmlns:xlink="http://www.w3.org/1999/xlink" contentScriptType="application/ecmascript" contentStyleType="text/css" height="844px" preserveAspectRatio="none" style="width:951px;height:844px;" version="1.1" viewBox="0 0 951 844" width="951px" zoomAndPan="magnify"><defs><filter height="300%" id="fxv1xmv7r5eox" width="300%" x="-1" y="-1"><feGaussianBlur result="blurOut" stdDeviation="2.0"/><feColorMatrix in="blurOut" result="blurOut2" type="matrix" values="0 0 0 0 0 0 0 0 0 0 0 0 0 0 0 0 0 0 .4 0"/><feOffset dx="4.0" dy="4.0" in="blurOut2" result="blurOut3"/><feBlend in="SourceGraphic" in2="blurOut3" mode="normal"/></filter></defs><g><!--MD5=[c3dd83c4944f050787f4b644933234ea]
class MediaWork--><rect fill="#FEFECE" filter="url(#fxv1xmv7r5eox)" height="181.9844" id="MediaWork" style="stroke: #A80036; stroke-width: 1.5;" width="233" x="230.5" y="214"/><ellipse cx="290.25" cy="232.9688" fill="#A9DCDF" rx="11" ry="11" style="stroke: #A80036; stroke-width: 1.0;"/><path d="M290.3594,228.3125 L289.2031,233.3906 L291.5313,233.3906 L290.3594,228.3125 Z M288.875,226.0781 L291.8594,226.0781 L295.2188,238.4688 L292.7656,238.4688 L292,235.4063 L288.7188,235.4063 L287.9688,238.4688 L285.5313,238.4688 L288.875,226.0781 Z "/><text fill="#000000" font-family="sans-serif" font-size="12" font-style="italic" lengthAdjust="spacingAndGlyphs" textLength="109" x="308.75" y="230.1387">«AggregateRoot»</text><text fill="#000000" font-family="sans-serif" font-size="12" font-style="italic" lengthAdjust="spacingAndGlyphs" textLength="69" x="328.75" y="244.1074">MediaWork</text><line style="stroke: #A80036; stroke-width: 1.5;" x1="231.5" x2="462.5" y1="251.9375" y2="251.9375"/><text fill="#000000" font-family="sans-serif" font-size="11" lengthAdjust="spacingAndGlyphs" textLength="54" x="236.5" y="266.1479">+Id: UUID</text><text fill="#000000" font-family="sans-serif" font-size="11" lengthAdjust="spacingAndGlyphs" textLength="74" x="236.5" y="278.9526">+Title: string</text><text fill="#000000" font-family="sans-serif" font-size="11" lengthAdjust="spacingAndGlyphs" textLength="187" x="236.5" y="291.7573">+OriginalReleaseDate: LocalDate</text><text fill="#000000" font-family="sans-serif" font-size="11" lengthAdjust="spacingAndGlyphs" textLength="199" x="236.5" y="304.562">-_contributions: List&lt;Contribution&gt;</text><text fill="#000000" font-family="sans-serif" font-size="11" lengthAdjust="spacingAndGlyphs" textLength="221" x="236.5" y="317.3667">#_creatorRoles: List&lt;ContributorRole&gt;</text><line style="stroke: #A80036; stroke-width: 1.0;" x1="231.5" x2="462.5" y1="323.9609" y2="323.9609"/><text fill="#000000" font-family="sans-serif" font-size="11" lengthAdjust="spacingAndGlyphs" textLength="178" x="236.5" y="338.1714">+AddContribution(id, role): void</text><text fill="#000000" font-family="sans-serif" font-size="11" lengthAdjust="spacingAndGlyphs" textLength="172" x="236.5" y="350.9761">+RemoveContribution(id): void</text><text fill="#000000" font-family="sans-serif" font-size="11" lengthAdjust="spacingAndGlyphs" textLength="117" x="236.5" y="363.7808">+AddEdition(id): void</text><text fill="#000000" font-family="sans-serif" font-size="11" lengthAdjust="spacingAndGlyphs" textLength="141" x="236.5" y="376.5854">+RemoveEdition(id): void</text><text fill="#000000" font-family="sans-serif" font-size="11" lengthAdjust="spacingAndGlyphs" textLength="148" x="236.5" y="389.3901">+IsCreatorRole(role): bool</text><path d="M6,8 L6,154.1953 A0,0 0 0 0 6,154.1953 L212.66,154.1953 L268.43,213.62 L220.66,154.1953 L302,154.1953 A0,0 0 0 0 302,154.1953 L302,18 L292,8 L6,8 A0,0 0 0 0 6,8 " fill="#FBFB77" filter="url(#fxv1xmv7r5eox)" style="stroke: #A80036; stroke-width: 1.0;"/><path d="M292,8 L292,18 L302,18 L292,8 " fill="#FBFB77" style="stroke: #A80036; stroke-width: 1.0;"/><text fill="#000000" font-family="sans-serif" font-size="13" lengthAdjust="spacingAndGlyphs" textLength="59" x="12" y="25.0669">Invariant:</text><text fill="#000000" font-family="sans-serif" font-size="13" lengthAdjust="spacingAndGlyphs" textLength="237" x="12" y="40.1997">- Must have at least one Contribution</text><text fill="#000000" font-family="sans-serif" font-size="13" lengthAdjust="spacingAndGlyphs" textLength="267" x="20" y="55.3325">where concrete MediaWork considers Role</text><text fill="#000000" font-family="sans-serif" font-size="13" lengthAdjust="spacingAndGlyphs" textLength="234" x="20" y="70.4653">a creator (member of _creatorRoles)</text><text fill="#000000" font-family="sans-serif" font-size="13" lengthAdjust="spacingAndGlyphs" textLength="185" x="12" y="85.5981">- Cannot remove last creator</text><text fill="#000000" font-family="sans-serif" font-size="13" lengthAdjust="spacingAndGlyphs" textLength="240" x="12" y="100.731">- Cannot remove Edition if MediaCopy</text><text fill="#000000" font-family="sans-serif" font-size="13" lengthAdjust="spacingAndGlyphs" textLength="239" x="20" y="115.8638">exists referencing it (cross-aggregate</text><text fill="#000000" font-family="sans-serif" font-size="13" lengthAdjust="spacingAndGlyphs" textLength="208" x="20" y="130.9966">constraint, enforce in application</text><text fill="#000000" font-family="sans-serif" font-size="13" lengthAdjust="spacingAndGlyphs" textLength="36" x="20" y="146.1294">layer)</text><!--MD5=[fd7366e9f96236d9aa60dcc04f2b83e5]
class Content--><rect fill="#FEFECE" filter="url(#fxv1xmv7r5eox)" height="79.5469" id="Content" style="stroke: #A80036; stroke-width: 1.5;" width="92" x="255" y="462"/><ellipse cx="274.5" cy="480.9688" fill="#A9DCDF" rx="11" ry="11" style="stroke: #A80036; stroke-width: 1.0;"/><path d="M274.6094,476.3125 L273.4531,481.3906 L275.7813,481.3906 L274.6094,476.3125 Z M273.125,474.0781 L276.1094,474.0781 L279.4688,486.4688 L277.0156,486.4688 L276.25,483.4063 L272.9688,483.4063 L272.2188,486.4688 L269.7813,486.4688 L273.125,474.0781 Z "/><text fill="#000000" font-family="sans-serif" font-size="12" font-style="italic" lengthAdjust="spacingAndGlyphs" textLength="50" x="289.5" y="478.1387">«Entity»</text><text fill="#000000" font-family="sans-serif" font-size="12" font-style="italic" lengthAdjust="spacingAndGlyphs" textLength="50" x="289.5" y="492.1074">Content</text><line style="stroke: #A80036; stroke-width: 1.5;" x1="256" x2="346" y1="499.9375" y2="499.9375"/><text fill="#000000" font-family="sans-serif" font-size="11" lengthAdjust="spacingAndGlyphs" textLength="54" x="261" y="514.1479">+Id: UUID</text><text fill="#000000" font-family="sans-serif" font-size="11" lengthAdjust="spacingAndGlyphs" textLength="80" x="261" y="526.9526">+Title?: string</text><line style="stroke: #A80036; stroke-width: 1.5;" x1="256" x2="346" y1="533.5469" y2="533.5469"/><!--MD5=[3c893a87b169a1198e1c24a9eb7838ab]
class BonusContent--><rect fill="#FEFECE" filter="url(#fxv1xmv7r5eox)" height="60.8047" id="BonusContent" style="stroke: #A80036; stroke-width: 1.5;" width="130" x="108" y="620.5"/><ellipse cx="127.05" cy="636.5" fill="#ADD1B2" rx="11" ry="11" style="stroke: #A80036; stroke-width: 1.0;"/><path d="M130.0188,642.1406 Q129.4406,642.4375 128.8,642.5781 Q128.1594,642.7344 127.4563,642.7344 Q124.9563,642.7344 123.6281,641.0938 Q122.3156,639.4375 122.3156,636.3125 Q122.3156,633.1875 123.6281,631.5313 Q124.9563,629.875 127.4563,629.875 Q128.1594,629.875 128.8,630.0313 Q129.4563,630.1875 130.0188,630.4844 L130.0188,633.2031 Q129.3938,632.625 128.8,632.3594 Q128.2063,632.0781 127.5813,632.0781 Q126.2375,632.0781 125.55,633.1563 Q124.8625,634.2188 124.8625,636.3125 Q124.8625,638.4063 125.55,639.4844 Q126.2375,640.5469 127.5813,640.5469 Q128.2063,640.5469 128.8,640.2813 Q129.3938,640 130.0188,639.4219 L130.0188,642.1406 Z "/><text fill="#000000" font-family="sans-serif" font-size="12" lengthAdjust="spacingAndGlyphs" textLength="89" x="141.95" y="640.6543">BonusContent</text><line style="stroke: #A80036; stroke-width: 1.5;" x1="109" x2="237" y1="652.5" y2="652.5"/><text fill="#000000" font-family="sans-serif" font-size="11" lengthAdjust="spacingAndGlyphs" textLength="118" x="114" y="666.7104">RuntimeMinutes?: int</text><line style="stroke: #A80036; stroke-width: 1.5;" x1="109" x2="237" y1="673.3047" y2="673.3047"/><!--MD5=[0330879a1a385efee19ba3488ed490fa]
class Contribution--><rect fill="#FEFECE" filter="url(#fxv1xmv7r5eox)" height="92.3516" id="Contribution" style="stroke: #A80036; stroke-width: 1.5;" width="141" x="382.5" y="456"/><ellipse cx="411.9" cy="474.9688" fill="#ADD1B2" rx="11" ry="11" style="stroke: #A80036; stroke-width: 1.0;"/><path d="M414.8688,480.6094 Q414.2906,480.9063 413.65,481.0469 Q413.0094,481.2031 412.3063,481.2031 Q409.8063,481.2031 408.4781,479.5625 Q407.1656,477.9063 407.1656,474.7813 Q407.1656,471.6563 408.4781,470 Q409.8063,468.3438 412.3063,468.3438 Q413.0094,468.3438 413.65,468.5 Q414.3063,468.6563 414.8688,468.9531 L414.8688,471.6719 Q414.2438,471.0938 413.65,470.8281 Q413.0563,470.5469 412.4313,470.5469 Q411.0875,470.5469 410.4,471.625 Q409.7125,472.6875 409.7125,474.7813 Q409.7125,476.875 410.4,477.9531 Q411.0875,479.0156 412.4313,479.0156 Q413.0563,479.0156 413.65,478.75 Q414.2438,478.4688 414.8688,477.8906 L414.8688,480.6094 Z "/><text fill="#000000" font-family="sans-serif" font-size="12" font-style="italic" lengthAdjust="spacingAndGlyphs" textLength="50" x="442.6" y="472.1387">«Entity»</text><text fill="#000000" font-family="sans-serif" font-size="12" lengthAdjust="spacingAndGlyphs" textLength="77" x="429.1" y="486.1074">Contribution</text><line style="stroke: #A80036; stroke-width: 1.5;" x1="383.5" x2="522.5" y1="493.9375" y2="493.9375"/><text fill="#000000" font-family="sans-serif" font-size="11" lengthAdjust="spacingAndGlyphs" textLength="54" x="388.5" y="508.1479">+Id: UUID</text><text fill="#000000" font-family="sans-serif" font-size="11" lengthAdjust="spacingAndGlyphs" textLength="118" x="388.5" y="520.9526">+ContributorId: UUID</text><text fill="#000000" font-family="sans-serif" font-size="11" lengthAdjust="spacingAndGlyphs" textLength="129" x="388.5" y="533.7573">+Role: ContributorRole</text><line style="stroke: #A80036; stroke-width: 1.5;" x1="383.5" x2="522.5" y1="540.3516" y2="540.3516"/><!--MD5=[dd2cb4d4918b743616ebdb19b9302e86]
class ContributorRole--><rect fill="#FEFECE" filter="url(#fxv1xmv7r5eox)" height="66.7422" id="ContributorRole" style="stroke: #A80036; stroke-width: 1.5;" width="130" x="658" y="47.5"/><ellipse cx="673" cy="66.4688" fill="#ADD1B2" rx="11" ry="11" style="stroke: #A80036; stroke-width: 1.0;"/><path d="M675.9688,72.1094 Q675.3906,72.4063 674.75,72.5469 Q674.1094,72.7031 673.4063,72.7031 Q670.9063,72.7031 669.5781,71.0625 Q668.2656,69.4063 668.2656,66.2813 Q668.2656,63.1563 669.5781,61.5 Q670.9063,59.8438 673.4063,59.8438 Q674.1094,59.8438 674.75,60 Q675.4063,60.1563 675.9688,60.4531 L675.9688,63.1719 Q675.3438,62.5938 674.75,62.3281 Q674.1563,62.0469 673.5313,62.0469 Q672.1875,62.0469 671.5,63.125 Q670.8125,64.1875 670.8125,66.2813 Q670.8125,68.375 671.5,69.4531 Q672.1875,70.5156 673.5313,70.5156 Q674.1563,70.5156 674.75,70.25 Q675.3438,69.9688 675.9688,69.3906 L675.9688,72.1094 Z "/><text fill="#000000" font-family="sans-serif" font-size="12" font-style="italic" lengthAdjust="spacingAndGlyphs" textLength="88" x="692" y="63.6387">«ValueObject»</text><text fill="#000000" font-family="sans-serif" font-size="12" lengthAdjust="spacingAndGlyphs" textLength="98" x="687" y="77.6074">ContributorRole</text><line style="stroke: #A80036; stroke-width: 1.5;" x1="659" x2="787" y1="85.4375" y2="85.4375"/><text fill="#000000" font-family="sans-serif" font-size="11" lengthAdjust="spacingAndGlyphs" textLength="83" x="664" y="99.6479">+Name: string</text><line style="stroke: #A80036; stroke-width: 1.5;" x1="659" x2="787" y1="106.2422" y2="106.2422"/><!--MD5=[e69084ab16b022bdbef99762ea85e9d6]
class Movie--><rect fill="#FEFECE" filter="url(#fxv1xmv7r5eox)" height="48" id="Movie" style="stroke: #A80036; stroke-width: 1.5;" width="67" x="337.5" y="57"/><ellipse cx="352.5" cy="73" fill="#ADD1B2" rx="11" ry="11" style="stroke: #A80036; stroke-width: 1.0;"/><path d="M355.4688,78.6406 Q354.8906,78.9375 354.25,79.0781 Q353.6094,79.2344 352.9063,79.2344 Q350.4063,79.2344 349.0781,77.5938 Q347.7656,75.9375 347.7656,72.8125 Q347.7656,69.6875 349.0781,68.0313 Q350.4063,66.375 352.9063,66.375 Q353.6094,66.375 354.25,66.5313 Q354.9063,66.6875 355.4688,66.9844 L355.4688,69.7031 Q354.8438,69.125 354.25,68.8594 Q353.6563,68.5781 353.0313,68.5781 Q351.6875,68.5781 351,69.6563 Q350.3125,70.7188 350.3125,72.8125 Q350.3125,74.9063 351,75.9844 Q351.6875,77.0469 353.0313,77.0469 Q353.6563,77.0469 354.25,76.7813 Q354.8438,76.5 355.4688,75.9219 L355.4688,78.6406 Z "/><text fill="#000000" font-family="sans-serif" font-size="12" lengthAdjust="spacingAndGlyphs" textLength="35" x="366.5" y="77.1543">Movie</text><line style="stroke: #A80036; stroke-width: 1.5;" x1="338.5" x2="403.5" y1="89" y2="89"/><line style="stroke: #A80036; stroke-width: 1.5;" x1="338.5" x2="403.5" y1="97" y2="97"/><!--MD5=[a3e3a20c167400c5a69541ac8e73098a]
class MovieFeature--><rect fill="#FEFECE" filter="url(#fxv1xmv7r5eox)" height="73.6094" id="MovieFeature" style="stroke: #A80036; stroke-width: 1.5;" width="153" x="273.5" y="614"/><ellipse cx="305.15" cy="630" fill="#ADD1B2" rx="11" ry="11" style="stroke: #A80036; stroke-width: 1.0;"/><path d="M308.1188,635.6406 Q307.5406,635.9375 306.9,636.0781 Q306.2594,636.2344 305.5563,636.2344 Q303.0563,636.2344 301.7281,634.5938 Q300.4156,632.9375 300.4156,629.8125 Q300.4156,626.6875 301.7281,625.0313 Q303.0563,623.375 305.5563,623.375 Q306.2594,623.375 306.9,623.5313 Q307.5563,623.6875 308.1188,623.9844 L308.1188,626.7031 Q307.4938,626.125 306.9,625.8594 Q306.3063,625.5781 305.6813,625.5781 Q304.3375,625.5781 303.65,626.6563 Q302.9625,627.7188 302.9625,629.8125 Q302.9625,631.9063 303.65,632.9844 Q304.3375,634.0469 305.6813,634.0469 Q306.3063,634.0469 306.9,633.7813 Q307.4938,633.5 308.1188,632.9219 L308.1188,635.6406 Z "/><text fill="#000000" font-family="sans-serif" font-size="12" lengthAdjust="spacingAndGlyphs" textLength="84" x="322.85" y="634.1543">MovieFeature</text><line style="stroke: #A80036; stroke-width: 1.5;" x1="274.5" x2="425.5" y1="646" y2="646"/><text fill="#000000" font-family="sans-serif" font-size="11" lengthAdjust="spacingAndGlyphs" textLength="121" x="279.5" y="660.2104">+RuntimeMinutes: int</text><text fill="#000000" font-family="sans-serif" font-size="11" lengthAdjust="spacingAndGlyphs" textLength="141" x="279.5" y="673.0151">+CutType: MovieCutType</text><line style="stroke: #A80036; stroke-width: 1.5;" x1="274.5" x2="425.5" y1="679.6094" y2="679.6094"/><!--MD5=[fd1ab5964d81ee6222a89ca3733c37c4]
class MovieCutType--><rect fill="#FEFECE" filter="url(#fxv1xmv7r5eox)" height="112.0234" id="MovieCutType" style="stroke: #A80036; stroke-width: 1.5;" width="117" x="823.5" y="25"/><ellipse cx="838.5" cy="41" fill="#EB937F" rx="11" ry="11" style="stroke: #A80036; stroke-width: 1.0;"/><path d="M842.6094,47 L834.8906,47 L834.8906,34.6094 L842.6094,34.6094 L842.6094,36.7656 L837.3438,36.7656 L837.3438,39.4375 L842.1094,39.4375 L842.1094,41.5938 L837.3438,41.5938 L837.3438,44.8438 L842.6094,44.8438 L842.6094,47 Z "/><text fill="#000000" font-family="sans-serif" font-size="12" lengthAdjust="spacingAndGlyphs" textLength="85" x="852.5" y="45.1543">MovieCutType</text><line style="stroke: #A80036; stroke-width: 1.5;" x1="824.5" x2="939.5" y1="57" y2="57"/><text fill="#000000" font-family="sans-serif" font-size="11" lengthAdjust="spacingAndGlyphs" textLength="56" x="829.5" y="71.2104">Theatrical</text><text fill="#000000" font-family="sans-serif" font-size="11" lengthAdjust="spacingAndGlyphs" textLength="52" x="829.5" y="84.0151">Extended</text><text fill="#000000" font-family="sans-serif" font-size="11" lengthAdjust="spacingAndGlyphs" textLength="64" x="829.5" y="96.8198">DirectorCut</text><text fill="#000000" font-family="sans-serif" font-size="11" lengthAdjust="spacingAndGlyphs" textLength="45" x="829.5" y="109.6245">FinalCut</text><text fill="#000000" font-family="sans-serif" font-size="11" lengthAdjust="spacingAndGlyphs" textLength="32" x="829.5" y="122.4292">Other</text><line style="stroke: #A80036; stroke-width: 1.5;" x1="824.5" x2="939.5" y1="129.0234" y2="129.0234"/><!--MD5=[9022e2192881f166c529fc3ae75dec7b]
class TV--><rect fill="#FEFECE" filter="url(#fxv1xmv7r5eox)" height="60.8047" id="TV" style="stroke: #A80036; stroke-width: 1.5;" width="137" x="485.5" y="50.5"/><ellipse cx="542.25" cy="66.5" fill="#ADD1B2" rx="11" ry="11" style="stroke: #A80036; stroke-width: 1.0;"/><path d="M545.2188,72.1406 Q544.6406,72.4375 544,72.5781 Q543.3594,72.7344 542.6563,72.7344 Q540.1563,72.7344 538.8281,71.0938 Q537.5156,69.4375 537.5156,66.3125 Q537.5156,63.1875 538.8281,61.5313 Q540.1563,59.875 542.6563,59.875 Q543.3594,59.875 544,60.0313 Q544.6563,60.1875 545.2188,60.4844 L545.2188,63.2031 Q544.5938,62.625 544,62.3594 Q543.4063,62.0781 542.7813,62.0781 Q541.4375,62.0781 540.75,63.1563 Q540.0625,64.2188 540.0625,66.3125 Q540.0625,68.4063 540.75,69.4844 Q541.4375,70.5469 542.7813,70.5469 Q543.4063,70.5469 544,70.2813 Q544.5938,70 545.2188,69.4219 L545.2188,72.1406 Z "/><text fill="#000000" font-family="sans-serif" font-size="12" lengthAdjust="spacingAndGlyphs" textLength="15" x="562.75" y="70.6543">TV</text><line style="stroke: #A80036; stroke-width: 1.5;" x1="486.5" x2="621.5" y1="82.5" y2="82.5"/><text fill="#000000" font-family="sans-serif" font-size="11" lengthAdjust="spacingAndGlyphs" textLength="125" x="491.5" y="96.7104">+EndDate: LocalDate?</text><line style="stroke: #A80036; stroke-width: 1.5;" x1="486.5" x2="621.5" y1="103.3047" y2="103.3047"/><!--MD5=[2916714cae8f0462c1096d4fd55ce4c3]
class Season--><rect fill="#FEFECE" filter="url(#fxv1xmv7r5eox)" height="105.1563" id="Season" style="stroke: #A80036; stroke-width: 1.5;" width="156" x="499" y="252.5"/><ellipse cx="549.25" cy="271.4688" fill="#ADD1B2" rx="11" ry="11" style="stroke: #A80036; stroke-width: 1.0;"/><path d="M552.2188,277.1094 Q551.6406,277.4063 551,277.5469 Q550.3594,277.7031 549.6563,277.7031 Q547.1563,277.7031 545.8281,276.0625 Q544.5156,274.4063 544.5156,271.2813 Q544.5156,268.1563 545.8281,266.5 Q547.1563,264.8438 549.6563,264.8438 Q550.3594,264.8438 551,265 Q551.6563,265.1563 552.2188,265.4531 L552.2188,268.1719 Q551.5938,267.5938 551,267.3281 Q550.4063,267.0469 549.7813,267.0469 Q548.4375,267.0469 547.75,268.125 Q547.0625,269.1875 547.0625,271.2813 Q547.0625,273.375 547.75,274.4531 Q548.4375,275.5156 549.7813,275.5156 Q550.4063,275.5156 551,275.25 Q551.5938,274.9688 552.2188,274.3906 L552.2188,277.1094 Z "/><text fill="#000000" font-family="sans-serif" font-size="12" font-style="italic" lengthAdjust="spacingAndGlyphs" textLength="50" x="568.25" y="268.6387">«Entity»</text><text fill="#000000" font-family="sans-serif" font-size="12" lengthAdjust="spacingAndGlyphs" textLength="47" x="569.75" y="282.6074">Season</text><line style="stroke: #A80036; stroke-width: 1.5;" x1="500" x2="654" y1="290.4375" y2="290.4375"/><text fill="#000000" font-family="sans-serif" font-size="11" lengthAdjust="spacingAndGlyphs" textLength="54" x="505" y="304.6479">+Id: UUID</text><text fill="#000000" font-family="sans-serif" font-size="11" lengthAdjust="spacingAndGlyphs" textLength="119" x="505" y="317.4526">+SeasonNumber: int</text><text fill="#000000" font-family="sans-serif" font-size="11" lengthAdjust="spacingAndGlyphs" textLength="144" x="505" y="330.2573">+EpisodeIds: List&lt;UUID&gt;</text><text fill="#000000" font-family="sans-serif" font-size="11" lengthAdjust="spacingAndGlyphs" textLength="80" x="505" y="343.062">+Title: string?</text><line style="stroke: #A80036; stroke-width: 1.5;" x1="500" x2="654" y1="349.6563" y2="349.6563"/><!--MD5=[89f1af135d226d270851fb7756972918]
class Episode--><rect fill="#FEFECE" filter="url(#fxv1xmv7r5eox)" height="86.4141" id="Episode" style="stroke: #A80036; stroke-width: 1.5;" width="133" x="461.5" y="608"/><ellipse cx="499.45" cy="624" fill="#ADD1B2" rx="11" ry="11" style="stroke: #A80036; stroke-width: 1.0;"/><path d="M502.4188,629.6406 Q501.8406,629.9375 501.2,630.0781 Q500.5594,630.2344 499.8563,630.2344 Q497.3563,630.2344 496.0281,628.5938 Q494.7156,626.9375 494.7156,623.8125 Q494.7156,620.6875 496.0281,619.0313 Q497.3563,617.375 499.8563,617.375 Q500.5594,617.375 501.2,617.5313 Q501.8563,617.6875 502.4188,617.9844 L502.4188,620.7031 Q501.7938,620.125 501.2,619.8594 Q500.6063,619.5781 499.9813,619.5781 Q498.6375,619.5781 497.95,620.6563 Q497.2625,621.7188 497.2625,623.8125 Q497.2625,625.9063 497.95,626.9844 Q498.6375,628.0469 499.9813,628.0469 Q500.6063,628.0469 501.2,627.7813 Q501.7938,627.5 502.4188,626.9219 L502.4188,629.6406 Z "/><text fill="#000000" font-family="sans-serif" font-size="12" lengthAdjust="spacingAndGlyphs" textLength="50" x="518.55" y="628.1543">Episode</text><line style="stroke: #A80036; stroke-width: 1.5;" x1="462.5" x2="593.5" y1="640" y2="640"/><text fill="#000000" font-family="sans-serif" font-size="11" lengthAdjust="spacingAndGlyphs" textLength="121" x="467.5" y="654.2104">+EpisodeNumber: int</text><text fill="#000000" font-family="sans-serif" font-size="11" lengthAdjust="spacingAndGlyphs" textLength="113" x="467.5" y="667.0151">+AirDate: LocalDate</text><text fill="#000000" font-family="sans-serif" font-size="11" lengthAdjust="spacingAndGlyphs" textLength="121" x="467.5" y="679.8198">+RuntimeMinutes: int</text><line style="stroke: #A80036; stroke-width: 1.5;" x1="462.5" x2="593.5" y1="686.4141" y2="686.4141"/><!--MD5=[55a6f80882d3cd7368bedd1107f01aad]
class AudioTrack--><rect fill="#FEFECE" filter="url(#fxv1xmv7r5eox)" height="79.5469" id="AudioTrack" style="stroke: #A80036; stroke-width: 1.5;" width="117" x="291.5" y="754"/><ellipse cx="306.95" cy="772.9688" fill="#ADD1B2" rx="11" ry="11" style="stroke: #A80036; stroke-width: 1.0;"/><path d="M309.9188,778.6094 Q309.3406,778.9063 308.7,779.0469 Q308.0594,779.2031 307.3563,779.2031 Q304.8563,779.2031 303.5281,777.5625 Q302.2156,775.9063 302.2156,772.7813 Q302.2156,769.6563 303.5281,768 Q304.8563,766.3438 307.3563,766.3438 Q308.0594,766.3438 308.7,766.5 Q309.3563,766.6563 309.9188,766.9531 L309.9188,769.6719 Q309.2938,769.0938 308.7,768.8281 Q308.1063,768.5469 307.4813,768.5469 Q306.1375,768.5469 305.45,769.625 Q304.7625,770.6875 304.7625,772.7813 Q304.7625,774.875 305.45,775.9531 Q306.1375,777.0156 307.4813,777.0156 Q308.1063,777.0156 308.7,776.75 Q309.2938,776.4688 309.9188,775.8906 L309.9188,778.6094 Z "/><text fill="#000000" font-family="sans-serif" font-size="12" font-style="italic" lengthAdjust="spacingAndGlyphs" textLength="88" x="319.05" y="770.1387">«ValueObject»</text><text fill="#000000" font-family="sans-serif" font-size="12" lengthAdjust="spacingAndGlyphs" textLength="69" x="328.55" y="784.1074">AudioTrack</text><line style="stroke: #A80036; stroke-width: 1.5;" x1="292.5" x2="407.5" y1="791.9375" y2="791.9375"/><text fill="#000000" font-family="sans-serif" font-size="11" lengthAdjust="spacingAndGlyphs" textLength="105" x="297.5" y="806.1479">+Language: string</text><text fill="#000000" font-family="sans-serif" font-size="11" lengthAdjust="spacingAndGlyphs" textLength="90" x="297.5" y="818.9526">+Format: string</text><line style="stroke: #A80036; stroke-width: 1.5;" x1="292.5" x2="407.5" y1="825.5469" y2="825.5469"/><!--MD5=[6bfd38223bfcf85fe0a1d8f856fb6bfe]
reverse link MediaWork to Content--><path d="M322.74,408.86 C318.27,427.78 313.87,446.43 310.21,461.96 " fill="none" id="MediaWork&lt;-Content" style="stroke: #A80036; stroke-width: 1.0;"/><polygon fill="#A80036" points="325.75,396.08,320.4781,401,322.992,407.7588,328.2639,402.8387,325.75,396.08" style="stroke: #A80036; stroke-width: 1.0;"/><text fill="#000000" font-family="sans-serif" font-size="13" lengthAdjust="spacingAndGlyphs" textLength="23" x="300.1402" y="416.0084">1..*</text><text fill="#000000" font-family="sans-serif" font-size="13" lengthAdjust="spacingAndGlyphs" textLength="23" x="286.8164" y="450.9063">0..*</text><!--MD5=[df3c8c8251ec8c1295657f2e13929cbe]
reverse link Content to BonusContent--><path d="M253.71,557.31 C235.21,578.56 214.71,602.1 199,620.14 " fill="none" id="Content&lt;-BonusContent" style="stroke: #A80036; stroke-width: 1.0;"/><polygon fill="none" points="248.62,552.49,267.03,542.01,259.18,561.69,248.62,552.49" style="stroke: #A80036; stroke-width: 1.0;"/><!--MD5=[9ad4f954b28ad54f2491927702a17c0b]
reverse link MediaWork to Contribution--><path d="M402.33,407.78 C411.51,424.67 420.6,441.39 428.49,455.91 " fill="none" id="MediaWork&lt;-Contribution" style="stroke: #A80036; stroke-width: 1.0;"/><polygon fill="#A80036" points="395.97,396.08,395.3189,403.2617,401.6977,406.6248,402.3488,399.4432,395.97,396.08" style="stroke: #A80036; stroke-width: 1.0;"/><text fill="#000000" font-family="sans-serif" font-size="13" lengthAdjust="spacingAndGlyphs" textLength="8" x="391.5535" y="416.0084">1</text><text fill="#000000" font-family="sans-serif" font-size="13" lengthAdjust="spacingAndGlyphs" textLength="23" x="400.201" y="445.0898">1..*</text><!--MD5=[72246856af6937c3268263d759065537]
link Movie to MediaWork--><path d="M368.48,105.34 C366.15,126.83 362.53,160.35 358.92,193.78 " fill="none" id="Movie-&gt;MediaWork" style="stroke: #A80036; stroke-width: 1.0;"/><polygon fill="none" points="365.85,194.78,356.74,213.91,351.93,193.28,365.85,194.78" style="stroke: #A80036; stroke-width: 1.0;"/><!--MD5=[843201cdd5707f3cfd7d0b09d0dfc210]
reverse link Content to MovieFeature--><path d="M320.33,561 C326.27,578.82 332.64,597.92 337.95,613.84 " fill="none" id="Content&lt;-MovieFeature" style="stroke: #A80036; stroke-width: 1.0;"/><polygon fill="none" points="313.69,563.19,314,542.01,326.97,558.77,313.69,563.19" style="stroke: #A80036; stroke-width: 1.0;"/><!--MD5=[5cfdab32e7fdab8dd7cdb1fe4a097602]
link TV to MediaWork--><path d="M526.08,111.94 C505.03,134.52 474.8,166.94 445.16,198.73 " fill="none" id="TV-&gt;MediaWork" style="stroke: #A80036; stroke-width: 1.0;"/><polygon fill="none" points="449.91,203.89,431.16,213.75,439.67,194.35,449.91,203.89" style="stroke: #A80036; stroke-width: 1.0;"/><!--MD5=[6bc6b0c8103ec52055356ebbbc751922]
reverse link Content to Episode--><path d="M363.92,547.28 C364.28,547.52 364.64,547.76 365,548 C396.29,568.77 431.56,590.98 461.26,609.36 " fill="none" id="Content&lt;-Episode" style="stroke: #A80036; stroke-width: 1.0;"/><polygon fill="none" points="359.9,553.01,347.29,535.98,367.77,541.43,359.9,553.01" style="stroke: #A80036; stroke-width: 1.0;"/><!--MD5=[4d548d6d5149e0dc4380066bbbe7ebb9]
link Season to Episode--><path d="M569.66,357.5 C560.21,423.86 543.91,538.31 534.75,602.61 " fill="none" id="Season-&gt;Episode" style="stroke: #A80036; stroke-width: 1.0; stroke-dasharray: 7.0,7.0;"/><polygon fill="#A80036" points="534,607.91,539.2461,599.5746,534.7151,602.9614,531.3283,598.4304,534,607.91" style="stroke: #A80036; stroke-width: 1.0;"/><!--MD5=[214de68e22dbb54cfb3bb7ba7775e660]
reverse link TV to Season--><path d="M558.46,125.07 C562.24,161.51 567.66,213.82 571.66,252.48 " fill="none" id="TV&lt;-Season" style="stroke: #A80036; stroke-width: 1.0;"/><polygon fill="#A80036" points="557.1,111.94,553.7413,118.3211,558.3397,123.8758,561.6985,117.4946,557.1,111.94" style="stroke: #A80036; stroke-width: 1.0;"/><text fill="#000000" font-family="sans-serif" font-size="13" lengthAdjust="spacingAndGlyphs" textLength="8" x="548.9284" y="131.3658">1</text><text fill="#000000" font-family="sans-serif" font-size="13" lengthAdjust="spacingAndGlyphs" textLength="23" x="546.3971" y="241.4801">1..*</text><!--MD5=[9532df3b124b50ee0c75c21d8887e8e6]
reverse link MovieFeature to AudioTrack--><path d="M350,701.32 C350,718.52 350,737.58 350,753.84 " fill="none" id="MovieFeature&lt;-AudioTrack" style="stroke: #A80036; stroke-width: 1.0;"/><polygon fill="#A80036" points="350,688.31,346,694.31,350,700.31,354,694.31,350,688.31" style="stroke: #A80036; stroke-width: 1.0;"/><text fill="#000000" font-family="sans-serif" font-size="13" lengthAdjust="spacingAndGlyphs" textLength="8" x="341.3625" y="707.5602">1</text><text fill="#000000" font-family="sans-serif" font-size="13" lengthAdjust="spacingAndGlyphs" textLength="23" x="325.0953" y="743.0617">0..*</text><!--MD5=[65911db2e8f039ecfb158936d129579e]
reverse link Episode to AudioTrack--><path d="M464.31,702.45 C442.96,719.36 419.5,737.95 399.41,753.86 " fill="none" id="Episode&lt;-AudioTrack" style="stroke: #A80036; stroke-width: 1.0;"/><polygon fill="#A80036" points="474.59,694.3,467.4032,694.8914,465.1849,701.7528,472.3717,701.1614,474.59,694.3" style="stroke: #A80036; stroke-width: 1.0;"/><text fill="#000000" font-family="sans-serif" font-size="13" lengthAdjust="spacingAndGlyphs" textLength="8" x="457.4403" y="714.4407">1</text><text fill="#000000" font-family="sans-serif" font-size="13" lengthAdjust="spacingAndGlyphs" textLength="23" x="382.9258" y="742.7891">0..*</text><!--MD5=[58bd367ebc165485965c44386fc72130]
reverse link BonusContent to AudioTrack--><path d="M220.39,689.75 C245.27,709.57 275.72,733.82 300.85,753.84 " fill="none" id="BonusContent&lt;-AudioTrack" style="stroke: #A80036; stroke-width: 1.0;"/><polygon fill="#A80036" points="210.11,681.56,212.3118,688.4268,219.4971,689.0354,217.2954,682.1687,210.11,681.56" style="stroke: #A80036; stroke-width: 1.0;"/><text fill="#000000" font-family="sans-serif" font-size="13" lengthAdjust="spacingAndGlyphs" textLength="8" x="208.9389" y="701.5106">1</text><text fill="#000000" font-family="sans-serif" font-size="13" lengthAdjust="spacingAndGlyphs" textLength="23" x="267.8048" y="743.0617">0..*</text><!--MD5=[f8bc5955ba572caef94f84567d8098c7]
@startuml
skinparam classAttributeIconSize 0

abstract class MediaWork <<AggregateRoot>> {
    +Id: UUID
    +Title: string
    +OriginalReleaseDate: LocalDate
    -_contributions: List<Contribution>
    #_creatorRoles: List<ContributorRole>
    - -
    +AddContribution(id, role): void
    +RemoveContribution(id): void
    +AddEdition(id): void
    +RemoveEdition(id): void
    +IsCreatorRole(role): bool
}

note top of MediaWork
Invariant:
- Must have at least one Contribution
  where concrete MediaWork considers Role
  a creator (member of _creatorRoles)
- Cannot remove last creator
- Cannot remove Edition if MediaCopy
  exists referencing it (cross-aggregate
  constraint, enforce in application
  layer)
end note

abstract class Content <<Entity>> {
    +Id: UUID
    +Title?: string
}

MediaWork "1..*" *- - "0..*" Content

class BonusContent {
    RuntimeMinutes?: int
}

Content <|- - BonusContent

class Contribution <<Entity>> {
    +Id: UUID
    +ContributorId: UUID
    +Role: ContributorRole
}

class ContributorRole <<ValueObject>> {
    +Name: string
}

MediaWork "1" *- - "1..*" Contribution

class Movie {}

Movie - -|> MediaWork

class MovieFeature {
    +RuntimeMinutes: int
    +CutType: MovieCutType
}

enum MovieCutType {
    Theatrical
    Extended
    DirectorCut
    FinalCut
    Other
}

Content <|- - MovieFeature

class TV {
    +EndDate: LocalDate?
}

TV - -|> MediaWork

class Season <<Entity>> {
    +Id: UUID
    +SeasonNumber: int
    +EpisodeIds: List<UUID>
    +Title: string?
}

class Episode {
    +EpisodeNumber: int
    +AirDate: LocalDate
    +RuntimeMinutes: int
}

Content <|- - Episode
Season ..> Episode

TV "1" *- - "1..*" Season

class AudioTrack <<ValueObject>> {
    +Language: string
    +Format: string
}

MovieFeature "1" *- - "0..*" AudioTrack
Episode "1" *- - "0..*" AudioTrack
BonusContent "1" *- - "0..*" AudioTrack

@enduml

PlantUML version 1.2020.02(Sun Mar 01 10:22:07 UTC 2020)
(GPL source distribution)
Java Runtime: OpenJDK Runtime Environment
JVM: OpenJDK 64-Bit Server VM
Java Version: 17.0.18+8
Operating System: Linux
Default Encoding: UTF-8
Language: en
Country: null
--></g></svg>