<?xml version="1.0" encoding="UTF-8" standalone="no"?><svg xmlns="http://www.w3.org/2000/svg" xmlns:xlink="http://www.w3.org/1999/xlink" contentScriptType="application/ecmascript" contentStyleType="text/css" height="567px" preserveAspectRatio="none" style="width:349px;height:567px;" version="1.1" viewBox="0 0 349 567" width="349px" zoomAndPan="magnify"><defs><filter height="300%" id="ffmxp2rlb4xqr" width="300%" x="-1" y="-1"><feGaussianBlur result="blurOut" stdDeviation="2.0"/><feColorMatrix in="blurOut" result="blurOut2" type="matrix" values="0 0 0 0 0 0 0 0 0 0 0 0 0 0 0 0 0 0 .4 0"/><feOffset dx="4.0" dy="4.0" in="blurOut2" result="blurOut3"/><feBlend in="SourceGraphic" in2="blurOut3" mode="normal"/></filter></defs><g><!--MD5=[c3dd83c4944f050787f4b644933234ea]
class MediaWork--><rect fill="#FEFECE" filter="url(#ffmxp2rlb4xqr)" height="48" id="MediaWork" style="stroke: #A80036; stroke-width: 1.5;" width="100" x="184.5" y="258"/><ellipse cx="199.5" cy="274" fill="#ADD1B2" rx="11" ry="11" style="stroke: #A80036; stroke-width: 1.0;"/><path d="M202.4688,279.6406 Q201.8906,279.9375 201.25,280.0781 Q200.6094,280.2344 199.9063,280.2344 Q197.4063,280.2344 196.0781,278.5938 Q194.7656,276.9375 194.7656,273.8125 Q194.7656,270.6875 196.0781,269.0313 Q197.4063,267.375 199.9063,267.375 Q200.6094,267.375 201.25,267.5313 Q201.9063,267.6875 202.4688,267.9844 L202.4688,270.7031 Q201.8438,270.125 201.25,269.8594 Q200.6563,269.5781 200.0313,269.5781 Q198.6875,269.5781 198,270.6563 Q197.3125,271.7188 197.3125,273.8125 Q197.3125,275.9063 198,276.9844 Q198.6875,278.0469 200.0313,278.0469 Q200.6563,278.0469 201.25,277.7813 Q201.8438,277.5 202.4688,276.9219 L202.4688,279.6406 Z "/><text fill="#000000" font-family="sans-serif" font-size="12" lengthAdjust="spacingAndGlyphs" textLength="68" x="213.5" y="278.1543">MediaWork</text><line style="stroke: #A80036; stroke-width: 1.5;" x1="185.5" x2="283.5" y1="290" y2="290"/><line style="stroke: #A80036; stroke-width: 1.5;" x1="185.5" x2="283.5" y1="298" y2="298"/><!--MD5=[a37707a5a7e4fa9ccccea367e3a415b8]
class Edition--><rect fill="#FEFECE" filter="url(#ffmxp2rlb4xqr)" height="48" id="Edition" style="stroke: #A80036; stroke-width: 1.5;" width="75" x="66" y="383"/><ellipse cx="81" cy="399" fill="#ADD1B2" rx="11" ry="11" style="stroke: #A80036; stroke-width: 1.0;"/><path d="M83.9688,404.6406 Q83.3906,404.9375 82.75,405.0781 Q82.1094,405.2344 81.4063,405.2344 Q78.9063,405.2344 77.5781,403.5938 Q76.2656,401.9375 76.2656,398.8125 Q76.2656,395.6875 77.5781,394.0313 Q78.9063,392.375 81.4063,392.375 Q82.1094,392.375 82.75,392.5313 Q83.4063,392.6875 83.9688,392.9844 L83.9688,395.7031 Q83.3438,395.125 82.75,394.8594 Q82.1563,394.5781 81.5313,394.5781 Q80.1875,394.5781 79.5,395.6563 Q78.8125,396.7188 78.8125,398.8125 Q78.8125,400.9063 79.5,401.9844 Q80.1875,403.0469 81.5313,403.0469 Q82.1563,403.0469 82.75,402.7813 Q83.3438,402.5 83.9688,401.9219 L83.9688,404.6406 Z "/><text fill="#000000" font-family="sans-serif" font-size="12" lengthAdjust="spacingAndGlyphs" textLength="43" x="95" y="403.1543">Edition</text><line style="stroke: #A80036; stroke-width: 1.5;" x1="67" x2="140" y1="415" y2="415"/><line style="stroke: #A80036; stroke-width: 1.5;" x1="67" x2="140" y1="423" y2="423"/><!--MD5=[148a3002404242a1fb9bf2331f66864f]
class MediaCopy--><rect fill="#FEFECE" filter="url(#ffmxp2rlb4xqr)" height="48" id="MediaCopy" style="stroke: #A80036; stroke-width: 1.5;" width="99" x="6" y="258"/><ellipse cx="21" cy="274" fill="#ADD1B2" rx="11" ry="11" style="stroke: #A80036; stroke-width: 1.0;"/><path d="M23.9688,279.6406 Q23.3906,279.9375 22.75,280.0781 Q22.1094,280.2344 21.4063,280.2344 Q18.9063,280.2344 17.5781,278.5938 Q16.2656,276.9375 16.2656,273.8125 Q16.2656,270.6875 17.5781,269.0313 Q18.9063,267.375 21.4063,267.375 Q22.1094,267.375 22.75,267.5313 Q23.4063,267.6875 23.9688,267.9844 L23.9688,270.7031 Q23.3438,270.125 22.75,269.8594 Q22.1563,269.5781 21.5313,269.5781 Q20.1875,269.5781 19.5,270.6563 Q18.8125,271.7188 18.8125,273.8125 Q18.8125,275.9063 19.5,276.9844 Q20.1875,278.0469 21.5313,278.0469 Q22.1563,278.0469 22.75,277.7813 Q23.3438,277.5 23.9688,276.9219 L23.9688,279.6406 Z "/><text fill="#000000" font-family="sans-serif" font-size="12" lengthAdjust="spacingAndGlyphs" textLength="67" x="35" y="278.1543">MediaCopy</text><line style="stroke: #A80036; stroke-width: 1.5;" x1="7" x2="104" y1="290" y2="290"/><line style="stroke: #A80036; stroke-width: 1.5;" x1="7" x2="104" y1="298" y2="298"/><!--MD5=[45bc2ed3d1efce51d6e5e8f0ca873e96]
class CollectionGroup--><rect fill="#FEFECE" filter="url(#ffmxp2rlb4xqr)" height="48" id="CollectionGroup" style="stroke: #A80036; stroke-width: 1.5;" width="131" x="169" y="8"/><ellipse cx="184" cy="24" fill="#ADD1B2" rx="11" ry="11" style="stroke: #A80036; stroke-width: 1.0;"/><path d="M186.9688,29.6406 Q186.3906,29.9375 185.75,30.0781 Q185.1094,30.2344 184.4063,30.2344 Q181.9063,30.2344 180.5781,28.5938 Q179.2656,26.9375 179.2656,23.8125 Q179.2656,20.6875 180.5781,19.0313 Q181.9063,17.375 184.4063,17.375 Q185.1094,17.375 185.75,17.5313 Q186.4063,17.6875 186.9688,17.9844 L186.9688,20.7031 Q186.3438,20.125 185.75,19.8594 Q185.1563,19.5781 184.5313,19.5781 Q183.1875,19.5781 182.5,20.6563 Q181.8125,21.7188 181.8125,23.8125 Q181.8125,25.9063 182.5,26.9844 Q183.1875,28.0469 184.5313,28.0469 Q185.1563,28.0469 185.75,27.7813 Q186.3438,27.5 186.9688,26.9219 L186.9688,29.6406 Z "/><text fill="#000000" font-family="sans-serif" font-size="12" lengthAdjust="spacingAndGlyphs" textLength="99" x="198" y="28.1543">CollectionGroup</text><line style="stroke: #A80036; stroke-width: 1.5;" x1="170" x2="299" y1="40" y2="40"/><line style="stroke: #A80036; stroke-width: 1.5;" x1="170" x2="299" y1="48" y2="48"/><!--MD5=[1544e71f2cb389b780e9180c5c78ad2d]
class CollectionGroupMembership--><rect fill="#FEFECE" filter="url(#ffmxp2rlb4xqr)" height="48" id="CollectionGroupMembership" style="stroke: #A80036; stroke-width: 1.5;" width="207" x="131" y="133"/><ellipse cx="146" cy="149" fill="#ADD1B2" rx="11" ry="11" style="stroke: #A80036; stroke-width: 1.0;"/><path d="M148.9688,154.6406 Q148.3906,154.9375 147.75,155.0781 Q147.1094,155.2344 146.4063,155.2344 Q143.9063,155.2344 142.5781,153.5938 Q141.2656,151.9375 141.2656,148.8125 Q141.2656,145.6875 142.5781,144.0313 Q143.9063,142.375 146.4063,142.375 Q147.1094,142.375 147.75,142.5313 Q148.4063,142.6875 148.9688,142.9844 L148.9688,145.7031 Q148.3438,145.125 147.75,144.8594 Q147.1563,144.5781 146.5313,144.5781 Q145.1875,144.5781 144.5,145.6563 Q143.8125,146.7188 143.8125,148.8125 Q143.8125,150.9063 144.5,151.9844 Q145.1875,153.0469 146.5313,153.0469 Q147.1563,153.0469 147.75,152.7813 Q148.3438,152.5 148.9688,151.9219 L148.9688,154.6406 Z "/><text fill="#000000" font-family="sans-serif" font-size="12" lengthAdjust="spacingAndGlyphs" textLength="175" x="160" y="153.1543">CollectionGroupMembership</text><line style="stroke: #A80036; stroke-width: 1.5;" x1="132" x2="337" y1="165" y2="165"/><line style="stroke: #A80036; stroke-width: 1.5;" x1="132" x2="337" y1="173" y2="173"/><!--MD5=[0330879a1a385efee19ba3488ed490fa]
class Contribution--><rect fill="#FEFECE" filter="url(#ffmxp2rlb4xqr)" height="48" id="Contribution" style="stroke: #A80036; stroke-width: 1.5;" width="109" x="224" y="383"/><ellipse cx="239" cy="399" fill="#ADD1B2" rx="11" ry="11" style="stroke: #A80036; stroke-width: 1.0;"/><path d="M241.9688,404.6406 Q241.3906,404.9375 240.75,405.0781 Q240.1094,405.2344 239.4063,405.2344 Q236.9063,405.2344 235.5781,403.5938 Q234.2656,401.9375 234.2656,398.8125 Q234.2656,395.6875 235.5781,394.0313 Q236.9063,392.375 239.4063,392.375 Q240.1094,392.375 240.75,392.5313 Q241.4063,392.6875 241.9688,392.9844 L241.9688,395.7031 Q241.3438,395.125 240.75,394.8594 Q240.1563,394.5781 239.5313,394.5781 Q238.1875,394.5781 237.5,395.6563 Q236.8125,396.7188 236.8125,398.8125 Q236.8125,400.9063 237.5,401.9844 Q238.1875,403.0469 239.5313,403.0469 Q240.1563,403.0469 240.75,402.7813 Q241.3438,402.5 241.9688,401.9219 L241.9688,404.6406 Z "/><text fill="#000000" font-family="sans-serif" font-size="12" lengthAdjust="spacingAndGlyphs" textLength="77" x="253" y="403.1543">Contribution</text><line style="stroke: #A80036; stroke-width: 1.5;" x1="225" x2="332" y1="415" y2="415"/><line style="stroke: #A80036; stroke-width: 1.5;" x1="225" x2="332" y1="423" y2="423"/><!--MD5=[1a95835255177050dd8028a7da1b3a6a]
class Contributor--><rect fill="#FEFECE" filter="url(#ffmxp2rlb4xqr)" height="48" id="Contributor" style="stroke: #A80036; stroke-width: 1.5;" width="103" x="227" y="508"/><ellipse cx="242" cy="524" fill="#ADD1B2" rx="11" ry="11" style="stroke: #A80036; stroke-width: 1.0;"/><path d="M244.9688,529.6406 Q244.3906,529.9375 243.75,530.0781 Q243.1094,530.2344 242.4063,530.2344 Q239.9063,530.2344 238.5781,528.5938 Q237.2656,526.9375 237.2656,523.8125 Q237.2656,520.6875 238.5781,519.0313 Q239.9063,517.375 242.4063,517.375 Q243.1094,517.375 243.75,517.5313 Q244.4063,517.6875 244.9688,517.9844 L244.9688,520.7031 Q244.3438,520.125 243.75,519.8594 Q243.1563,519.5781 242.5313,519.5781 Q241.1875,519.5781 240.5,520.6563 Q239.8125,521.7188 239.8125,523.8125 Q239.8125,525.9063 240.5,526.9844 Q241.1875,528.0469 242.5313,528.0469 Q243.1563,528.0469 243.75,527.7813 Q244.3438,527.5 244.9688,526.9219 L244.9688,529.6406 Z "/><text fill="#000000" font-family="sans-serif" font-size="12" lengthAdjust="spacingAndGlyphs" textLength="71" x="256" y="528.1543">Contributor</text><line style="stroke: #A80036; stroke-width: 1.5;" x1="228" x2="329" y1="540" y2="540"/><line style="stroke: #A80036; stroke-width: 1.5;" x1="228" x2="329" y1="548" y2="548"/><!--MD5=[7b208c38cbbdca26fcb7e8880d710ea0]
link CollectionGroup to CollectionGroupMembership--><path d="M234.5,56.14 C234.5,76.49 234.5,106.19 234.5,127.91 " fill="none" id="CollectionGroup-&gt;CollectionGroupMembership" style="stroke: #A80036; stroke-width: 1.0;"/><polygon fill="#A80036" points="234.5,132.97,238.5,123.97,234.5,127.97,230.5,123.97,234.5,132.97" style="stroke: #A80036; stroke-width: 1.0;"/><text fill="#000000" font-family="sans-serif" font-size="13" lengthAdjust="spacingAndGlyphs" textLength="54" x="235.5" y="99.0669">contains</text><!--MD5=[029b0f2b0590c17a20dde8c2bbf701f2]
link CollectionGroupMembership to MediaWork--><path d="M234.5,181.14 C234.5,201.49 234.5,231.19 234.5,252.91 " fill="none" id="CollectionGroupMembership-&gt;MediaWork" style="stroke: #A80036; stroke-width: 1.0;"/><polygon fill="#A80036" points="234.5,257.97,238.5,248.97,234.5,252.97,230.5,248.97,234.5,257.97" style="stroke: #A80036; stroke-width: 1.0;"/><text fill="#000000" font-family="sans-serif" font-size="13" lengthAdjust="spacingAndGlyphs" textLength="68" x="235.5" y="224.0669">references</text><!--MD5=[fa44da9fd858e6fe61c3a9392c9ff143]
link MediaWork to Edition--><path d="M207.64,306.17 C197.18,315.34 185.17,326.04 174.5,336 C159.46,350.03 143.09,366.12 129.86,379.33 " fill="none" id="MediaWork-&gt;Edition" style="stroke: #A80036; stroke-width: 1.0;"/><polygon fill="#A80036" points="126.21,382.98,135.3952,379.4259,129.7384,379.4373,129.727,373.7805,126.21,382.98" style="stroke: #A80036; stroke-width: 1.0;"/><text fill="#000000" font-family="sans-serif" font-size="13" lengthAdjust="spacingAndGlyphs" textLength="69" x="175.5" y="349.0669">has/part of</text><!--MD5=[58863ec6cf083fff19df8be0751786f0]
link MediaCopy to Edition--><path d="M49.79,306.2 C47.47,320.24 46.54,338.22 52.5,353 C56.4,362.67 62.99,371.56 70.18,379.19 " fill="none" id="MediaCopy-&gt;Edition" style="stroke: #A80036; stroke-width: 1.0;"/><polygon fill="#A80036" points="73.74,382.83,70.2975,373.6024,70.2404,379.2589,64.5838,379.2018,73.74,382.83" style="stroke: #A80036; stroke-width: 1.0;"/><text fill="#000000" font-family="sans-serif" font-size="13" lengthAdjust="spacingAndGlyphs" textLength="70" x="53.5" y="349.0669">instance of</text><!--MD5=[8a22a3985988d7d130dcd3a8b1335fd0]
link MediaWork to Contribution--><path d="M242.78,306.14 C250.09,326.58 260.77,356.44 268.55,378.18 " fill="none" id="MediaWork-&gt;Contribution" style="stroke: #A80036; stroke-width: 1.0;"/><polygon fill="#A80036" points="270.26,382.97,270.9867,373.148,268.572,378.2636,263.4564,375.8488,270.26,382.97" style="stroke: #A80036; stroke-width: 1.0;"/><text fill="#000000" font-family="sans-serif" font-size="13" lengthAdjust="spacingAndGlyphs" textLength="23" x="259.5" y="349.0669">has</text><!--MD5=[96eca555c283861625927cf39bbe0ece]
link Contribution to Contributor--><path d="M278.5,431.14 C278.5,451.49 278.5,481.19 278.5,502.91 " fill="none" id="Contribution-&gt;Contributor" style="stroke: #A80036; stroke-width: 1.0;"/><polygon fill="#A80036" points="278.5,507.97,282.5,498.97,278.5,502.97,274.5,498.97,278.5,507.97" style="stroke: #A80036; stroke-width: 1.0;"/><text fill="#000000" font-family="sans-serif" font-size="13" lengthAdjust="spacingAndGlyphs" textLength="15" x="279.5" y="474.0669">by</text><!--MD5=[b50d2c92edf291767c4887141af66b14]
@startuml
skinparam classAttributeIconSize 0

class MediaWork
class Edition
class MediaCopy
class CollectionGroup
class CollectionGroupMembership
class Contribution
class Contributor

CollectionGroup - -> CollectionGroupMembership : contains
CollectionGroupMembership - -> MediaWork : references

MediaWork - -> Edition : has/part of
MediaCopy - -> Edition : instance of

MediaWork - -> Contribution : has
Contribution - -> Contributor : by

@enduml

PlantUML version 1.2020.02(Sun Mar 01 10:22:07 UTC 2020)
(GPL source distribution)
Java Runtime: OpenJDK Runtime Environment
JVM: OpenJDK 64-Bit Server VM
Java Version: 17.0.18+8
Operating System: Linux
Default Encoding: UTF-8
Language: en
Country: null
--></g></svg>