<?xml version="1.0" encoding="UTF-8" standalone="no"?><svg xmlns="http://www.w3.org/2000/svg" xmlns:xlink="http://www.w3.org/1999/xlink" contentScriptType="application/ecmascript" contentStyleType="text/css" height="584px" preserveAspectRatio="none" style="width:962px;height:584px;" version="1.1" viewBox="0 0 962 584" width="962px" zoomAndPan="magnify"><defs><filter height="300%" id="fercdh3hm9gyf" width="300%" x="-1" y="-1"><feGaussianBlur result="blurOut" stdDeviation="2.0"/><feColorMatrix in="blurOut" result="blurOut2" type="matrix" values="0 0 0 0 0 0 0 0 0 0 0 0 0 0 0 0 0 0 .4 0"/><feOffset dx="4.0" dy="4.0" in="blurOut2" result="blurOut3"/><feBlend in="SourceGraphic" in2="blurOut3" mode="normal"/></filter></defs><g><!--MD5=[c3dd83c4944f050787f4b644933234ea]
class MediaWork--><rect fill="#FEFECE" filter="url(#fercdh3hm9gyf)" height="181.9844" id="MediaWork" style="stroke: #A80036; stroke-width: 1.5;" width="233" x="225.5" y="214"/><ellipse cx="285.25" cy="232.9688" fill="#A9DCDF" rx="11" ry="11" style="stroke: #A80036; stroke-width: 1.0;"/><path d="M285.3594,228.3125 L284.2031,233.3906 L286.5313,233.3906 L285.3594,228.3125 Z M283.875,226.0781 L286.8594,226.0781 L290.2188,238.4688 L287.7656,238.4688 L287,235.4063 L283.7188,235.4063 L282.9688,238.4688 L280.5313,238.4688 L283.875,226.0781 Z "/><text fill="#000000" font-family="sans-serif" font-size="12" font-style="italic" lengthAdjust="spacingAndGlyphs" textLength="109" x="303.75" y="230.1387">«AggregateRoot»</text><text fill="#000000" font-family="sans-serif" font-size="12" font-style="italic" lengthAdjust="spacingAndGlyphs" textLength="69" x="323.75" y="244.1074">MediaWork</text><line style="stroke: #A80036; stroke-width: 1.5;" x1="226.5" x2="457.5" y1="251.9375" y2="251.9375"/><text fill="#000000" font-family="sans-serif" font-size="11" lengthAdjust="spacingAndGlyphs" textLength="54" x="231.5" y="266.1479">+Id: UUID</text><text fill="#000000" font-family="sans-serif" font-size="11" lengthAdjust="spacingAndGlyphs" textLength="74" x="231.5" y="278.9526">+Title: string</text><text fill="#000000" font-family="sans-serif" font-size="11" lengthAdjust="spacingAndGlyphs" textLength="187" x="231.5" y="291.7573">+OriginalReleaseDate: LocalDate</text><text fill="#000000" font-family="sans-serif" font-size="11" lengthAdjust="spacingAndGlyphs" textLength="199" x="231.5" y="304.562">-_contributions: List&lt;Contribution&gt;</text><text fill="#000000" font-family="sans-serif" font-size="11" lengthAdjust="spacingAndGlyphs" textLength="221" x="231.5" y="317.3667">#_creatorRoles: List&lt;ContributorRole&gt;</text><line style="stroke: #A80036; stroke-width: 1.0;" x1="226.5" x2="457.5" y1="323.9609" y2="323.9609"/><text fill="#000000" font-family="sans-serif" font-size="11" lengthAdjust="spacingAndGlyphs" textLength="178" x="231.5" y="338.1714">+AddContribution(id, role): void</text><text fill="#000000" font-family="sans-serif" font-size="11" lengthAdjust="spacingAndGlyphs" textLength="172" x="231.5" y="350.9761">+RemoveContribution(id): void</text><text fill="#000000" font-family="sans-serif" font-size="11" lengthAdjust="spacingAndGlyphs" textLength="117" x="231.5" y="363.7808">+AddEdition(id): void</text><text fill="#000000" font-family="sans-serif" font-size="11" lengthAdjust="spacingAndGlyphs" textLength="141" x="231.5" y="376.5854">+RemoveEdition(id): void</text><text fill="#000000" font-family="sans-serif" font-size="11" lengthAdjust="spacingAndGlyphs" textLength="148" x="231.5" y="389.3901">+IsCreatorRole(role): bool</text><path d="M6,8 L6,154.1953 A0,0 0 0 0 6,154.1953 L211.04,154.1953 L265.46,213.62 L219.04,154.1953 L302,154.1953 A0,0 0 0 0 302,154.1953 L302,18 L292,8 L6,8 A0,0 0 0 0 6,8 " fill="#FBFB77" filter="url(#fercdh3hm9gyf)" style="stroke: #A80036; stroke-width: 1.0;"/><path d="M292,8 L292,18 L302,18 L292,8 " fill="#FBFB77" style="stroke: #A80036; stroke-width: 1.0;"/><text fill="#000000" font-family="sans-serif" font-size="13" lengthAdjust="spacingAndGlyphs" textLength="59" x="12" y="25.0669">Invariant:</text><text fill="#000000" font-family="sans-serif" font-size="13" lengthAdjust="spacingAndGlyphs" textLength="237" x="12" y="40.1997">- Must have at least one Contribution</text><text fill="#000000" font-family="sans-serif" font-size="13" lengthAdjust="spacingAndGlyphs" textLength="267" x="20" y="55.3325">where concrete MediaWork considers Role</text><text fill="#000000" font-family="sans-serif" font-size="13" lengthAdjust="spacingAndGlyphs" textLength="234" x="20" y="70.4653">a creator (member of _creatorRoles)</text><text fill="#000000" font-family="sans-serif" font-size="13" lengthAdjust="spacingAndGlyphs" textLength="185" x="12" y="85.5981">- Cannot remove last creator</text><text fill="#000000" font-family="sans-serif" font-size="13" lengthAdjust="spacingAndGlyphs" textLength="240" x="12" y="100.731">- Cannot remove Edition if MediaCopy</text><text fill="#000000" font-family="sans-serif" font-size="13" lengthAdjust="spacingAndGlyphs" textLength="239" x="20" y="115.8638">exists referencing it (cross-aggregate</text><text fill="#000000" font-family="sans-serif" font-size="13" lengthAdjust="spacingAndGlyphs" textLength="208" x="20" y="130.9966">constraint, enforce in application</text><text fill="#000000" font-family="sans-serif" font-size="13" lengthAdjust="spacingAndGlyphs" textLength="36" x="20" y="146.1294">layer)</text><!--MD5=[0330879a1a385efee19ba3488ed490fa]
class Contribution--><rect fill="#FEFECE" filter="url(#fercdh3hm9gyf)" height="92.3516" id="Contribution" style="stroke: #A80036; stroke-width: 1.5;" width="141" x="271.5" y="469"/><ellipse cx="300.9" cy="487.9688" fill="#ADD1B2" rx="11" ry="11" style="stroke: #A80036; stroke-width: 1.0;"/><path d="M303.8688,493.6094 Q303.2906,493.9063 302.65,494.0469 Q302.0094,494.2031 301.3063,494.2031 Q298.8063,494.2031 297.4781,492.5625 Q296.1656,490.9063 296.1656,487.7813 Q296.1656,484.6563 297.4781,483 Q298.8063,481.3438 301.3063,481.3438 Q302.0094,481.3438 302.65,481.5 Q303.3063,481.6563 303.8688,481.9531 L303.8688,484.6719 Q303.2438,484.0938 302.65,483.8281 Q302.0563,483.5469 301.4313,483.5469 Q300.0875,483.5469 299.4,484.625 Q298.7125,485.6875 298.7125,487.7813 Q298.7125,489.875 299.4,490.9531 Q300.0875,492.0156 301.4313,492.0156 Q302.0563,492.0156 302.65,491.75 Q303.2438,491.4688 303.8688,490.8906 L303.8688,493.6094 Z "/><text fill="#000000" font-family="sans-serif" font-size="12" font-style="italic" lengthAdjust="spacingAndGlyphs" textLength="50" x="331.6" y="485.1387">«Entity»</text><text fill="#000000" font-family="sans-serif" font-size="12" lengthAdjust="spacingAndGlyphs" textLength="77" x="318.1" y="499.1074">Contribution</text><line style="stroke: #A80036; stroke-width: 1.5;" x1="272.5" x2="411.5" y1="506.9375" y2="506.9375"/><text fill="#000000" font-family="sans-serif" font-size="11" lengthAdjust="spacingAndGlyphs" textLength="54" x="277.5" y="521.1479">+Id: UUID</text><text fill="#000000" font-family="sans-serif" font-size="11" lengthAdjust="spacingAndGlyphs" textLength="118" x="277.5" y="533.9526">+ContributorId: UUID</text><text fill="#000000" font-family="sans-serif" font-size="11" lengthAdjust="spacingAndGlyphs" textLength="129" x="277.5" y="546.7573">+Role: ContributorRole</text><line style="stroke: #A80036; stroke-width: 1.5;" x1="272.5" x2="411.5" y1="553.3516" y2="553.3516"/><!--MD5=[dd2cb4d4918b743616ebdb19b9302e86]
class ContributorRole--><rect fill="#FEFECE" filter="url(#fercdh3hm9gyf)" height="66.7422" id="ContributorRole" style="stroke: #A80036; stroke-width: 1.5;" width="130" x="669" y="47.5"/><ellipse cx="684" cy="66.4688" fill="#ADD1B2" rx="11" ry="11" style="stroke: #A80036; stroke-width: 1.0;"/><path d="M686.9688,72.1094 Q686.3906,72.4063 685.75,72.5469 Q685.1094,72.7031 684.4063,72.7031 Q681.9063,72.7031 680.5781,71.0625 Q679.2656,69.4063 679.2656,66.2813 Q679.2656,63.1563 680.5781,61.5 Q681.9063,59.8438 684.4063,59.8438 Q685.1094,59.8438 685.75,60 Q686.4063,60.1563 686.9688,60.4531 L686.9688,63.1719 Q686.3438,62.5938 685.75,62.3281 Q685.1563,62.0469 684.5313,62.0469 Q683.1875,62.0469 682.5,63.125 Q681.8125,64.1875 681.8125,66.2813 Q681.8125,68.375 682.5,69.4531 Q683.1875,70.5156 684.5313,70.5156 Q685.1563,70.5156 685.75,70.25 Q686.3438,69.9688 686.9688,69.3906 L686.9688,72.1094 Z "/><text fill="#000000" font-family="sans-serif" font-size="12" font-style="italic" lengthAdjust="spacingAndGlyphs" textLength="88" x="703" y="63.6387">«ValueObject»</text><text fill="#000000" font-family="sans-serif" font-size="12" lengthAdjust="spacingAndGlyphs" textLength="98" x="698" y="77.6074">ContributorRole</text><line style="stroke: #A80036; stroke-width: 1.5;" x1="670" x2="798" y1="85.4375" y2="85.4375"/><text fill="#000000" font-family="sans-serif" font-size="11" lengthAdjust="spacingAndGlyphs" textLength="83" x="675" y="99.6479">+Name: string</text><line style="stroke: #A80036; stroke-width: 1.5;" x1="670" x2="798" y1="106.2422" y2="106.2422"/><!--MD5=[e69084ab16b022bdbef99762ea85e9d6]
class Movie--><rect fill="#FEFECE" filter="url(#fercdh3hm9gyf)" height="48" id="Movie" style="stroke: #A80036; stroke-width: 1.5;" width="67" x="337.5" y="57"/><ellipse cx="352.5" cy="73" fill="#ADD1B2" rx="11" ry="11" style="stroke: #A80036; stroke-width: 1.0;"/><path d="M355.4688,78.6406 Q354.8906,78.9375 354.25,79.0781 Q353.6094,79.2344 352.9063,79.2344 Q350.4063,79.2344 349.0781,77.5938 Q347.7656,75.9375 347.7656,72.8125 Q347.7656,69.6875 349.0781,68.0313 Q350.4063,66.375 352.9063,66.375 Q353.6094,66.375 354.25,66.5313 Q354.9063,66.6875 355.4688,66.9844 L355.4688,69.7031 Q354.8438,69.125 354.25,68.8594 Q353.6563,68.5781 353.0313,68.5781 Q351.6875,68.5781 351,69.6563 Q350.3125,70.7188 350.3125,72.8125 Q350.3125,74.9063 351,75.9844 Q351.6875,77.0469 353.0313,77.0469 Q353.6563,77.0469 354.25,76.7813 Q354.8438,76.5 355.4688,75.9219 L355.4688,78.6406 Z "/><text fill="#000000" font-family="sans-serif" font-size="12" lengthAdjust="spacingAndGlyphs" textLength="35" x="366.5" y="77.1543">Movie</text><line style="stroke: #A80036; stroke-width: 1.5;" x1="338.5" x2="403.5" y1="89" y2="89"/><line style="stroke: #A80036; stroke-width: 1.5;" x1="338.5" x2="403.5" y1="97" y2="97"/><!--MD5=[9022e2192881f166c529fc3ae75dec7b]
class TV--><rect fill="#FEFECE" filter="url(#fercdh3hm9gyf)" height="60.8047" id="TV" style="stroke: #A80036; stroke-width: 1.5;" width="137" x="496.5" y="50.5"/><ellipse cx="553.25" cy="66.5" fill="#ADD1B2" rx="11" ry="11" style="stroke: #A80036; stroke-width: 1.0;"/><path d="M556.2188,72.1406 Q555.6406,72.4375 555,72.5781 Q554.3594,72.7344 553.6563,72.7344 Q551.1563,72.7344 549.8281,71.0938 Q548.5156,69.4375 548.5156,66.3125 Q548.5156,63.1875 549.8281,61.5313 Q551.1563,59.875 553.6563,59.875 Q554.3594,59.875 555,60.0313 Q555.6563,60.1875 556.2188,60.4844 L556.2188,63.2031 Q555.5938,62.625 555,62.3594 Q554.4063,62.0781 553.7813,62.0781 Q552.4375,62.0781 551.75,63.1563 Q551.0625,64.2188 551.0625,66.3125 Q551.0625,68.4063 551.75,69.4844 Q552.4375,70.5469 553.7813,70.5469 Q554.4063,70.5469 555,70.2813 Q555.5938,70 556.2188,69.4219 L556.2188,72.1406 Z "/><text fill="#000000" font-family="sans-serif" font-size="12" lengthAdjust="spacingAndGlyphs" textLength="15" x="573.75" y="70.6543">TV</text><line style="stroke: #A80036; stroke-width: 1.5;" x1="497.5" x2="632.5" y1="82.5" y2="82.5"/><text fill="#000000" font-family="sans-serif" font-size="11" lengthAdjust="spacingAndGlyphs" textLength="125" x="502.5" y="96.7104">+EndDate: LocalDate?</text><line style="stroke: #A80036; stroke-width: 1.5;" x1="497.5" x2="632.5" y1="103.3047" y2="103.3047"/><!--MD5=[2916714cae8f0462c1096d4fd55ce4c3]
class Season--><rect fill="#FEFECE" filter="url(#fercdh3hm9gyf)" height="117.9609" id="Season" style="stroke: #A80036; stroke-width: 1.5;" width="199" x="493.5" y="246"/><ellipse cx="565.25" cy="264.9688" fill="#ADD1B2" rx="11" ry="11" style="stroke: #A80036; stroke-width: 1.0;"/><path d="M568.2188,270.6094 Q567.6406,270.9063 567,271.0469 Q566.3594,271.2031 565.6563,271.2031 Q563.1563,271.2031 561.8281,269.5625 Q560.5156,267.9063 560.5156,264.7813 Q560.5156,261.6563 561.8281,260 Q563.1563,258.3438 565.6563,258.3438 Q566.3594,258.3438 567,258.5 Q567.6563,258.6563 568.2188,258.9531 L568.2188,261.6719 Q567.5938,261.0938 567,260.8281 Q566.4063,260.5469 565.7813,260.5469 Q564.4375,260.5469 563.75,261.625 Q563.0625,262.6875 563.0625,264.7813 Q563.0625,266.875 563.75,267.9531 Q564.4375,269.0156 565.7813,269.0156 Q566.4063,269.0156 567,268.75 Q567.5938,268.4688 568.2188,267.8906 L568.2188,270.6094 Z "/><text fill="#000000" font-family="sans-serif" font-size="12" font-style="italic" lengthAdjust="spacingAndGlyphs" textLength="50" x="584.25" y="262.1387">«Entity»</text><text fill="#000000" font-family="sans-serif" font-size="12" lengthAdjust="spacingAndGlyphs" textLength="47" x="585.75" y="276.1074">Season</text><line style="stroke: #A80036; stroke-width: 1.5;" x1="494.5" x2="691.5" y1="283.9375" y2="283.9375"/><text fill="#000000" font-family="sans-serif" font-size="11" lengthAdjust="spacingAndGlyphs" textLength="54" x="499.5" y="298.1479">+Id: UUID</text><text fill="#000000" font-family="sans-serif" font-size="11" lengthAdjust="spacingAndGlyphs" textLength="119" x="499.5" y="310.9526">+SeasonNumber: int</text><text fill="#000000" font-family="sans-serif" font-size="11" lengthAdjust="spacingAndGlyphs" textLength="145" x="499.5" y="323.7573">+Episode: List&lt;Episode&gt;</text><text fill="#000000" font-family="sans-serif" font-size="11" lengthAdjust="spacingAndGlyphs" textLength="187" x="499.5" y="336.562">+OriginalReleaseDate: LocalDate</text><text fill="#000000" font-family="sans-serif" font-size="11" lengthAdjust="spacingAndGlyphs" textLength="80" x="499.5" y="349.3667">+Title: string?</text><line style="stroke: #A80036; stroke-width: 1.5;" x1="494.5" x2="691.5" y1="355.9609" y2="355.9609"/><!--MD5=[89f1af135d226d270851fb7756972918]
class Episode--><rect fill="#FEFECE" filter="url(#fercdh3hm9gyf)" height="117.9609" id="Episode" style="stroke: #A80036; stroke-width: 1.5;" width="133" x="526.5" y="456"/><ellipse cx="564.45" cy="474.9688" fill="#ADD1B2" rx="11" ry="11" style="stroke: #A80036; stroke-width: 1.0;"/><path d="M567.4188,480.6094 Q566.8406,480.9063 566.2,481.0469 Q565.5594,481.2031 564.8563,481.2031 Q562.3563,481.2031 561.0281,479.5625 Q559.7156,477.9063 559.7156,474.7813 Q559.7156,471.6563 561.0281,470 Q562.3563,468.3438 564.8563,468.3438 Q565.5594,468.3438 566.2,468.5 Q566.8563,468.6563 567.4188,468.9531 L567.4188,471.6719 Q566.7938,471.0938 566.2,470.8281 Q565.6063,470.5469 564.9813,470.5469 Q563.6375,470.5469 562.95,471.625 Q562.2625,472.6875 562.2625,474.7813 Q562.2625,476.875 562.95,477.9531 Q563.6375,479.0156 564.9813,479.0156 Q565.6063,479.0156 566.2,478.75 Q566.7938,478.4688 567.4188,477.8906 L567.4188,480.6094 Z "/><text fill="#000000" font-family="sans-serif" font-size="12" font-style="italic" lengthAdjust="spacingAndGlyphs" textLength="50" x="583.55" y="472.1387">«Entity»</text><text fill="#000000" font-family="sans-serif" font-size="12" lengthAdjust="spacingAndGlyphs" textLength="50" x="583.55" y="486.1074">Episode</text><line style="stroke: #A80036; stroke-width: 1.5;" x1="527.5" x2="658.5" y1="493.9375" y2="493.9375"/><text fill="#000000" font-family="sans-serif" font-size="11" lengthAdjust="spacingAndGlyphs" textLength="54" x="532.5" y="508.1479">+Id: UUID</text><text fill="#000000" font-family="sans-serif" font-size="11" lengthAdjust="spacingAndGlyphs" textLength="121" x="532.5" y="520.9526">+EpisodeNumber: int</text><text fill="#000000" font-family="sans-serif" font-size="11" lengthAdjust="spacingAndGlyphs" textLength="113" x="532.5" y="533.7573">+AirDate: LocalDate</text><text fill="#000000" font-family="sans-serif" font-size="11" lengthAdjust="spacingAndGlyphs" textLength="121" x="532.5" y="546.562">+RuntimeMinutes: int</text><text fill="#000000" font-family="sans-serif" font-size="11" lengthAdjust="spacingAndGlyphs" textLength="80" x="532.5" y="559.3667">+Title: string?</text><line style="stroke: #A80036; stroke-width: 1.5;" x1="527.5" x2="658.5" y1="565.9609" y2="565.9609"/><!--MD5=[55a6f80882d3cd7368bedd1107f01aad]
class AudioTrack--><rect fill="#FEFECE" filter="url(#fercdh3hm9gyf)" height="79.5469" id="AudioTrack" style="stroke: #A80036; stroke-width: 1.5;" width="117" x="834.5" y="41"/><ellipse cx="849.95" cy="59.9688" fill="#ADD1B2" rx="11" ry="11" style="stroke: #A80036; stroke-width: 1.0;"/><path d="M852.9188,65.6094 Q852.3406,65.9063 851.7,66.0469 Q851.0594,66.2031 850.3563,66.2031 Q847.8563,66.2031 846.5281,64.5625 Q845.2156,62.9063 845.2156,59.7813 Q845.2156,56.6563 846.5281,55 Q847.8563,53.3438 850.3563,53.3438 Q851.0594,53.3438 851.7,53.5 Q852.3563,53.6563 852.9188,53.9531 L852.9188,56.6719 Q852.2938,56.0938 851.7,55.8281 Q851.1063,55.5469 850.4813,55.5469 Q849.1375,55.5469 848.45,56.625 Q847.7625,57.6875 847.7625,59.7813 Q847.7625,61.875 848.45,62.9531 Q849.1375,64.0156 850.4813,64.0156 Q851.1063,64.0156 851.7,63.75 Q852.2938,63.4688 852.9188,62.8906 L852.9188,65.6094 Z "/><text fill="#000000" font-family="sans-serif" font-size="12" font-style="italic" lengthAdjust="spacingAndGlyphs" textLength="88" x="862.05" y="57.1387">«ValueObject»</text><text fill="#000000" font-family="sans-serif" font-size="12" lengthAdjust="spacingAndGlyphs" textLength="69" x="871.55" y="71.1074">AudioTrack</text><line style="stroke: #A80036; stroke-width: 1.5;" x1="835.5" x2="950.5" y1="78.9375" y2="78.9375"/><text fill="#000000" font-family="sans-serif" font-size="11" lengthAdjust="spacingAndGlyphs" textLength="105" x="840.5" y="93.1479">+Language: string</text><text fill="#000000" font-family="sans-serif" font-size="11" lengthAdjust="spacingAndGlyphs" textLength="90" x="840.5" y="105.9526">+Format: string</text><line style="stroke: #A80036; stroke-width: 1.5;" x1="835.5" x2="950.5" y1="112.5469" y2="112.5469"/><!--MD5=[9ad4f954b28ad54f2491927702a17c0b]
reverse link MediaWork to Contribution--><path d="M342,409.05 C342,430.04 342,451.09 342,468.76 " fill="none" id="MediaWork&lt;-Contribution" style="stroke: #A80036; stroke-width: 1.0;"/><polygon fill="#A80036" points="342,396.02,338,402.02,342,408.02,346,402.02,342,396.02" style="stroke: #A80036; stroke-width: 1.0;"/><text fill="#000000" font-family="sans-serif" font-size="13" lengthAdjust="spacingAndGlyphs" textLength="8" x="333.6813" y="415.9436">1</text><text fill="#000000" font-family="sans-serif" font-size="13" lengthAdjust="spacingAndGlyphs" textLength="23" x="317.3109" y="457.9178">1..*</text><!--MD5=[72246856af6937c3268263d759065537]
link Movie to MediaWork--><path d="M367.95,105.34 C365.14,126.83 360.77,160.35 356.4,193.78 " fill="none" id="Movie-&gt;MediaWork" style="stroke: #A80036; stroke-width: 1.0;"/><polygon fill="none" points="363.3,194.99,353.77,213.91,349.42,193.18,363.3,194.99" style="stroke: #A80036; stroke-width: 1.0;"/><!--MD5=[5cfdab32e7fdab8dd7cdb1fe4a097602]
link TV to MediaWork--><path d="M534.93,111.94 C512.04,134.72 479.09,167.53 446.88,199.59 " fill="none" id="TV-&gt;MediaWork" style="stroke: #A80036; stroke-width: 1.0;"/><polygon fill="none" points="451.77,204.6,432.66,213.75,441.9,194.68,451.77,204.6" style="stroke: #A80036; stroke-width: 1.0;"/><!--MD5=[ff064e4e2613780c041fbf5360d2bb00]
reverse link Season to Episode--><path d="M593,377.3 C593,402.9 593,431.44 593,455.8 " fill="none" id="Season&lt;-Episode" style="stroke: #A80036; stroke-width: 1.0;"/><polygon fill="#A80036" points="593,364.22,589,370.22,593,376.22,597,370.22,593,364.22" style="stroke: #A80036; stroke-width: 1.0;"/><text fill="#000000" font-family="sans-serif" font-size="13" lengthAdjust="spacingAndGlyphs" textLength="8" x="584.5375" y="384.0113">1</text><text fill="#000000" font-family="sans-serif" font-size="13" lengthAdjust="spacingAndGlyphs" textLength="23" x="568.5984" y="444.7483">1..*</text><!--MD5=[214de68e22dbb54cfb3bb7ba7775e660]
reverse link TV to Season--><path d="M570.46,125.29 C574.8,159.69 580.91,208.13 585.67,245.9 " fill="none" id="TV&lt;-Season" style="stroke: #A80036; stroke-width: 1.0;"/><polygon fill="#A80036" points="568.78,111.94,565.563,118.3938,570.283,123.8455,573.5,117.3917,568.78,111.94" style="stroke: #A80036; stroke-width: 1.0;"/><text fill="#000000" font-family="sans-serif" font-size="13" lengthAdjust="spacingAndGlyphs" textLength="8" x="560.7381" y="131.3658">1</text><text fill="#000000" font-family="sans-serif" font-size="13" lengthAdjust="spacingAndGlyphs" textLength="23" x="560.3751" y="234.8605">1..*</text><!--MD5=[01a7798377e19bc297c33cb0ccb0c6f1]
@startuml
skinparam classAttributeIconSize 0

abstract class MediaWork <<AggregateRoot>> {
    +Id: UUID
    +Title: string
    +OriginalReleaseDate: LocalDate
    -_contributions: List<Contribution>
    #_creatorRoles: List<ContributorRole>
    - -
    +AddContribution(id, role): void
    +RemoveContribution(id): void
    +AddEdition(id): void
    +RemoveEdition(id): void
    +IsCreatorRole(role): bool
}

note top of MediaWork
Invariant:
- Must have at least one Contribution
  where concrete MediaWork considers Role
  a creator (member of _creatorRoles)
- Cannot remove last creator
- Cannot remove Edition if MediaCopy
  exists referencing it (cross-aggregate
  constraint, enforce in application
  layer)
end note

class Contribution <<Entity>> {
    +Id: UUID
    +ContributorId: UUID
    +Role: ContributorRole
}

class ContributorRole <<ValueObject>> {
    +Name: string
}

MediaWork "1" *- - "1..*" Contribution

class Movie

Movie - -|> MediaWork

class TV {
    +EndDate: LocalDate?
}

TV - -|> MediaWork

class Season <<Entity>> {
    +Id: UUID
    +SeasonNumber: int
    +Episode: List<Episode>
    +OriginalReleaseDate: LocalDate
    +Title: string?
}

class Episode <<Entity>> {
    +Id: UUID
    +EpisodeNumber: int
    +AirDate: LocalDate
    +RuntimeMinutes: int
    +Title: string?
}

Season "1" *- - "1..*" Episode
TV "1" *- - "1..*" Season

class AudioTrack <<ValueObject>> {
    +Language: string
    +Format: string
}

@enduml

PlantUML version 1.2020.02(Sun Mar 01 10:22:07 UTC 2020)
(GPL source distribution)
Java Runtime: OpenJDK Runtime Environment
JVM: OpenJDK 64-Bit Server VM
Java Version: 17.0.18+8
Operating System: Linux
Default Encoding: UTF-8
Language: en
Country: null
--></g></svg>