<?xml version="1.0" encoding="UTF-8" standalone="no"?><svg xmlns="http://www.w3.org/2000/svg" xmlns:xlink="http://www.w3.org/1999/xlink" contentScriptType="application/ecmascript" contentStyleType="text/css" height="844px" preserveAspectRatio="none" style="width:984px;height:844px;" version="1.1" viewBox="0 0 984 844" width="984px" zoomAndPan="magnify"><defs><filter height="300%" id="f1ahgxge6amodf" width="300%" x="-1" y="-1"><feGaussianBlur result="blurOut" stdDeviation="2.0"/><feColorMatrix in="blurOut" result="blurOut2" type="matrix" values="0 0 0 0 0 0 0 0 0 0 0 0 0 0 0 0 0 0 .4 0"/><feOffset dx="4.0" dy="4.0" in="blurOut2" result="blurOut3"/><feBlend in="SourceGraphic" in2="blurOut3" mode="normal"/></filter></defs><g><!--MD5=[c3dd83c4944f050787f4b644933234ea]
class MediaWork--><rect fill="#FEFECE" filter="url(#f1ahgxge6amodf)" height="181.9844" id="MediaWork" style="stroke: #A80036; stroke-width: 1.5;" width="233" x="236.5" y="214"/><ellipse cx="296.25" cy="232.9688" fill="#A9DCDF" rx="11" ry="11" style="stroke: #A80036; stroke-width: 1.0;"/><path d="M296.3594,228.3125 L295.2031,233.3906 L297.5313,233.3906 L296.3594,228.3125 Z M294.875,226.0781 L297.8594,226.0781 L301.2188,238.4688 L298.7656,238.4688 L298,235.4063 L294.7188,235.4063 L293.9688,238.4688 L291.5313,238.4688 L294.875,226.0781 Z "/><text fill="#000000" font-family="sans-serif" font-size="12" font-style="italic" lengthAdjust="spacingAndGlyphs" textLength="109" x="314.75" y="230.1387">«AggregateRoot»</text><text fill="#000000" font-family="sans-serif" font-size="12" font-style="italic" lengthAdjust="spacingAndGlyphs" textLength="69" x="334.75" y="244.1074">MediaWork</text><line style="stroke: #A80036; stroke-width: 1.5;" x1="237.5" x2="468.5" y1="251.9375" y2="251.9375"/><text fill="#000000" font-family="sans-serif" font-size="11" lengthAdjust="spacingAndGlyphs" textLength="54" x="242.5" y="266.1479">+Id: UUID</text><text fill="#000000" font-family="sans-serif" font-size="11" lengthAdjust="spacingAndGlyphs" textLength="74" x="242.5" y="278.9526">+Title: string</text><text fill="#000000" font-family="sans-serif" font-size="11" lengthAdjust="spacingAndGlyphs" textLength="187" x="242.5" y="291.7573">+OriginalReleaseDate: LocalDate</text><text fill="#000000" font-family="sans-serif" font-size="11" lengthAdjust="spacingAndGlyphs" textLength="199" x="242.5" y="304.562">-_contributions: List&lt;Contribution&gt;</text><text fill="#000000" font-family="sans-serif" font-size="11" lengthAdjust="spacingAndGlyphs" textLength="221" x="242.5" y="317.3667">#_creatorRoles: List&lt;ContributorRole&gt;</text><line style="stroke: #A80036; stroke-width: 1.0;" x1="237.5" x2="468.5" y1="323.9609" y2="323.9609"/><text fill="#000000" font-family="sans-serif" font-size="11" lengthAdjust="spacingAndGlyphs" textLength="178" x="242.5" y="338.1714">+AddContribution(id, role): void</text><text fill="#000000" font-family="sans-serif" font-size="11" lengthAdjust="spacingAndGlyphs" textLength="172" x="242.5" y="350.9761">+RemoveContribution(id): void</text><text fill="#000000" font-family="sans-serif" font-size="11" lengthAdjust="spacingAndGlyphs" textLength="117" x="242.5" y="363.7808">+AddEdition(id): void</text><text fill="#000000" font-family="sans-serif" font-size="11" lengthAdjust="spacingAndGlyphs" textLength="141" x="242.5" y="376.5854">+RemoveEdition(id): void</text><text fill="#000000" font-family="sans-serif" font-size="11" lengthAdjust="spacingAndGlyphs" textLength="148" x="242.5" y="389.3901">+IsCreatorRole(role): bool</text><path d="M6,8 L6,154.1953 A0,0 0 0 0 6,154.1953 L214.61,154.1953 L271.99,213.62 L222.61,154.1953 L302,154.1953 A0,0 0 0 0 302,154.1953 L302,18 L292,8 L6,8 A0,0 0 0 0 6,8 " fill="#FBFB77" filter="url(#f1ahgxge6amodf)" style="stroke: #A80036; stroke-width: 1.0;"/><path d="M292,8 L292,18 L302,18 L292,8 " fill="#FBFB77" style="stroke: #A80036; stroke-width: 1.0;"/><text fill="#000000" font-family="sans-serif" font-size="13" lengthAdjust="spacingAndGlyphs" textLength="59" x="12" y="25.0669">Invariant:</text><text fill="#000000" font-family="sans-serif" font-size="13" lengthAdjust="spacingAndGlyphs" textLength="237" x="12" y="40.1997">- Must have at least one Contribution</text><text fill="#000000" font-family="sans-serif" font-size="13" lengthAdjust="spacingAndGlyphs" textLength="267" x="20" y="55.3325">where concrete MediaWork considers Role</text><text fill="#000000" font-family="sans-serif" font-size="13" lengthAdjust="spacingAndGlyphs" textLength="234" x="20" y="70.4653">a creator (member of _creatorRoles)</text><text fill="#000000" font-family="sans-serif" font-size="13" lengthAdjust="spacingAndGlyphs" textLength="185" x="12" y="85.5981">- Cannot remove last creator</text><text fill="#000000" font-family="sans-serif" font-size="13" lengthAdjust="spacingAndGlyphs" textLength="240" x="12" y="100.731">- Cannot remove Edition if MediaCopy</text><text fill="#000000" font-family="sans-serif" font-size="13" lengthAdjust="spacingAndGlyphs" textLength="239" x="20" y="115.8638">exists referencing it (cross-aggregate</text><text fill="#000000" font-family="sans-serif" font-size="13" lengthAdjust="spacingAndGlyphs" textLength="208" x="20" y="130.9966">constraint, enforce in application</text><text fill="#000000" font-family="sans-serif" font-size="13" lengthAdjust="spacingAndGlyphs" textLength="36" x="20" y="146.1294">layer)</text><!--MD5=[fd7366e9f96236d9aa60dcc04f2b83e5]
class Content--><rect fill="#FEFECE" filter="url(#f1ahgxge6amodf)" height="79.5469" id="Content" style="stroke: #A80036; stroke-width: 1.5;" width="92" x="261" y="462"/><ellipse cx="280.5" cy="480.9688" fill="#A9DCDF" rx="11" ry="11" style="stroke: #A80036; stroke-width: 1.0;"/><path d="M280.6094,476.3125 L279.4531,481.3906 L281.7813,481.3906 L280.6094,476.3125 Z M279.125,474.0781 L282.1094,474.0781 L285.4688,486.4688 L283.0156,486.4688 L282.25,483.4063 L278.9688,483.4063 L278.2188,486.4688 L275.7813,486.4688 L279.125,474.0781 Z "/><text fill="#000000" font-family="sans-serif" font-size="12" font-style="italic" lengthAdjust="spacingAndGlyphs" textLength="50" x="295.5" y="478.1387">«Entity»</text><text fill="#000000" font-family="sans-serif" font-size="12" font-style="italic" lengthAdjust="spacingAndGlyphs" textLength="50" x="295.5" y="492.1074">Content</text><line style="stroke: #A80036; stroke-width: 1.5;" x1="262" x2="352" y1="499.9375" y2="499.9375"/><text fill="#000000" font-family="sans-serif" font-size="11" lengthAdjust="spacingAndGlyphs" textLength="54" x="267" y="514.1479">+Id: UUID</text><text fill="#000000" font-family="sans-serif" font-size="11" lengthAdjust="spacingAndGlyphs" textLength="80" x="267" y="526.9526">+Title?: string</text><line style="stroke: #A80036; stroke-width: 1.5;" x1="262" x2="352" y1="533.5469" y2="533.5469"/><!--MD5=[3c893a87b169a1198e1c24a9eb7838ab]
class BonusContent--><rect fill="#FEFECE" filter="url(#f1ahgxge6amodf)" height="73.6094" id="BonusContent" style="stroke: #A80036; stroke-width: 1.5;" width="181" x="42.5" y="614"/><ellipse cx="84.5" cy="630" fill="#ADD1B2" rx="11" ry="11" style="stroke: #A80036; stroke-width: 1.0;"/><path d="M87.4688,635.6406 Q86.8906,635.9375 86.25,636.0781 Q85.6094,636.2344 84.9063,636.2344 Q82.4063,636.2344 81.0781,634.5938 Q79.7656,632.9375 79.7656,629.8125 Q79.7656,626.6875 81.0781,625.0313 Q82.4063,623.375 84.9063,623.375 Q85.6094,623.375 86.25,623.5313 Q86.9063,623.6875 87.4688,623.9844 L87.4688,626.7031 Q86.8438,626.125 86.25,625.8594 Q85.6563,625.5781 85.0313,625.5781 Q83.6875,625.5781 83,626.6563 Q82.3125,627.7188 82.3125,629.8125 Q82.3125,631.9063 83,632.9844 Q83.6875,634.0469 85.0313,634.0469 Q85.6563,634.0469 86.25,633.7813 Q86.8438,633.5 87.4688,632.9219 L87.4688,635.6406 Z "/><text fill="#000000" font-family="sans-serif" font-size="12" lengthAdjust="spacingAndGlyphs" textLength="89" x="104.5" y="634.1543">BonusContent</text><line style="stroke: #A80036; stroke-width: 1.5;" x1="43.5" x2="222.5" y1="646" y2="646"/><text fill="#000000" font-family="sans-serif" font-size="11" lengthAdjust="spacingAndGlyphs" textLength="169" x="48.5" y="660.2104">+SubtitleTracks: List&lt;string&gt;</text><text fill="#000000" font-family="sans-serif" font-size="11" lengthAdjust="spacingAndGlyphs" textLength="127" x="48.5" y="673.0151">+RuntimeMinutes?: int</text><line style="stroke: #A80036; stroke-width: 1.5;" x1="43.5" x2="222.5" y1="679.6094" y2="679.6094"/><!--MD5=[0330879a1a385efee19ba3488ed490fa]
class Contribution--><rect fill="#FEFECE" filter="url(#f1ahgxge6amodf)" height="92.3516" id="Contribution" style="stroke: #A80036; stroke-width: 1.5;" width="141" x="388.5" y="456"/><ellipse cx="417.9" cy="474.9688" fill="#ADD1B2" rx="11" ry="11" style="stroke: #A80036; stroke-width: 1.0;"/><path d="M420.8688,480.6094 Q420.2906,480.9063 419.65,481.0469 Q419.0094,481.2031 418.3063,481.2031 Q415.8063,481.2031 414.4781,479.5625 Q413.1656,477.9063 413.1656,474.7813 Q413.1656,471.6563 414.4781,470 Q415.8063,468.3438 418.3063,468.3438 Q419.0094,468.3438 419.65,468.5 Q420.3063,468.6563 420.8688,468.9531 L420.8688,471.6719 Q420.2438,471.0938 419.65,470.8281 Q419.0563,470.5469 418.4313,470.5469 Q417.0875,470.5469 416.4,471.625 Q415.7125,472.6875 415.7125,474.7813 Q415.7125,476.875 416.4,477.9531 Q417.0875,479.0156 418.4313,479.0156 Q419.0563,479.0156 419.65,478.75 Q420.2438,478.4688 420.8688,477.8906 L420.8688,480.6094 Z "/><text fill="#000000" font-family="sans-serif" font-size="12" font-style="italic" lengthAdjust="spacingAndGlyphs" textLength="50" x="448.6" y="472.1387">«Entity»</text><text fill="#000000" font-family="sans-serif" font-size="12" lengthAdjust="spacingAndGlyphs" textLength="77" x="435.1" y="486.1074">Contribution</text><line style="stroke: #A80036; stroke-width: 1.5;" x1="389.5" x2="528.5" y1="493.9375" y2="493.9375"/><text fill="#000000" font-family="sans-serif" font-size="11" lengthAdjust="spacingAndGlyphs" textLength="54" x="394.5" y="508.1479">+Id: UUID</text><text fill="#000000" font-family="sans-serif" font-size="11" lengthAdjust="spacingAndGlyphs" textLength="118" x="394.5" y="520.9526">+ContributorId: UUID</text><text fill="#000000" font-family="sans-serif" font-size="11" lengthAdjust="spacingAndGlyphs" textLength="129" x="394.5" y="533.7573">+Role: ContributorRole</text><line style="stroke: #A80036; stroke-width: 1.5;" x1="389.5" x2="528.5" y1="540.3516" y2="540.3516"/><!--MD5=[dd2cb4d4918b743616ebdb19b9302e86]
class ContributorRole--><rect fill="#FEFECE" filter="url(#f1ahgxge6amodf)" height="66.7422" id="ContributorRole" style="stroke: #A80036; stroke-width: 1.5;" width="130" x="691" y="47.5"/><ellipse cx="706" cy="66.4688" fill="#ADD1B2" rx="11" ry="11" style="stroke: #A80036; stroke-width: 1.0;"/><path d="M708.9688,72.1094 Q708.3906,72.4063 707.75,72.5469 Q707.1094,72.7031 706.4063,72.7031 Q703.9063,72.7031 702.5781,71.0625 Q701.2656,69.4063 701.2656,66.2813 Q701.2656,63.1563 702.5781,61.5 Q703.9063,59.8438 706.4063,59.8438 Q707.1094,59.8438 707.75,60 Q708.4063,60.1563 708.9688,60.4531 L708.9688,63.1719 Q708.3438,62.5938 707.75,62.3281 Q707.1563,62.0469 706.5313,62.0469 Q705.1875,62.0469 704.5,63.125 Q703.8125,64.1875 703.8125,66.2813 Q703.8125,68.375 704.5,69.4531 Q705.1875,70.5156 706.5313,70.5156 Q707.1563,70.5156 707.75,70.25 Q708.3438,69.9688 708.9688,69.3906 L708.9688,72.1094 Z "/><text fill="#000000" font-family="sans-serif" font-size="12" font-style="italic" lengthAdjust="spacingAndGlyphs" textLength="88" x="725" y="63.6387">«ValueObject»</text><text fill="#000000" font-family="sans-serif" font-size="12" lengthAdjust="spacingAndGlyphs" textLength="98" x="720" y="77.6074">ContributorRole</text><line style="stroke: #A80036; stroke-width: 1.5;" x1="692" x2="820" y1="85.4375" y2="85.4375"/><text fill="#000000" font-family="sans-serif" font-size="11" lengthAdjust="spacingAndGlyphs" textLength="83" x="697" y="99.6479">+Name: string</text><line style="stroke: #A80036; stroke-width: 1.5;" x1="692" x2="820" y1="106.2422" y2="106.2422"/><!--MD5=[e69084ab16b022bdbef99762ea85e9d6]
class Movie--><rect fill="#FEFECE" filter="url(#f1ahgxge6amodf)" height="48" id="Movie" style="stroke: #A80036; stroke-width: 1.5;" width="67" x="337.5" y="57"/><ellipse cx="352.5" cy="73" fill="#ADD1B2" rx="11" ry="11" style="stroke: #A80036; stroke-width: 1.0;"/><path d="M355.4688,78.6406 Q354.8906,78.9375 354.25,79.0781 Q353.6094,79.2344 352.9063,79.2344 Q350.4063,79.2344 349.0781,77.5938 Q347.7656,75.9375 347.7656,72.8125 Q347.7656,69.6875 349.0781,68.0313 Q350.4063,66.375 352.9063,66.375 Q353.6094,66.375 354.25,66.5313 Q354.9063,66.6875 355.4688,66.9844 L355.4688,69.7031 Q354.8438,69.125 354.25,68.8594 Q353.6563,68.5781 353.0313,68.5781 Q351.6875,68.5781 351,69.6563 Q350.3125,70.7188 350.3125,72.8125 Q350.3125,74.9063 351,75.9844 Q351.6875,77.0469 353.0313,77.0469 Q353.6563,77.0469 354.25,76.7813 Q354.8438,76.5 355.4688,75.9219 L355.4688,78.6406 Z "/><text fill="#000000" font-family="sans-serif" font-size="12" lengthAdjust="spacingAndGlyphs" textLength="35" x="366.5" y="77.1543">Movie</text><line style="stroke: #A80036; stroke-width: 1.5;" x1="338.5" x2="403.5" y1="89" y2="89"/><line style="stroke: #A80036; stroke-width: 1.5;" x1="338.5" x2="403.5" y1="97" y2="97"/><!--MD5=[a3e3a20c167400c5a69541ac8e73098a]
class MovieFeature--><rect fill="#FEFECE" filter="url(#f1ahgxge6amodf)" height="86.4141" id="MovieFeature" style="stroke: #A80036; stroke-width: 1.5;" width="181" x="258.5" y="608"/><ellipse cx="302.75" cy="624" fill="#ADD1B2" rx="11" ry="11" style="stroke: #A80036; stroke-width: 1.0;"/><path d="M305.7188,629.6406 Q305.1406,629.9375 304.5,630.0781 Q303.8594,630.2344 303.1563,630.2344 Q300.6563,630.2344 299.3281,628.5938 Q298.0156,626.9375 298.0156,623.8125 Q298.0156,620.6875 299.3281,619.0313 Q300.6563,617.375 303.1563,617.375 Q303.8594,617.375 304.5,617.5313 Q305.1563,617.6875 305.7188,617.9844 L305.7188,620.7031 Q305.0938,620.125 304.5,619.8594 Q303.9063,619.5781 303.2813,619.5781 Q301.9375,619.5781 301.25,620.6563 Q300.5625,621.7188 300.5625,623.8125 Q300.5625,625.9063 301.25,626.9844 Q301.9375,628.0469 303.2813,628.0469 Q303.9063,628.0469 304.5,627.7813 Q305.0938,627.5 305.7188,626.9219 L305.7188,629.6406 Z "/><text fill="#000000" font-family="sans-serif" font-size="12" lengthAdjust="spacingAndGlyphs" textLength="84" x="323.25" y="628.1543">MovieFeature</text><line style="stroke: #A80036; stroke-width: 1.5;" x1="259.5" x2="438.5" y1="640" y2="640"/><text fill="#000000" font-family="sans-serif" font-size="11" lengthAdjust="spacingAndGlyphs" textLength="121" x="264.5" y="654.2104">+RuntimeMinutes: int</text><text fill="#000000" font-family="sans-serif" font-size="11" lengthAdjust="spacingAndGlyphs" textLength="141" x="264.5" y="667.0151">+CutType: MovieCutType</text><text fill="#000000" font-family="sans-serif" font-size="11" lengthAdjust="spacingAndGlyphs" textLength="169" x="264.5" y="679.8198">+SubtitleTracks: List&lt;string&gt;</text><line style="stroke: #A80036; stroke-width: 1.5;" x1="259.5" x2="438.5" y1="686.4141" y2="686.4141"/><!--MD5=[fd1ab5964d81ee6222a89ca3733c37c4]
class MovieCutType--><rect fill="#FEFECE" filter="url(#f1ahgxge6amodf)" height="112.0234" id="MovieCutType" style="stroke: #A80036; stroke-width: 1.5;" width="117" x="856.5" y="25"/><ellipse cx="871.5" cy="41" fill="#EB937F" rx="11" ry="11" style="stroke: #A80036; stroke-width: 1.0;"/><path d="M875.6094,47 L867.8906,47 L867.8906,34.6094 L875.6094,34.6094 L875.6094,36.7656 L870.3438,36.7656 L870.3438,39.4375 L875.1094,39.4375 L875.1094,41.5938 L870.3438,41.5938 L870.3438,44.8438 L875.6094,44.8438 L875.6094,47 Z "/><text fill="#000000" font-family="sans-serif" font-size="12" lengthAdjust="spacingAndGlyphs" textLength="85" x="885.5" y="45.1543">MovieCutType</text><line style="stroke: #A80036; stroke-width: 1.5;" x1="857.5" x2="972.5" y1="57" y2="57"/><text fill="#000000" font-family="sans-serif" font-size="11" lengthAdjust="spacingAndGlyphs" textLength="56" x="862.5" y="71.2104">Theatrical</text><text fill="#000000" font-family="sans-serif" font-size="11" lengthAdjust="spacingAndGlyphs" textLength="52" x="862.5" y="84.0151">Extended</text><text fill="#000000" font-family="sans-serif" font-size="11" lengthAdjust="spacingAndGlyphs" textLength="64" x="862.5" y="96.8198">DirectorCut</text><text fill="#000000" font-family="sans-serif" font-size="11" lengthAdjust="spacingAndGlyphs" textLength="45" x="862.5" y="109.6245">FinalCut</text><text fill="#000000" font-family="sans-serif" font-size="11" lengthAdjust="spacingAndGlyphs" textLength="32" x="862.5" y="122.4292">Other</text><line style="stroke: #A80036; stroke-width: 1.5;" x1="857.5" x2="972.5" y1="129.0234" y2="129.0234"/><!--MD5=[9022e2192881f166c529fc3ae75dec7b]
class TV--><rect fill="#FEFECE" filter="url(#f1ahgxge6amodf)" height="73.6094" id="TV" style="stroke: #A80036; stroke-width: 1.5;" width="181" x="474.5" y="44"/><ellipse cx="553.25" cy="60" fill="#ADD1B2" rx="11" ry="11" style="stroke: #A80036; stroke-width: 1.0;"/><path d="M556.2188,65.6406 Q555.6406,65.9375 555,66.0781 Q554.3594,66.2344 553.6563,66.2344 Q551.1563,66.2344 549.8281,64.5938 Q548.5156,62.9375 548.5156,59.8125 Q548.5156,56.6875 549.8281,55.0313 Q551.1563,53.375 553.6563,53.375 Q554.3594,53.375 555,53.5313 Q555.6563,53.6875 556.2188,53.9844 L556.2188,56.7031 Q555.5938,56.125 555,55.8594 Q554.4063,55.5781 553.7813,55.5781 Q552.4375,55.5781 551.75,56.6563 Q551.0625,57.7188 551.0625,59.8125 Q551.0625,61.9063 551.75,62.9844 Q552.4375,64.0469 553.7813,64.0469 Q554.4063,64.0469 555,63.7813 Q555.5938,63.5 556.2188,62.9219 L556.2188,65.6406 Z "/><text fill="#000000" font-family="sans-serif" font-size="12" lengthAdjust="spacingAndGlyphs" textLength="15" x="573.75" y="64.1543">TV</text><line style="stroke: #A80036; stroke-width: 1.5;" x1="475.5" x2="654.5" y1="76" y2="76"/><text fill="#000000" font-family="sans-serif" font-size="11" lengthAdjust="spacingAndGlyphs" textLength="169" x="480.5" y="90.2104">+SubtitleTracks: List&lt;string&gt;</text><text fill="#000000" font-family="sans-serif" font-size="11" lengthAdjust="spacingAndGlyphs" textLength="125" x="480.5" y="103.0151">+EndDate: LocalDate?</text><line style="stroke: #A80036; stroke-width: 1.5;" x1="475.5" x2="654.5" y1="109.6094" y2="109.6094"/><!--MD5=[2916714cae8f0462c1096d4fd55ce4c3]
class Season--><rect fill="#FEFECE" filter="url(#f1ahgxge6amodf)" height="105.1563" id="Season" style="stroke: #A80036; stroke-width: 1.5;" width="156" x="505" y="252.5"/><ellipse cx="555.25" cy="271.4688" fill="#ADD1B2" rx="11" ry="11" style="stroke: #A80036; stroke-width: 1.0;"/><path d="M558.2188,277.1094 Q557.6406,277.4063 557,277.5469 Q556.3594,277.7031 555.6563,277.7031 Q553.1563,277.7031 551.8281,276.0625 Q550.5156,274.4063 550.5156,271.2813 Q550.5156,268.1563 551.8281,266.5 Q553.1563,264.8438 555.6563,264.8438 Q556.3594,264.8438 557,265 Q557.6563,265.1563 558.2188,265.4531 L558.2188,268.1719 Q557.5938,267.5938 557,267.3281 Q556.4063,267.0469 555.7813,267.0469 Q554.4375,267.0469 553.75,268.125 Q553.0625,269.1875 553.0625,271.2813 Q553.0625,273.375 553.75,274.4531 Q554.4375,275.5156 555.7813,275.5156 Q556.4063,275.5156 557,275.25 Q557.5938,274.9688 558.2188,274.3906 L558.2188,277.1094 Z "/><text fill="#000000" font-family="sans-serif" font-size="12" font-style="italic" lengthAdjust="spacingAndGlyphs" textLength="50" x="574.25" y="268.6387">«Entity»</text><text fill="#000000" font-family="sans-serif" font-size="12" lengthAdjust="spacingAndGlyphs" textLength="47" x="575.75" y="282.6074">Season</text><line style="stroke: #A80036; stroke-width: 1.5;" x1="506" x2="660" y1="290.4375" y2="290.4375"/><text fill="#000000" font-family="sans-serif" font-size="11" lengthAdjust="spacingAndGlyphs" textLength="54" x="511" y="304.6479">+Id: UUID</text><text fill="#000000" font-family="sans-serif" font-size="11" lengthAdjust="spacingAndGlyphs" textLength="119" x="511" y="317.4526">+SeasonNumber: int</text><text fill="#000000" font-family="sans-serif" font-size="11" lengthAdjust="spacingAndGlyphs" textLength="144" x="511" y="330.2573">+EpisodeIds: List&lt;UUID&gt;</text><text fill="#000000" font-family="sans-serif" font-size="11" lengthAdjust="spacingAndGlyphs" textLength="80" x="511" y="343.062">+Title: string?</text><line style="stroke: #A80036; stroke-width: 1.5;" x1="506" x2="660" y1="349.6563" y2="349.6563"/><!--MD5=[89f1af135d226d270851fb7756972918]
class Episode--><rect fill="#FEFECE" filter="url(#f1ahgxge6amodf)" height="86.4141" id="Episode" style="stroke: #A80036; stroke-width: 1.5;" width="133" x="474.5" y="608"/><ellipse cx="512.45" cy="624" fill="#ADD1B2" rx="11" ry="11" style="stroke: #A80036; stroke-width: 1.0;"/><path d="M515.4188,629.6406 Q514.8406,629.9375 514.2,630.0781 Q513.5594,630.2344 512.8563,630.2344 Q510.3563,630.2344 509.0281,628.5938 Q507.7156,626.9375 507.7156,623.8125 Q507.7156,620.6875 509.0281,619.0313 Q510.3563,617.375 512.8563,617.375 Q513.5594,617.375 514.2,617.5313 Q514.8563,617.6875 515.4188,617.9844 L515.4188,620.7031 Q514.7938,620.125 514.2,619.8594 Q513.6063,619.5781 512.9813,619.5781 Q511.6375,619.5781 510.95,620.6563 Q510.2625,621.7188 510.2625,623.8125 Q510.2625,625.9063 510.95,626.9844 Q511.6375,628.0469 512.9813,628.0469 Q513.6063,628.0469 514.2,627.7813 Q514.7938,627.5 515.4188,626.9219 L515.4188,629.6406 Z "/><text fill="#000000" font-family="sans-serif" font-size="12" lengthAdjust="spacingAndGlyphs" textLength="50" x="531.55" y="628.1543">Episode</text><line style="stroke: #A80036; stroke-width: 1.5;" x1="475.5" x2="606.5" y1="640" y2="640"/><text fill="#000000" font-family="sans-serif" font-size="11" lengthAdjust="spacingAndGlyphs" textLength="121" x="480.5" y="654.2104">+EpisodeNumber: int</text><text fill="#000000" font-family="sans-serif" font-size="11" lengthAdjust="spacingAndGlyphs" textLength="113" x="480.5" y="667.0151">+AirDate: LocalDate</text><text fill="#000000" font-family="sans-serif" font-size="11" lengthAdjust="spacingAndGlyphs" textLength="121" x="480.5" y="679.8198">+RuntimeMinutes: int</text><line style="stroke: #A80036; stroke-width: 1.5;" x1="475.5" x2="606.5" y1="686.4141" y2="686.4141"/><!--MD5=[55a6f80882d3cd7368bedd1107f01aad]
class AudioTrack--><rect fill="#FEFECE" filter="url(#f1ahgxge6amodf)" height="79.5469" id="AudioTrack" style="stroke: #A80036; stroke-width: 1.5;" width="117" x="290.5" y="754"/><ellipse cx="305.95" cy="772.9688" fill="#ADD1B2" rx="11" ry="11" style="stroke: #A80036; stroke-width: 1.0;"/><path d="M308.9188,778.6094 Q308.3406,778.9063 307.7,779.0469 Q307.0594,779.2031 306.3563,779.2031 Q303.8563,779.2031 302.5281,777.5625 Q301.2156,775.9063 301.2156,772.7813 Q301.2156,769.6563 302.5281,768 Q303.8563,766.3438 306.3563,766.3438 Q307.0594,766.3438 307.7,766.5 Q308.3563,766.6563 308.9188,766.9531 L308.9188,769.6719 Q308.2938,769.0938 307.7,768.8281 Q307.1063,768.5469 306.4813,768.5469 Q305.1375,768.5469 304.45,769.625 Q303.7625,770.6875 303.7625,772.7813 Q303.7625,774.875 304.45,775.9531 Q305.1375,777.0156 306.4813,777.0156 Q307.1063,777.0156 307.7,776.75 Q308.2938,776.4688 308.9188,775.8906 L308.9188,778.6094 Z "/><text fill="#000000" font-family="sans-serif" font-size="12" font-style="italic" lengthAdjust="spacingAndGlyphs" textLength="88" x="318.05" y="770.1387">«ValueObject»</text><text fill="#000000" font-family="sans-serif" font-size="12" lengthAdjust="spacingAndGlyphs" textLength="69" x="327.55" y="784.1074">AudioTrack</text><line style="stroke: #A80036; stroke-width: 1.5;" x1="291.5" x2="406.5" y1="791.9375" y2="791.9375"/><text fill="#000000" font-family="sans-serif" font-size="11" lengthAdjust="spacingAndGlyphs" textLength="105" x="296.5" y="806.1479">+Language: string</text><text fill="#000000" font-family="sans-serif" font-size="11" lengthAdjust="spacingAndGlyphs" textLength="90" x="296.5" y="818.9526">+Format: string</text><line style="stroke: #A80036; stroke-width: 1.5;" x1="291.5" x2="406.5" y1="825.5469" y2="825.5469"/><!--MD5=[6bfd38223bfcf85fe0a1d8f856fb6bfe]
reverse link MediaWork to Content--><path d="M328.74,408.86 C324.27,427.78 319.87,446.43 316.21,461.96 " fill="none" id="MediaWork&lt;-Content" style="stroke: #A80036; stroke-width: 1.0;"/><polygon fill="#A80036" points="331.75,396.08,326.4781,401,328.992,407.7588,334.2639,402.8387,331.75,396.08" style="stroke: #A80036; stroke-width: 1.0;"/><text fill="#000000" font-family="sans-serif" font-size="13" lengthAdjust="spacingAndGlyphs" textLength="23" x="306.1402" y="416.0084">1..*</text><text fill="#000000" font-family="sans-serif" font-size="13" lengthAdjust="spacingAndGlyphs" textLength="23" x="292.8164" y="450.9063">0..*</text><!--MD5=[df3c8c8251ec8c1295657f2e13929cbe]
reverse link Content to BonusContent--><path d="M245.4,555.04 C222.38,574.49 196.76,596.13 175.8,613.84 " fill="none" id="Content&lt;-BonusContent" style="stroke: #A80036; stroke-width: 1.0;"/><polygon fill="none" points="241.03,549.57,260.83,542.01,250.07,560.26,241.03,549.57" style="stroke: #A80036; stroke-width: 1.0;"/><!--MD5=[9ad4f954b28ad54f2491927702a17c0b]
reverse link MediaWork to Contribution--><path d="M408.33,407.78 C417.51,424.67 426.6,441.39 434.49,455.91 " fill="none" id="MediaWork&lt;-Contribution" style="stroke: #A80036; stroke-width: 1.0;"/><polygon fill="#A80036" points="401.97,396.08,401.3189,403.2617,407.6977,406.6248,408.3488,399.4432,401.97,396.08" style="stroke: #A80036; stroke-width: 1.0;"/><text fill="#000000" font-family="sans-serif" font-size="13" lengthAdjust="spacingAndGlyphs" textLength="8" x="397.5535" y="416.0084">1</text><text fill="#000000" font-family="sans-serif" font-size="13" lengthAdjust="spacingAndGlyphs" textLength="23" x="406.201" y="445.0898">1..*</text><!--MD5=[72246856af6937c3268263d759065537]
link Movie to MediaWork--><path d="M369.11,105.34 C367.37,126.83 364.65,160.35 361.94,193.78 " fill="none" id="Movie-&gt;MediaWork" style="stroke: #A80036; stroke-width: 1.0;"/><polygon fill="none" points="368.9,194.55,360.3,213.91,354.94,193.41,368.9,194.55" style="stroke: #A80036; stroke-width: 1.0;"/><!--MD5=[843201cdd5707f3cfd7d0b09d0dfc210]
reverse link Content to MovieFeature--><path d="M323.67,561.35 C328.12,576.93 332.85,593.46 336.99,607.97 " fill="none" id="Content&lt;-MovieFeature" style="stroke: #A80036; stroke-width: 1.0;"/><polygon fill="none" points="316.91,563.16,318.14,542.01,330.37,559.31,316.91,563.16" style="stroke: #A80036; stroke-width: 1.0;"/><!--MD5=[5cfdab32e7fdab8dd7cdb1fe4a097602]
link TV to MediaWork--><path d="M530.47,118.16 C509.29,140.34 480.99,169.98 453.21,199.06 " fill="none" id="TV-&gt;MediaWork" style="stroke: #A80036; stroke-width: 1.0;"/><polygon fill="none" points="458.1,204.08,439.22,213.71,447.97,194.41,458.1,204.08" style="stroke: #A80036; stroke-width: 1.0;"/><!--MD5=[6bc6b0c8103ec52055356ebbbc751922]
reverse link Content to Episode--><path d="M369.91,547.29 C370.27,547.53 370.64,547.76 371,548 C404.47,569.77 442.51,592.75 474.11,611.38 " fill="none" id="Content&lt;-Episode" style="stroke: #A80036; stroke-width: 1.0;"/><polygon fill="none" points="365.93,553.05,353.22,536.09,373.73,541.42,365.93,553.05" style="stroke: #A80036; stroke-width: 1.0;"/><!--MD5=[4d548d6d5149e0dc4380066bbbe7ebb9]
link Season to Episode--><path d="M576.71,357.5 C568.61,423.86 554.64,538.31 546.79,602.61 " fill="none" id="Season-&gt;Episode" style="stroke: #A80036; stroke-width: 1.0; stroke-dasharray: 7.0,7.0;"/><polygon fill="#A80036" points="546.14,607.91,551.1925,599.4559,546.7408,602.9462,543.2504,598.4946,546.14,607.91" style="stroke: #A80036; stroke-width: 1.0;"/><!--MD5=[214de68e22dbb54cfb3bb7ba7775e660]
reverse link TV to Season--><path d="M568.99,131.24 C571.9,167.12 575.83,215.62 578.79,252.1 " fill="none" id="TV&lt;-Season" style="stroke: #A80036; stroke-width: 1.0;"/><polygon fill="#A80036" points="567.93,118.16,564.4312,124.4654,568.9058,130.1203,572.4047,123.8149,567.93,118.16" style="stroke: #A80036; stroke-width: 1.0;"/><text fill="#000000" font-family="sans-serif" font-size="13" lengthAdjust="spacingAndGlyphs" textLength="8" x="559.7528" y="137.6671">1</text><text fill="#000000" font-family="sans-serif" font-size="13" lengthAdjust="spacingAndGlyphs" textLength="23" x="553.7772" y="241.4266">1..*</text><!--MD5=[9532df3b124b50ee0c75c21d8887e8e6]
reverse link MovieFeature to AudioTrack--><path d="M349,707.51 C349,722.92 349,739.34 349,753.62 " fill="none" id="MovieFeature&lt;-AudioTrack" style="stroke: #A80036; stroke-width: 1.0;"/><polygon fill="#A80036" points="349,694.3,345,700.3,349,706.3,353,700.3,349,694.3" style="stroke: #A80036; stroke-width: 1.0;"/><text fill="#000000" font-family="sans-serif" font-size="13" lengthAdjust="spacingAndGlyphs" textLength="8" x="340.3625" y="714.4407">1</text><text fill="#000000" font-family="sans-serif" font-size="13" lengthAdjust="spacingAndGlyphs" textLength="23" x="324.0953" y="742.8053">0..*</text><!--MD5=[65911db2e8f039ecfb158936d129579e]
reverse link Episode to AudioTrack--><path d="M473.14,701.84 C449.82,718.96 424.08,737.86 402.12,753.99 " fill="none" id="Episode&lt;-AudioTrack" style="stroke: #A80036; stroke-width: 1.0;"/><polygon fill="#A80036" points="483.65,694.11,476.4463,694.4372,473.9778,701.2126,481.1814,700.8854,483.65,694.11" style="stroke: #A80036; stroke-width: 1.0;"/><text fill="#000000" font-family="sans-serif" font-size="13" lengthAdjust="spacingAndGlyphs" textLength="8" x="465.4889" y="714.5359">1</text><text fill="#000000" font-family="sans-serif" font-size="13" lengthAdjust="spacingAndGlyphs" textLength="23" x="386.2734" y="742.9415">0..*</text><!--MD5=[58bd367ebc165485965c44386fc72130]
reverse link BonusContent to AudioTrack--><path d="M199.24,695.24 C228.34,714.24 262.23,736.36 290.4,754.75 " fill="none" id="BonusContent&lt;-AudioTrack" style="stroke: #A80036; stroke-width: 1.0;"/><polygon fill="#A80036" points="188.34,688.13,191.1742,694.7608,198.385,694.6949,195.5508,688.0641,188.34,688.13" style="stroke: #A80036; stroke-width: 1.0;"/><text fill="#000000" font-family="sans-serif" font-size="13" lengthAdjust="spacingAndGlyphs" textLength="8" x="188.8432" y="707.6321">1</text><text fill="#000000" font-family="sans-serif" font-size="13" lengthAdjust="spacingAndGlyphs" textLength="23" x="259.2947" y="746.4453">0..*</text><!--MD5=[993f14f2948c89edb1ce2d7a903782af]
@startuml
skinparam classAttributeIconSize 0

abstract class MediaWork <<AggregateRoot>> {
    +Id: UUID
    +Title: string
    +OriginalReleaseDate: LocalDate
    -_contributions: List<Contribution>
    #_creatorRoles: List<ContributorRole>
    - -
    +AddContribution(id, role): void
    +RemoveContribution(id): void
    +AddEdition(id): void
    +RemoveEdition(id): void
    +IsCreatorRole(role): bool
}

note top of MediaWork
Invariant:
- Must have at least one Contribution
  where concrete MediaWork considers Role
  a creator (member of _creatorRoles)
- Cannot remove last creator
- Cannot remove Edition if MediaCopy
  exists referencing it (cross-aggregate
  constraint, enforce in application
  layer)
end note

abstract class Content <<Entity>> {
    +Id: UUID
    +Title?: string
}

MediaWork "1..*" *- - "0..*" Content

class BonusContent {
    +SubtitleTracks: List<string>
    +RuntimeMinutes?: int
}

Content <|- - BonusContent

class Contribution <<Entity>> {
    +Id: UUID
    +ContributorId: UUID
    +Role: ContributorRole
}

class ContributorRole <<ValueObject>> {
    +Name: string
}

MediaWork "1" *- - "1..*" Contribution

class Movie {}

Movie - -|> MediaWork

class MovieFeature {
    +RuntimeMinutes: int
    +CutType: MovieCutType
    +SubtitleTracks: List<string>
}

enum MovieCutType {
    Theatrical
    Extended
    DirectorCut
    FinalCut
    Other
}

Content <|- - MovieFeature

class TV {
    +SubtitleTracks: List<string>
    +EndDate: LocalDate?
}

TV - -|> MediaWork

class Season <<Entity>> {
    +Id: UUID
    +SeasonNumber: int
    +EpisodeIds: List<UUID>
    +Title: string?
}

class Episode {
    +EpisodeNumber: int
    +AirDate: LocalDate
    +RuntimeMinutes: int
}

Content <|- - Episode
Season ..> Episode

TV "1" *- - "1..*" Season

class AudioTrack <<ValueObject>> {
    +Language: string
    +Format: string
}

MovieFeature "1" *- - "0..*" AudioTrack
Episode "1" *- - "0..*" AudioTrack
BonusContent "1" *- - "0..*" AudioTrack

@enduml

PlantUML version 1.2020.02(Sun Mar 01 10:22:07 UTC 2020)
(GPL source distribution)
Java Runtime: OpenJDK Runtime Environment
JVM: OpenJDK 64-Bit Server VM
Java Version: 17.0.18+8
Operating System: Linux
Default Encoding: UTF-8
Language: en
Country: null
--></g></svg>