<?xml version="1.0" encoding="UTF-8" standalone="no"?><svg xmlns="http://www.w3.org/2000/svg" xmlns:xlink="http://www.w3.org/1999/xlink" contentScriptType="application/ecmascript" contentStyleType="text/css" height="397px" preserveAspectRatio="none" style="width:283px;height:397px;" version="1.1" viewBox="0 0 283 397" width="283px" zoomAndPan="magnify"><defs><filter height="300%" id="fkvncrp18xjld" width="300%" x="-1" y="-1"><feGaussianBlur result="blurOut" stdDeviation="2.0"/><feColorMatrix in="blurOut" result="blurOut2" type="matrix" values="0 0 0 0 0 0 0 0 0 0 0 0 0 0 0 0 0 0 .4 0"/><feOffset dx="4.0" dy="4.0" in="blurOut2" result="blurOut3"/><feBlend in="SourceGraphic" in2="blurOut3" mode="normal"/></filter></defs><g><!--MD5=[45bc2ed3d1efce51d6e5e8f0ca873e96]
class CollectionGroup--><rect fill="#FEFECE" filter="url(#fkvncrp18xjld)" height="79.5469" id="CollectionGroup" style="stroke: #A80036; stroke-width: 1.5;" width="137" x="70" y="8"/><ellipse cx="85" cy="26.9688" fill="#ADD1B2" rx="11" ry="11" style="stroke: #A80036; stroke-width: 1.0;"/><path d="M87.9688,32.6094 Q87.3906,32.9063 86.75,33.0469 Q86.1094,33.2031 85.4063,33.2031 Q82.9063,33.2031 81.5781,31.5625 Q80.2656,29.9063 80.2656,26.7813 Q80.2656,23.6563 81.5781,22 Q82.9063,20.3438 85.4063,20.3438 Q86.1094,20.3438 86.75,20.5 Q87.4063,20.6563 87.9688,20.9531 L87.9688,23.6719 Q87.3438,23.0938 86.75,22.8281 Q86.1563,22.5469 85.5313,22.5469 Q84.1875,22.5469 83.5,23.625 Q82.8125,24.6875 82.8125,26.7813 Q82.8125,28.875 83.5,29.9531 Q84.1875,31.0156 85.5313,31.0156 Q86.1563,31.0156 86.75,30.75 Q87.3438,30.4688 87.9688,29.8906 L87.9688,32.6094 Z "/><text fill="#000000" font-family="sans-serif" font-size="12" font-style="italic" lengthAdjust="spacingAndGlyphs" textLength="109" x="97" y="24.1387">«AggregateRoot»</text><text fill="#000000" font-family="sans-serif" font-size="12" lengthAdjust="spacingAndGlyphs" textLength="99" x="102" y="38.1074">CollectionGroup</text><line style="stroke: #A80036; stroke-width: 1.5;" x1="71" x2="206" y1="45.9375" y2="45.9375"/><text fill="#000000" font-family="sans-serif" font-size="11" lengthAdjust="spacingAndGlyphs" textLength="54" x="76" y="60.1479">+Id: UUID</text><text fill="#000000" font-family="sans-serif" font-size="11" lengthAdjust="spacingAndGlyphs" textLength="74" x="76" y="72.9526">+Title: string</text><line style="stroke: #A80036; stroke-width: 1.5;" x1="71" x2="206" y1="79.5469" y2="79.5469"/><!--MD5=[1544e71f2cb389b780e9180c5c78ad2d]
class CollectionGroupMembership--><rect fill="#FEFECE" filter="url(#fkvncrp18xjld)" height="92.3516" id="CollectionGroupMembership" style="stroke: #A80036; stroke-width: 1.5;" width="207" x="35" y="148"/><ellipse cx="50" cy="166.9688" fill="#ADD1B2" rx="11" ry="11" style="stroke: #A80036; stroke-width: 1.0;"/><path d="M52.9688,172.6094 Q52.3906,172.9063 51.75,173.0469 Q51.1094,173.2031 50.4063,173.2031 Q47.9063,173.2031 46.5781,171.5625 Q45.2656,169.9063 45.2656,166.7813 Q45.2656,163.6563 46.5781,162 Q47.9063,160.3438 50.4063,160.3438 Q51.1094,160.3438 51.75,160.5 Q52.4063,160.6563 52.9688,160.9531 L52.9688,163.6719 Q52.3438,163.0938 51.75,162.8281 Q51.1563,162.5469 50.5313,162.5469 Q49.1875,162.5469 48.5,163.625 Q47.8125,164.6875 47.8125,166.7813 Q47.8125,168.875 48.5,169.9531 Q49.1875,171.0156 50.5313,171.0156 Q51.1563,171.0156 51.75,170.75 Q52.3438,170.4688 52.9688,169.8906 L52.9688,172.6094 Z "/><text fill="#000000" font-family="sans-serif" font-size="12" font-style="italic" lengthAdjust="spacingAndGlyphs" textLength="50" x="126.5" y="164.1387">«Entity»</text><text fill="#000000" font-family="sans-serif" font-size="12" lengthAdjust="spacingAndGlyphs" textLength="175" x="64" y="178.1074">CollectionGroupMembership</text><line style="stroke: #A80036; stroke-width: 1.5;" x1="36" x2="241" y1="185.9375" y2="185.9375"/><text fill="#000000" font-family="sans-serif" font-size="11" lengthAdjust="spacingAndGlyphs" textLength="54" x="41" y="200.1479">+Id: UUID</text><text fill="#000000" font-family="sans-serif" font-size="11" lengthAdjust="spacingAndGlyphs" textLength="114" x="41" y="212.9526">+MediaWorkId: UUID</text><text fill="#000000" font-family="sans-serif" font-size="11" lengthAdjust="spacingAndGlyphs" textLength="85" x="41" y="225.7573">+SortIndex: int</text><line style="stroke: #A80036; stroke-width: 1.5;" x1="36" x2="241" y1="232.3516" y2="232.3516"/><path d="M6,300 L6,385.6641 A0,0 0 0 0 6,385.6641 L271,385.6641 A0,0 0 0 0 271,385.6641 L271,310 L261,300 L142.5,300 L138.5,240.3 L134.5,300 L6,300 A0,0 0 0 0 6,300 " fill="#FBFB77" filter="url(#fkvncrp18xjld)" style="stroke: #A80036; stroke-width: 1.0;"/><path d="M261,300 L261,310 L271,310 L261,300 " fill="#FBFB77" style="stroke: #A80036; stroke-width: 1.0;"/><text fill="#000000" font-family="sans-serif" font-size="13" lengthAdjust="spacingAndGlyphs" textLength="59" x="12" y="317.0669">Invariant:</text><text fill="#000000" font-family="sans-serif" font-size="13" lengthAdjust="spacingAndGlyphs" textLength="244" x="12" y="332.1997">- MediaWork can appear only once per</text><text fill="#000000" font-family="sans-serif" font-size="13" lengthAdjust="spacingAndGlyphs" textLength="101" x="20" y="347.3325">CollectionGroup</text><text fill="#000000" font-family="sans-serif" font-size="13" lengthAdjust="spacingAndGlyphs" textLength="226" x="12" y="362.4653">- SortIndex must be unique within a</text><text fill="#000000" font-family="sans-serif" font-size="13" lengthAdjust="spacingAndGlyphs" textLength="101" x="20" y="377.5981">CollectionGroup</text><!--MD5=[996c329a84fbff679e423f9789dbe47e]
reverse link CollectionGroup to CollectionGroupMembership--><path d="M138.5,101.8 C138.5,116.91 138.5,133.24 138.5,147.84 " fill="none" id="CollectionGroup&lt;-CollectionGroupMembership" style="stroke: #A80036; stroke-width: 1.0;"/><polygon fill="#A80036" points="138.5,88.35,134.5,94.35,138.5,100.35,142.5,94.35,138.5,88.35" style="stroke: #A80036; stroke-width: 1.0;"/><text fill="#000000" font-family="sans-serif" font-size="13" lengthAdjust="spacingAndGlyphs" textLength="8" x="129.9125" y="107.4879">1</text><text fill="#000000" font-family="sans-serif" font-size="13" lengthAdjust="spacingAndGlyphs" textLength="23" x="113.8109" y="137.0095">0..*</text><!--MD5=[a9cf23787f3614ec981ae663c0933b2a]
@startuml
skinparam classAttributeIconSize 0

class CollectionGroup <<AggregateRoot>> {
    +Id: UUID
    +Title: string
}

class CollectionGroupMembership <<Entity>> {
    +Id: UUID
    +MediaWorkId: UUID
    +SortIndex: int
}

note bottom of CollectionGroupMembership
Invariant:
- MediaWork can appear only once per
  CollectionGroup
- SortIndex must be unique within a
  CollectionGroup
end note

CollectionGroup "1" *- - "0..*" CollectionGroupMembership

@enduml

PlantUML version 1.2020.02(Sun Mar 01 10:22:07 UTC 2020)
(GPL source distribution)
Java Runtime: OpenJDK Runtime Environment
JVM: OpenJDK 64-Bit Server VM
Java Version: 17.0.18+8
Operating System: Linux
Default Encoding: UTF-8
Language: en
Country: null
--></g></svg>