<?xml version="1.0" encoding="UTF-8" standalone="no"?><svg xmlns="http://www.w3.org/2000/svg" xmlns:xlink="http://www.w3.org/1999/xlink" contentScriptType="application/ecmascript" contentStyleType="text/css" height="289px" preserveAspectRatio="none" style="width:319px;height:289px;" version="1.1" viewBox="0 0 319 289" width="319px" zoomAndPan="magnify"><defs><filter height="300%" id="f1cus4sgsb6aol" width="300%" x="-1" y="-1"><feGaussianBlur result="blurOut" stdDeviation="2.0"/><feColorMatrix in="blurOut" result="blurOut2" type="matrix" values="0 0 0 0 0 0 0 0 0 0 0 0 0 0 0 0 0 0 .4 0"/><feOffset dx="4.0" dy="4.0" in="blurOut2" result="blurOut3"/><feBlend in="SourceGraphic" in2="blurOut3" mode="normal"/></filter></defs><g><!--MD5=[148a3002404242a1fb9bf2331f66864f]
class MediaCopy--><rect fill="#FEFECE" filter="url(#f1cus4sgsb6aol)" height="130.7656" id="MediaCopy" style="stroke: #A80036; stroke-width: 1.5;" width="151" x="6" y="8"/><ellipse cx="27.3" cy="26.9688" fill="#ADD1B2" rx="11" ry="11" style="stroke: #A80036; stroke-width: 1.0;"/><path d="M30.2688,32.6094 Q29.6906,32.9063 29.05,33.0469 Q28.4094,33.2031 27.7063,33.2031 Q25.2063,33.2031 23.8781,31.5625 Q22.5656,29.9063 22.5656,26.7813 Q22.5656,23.6563 23.8781,22 Q25.2063,20.3438 27.7063,20.3438 Q28.4094,20.3438 29.05,20.5 Q29.7063,20.6563 30.2688,20.9531 L30.2688,23.6719 Q29.6438,23.0938 29.05,22.8281 Q28.4563,22.5469 27.8313,22.5469 Q26.4875,22.5469 25.8,23.625 Q25.1125,24.6875 25.1125,26.7813 Q25.1125,28.875 25.8,29.9531 Q26.4875,31.0156 27.8313,31.0156 Q28.4563,31.0156 29.05,30.75 Q29.6438,30.4688 30.2688,29.8906 L30.2688,32.6094 Z "/><text fill="#000000" font-family="sans-serif" font-size="12" font-style="italic" lengthAdjust="spacingAndGlyphs" textLength="109" x="40.7" y="24.1387">«AggregateRoot»</text><text fill="#000000" font-family="sans-serif" font-size="12" lengthAdjust="spacingAndGlyphs" textLength="67" x="61.7" y="38.1074">MediaCopy</text><line style="stroke: #A80036; stroke-width: 1.5;" x1="7" x2="156" y1="45.9375" y2="45.9375"/><text fill="#000000" font-family="sans-serif" font-size="11" lengthAdjust="spacingAndGlyphs" textLength="54" x="12" y="60.1479">+Id: UUID</text><text fill="#000000" font-family="sans-serif" font-size="11" lengthAdjust="spacingAndGlyphs" textLength="92" x="12" y="72.9526">+EditionId: UUID</text><text fill="#000000" font-family="sans-serif" font-size="11" lengthAdjust="spacingAndGlyphs" textLength="111" x="12" y="85.7573">+Location: Location</text><text fill="#000000" font-family="sans-serif" font-size="11" lengthAdjust="spacingAndGlyphs" textLength="114" x="12" y="98.562">+Notes: List&lt;Note&gt;</text><text fill="#000000" font-family="sans-serif" font-size="11" lengthAdjust="spacingAndGlyphs" textLength="139" x="12" y="111.3667">+DateAdded?: LocalDate</text><text fill="#000000" font-family="sans-serif" font-size="11" lengthAdjust="spacingAndGlyphs" textLength="127" x="12" y="124.1714">+CreatedAt: DateTime</text><line style="stroke: #A80036; stroke-width: 1.5;" x1="7" x2="156" y1="130.7656" y2="130.7656"/><!--MD5=[4f1f3706c1a355a8488e154afcaed5df]
class Location--><rect fill="#FEFECE" filter="url(#f1cus4sgsb6aol)" height="66.7422" id="Location" style="stroke: #A80036; stroke-width: 1.5;" width="116" x="192.5" y="40"/><ellipse cx="207.5" cy="58.9688" fill="#ADD1B2" rx="11" ry="11" style="stroke: #A80036; stroke-width: 1.0;"/><path d="M210.4688,64.6094 Q209.8906,64.9063 209.25,65.0469 Q208.6094,65.2031 207.9063,65.2031 Q205.4063,65.2031 204.0781,63.5625 Q202.7656,61.9063 202.7656,58.7813 Q202.7656,55.6563 204.0781,54 Q205.4063,52.3438 207.9063,52.3438 Q208.6094,52.3438 209.25,52.5 Q209.9063,52.6563 210.4688,52.9531 L210.4688,55.6719 Q209.8438,55.0938 209.25,54.8281 Q208.6563,54.5469 208.0313,54.5469 Q206.6875,54.5469 206,55.625 Q205.3125,56.6875 205.3125,58.7813 Q205.3125,60.875 206,61.9531 Q206.6875,63.0156 208.0313,63.0156 Q208.6563,63.0156 209.25,62.75 Q209.8438,62.4688 210.4688,61.8906 L210.4688,64.6094 Z "/><text fill="#000000" font-family="sans-serif" font-size="12" font-style="italic" lengthAdjust="spacingAndGlyphs" textLength="88" x="219.5" y="56.1387">«ValueObject»</text><text fill="#000000" font-family="sans-serif" font-size="12" lengthAdjust="spacingAndGlyphs" textLength="53" x="237" y="70.1074">Location</text><line style="stroke: #A80036; stroke-width: 1.5;" x1="193.5" x2="307.5" y1="77.9375" y2="77.9375"/><text fill="#000000" font-family="sans-serif" font-size="11" lengthAdjust="spacingAndGlyphs" textLength="83" x="198.5" y="92.1479">+Name: string</text><line style="stroke: #A80036; stroke-width: 1.5;" x1="193.5" x2="307.5" y1="98.7422" y2="98.7422"/><!--MD5=[5d3c9bb25b1b07c105e03cfa5bc0b7ee]
class Note--><rect fill="#FEFECE" filter="url(#f1cus4sgsb6aol)" height="79.5469" id="Note" style="stroke: #A80036; stroke-width: 1.5;" width="139" x="12" y="199"/><ellipse cx="37.35" cy="217.9688" fill="#ADD1B2" rx="11" ry="11" style="stroke: #A80036; stroke-width: 1.0;"/><path d="M40.3188,223.6094 Q39.7406,223.9063 39.1,224.0469 Q38.4594,224.2031 37.7563,224.2031 Q35.2563,224.2031 33.9281,222.5625 Q32.6156,220.9063 32.6156,217.7813 Q32.6156,214.6563 33.9281,213 Q35.2563,211.3438 37.7563,211.3438 Q38.4594,211.3438 39.1,211.5 Q39.7563,211.6563 40.3188,211.9531 L40.3188,214.6719 Q39.6938,214.0938 39.1,213.8281 Q38.5063,213.5469 37.8813,213.5469 Q36.5375,213.5469 35.85,214.625 Q35.1625,215.6875 35.1625,217.7813 Q35.1625,219.875 35.85,220.9531 Q36.5375,222.0156 37.8813,222.0156 Q38.5063,222.0156 39.1,221.75 Q39.6938,221.4688 40.3188,220.8906 L40.3188,223.6094 Z "/><text fill="#000000" font-family="sans-serif" font-size="12" font-style="italic" lengthAdjust="spacingAndGlyphs" textLength="88" x="51.65" y="215.1387">«ValueObject»</text><text fill="#000000" font-family="sans-serif" font-size="12" lengthAdjust="spacingAndGlyphs" textLength="30" x="80.65" y="229.1074">Note</text><line style="stroke: #A80036; stroke-width: 1.5;" x1="13" x2="150" y1="236.9375" y2="236.9375"/><text fill="#000000" font-family="sans-serif" font-size="11" lengthAdjust="spacingAndGlyphs" textLength="74" x="18" y="251.1479">+Text: string</text><text fill="#000000" font-family="sans-serif" font-size="11" lengthAdjust="spacingAndGlyphs" textLength="127" x="18" y="263.9526">+CreatedAt: DateTime</text><line style="stroke: #A80036; stroke-width: 1.5;" x1="13" x2="150" y1="270.5469" y2="270.5469"/><!--MD5=[07e4e16f15b61eddf53326128228f821]
link MediaCopy to Location--><!--MD5=[3d73fe65c06dcab68fac4f5778267488]
link MediaCopy to Note--><!--MD5=[f7a33cab4424bf8ba1fe8c37e2b4435a]
@startuml
skinparam classAttributeIconSize 0

class MediaCopy <<AggregateRoot>> {
    +Id: UUID
    +EditionId: UUID
    +Location: Location
    +Notes: List<Note>
    +DateAdded?: LocalDate
    +CreatedAt: DateTime
}

class Location <<ValueObject>> {
    +Name: string
}

class Note <<ValueObject>> {
    +Text: string
    +CreatedAt: DateTime
}

@enduml

PlantUML version 1.2020.02(Sun Mar 01 10:22:07 UTC 2020)
(GPL source distribution)
Java Runtime: OpenJDK Runtime Environment
JVM: OpenJDK 64-Bit Server VM
Java Version: 17.0.18+8
Operating System: Linux
Default Encoding: UTF-8
Language: en
Country: null
--></g></svg>