<?xml version="1.0" encoding="UTF-8" standalone="no"?><svg xmlns="http://www.w3.org/2000/svg" xmlns:xlink="http://www.w3.org/1999/xlink" contentScriptType="application/ecmascript" contentStyleType="text/css" height="1381px" preserveAspectRatio="none" style="width:689px;height:1381px;" version="1.1" viewBox="0 0 689 1381" width="689px" zoomAndPan="magnify"><defs><filter height="300%" id="f1m2crbriwtuu6" width="300%" x="-1" y="-1"><feGaussianBlur result="blurOut" stdDeviation="2.0"/><feColorMatrix in="blurOut" result="blurOut2" type="matrix" values="0 0 0 0 0 0 0 0 0 0 0 0 0 0 0 0 0 0 .4 0"/><feOffset dx="4.0" dy="4.0" in="blurOut2" result="blurOut3"/><feBlend in="SourceGraphic" in2="blurOut3" mode="normal"/></filter></defs><g><!--MD5=[c3dd83c4944f050787f4b644933234ea]
class MediaWork--><rect fill="#FEFECE" filter="url(#f1m2crbriwtuu6)" height="194.7891" id="MediaWork" style="stroke: #A80036; stroke-width: 1.5;" width="211" x="383" y="229"/><ellipse cx="431.75" cy="247.9688" fill="#ADD1B2" rx="11" ry="11" style="stroke: #A80036; stroke-width: 1.0;"/><path d="M434.7188,253.6094 Q434.1406,253.9063 433.5,254.0469 Q432.8594,254.2031 432.1563,254.2031 Q429.6563,254.2031 428.3281,252.5625 Q427.0156,250.9063 427.0156,247.7813 Q427.0156,244.6563 428.3281,243 Q429.6563,241.3438 432.1563,241.3438 Q432.8594,241.3438 433.5,241.5 Q434.1563,241.6563 434.7188,241.9531 L434.7188,244.6719 Q434.0938,244.0938 433.5,243.8281 Q432.9063,243.5469 432.2813,243.5469 Q430.9375,243.5469 430.25,244.625 Q429.5625,245.6875 429.5625,247.7813 Q429.5625,249.875 430.25,250.9531 Q430.9375,252.0156 432.2813,252.0156 Q432.9063,252.0156 433.5,251.75 Q434.0938,251.4688 434.7188,250.8906 L434.7188,253.6094 Z "/><text fill="#000000" font-family="sans-serif" font-size="12" font-style="italic" lengthAdjust="spacingAndGlyphs" textLength="109" x="450.25" y="245.1387">«AggregateRoot»</text><text fill="#000000" font-family="sans-serif" font-size="12" lengthAdjust="spacingAndGlyphs" textLength="68" x="470.75" y="259.1074">MediaWork</text><line style="stroke: #A80036; stroke-width: 1.5;" x1="384" x2="593" y1="266.9375" y2="266.9375"/><text fill="#000000" font-family="sans-serif" font-size="11" lengthAdjust="spacingAndGlyphs" textLength="54" x="389" y="281.1479">+Id: UUID</text><text fill="#000000" font-family="sans-serif" font-size="11" lengthAdjust="spacingAndGlyphs" textLength="74" x="389" y="293.9526">+Title: string</text><text fill="#000000" font-family="sans-serif" font-size="11" lengthAdjust="spacingAndGlyphs" textLength="120" x="389" y="306.7573">+Description?: string</text><text fill="#000000" font-family="sans-serif" font-size="11" lengthAdjust="spacingAndGlyphs" textLength="187" x="389" y="319.562">+OriginalReleaseDate: LocalDate</text><text fill="#000000" font-family="sans-serif" font-size="11" lengthAdjust="spacingAndGlyphs" textLength="156" x="389" y="332.3667">-_structure: MediaStructure</text><text fill="#000000" font-family="sans-serif" font-size="11" lengthAdjust="spacingAndGlyphs" textLength="199" x="389" y="345.1714">-_contributions: List&lt;Contribution&gt;</text><text fill="#000000" font-family="sans-serif" font-size="11" lengthAdjust="spacingAndGlyphs" textLength="142" x="389" y="357.9761">-_content: List&lt;Content&gt;</text><line style="stroke: #A80036; stroke-width: 1.0;" x1="384" x2="593" y1="364.5703" y2="364.5703"/><text fill="#000000" font-family="sans-serif" font-size="11" lengthAdjust="spacingAndGlyphs" textLength="178" x="389" y="378.7808">+AddContribution(id, role): void</text><text fill="#000000" font-family="sans-serif" font-size="11" lengthAdjust="spacingAndGlyphs" textLength="172" x="389" y="391.5854">+RemoveContribution(id): void</text><text fill="#000000" font-family="sans-serif" font-size="11" lengthAdjust="spacingAndGlyphs" textLength="155" x="389" y="404.3901">+AddContent(content): void</text><text fill="#000000" font-family="sans-serif" font-size="11" lengthAdjust="spacingAndGlyphs" textLength="147" x="389" y="417.1948">+RemoveContent(id): void</text><path d="M335.5,8 L335.5,169.3281 A0,0 0 0 0 335.5,169.3281 L484.5,169.3281 L488.5,228.68 L492.5,169.3281 L641.5,169.3281 A0,0 0 0 0 641.5,169.3281 L641.5,18 L631.5,8 L335.5,8 A0,0 0 0 0 335.5,8 " fill="#FBFB77" filter="url(#f1m2crbriwtuu6)" style="stroke: #A80036; stroke-width: 1.0;"/><path d="M631.5,8 L631.5,18 L641.5,18 L631.5,8 " fill="#FBFB77" style="stroke: #A80036; stroke-width: 1.0;"/><text fill="#000000" font-family="sans-serif" font-size="13" lengthAdjust="spacingAndGlyphs" textLength="59" x="341.5" y="25.0669">Invariant:</text><text fill="#000000" font-family="sans-serif" font-size="13" lengthAdjust="spacingAndGlyphs" textLength="254" x="341.5" y="40.1997">- Must have exactly one MediaStructure</text><text fill="#000000" font-family="sans-serif" font-size="13" lengthAdjust="spacingAndGlyphs" textLength="249" x="341.5" y="55.3325">- Structure defines the MediaWork type</text><text fill="#000000" font-family="sans-serif" font-size="13" lengthAdjust="spacingAndGlyphs" textLength="285" x="341.5" y="70.4653">- Must have at least one creator contribution</text><text fill="#000000" font-family="sans-serif" font-size="13" lengthAdjust="spacingAndGlyphs" textLength="185" x="341.5" y="85.5981">- Cannot remove last creator</text><text fill="#000000" font-family="sans-serif" font-size="13" lengthAdjust="spacingAndGlyphs" textLength="281" x="341.5" y="100.731">- Cannot remove Edition if MediaCopy exists</text><text fill="#000000" font-family="sans-serif" font-size="13" lengthAdjust="spacingAndGlyphs" textLength="203" x="349.5" y="115.8638">referencing it (cross-aggregate)</text><text fill="#000000" font-family="sans-serif" font-size="13" lengthAdjust="spacingAndGlyphs" textLength="267" x="341.5" y="130.9966">- All Features / Episodes must reference a</text><text fill="#000000" font-family="sans-serif" font-size="13" lengthAdjust="spacingAndGlyphs" textLength="256" x="349.5" y="146.1294">Content that is a PlayableContent inside</text><text fill="#000000" font-family="sans-serif" font-size="13" lengthAdjust="spacingAndGlyphs" textLength="136" x="349.5" y="161.2622">MediaWork._contents</text><!--MD5=[d72d8c3c7ec9fd0574988ac0e6c89053]
class MediaStructure--><rect fill="#FEFECE" filter="url(#f1m2crbriwtuu6)" height="79.5469" id="MediaStructure" style="stroke: #A80036; stroke-width: 1.5;" width="160" x="222.5" y="490"/><ellipse cx="251.9" cy="508.9688" fill="#A9DCDF" rx="11" ry="11" style="stroke: #A80036; stroke-width: 1.0;"/><path d="M252.0094,504.3125 L250.8531,509.3906 L253.1813,509.3906 L252.0094,504.3125 Z M250.525,502.0781 L253.5094,502.0781 L256.8688,514.4688 L254.4156,514.4688 L253.65,511.4063 L250.3688,511.4063 L249.6188,514.4688 L247.1813,514.4688 L250.525,502.0781 Z "/><text fill="#000000" font-family="sans-serif" font-size="12" font-style="italic" lengthAdjust="spacingAndGlyphs" textLength="50" x="292.1" y="506.1387">«Entity»</text><text fill="#000000" font-family="sans-serif" font-size="12" font-style="italic" lengthAdjust="spacingAndGlyphs" textLength="96" x="269.1" y="520.1074">MediaStructure</text><line style="stroke: #A80036; stroke-width: 1.5;" x1="223.5" x2="381.5" y1="527.9375" y2="527.9375"/><line style="stroke: #A80036; stroke-width: 1.0;" x1="223.5" x2="381.5" y1="535.9375" y2="535.9375"/><text fill="#000000" font-family="sans-serif" font-size="11" lengthAdjust="spacingAndGlyphs" textLength="139" x="228.5" y="550.1479">+Type(): MediaWorkType</text><text fill="#000000" font-family="sans-serif" font-size="11" lengthAdjust="spacingAndGlyphs" textLength="148" x="228.5" y="562.9526">+IsCreatorRole(role): bool</text><!--MD5=[3993688172772fa3ddb685ff7da315ec]
class MediaWorkType--><rect fill="#FEFECE" filter="url(#f1m2crbriwtuu6)" height="73.6094" id="MediaWorkType" style="stroke: #A80036; stroke-width: 1.5;" width="129" x="6" y="51.5"/><ellipse cx="21" cy="67.5" fill="#EB937F" rx="11" ry="11" style="stroke: #A80036; stroke-width: 1.0;"/><path d="M25.1094,73.5 L17.3906,73.5 L17.3906,61.1094 L25.1094,61.1094 L25.1094,63.2656 L19.8438,63.2656 L19.8438,65.9375 L24.6094,65.9375 L24.6094,68.0938 L19.8438,68.0938 L19.8438,71.3438 L25.1094,71.3438 L25.1094,73.5 Z "/><text fill="#000000" font-family="sans-serif" font-size="12" lengthAdjust="spacingAndGlyphs" textLength="97" x="35" y="71.6543">MediaWorkType</text><line style="stroke: #A80036; stroke-width: 1.5;" x1="7" x2="134" y1="83.5" y2="83.5"/><text fill="#000000" font-family="sans-serif" font-size="11" lengthAdjust="spacingAndGlyphs" textLength="32" x="12" y="97.7104">Movie</text><text fill="#000000" font-family="sans-serif" font-size="11" lengthAdjust="spacingAndGlyphs" textLength="14" x="12" y="110.5151">TV</text><line style="stroke: #A80036; stroke-width: 1.5;" x1="7" x2="134" y1="117.1094" y2="117.1094"/><!--MD5=[0330879a1a385efee19ba3488ed490fa]
class Contribution--><rect fill="#FEFECE" filter="url(#f1m2crbriwtuu6)" height="92.3516" id="Contribution" style="stroke: #A80036; stroke-width: 1.5;" width="141" x="418" y="484"/><ellipse cx="447.4" cy="502.9688" fill="#ADD1B2" rx="11" ry="11" style="stroke: #A80036; stroke-width: 1.0;"/><path d="M450.3688,508.6094 Q449.7906,508.9063 449.15,509.0469 Q448.5094,509.2031 447.8063,509.2031 Q445.3063,509.2031 443.9781,507.5625 Q442.6656,505.9063 442.6656,502.7813 Q442.6656,499.6563 443.9781,498 Q445.3063,496.3438 447.8063,496.3438 Q448.5094,496.3438 449.15,496.5 Q449.8063,496.6563 450.3688,496.9531 L450.3688,499.6719 Q449.7438,499.0938 449.15,498.8281 Q448.5563,498.5469 447.9313,498.5469 Q446.5875,498.5469 445.9,499.625 Q445.2125,500.6875 445.2125,502.7813 Q445.2125,504.875 445.9,505.9531 Q446.5875,507.0156 447.9313,507.0156 Q448.5563,507.0156 449.15,506.75 Q449.7438,506.4688 450.3688,505.8906 L450.3688,508.6094 Z "/><text fill="#000000" font-family="sans-serif" font-size="12" font-style="italic" lengthAdjust="spacingAndGlyphs" textLength="50" x="478.1" y="500.1387">«Entity»</text><text fill="#000000" font-family="sans-serif" font-size="12" lengthAdjust="spacingAndGlyphs" textLength="77" x="464.6" y="514.1074">Contribution</text><line style="stroke: #A80036; stroke-width: 1.5;" x1="419" x2="558" y1="521.9375" y2="521.9375"/><text fill="#000000" font-family="sans-serif" font-size="11" lengthAdjust="spacingAndGlyphs" textLength="54" x="424" y="536.1479">+Id: UUID</text><text fill="#000000" font-family="sans-serif" font-size="11" lengthAdjust="spacingAndGlyphs" textLength="118" x="424" y="548.9526">+ContributorId: UUID</text><text fill="#000000" font-family="sans-serif" font-size="11" lengthAdjust="spacingAndGlyphs" textLength="129" x="424" y="561.7573">+Role: ContributorRole</text><line style="stroke: #A80036; stroke-width: 1.5;" x1="419" x2="558" y1="568.3516" y2="568.3516"/><!--MD5=[dd2cb4d4918b743616ebdb19b9302e86]
class ContributorRole--><rect fill="#FEFECE" filter="url(#f1m2crbriwtuu6)" height="66.7422" id="ContributorRole" style="stroke: #A80036; stroke-width: 1.5;" width="130" x="170.5" y="55"/><ellipse cx="185.5" cy="73.9688" fill="#ADD1B2" rx="11" ry="11" style="stroke: #A80036; stroke-width: 1.0;"/><path d="M188.4688,79.6094 Q187.8906,79.9063 187.25,80.0469 Q186.6094,80.2031 185.9063,80.2031 Q183.4063,80.2031 182.0781,78.5625 Q180.7656,76.9063 180.7656,73.7813 Q180.7656,70.6563 182.0781,69 Q183.4063,67.3438 185.9063,67.3438 Q186.6094,67.3438 187.25,67.5 Q187.9063,67.6563 188.4688,67.9531 L188.4688,70.6719 Q187.8438,70.0938 187.25,69.8281 Q186.6563,69.5469 186.0313,69.5469 Q184.6875,69.5469 184,70.625 Q183.3125,71.6875 183.3125,73.7813 Q183.3125,75.875 184,76.9531 Q184.6875,78.0156 186.0313,78.0156 Q186.6563,78.0156 187.25,77.75 Q187.8438,77.4688 188.4688,76.8906 L188.4688,79.6094 Z "/><text fill="#000000" font-family="sans-serif" font-size="12" font-style="italic" lengthAdjust="spacingAndGlyphs" textLength="88" x="204.5" y="71.1387">«ValueObject»</text><text fill="#000000" font-family="sans-serif" font-size="12" lengthAdjust="spacingAndGlyphs" textLength="98" x="199.5" y="85.1074">ContributorRole</text><line style="stroke: #A80036; stroke-width: 1.5;" x1="171.5" x2="299.5" y1="92.9375" y2="92.9375"/><text fill="#000000" font-family="sans-serif" font-size="11" lengthAdjust="spacingAndGlyphs" textLength="83" x="176.5" y="107.1479">+Name: string</text><line style="stroke: #A80036; stroke-width: 1.5;" x1="171.5" x2="299.5" y1="113.7422" y2="113.7422"/><!--MD5=[fd7366e9f96236d9aa60dcc04f2b83e5]
class Content--><rect fill="#FEFECE" filter="url(#f1m2crbriwtuu6)" height="92.3516" id="Content" style="stroke: #A80036; stroke-width: 1.5;" width="132" x="546.5" y="814.5"/><ellipse cx="584" cy="833.4688" fill="#ADD1B2" rx="11" ry="11" style="stroke: #A80036; stroke-width: 1.0;"/><path d="M586.9688,839.1094 Q586.3906,839.4063 585.75,839.5469 Q585.1094,839.7031 584.4063,839.7031 Q581.9063,839.7031 580.5781,838.0625 Q579.2656,836.4063 579.2656,833.2813 Q579.2656,830.1563 580.5781,828.5 Q581.9063,826.8438 584.4063,826.8438 Q585.1094,826.8438 585.75,827 Q586.4063,827.1563 586.9688,827.4531 L586.9688,830.1719 Q586.3438,829.5938 585.75,829.3281 Q585.1563,829.0469 584.5313,829.0469 Q583.1875,829.0469 582.5,830.125 Q581.8125,831.1875 581.8125,833.2813 Q581.8125,835.375 582.5,836.4531 Q583.1875,837.5156 584.5313,837.5156 Q585.1563,837.5156 585.75,837.25 Q586.3438,836.9688 586.9688,836.3906 L586.9688,839.1094 Z "/><text fill="#000000" font-family="sans-serif" font-size="12" font-style="italic" lengthAdjust="spacingAndGlyphs" textLength="50" x="603" y="830.6387">«Entity»</text><text fill="#000000" font-family="sans-serif" font-size="12" lengthAdjust="spacingAndGlyphs" textLength="50" x="603" y="844.6074">Content</text><line style="stroke: #A80036; stroke-width: 1.5;" x1="547.5" x2="677.5" y1="852.4375" y2="852.4375"/><text fill="#000000" font-family="sans-serif" font-size="11" lengthAdjust="spacingAndGlyphs" textLength="54" x="552.5" y="866.6479">+Id: UUID</text><text fill="#000000" font-family="sans-serif" font-size="11" lengthAdjust="spacingAndGlyphs" textLength="80" x="552.5" y="879.4526">+Title?: string</text><text fill="#000000" font-family="sans-serif" font-size="11" lengthAdjust="spacingAndGlyphs" textLength="120" x="552.5" y="892.2573">+Description?: string</text><line style="stroke: #A80036; stroke-width: 1.5;" x1="547.5" x2="677.5" y1="898.8516" y2="898.8516"/><!--MD5=[9e73ca2041b22575b2d551193cb62c11]
class PlayableContent--><rect fill="#FEFECE" filter="url(#f1m2crbriwtuu6)" height="86.4141" id="PlayableContent" style="stroke: #A80036; stroke-width: 1.5;" width="181" x="297" y="1145"/><ellipse cx="333.15" cy="1161" fill="#ADD1B2" rx="11" ry="11" style="stroke: #A80036; stroke-width: 1.0;"/><path d="M336.1188,1166.6406 Q335.5406,1166.9375 334.9,1167.0781 Q334.2594,1167.2344 333.5563,1167.2344 Q331.0563,1167.2344 329.7281,1165.5938 Q328.4156,1163.9375 328.4156,1160.8125 Q328.4156,1157.6875 329.7281,1156.0313 Q331.0563,1154.375 333.5563,1154.375 Q334.2594,1154.375 334.9,1154.5313 Q335.5563,1154.6875 336.1188,1154.9844 L336.1188,1157.7031 Q335.4938,1157.125 334.9,1156.8594 Q334.3063,1156.5781 333.6813,1156.5781 Q332.3375,1156.5781 331.65,1157.6563 Q330.9625,1158.7188 330.9625,1160.8125 Q330.9625,1162.9063 331.65,1163.9844 Q332.3375,1165.0469 333.6813,1165.0469 Q334.3063,1165.0469 334.9,1164.7813 Q335.4938,1164.5 336.1188,1163.9219 L336.1188,1166.6406 Z "/><text fill="#000000" font-family="sans-serif" font-size="12" lengthAdjust="spacingAndGlyphs" textLength="102" x="351.85" y="1165.1543">PlayableContent</text><line style="stroke: #A80036; stroke-width: 1.5;" x1="298" x2="477" y1="1177" y2="1177"/><text fill="#000000" font-family="sans-serif" font-size="11" lengthAdjust="spacingAndGlyphs" textLength="121" x="303" y="1191.2104">+RuntimeMinutes: int</text><text fill="#000000" font-family="sans-serif" font-size="11" lengthAdjust="spacingAndGlyphs" textLength="115" x="303" y="1204.0151">+CutType?: CutType</text><text fill="#000000" font-family="sans-serif" font-size="11" lengthAdjust="spacingAndGlyphs" textLength="169" x="303" y="1216.8198">+SubtitleTracks: List&lt;string&gt;</text><line style="stroke: #A80036; stroke-width: 1.5;" x1="298" x2="477" y1="1223.4141" y2="1223.4141"/><!--MD5=[ffdd170a53eba6d79fedf145c7c9114b]
class CutType--><rect fill="#FEFECE" filter="url(#f1m2crbriwtuu6)" height="163.2422" id="CutType" style="stroke: #A80036; stroke-width: 1.5;" width="90" x="25.5" y="245"/><ellipse cx="44.1" cy="261" fill="#EB937F" rx="11" ry="11" style="stroke: #A80036; stroke-width: 1.0;"/><path d="M48.2094,267 L40.4906,267 L40.4906,254.6094 L48.2094,254.6094 L48.2094,256.7656 L42.9438,256.7656 L42.9438,259.4375 L47.7094,259.4375 L47.7094,261.5938 L42.9438,261.5938 L42.9438,264.8438 L48.2094,264.8438 L48.2094,267 Z "/><text fill="#000000" font-family="sans-serif" font-size="12" lengthAdjust="spacingAndGlyphs" textLength="50" x="58.9" y="265.1543">CutType</text><line style="stroke: #A80036; stroke-width: 1.5;" x1="26.5" x2="114.5" y1="277" y2="277"/><text fill="#000000" font-family="sans-serif" font-size="11" lengthAdjust="spacingAndGlyphs" textLength="64" x="31.5" y="291.2104">DirectorCut</text><text fill="#000000" font-family="sans-serif" font-size="11" lengthAdjust="spacingAndGlyphs" textLength="52" x="31.5" y="304.0151">Extended</text><text fill="#000000" font-family="sans-serif" font-size="11" lengthAdjust="spacingAndGlyphs" textLength="45" x="31.5" y="316.8198">FinalCut</text><text fill="#000000" font-family="sans-serif" font-size="11" lengthAdjust="spacingAndGlyphs" textLength="78" x="31.5" y="329.6245">HomeRelease</text><text fill="#000000" font-family="sans-serif" font-size="11" lengthAdjust="spacingAndGlyphs" textLength="71" x="31.5" y="342.4292">International</text><text fill="#000000" font-family="sans-serif" font-size="11" lengthAdjust="spacingAndGlyphs" textLength="44" x="31.5" y="355.2339">Original</text><text fill="#000000" font-family="sans-serif" font-size="11" lengthAdjust="spacingAndGlyphs" textLength="32" x="31.5" y="368.0386">Other</text><text fill="#000000" font-family="sans-serif" font-size="11" lengthAdjust="spacingAndGlyphs" textLength="56" x="31.5" y="380.8433">Theatrical</text><text fill="#000000" font-family="sans-serif" font-size="11" lengthAdjust="spacingAndGlyphs" textLength="32" x="31.5" y="393.6479">Uncut</text><line style="stroke: #A80036; stroke-width: 1.5;" x1="26.5" x2="114.5" y1="400.2422" y2="400.2422"/><!--MD5=[55a6f80882d3cd7368bedd1107f01aad]
class AudioTrack--><rect fill="#FEFECE" filter="url(#f1m2crbriwtuu6)" height="79.5469" id="AudioTrack" style="stroke: #A80036; stroke-width: 1.5;" width="117" x="329" y="1291"/><ellipse cx="344.45" cy="1309.9688" fill="#ADD1B2" rx="11" ry="11" style="stroke: #A80036; stroke-width: 1.0;"/><path d="M347.4188,1315.6094 Q346.8406,1315.9063 346.2,1316.0469 Q345.5594,1316.2031 344.8563,1316.2031 Q342.3563,1316.2031 341.0281,1314.5625 Q339.7156,1312.9063 339.7156,1309.7813 Q339.7156,1306.6563 341.0281,1305 Q342.3563,1303.3438 344.8563,1303.3438 Q345.5594,1303.3438 346.2,1303.5 Q346.8563,1303.6563 347.4188,1303.9531 L347.4188,1306.6719 Q346.7938,1306.0938 346.2,1305.8281 Q345.6063,1305.5469 344.9813,1305.5469 Q343.6375,1305.5469 342.95,1306.625 Q342.2625,1307.6875 342.2625,1309.7813 Q342.2625,1311.875 342.95,1312.9531 Q343.6375,1314.0156 344.9813,1314.0156 Q345.6063,1314.0156 346.2,1313.75 Q346.7938,1313.4688 347.4188,1312.8906 L347.4188,1315.6094 Z "/><text fill="#000000" font-family="sans-serif" font-size="12" font-style="italic" lengthAdjust="spacingAndGlyphs" textLength="88" x="356.55" y="1307.1387">«ValueObject»</text><text fill="#000000" font-family="sans-serif" font-size="12" lengthAdjust="spacingAndGlyphs" textLength="69" x="366.05" y="1321.1074">AudioTrack</text><line style="stroke: #A80036; stroke-width: 1.5;" x1="330" x2="445" y1="1328.9375" y2="1328.9375"/><text fill="#000000" font-family="sans-serif" font-size="11" lengthAdjust="spacingAndGlyphs" textLength="105" x="335" y="1343.1479">+Language: string</text><text fill="#000000" font-family="sans-serif" font-size="11" lengthAdjust="spacingAndGlyphs" textLength="90" x="335" y="1355.9526">+Format: string</text><line style="stroke: #A80036; stroke-width: 1.5;" x1="330" x2="445" y1="1362.5469" y2="1362.5469"/><!--MD5=[585ee8f65e307620999c6f40d00190ed]
class MovieStructure--><rect fill="#FEFECE" filter="url(#f1m2crbriwtuu6)" height="86.4141" id="MovieStructure" style="stroke: #A80036; stroke-width: 1.5;" width="158" x="115.5" y="986"/><ellipse cx="144.9" cy="1002" fill="#ADD1B2" rx="11" ry="11" style="stroke: #A80036; stroke-width: 1.0;"/><path d="M147.8688,1007.6406 Q147.2906,1007.9375 146.65,1008.0781 Q146.0094,1008.2344 145.3063,1008.2344 Q142.8063,1008.2344 141.4781,1006.5938 Q140.1656,1004.9375 140.1656,1001.8125 Q140.1656,998.6875 141.4781,997.0313 Q142.8063,995.375 145.3063,995.375 Q146.0094,995.375 146.65,995.5313 Q147.3063,995.6875 147.8688,995.9844 L147.8688,998.7031 Q147.2438,998.125 146.65,997.8594 Q146.0563,997.5781 145.4313,997.5781 Q144.0875,997.5781 143.4,998.6563 Q142.7125,999.7188 142.7125,1001.8125 Q142.7125,1003.9063 143.4,1004.9844 Q144.0875,1006.0469 145.4313,1006.0469 Q146.0563,1006.0469 146.65,1005.7813 Q147.2438,1005.5 147.8688,1004.9219 L147.8688,1007.6406 Z "/><text fill="#000000" font-family="sans-serif" font-size="12" lengthAdjust="spacingAndGlyphs" textLength="94" x="162.1" y="1006.1543">MovieStructure</text><line style="stroke: #A80036; stroke-width: 1.5;" x1="116.5" x2="272.5" y1="1018" y2="1018"/><text fill="#000000" font-family="sans-serif" font-size="11" lengthAdjust="spacingAndGlyphs" textLength="131" x="121.5" y="1032.2104">-_features: List&lt;UUID&gt;</text><line style="stroke: #A80036; stroke-width: 1.0;" x1="116.5" x2="272.5" y1="1038.8047" y2="1038.8047"/><text fill="#000000" font-family="sans-serif" font-size="11" lengthAdjust="spacingAndGlyphs" textLength="122" x="121.5" y="1053.0151">+AddFeature(id): void</text><text fill="#000000" font-family="sans-serif" font-size="11" lengthAdjust="spacingAndGlyphs" textLength="146" x="121.5" y="1065.8198">+RemoveFeature(id): void</text><!--MD5=[cd683f41d8e1b15da58d9cd5310581c5]
class TVStructure--><rect fill="#FEFECE" filter="url(#f1m2crbriwtuu6)" height="112.0234" id="TVStructure" style="stroke: #A80036; stroke-width: 1.5;" width="160" x="247.5" y="636"/><ellipse cx="286.8" cy="652" fill="#ADD1B2" rx="11" ry="11" style="stroke: #A80036; stroke-width: 1.0;"/><path d="M289.7688,657.6406 Q289.1906,657.9375 288.55,658.0781 Q287.9094,658.2344 287.2063,658.2344 Q284.7063,658.2344 283.3781,656.5938 Q282.0656,654.9375 282.0656,651.8125 Q282.0656,648.6875 283.3781,647.0313 Q284.7063,645.375 287.2063,645.375 Q287.9094,645.375 288.55,645.5313 Q289.2063,645.6875 289.7688,645.9844 L289.7688,648.7031 Q289.1438,648.125 288.55,647.8594 Q287.9563,647.5781 287.3313,647.5781 Q285.9875,647.5781 285.3,648.6563 Q284.6125,649.7188 284.6125,651.8125 Q284.6125,653.9063 285.3,654.9844 Q285.9875,656.0469 287.3313,656.0469 Q287.9563,656.0469 288.55,655.7813 Q289.1438,655.5 289.7688,654.9219 L289.7688,657.6406 Z "/><text fill="#000000" font-family="sans-serif" font-size="12" lengthAdjust="spacingAndGlyphs" textLength="74" x="306.2" y="656.1543">TVStructure</text><line style="stroke: #A80036; stroke-width: 1.5;" x1="248.5" x2="406.5" y1="668" y2="668"/><text fill="#000000" font-family="sans-serif" font-size="11" lengthAdjust="spacingAndGlyphs" textLength="105" x="253.5" y="682.2104">+Status: TVStatus</text><text fill="#000000" font-family="sans-serif" font-size="11" lengthAdjust="spacingAndGlyphs" textLength="129" x="253.5" y="695.0151">+EndedOn?: LocalDate</text><text fill="#000000" font-family="sans-serif" font-size="11" lengthAdjust="spacingAndGlyphs" textLength="135" x="253.5" y="707.8198">-_episodes: List&lt;UUID&gt;</text><line style="stroke: #A80036; stroke-width: 1.0;" x1="248.5" x2="406.5" y1="714.4141" y2="714.4141"/><text fill="#000000" font-family="sans-serif" font-size="11" lengthAdjust="spacingAndGlyphs" textLength="124" x="253.5" y="728.6245">+AddEpisode(id): void</text><text fill="#000000" font-family="sans-serif" font-size="11" lengthAdjust="spacingAndGlyphs" textLength="148" x="253.5" y="741.4292">+RemoveEpisode(id): void</text><!--MD5=[ec068ab7b1cfb32e88f15482ccdce528]
class TVStatus--><rect fill="#FEFECE" filter="url(#f1m2crbriwtuu6)" height="99.2188" id="TVStatus" style="stroke: #A80036; stroke-width: 1.5;" width="88" x="150.5" y="277"/><ellipse cx="165.5" cy="293" fill="#EB937F" rx="11" ry="11" style="stroke: #A80036; stroke-width: 1.0;"/><path d="M169.6094,299 L161.8906,299 L161.8906,286.6094 L169.6094,286.6094 L169.6094,288.7656 L164.3438,288.7656 L164.3438,291.4375 L169.1094,291.4375 L169.1094,293.5938 L164.3438,293.5938 L164.3438,296.8438 L169.6094,296.8438 L169.6094,299 Z "/><text fill="#000000" font-family="sans-serif" font-size="12" lengthAdjust="spacingAndGlyphs" textLength="56" x="179.5" y="297.1543">TVStatus</text><line style="stroke: #A80036; stroke-width: 1.5;" x1="151.5" x2="237.5" y1="309" y2="309"/><text fill="#000000" font-family="sans-serif" font-size="11" lengthAdjust="spacingAndGlyphs" textLength="47" x="156.5" y="323.2104">Ongoing</text><text fill="#000000" font-family="sans-serif" font-size="11" lengthAdjust="spacingAndGlyphs" textLength="35" x="156.5" y="336.0151">Ended</text><text fill="#000000" font-family="sans-serif" font-size="11" lengthAdjust="spacingAndGlyphs" textLength="55" x="156.5" y="348.8198">Cancelled</text><text fill="#000000" font-family="sans-serif" font-size="11" lengthAdjust="spacingAndGlyphs" textLength="51" x="156.5" y="361.6245">Unknown</text><line style="stroke: #A80036; stroke-width: 1.5;" x1="151.5" x2="237.5" y1="368.2188" y2="368.2188"/><!--MD5=[2916714cae8f0462c1096d4fd55ce4c3]
class Season--><rect fill="#FEFECE" filter="url(#f1m2crbriwtuu6)" height="105.1563" id="Season" style="stroke: #A80036; stroke-width: 1.5;" width="132" x="379.5" y="808"/><ellipse cx="418.35" cy="826.9688" fill="#ADD1B2" rx="11" ry="11" style="stroke: #A80036; stroke-width: 1.0;"/><path d="M421.3188,832.6094 Q420.7406,832.9063 420.1,833.0469 Q419.4594,833.2031 418.7563,833.2031 Q416.2563,833.2031 414.9281,831.5625 Q413.6156,829.9063 413.6156,826.7813 Q413.6156,823.6563 414.9281,822 Q416.2563,820.3438 418.7563,820.3438 Q419.4594,820.3438 420.1,820.5 Q420.7563,820.6563 421.3188,820.9531 L421.3188,823.6719 Q420.6938,823.0938 420.1,822.8281 Q419.5063,822.5469 418.8813,822.5469 Q417.5375,822.5469 416.85,823.625 Q416.1625,824.6875 416.1625,826.7813 Q416.1625,828.875 416.85,829.9531 Q417.5375,831.0156 418.8813,831.0156 Q419.5063,831.0156 420.1,830.75 Q420.6938,830.4688 421.3188,829.8906 L421.3188,832.6094 Z "/><text fill="#000000" font-family="sans-serif" font-size="12" font-style="italic" lengthAdjust="spacingAndGlyphs" textLength="50" x="436.15" y="824.1387">«Entity»</text><text fill="#000000" font-family="sans-serif" font-size="12" lengthAdjust="spacingAndGlyphs" textLength="47" x="437.65" y="838.1074">Season</text><line style="stroke: #A80036; stroke-width: 1.5;" x1="380.5" x2="510.5" y1="845.9375" y2="845.9375"/><text fill="#000000" font-family="sans-serif" font-size="11" lengthAdjust="spacingAndGlyphs" textLength="54" x="385.5" y="860.1479">+Id: UUID</text><text fill="#000000" font-family="sans-serif" font-size="11" lengthAdjust="spacingAndGlyphs" textLength="119" x="385.5" y="872.9526">+SeasonNumber: int</text><text fill="#000000" font-family="sans-serif" font-size="11" lengthAdjust="spacingAndGlyphs" textLength="80" x="385.5" y="885.7573">+Title: string?</text><text fill="#000000" font-family="sans-serif" font-size="11" lengthAdjust="spacingAndGlyphs" textLength="120" x="385.5" y="898.562">+Description: string?</text><line style="stroke: #A80036; stroke-width: 1.5;" x1="380.5" x2="510.5" y1="905.1563" y2="905.1563"/><!--MD5=[89f1af135d226d270851fb7756972918]
class Episode--><rect fill="#FEFECE" filter="url(#f1m2crbriwtuu6)" height="112.0234" id="Episode" style="stroke: #A80036; stroke-width: 1.5;" width="139" x="380" y="973"/><ellipse cx="420.65" cy="989" fill="#ADD1B2" rx="11" ry="11" style="stroke: #A80036; stroke-width: 1.0;"/><path d="M423.6188,994.6406 Q423.0406,994.9375 422.4,995.0781 Q421.7594,995.2344 421.0563,995.2344 Q418.5563,995.2344 417.2281,993.5938 Q415.9156,991.9375 415.9156,988.8125 Q415.9156,985.6875 417.2281,984.0313 Q418.5563,982.375 421.0563,982.375 Q421.7594,982.375 422.4,982.5313 Q423.0563,982.6875 423.6188,982.9844 L423.6188,985.7031 Q422.9938,985.125 422.4,984.8594 Q421.8063,984.5781 421.1813,984.5781 Q419.8375,984.5781 419.15,985.6563 Q418.4625,986.7188 418.4625,988.8125 Q418.4625,990.9063 419.15,991.9844 Q419.8375,993.0469 421.1813,993.0469 Q421.8063,993.0469 422.4,992.7813 Q422.9938,992.5 423.6188,991.9219 L423.6188,994.6406 Z "/><text fill="#000000" font-family="sans-serif" font-size="12" lengthAdjust="spacingAndGlyphs" textLength="50" x="440.35" y="993.1543">Episode</text><line style="stroke: #A80036; stroke-width: 1.5;" x1="381" x2="518" y1="1005" y2="1005"/><text fill="#000000" font-family="sans-serif" font-size="11" lengthAdjust="spacingAndGlyphs" textLength="99" x="386" y="1019.2104">+episodeId: UUID</text><text fill="#000000" font-family="sans-serif" font-size="11" lengthAdjust="spacingAndGlyphs" textLength="80" x="386" y="1032.0151">+Title?: string</text><text fill="#000000" font-family="sans-serif" font-size="11" lengthAdjust="spacingAndGlyphs" textLength="120" x="386" y="1044.8198">+Description?: string</text><text fill="#000000" font-family="sans-serif" font-size="11" lengthAdjust="spacingAndGlyphs" textLength="127" x="386" y="1057.6245">+EpisodeNumber?: int</text><text fill="#000000" font-family="sans-serif" font-size="11" lengthAdjust="spacingAndGlyphs" textLength="113" x="386" y="1070.4292">+AirDate: LocalDate</text><line style="stroke: #A80036; stroke-width: 1.5;" x1="381" x2="518" y1="1077.0234" y2="1077.0234"/><!--MD5=[66780e464ae187471ee6373dab337c1f]
reverse link MediaWork to MediaStructure--><path d="M390.26,433.92 C371.85,453.87 353.71,473.53 338.74,489.74 " fill="none" id="MediaWork&lt;-MediaStructure" style="stroke: #A80036; stroke-width: 1.0;"/><polygon fill="#A80036" points="399.31,424.12,392.3005,425.8131,391.1674,432.9346,398.1769,431.2415,399.31,424.12" style="stroke: #A80036; stroke-width: 1.0;"/><text fill="#000000" font-family="sans-serif" font-size="13" lengthAdjust="spacingAndGlyphs" textLength="8" x="384.4664" y="443.9193">1</text><text fill="#000000" font-family="sans-serif" font-size="13" lengthAdjust="spacingAndGlyphs" textLength="8" x="336.0798" y="478.9452">1</text><!--MD5=[9ad4f954b28ad54f2491927702a17c0b]
reverse link MediaWork to Contribution--><path d="M488.5,437.35 C488.5,453.8 488.5,469.92 488.5,483.95 " fill="none" id="MediaWork&lt;-Contribution" style="stroke: #A80036; stroke-width: 1.0;"/><polygon fill="#A80036" points="488.5,424.12,484.5,430.12,488.5,436.12,492.5,430.12,488.5,424.12" style="stroke: #A80036; stroke-width: 1.0;"/><text fill="#000000" font-family="sans-serif" font-size="13" lengthAdjust="spacingAndGlyphs" textLength="8" x="480.2063" y="443.9193">1</text><text fill="#000000" font-family="sans-serif" font-size="13" lengthAdjust="spacingAndGlyphs" textLength="23" x="463.7391" y="472.8003">1..*</text><!--MD5=[6bfd38223bfcf85fe0a1d8f856fb6bfe]
reverse link MediaWork to Content--><path d="M556.92,435.88 C564.59,451.58 571.45,467.88 576.5,484 C612.56,598.98 615.38,742.66 614.12,814.38 " fill="none" id="MediaWork&lt;-Content" style="stroke: #A80036; stroke-width: 1.0;"/><polygon fill="#A80036" points="550.91,424.02,550.0507,431.1797,556.3292,434.7266,557.1885,427.5669,550.91,424.02" style="stroke: #A80036; stroke-width: 1.0;"/><text fill="#000000" font-family="sans-serif" font-size="13" lengthAdjust="spacingAndGlyphs" textLength="8" x="547.1995" y="443.8119">1</text><text fill="#000000" font-family="sans-serif" font-size="13" lengthAdjust="spacingAndGlyphs" textLength="23" x="589.6689" y="803.5554">0..*</text><!--MD5=[6f2cdbc98b0558b784c7cac9865fcd06]
reverse link Content to PlayableContent--><path d="M601.9,926.23 C591.54,973.88 571.97,1038.25 536.5,1085 C518.5,1108.72 493.34,1128.89 468.81,1144.86 " fill="none" id="Content&lt;-PlayableContent" style="stroke: #A80036; stroke-width: 1.0;"/><polygon fill="none" points="595.04,924.83,605.85,906.6,608.76,927.59,595.04,924.83" style="stroke: #A80036; stroke-width: 1.0;"/><!--MD5=[66cb92c5741c367094de724f81452974]
reverse link PlayableContent to AudioTrack--><path d="M387.5,1244.51 C387.5,1259.92 387.5,1276.34 387.5,1290.62 " fill="none" id="PlayableContent&lt;-AudioTrack" style="stroke: #A80036; stroke-width: 1.0;"/><polygon fill="#A80036" points="387.5,1231.3,383.5,1237.3,387.5,1243.3,391.5,1237.3,387.5,1231.3" style="stroke: #A80036; stroke-width: 1.0;"/><text fill="#000000" font-family="sans-serif" font-size="13" lengthAdjust="spacingAndGlyphs" textLength="8" x="378.8625" y="1251.4407">1</text><text fill="#000000" font-family="sans-serif" font-size="13" lengthAdjust="spacingAndGlyphs" textLength="23" x="362.5953" y="1279.8053">0..*</text><!--MD5=[755a94a156c45b2770e2136e086b4693]
reverse link MediaStructure to MovieStructure--><path d="M256.77,586.5 C246.44,601.71 236.71,618.78 230.5,636 C186.77,757.18 187.92,912.44 191.57,985.89 " fill="none" id="MediaStructure&lt;-MovieStructure" style="stroke: #A80036; stroke-width: 1.0;"/><polygon fill="none" points="251.14,582.33,268.51,570.2,262.5,590.52,251.14,582.33" style="stroke: #A80036; stroke-width: 1.0;"/><!--MD5=[f9850155753dff298f6540f5486509cf]
link MovieStructure to PlayableContent--><path d="M246.22,1072.07 C272.61,1093.54 304.75,1119.68 331.7,1141.61 " fill="none" id="MovieStructure-&gt;PlayableContent" style="stroke: #A80036; stroke-width: 1.0; stroke-dasharray: 7.0,7.0;"/><polygon fill="#A80036" points="335.64,1144.81,331.1932,1136.0222,331.7651,1141.65,326.1373,1142.222,335.64,1144.81" style="stroke: #A80036; stroke-width: 1.0;"/><!--MD5=[95e6b51c1441291895ec20d875b5c906]
reverse link MediaStructure to TVStructure--><path d="M311.73,590.07 C314.08,605.08 316.59,621.15 318.9,635.95 " fill="none" id="MediaStructure&lt;-TVStructure" style="stroke: #A80036; stroke-width: 1.0;"/><polygon fill="none" points="304.79,590.98,308.62,570.14,318.62,588.82,304.79,590.98" style="stroke: #A80036; stroke-width: 1.0;"/><!--MD5=[cd8c40cef97c0c5dd6f5a58eb2e3e2bc]
link TVStructure to PlayableContent--><path d="M329.79,748.19 C333.56,824.38 342.7,965.87 362.5,1085 C365.48,1102.93 369.93,1122.36 374.25,1139.41 " fill="none" id="TVStructure-&gt;PlayableContent" style="stroke: #A80036; stroke-width: 1.0; stroke-dasharray: 7.0,7.0;"/><polygon fill="#A80036" points="375.59,1144.62,377.2272,1134.9082,374.3471,1139.7769,369.4783,1136.8968,375.59,1144.62" style="stroke: #A80036; stroke-width: 1.0;"/><!--MD5=[715f6fc953806b9e755f3a7cd209b8c2]
reverse link TVStructure to Season--><path d="M374.59,759.45 C386.03,775.59 398.1,792.62 408.97,807.96 " fill="none" id="TVStructure&lt;-Season" style="stroke: #A80036; stroke-width: 1.0;"/><polygon fill="#A80036" points="366.79,748.44,366.9967,755.6481,373.7299,758.2297,373.5232,751.0216,366.79,748.44" style="stroke: #A80036; stroke-width: 1.0;"/><text fill="#000000" font-family="sans-serif" font-size="13" lengthAdjust="spacingAndGlyphs" textLength="8" x="362.8704" y="767.9063">1</text><text fill="#000000" font-family="sans-serif" font-size="13" lengthAdjust="spacingAndGlyphs" textLength="23" x="379.516" y="796.9574">1..*</text><!--MD5=[ff064e4e2613780c041fbf5360d2bb00]
reverse link Season to Episode--><path d="M447.06,926.45 C447.43,941.77 447.82,957.96 448.17,972.8 " fill="none" id="Season&lt;-Episode" style="stroke: #A80036; stroke-width: 1.0;"/><polygon fill="#A80036" points="446.74,913.27,442.8796,919.3608,447.0172,925.2668,450.8775,919.176,446.74,913.27" style="stroke: #A80036; stroke-width: 1.0;"/><text fill="#000000" font-family="sans-serif" font-size="13" lengthAdjust="spacingAndGlyphs" textLength="8" x="438.3864" y="933.0575">1</text><text fill="#000000" font-family="sans-serif" font-size="13" lengthAdjust="spacingAndGlyphs" textLength="23" x="423.6063" y="962.1101">1..*</text><!--MD5=[9b1e0c9b1b7df58fa8be67b96718dd0f]
link Episode to PlayableContent--><path d="M427.64,1085.35 C420.57,1103.27 412.79,1122.95 405.99,1140.18 " fill="none" id="Episode-&gt;PlayableContent" style="stroke: #A80036; stroke-width: 1.0; stroke-dasharray: 7.0,7.0;"/><polygon fill="#A80036" points="404.1,1144.97,411.1382,1138.0806,405.9446,1140.3227,403.7025,1135.1292,404.1,1144.97" style="stroke: #A80036; stroke-width: 1.0;"/><!--MD5=[5d16b4e1c091feb99c1616c4a998592f]
link MediaWorkType to ContributorRole--><!--MD5=[a8456e90ff1c299203c5caf21d977623]
link MediaWorkType to CutType--><!--MD5=[e7126decf83021fece566c2b6c7bd0c1]
link CutType to TVStatus--><!--MD5=[c0e2b1f598fee676c1d1e476ea89a128]
@startuml
skinparam classAttributeIconSize 0

class MediaWork <<AggregateRoot>> {
    +Id: UUID
    +Title: string
    +Description?: string
    +OriginalReleaseDate: LocalDate
    -_structure: MediaStructure
    -_contributions: List<Contribution>
    -_content: List<Content>
    - -
    +AddContribution(id, role): void
    +RemoveContribution(id): void
    +AddContent(content): void
    +RemoveContent(id): void
}

note top of MediaWork
Invariant:
- Must have exactly one MediaStructure
- Structure defines the MediaWork type
- Must have at least one creator contribution
- Cannot remove last creator
- Cannot remove Edition if MediaCopy exists
  referencing it (cross-aggregate)
- All Features / Episodes must reference a
  Content that is a PlayableContent inside
  MediaWork._contents
end note

abstract class MediaStructure <<Entity>> {
    - -
    +Type(): MediaWorkType
    +IsCreatorRole(role): bool
}

MediaWork "1" *- - "1" MediaStructure

enum MediaWorkType {
    Movie
    TV
}

class Contribution <<Entity>> {
    +Id: UUID
    +ContributorId: UUID
    +Role: ContributorRole
}

class ContributorRole <<ValueObject>> {
    +Name: string
}

MediaWork "1" *- - "1..*" Contribution

class Content <<Entity>> {
    +Id: UUID
    +Title?: string
    +Description?: string
}

MediaWork "1" *- - "0..*" Content

class PlayableContent {
    +RuntimeMinutes: int
    +CutType?: CutType
    +SubtitleTracks: List<string>
}

enum CutType {
    DirectorCut
    Extended
    FinalCut
    HomeRelease
    International
    Original
    Other
    Theatrical
    Uncut
}

Content <|- - PlayableContent

class AudioTrack <<ValueObject>> {
    +Language: string
    +Format: string
}

PlayableContent "1" *- - "0..*" AudioTrack

class MovieStructure {
    -_features: List<UUID>
    - -
    +AddFeature(id): void
    +RemoveFeature(id): void
}

MediaStructure <|- - MovieStructure
MovieStructure ..> PlayableContent

class TVStructure {
    +Status: TVStatus
    +EndedOn?: LocalDate
    -_episodes: List<UUID>
    - -
    +AddEpisode(id): void
    +RemoveEpisode(id): void
}

MediaStructure <|- - TVStructure
TVStructure ..> PlayableContent

enum TVStatus {
    Ongoing
    Ended
    Cancelled
    Unknown
}

class Season <<Entity>> {
    +Id: UUID
    +SeasonNumber: int
    +Title: string?
    +Description: string?
}

TVStructure "1" *- - "1..*" Season

class Episode {
    +episodeId: UUID
    +Title?: string
    +Description?: string
    +EpisodeNumber?: int
    +AirDate: LocalDate
}

Season "1" *- - "1..*" Episode
Episode ..> PlayableContent

@enduml

PlantUML version 1.2020.02(Sun Mar 01 10:22:07 UTC 2020)
(GPL source distribution)
Java Runtime: OpenJDK Runtime Environment
JVM: OpenJDK 64-Bit Server VM
Java Version: 17.0.18+8
Operating System: Linux
Default Encoding: UTF-8
Language: en
Country: null
--></g></svg>