<?xml version="1.0" encoding="UTF-8" standalone="no"?><svg xmlns="http://www.w3.org/2000/svg" xmlns:xlink="http://www.w3.org/1999/xlink" contentScriptType="application/ecmascript" contentStyleType="text/css" height="1303px" preserveAspectRatio="none" style="width:1161px;height:1303px;" version="1.1" viewBox="0 0 1161 1303" width="1161px" zoomAndPan="magnify"><defs><filter height="300%" id="fn96i724dzvdz" width="300%" x="-1" y="-1"><feGaussianBlur result="blurOut" stdDeviation="2.0"/><feColorMatrix in="blurOut" result="blurOut2" type="matrix" values="0 0 0 0 0 0 0 0 0 0 0 0 0 0 0 0 0 0 .4 0"/><feOffset dx="4.0" dy="4.0" in="blurOut2" result="blurOut3"/><feBlend in="SourceGraphic" in2="blurOut3" mode="normal"/></filter></defs><g><!--MD5=[c3dd83c4944f050787f4b644933234ea]
class MediaWork--><rect fill="#FEFECE" filter="url(#fn96i724dzvdz)" height="207.5938" id="MediaWork" style="stroke: #A80036; stroke-width: 1.5;" width="211" x="521.5" y="231"/><ellipse cx="570.25" cy="249.9688" fill="#ADD1B2" rx="11" ry="11" style="stroke: #A80036; stroke-width: 1.0;"/><path d="M573.2188,255.6094 Q572.6406,255.9063 572,256.0469 Q571.3594,256.2031 570.6563,256.2031 Q568.1563,256.2031 566.8281,254.5625 Q565.5156,252.9063 565.5156,249.7813 Q565.5156,246.6563 566.8281,245 Q568.1563,243.3438 570.6563,243.3438 Q571.3594,243.3438 572,243.5 Q572.6563,243.6563 573.2188,243.9531 L573.2188,246.6719 Q572.5938,246.0938 572,245.8281 Q571.4063,245.5469 570.7813,245.5469 Q569.4375,245.5469 568.75,246.625 Q568.0625,247.6875 568.0625,249.7813 Q568.0625,251.875 568.75,252.9531 Q569.4375,254.0156 570.7813,254.0156 Q571.4063,254.0156 572,253.75 Q572.5938,253.4688 573.2188,252.8906 L573.2188,255.6094 Z "/><text fill="#000000" font-family="sans-serif" font-size="12" font-style="italic" lengthAdjust="spacingAndGlyphs" textLength="109" x="588.75" y="247.1387">«AggregateRoot»</text><text fill="#000000" font-family="sans-serif" font-size="12" lengthAdjust="spacingAndGlyphs" textLength="68" x="609.25" y="261.1074">MediaWork</text><line style="stroke: #A80036; stroke-width: 1.5;" x1="522.5" x2="731.5" y1="268.9375" y2="268.9375"/><text fill="#000000" font-family="sans-serif" font-size="11" lengthAdjust="spacingAndGlyphs" textLength="54" x="527.5" y="283.1479">+Id: UUID</text><text fill="#000000" font-family="sans-serif" font-size="11" lengthAdjust="spacingAndGlyphs" textLength="74" x="527.5" y="295.9526">+Title: string</text><text fill="#000000" font-family="sans-serif" font-size="11" lengthAdjust="spacingAndGlyphs" textLength="120" x="527.5" y="308.7573">+Description?: string</text><text fill="#000000" font-family="sans-serif" font-size="11" lengthAdjust="spacingAndGlyphs" textLength="187" x="527.5" y="321.562">+OriginalReleaseDate: LocalDate</text><text fill="#000000" font-family="sans-serif" font-size="11" lengthAdjust="spacingAndGlyphs" textLength="160" x="527.5" y="334.3667">#creatorRoles: List&lt;string&gt;</text><text fill="#000000" font-family="sans-serif" font-size="11" lengthAdjust="spacingAndGlyphs" textLength="199" x="527.5" y="347.1714">-_contributions: List&lt;Contribution&gt;</text><text fill="#000000" font-family="sans-serif" font-size="11" lengthAdjust="spacingAndGlyphs" textLength="142" x="527.5" y="359.9761">-_content: List&lt;Content&gt;</text><line style="stroke: #A80036; stroke-width: 1.0;" x1="522.5" x2="731.5" y1="366.5703" y2="366.5703"/><text fill="#000000" font-family="sans-serif" font-size="11" lengthAdjust="spacingAndGlyphs" textLength="178" x="527.5" y="380.7808">+AddContribution(id, role): void</text><text fill="#000000" font-family="sans-serif" font-size="11" lengthAdjust="spacingAndGlyphs" textLength="172" x="527.5" y="393.5854">+RemoveContribution(id): void</text><text fill="#000000" font-family="sans-serif" font-size="11" lengthAdjust="spacingAndGlyphs" textLength="155" x="527.5" y="406.3901">+AddContent(content): void</text><text fill="#000000" font-family="sans-serif" font-size="11" lengthAdjust="spacingAndGlyphs" textLength="147" x="527.5" y="419.1948">+RemoveContent(id): void</text><text fill="#000000" font-family="sans-serif" font-size="11" lengthAdjust="spacingAndGlyphs" textLength="148" x="527.5" y="431.9995">+IsCreatorRole(role): bool</text><path d="M474,39 L474,139.7969 A0,0 0 0 0 474,139.7969 L623,139.7969 L627,230.97 L631,139.7969 L780,139.7969 A0,0 0 0 0 780,139.7969 L780,49 L770,39 L474,39 A0,0 0 0 0 474,39 " fill="#FBFB77" filter="url(#fn96i724dzvdz)" style="stroke: #A80036; stroke-width: 1.0;"/><path d="M770,39 L770,49 L780,49 L770,39 " fill="#FBFB77" style="stroke: #A80036; stroke-width: 1.0;"/><text fill="#000000" font-family="sans-serif" font-size="13" lengthAdjust="spacingAndGlyphs" textLength="59" x="480" y="56.0669">Invariant:</text><text fill="#000000" font-family="sans-serif" font-size="13" lengthAdjust="spacingAndGlyphs" textLength="285" x="480" y="71.1997">- Must have at least one creator contribution</text><text fill="#000000" font-family="sans-serif" font-size="13" lengthAdjust="spacingAndGlyphs" textLength="185" x="480" y="86.3325">- Cannot remove last creator</text><text fill="#000000" font-family="sans-serif" font-size="13" lengthAdjust="spacingAndGlyphs" textLength="267" x="480" y="101.4653">- All Features / Episodes must reference a</text><text fill="#000000" font-family="sans-serif" font-size="13" lengthAdjust="spacingAndGlyphs" textLength="256" x="488" y="116.5981">Content that is a PlayableContent inside</text><text fill="#000000" font-family="sans-serif" font-size="13" lengthAdjust="spacingAndGlyphs" textLength="136" x="488" y="131.731">MediaWork._contents</text><!--MD5=[0330879a1a385efee19ba3488ed490fa]
class Contribution--><rect fill="#FEFECE" filter="url(#fn96i724dzvdz)" height="92.3516" id="Contribution" style="stroke: #A80036; stroke-width: 1.5;" width="205" x="331.5" y="522"/><ellipse cx="391.25" cy="540.9688" fill="#ADD1B2" rx="11" ry="11" style="stroke: #A80036; stroke-width: 1.0;"/><path d="M394.2188,546.6094 Q393.6406,546.9063 393,547.0469 Q392.3594,547.2031 391.6563,547.2031 Q389.1563,547.2031 387.8281,545.5625 Q386.5156,543.9063 386.5156,540.7813 Q386.5156,537.6563 387.8281,536 Q389.1563,534.3438 391.6563,534.3438 Q392.3594,534.3438 393,534.5 Q393.6563,534.6563 394.2188,534.9531 L394.2188,537.6719 Q393.5938,537.0938 393,536.8281 Q392.4063,536.5469 391.7813,536.5469 Q390.4375,536.5469 389.75,537.625 Q389.0625,538.6875 389.0625,540.7813 Q389.0625,542.875 389.75,543.9531 Q390.4375,545.0156 391.7813,545.0156 Q392.4063,545.0156 393,544.75 Q393.5938,544.4688 394.2188,543.8906 L394.2188,546.6094 Z "/><text fill="#000000" font-family="sans-serif" font-size="12" font-style="italic" lengthAdjust="spacingAndGlyphs" textLength="50" x="425.25" y="538.1387">«Entity»</text><text fill="#000000" font-family="sans-serif" font-size="12" lengthAdjust="spacingAndGlyphs" textLength="77" x="411.75" y="552.1074">Contribution</text><line style="stroke: #A80036; stroke-width: 1.5;" x1="332.5" x2="535.5" y1="559.9375" y2="559.9375"/><text fill="#000000" font-family="sans-serif" font-size="11" lengthAdjust="spacingAndGlyphs" textLength="54" x="337.5" y="574.1479">+Id: UUID</text><text fill="#000000" font-family="sans-serif" font-size="11" lengthAdjust="spacingAndGlyphs" textLength="118" x="337.5" y="586.9526">+ContributorId: UUID</text><text fill="#000000" font-family="sans-serif" font-size="11" lengthAdjust="spacingAndGlyphs" textLength="193" x="337.5" y="599.7573">+ContributorRole: ContributorRole</text><line style="stroke: #A80036; stroke-width: 1.5;" x1="332.5" x2="535.5" y1="606.3516" y2="606.3516"/><!--MD5=[dd2cb4d4918b743616ebdb19b9302e86]
class ContributorRole--><rect fill="#FEFECE" filter="url(#fn96i724dzvdz)" height="66.7422" id="ContributorRole" style="stroke: #A80036; stroke-width: 1.5;" width="130" x="6" y="56"/><ellipse cx="21" cy="74.9688" fill="#ADD1B2" rx="11" ry="11" style="stroke: #A80036; stroke-width: 1.0;"/><path d="M23.9688,80.6094 Q23.3906,80.9063 22.75,81.0469 Q22.1094,81.2031 21.4063,81.2031 Q18.9063,81.2031 17.5781,79.5625 Q16.2656,77.9063 16.2656,74.7813 Q16.2656,71.6563 17.5781,70 Q18.9063,68.3438 21.4063,68.3438 Q22.1094,68.3438 22.75,68.5 Q23.4063,68.6563 23.9688,68.9531 L23.9688,71.6719 Q23.3438,71.0938 22.75,70.8281 Q22.1563,70.5469 21.5313,70.5469 Q20.1875,70.5469 19.5,71.625 Q18.8125,72.6875 18.8125,74.7813 Q18.8125,76.875 19.5,77.9531 Q20.1875,79.0156 21.5313,79.0156 Q22.1563,79.0156 22.75,78.75 Q23.3438,78.4688 23.9688,77.8906 L23.9688,80.6094 Z "/><text fill="#000000" font-family="sans-serif" font-size="12" font-style="italic" lengthAdjust="spacingAndGlyphs" textLength="88" x="40" y="72.1387">«ValueObject»</text><text fill="#000000" font-family="sans-serif" font-size="12" lengthAdjust="spacingAndGlyphs" textLength="98" x="35" y="86.1074">ContributorRole</text><line style="stroke: #A80036; stroke-width: 1.5;" x1="7" x2="135" y1="93.9375" y2="93.9375"/><text fill="#000000" font-family="sans-serif" font-size="11" lengthAdjust="spacingAndGlyphs" textLength="83" x="12" y="108.1479">+Name: string</text><line style="stroke: #A80036; stroke-width: 1.5;" x1="7" x2="135" y1="114.7422" y2="114.7422"/><!--MD5=[fd7366e9f96236d9aa60dcc04f2b83e5]
class Content--><rect fill="#FEFECE" filter="url(#fn96i724dzvdz)" height="92.3516" id="Content" style="stroke: #A80036; stroke-width: 1.5;" width="132" x="531" y="907.5"/><ellipse cx="568.5" cy="926.4688" fill="#ADD1B2" rx="11" ry="11" style="stroke: #A80036; stroke-width: 1.0;"/><path d="M571.4688,932.1094 Q570.8906,932.4063 570.25,932.5469 Q569.6094,932.7031 568.9063,932.7031 Q566.4063,932.7031 565.0781,931.0625 Q563.7656,929.4063 563.7656,926.2813 Q563.7656,923.1563 565.0781,921.5 Q566.4063,919.8438 568.9063,919.8438 Q569.6094,919.8438 570.25,920 Q570.9063,920.1563 571.4688,920.4531 L571.4688,923.1719 Q570.8438,922.5938 570.25,922.3281 Q569.6563,922.0469 569.0313,922.0469 Q567.6875,922.0469 567,923.125 Q566.3125,924.1875 566.3125,926.2813 Q566.3125,928.375 567,929.4531 Q567.6875,930.5156 569.0313,930.5156 Q569.6563,930.5156 570.25,930.25 Q570.8438,929.9688 571.4688,929.3906 L571.4688,932.1094 Z "/><text fill="#000000" font-family="sans-serif" font-size="12" font-style="italic" lengthAdjust="spacingAndGlyphs" textLength="50" x="587.5" y="923.6387">«Entity»</text><text fill="#000000" font-family="sans-serif" font-size="12" lengthAdjust="spacingAndGlyphs" textLength="50" x="587.5" y="937.6074">Content</text><line style="stroke: #A80036; stroke-width: 1.5;" x1="532" x2="662" y1="945.4375" y2="945.4375"/><text fill="#000000" font-family="sans-serif" font-size="11" lengthAdjust="spacingAndGlyphs" textLength="54" x="537" y="959.6479">+Id: UUID</text><text fill="#000000" font-family="sans-serif" font-size="11" lengthAdjust="spacingAndGlyphs" textLength="80" x="537" y="972.4526">+Title?: string</text><text fill="#000000" font-family="sans-serif" font-size="11" lengthAdjust="spacingAndGlyphs" textLength="120" x="537" y="985.2573">+Description?: string</text><line style="stroke: #A80036; stroke-width: 1.5;" x1="532" x2="662" y1="991.8516" y2="991.8516"/><!--MD5=[9e73ca2041b22575b2d551193cb62c11]
class PlayableContent--><rect fill="#FEFECE" filter="url(#fn96i724dzvdz)" height="73.6094" id="PlayableContent" style="stroke: #A80036; stroke-width: 1.5;" width="134" x="655" y="1066"/><ellipse cx="670" cy="1082" fill="#ADD1B2" rx="11" ry="11" style="stroke: #A80036; stroke-width: 1.0;"/><path d="M672.9688,1087.6406 Q672.3906,1087.9375 671.75,1088.0781 Q671.1094,1088.2344 670.4063,1088.2344 Q667.9063,1088.2344 666.5781,1086.5938 Q665.2656,1084.9375 665.2656,1081.8125 Q665.2656,1078.6875 666.5781,1077.0313 Q667.9063,1075.375 670.4063,1075.375 Q671.1094,1075.375 671.75,1075.5313 Q672.4063,1075.6875 672.9688,1075.9844 L672.9688,1078.7031 Q672.3438,1078.125 671.75,1077.8594 Q671.1563,1077.5781 670.5313,1077.5781 Q669.1875,1077.5781 668.5,1078.6563 Q667.8125,1079.7188 667.8125,1081.8125 Q667.8125,1083.9063 668.5,1084.9844 Q669.1875,1086.0469 670.5313,1086.0469 Q671.1563,1086.0469 671.75,1085.7813 Q672.3438,1085.5 672.9688,1084.9219 L672.9688,1087.6406 Z "/><text fill="#000000" font-family="sans-serif" font-size="12" lengthAdjust="spacingAndGlyphs" textLength="102" x="684" y="1086.1543">PlayableContent</text><line style="stroke: #A80036; stroke-width: 1.5;" x1="656" x2="788" y1="1098" y2="1098"/><text fill="#000000" font-family="sans-serif" font-size="11" lengthAdjust="spacingAndGlyphs" textLength="121" x="661" y="1112.2104">+RuntimeMinutes: int</text><text fill="#000000" font-family="sans-serif" font-size="11" lengthAdjust="spacingAndGlyphs" textLength="115" x="661" y="1125.0151">+CutType?: CutType</text><line style="stroke: #A80036; stroke-width: 1.5;" x1="656" x2="788" y1="1131.6094" y2="1131.6094"/><!--MD5=[ffdd170a53eba6d79fedf145c7c9114b]
class CutType--><rect fill="#FEFECE" filter="url(#fn96i724dzvdz)" height="163.2422" id="CutType" style="stroke: #A80036; stroke-width: 1.5;" width="90" x="171" y="8"/><ellipse cx="189.6" cy="24" fill="#EB937F" rx="11" ry="11" style="stroke: #A80036; stroke-width: 1.0;"/><path d="M193.7094,30 L185.9906,30 L185.9906,17.6094 L193.7094,17.6094 L193.7094,19.7656 L188.4438,19.7656 L188.4438,22.4375 L193.2094,22.4375 L193.2094,24.5938 L188.4438,24.5938 L188.4438,27.8438 L193.7094,27.8438 L193.7094,30 Z "/><text fill="#000000" font-family="sans-serif" font-size="12" lengthAdjust="spacingAndGlyphs" textLength="50" x="204.4" y="28.1543">CutType</text><line style="stroke: #A80036; stroke-width: 1.5;" x1="172" x2="260" y1="40" y2="40"/><text fill="#000000" font-family="sans-serif" font-size="11" lengthAdjust="spacingAndGlyphs" textLength="64" x="177" y="54.2104">DirectorCut</text><text fill="#000000" font-family="sans-serif" font-size="11" lengthAdjust="spacingAndGlyphs" textLength="52" x="177" y="67.0151">Extended</text><text fill="#000000" font-family="sans-serif" font-size="11" lengthAdjust="spacingAndGlyphs" textLength="45" x="177" y="79.8198">FinalCut</text><text fill="#000000" font-family="sans-serif" font-size="11" lengthAdjust="spacingAndGlyphs" textLength="78" x="177" y="92.6245">HomeRelease</text><text fill="#000000" font-family="sans-serif" font-size="11" lengthAdjust="spacingAndGlyphs" textLength="71" x="177" y="105.4292">International</text><text fill="#000000" font-family="sans-serif" font-size="11" lengthAdjust="spacingAndGlyphs" textLength="44" x="177" y="118.2339">Original</text><text fill="#000000" font-family="sans-serif" font-size="11" lengthAdjust="spacingAndGlyphs" textLength="32" x="177" y="131.0386">Other</text><text fill="#000000" font-family="sans-serif" font-size="11" lengthAdjust="spacingAndGlyphs" textLength="56" x="177" y="143.8433">Theatrical</text><text fill="#000000" font-family="sans-serif" font-size="11" lengthAdjust="spacingAndGlyphs" textLength="32" x="177" y="156.6479">Uncut</text><line style="stroke: #A80036; stroke-width: 1.5;" x1="172" x2="260" y1="163.2422" y2="163.2422"/><!--MD5=[55a6f80882d3cd7368bedd1107f01aad]
class AudioTrack--><rect fill="#FEFECE" filter="url(#fn96i724dzvdz)" height="79.5469" id="AudioTrack" style="stroke: #A80036; stroke-width: 1.5;" width="140" x="565" y="1206"/><ellipse cx="590.8" cy="1224.9688" fill="#ADD1B2" rx="11" ry="11" style="stroke: #A80036; stroke-width: 1.0;"/><path d="M593.7688,1230.6094 Q593.1906,1230.9063 592.55,1231.0469 Q591.9094,1231.2031 591.2063,1231.2031 Q588.7063,1231.2031 587.3781,1229.5625 Q586.0656,1227.9063 586.0656,1224.7813 Q586.0656,1221.6563 587.3781,1220 Q588.7063,1218.3438 591.2063,1218.3438 Q591.9094,1218.3438 592.55,1218.5 Q593.2063,1218.6563 593.7688,1218.9531 L593.7688,1221.6719 Q593.1438,1221.0938 592.55,1220.8281 Q591.9563,1220.5469 591.3313,1220.5469 Q589.9875,1220.5469 589.3,1221.625 Q588.6125,1222.6875 588.6125,1224.7813 Q588.6125,1226.875 589.3,1227.9531 Q589.9875,1229.0156 591.3313,1229.0156 Q591.9563,1229.0156 592.55,1228.75 Q593.1438,1228.4688 593.7688,1227.8906 L593.7688,1230.6094 Z "/><text fill="#000000" font-family="sans-serif" font-size="12" font-style="italic" lengthAdjust="spacingAndGlyphs" textLength="88" x="605.2" y="1222.1387">«ValueObject»</text><text fill="#000000" font-family="sans-serif" font-size="12" lengthAdjust="spacingAndGlyphs" textLength="69" x="614.7" y="1236.1074">AudioTrack</text><line style="stroke: #A80036; stroke-width: 1.5;" x1="566" x2="704" y1="1243.9375" y2="1243.9375"/><text fill="#000000" font-family="sans-serif" font-size="11" lengthAdjust="spacingAndGlyphs" textLength="127" x="571" y="1258.1479">+Language: Language</text><text fill="#000000" font-family="sans-serif" font-size="11" lengthAdjust="spacingAndGlyphs" textLength="128" x="571" y="1270.9526">+Format: AudioFormat</text><line style="stroke: #A80036; stroke-width: 1.5;" x1="566" x2="704" y1="1277.5469" y2="1277.5469"/><!--MD5=[251e5e9a634775609afd3ea582383a27]
class AudioFormat--><rect fill="#FEFECE" filter="url(#fn96i724dzvdz)" height="99.2188" id="AudioFormat" style="stroke: #A80036; stroke-width: 1.5;" width="111" x="296.5" y="40"/><ellipse cx="311.5" cy="56" fill="#EB937F" rx="11" ry="11" style="stroke: #A80036; stroke-width: 1.0;"/><path d="M315.6094,62 L307.8906,62 L307.8906,49.6094 L315.6094,49.6094 L315.6094,51.7656 L310.3438,51.7656 L310.3438,54.4375 L315.1094,54.4375 L315.1094,56.5938 L310.3438,56.5938 L310.3438,59.8438 L315.6094,59.8438 L315.6094,62 Z "/><text fill="#000000" font-family="sans-serif" font-size="12" lengthAdjust="spacingAndGlyphs" textLength="79" x="325.5" y="60.1543">AudioFormat</text><line style="stroke: #A80036; stroke-width: 1.5;" x1="297.5" x2="406.5" y1="72" y2="72"/><text fill="#000000" font-family="sans-serif" font-size="11" lengthAdjust="spacingAndGlyphs" textLength="22" x="302.5" y="86.2104">AAC</text><text fill="#000000" font-family="sans-serif" font-size="11" lengthAdjust="spacingAndGlyphs" textLength="23" x="302.5" y="99.0151">DTS</text><text fill="#000000" font-family="sans-serif" font-size="11" lengthAdjust="spacingAndGlyphs" textLength="66" x="302.5" y="111.8198">DolbyDigital</text><text fill="#000000" font-family="sans-serif" font-size="11" lengthAdjust="spacingAndGlyphs" textLength="67" x="302.5" y="124.6245">DolbyAtmos</text><line style="stroke: #A80036; stroke-width: 1.5;" x1="297.5" x2="406.5" y1="131.2188" y2="131.2188"/><!--MD5=[604575fdb45ee3504bf55618cb71a1d3]
class Language--><rect fill="#FEFECE" filter="url(#fn96i724dzvdz)" height="66.7422" id="Language" style="stroke: #A80036; stroke-width: 1.5;" width="116" x="13" y="301.5"/><ellipse cx="28" cy="320.4688" fill="#ADD1B2" rx="11" ry="11" style="stroke: #A80036; stroke-width: 1.0;"/><path d="M30.9688,326.1094 Q30.3906,326.4063 29.75,326.5469 Q29.1094,326.7031 28.4063,326.7031 Q25.9063,326.7031 24.5781,325.0625 Q23.2656,323.4063 23.2656,320.2813 Q23.2656,317.1563 24.5781,315.5 Q25.9063,313.8438 28.4063,313.8438 Q29.1094,313.8438 29.75,314 Q30.4063,314.1563 30.9688,314.4531 L30.9688,317.1719 Q30.3438,316.5938 29.75,316.3281 Q29.1563,316.0469 28.5313,316.0469 Q27.1875,316.0469 26.5,317.125 Q25.8125,318.1875 25.8125,320.2813 Q25.8125,322.375 26.5,323.4531 Q27.1875,324.5156 28.5313,324.5156 Q29.1563,324.5156 29.75,324.25 Q30.3438,323.9688 30.9688,323.3906 L30.9688,326.1094 Z "/><text fill="#000000" font-family="sans-serif" font-size="12" font-style="italic" lengthAdjust="spacingAndGlyphs" textLength="88" x="40" y="317.6387">«ValueObject»</text><text fill="#000000" font-family="sans-serif" font-size="12" lengthAdjust="spacingAndGlyphs" textLength="62" x="53" y="331.6074">Language</text><line style="stroke: #A80036; stroke-width: 1.5;" x1="14" x2="128" y1="339.4375" y2="339.4375"/><text fill="#000000" font-family="sans-serif" font-size="11" lengthAdjust="spacingAndGlyphs" textLength="79" x="19" y="353.6479">+Code: string</text><line style="stroke: #A80036; stroke-width: 1.5;" x1="14" x2="128" y1="360.2422" y2="360.2422"/><!--MD5=[3982fa70cae73f6ba527a3dcd1bfde1b]
class SubtitleTrack--><rect fill="#FEFECE" filter="url(#fn96i724dzvdz)" height="92.3516" id="SubtitleTrack" style="stroke: #A80036; stroke-width: 1.5;" width="139" x="740.5" y="1200"/><ellipse cx="765.85" cy="1218.9688" fill="#ADD1B2" rx="11" ry="11" style="stroke: #A80036; stroke-width: 1.0;"/><path d="M768.8188,1224.6094 Q768.2406,1224.9063 767.6,1225.0469 Q766.9594,1225.2031 766.2563,1225.2031 Q763.7563,1225.2031 762.4281,1223.5625 Q761.1156,1221.9063 761.1156,1218.7813 Q761.1156,1215.6563 762.4281,1214 Q763.7563,1212.3438 766.2563,1212.3438 Q766.9594,1212.3438 767.6,1212.5 Q768.2563,1212.6563 768.8188,1212.9531 L768.8188,1215.6719 Q768.1938,1215.0938 767.6,1214.8281 Q767.0063,1214.5469 766.3813,1214.5469 Q765.0375,1214.5469 764.35,1215.625 Q763.6625,1216.6875 763.6625,1218.7813 Q763.6625,1220.875 764.35,1221.9531 Q765.0375,1223.0156 766.3813,1223.0156 Q767.0063,1223.0156 767.6,1222.75 Q768.1938,1222.4688 768.8188,1221.8906 L768.8188,1224.6094 Z "/><text fill="#000000" font-family="sans-serif" font-size="12" font-style="italic" lengthAdjust="spacingAndGlyphs" textLength="88" x="780.15" y="1216.1387">«ValueObject»</text><text fill="#000000" font-family="sans-serif" font-size="12" lengthAdjust="spacingAndGlyphs" textLength="82" x="783.15" y="1230.1074">SubtitleTrack</text><line style="stroke: #A80036; stroke-width: 1.5;" x1="741.5" x2="878.5" y1="1237.9375" y2="1237.9375"/><text fill="#000000" font-family="sans-serif" font-size="11" lengthAdjust="spacingAndGlyphs" textLength="127" x="746.5" y="1252.1479">+Language: Language</text><text fill="#000000" font-family="sans-serif" font-size="11" lengthAdjust="spacingAndGlyphs" textLength="99" x="746.5" y="1264.9526">+Region?: Region</text><text fill="#000000" font-family="sans-serif" font-size="11" lengthAdjust="spacingAndGlyphs" textLength="114" x="746.5" y="1277.7573">+Type: SubtitleType</text><line style="stroke: #A80036; stroke-width: 1.5;" x1="741.5" x2="878.5" y1="1284.3516" y2="1284.3516"/><!--MD5=[4196e74eaaaeeadf20a1873bdf7bd531]
class SubtitleType--><rect fill="#FEFECE" filter="url(#fn96i724dzvdz)" height="86.4141" id="SubtitleType" style="stroke: #A80036; stroke-width: 1.5;" width="109" x="164.5" y="292"/><ellipse cx="179.5" cy="308" fill="#EB937F" rx="11" ry="11" style="stroke: #A80036; stroke-width: 1.0;"/><path d="M183.6094,314 L175.8906,314 L175.8906,301.6094 L183.6094,301.6094 L183.6094,303.7656 L178.3438,303.7656 L178.3438,306.4375 L183.1094,306.4375 L183.1094,308.5938 L178.3438,308.5938 L178.3438,311.8438 L183.6094,311.8438 L183.6094,314 Z "/><text fill="#000000" font-family="sans-serif" font-size="12" lengthAdjust="spacingAndGlyphs" textLength="77" x="193.5" y="312.1543">SubtitleType</text><line style="stroke: #A80036; stroke-width: 1.5;" x1="165.5" x2="272.5" y1="324" y2="324"/><text fill="#000000" font-family="sans-serif" font-size="11" lengthAdjust="spacingAndGlyphs" textLength="52" x="170.5" y="338.2104">Standard</text><text fill="#000000" font-family="sans-serif" font-size="11" lengthAdjust="spacingAndGlyphs" textLength="24" x="170.5" y="351.0151">SDH</text><text fill="#000000" font-family="sans-serif" font-size="11" lengthAdjust="spacingAndGlyphs" textLength="16" x="170.5" y="363.8198">CC</text><line style="stroke: #A80036; stroke-width: 1.5;" x1="165.5" x2="272.5" y1="370.4141" y2="370.4141"/><!--MD5=[bdb7a498ae268604f9dee9fee1851af7]
class Region--><rect fill="#FEFECE" filter="url(#fn96i724dzvdz)" height="66.7422" id="Region" style="stroke: #A80036; stroke-width: 1.5;" width="116" x="309" y="301.5"/><ellipse cx="324" cy="320.4688" fill="#ADD1B2" rx="11" ry="11" style="stroke: #A80036; stroke-width: 1.0;"/><path d="M326.9688,326.1094 Q326.3906,326.4063 325.75,326.5469 Q325.1094,326.7031 324.4063,326.7031 Q321.9063,326.7031 320.5781,325.0625 Q319.2656,323.4063 319.2656,320.2813 Q319.2656,317.1563 320.5781,315.5 Q321.9063,313.8438 324.4063,313.8438 Q325.1094,313.8438 325.75,314 Q326.4063,314.1563 326.9688,314.4531 L326.9688,317.1719 Q326.3438,316.5938 325.75,316.3281 Q325.1563,316.0469 324.5313,316.0469 Q323.1875,316.0469 322.5,317.125 Q321.8125,318.1875 321.8125,320.2813 Q321.8125,322.375 322.5,323.4531 Q323.1875,324.5156 324.5313,324.5156 Q325.1563,324.5156 325.75,324.25 Q326.3438,323.9688 326.9688,323.3906 L326.9688,326.1094 Z "/><text fill="#000000" font-family="sans-serif" font-size="12" font-style="italic" lengthAdjust="spacingAndGlyphs" textLength="88" x="336" y="317.6387">«ValueObject»</text><text fill="#000000" font-family="sans-serif" font-size="12" lengthAdjust="spacingAndGlyphs" textLength="43" x="358.5" y="331.6074">Region</text><line style="stroke: #A80036; stroke-width: 1.5;" x1="310" x2="424" y1="339.4375" y2="339.4375"/><text fill="#000000" font-family="sans-serif" font-size="11" lengthAdjust="spacingAndGlyphs" textLength="79" x="315" y="353.6479">+Code: string</text><line style="stroke: #A80036; stroke-width: 1.5;" x1="310" x2="424" y1="360.2422" y2="360.2422"/><!--MD5=[e69084ab16b022bdbef99762ea85e9d6]
class Movie--><rect fill="#FEFECE" filter="url(#fn96i724dzvdz)" height="86.4141" id="Movie" style="stroke: #A80036; stroke-width: 1.5;" width="158" x="643" y="726"/><ellipse cx="700.25" cy="742" fill="#ADD1B2" rx="11" ry="11" style="stroke: #A80036; stroke-width: 1.0;"/><path d="M703.2188,747.6406 Q702.6406,747.9375 702,748.0781 Q701.3594,748.2344 700.6563,748.2344 Q698.1563,748.2344 696.8281,746.5938 Q695.5156,744.9375 695.5156,741.8125 Q695.5156,738.6875 696.8281,737.0313 Q698.1563,735.375 700.6563,735.375 Q701.3594,735.375 702,735.5313 Q702.6563,735.6875 703.2188,735.9844 L703.2188,738.7031 Q702.5938,738.125 702,737.8594 Q701.4063,737.5781 700.7813,737.5781 Q699.4375,737.5781 698.75,738.6563 Q698.0625,739.7188 698.0625,741.8125 Q698.0625,743.9063 698.75,744.9844 Q699.4375,746.0469 700.7813,746.0469 Q701.4063,746.0469 702,745.7813 Q702.5938,745.5 703.2188,744.9219 L703.2188,747.6406 Z "/><text fill="#000000" font-family="sans-serif" font-size="12" lengthAdjust="spacingAndGlyphs" textLength="35" x="720.75" y="746.1543">Movie</text><line style="stroke: #A80036; stroke-width: 1.5;" x1="644" x2="800" y1="758" y2="758"/><text fill="#000000" font-family="sans-serif" font-size="11" lengthAdjust="spacingAndGlyphs" textLength="131" x="649" y="772.2104">-_features: List&lt;UUID&gt;</text><line style="stroke: #A80036; stroke-width: 1.0;" x1="644" x2="800" y1="778.8047" y2="778.8047"/><text fill="#000000" font-family="sans-serif" font-size="11" lengthAdjust="spacingAndGlyphs" textLength="122" x="649" y="793.0151">+AddFeature(id): void</text><text fill="#000000" font-family="sans-serif" font-size="11" lengthAdjust="spacingAndGlyphs" textLength="146" x="649" y="805.8198">+RemoveFeature(id): void</text><!--MD5=[9022e2192881f166c529fc3ae75dec7b]
class TV--><rect fill="#FEFECE" filter="url(#fn96i724dzvdz)" height="137.6328" id="TV" style="stroke: #A80036; stroke-width: 1.5;" width="410" x="740" y="499"/><ellipse cx="933.25" cy="515" fill="#ADD1B2" rx="11" ry="11" style="stroke: #A80036; stroke-width: 1.0;"/><path d="M936.2188,520.6406 Q935.6406,520.9375 935,521.0781 Q934.3594,521.2344 933.6563,521.2344 Q931.1563,521.2344 929.8281,519.5938 Q928.5156,517.9375 928.5156,514.8125 Q928.5156,511.6875 929.8281,510.0313 Q931.1563,508.375 933.6563,508.375 Q934.3594,508.375 935,508.5313 Q935.6563,508.6875 936.2188,508.9844 L936.2188,511.7031 Q935.5938,511.125 935,510.8594 Q934.4063,510.5781 933.7813,510.5781 Q932.4375,510.5781 931.75,511.6563 Q931.0625,512.7188 931.0625,514.8125 Q931.0625,516.9063 931.75,517.9844 Q932.4375,519.0469 933.7813,519.0469 Q934.4063,519.0469 935,518.7813 Q935.5938,518.5 936.2188,517.9219 L936.2188,520.6406 Z "/><text fill="#000000" font-family="sans-serif" font-size="12" lengthAdjust="spacingAndGlyphs" textLength="15" x="953.75" y="519.1543">TV</text><line style="stroke: #A80036; stroke-width: 1.5;" x1="741" x2="1149" y1="531" y2="531"/><text fill="#000000" font-family="sans-serif" font-size="11" lengthAdjust="spacingAndGlyphs" textLength="105" x="746" y="545.2104">+Status: TVStatus</text><text fill="#000000" font-family="sans-serif" font-size="11" lengthAdjust="spacingAndGlyphs" textLength="129" x="746" y="558.0151">+EndedOn?: LocalDate</text><text fill="#000000" font-family="sans-serif" font-size="11" lengthAdjust="spacingAndGlyphs" textLength="132" x="746" y="570.8198">-_seasons: List&lt;UUID&gt;</text><line style="stroke: #A80036; stroke-width: 1.0;" x1="741" x2="1149" y1="577.4141" y2="577.4141"/><text fill="#000000" font-family="sans-serif" font-size="11" lengthAdjust="spacingAndGlyphs" textLength="122" x="746" y="591.6245">+AddSeason(id): void</text><text fill="#000000" font-family="sans-serif" font-size="11" lengthAdjust="spacingAndGlyphs" textLength="146" x="746" y="604.4292">+RemoveSeason(id): void</text><text fill="#000000" font-family="sans-serif" font-size="11" lengthAdjust="spacingAndGlyphs" textLength="398" x="746" y="617.2339">+AddEpisodeToSeason(seasonId, episodeId, number?, airDate, role?)</text><text fill="#000000" font-family="sans-serif" font-size="11" lengthAdjust="spacingAndGlyphs" textLength="294" x="746" y="630.0386">+RemoveEpisodeFromSeason(seasonId, episodeId)</text><!--MD5=[ec068ab7b1cfb32e88f15482ccdce528]
class TVStatus--><rect fill="#FEFECE" filter="url(#fn96i724dzvdz)" height="99.2188" id="TVStatus" style="stroke: #A80036; stroke-width: 1.5;" width="88" x="27" y="518.5"/><ellipse cx="42" cy="534.5" fill="#EB937F" rx="11" ry="11" style="stroke: #A80036; stroke-width: 1.0;"/><path d="M46.1094,540.5 L38.3906,540.5 L38.3906,528.1094 L46.1094,528.1094 L46.1094,530.2656 L40.8438,530.2656 L40.8438,532.9375 L45.6094,532.9375 L45.6094,535.0938 L40.8438,535.0938 L40.8438,538.3438 L46.1094,538.3438 L46.1094,540.5 Z "/><text fill="#000000" font-family="sans-serif" font-size="12" lengthAdjust="spacingAndGlyphs" textLength="56" x="56" y="538.6543">TVStatus</text><line style="stroke: #A80036; stroke-width: 1.5;" x1="28" x2="114" y1="550.5" y2="550.5"/><text fill="#000000" font-family="sans-serif" font-size="11" lengthAdjust="spacingAndGlyphs" textLength="47" x="33" y="564.7104">Ongoing</text><text fill="#000000" font-family="sans-serif" font-size="11" lengthAdjust="spacingAndGlyphs" textLength="35" x="33" y="577.5151">Ended</text><text fill="#000000" font-family="sans-serif" font-size="11" lengthAdjust="spacingAndGlyphs" textLength="55" x="33" y="590.3198">Cancelled</text><text fill="#000000" font-family="sans-serif" font-size="11" lengthAdjust="spacingAndGlyphs" textLength="51" x="33" y="603.1245">Unknown</text><line style="stroke: #A80036; stroke-width: 1.5;" x1="28" x2="114" y1="609.7188" y2="609.7188"/><!--MD5=[2916714cae8f0462c1096d4fd55ce4c3]
class Season--><rect fill="#FEFECE" filter="url(#fn96i724dzvdz)" height="143.5703" id="Season" style="stroke: #A80036; stroke-width: 1.5;" width="236" x="836" y="697"/><ellipse cx="926.25" cy="715.9688" fill="#ADD1B2" rx="11" ry="11" style="stroke: #A80036; stroke-width: 1.0;"/><path d="M929.2188,721.6094 Q928.6406,721.9063 928,722.0469 Q927.3594,722.2031 926.6563,722.2031 Q924.1563,722.2031 922.8281,720.5625 Q921.5156,718.9063 921.5156,715.7813 Q921.5156,712.6563 922.8281,711 Q924.1563,709.3438 926.6563,709.3438 Q927.3594,709.3438 928,709.5 Q928.6563,709.6563 929.2188,709.9531 L929.2188,712.6719 Q928.5938,712.0938 928,711.8281 Q927.4063,711.5469 926.7813,711.5469 Q925.4375,711.5469 924.75,712.625 Q924.0625,713.6875 924.0625,715.7813 Q924.0625,717.875 924.75,718.9531 Q925.4375,720.0156 926.7813,720.0156 Q927.4063,720.0156 928,719.75 Q928.5938,719.4688 929.2188,718.8906 L929.2188,721.6094 Z "/><text fill="#000000" font-family="sans-serif" font-size="12" font-style="italic" lengthAdjust="spacingAndGlyphs" textLength="50" x="945.25" y="713.1387">«Entity»</text><text fill="#000000" font-family="sans-serif" font-size="12" lengthAdjust="spacingAndGlyphs" textLength="47" x="946.75" y="727.1074">Season</text><line style="stroke: #A80036; stroke-width: 1.5;" x1="837" x2="1071" y1="734.9375" y2="734.9375"/><text fill="#000000" font-family="sans-serif" font-size="11" lengthAdjust="spacingAndGlyphs" textLength="54" x="842" y="749.1479">+Id: UUID</text><text fill="#000000" font-family="sans-serif" font-size="11" lengthAdjust="spacingAndGlyphs" textLength="119" x="842" y="761.9526">+SeasonNumber: int</text><text fill="#000000" font-family="sans-serif" font-size="11" lengthAdjust="spacingAndGlyphs" textLength="80" x="842" y="774.7573">+Title: string?</text><text fill="#000000" font-family="sans-serif" font-size="11" lengthAdjust="spacingAndGlyphs" textLength="120" x="842" y="787.562">+Description: string?</text><text fill="#000000" font-family="sans-serif" font-size="11" lengthAdjust="spacingAndGlyphs" textLength="149" x="842" y="800.3667">_episodes: List&lt;Episode&gt;</text><line style="stroke: #A80036; stroke-width: 1.0;" x1="837" x2="1071" y1="806.9609" y2="806.9609"/><text fill="#000000" font-family="sans-serif" font-size="11" lengthAdjust="spacingAndGlyphs" textLength="224" x="842" y="821.1714">+AddEpisode(id, number, airDate, role)</text><text fill="#000000" font-family="sans-serif" font-size="11" lengthAdjust="spacingAndGlyphs" textLength="117" x="842" y="833.9761">+RemoveEpisode(id)</text><!--MD5=[89f1af135d226d270851fb7756972918]
class Episode--><rect fill="#FEFECE" filter="url(#fn96i724dzvdz)" height="105.1563" id="Episode" style="stroke: #A80036; stroke-width: 1.5;" width="173" x="821.5" y="901"/><ellipse cx="878.75" cy="919.9688" fill="#ADD1B2" rx="11" ry="11" style="stroke: #A80036; stroke-width: 1.0;"/><path d="M881.7188,925.6094 Q881.1406,925.9063 880.5,926.0469 Q879.8594,926.2031 879.1563,926.2031 Q876.6563,926.2031 875.3281,924.5625 Q874.0156,922.9063 874.0156,919.7813 Q874.0156,916.6563 875.3281,915 Q876.6563,913.3438 879.1563,913.3438 Q879.8594,913.3438 880.5,913.5 Q881.1563,913.6563 881.7188,913.9531 L881.7188,916.6719 Q881.0938,916.0938 880.5,915.8281 Q879.9063,915.5469 879.2813,915.5469 Q877.9375,915.5469 877.25,916.625 Q876.5625,917.6875 876.5625,919.7813 Q876.5625,921.875 877.25,922.9531 Q877.9375,924.0156 879.2813,924.0156 Q879.9063,924.0156 880.5,923.75 Q881.0938,923.4688 881.7188,922.8906 L881.7188,925.6094 Z "/><text fill="#000000" font-family="sans-serif" font-size="12" font-style="italic" lengthAdjust="spacingAndGlyphs" textLength="50" x="899.25" y="917.1387">«Entity»</text><text fill="#000000" font-family="sans-serif" font-size="12" lengthAdjust="spacingAndGlyphs" textLength="50" x="899.25" y="931.1074">Episode</text><line style="stroke: #A80036; stroke-width: 1.5;" x1="822.5" x2="993.5" y1="938.9375" y2="938.9375"/><text fill="#000000" font-family="sans-serif" font-size="11" lengthAdjust="spacingAndGlyphs" textLength="96" x="827.5" y="953.1479">+contentId: UUID</text><text fill="#000000" font-family="sans-serif" font-size="11" lengthAdjust="spacingAndGlyphs" textLength="127" x="827.5" y="965.9526">+EpisodeNumber?: int</text><text fill="#000000" font-family="sans-serif" font-size="11" lengthAdjust="spacingAndGlyphs" textLength="113" x="827.5" y="978.7573">+AirDate: LocalDate</text><text fill="#000000" font-family="sans-serif" font-size="11" lengthAdjust="spacingAndGlyphs" textLength="161" x="827.5" y="991.562">+EpisodeRole?: EpisodeRole</text><line style="stroke: #A80036; stroke-width: 1.5;" x1="822.5" x2="993.5" y1="998.1563" y2="998.1563"/><!--MD5=[07d2bb4561db7ebe8a29842a6983f241]
class EpisodeRole--><rect fill="#FEFECE" filter="url(#fn96i724dzvdz)" height="86.4141" id="EpisodeRole" style="stroke: #A80036; stroke-width: 1.5;" width="109" x="150.5" y="525"/><ellipse cx="165.5" cy="541" fill="#EB937F" rx="11" ry="11" style="stroke: #A80036; stroke-width: 1.0;"/><path d="M169.6094,547 L161.8906,547 L161.8906,534.6094 L169.6094,534.6094 L169.6094,536.7656 L164.3438,536.7656 L164.3438,539.4375 L169.1094,539.4375 L169.1094,541.5938 L164.3438,541.5938 L164.3438,544.8438 L169.6094,544.8438 L169.6094,547 Z "/><text fill="#000000" font-family="sans-serif" font-size="12" lengthAdjust="spacingAndGlyphs" textLength="77" x="179.5" y="545.1543">EpisodeRole</text><line style="stroke: #A80036; stroke-width: 1.5;" x1="151.5" x2="258.5" y1="557" y2="557"/><text fill="#000000" font-family="sans-serif" font-size="11" lengthAdjust="spacingAndGlyphs" textLength="43" x="156.5" y="571.2104">Regular</text><text fill="#000000" font-family="sans-serif" font-size="11" lengthAdjust="spacingAndGlyphs" textLength="36" x="156.5" y="584.0151">Bonus</text><text fill="#000000" font-family="sans-serif" font-size="11" lengthAdjust="spacingAndGlyphs" textLength="41" x="156.5" y="596.8198">Special</text><line style="stroke: #A80036; stroke-width: 1.5;" x1="151.5" x2="258.5" y1="603.4141" y2="603.4141"/><!--MD5=[1a95835255177050dd8028a7da1b3a6a]
class Contributor--><rect fill="#FEFECE" filter="url(#fn96i724dzvdz)" height="48" id="Contributor" style="stroke: #A80036; stroke-width: 1.5;" width="103" x="382.5" y="745"/><ellipse cx="397.5" cy="761" fill="#ADD1B2" rx="11" ry="11" style="stroke: #A80036; stroke-width: 1.0;"/><path d="M400.4688,766.6406 Q399.8906,766.9375 399.25,767.0781 Q398.6094,767.2344 397.9063,767.2344 Q395.4063,767.2344 394.0781,765.5938 Q392.7656,763.9375 392.7656,760.8125 Q392.7656,757.6875 394.0781,756.0313 Q395.4063,754.375 397.9063,754.375 Q398.6094,754.375 399.25,754.5313 Q399.9063,754.6875 400.4688,754.9844 L400.4688,757.7031 Q399.8438,757.125 399.25,756.8594 Q398.6563,756.5781 398.0313,756.5781 Q396.6875,756.5781 396,757.6563 Q395.3125,758.7188 395.3125,760.8125 Q395.3125,762.9063 396,763.9844 Q396.6875,765.0469 398.0313,765.0469 Q398.6563,765.0469 399.25,764.7813 Q399.8438,764.5 400.4688,763.9219 L400.4688,766.6406 Z "/><text fill="#000000" font-family="sans-serif" font-size="12" lengthAdjust="spacingAndGlyphs" textLength="71" x="411.5" y="765.1543">Contributor</text><line style="stroke: #A80036; stroke-width: 1.5;" x1="383.5" x2="484.5" y1="777" y2="777"/><line style="stroke: #A80036; stroke-width: 1.5;" x1="383.5" x2="484.5" y1="785" y2="785"/><!--MD5=[9ad4f954b28ad54f2491927702a17c0b]
reverse link MediaWork to Contribution--><path d="M532.4,449.23 C510.9,474.95 489.28,500.83 471.8,521.75 " fill="none" id="MediaWork&lt;-Contribution" style="stroke: #A80036; stroke-width: 1.0;"/><polygon fill="#A80036" points="540.94,439,534.022,441.035,533.2396,448.2035,540.1577,446.1685,540.94,439" style="stroke: #A80036; stroke-width: 1.0;"/><text fill="#000000" font-family="sans-serif" font-size="13" lengthAdjust="spacingAndGlyphs" textLength="8" x="526.8891" y="458.5764">1</text><text fill="#000000" font-family="sans-serif" font-size="13" lengthAdjust="spacingAndGlyphs" textLength="23" x="452.6628" y="510.9063">1..*</text><!--MD5=[6bfd38223bfcf85fe0a1d8f856fb6bfe]
reverse link MediaWork to Content--><path d="M621.34,452.24 C614.64,589.94 603.81,812.59 599.19,907.41 " fill="none" id="MediaWork&lt;-Content" style="stroke: #A80036; stroke-width: 1.0;"/><polygon fill="#A80036" points="621.98,439.19,617.6946,444.9896,621.3998,451.176,625.6852,445.3764,621.98,439.19" style="stroke: #A80036; stroke-width: 1.0;"/><text fill="#000000" font-family="sans-serif" font-size="13" lengthAdjust="spacingAndGlyphs" textLength="8" x="613.374" y="458.7792">1</text><text fill="#000000" font-family="sans-serif" font-size="13" lengthAdjust="spacingAndGlyphs" textLength="23" x="574.8226" y="896.5898">0..*</text><!--MD5=[6f2cdbc98b0558b784c7cac9865fcd06]
reverse link Content to PlayableContent--><path d="M648.23,1014.95 C662.8,1032.15 678.22,1050.34 691.17,1065.62 " fill="none" id="Content&lt;-PlayableContent" style="stroke: #A80036; stroke-width: 1.0;"/><polygon fill="none" points="642.77,1019.34,635.18,999.56,653.45,1010.29,642.77,1019.34" style="stroke: #A80036; stroke-width: 1.0;"/><!--MD5=[66cb92c5741c367094de724f81452974]
reverse link PlayableContent to AudioTrack--><path d="M692.66,1151.55 C681.77,1169.21 669.54,1189.02 659.16,1205.84 " fill="none" id="PlayableContent&lt;-AudioTrack" style="stroke: #A80036; stroke-width: 1.0;"/><polygon fill="#A80036" points="699.6,1140.31,693.0468,1143.3193,693.3042,1150.5258,699.8574,1147.5165,699.6,1140.31" style="stroke: #A80036; stroke-width: 1.0;"/><text fill="#000000" font-family="sans-serif" font-size="13" lengthAdjust="spacingAndGlyphs" textLength="8" x="687.3925" y="1159.5602">1</text><text fill="#000000" font-family="sans-serif" font-size="13" lengthAdjust="spacingAndGlyphs" textLength="23" x="638.2568" y="1195.0617">0..*</text><!--MD5=[aa579dfc5e2944f27b3f7ea2afec268c]
reverse link PlayableContent to SubtitleTrack--><path d="M751.57,1151.38 C761.36,1167.07 772.23,1184.48 781.9,1199.98 " fill="none" id="PlayableContent&lt;-SubtitleTrack" style="stroke: #A80036; stroke-width: 1.0;"/><polygon fill="#A80036" points="744.66,1140.31,744.4446,1147.5179,751.0152,1150.4889,751.2306,1143.2811,744.66,1140.31" style="stroke: #A80036; stroke-width: 1.0;"/><text fill="#000000" font-family="sans-serif" font-size="13" lengthAdjust="spacingAndGlyphs" textLength="8" x="739.6339" y="1159.5602">1</text><text fill="#000000" font-family="sans-serif" font-size="13" lengthAdjust="spacingAndGlyphs" textLength="23" x="752.8363" y="1188.8349">0..*</text><!--MD5=[b4eda47159ac83c9c6c712fe6500fc66]
reverse link MediaWork to Movie--><path d="M654,458.76 C673.71,548.41 699.26,664.58 712.73,725.86 " fill="none" id="MediaWork&lt;-Movie" style="stroke: #A80036; stroke-width: 1.0;"/><polygon fill="none" points="647.15,460.24,649.69,439.2,660.83,457.23,647.15,460.24" style="stroke: #A80036; stroke-width: 1.0;"/><!--MD5=[d2ecc413acd6e4d5a7cde9549edf0625]
link Movie to PlayableContent--><path d="M722,812.05 C722,876.03 722,997.09 722,1060.65 " fill="none" id="Movie-&gt;PlayableContent" style="stroke: #A80036; stroke-width: 1.0; stroke-dasharray: 7.0,7.0;"/><polygon fill="#A80036" points="722,1065.88,726,1056.88,722,1060.88,718,1056.88,722,1065.88" style="stroke: #A80036; stroke-width: 1.0;"/><!--MD5=[44933fc1c458e8d4c3fc9b342af6b109]
reverse link MediaWork to TV--><path d="M749.3,424.84 C783.16,449.44 819.37,475.74 851.32,498.95 " fill="none" id="MediaWork&lt;-TV" style="stroke: #A80036; stroke-width: 1.0;"/><polygon fill="none" points="744.96,430.34,732.89,412.92,753.18,419.01,744.96,430.34" style="stroke: #A80036; stroke-width: 1.0;"/><!--MD5=[214de68e22dbb54cfb3bb7ba7775e660]
reverse link TV to Season--><path d="M948.69,650.51 C949.38,665.87 950.1,681.82 950.78,696.83 " fill="none" id="TV&lt;-Season" style="stroke: #A80036; stroke-width: 1.0;"/><polygon fill="#A80036" points="948.08,637.21,944.3544,643.3841,948.6207,649.1978,952.3463,643.0237,948.08,637.21" style="stroke: #A80036; stroke-width: 1.0;"/><text fill="#000000" font-family="sans-serif" font-size="13" lengthAdjust="spacingAndGlyphs" textLength="8" x="939.9923" y="656.6121">1</text><text fill="#000000" font-family="sans-serif" font-size="13" lengthAdjust="spacingAndGlyphs" textLength="23" x="926.262" y="685.7099">1..*</text><!--MD5=[ff064e4e2613780c041fbf5360d2bb00]
reverse link Season to Episode--><path d="M932.87,853.83 C928.83,869.85 924.72,886.18 921.03,900.82 " fill="none" id="Season&lt;-Episode" style="stroke: #A80036; stroke-width: 1.0;"/><polygon fill="#A80036" points="936.08,841.08,930.7378,845.9236,933.1541,852.7178,938.4963,847.8742,936.08,841.08" style="stroke: #A80036; stroke-width: 1.0;"/><text fill="#000000" font-family="sans-serif" font-size="13" lengthAdjust="spacingAndGlyphs" textLength="8" x="925.9908" y="860.7587">1</text><text fill="#000000" font-family="sans-serif" font-size="13" lengthAdjust="spacingAndGlyphs" textLength="23" x="898.2356" y="889.7986">1..*</text><!--MD5=[9b1e0c9b1b7df58fa8be67b96718dd0f]
link Episode to PlayableContent--><path d="M842.95,1006.09 C819.47,1024.7 793.38,1045.39 771.46,1062.78 " fill="none" id="Episode-&gt;PlayableContent" style="stroke: #A80036; stroke-width: 1.0; stroke-dasharray: 7.0,7.0;"/><polygon fill="#A80036" points="767.42,1065.98,776.9631,1063.545,771.3451,1062.8827,772.0074,1057.2648,767.42,1065.98" style="stroke: #A80036; stroke-width: 1.0;"/><!--MD5=[96eca555c283861625927cf39bbe0ece]
link Contribution to Contributor--><path d="M434,614.16 C434,652.8 434,707.22 434,739.9 " fill="none" id="Contribution-&gt;Contributor" style="stroke: #A80036; stroke-width: 1.0; stroke-dasharray: 7.0,7.0;"/><polygon fill="#A80036" points="434,744.96,438,735.96,434,739.96,430,735.96,434,744.96" style="stroke: #A80036; stroke-width: 1.0;"/><!--MD5=[31d224b1485796796e2c2d5560997cb2]
link ContributorRole to CutType--><!--MD5=[763dd48142a8cf981d69380f0bf95848]
link CutType to AudioFormat--><!--MD5=[ed1c3ca8d8bbde2b1d1b3d6382b82f89]
link ContributorRole to Language--><!--MD5=[74a001c1df2bd3bcf2fa0c4f0139f7e0]
link Language to SubtitleType--><!--MD5=[1ab5225975b976a0dd8563c02e5dfc09]
link SubtitleType to Region--><!--MD5=[edcbf2cd9885d997772d08b056ecceea]
link Language to TVStatus--><!--MD5=[3ec277588cdc5ed9689a79e2f250b553]
link TVStatus to EpisodeRole--><!--MD5=[b97de8bff4b723a5c01c74cd28ce8e12]
@startuml
skinparam classAttributeIconSize 0

class MediaWork <<AggregateRoot>> {
    +Id: UUID
    +Title: string
    +Description?: string
    +OriginalReleaseDate: LocalDate
    #creatorRoles: List<string>
    -_contributions: List<Contribution>
    -_content: List<Content>
    - -
    +AddContribution(id, role): void
    +RemoveContribution(id): void
    +AddContent(content): void
    +RemoveContent(id): void
    +IsCreatorRole(role): bool
}

note top of MediaWork
Invariant:
- Must have at least one creator contribution
- Cannot remove last creator
- All Features / Episodes must reference a
  Content that is a PlayableContent inside
  MediaWork._contents
end note

class Contribution <<Entity>> {
    +Id: UUID
    +ContributorId: UUID
    +ContributorRole: ContributorRole
}

class ContributorRole <<ValueObject>> {
    +Name: string
}

MediaWork "1" *- - "1..*" Contribution

class Content <<Entity>> {
    +Id: UUID
    +Title?: string
    +Description?: string
}

MediaWork "1" *- - "0..*" Content

class PlayableContent {
    +RuntimeMinutes: int
    +CutType?: CutType
}

enum CutType {
    DirectorCut
    Extended
    FinalCut
    HomeRelease
    International
    Original
    Other
    Theatrical
    Uncut
}

Content <|- - PlayableContent

class AudioTrack <<ValueObject>> {
    +Language: Language
    +Format: AudioFormat
}

enum AudioFormat {
    AAC
    DTS
    DolbyDigital
    DolbyAtmos
}

class Language <<ValueObject>> {
    +Code: string
}

PlayableContent "1" *- - "0..*" AudioTrack

class SubtitleTrack <<ValueObject>> {
    +Language: Language
    +Region?: Region
    +Type: SubtitleType
}

enum SubtitleType {
    Standard
    SDH
    CC
}

class Region <<ValueObject>> {
    +Code: string
}

PlayableContent "1" *- - "0..*" SubtitleTrack

class Movie {
    -_features: List<UUID>
    - -
    +AddFeature(id): void
    +RemoveFeature(id): void
}

MediaWork <|- - Movie
Movie ..> PlayableContent

class TV {
    +Status: TVStatus
    +EndedOn?: LocalDate
    -_seasons: List<UUID>
    - -
    +AddSeason(id): void
    +RemoveSeason(id): void
    +AddEpisodeToSeason(seasonId, episodeId, number?, airDate, role?)
    +RemoveEpisodeFromSeason(seasonId, episodeId)
}

MediaWork <|- - TV

enum TVStatus {
    Ongoing
    Ended
    Cancelled
    Unknown
}

class Season <<Entity>> {
    +Id: UUID
    +SeasonNumber: int
    +Title: string?
    +Description: string?
    _episodes: List<Episode>
    - -
    +AddEpisode(id, number, airDate, role)
    +RemoveEpisode(id)
}

TV "1" *- - "1..*" Season

class Episode <<Entity>> {
    +contentId: UUID
    +EpisodeNumber?: int
    +AirDate: LocalDate
    +EpisodeRole?: EpisodeRole
}

Season "1" *- - "1..*" Episode
Episode ..> PlayableContent

enum EpisodeRole {
    Regular
    Bonus
    Special
}

Contribution ..> Contributor

@enduml

PlantUML version 1.2020.02(Sun Mar 01 10:22:07 UTC 2020)
(GPL source distribution)
Java Runtime: OpenJDK Runtime Environment
JVM: OpenJDK 64-Bit Server VM
Java Version: 17.0.18+8
Operating System: Linux
Default Encoding: UTF-8
Language: en
Country: null
--></g></svg>