<?xml version="1.0" encoding="UTF-8" standalone="no"?><svg xmlns="http://www.w3.org/2000/svg" xmlns:xlink="http://www.w3.org/1999/xlink" contentScriptType="application/ecmascript" contentStyleType="text/css" height="1290px" preserveAspectRatio="none" style="width:976px;height:1290px;" version="1.1" viewBox="0 0 976 1290" width="976px" zoomAndPan="magnify"><defs><filter height="300%" id="f5ajx47q8a0nr" width="300%" x="-1" y="-1"><feGaussianBlur result="blurOut" stdDeviation="2.0"/><feColorMatrix in="blurOut" result="blurOut2" type="matrix" values="0 0 0 0 0 0 0 0 0 0 0 0 0 0 0 0 0 0 .4 0"/><feOffset dx="4.0" dy="4.0" in="blurOut2" result="blurOut3"/><feBlend in="SourceGraphic" in2="blurOut3" mode="normal"/></filter></defs><g><!--MD5=[c3dd83c4944f050787f4b644933234ea]
class MediaWork--><rect fill="#FEFECE" filter="url(#f5ajx47q8a0nr)" height="207.5938" id="MediaWork" style="stroke: #A80036; stroke-width: 1.5;" width="211" x="343.5" y="231"/><ellipse cx="392.25" cy="249.9688" fill="#ADD1B2" rx="11" ry="11" style="stroke: #A80036; stroke-width: 1.0;"/><path d="M395.2188,255.6094 Q394.6406,255.9063 394,256.0469 Q393.3594,256.2031 392.6563,256.2031 Q390.1563,256.2031 388.8281,254.5625 Q387.5156,252.9063 387.5156,249.7813 Q387.5156,246.6563 388.8281,245 Q390.1563,243.3438 392.6563,243.3438 Q393.3594,243.3438 394,243.5 Q394.6563,243.6563 395.2188,243.9531 L395.2188,246.6719 Q394.5938,246.0938 394,245.8281 Q393.4063,245.5469 392.7813,245.5469 Q391.4375,245.5469 390.75,246.625 Q390.0625,247.6875 390.0625,249.7813 Q390.0625,251.875 390.75,252.9531 Q391.4375,254.0156 392.7813,254.0156 Q393.4063,254.0156 394,253.75 Q394.5938,253.4688 395.2188,252.8906 L395.2188,255.6094 Z "/><text fill="#000000" font-family="sans-serif" font-size="12" font-style="italic" lengthAdjust="spacingAndGlyphs" textLength="109" x="410.75" y="247.1387">«AggregateRoot»</text><text fill="#000000" font-family="sans-serif" font-size="12" lengthAdjust="spacingAndGlyphs" textLength="68" x="431.25" y="261.1074">MediaWork</text><line style="stroke: #A80036; stroke-width: 1.5;" x1="344.5" x2="553.5" y1="268.9375" y2="268.9375"/><text fill="#000000" font-family="sans-serif" font-size="11" lengthAdjust="spacingAndGlyphs" textLength="54" x="349.5" y="283.1479">+Id: UUID</text><text fill="#000000" font-family="sans-serif" font-size="11" lengthAdjust="spacingAndGlyphs" textLength="74" x="349.5" y="295.9526">+Title: string</text><text fill="#000000" font-family="sans-serif" font-size="11" lengthAdjust="spacingAndGlyphs" textLength="120" x="349.5" y="308.7573">+Description?: string</text><text fill="#000000" font-family="sans-serif" font-size="11" lengthAdjust="spacingAndGlyphs" textLength="187" x="349.5" y="321.562">+OriginalReleaseDate: LocalDate</text><text fill="#000000" font-family="sans-serif" font-size="11" lengthAdjust="spacingAndGlyphs" textLength="194" x="349.5" y="334.3667">#creatorRoles: List&lt;CreatorRole&gt;</text><text fill="#000000" font-family="sans-serif" font-size="11" lengthAdjust="spacingAndGlyphs" textLength="199" x="349.5" y="347.1714">-_contributions: List&lt;Contribution&gt;</text><text fill="#000000" font-family="sans-serif" font-size="11" lengthAdjust="spacingAndGlyphs" textLength="142" x="349.5" y="359.9761">-_content: List&lt;Content&gt;</text><line style="stroke: #A80036; stroke-width: 1.0;" x1="344.5" x2="553.5" y1="366.5703" y2="366.5703"/><text fill="#000000" font-family="sans-serif" font-size="11" lengthAdjust="spacingAndGlyphs" textLength="178" x="349.5" y="380.7808">+AddContribution(id, role): void</text><text fill="#000000" font-family="sans-serif" font-size="11" lengthAdjust="spacingAndGlyphs" textLength="172" x="349.5" y="393.5854">+RemoveContribution(id): void</text><text fill="#000000" font-family="sans-serif" font-size="11" lengthAdjust="spacingAndGlyphs" textLength="155" x="349.5" y="406.3901">+AddContent(content): void</text><text fill="#000000" font-family="sans-serif" font-size="11" lengthAdjust="spacingAndGlyphs" textLength="147" x="349.5" y="419.1948">+RemoveContent(id): void</text><text fill="#000000" font-family="sans-serif" font-size="11" lengthAdjust="spacingAndGlyphs" textLength="148" x="349.5" y="431.9995">+IsCreatorRole(role): bool</text><path d="M296,39 L296,139.7969 A0,0 0 0 0 296,139.7969 L445,139.7969 L449,230.97 L453,139.7969 L602,139.7969 A0,0 0 0 0 602,139.7969 L602,49 L592,39 L296,39 A0,0 0 0 0 296,39 " fill="#FBFB77" filter="url(#f5ajx47q8a0nr)" style="stroke: #A80036; stroke-width: 1.0;"/><path d="M592,39 L592,49 L602,49 L592,39 " fill="#FBFB77" style="stroke: #A80036; stroke-width: 1.0;"/><text fill="#000000" font-family="sans-serif" font-size="13" lengthAdjust="spacingAndGlyphs" textLength="59" x="302" y="56.0669">Invariant:</text><text fill="#000000" font-family="sans-serif" font-size="13" lengthAdjust="spacingAndGlyphs" textLength="285" x="302" y="71.1997">- Must have at least one creator contribution</text><text fill="#000000" font-family="sans-serif" font-size="13" lengthAdjust="spacingAndGlyphs" textLength="185" x="302" y="86.3325">- Cannot remove last creator</text><text fill="#000000" font-family="sans-serif" font-size="13" lengthAdjust="spacingAndGlyphs" textLength="267" x="302" y="101.4653">- All Features / Episodes must reference a</text><text fill="#000000" font-family="sans-serif" font-size="13" lengthAdjust="spacingAndGlyphs" textLength="256" x="310" y="116.5981">Content that is a PlayableContent inside</text><text fill="#000000" font-family="sans-serif" font-size="13" lengthAdjust="spacingAndGlyphs" textLength="136" x="310" y="131.731">MediaWork._contents</text><!--MD5=[0330879a1a385efee19ba3488ed490fa]
class Contribution--><rect fill="#FEFECE" filter="url(#f5ajx47q8a0nr)" height="92.3516" id="Contribution" style="stroke: #A80036; stroke-width: 1.5;" width="205" x="146.5" y="522"/><ellipse cx="206.25" cy="540.9688" fill="#ADD1B2" rx="11" ry="11" style="stroke: #A80036; stroke-width: 1.0;"/><path d="M209.2188,546.6094 Q208.6406,546.9063 208,547.0469 Q207.3594,547.2031 206.6563,547.2031 Q204.1563,547.2031 202.8281,545.5625 Q201.5156,543.9063 201.5156,540.7813 Q201.5156,537.6563 202.8281,536 Q204.1563,534.3438 206.6563,534.3438 Q207.3594,534.3438 208,534.5 Q208.6563,534.6563 209.2188,534.9531 L209.2188,537.6719 Q208.5938,537.0938 208,536.8281 Q207.4063,536.5469 206.7813,536.5469 Q205.4375,536.5469 204.75,537.625 Q204.0625,538.6875 204.0625,540.7813 Q204.0625,542.875 204.75,543.9531 Q205.4375,545.0156 206.7813,545.0156 Q207.4063,545.0156 208,544.75 Q208.5938,544.4688 209.2188,543.8906 L209.2188,546.6094 Z "/><text fill="#000000" font-family="sans-serif" font-size="12" font-style="italic" lengthAdjust="spacingAndGlyphs" textLength="50" x="240.25" y="538.1387">«Entity»</text><text fill="#000000" font-family="sans-serif" font-size="12" lengthAdjust="spacingAndGlyphs" textLength="77" x="226.75" y="552.1074">Contribution</text><line style="stroke: #A80036; stroke-width: 1.5;" x1="147.5" x2="350.5" y1="559.9375" y2="559.9375"/><text fill="#000000" font-family="sans-serif" font-size="11" lengthAdjust="spacingAndGlyphs" textLength="54" x="152.5" y="574.1479">+Id: UUID</text><text fill="#000000" font-family="sans-serif" font-size="11" lengthAdjust="spacingAndGlyphs" textLength="118" x="152.5" y="586.9526">+ContributorId: UUID</text><text fill="#000000" font-family="sans-serif" font-size="11" lengthAdjust="spacingAndGlyphs" textLength="193" x="152.5" y="599.7573">+ContributorRole: ContributorRole</text><line style="stroke: #A80036; stroke-width: 1.5;" x1="147.5" x2="350.5" y1="606.3516" y2="606.3516"/><!--MD5=[dd2cb4d4918b743616ebdb19b9302e86]
class ContributorRole--><rect fill="#FEFECE" filter="url(#f5ajx47q8a0nr)" height="66.7422" id="ContributorRole" style="stroke: #A80036; stroke-width: 1.5;" width="130" x="6" y="56"/><ellipse cx="21" cy="74.9688" fill="#ADD1B2" rx="11" ry="11" style="stroke: #A80036; stroke-width: 1.0;"/><path d="M23.9688,80.6094 Q23.3906,80.9063 22.75,81.0469 Q22.1094,81.2031 21.4063,81.2031 Q18.9063,81.2031 17.5781,79.5625 Q16.2656,77.9063 16.2656,74.7813 Q16.2656,71.6563 17.5781,70 Q18.9063,68.3438 21.4063,68.3438 Q22.1094,68.3438 22.75,68.5 Q23.4063,68.6563 23.9688,68.9531 L23.9688,71.6719 Q23.3438,71.0938 22.75,70.8281 Q22.1563,70.5469 21.5313,70.5469 Q20.1875,70.5469 19.5,71.625 Q18.8125,72.6875 18.8125,74.7813 Q18.8125,76.875 19.5,77.9531 Q20.1875,79.0156 21.5313,79.0156 Q22.1563,79.0156 22.75,78.75 Q23.3438,78.4688 23.9688,77.8906 L23.9688,80.6094 Z "/><text fill="#000000" font-family="sans-serif" font-size="12" font-style="italic" lengthAdjust="spacingAndGlyphs" textLength="88" x="40" y="72.1387">«ValueObject»</text><text fill="#000000" font-family="sans-serif" font-size="12" lengthAdjust="spacingAndGlyphs" textLength="98" x="35" y="86.1074">ContributorRole</text><line style="stroke: #A80036; stroke-width: 1.5;" x1="7" x2="135" y1="93.9375" y2="93.9375"/><text fill="#000000" font-family="sans-serif" font-size="11" lengthAdjust="spacingAndGlyphs" textLength="83" x="12" y="108.1479">+Name: string</text><line style="stroke: #A80036; stroke-width: 1.5;" x1="7" x2="135" y1="114.7422" y2="114.7422"/><!--MD5=[fd7366e9f96236d9aa60dcc04f2b83e5]
class Content--><rect fill="#FEFECE" filter="url(#f5ajx47q8a0nr)" height="92.3516" id="Content" style="stroke: #A80036; stroke-width: 1.5;" width="132" x="346" y="907.5"/><ellipse cx="383.5" cy="926.4688" fill="#ADD1B2" rx="11" ry="11" style="stroke: #A80036; stroke-width: 1.0;"/><path d="M386.4688,932.1094 Q385.8906,932.4063 385.25,932.5469 Q384.6094,932.7031 383.9063,932.7031 Q381.4063,932.7031 380.0781,931.0625 Q378.7656,929.4063 378.7656,926.2813 Q378.7656,923.1563 380.0781,921.5 Q381.4063,919.8438 383.9063,919.8438 Q384.6094,919.8438 385.25,920 Q385.9063,920.1563 386.4688,920.4531 L386.4688,923.1719 Q385.8438,922.5938 385.25,922.3281 Q384.6563,922.0469 384.0313,922.0469 Q382.6875,922.0469 382,923.125 Q381.3125,924.1875 381.3125,926.2813 Q381.3125,928.375 382,929.4531 Q382.6875,930.5156 384.0313,930.5156 Q384.6563,930.5156 385.25,930.25 Q385.8438,929.9688 386.4688,929.3906 L386.4688,932.1094 Z "/><text fill="#000000" font-family="sans-serif" font-size="12" font-style="italic" lengthAdjust="spacingAndGlyphs" textLength="50" x="402.5" y="923.6387">«Entity»</text><text fill="#000000" font-family="sans-serif" font-size="12" lengthAdjust="spacingAndGlyphs" textLength="50" x="402.5" y="937.6074">Content</text><line style="stroke: #A80036; stroke-width: 1.5;" x1="347" x2="477" y1="945.4375" y2="945.4375"/><text fill="#000000" font-family="sans-serif" font-size="11" lengthAdjust="spacingAndGlyphs" textLength="54" x="352" y="959.6479">+Id: UUID</text><text fill="#000000" font-family="sans-serif" font-size="11" lengthAdjust="spacingAndGlyphs" textLength="80" x="352" y="972.4526">+Title?: string</text><text fill="#000000" font-family="sans-serif" font-size="11" lengthAdjust="spacingAndGlyphs" textLength="120" x="352" y="985.2573">+Description?: string</text><line style="stroke: #A80036; stroke-width: 1.5;" x1="347" x2="477" y1="991.8516" y2="991.8516"/><!--MD5=[9e73ca2041b22575b2d551193cb62c11]
class PlayableContent--><rect fill="#FEFECE" filter="url(#f5ajx47q8a0nr)" height="73.6094" id="PlayableContent" style="stroke: #A80036; stroke-width: 1.5;" width="134" x="470" y="1066"/><ellipse cx="485" cy="1082" fill="#ADD1B2" rx="11" ry="11" style="stroke: #A80036; stroke-width: 1.0;"/><path d="M487.9688,1087.6406 Q487.3906,1087.9375 486.75,1088.0781 Q486.1094,1088.2344 485.4063,1088.2344 Q482.9063,1088.2344 481.5781,1086.5938 Q480.2656,1084.9375 480.2656,1081.8125 Q480.2656,1078.6875 481.5781,1077.0313 Q482.9063,1075.375 485.4063,1075.375 Q486.1094,1075.375 486.75,1075.5313 Q487.4063,1075.6875 487.9688,1075.9844 L487.9688,1078.7031 Q487.3438,1078.125 486.75,1077.8594 Q486.1563,1077.5781 485.5313,1077.5781 Q484.1875,1077.5781 483.5,1078.6563 Q482.8125,1079.7188 482.8125,1081.8125 Q482.8125,1083.9063 483.5,1084.9844 Q484.1875,1086.0469 485.5313,1086.0469 Q486.1563,1086.0469 486.75,1085.7813 Q487.3438,1085.5 487.9688,1084.9219 L487.9688,1087.6406 Z "/><text fill="#000000" font-family="sans-serif" font-size="12" lengthAdjust="spacingAndGlyphs" textLength="102" x="499" y="1086.1543">PlayableContent</text><line style="stroke: #A80036; stroke-width: 1.5;" x1="471" x2="603" y1="1098" y2="1098"/><text fill="#000000" font-family="sans-serif" font-size="11" lengthAdjust="spacingAndGlyphs" textLength="121" x="476" y="1112.2104">+RuntimeMinutes: int</text><text fill="#000000" font-family="sans-serif" font-size="11" lengthAdjust="spacingAndGlyphs" textLength="115" x="476" y="1125.0151">+CutType?: CutType</text><line style="stroke: #A80036; stroke-width: 1.5;" x1="471" x2="603" y1="1131.6094" y2="1131.6094"/><!--MD5=[ffdd170a53eba6d79fedf145c7c9114b]
class CutType--><rect fill="#FEFECE" filter="url(#f5ajx47q8a0nr)" height="163.2422" id="CutType" style="stroke: #A80036; stroke-width: 1.5;" width="90" x="171" y="8"/><ellipse cx="189.6" cy="24" fill="#EB937F" rx="11" ry="11" style="stroke: #A80036; stroke-width: 1.0;"/><path d="M193.7094,30 L185.9906,30 L185.9906,17.6094 L193.7094,17.6094 L193.7094,19.7656 L188.4438,19.7656 L188.4438,22.4375 L193.2094,22.4375 L193.2094,24.5938 L188.4438,24.5938 L188.4438,27.8438 L193.7094,27.8438 L193.7094,30 Z "/><text fill="#000000" font-family="sans-serif" font-size="12" lengthAdjust="spacingAndGlyphs" textLength="50" x="204.4" y="28.1543">CutType</text><line style="stroke: #A80036; stroke-width: 1.5;" x1="172" x2="260" y1="40" y2="40"/><text fill="#000000" font-family="sans-serif" font-size="11" lengthAdjust="spacingAndGlyphs" textLength="64" x="177" y="54.2104">DirectorCut</text><text fill="#000000" font-family="sans-serif" font-size="11" lengthAdjust="spacingAndGlyphs" textLength="52" x="177" y="67.0151">Extended</text><text fill="#000000" font-family="sans-serif" font-size="11" lengthAdjust="spacingAndGlyphs" textLength="45" x="177" y="79.8198">FinalCut</text><text fill="#000000" font-family="sans-serif" font-size="11" lengthAdjust="spacingAndGlyphs" textLength="78" x="177" y="92.6245">HomeRelease</text><text fill="#000000" font-family="sans-serif" font-size="11" lengthAdjust="spacingAndGlyphs" textLength="71" x="177" y="105.4292">International</text><text fill="#000000" font-family="sans-serif" font-size="11" lengthAdjust="spacingAndGlyphs" textLength="44" x="177" y="118.2339">Original</text><text fill="#000000" font-family="sans-serif" font-size="11" lengthAdjust="spacingAndGlyphs" textLength="32" x="177" y="131.0386">Other</text><text fill="#000000" font-family="sans-serif" font-size="11" lengthAdjust="spacingAndGlyphs" textLength="56" x="177" y="143.8433">Theatrical</text><text fill="#000000" font-family="sans-serif" font-size="11" lengthAdjust="spacingAndGlyphs" textLength="32" x="177" y="156.6479">Uncut</text><line style="stroke: #A80036; stroke-width: 1.5;" x1="172" x2="260" y1="163.2422" y2="163.2422"/><!--MD5=[55a6f80882d3cd7368bedd1107f01aad]
class AudioTrack--><rect fill="#FEFECE" filter="url(#f5ajx47q8a0nr)" height="79.5469" id="AudioTrack" style="stroke: #A80036; stroke-width: 1.5;" width="117" x="402.5" y="1200"/><ellipse cx="417.95" cy="1218.9688" fill="#ADD1B2" rx="11" ry="11" style="stroke: #A80036; stroke-width: 1.0;"/><path d="M420.9188,1224.6094 Q420.3406,1224.9063 419.7,1225.0469 Q419.0594,1225.2031 418.3563,1225.2031 Q415.8563,1225.2031 414.5281,1223.5625 Q413.2156,1221.9063 413.2156,1218.7813 Q413.2156,1215.6563 414.5281,1214 Q415.8563,1212.3438 418.3563,1212.3438 Q419.0594,1212.3438 419.7,1212.5 Q420.3563,1212.6563 420.9188,1212.9531 L420.9188,1215.6719 Q420.2938,1215.0938 419.7,1214.8281 Q419.1063,1214.5469 418.4813,1214.5469 Q417.1375,1214.5469 416.45,1215.625 Q415.7625,1216.6875 415.7625,1218.7813 Q415.7625,1220.875 416.45,1221.9531 Q417.1375,1223.0156 418.4813,1223.0156 Q419.1063,1223.0156 419.7,1222.75 Q420.2938,1222.4688 420.9188,1221.8906 L420.9188,1224.6094 Z "/><text fill="#000000" font-family="sans-serif" font-size="12" font-style="italic" lengthAdjust="spacingAndGlyphs" textLength="88" x="430.05" y="1216.1387">«ValueObject»</text><text fill="#000000" font-family="sans-serif" font-size="12" lengthAdjust="spacingAndGlyphs" textLength="69" x="439.55" y="1230.1074">AudioTrack</text><line style="stroke: #A80036; stroke-width: 1.5;" x1="403.5" x2="518.5" y1="1237.9375" y2="1237.9375"/><text fill="#000000" font-family="sans-serif" font-size="11" lengthAdjust="spacingAndGlyphs" textLength="105" x="408.5" y="1252.1479">+Language: string</text><text fill="#000000" font-family="sans-serif" font-size="11" lengthAdjust="spacingAndGlyphs" textLength="90" x="408.5" y="1264.9526">+Format: string</text><line style="stroke: #A80036; stroke-width: 1.5;" x1="403.5" x2="518.5" y1="1271.5469" y2="1271.5469"/><!--MD5=[3982fa70cae73f6ba527a3dcd1bfde1b]
class SubtitleTrack--><rect fill="#FEFECE" filter="url(#f5ajx47q8a0nr)" height="66.7422" id="SubtitleTrack" style="stroke: #A80036; stroke-width: 1.5;" width="117" x="554.5" y="1206.5"/><ellipse cx="569.95" cy="1225.4688" fill="#ADD1B2" rx="11" ry="11" style="stroke: #A80036; stroke-width: 1.0;"/><path d="M572.9188,1231.1094 Q572.3406,1231.4063 571.7,1231.5469 Q571.0594,1231.7031 570.3563,1231.7031 Q567.8563,1231.7031 566.5281,1230.0625 Q565.2156,1228.4063 565.2156,1225.2813 Q565.2156,1222.1563 566.5281,1220.5 Q567.8563,1218.8438 570.3563,1218.8438 Q571.0594,1218.8438 571.7,1219 Q572.3563,1219.1563 572.9188,1219.4531 L572.9188,1222.1719 Q572.2938,1221.5938 571.7,1221.3281 Q571.1063,1221.0469 570.4813,1221.0469 Q569.1375,1221.0469 568.45,1222.125 Q567.7625,1223.1875 567.7625,1225.2813 Q567.7625,1227.375 568.45,1228.4531 Q569.1375,1229.5156 570.4813,1229.5156 Q571.1063,1229.5156 571.7,1229.25 Q572.2938,1228.9688 572.9188,1228.3906 L572.9188,1231.1094 Z "/><text fill="#000000" font-family="sans-serif" font-size="12" font-style="italic" lengthAdjust="spacingAndGlyphs" textLength="88" x="582.05" y="1222.6387">«ValueObject»</text><text fill="#000000" font-family="sans-serif" font-size="12" lengthAdjust="spacingAndGlyphs" textLength="82" x="585.05" y="1236.6074">SubtitleTrack</text><line style="stroke: #A80036; stroke-width: 1.5;" x1="555.5" x2="670.5" y1="1244.4375" y2="1244.4375"/><text fill="#000000" font-family="sans-serif" font-size="11" lengthAdjust="spacingAndGlyphs" textLength="105" x="560.5" y="1258.6479">+Language: string</text><line style="stroke: #A80036; stroke-width: 1.5;" x1="555.5" x2="670.5" y1="1265.2422" y2="1265.2422"/><!--MD5=[e69084ab16b022bdbef99762ea85e9d6]
class Movie--><rect fill="#FEFECE" filter="url(#f5ajx47q8a0nr)" height="86.4141" id="Movie" style="stroke: #A80036; stroke-width: 1.5;" width="158" x="458" y="726"/><ellipse cx="515.25" cy="742" fill="#ADD1B2" rx="11" ry="11" style="stroke: #A80036; stroke-width: 1.0;"/><path d="M518.2188,747.6406 Q517.6406,747.9375 517,748.0781 Q516.3594,748.2344 515.6563,748.2344 Q513.1563,748.2344 511.8281,746.5938 Q510.5156,744.9375 510.5156,741.8125 Q510.5156,738.6875 511.8281,737.0313 Q513.1563,735.375 515.6563,735.375 Q516.3594,735.375 517,735.5313 Q517.6563,735.6875 518.2188,735.9844 L518.2188,738.7031 Q517.5938,738.125 517,737.8594 Q516.4063,737.5781 515.7813,737.5781 Q514.4375,737.5781 513.75,738.6563 Q513.0625,739.7188 513.0625,741.8125 Q513.0625,743.9063 513.75,744.9844 Q514.4375,746.0469 515.7813,746.0469 Q516.4063,746.0469 517,745.7813 Q517.5938,745.5 518.2188,744.9219 L518.2188,747.6406 Z "/><text fill="#000000" font-family="sans-serif" font-size="12" lengthAdjust="spacingAndGlyphs" textLength="35" x="535.75" y="746.1543">Movie</text><line style="stroke: #A80036; stroke-width: 1.5;" x1="459" x2="615" y1="758" y2="758"/><text fill="#000000" font-family="sans-serif" font-size="11" lengthAdjust="spacingAndGlyphs" textLength="131" x="464" y="772.2104">-_features: List&lt;UUID&gt;</text><line style="stroke: #A80036; stroke-width: 1.0;" x1="459" x2="615" y1="778.8047" y2="778.8047"/><text fill="#000000" font-family="sans-serif" font-size="11" lengthAdjust="spacingAndGlyphs" textLength="122" x="464" y="793.0151">+AddFeature(id): void</text><text fill="#000000" font-family="sans-serif" font-size="11" lengthAdjust="spacingAndGlyphs" textLength="146" x="464" y="805.8198">+RemoveFeature(id): void</text><!--MD5=[9022e2192881f166c529fc3ae75dec7b]
class TV--><rect fill="#FEFECE" filter="url(#f5ajx47q8a0nr)" height="137.6328" id="TV" style="stroke: #A80036; stroke-width: 1.5;" width="410" x="555" y="499"/><ellipse cx="748.25" cy="515" fill="#ADD1B2" rx="11" ry="11" style="stroke: #A80036; stroke-width: 1.0;"/><path d="M751.2188,520.6406 Q750.6406,520.9375 750,521.0781 Q749.3594,521.2344 748.6563,521.2344 Q746.1563,521.2344 744.8281,519.5938 Q743.5156,517.9375 743.5156,514.8125 Q743.5156,511.6875 744.8281,510.0313 Q746.1563,508.375 748.6563,508.375 Q749.3594,508.375 750,508.5313 Q750.6563,508.6875 751.2188,508.9844 L751.2188,511.7031 Q750.5938,511.125 750,510.8594 Q749.4063,510.5781 748.7813,510.5781 Q747.4375,510.5781 746.75,511.6563 Q746.0625,512.7188 746.0625,514.8125 Q746.0625,516.9063 746.75,517.9844 Q747.4375,519.0469 748.7813,519.0469 Q749.4063,519.0469 750,518.7813 Q750.5938,518.5 751.2188,517.9219 L751.2188,520.6406 Z "/><text fill="#000000" font-family="sans-serif" font-size="12" lengthAdjust="spacingAndGlyphs" textLength="15" x="768.75" y="519.1543">TV</text><line style="stroke: #A80036; stroke-width: 1.5;" x1="556" x2="964" y1="531" y2="531"/><text fill="#000000" font-family="sans-serif" font-size="11" lengthAdjust="spacingAndGlyphs" textLength="105" x="561" y="545.2104">+Status: TVStatus</text><text fill="#000000" font-family="sans-serif" font-size="11" lengthAdjust="spacingAndGlyphs" textLength="129" x="561" y="558.0151">+EndedOn?: LocalDate</text><text fill="#000000" font-family="sans-serif" font-size="11" lengthAdjust="spacingAndGlyphs" textLength="132" x="561" y="570.8198">-_seasons: List&lt;UUID&gt;</text><line style="stroke: #A80036; stroke-width: 1.0;" x1="556" x2="964" y1="577.4141" y2="577.4141"/><text fill="#000000" font-family="sans-serif" font-size="11" lengthAdjust="spacingAndGlyphs" textLength="122" x="561" y="591.6245">+AddSeason(id): void</text><text fill="#000000" font-family="sans-serif" font-size="11" lengthAdjust="spacingAndGlyphs" textLength="146" x="561" y="604.4292">+RemoveSeason(id): void</text><text fill="#000000" font-family="sans-serif" font-size="11" lengthAdjust="spacingAndGlyphs" textLength="398" x="561" y="617.2339">+AddEpisodeToSeason(seasonId, episodeId, number?, airDate, role?)</text><text fill="#000000" font-family="sans-serif" font-size="11" lengthAdjust="spacingAndGlyphs" textLength="294" x="561" y="630.0386">+RemoveEpisodeFromSeason(seasonId, episodeId)</text><!--MD5=[ec068ab7b1cfb32e88f15482ccdce528]
class TVStatus--><rect fill="#FEFECE" filter="url(#f5ajx47q8a0nr)" height="99.2188" id="TVStatus" style="stroke: #A80036; stroke-width: 1.5;" width="88" x="27" y="285.5"/><ellipse cx="42" cy="301.5" fill="#EB937F" rx="11" ry="11" style="stroke: #A80036; stroke-width: 1.0;"/><path d="M46.1094,307.5 L38.3906,307.5 L38.3906,295.1094 L46.1094,295.1094 L46.1094,297.2656 L40.8438,297.2656 L40.8438,299.9375 L45.6094,299.9375 L45.6094,302.0938 L40.8438,302.0938 L40.8438,305.3438 L46.1094,305.3438 L46.1094,307.5 Z "/><text fill="#000000" font-family="sans-serif" font-size="12" lengthAdjust="spacingAndGlyphs" textLength="56" x="56" y="305.6543">TVStatus</text><line style="stroke: #A80036; stroke-width: 1.5;" x1="28" x2="114" y1="317.5" y2="317.5"/><text fill="#000000" font-family="sans-serif" font-size="11" lengthAdjust="spacingAndGlyphs" textLength="47" x="33" y="331.7104">Ongoing</text><text fill="#000000" font-family="sans-serif" font-size="11" lengthAdjust="spacingAndGlyphs" textLength="35" x="33" y="344.5151">Ended</text><text fill="#000000" font-family="sans-serif" font-size="11" lengthAdjust="spacingAndGlyphs" textLength="55" x="33" y="357.3198">Cancelled</text><text fill="#000000" font-family="sans-serif" font-size="11" lengthAdjust="spacingAndGlyphs" textLength="51" x="33" y="370.1245">Unknown</text><line style="stroke: #A80036; stroke-width: 1.5;" x1="28" x2="114" y1="376.7188" y2="376.7188"/><!--MD5=[2916714cae8f0462c1096d4fd55ce4c3]
class Season--><rect fill="#FEFECE" filter="url(#f5ajx47q8a0nr)" height="143.5703" id="Season" style="stroke: #A80036; stroke-width: 1.5;" width="236" x="651" y="697"/><ellipse cx="741.25" cy="715.9688" fill="#ADD1B2" rx="11" ry="11" style="stroke: #A80036; stroke-width: 1.0;"/><path d="M744.2188,721.6094 Q743.6406,721.9063 743,722.0469 Q742.3594,722.2031 741.6563,722.2031 Q739.1563,722.2031 737.8281,720.5625 Q736.5156,718.9063 736.5156,715.7813 Q736.5156,712.6563 737.8281,711 Q739.1563,709.3438 741.6563,709.3438 Q742.3594,709.3438 743,709.5 Q743.6563,709.6563 744.2188,709.9531 L744.2188,712.6719 Q743.5938,712.0938 743,711.8281 Q742.4063,711.5469 741.7813,711.5469 Q740.4375,711.5469 739.75,712.625 Q739.0625,713.6875 739.0625,715.7813 Q739.0625,717.875 739.75,718.9531 Q740.4375,720.0156 741.7813,720.0156 Q742.4063,720.0156 743,719.75 Q743.5938,719.4688 744.2188,718.8906 L744.2188,721.6094 Z "/><text fill="#000000" font-family="sans-serif" font-size="12" font-style="italic" lengthAdjust="spacingAndGlyphs" textLength="50" x="760.25" y="713.1387">«Entity»</text><text fill="#000000" font-family="sans-serif" font-size="12" lengthAdjust="spacingAndGlyphs" textLength="47" x="761.75" y="727.1074">Season</text><line style="stroke: #A80036; stroke-width: 1.5;" x1="652" x2="886" y1="734.9375" y2="734.9375"/><text fill="#000000" font-family="sans-serif" font-size="11" lengthAdjust="spacingAndGlyphs" textLength="54" x="657" y="749.1479">+Id: UUID</text><text fill="#000000" font-family="sans-serif" font-size="11" lengthAdjust="spacingAndGlyphs" textLength="119" x="657" y="761.9526">+SeasonNumber: int</text><text fill="#000000" font-family="sans-serif" font-size="11" lengthAdjust="spacingAndGlyphs" textLength="80" x="657" y="774.7573">+Title: string?</text><text fill="#000000" font-family="sans-serif" font-size="11" lengthAdjust="spacingAndGlyphs" textLength="120" x="657" y="787.562">+Description: string?</text><text fill="#000000" font-family="sans-serif" font-size="11" lengthAdjust="spacingAndGlyphs" textLength="149" x="657" y="800.3667">_episodes: List&lt;Episode&gt;</text><line style="stroke: #A80036; stroke-width: 1.0;" x1="652" x2="886" y1="806.9609" y2="806.9609"/><text fill="#000000" font-family="sans-serif" font-size="11" lengthAdjust="spacingAndGlyphs" textLength="224" x="657" y="821.1714">+AddEpisode(id, number, airDate, role)</text><text fill="#000000" font-family="sans-serif" font-size="11" lengthAdjust="spacingAndGlyphs" textLength="117" x="657" y="833.9761">+RemoveEpisode(id)</text><!--MD5=[89f1af135d226d270851fb7756972918]
class Episode--><rect fill="#FEFECE" filter="url(#f5ajx47q8a0nr)" height="105.1563" id="Episode" style="stroke: #A80036; stroke-width: 1.5;" width="173" x="636.5" y="901"/><ellipse cx="693.75" cy="919.9688" fill="#ADD1B2" rx="11" ry="11" style="stroke: #A80036; stroke-width: 1.0;"/><path d="M696.7188,925.6094 Q696.1406,925.9063 695.5,926.0469 Q694.8594,926.2031 694.1563,926.2031 Q691.6563,926.2031 690.3281,924.5625 Q689.0156,922.9063 689.0156,919.7813 Q689.0156,916.6563 690.3281,915 Q691.6563,913.3438 694.1563,913.3438 Q694.8594,913.3438 695.5,913.5 Q696.1563,913.6563 696.7188,913.9531 L696.7188,916.6719 Q696.0938,916.0938 695.5,915.8281 Q694.9063,915.5469 694.2813,915.5469 Q692.9375,915.5469 692.25,916.625 Q691.5625,917.6875 691.5625,919.7813 Q691.5625,921.875 692.25,922.9531 Q692.9375,924.0156 694.2813,924.0156 Q694.9063,924.0156 695.5,923.75 Q696.0938,923.4688 696.7188,922.8906 L696.7188,925.6094 Z "/><text fill="#000000" font-family="sans-serif" font-size="12" font-style="italic" lengthAdjust="spacingAndGlyphs" textLength="50" x="714.25" y="917.1387">«Entity»</text><text fill="#000000" font-family="sans-serif" font-size="12" lengthAdjust="spacingAndGlyphs" textLength="50" x="714.25" y="931.1074">Episode</text><line style="stroke: #A80036; stroke-width: 1.5;" x1="637.5" x2="808.5" y1="938.9375" y2="938.9375"/><text fill="#000000" font-family="sans-serif" font-size="11" lengthAdjust="spacingAndGlyphs" textLength="96" x="642.5" y="953.1479">+contentId: UUID</text><text fill="#000000" font-family="sans-serif" font-size="11" lengthAdjust="spacingAndGlyphs" textLength="127" x="642.5" y="965.9526">+EpisodeNumber?: int</text><text fill="#000000" font-family="sans-serif" font-size="11" lengthAdjust="spacingAndGlyphs" textLength="113" x="642.5" y="978.7573">+AirDate: LocalDate</text><text fill="#000000" font-family="sans-serif" font-size="11" lengthAdjust="spacingAndGlyphs" textLength="161" x="642.5" y="991.562">+EpisodeRole?: EpisodeRole</text><line style="stroke: #A80036; stroke-width: 1.5;" x1="637.5" x2="808.5" y1="998.1563" y2="998.1563"/><!--MD5=[07d2bb4561db7ebe8a29842a6983f241]
class EpisodeRole--><rect fill="#FEFECE" filter="url(#f5ajx47q8a0nr)" height="86.4141" id="EpisodeRole" style="stroke: #A80036; stroke-width: 1.5;" width="109" x="150.5" y="292"/><ellipse cx="165.5" cy="308" fill="#EB937F" rx="11" ry="11" style="stroke: #A80036; stroke-width: 1.0;"/><path d="M169.6094,314 L161.8906,314 L161.8906,301.6094 L169.6094,301.6094 L169.6094,303.7656 L164.3438,303.7656 L164.3438,306.4375 L169.1094,306.4375 L169.1094,308.5938 L164.3438,308.5938 L164.3438,311.8438 L169.6094,311.8438 L169.6094,314 Z "/><text fill="#000000" font-family="sans-serif" font-size="12" lengthAdjust="spacingAndGlyphs" textLength="77" x="179.5" y="312.1543">EpisodeRole</text><line style="stroke: #A80036; stroke-width: 1.5;" x1="151.5" x2="258.5" y1="324" y2="324"/><text fill="#000000" font-family="sans-serif" font-size="11" lengthAdjust="spacingAndGlyphs" textLength="43" x="156.5" y="338.2104">Regular</text><text fill="#000000" font-family="sans-serif" font-size="11" lengthAdjust="spacingAndGlyphs" textLength="36" x="156.5" y="351.0151">Bonus</text><text fill="#000000" font-family="sans-serif" font-size="11" lengthAdjust="spacingAndGlyphs" textLength="41" x="156.5" y="363.8198">Special</text><line style="stroke: #A80036; stroke-width: 1.5;" x1="151.5" x2="258.5" y1="370.4141" y2="370.4141"/><!--MD5=[1a95835255177050dd8028a7da1b3a6a]
class Contributor--><rect fill="#FEFECE" filter="url(#f5ajx47q8a0nr)" height="48" id="Contributor" style="stroke: #A80036; stroke-width: 1.5;" width="103" x="197.5" y="745"/><ellipse cx="212.5" cy="761" fill="#ADD1B2" rx="11" ry="11" style="stroke: #A80036; stroke-width: 1.0;"/><path d="M215.4688,766.6406 Q214.8906,766.9375 214.25,767.0781 Q213.6094,767.2344 212.9063,767.2344 Q210.4063,767.2344 209.0781,765.5938 Q207.7656,763.9375 207.7656,760.8125 Q207.7656,757.6875 209.0781,756.0313 Q210.4063,754.375 212.9063,754.375 Q213.6094,754.375 214.25,754.5313 Q214.9063,754.6875 215.4688,754.9844 L215.4688,757.7031 Q214.8438,757.125 214.25,756.8594 Q213.6563,756.5781 213.0313,756.5781 Q211.6875,756.5781 211,757.6563 Q210.3125,758.7188 210.3125,760.8125 Q210.3125,762.9063 211,763.9844 Q211.6875,765.0469 213.0313,765.0469 Q213.6563,765.0469 214.25,764.7813 Q214.8438,764.5 215.4688,763.9219 L215.4688,766.6406 Z "/><text fill="#000000" font-family="sans-serif" font-size="12" lengthAdjust="spacingAndGlyphs" textLength="71" x="226.5" y="765.1543">Contributor</text><line style="stroke: #A80036; stroke-width: 1.5;" x1="198.5" x2="299.5" y1="777" y2="777"/><line style="stroke: #A80036; stroke-width: 1.5;" x1="198.5" x2="299.5" y1="785" y2="785"/><!--MD5=[9ad4f954b28ad54f2491927702a17c0b]
reverse link MediaWork to Contribution--><path d="M351.26,448.89 C328.89,474.73 306.37,500.74 288.18,521.75 " fill="none" id="MediaWork&lt;-Contribution" style="stroke: #A80036; stroke-width: 1.0;"/><polygon fill="#A80036" points="359.82,439,352.8681,440.916,351.9628,448.07,358.9148,446.1541,359.82,439" style="stroke: #A80036; stroke-width: 1.0;"/><text fill="#000000" font-family="sans-serif" font-size="13" lengthAdjust="spacingAndGlyphs" textLength="8" x="345.5595" y="458.5764">1</text><text fill="#000000" font-family="sans-serif" font-size="13" lengthAdjust="spacingAndGlyphs" textLength="23" x="269.2455" y="510.9063">1..*</text><!--MD5=[6bfd38223bfcf85fe0a1d8f856fb6bfe]
reverse link MediaWork to Content--><path d="M442.02,452.24 C433.76,589.94 420.4,812.59 414.71,907.41 " fill="none" id="MediaWork&lt;-Content" style="stroke: #A80036; stroke-width: 1.0;"/><polygon fill="#A80036" points="442.81,439.19,438.4545,444.9372,442.0845,451.168,446.4399,445.4209,442.81,439.19" style="stroke: #A80036; stroke-width: 1.0;"/><text fill="#000000" font-family="sans-serif" font-size="13" lengthAdjust="spacingAndGlyphs" textLength="8" x="434.1254" y="458.7792">1</text><text fill="#000000" font-family="sans-serif" font-size="13" lengthAdjust="spacingAndGlyphs" textLength="23" x="390.419" y="896.5898">0..*</text><!--MD5=[6f2cdbc98b0558b784c7cac9865fcd06]
reverse link Content to PlayableContent--><path d="M463.23,1014.95 C477.8,1032.15 493.22,1050.34 506.17,1065.62 " fill="none" id="Content&lt;-PlayableContent" style="stroke: #A80036; stroke-width: 1.0;"/><polygon fill="none" points="457.77,1019.34,450.18,999.56,468.45,1010.29,457.77,1019.34" style="stroke: #A80036; stroke-width: 1.0;"/><!--MD5=[66cb92c5741c367094de724f81452974]
reverse link PlayableContent to AudioTrack--><path d="M510.07,1151.84 C501.21,1167.58 491.47,1184.87 483.02,1199.88 " fill="none" id="PlayableContent&lt;-AudioTrack" style="stroke: #A80036; stroke-width: 1.0;"/><polygon fill="#A80036" points="516.63,1140.18,510.1992,1143.4426,510.7375,1150.6336,517.1683,1147.371,516.63,1140.18" style="stroke: #A80036; stroke-width: 1.0;"/><text fill="#000000" font-family="sans-serif" font-size="13" lengthAdjust="spacingAndGlyphs" textLength="8" x="504.5937" y="1159.6904">1</text><text fill="#000000" font-family="sans-serif" font-size="13" lengthAdjust="spacingAndGlyphs" textLength="23" x="461.8281" y="1188.8126">0..*</text><!--MD5=[aa579dfc5e2944f27b3f7ea2afec268c]
reverse link PlayableContent to SubtitleTrack--><path d="M563.86,1151.72 C574.06,1169.83 585.43,1190.02 594.66,1206.42 " fill="none" id="PlayableContent&lt;-SubtitleTrack" style="stroke: #A80036; stroke-width: 1.0;"/><polygon fill="#A80036" points="557.37,1140.18,556.8317,1147.371,563.2625,1150.6336,563.8008,1143.4426,557.37,1140.18" style="stroke: #A80036; stroke-width: 1.0;"/><text fill="#000000" font-family="sans-serif" font-size="13" lengthAdjust="spacingAndGlyphs" textLength="8" x="552.0813" y="1159.6904">1</text><text fill="#000000" font-family="sans-serif" font-size="13" lengthAdjust="spacingAndGlyphs" textLength="23" x="565.7852" y="1195.4377">0..*</text><!--MD5=[b4eda47159ac83c9c6c712fe6500fc66]
reverse link MediaWork to Movie--><path d="M474.06,459.04 C492.32,548.66 515.95,664.65 528.42,725.86 " fill="none" id="MediaWork&lt;-Movie" style="stroke: #A80036; stroke-width: 1.0;"/><polygon fill="none" points="467.16,460.2,470.02,439.2,480.87,457.4,467.16,460.2" style="stroke: #A80036; stroke-width: 1.0;"/><!--MD5=[d2ecc413acd6e4d5a7cde9549edf0625]
link Movie to PlayableContent--><path d="M537,812.05 C537,876.03 537,997.09 537,1060.65 " fill="none" id="Movie-&gt;PlayableContent" style="stroke: #A80036; stroke-width: 1.0; stroke-dasharray: 7.0,7.0;"/><polygon fill="#A80036" points="537,1065.88,541,1056.88,537,1060.88,533,1056.88,537,1065.88" style="stroke: #A80036; stroke-width: 1.0;"/><!--MD5=[44933fc1c458e8d4c3fc9b342af6b109]
reverse link MediaWork to TV--><path d="M570.95,426.58 C603.37,450.66 637.84,476.26 668.34,498.92 " fill="none" id="MediaWork&lt;-TV" style="stroke: #A80036; stroke-width: 1.0;"/><polygon fill="none" points="566.61,432.07,554.72,414.53,574.95,420.83,566.61,432.07" style="stroke: #A80036; stroke-width: 1.0;"/><!--MD5=[214de68e22dbb54cfb3bb7ba7775e660]
reverse link TV to Season--><path d="M763.69,650.51 C764.38,665.87 765.1,681.82 765.78,696.83 " fill="none" id="TV&lt;-Season" style="stroke: #A80036; stroke-width: 1.0;"/><polygon fill="#A80036" points="763.08,637.21,759.3544,643.3841,763.6207,649.1978,767.3463,643.0237,763.08,637.21" style="stroke: #A80036; stroke-width: 1.0;"/><text fill="#000000" font-family="sans-serif" font-size="13" lengthAdjust="spacingAndGlyphs" textLength="8" x="754.9923" y="656.6121">1</text><text fill="#000000" font-family="sans-serif" font-size="13" lengthAdjust="spacingAndGlyphs" textLength="23" x="741.262" y="685.7099">1..*</text><!--MD5=[ff064e4e2613780c041fbf5360d2bb00]
reverse link Season to Episode--><path d="M747.87,853.83 C743.83,869.85 739.72,886.18 736.03,900.82 " fill="none" id="Season&lt;-Episode" style="stroke: #A80036; stroke-width: 1.0;"/><polygon fill="#A80036" points="751.08,841.08,745.7378,845.9236,748.1541,852.7178,753.4963,847.8742,751.08,841.08" style="stroke: #A80036; stroke-width: 1.0;"/><text fill="#000000" font-family="sans-serif" font-size="13" lengthAdjust="spacingAndGlyphs" textLength="8" x="740.9908" y="860.7587">1</text><text fill="#000000" font-family="sans-serif" font-size="13" lengthAdjust="spacingAndGlyphs" textLength="23" x="713.2356" y="889.7986">1..*</text><!--MD5=[9b1e0c9b1b7df58fa8be67b96718dd0f]
link Episode to PlayableContent--><path d="M657.95,1006.09 C634.47,1024.7 608.38,1045.39 586.46,1062.78 " fill="none" id="Episode-&gt;PlayableContent" style="stroke: #A80036; stroke-width: 1.0; stroke-dasharray: 7.0,7.0;"/><polygon fill="#A80036" points="582.42,1065.98,591.9631,1063.545,586.3451,1062.8827,587.0074,1057.2648,582.42,1065.98" style="stroke: #A80036; stroke-width: 1.0;"/><!--MD5=[96eca555c283861625927cf39bbe0ece]
link Contribution to Contributor--><path d="M249,614.16 C249,652.8 249,707.22 249,739.9 " fill="none" id="Contribution-&gt;Contributor" style="stroke: #A80036; stroke-width: 1.0; stroke-dasharray: 7.0,7.0;"/><polygon fill="#A80036" points="249,744.96,253,735.96,249,739.96,245,735.96,249,744.96" style="stroke: #A80036; stroke-width: 1.0;"/><!--MD5=[31d224b1485796796e2c2d5560997cb2]
link ContributorRole to CutType--><!--MD5=[d925b3362a45f8a60dcb48db3084ea86]
link ContributorRole to TVStatus--><!--MD5=[3ec277588cdc5ed9689a79e2f250b553]
link TVStatus to EpisodeRole--><!--MD5=[a3546b3ed8d3886a791efb5c74e9d534]
@startuml
skinparam classAttributeIconSize 0

class MediaWork <<AggregateRoot>> {
    +Id: UUID
    +Title: string
    +Description?: string
    +OriginalReleaseDate: LocalDate
    #creatorRoles: List<CreatorRole>
    -_contributions: List<Contribution>
    -_content: List<Content>
    - -
    +AddContribution(id, role): void
    +RemoveContribution(id): void
    +AddContent(content): void
    +RemoveContent(id): void
    +IsCreatorRole(role): bool
}

note top of MediaWork
Invariant:
- Must have at least one creator contribution
- Cannot remove last creator
- All Features / Episodes must reference a
  Content that is a PlayableContent inside
  MediaWork._contents
end note

class Contribution <<Entity>> {
    +Id: UUID
    +ContributorId: UUID
    +ContributorRole: ContributorRole
}

class ContributorRole <<ValueObject>> {
    +Name: string
}

MediaWork "1" *- - "1..*" Contribution

class Content <<Entity>> {
    +Id: UUID
    +Title?: string
    +Description?: string
}

MediaWork "1" *- - "0..*" Content

class PlayableContent {
    +RuntimeMinutes: int
    +CutType?: CutType
}

enum CutType {
    DirectorCut
    Extended
    FinalCut
    HomeRelease
    International
    Original
    Other
    Theatrical
    Uncut
}

Content <|- - PlayableContent

class AudioTrack <<ValueObject>> {
    +Language: string
    +Format: string
}

PlayableContent "1" *- - "0..*" AudioTrack

class SubtitleTrack <<ValueObject>> {
    +Language: string
}

PlayableContent "1" *- - "0..*" SubtitleTrack

class Movie {
    -_features: List<UUID>
    - -
    +AddFeature(id): void
    +RemoveFeature(id): void
}

MediaWork <|- - Movie
Movie ..> PlayableContent

class TV {
    +Status: TVStatus
    +EndedOn?: LocalDate
    -_seasons: List<UUID>
    - -
    +AddSeason(id): void
    +RemoveSeason(id): void
    +AddEpisodeToSeason(seasonId, episodeId, number?, airDate, role?)
    +RemoveEpisodeFromSeason(seasonId, episodeId)
}

MediaWork <|- - TV

enum TVStatus {
    Ongoing
    Ended
    Cancelled
    Unknown
}

class Season <<Entity>> {
    +Id: UUID
    +SeasonNumber: int
    +Title: string?
    +Description: string?
    _episodes: List<Episode>
    - -
    +AddEpisode(id, number, airDate, role)
    +RemoveEpisode(id)
}

TV "1" *- - "1..*" Season

class Episode <<Entity>> {
    +contentId: UUID
    +EpisodeNumber?: int
    +AirDate: LocalDate
    +EpisodeRole?: EpisodeRole
}

Season "1" *- - "1..*" Episode
Episode ..> PlayableContent

enum EpisodeRole {
    Regular
    Bonus
    Special
}

Contribution ..> Contributor

@enduml

PlantUML version 1.2020.02(Sun Mar 01 10:22:07 UTC 2020)
(GPL source distribution)
Java Runtime: OpenJDK Runtime Environment
JVM: OpenJDK 64-Bit Server VM
Java Version: 17.0.18+8
Operating System: Linux
Default Encoding: UTF-8
Language: en
Country: null
--></g></svg>