<?xml version="1.0" encoding="UTF-8" standalone="no"?><svg xmlns="http://www.w3.org/2000/svg" xmlns:xlink="http://www.w3.org/1999/xlink" contentScriptType="application/ecmascript" contentStyleType="text/css" height="289px" preserveAspectRatio="none" style="width:293px;height:289px;" version="1.1" viewBox="0 0 293 289" width="293px" zoomAndPan="magnify"><defs><filter height="300%" id="fceo3x72pnxby" width="300%" x="-1" y="-1"><feGaussianBlur result="blurOut" stdDeviation="2.0"/><feColorMatrix in="blurOut" result="blurOut2" type="matrix" values="0 0 0 0 0 0 0 0 0 0 0 0 0 0 0 0 0 0 .4 0"/><feOffset dx="4.0" dy="4.0" in="blurOut2" result="blurOut3"/><feBlend in="SourceGraphic" in2="blurOut3" mode="normal"/></filter></defs><g><!--MD5=[11097d3e015eb0a58b2213c5fdee36ee]
class collection_group--><rect fill="#FEFECE" filter="url(#fceo3x72pnxby)" height="79.5469" id="collection_group" style="stroke: #A80036; stroke-width: 1.5;" width="135" x="6" y="8"/><ellipse cx="21" cy="26.9688" fill="#ADD1B2" rx="11" ry="11" style="stroke: #A80036; stroke-width: 1.0;"/><path d="M23.9688,32.6094 Q23.3906,32.9063 22.75,33.0469 Q22.1094,33.2031 21.4063,33.2031 Q18.9063,33.2031 17.5781,31.5625 Q16.2656,29.9063 16.2656,26.7813 Q16.2656,23.6563 17.5781,22 Q18.9063,20.3438 21.4063,20.3438 Q22.1094,20.3438 22.75,20.5 Q23.4063,20.6563 23.9688,20.9531 L23.9688,23.6719 Q23.3438,23.0938 22.75,22.8281 Q22.1563,22.5469 21.5313,22.5469 Q20.1875,22.5469 19.5,23.625 Q18.8125,24.6875 18.8125,26.7813 Q18.8125,28.875 19.5,29.9531 Q20.1875,31.0156 21.5313,31.0156 Q22.1563,31.0156 22.75,30.75 Q23.3438,30.4688 23.9688,29.8906 L23.9688,32.6094 Z "/><text fill="#000000" font-family="sans-serif" font-size="12" font-style="italic" lengthAdjust="spacingAndGlyphs" textLength="46" x="63.5" y="24.1387">«table»</text><text fill="#000000" font-family="sans-serif" font-size="12" lengthAdjust="spacingAndGlyphs" textLength="103" x="35" y="38.1074">collection_group</text><line style="stroke: #A80036; stroke-width: 1.5;" x1="7" x2="140" y1="45.9375" y2="45.9375"/><text fill="#000000" font-family="sans-serif" font-size="11" lengthAdjust="spacingAndGlyphs" textLength="77" x="12" y="60.1479">id: UUID «PK»</text><text fill="#000000" font-family="sans-serif" font-size="11" lengthAdjust="spacingAndGlyphs" textLength="57" x="12" y="72.9526">title: TEXT</text><line style="stroke: #A80036; stroke-width: 1.5;" x1="7" x2="140" y1="79.5469" y2="79.5469"/><!--MD5=[b50276b9575ad1e45a3dfec34b3243bb]
class collection_group_membership--><rect fill="#FEFECE" filter="url(#fceo3x72pnxby)" height="130.7656" id="collection_group_membership" style="stroke: #A80036; stroke-width: 1.5;" width="263" x="19" y="148"/><ellipse cx="54.25" cy="166.9688" fill="#ADD1B2" rx="11" ry="11" style="stroke: #A80036; stroke-width: 1.0;"/><path d="M57.2188,172.6094 Q56.6406,172.9063 56,173.0469 Q55.3594,173.2031 54.6563,173.2031 Q52.1563,173.2031 50.8281,171.5625 Q49.5156,169.9063 49.5156,166.7813 Q49.5156,163.6563 50.8281,162 Q52.1563,160.3438 54.6563,160.3438 Q55.3594,160.3438 56,160.5 Q56.6563,160.6563 57.2188,160.9531 L57.2188,163.6719 Q56.5938,163.0938 56,162.8281 Q55.4063,162.5469 54.7813,162.5469 Q53.4375,162.5469 52.75,163.625 Q52.0625,164.6875 52.0625,166.7813 Q52.0625,168.875 52.75,169.9531 Q53.4375,171.0156 54.7813,171.0156 Q55.4063,171.0156 56,170.75 Q56.5938,170.4688 57.2188,169.8906 L57.2188,172.6094 Z "/><text fill="#000000" font-family="sans-serif" font-size="12" font-style="italic" lengthAdjust="spacingAndGlyphs" textLength="46" x="142.75" y="164.1387">«table»</text><text fill="#000000" font-family="sans-serif" font-size="12" lengthAdjust="spacingAndGlyphs" textLength="186" x="72.75" y="178.1074">collection_group_membership</text><line style="stroke: #A80036; stroke-width: 1.5;" x1="20" x2="281" y1="185.9375" y2="185.9375"/><text fill="#000000" font-family="sans-serif" font-size="11" lengthAdjust="spacingAndGlyphs" textLength="77" x="25" y="200.1479">id: UUID «PK»</text><text fill="#000000" font-family="sans-serif" font-size="11" lengthAdjust="spacingAndGlyphs" textLength="174" x="25" y="212.9526">collection_group_id: UUID «FK»</text><text fill="#000000" font-family="sans-serif" font-size="11" lengthAdjust="spacingAndGlyphs" textLength="150" x="25" y="225.7573">media_work_id: UUID «FK»</text><text fill="#000000" font-family="sans-serif" font-size="11" lengthAdjust="spacingAndGlyphs" textLength="85" x="25" y="238.562">sort_index: INT</text><line style="stroke: #A80036; stroke-width: 1.0;" x1="20" x2="281" y1="245.1563" y2="245.1563"/><text fill="#000000" font-family="sans-serif" font-size="11" lengthAdjust="spacingAndGlyphs" textLength="251" x="25" y="259.3667">UNIQUE(collection_group_id, media_work_id)</text><text fill="#000000" font-family="sans-serif" font-size="11" lengthAdjust="spacingAndGlyphs" textLength="226" x="25" y="272.1714">UNIQUE(collection_group_id, sort_index)</text><!--MD5=[a46658d446b05034c23a4bc1a7db0e1a]
class media_work--><rect fill="#FEFECE" filter="url(#fceo3x72pnxby)" height="48" id="media_work" style="stroke: #A80036; stroke-width: 1.5;" width="105" x="176" y="24"/><ellipse cx="191" cy="40" fill="#ADD1B2" rx="11" ry="11" style="stroke: #A80036; stroke-width: 1.0;"/><path d="M193.9688,45.6406 Q193.3906,45.9375 192.75,46.0781 Q192.1094,46.2344 191.4063,46.2344 Q188.9063,46.2344 187.5781,44.5938 Q186.2656,42.9375 186.2656,39.8125 Q186.2656,36.6875 187.5781,35.0313 Q188.9063,33.375 191.4063,33.375 Q192.1094,33.375 192.75,33.5313 Q193.4063,33.6875 193.9688,33.9844 L193.9688,36.7031 Q193.3438,36.125 192.75,35.8594 Q192.1563,35.5781 191.5313,35.5781 Q190.1875,35.5781 189.5,36.6563 Q188.8125,37.7188 188.8125,39.8125 Q188.8125,41.9063 189.5,42.9844 Q190.1875,44.0469 191.5313,44.0469 Q192.1563,44.0469 192.75,43.7813 Q193.3438,43.5 193.9688,42.9219 L193.9688,45.6406 Z "/><text fill="#000000" font-family="sans-serif" font-size="12" lengthAdjust="spacingAndGlyphs" textLength="73" x="205" y="44.1543">media_work</text><line style="stroke: #A80036; stroke-width: 1.5;" x1="177" x2="280" y1="56" y2="56"/><line style="stroke: #A80036; stroke-width: 1.5;" x1="177" x2="280" y1="64" y2="64"/><!--MD5=[ea9056bdfeded17f193f29fe580b6bf4]
reverse link collection_group to collection_group_membership--><path d="M94.15,92.85 C102.1,109.72 111.35,129.37 120.03,147.8 " fill="none" id="collection_group&lt;-collection_group_membership" style="stroke: #A80036; stroke-width: 1.0;"/><polygon fill="#A80036" points="91.94,88.16,92.1484,98.0067,94.0669,92.6851,99.3885,94.6036,91.94,88.16" style="stroke: #A80036; stroke-width: 1.0;"/><text fill="#000000" font-family="sans-serif" font-size="13" lengthAdjust="spacingAndGlyphs" textLength="8" x="86.1511" y="107.5697">1</text><text fill="#000000" font-family="sans-serif" font-size="13" lengthAdjust="spacingAndGlyphs" textLength="23" x="92.4395" y="136.8807">0..*</text><!--MD5=[9d01a5fe61641a672fe317996d4e2234]
reverse link media_work to collection_group_membership--><path d="M215.2,76.87 C205.9,96.37 193.09,123.23 181.31,147.91 " fill="none" id="media_work&lt;-collection_group_membership" style="stroke: #A80036; stroke-width: 1.0;"/><polygon fill="#A80036" points="217.49,72.08,210.0005,78.4759,215.3342,76.5914,217.2187,81.9251,217.49,72.08" style="stroke: #A80036; stroke-width: 1.0;"/><text fill="#000000" font-family="sans-serif" font-size="13" lengthAdjust="spacingAndGlyphs" textLength="8" x="205.6437" y="92.2563">1</text><text fill="#000000" font-family="sans-serif" font-size="13" lengthAdjust="spacingAndGlyphs" textLength="23" x="160.422" y="137.0028">0..*</text><!--MD5=[806f1ecede5205d522ae9ac49e77e039]
@startuml
skinparam classAttributeIconSize 0

class collection_group <<table>> {
    id: UUID <<PK>>
    title: TEXT
}

class collection_group_membership <<table>> {
    id: UUID <<PK>>
    collection_group_id: UUID <<FK>>
    media_work_id: UUID <<FK>>
    sort_index: INT
    - -
    UNIQUE(collection_group_id, media_work_id)
    UNIQUE(collection_group_id, sort_index)
}

collection_group "1" <- - "0..*" collection_group_membership

media_work "1" <- - "0..*" collection_group_membership

@enduml

PlantUML version 1.2020.02(Sun Mar 01 10:22:07 UTC 2020)
(GPL source distribution)
Java Runtime: OpenJDK Runtime Environment
JVM: OpenJDK 64-Bit Server VM
Java Version: 17.0.18+8
Operating System: Linux
Default Encoding: UTF-8
Language: en
Country: null
--></g></svg>