<?xml version="1.0" encoding="UTF-8" standalone="no"?><svg xmlns="http://www.w3.org/2000/svg" xmlns:xlink="http://www.w3.org/1999/xlink" contentScriptType="application/ecmascript" contentStyleType="text/css" height="722px" preserveAspectRatio="none" style="width:1574px;height:722px;" version="1.1" viewBox="0 0 1574 722" width="1574px" zoomAndPan="magnify"><defs><filter height="300%" id="f2mdaxg1g1ut2" width="300%" x="-1" y="-1"><feGaussianBlur result="blurOut" stdDeviation="2.0"/><feColorMatrix in="blurOut" result="blurOut2" type="matrix" values="0 0 0 0 0 0 0 0 0 0 0 0 0 0 0 0 0 0 .4 0"/><feOffset dx="4.0" dy="4.0" in="blurOut2" result="blurOut3"/><feBlend in="SourceGraphic" in2="blurOut3" mode="normal"/></filter></defs><g><!--MD5=[a46658d446b05034c23a4bc1a7db0e1a]
class media_work--><rect fill="#FEFECE" filter="url(#f2mdaxg1g1ut2)" height="117.9609" id="media_work" style="stroke: #A80036; stroke-width: 1.5;" width="206" x="845.5" y="594"/><ellipse cx="907.75" cy="612.9688" fill="#ADD1B2" rx="11" ry="11" style="stroke: #A80036; stroke-width: 1.0;"/><path d="M910.7188,618.6094 Q910.1406,618.9063 909.5,619.0469 Q908.8594,619.2031 908.1563,619.2031 Q905.6563,619.2031 904.3281,617.5625 Q903.0156,615.9063 903.0156,612.7813 Q903.0156,609.6563 904.3281,608 Q905.6563,606.3438 908.1563,606.3438 Q908.8594,606.3438 909.5,606.5 Q910.1563,606.6563 910.7188,606.9531 L910.7188,609.6719 Q910.0938,609.0938 909.5,608.8281 Q908.9063,608.5469 908.2813,608.5469 Q906.9375,608.5469 906.25,609.625 Q905.5625,610.6875 905.5625,612.7813 Q905.5625,614.875 906.25,615.9531 Q906.9375,617.0156 908.2813,617.0156 Q908.9063,617.0156 909.5,616.75 Q910.0938,616.4688 910.7188,615.8906 L910.7188,618.6094 Z "/><text fill="#000000" font-family="sans-serif" font-size="12" font-style="italic" lengthAdjust="spacingAndGlyphs" textLength="46" x="941.75" y="610.1387">«table»</text><text fill="#000000" font-family="sans-serif" font-size="12" lengthAdjust="spacingAndGlyphs" textLength="73" x="928.25" y="624.1074">media_work</text><line style="stroke: #A80036; stroke-width: 1.5;" x1="846.5" x2="1050.5" y1="631.9375" y2="631.9375"/><text fill="#000000" font-family="sans-serif" font-size="11" lengthAdjust="spacingAndGlyphs" textLength="77" x="851.5" y="646.1479">id: UUID «PK»</text><text fill="#000000" font-family="sans-serif" font-size="11" lengthAdjust="spacingAndGlyphs" textLength="60" x="851.5" y="658.9526">type: TEXT</text><text fill="#000000" font-family="sans-serif" font-size="11" lengthAdjust="spacingAndGlyphs" textLength="57" x="851.5" y="671.7573">title: TEXT</text><text fill="#000000" font-family="sans-serif" font-size="11" lengthAdjust="spacingAndGlyphs" textLength="159" x="851.5" y="684.562">original_release_date: DATE</text><line style="stroke: #A80036; stroke-width: 1.5;" x1="846.5" x2="1050.5" y1="691.1563" y2="691.1563"/><text fill="#000000" font-family="sans-serif" font-size="11" lengthAdjust="spacingAndGlyphs" textLength="194" x="851.5" y="705.3667">end_date: DATE (nullable, TV only)</text><!--MD5=[1e263bdf071388f27938ecfce413abc6]
class edition--><rect fill="#FEFECE" filter="url(#f2mdaxg1g1ut2)" height="92.3516" id="edition" style="stroke: #A80036; stroke-width: 1.5;" width="162" x="516.5" y="422.5"/><ellipse cx="571.75" cy="441.4688" fill="#ADD1B2" rx="11" ry="11" style="stroke: #A80036; stroke-width: 1.0;"/><path d="M574.7188,447.1094 Q574.1406,447.4063 573.5,447.5469 Q572.8594,447.7031 572.1563,447.7031 Q569.6563,447.7031 568.3281,446.0625 Q567.0156,444.4063 567.0156,441.2813 Q567.0156,438.1563 568.3281,436.5 Q569.6563,434.8438 572.1563,434.8438 Q572.8594,434.8438 573.5,435 Q574.1563,435.1563 574.7188,435.4531 L574.7188,438.1719 Q574.0938,437.5938 573.5,437.3281 Q572.9063,437.0469 572.2813,437.0469 Q570.9375,437.0469 570.25,438.125 Q569.5625,439.1875 569.5625,441.2813 Q569.5625,443.375 570.25,444.4531 Q570.9375,445.5156 572.2813,445.5156 Q572.9063,445.5156 573.5,445.25 Q574.0938,444.9688 574.7188,444.3906 L574.7188,447.1094 Z "/><text fill="#000000" font-family="sans-serif" font-size="12" font-style="italic" lengthAdjust="spacingAndGlyphs" textLength="46" x="590.75" y="438.6387">«table»</text><text fill="#000000" font-family="sans-serif" font-size="12" lengthAdjust="spacingAndGlyphs" textLength="43" x="592.25" y="452.6074">edition</text><line style="stroke: #A80036; stroke-width: 1.5;" x1="517.5" x2="677.5" y1="460.4375" y2="460.4375"/><text fill="#000000" font-family="sans-serif" font-size="11" lengthAdjust="spacingAndGlyphs" textLength="77" x="522.5" y="474.6479">id: UUID «PK»</text><text fill="#000000" font-family="sans-serif" font-size="11" lengthAdjust="spacingAndGlyphs" textLength="150" x="522.5" y="487.4526">media_work_id: UUID «FK»</text><text fill="#000000" font-family="sans-serif" font-size="11" lengthAdjust="spacingAndGlyphs" textLength="111" x="522.5" y="500.2573">release_date: DATE</text><line style="stroke: #A80036; stroke-width: 1.5;" x1="517.5" x2="677.5" y1="506.8516" y2="506.8516"/><!--MD5=[5f5f4af734b35ea6a7d944b5ecf3b660]
class extra--><rect fill="#FEFECE" filter="url(#f2mdaxg1g1ut2)" height="92.3516" id="extra" style="stroke: #A80036; stroke-width: 1.5;" width="164" x="411.5" y="231.5"/><ellipse cx="468.25" cy="250.4688" fill="#ADD1B2" rx="11" ry="11" style="stroke: #A80036; stroke-width: 1.0;"/><path d="M471.2188,256.1094 Q470.6406,256.4063 470,256.5469 Q469.3594,256.7031 468.6563,256.7031 Q466.1563,256.7031 464.8281,255.0625 Q463.5156,253.4063 463.5156,250.2813 Q463.5156,247.1563 464.8281,245.5 Q466.1563,243.8438 468.6563,243.8438 Q469.3594,243.8438 470,244 Q470.6563,244.1563 471.2188,244.4531 L471.2188,247.1719 Q470.5938,246.5938 470,246.3281 Q469.4063,246.0469 468.7813,246.0469 Q467.4375,246.0469 466.75,247.125 Q466.0625,248.1875 466.0625,250.2813 Q466.0625,252.375 466.75,253.4531 Q467.4375,254.5156 468.7813,254.5156 Q469.4063,254.5156 470,254.25 Q470.5938,253.9688 471.2188,253.3906 L471.2188,256.1094 Z "/><text fill="#000000" font-family="sans-serif" font-size="12" font-style="italic" lengthAdjust="spacingAndGlyphs" textLength="46" x="486.75" y="247.6387">«table»</text><text fill="#000000" font-family="sans-serif" font-size="12" lengthAdjust="spacingAndGlyphs" textLength="32" x="493.75" y="261.6074">extra</text><line style="stroke: #A80036; stroke-width: 1.5;" x1="412.5" x2="574.5" y1="269.4375" y2="269.4375"/><text fill="#000000" font-family="sans-serif" font-size="11" lengthAdjust="spacingAndGlyphs" textLength="152" x="417.5" y="283.6479">edition_id: UUID «PK» «FK»</text><text fill="#000000" font-family="sans-serif" font-size="11" lengthAdjust="spacingAndGlyphs" textLength="89" x="417.5" y="296.4526">title: TEXT «PK»</text><text fill="#000000" font-family="sans-serif" font-size="11" lengthAdjust="spacingAndGlyphs" textLength="92" x="417.5" y="309.2573">type: TEXT «PK»</text><line style="stroke: #A80036; stroke-width: 1.5;" x1="412.5" x2="574.5" y1="315.8516" y2="315.8516"/><!--MD5=[4bdacbfe2c3ba0f099e18ef48a56d9e8]
class media_copy--><rect fill="#FEFECE" filter="url(#f2mdaxg1g1ut2)" height="130.7656" id="media_copy" style="stroke: #A80036; stroke-width: 1.5;" width="171" x="6" y="212"/><ellipse cx="50.75" cy="230.9688" fill="#ADD1B2" rx="11" ry="11" style="stroke: #A80036; stroke-width: 1.0;"/><path d="M53.7188,236.6094 Q53.1406,236.9063 52.5,237.0469 Q51.8594,237.2031 51.1563,237.2031 Q48.6563,237.2031 47.3281,235.5625 Q46.0156,233.9063 46.0156,230.7813 Q46.0156,227.6563 47.3281,226 Q48.6563,224.3438 51.1563,224.3438 Q51.8594,224.3438 52.5,224.5 Q53.1563,224.6563 53.7188,224.9531 L53.7188,227.6719 Q53.0938,227.0938 52.5,226.8281 Q51.9063,226.5469 51.2813,226.5469 Q49.9375,226.5469 49.25,227.625 Q48.5625,228.6875 48.5625,230.7813 Q48.5625,232.875 49.25,233.9531 Q49.9375,235.0156 51.2813,235.0156 Q51.9063,235.0156 52.5,234.75 Q53.0938,234.4688 53.7188,233.8906 L53.7188,236.6094 Z "/><text fill="#000000" font-family="sans-serif" font-size="12" font-style="italic" lengthAdjust="spacingAndGlyphs" textLength="46" x="84.75" y="228.1387">«table»</text><text fill="#000000" font-family="sans-serif" font-size="12" lengthAdjust="spacingAndGlyphs" textLength="73" x="71.25" y="242.1074">media_copy</text><line style="stroke: #A80036; stroke-width: 1.5;" x1="7" x2="176" y1="249.9375" y2="249.9375"/><text fill="#000000" font-family="sans-serif" font-size="11" lengthAdjust="spacingAndGlyphs" textLength="77" x="12" y="264.1479">id: UUID «PK»</text><text fill="#000000" font-family="sans-serif" font-size="11" lengthAdjust="spacingAndGlyphs" textLength="120" x="12" y="276.9526">edition_id: UUID «FK»</text><text fill="#000000" font-family="sans-serif" font-size="11" lengthAdjust="spacingAndGlyphs" textLength="118" x="12" y="289.7573">location_name: TEXT</text><text fill="#000000" font-family="sans-serif" font-size="11" lengthAdjust="spacingAndGlyphs" textLength="68" x="12" y="302.562">notes: TEXT</text><text fill="#000000" font-family="sans-serif" font-size="11" lengthAdjust="spacingAndGlyphs" textLength="132" x="12" y="315.3667">created_at: TIMESTAMP</text><line style="stroke: #A80036; stroke-width: 1.5;" x1="7" x2="176" y1="321.9609" y2="321.9609"/><text fill="#000000" font-family="sans-serif" font-size="11" lengthAdjust="spacingAndGlyphs" textLength="159" x="12" y="336.1714">date_added: DATE (nullable)</text><!--MD5=[3106ab2c37ca8453f9ed78d5090d39d0]
class note--><rect fill="#FEFECE" filter="url(#f2mdaxg1g1ut2)" height="105.1563" id="note" style="stroke: #A80036; stroke-width: 1.5;" width="161" x="11" y="27.5"/><ellipse cx="66.25" cy="46.4688" fill="#ADD1B2" rx="11" ry="11" style="stroke: #A80036; stroke-width: 1.0;"/><path d="M69.2188,52.1094 Q68.6406,52.4063 68,52.5469 Q67.3594,52.7031 66.6563,52.7031 Q64.1563,52.7031 62.8281,51.0625 Q61.5156,49.4063 61.5156,46.2813 Q61.5156,43.1563 62.8281,41.5 Q64.1563,39.8438 66.6563,39.8438 Q67.3594,39.8438 68,40 Q68.6563,40.1563 69.2188,40.4531 L69.2188,43.1719 Q68.5938,42.5938 68,42.3281 Q67.4063,42.0469 66.7813,42.0469 Q65.4375,42.0469 64.75,43.125 Q64.0625,44.1875 64.0625,46.2813 Q64.0625,48.375 64.75,49.4531 Q65.4375,50.5156 66.7813,50.5156 Q67.4063,50.5156 68,50.25 Q68.5938,49.9688 69.2188,49.3906 L69.2188,52.1094 Z "/><text fill="#000000" font-family="sans-serif" font-size="12" font-style="italic" lengthAdjust="spacingAndGlyphs" textLength="46" x="84.75" y="43.6387">«table»</text><text fill="#000000" font-family="sans-serif" font-size="12" lengthAdjust="spacingAndGlyphs" textLength="29" x="93.25" y="57.6074">note</text><line style="stroke: #A80036; stroke-width: 1.5;" x1="12" x2="171" y1="65.4375" y2="65.4375"/><text fill="#000000" font-family="sans-serif" font-size="11" lengthAdjust="spacingAndGlyphs" textLength="77" x="17" y="79.6479">id: UUID «PK»</text><text fill="#000000" font-family="sans-serif" font-size="11" lengthAdjust="spacingAndGlyphs" textLength="149" x="17" y="92.4526">media_copy_id: UUID «FK»</text><text fill="#000000" font-family="sans-serif" font-size="11" lengthAdjust="spacingAndGlyphs" textLength="57" x="17" y="105.2573">text: TEXT</text><text fill="#000000" font-family="sans-serif" font-size="11" lengthAdjust="spacingAndGlyphs" textLength="132" x="17" y="118.062">created_at: TIMESTAMP</text><line style="stroke: #A80036; stroke-width: 1.5;" x1="12" x2="171" y1="124.6563" y2="124.6563"/><!--MD5=[12f16c501e650317eb7901eed2ebff52]
class movie_edition--><rect fill="#FEFECE" filter="url(#f2mdaxg1g1ut2)" height="117.9609" id="movie_edition" style="stroke: #A80036; stroke-width: 1.5;" width="181" x="827" y="218.5"/><ellipse cx="870.8" cy="237.4688" fill="#ADD1B2" rx="11" ry="11" style="stroke: #A80036; stroke-width: 1.0;"/><path d="M873.7688,243.1094 Q873.1906,243.4063 872.55,243.5469 Q871.9094,243.7031 871.2063,243.7031 Q868.7063,243.7031 867.3781,242.0625 Q866.0656,240.4063 866.0656,237.2813 Q866.0656,234.1563 867.3781,232.5 Q868.7063,230.8438 871.2063,230.8438 Q871.9094,230.8438 872.55,231 Q873.2063,231.1563 873.7688,231.4531 L873.7688,234.1719 Q873.1438,233.5938 872.55,233.3281 Q871.9563,233.0469 871.3313,233.0469 Q869.9875,233.0469 869.3,234.125 Q868.6125,235.1875 868.6125,237.2813 Q868.6125,239.375 869.3,240.4531 Q869.9875,241.5156 871.3313,241.5156 Q871.9563,241.5156 872.55,241.25 Q873.1438,240.9688 873.7688,240.3906 L873.7688,243.1094 Z "/><text fill="#000000" font-family="sans-serif" font-size="12" font-style="italic" lengthAdjust="spacingAndGlyphs" textLength="46" x="910.7" y="234.6387">«table»</text><text fill="#000000" font-family="sans-serif" font-size="12" lengthAdjust="spacingAndGlyphs" textLength="85" x="891.2" y="248.6074">movie_edition</text><line style="stroke: #A80036; stroke-width: 1.5;" x1="828" x2="1007" y1="256.4375" y2="256.4375"/><text fill="#000000" font-family="sans-serif" font-size="11" lengthAdjust="spacingAndGlyphs" textLength="152" x="833" y="270.6479">edition_id: UUID «PK» «FK»</text><text fill="#000000" font-family="sans-serif" font-size="11" lengthAdjust="spacingAndGlyphs" textLength="122" x="833" y="283.4526">runtime_minutes: INT</text><text fill="#000000" font-family="sans-serif" font-size="11" lengthAdjust="spacingAndGlyphs" textLength="86" x="833" y="296.2573">disc_count: INT</text><line style="stroke: #A80036; stroke-width: 1.5;" x1="828" x2="1007" y1="302.8516" y2="302.8516"/><text fill="#000000" font-family="sans-serif" font-size="11" lengthAdjust="spacingAndGlyphs" textLength="169" x="833" y="317.062">medium: TEXT (VideoMedium)</text><text fill="#000000" font-family="sans-serif" font-size="11" lengthAdjust="spacingAndGlyphs" textLength="135" x="833" y="329.8667">case: TEXT (VideoCase)</text><!--MD5=[15d7746c87f88fc09adb74daa926a768]
class tv_edition--><rect fill="#FEFECE" filter="url(#f2mdaxg1g1ut2)" height="105.1563" id="tv_edition" style="stroke: #A80036; stroke-width: 1.5;" width="181" x="611" y="225"/><ellipse cx="667.25" cy="243.9688" fill="#ADD1B2" rx="11" ry="11" style="stroke: #A80036; stroke-width: 1.0;"/><path d="M670.2188,249.6094 Q669.6406,249.9063 669,250.0469 Q668.3594,250.2031 667.6563,250.2031 Q665.1563,250.2031 663.8281,248.5625 Q662.5156,246.9063 662.5156,243.7813 Q662.5156,240.6563 663.8281,239 Q665.1563,237.3438 667.6563,237.3438 Q668.3594,237.3438 669,237.5 Q669.6563,237.6563 670.2188,237.9531 L670.2188,240.6719 Q669.5938,240.0938 669,239.8281 Q668.4063,239.5469 667.7813,239.5469 Q666.4375,239.5469 665.75,240.625 Q665.0625,241.6875 665.0625,243.7813 Q665.0625,245.875 665.75,246.9531 Q666.4375,248.0156 667.7813,248.0156 Q668.4063,248.0156 669,247.75 Q669.5938,247.4688 670.2188,246.8906 L670.2188,249.6094 Z "/><text fill="#000000" font-family="sans-serif" font-size="12" font-style="italic" lengthAdjust="spacingAndGlyphs" textLength="46" x="694.75" y="241.1387">«table»</text><text fill="#000000" font-family="sans-serif" font-size="12" lengthAdjust="spacingAndGlyphs" textLength="60" x="687.75" y="255.1074">tv_edition</text><line style="stroke: #A80036; stroke-width: 1.5;" x1="612" x2="791" y1="262.9375" y2="262.9375"/><text fill="#000000" font-family="sans-serif" font-size="11" lengthAdjust="spacingAndGlyphs" textLength="152" x="617" y="277.1479">edition_id: UUID «PK» «FK»</text><text fill="#000000" font-family="sans-serif" font-size="11" lengthAdjust="spacingAndGlyphs" textLength="86" x="617" y="289.9526">disc_count: INT</text><line style="stroke: #A80036; stroke-width: 1.5;" x1="612" x2="791" y1="296.5469" y2="296.5469"/><text fill="#000000" font-family="sans-serif" font-size="11" lengthAdjust="spacingAndGlyphs" textLength="169" x="617" y="310.7573">medium: TEXT (VideoMedium)</text><text fill="#000000" font-family="sans-serif" font-size="11" lengthAdjust="spacingAndGlyphs" textLength="135" x="617" y="323.562">case: TEXT (VideoCase)</text><!--MD5=[65239b9aab999f0c561a5ca3aa8c59c9]
class season--><rect fill="#FEFECE" filter="url(#f2mdaxg1g1ut2)" height="130.7656" id="season" style="stroke: #A80036; stroke-width: 1.5;" width="247" x="1043" y="212"/><ellipse cx="1139.25" cy="230.9688" fill="#ADD1B2" rx="11" ry="11" style="stroke: #A80036; stroke-width: 1.0;"/><path d="M1142.2188,236.6094 Q1141.6406,236.9063 1141,237.0469 Q1140.3594,237.2031 1139.6563,237.2031 Q1137.1563,237.2031 1135.8281,235.5625 Q1134.5156,233.9063 1134.5156,230.7813 Q1134.5156,227.6563 1135.8281,226 Q1137.1563,224.3438 1139.6563,224.3438 Q1140.3594,224.3438 1141,224.5 Q1141.6563,224.6563 1142.2188,224.9531 L1142.2188,227.6719 Q1141.5938,227.0938 1141,226.8281 Q1140.4063,226.5469 1139.7813,226.5469 Q1138.4375,226.5469 1137.75,227.625 Q1137.0625,228.6875 1137.0625,230.7813 Q1137.0625,232.875 1137.75,233.9531 Q1138.4375,235.0156 1139.7813,235.0156 Q1140.4063,235.0156 1141,234.75 Q1141.5938,234.4688 1142.2188,233.8906 L1142.2188,236.6094 Z "/><text fill="#000000" font-family="sans-serif" font-size="12" font-style="italic" lengthAdjust="spacingAndGlyphs" textLength="46" x="1159.75" y="228.1387">«table»</text><text fill="#000000" font-family="sans-serif" font-size="12" lengthAdjust="spacingAndGlyphs" textLength="46" x="1159.75" y="242.1074">season</text><line style="stroke: #A80036; stroke-width: 1.5;" x1="1044" x2="1289" y1="249.9375" y2="249.9375"/><text fill="#000000" font-family="sans-serif" font-size="11" lengthAdjust="spacingAndGlyphs" textLength="77" x="1049" y="264.1479">id: UUID «PK»</text><text fill="#000000" font-family="sans-serif" font-size="11" lengthAdjust="spacingAndGlyphs" textLength="150" x="1049" y="276.9526">media_work_id: UUID «FK»</text><text fill="#000000" font-family="sans-serif" font-size="11" lengthAdjust="spacingAndGlyphs" textLength="118" x="1049" y="289.7573">season_number: INT</text><text fill="#000000" font-family="sans-serif" font-size="11" lengthAdjust="spacingAndGlyphs" textLength="159" x="1049" y="302.562">original_release_date: DATE</text><text fill="#000000" font-family="sans-serif" font-size="11" lengthAdjust="spacingAndGlyphs" textLength="113" x="1049" y="315.3667">title: TEXT (nullable)</text><line style="stroke: #A80036; stroke-width: 1.0;" x1="1044" x2="1289" y1="321.9609" y2="321.9609"/><text fill="#000000" font-family="sans-serif" font-size="11" lengthAdjust="spacingAndGlyphs" textLength="235" x="1049" y="336.1714">UNIQUE(media_work_id, season_number)</text><!--MD5=[77ab79214866798d9cf70993822fb05b]
class episode--><rect fill="#FEFECE" filter="url(#f2mdaxg1g1ut2)" height="143.5703" id="episode" style="stroke: #A80036; stroke-width: 1.5;" width="224" x="1054.5" y="8"/><ellipse cx="1137.25" cy="26.9688" fill="#ADD1B2" rx="11" ry="11" style="stroke: #A80036; stroke-width: 1.0;"/><path d="M1140.2188,32.6094 Q1139.6406,32.9063 1139,33.0469 Q1138.3594,33.2031 1137.6563,33.2031 Q1135.1563,33.2031 1133.8281,31.5625 Q1132.5156,29.9063 1132.5156,26.7813 Q1132.5156,23.6563 1133.8281,22 Q1135.1563,20.3438 1137.6563,20.3438 Q1138.3594,20.3438 1139,20.5 Q1139.6563,20.6563 1140.2188,20.9531 L1140.2188,23.6719 Q1139.5938,23.0938 1139,22.8281 Q1138.4063,22.5469 1137.7813,22.5469 Q1136.4375,22.5469 1135.75,23.625 Q1135.0625,24.6875 1135.0625,26.7813 Q1135.0625,28.875 1135.75,29.9531 Q1136.4375,31.0156 1137.7813,31.0156 Q1138.4063,31.0156 1139,30.75 Q1139.5938,30.4688 1140.2188,29.8906 L1140.2188,32.6094 Z "/><text fill="#000000" font-family="sans-serif" font-size="12" font-style="italic" lengthAdjust="spacingAndGlyphs" textLength="46" x="1159.75" y="24.1387">«table»</text><text fill="#000000" font-family="sans-serif" font-size="12" lengthAdjust="spacingAndGlyphs" textLength="50" x="1157.75" y="38.1074">episode</text><line style="stroke: #A80036; stroke-width: 1.5;" x1="1055.5" x2="1277.5" y1="45.9375" y2="45.9375"/><text fill="#000000" font-family="sans-serif" font-size="11" lengthAdjust="spacingAndGlyphs" textLength="77" x="1060.5" y="60.1479">id: UUID «PK»</text><text fill="#000000" font-family="sans-serif" font-size="11" lengthAdjust="spacingAndGlyphs" textLength="124" x="1060.5" y="72.9526">season_id: UUID «FK»</text><text fill="#000000" font-family="sans-serif" font-size="11" lengthAdjust="spacingAndGlyphs" textLength="121" x="1060.5" y="85.7573">episode_number: INT</text><text fill="#000000" font-family="sans-serif" font-size="11" lengthAdjust="spacingAndGlyphs" textLength="83" x="1060.5" y="98.562">air_date: DATE</text><text fill="#000000" font-family="sans-serif" font-size="11" lengthAdjust="spacingAndGlyphs" textLength="122" x="1060.5" y="111.3667">runtime_minutes: INT</text><line style="stroke: #A80036; stroke-width: 1.5;" x1="1055.5" x2="1277.5" y1="117.9609" y2="117.9609"/><text fill="#000000" font-family="sans-serif" font-size="11" lengthAdjust="spacingAndGlyphs" textLength="113" x="1060.5" y="132.1714">title: TEXT (nullable)</text><text fill="#000000" font-family="sans-serif" font-size="11" lengthAdjust="spacingAndGlyphs" textLength="212" x="1060.5" y="144.9761">UNIQUE(season_id, episode_number)</text><!--MD5=[df3848c55b67559230ecd910d309281b]
class tv_edition_season--><rect fill="#FEFECE" filter="url(#f2mdaxg1g1ut2)" height="79.5469" id="tv_edition_season" style="stroke: #A80036; stroke-width: 1.5;" width="180" x="725.5" y="40"/><ellipse cx="756.7" cy="58.9688" fill="#ADD1B2" rx="11" ry="11" style="stroke: #A80036; stroke-width: 1.0;"/><path d="M759.6688,64.6094 Q759.0906,64.9063 758.45,65.0469 Q757.8094,65.2031 757.1063,65.2031 Q754.6063,65.2031 753.2781,63.5625 Q751.9656,61.9063 751.9656,58.7813 Q751.9656,55.6563 753.2781,54 Q754.6063,52.3438 757.1063,52.3438 Q757.8094,52.3438 758.45,52.5 Q759.1063,52.6563 759.6688,52.9531 L759.6688,55.6719 Q759.0438,55.0938 758.45,54.8281 Q757.8563,54.5469 757.2313,54.5469 Q755.8875,54.5469 755.2,55.625 Q754.5125,56.6875 754.5125,58.7813 Q754.5125,60.875 755.2,61.9531 Q755.8875,63.0156 757.2313,63.0156 Q757.8563,63.0156 758.45,62.75 Q759.0438,62.4688 759.6688,61.8906 L759.6688,64.6094 Z "/><text fill="#000000" font-family="sans-serif" font-size="12" font-style="italic" lengthAdjust="spacingAndGlyphs" textLength="46" x="807.3" y="56.1387">«table»</text><text fill="#000000" font-family="sans-serif" font-size="12" lengthAdjust="spacingAndGlyphs" textLength="112" x="774.3" y="70.1074">tv_edition_season</text><line style="stroke: #A80036; stroke-width: 1.5;" x1="726.5" x2="904.5" y1="77.9375" y2="77.9375"/><text fill="#000000" font-family="sans-serif" font-size="11" lengthAdjust="spacingAndGlyphs" textLength="168" x="731.5" y="92.1479">tv_edition_id: UUID «PK» «FK»</text><text fill="#000000" font-family="sans-serif" font-size="11" lengthAdjust="spacingAndGlyphs" textLength="156" x="731.5" y="104.9526">season_id: UUID «PK» «FK»</text><line style="stroke: #A80036; stroke-width: 1.5;" x1="726.5" x2="904.5" y1="111.5469" y2="111.5469"/><!--MD5=[0d0503032abcfd044ebbd4c79c7561fa]
class audio_track--><rect fill="#FEFECE" filter="url(#f2mdaxg1g1ut2)" height="92.3516" id="audio_track" style="stroke: #A80036; stroke-width: 1.5;" width="164" x="212.5" y="231.5"/><ellipse cx="254.05" cy="250.4688" fill="#ADD1B2" rx="11" ry="11" style="stroke: #A80036; stroke-width: 1.0;"/><path d="M257.0188,256.1094 Q256.4406,256.4063 255.8,256.5469 Q255.1594,256.7031 254.4563,256.7031 Q251.9563,256.7031 250.6281,255.0625 Q249.3156,253.4063 249.3156,250.2813 Q249.3156,247.1563 250.6281,245.5 Q251.9563,243.8438 254.4563,243.8438 Q255.1594,243.8438 255.8,244 Q256.4563,244.1563 257.0188,244.4531 L257.0188,247.1719 Q256.3938,246.5938 255.8,246.3281 Q255.2063,246.0469 254.5813,246.0469 Q253.2375,246.0469 252.55,247.125 Q251.8625,248.1875 251.8625,250.2813 Q251.8625,252.375 252.55,253.4531 Q253.2375,254.5156 254.5813,254.5156 Q255.2063,254.5156 255.8,254.25 Q256.3938,253.9688 257.0188,253.3906 L257.0188,256.1094 Z "/><text fill="#000000" font-family="sans-serif" font-size="12" font-style="italic" lengthAdjust="spacingAndGlyphs" textLength="46" x="287.45" y="247.6387">«table»</text><text fill="#000000" font-family="sans-serif" font-size="12" lengthAdjust="spacingAndGlyphs" textLength="73" x="273.95" y="261.6074">audio_track</text><line style="stroke: #A80036; stroke-width: 1.5;" x1="213.5" x2="375.5" y1="269.4375" y2="269.4375"/><text fill="#000000" font-family="sans-serif" font-size="11" lengthAdjust="spacingAndGlyphs" textLength="152" x="218.5" y="283.6479">edition_id: UUID «PK» «FK»</text><text fill="#000000" font-family="sans-serif" font-size="11" lengthAdjust="spacingAndGlyphs" textLength="120" x="218.5" y="296.4526">language: TEXT «PK»</text><text fill="#000000" font-family="sans-serif" font-size="11" lengthAdjust="spacingAndGlyphs" textLength="106" x="218.5" y="309.2573">format: TEXT «PK»</text><line style="stroke: #A80036; stroke-width: 1.5;" x1="213.5" x2="375.5" y1="315.8516" y2="315.8516"/><!--MD5=[11097d3e015eb0a58b2213c5fdee36ee]
class collection_group--><rect fill="#FEFECE" filter="url(#f2mdaxg1g1ut2)" height="79.5469" id="collection_group" style="stroke: #A80036; stroke-width: 1.5;" width="135" x="1087" y="613"/><ellipse cx="1102" cy="631.9688" fill="#ADD1B2" rx="11" ry="11" style="stroke: #A80036; stroke-width: 1.0;"/><path d="M1104.9688,637.6094 Q1104.3906,637.9063 1103.75,638.0469 Q1103.1094,638.2031 1102.4063,638.2031 Q1099.9063,638.2031 1098.5781,636.5625 Q1097.2656,634.9063 1097.2656,631.7813 Q1097.2656,628.6563 1098.5781,627 Q1099.9063,625.3438 1102.4063,625.3438 Q1103.1094,625.3438 1103.75,625.5 Q1104.4063,625.6563 1104.9688,625.9531 L1104.9688,628.6719 Q1104.3438,628.0938 1103.75,627.8281 Q1103.1563,627.5469 1102.5313,627.5469 Q1101.1875,627.5469 1100.5,628.625 Q1099.8125,629.6875 1099.8125,631.7813 Q1099.8125,633.875 1100.5,634.9531 Q1101.1875,636.0156 1102.5313,636.0156 Q1103.1563,636.0156 1103.75,635.75 Q1104.3438,635.4688 1104.9688,634.8906 L1104.9688,637.6094 Z "/><text fill="#000000" font-family="sans-serif" font-size="12" font-style="italic" lengthAdjust="spacingAndGlyphs" textLength="46" x="1144.5" y="629.1387">«table»</text><text fill="#000000" font-family="sans-serif" font-size="12" lengthAdjust="spacingAndGlyphs" textLength="103" x="1116" y="643.1074">collection_group</text><line style="stroke: #A80036; stroke-width: 1.5;" x1="1088" x2="1221" y1="650.9375" y2="650.9375"/><text fill="#000000" font-family="sans-serif" font-size="11" lengthAdjust="spacingAndGlyphs" textLength="77" x="1093" y="665.1479">id: UUID «PK»</text><text fill="#000000" font-family="sans-serif" font-size="11" lengthAdjust="spacingAndGlyphs" textLength="57" x="1093" y="677.9526">title: TEXT</text><line style="stroke: #A80036; stroke-width: 1.5;" x1="1088" x2="1221" y1="684.5469" y2="684.5469"/><!--MD5=[b50276b9575ad1e45a3dfec34b3243bb]
class collection_group_membership--><rect fill="#FEFECE" filter="url(#f2mdaxg1g1ut2)" height="130.7656" id="collection_group_membership" style="stroke: #A80036; stroke-width: 1.5;" width="263" x="1002" y="403"/><ellipse cx="1037.25" cy="421.9688" fill="#ADD1B2" rx="11" ry="11" style="stroke: #A80036; stroke-width: 1.0;"/><path d="M1040.2188,427.6094 Q1039.6406,427.9063 1039,428.0469 Q1038.3594,428.2031 1037.6563,428.2031 Q1035.1563,428.2031 1033.8281,426.5625 Q1032.5156,424.9063 1032.5156,421.7813 Q1032.5156,418.6563 1033.8281,417 Q1035.1563,415.3438 1037.6563,415.3438 Q1038.3594,415.3438 1039,415.5 Q1039.6563,415.6563 1040.2188,415.9531 L1040.2188,418.6719 Q1039.5938,418.0938 1039,417.8281 Q1038.4063,417.5469 1037.7813,417.5469 Q1036.4375,417.5469 1035.75,418.625 Q1035.0625,419.6875 1035.0625,421.7813 Q1035.0625,423.875 1035.75,424.9531 Q1036.4375,426.0156 1037.7813,426.0156 Q1038.4063,426.0156 1039,425.75 Q1039.5938,425.4688 1040.2188,424.8906 L1040.2188,427.6094 Z "/><text fill="#000000" font-family="sans-serif" font-size="12" font-style="italic" lengthAdjust="spacingAndGlyphs" textLength="46" x="1125.75" y="419.1387">«table»</text><text fill="#000000" font-family="sans-serif" font-size="12" lengthAdjust="spacingAndGlyphs" textLength="186" x="1055.75" y="433.1074">collection_group_membership</text><line style="stroke: #A80036; stroke-width: 1.5;" x1="1003" x2="1264" y1="440.9375" y2="440.9375"/><text fill="#000000" font-family="sans-serif" font-size="11" lengthAdjust="spacingAndGlyphs" textLength="77" x="1008" y="455.1479">id: UUID «PK»</text><text fill="#000000" font-family="sans-serif" font-size="11" lengthAdjust="spacingAndGlyphs" textLength="174" x="1008" y="467.9526">collection_group_id: UUID «FK»</text><text fill="#000000" font-family="sans-serif" font-size="11" lengthAdjust="spacingAndGlyphs" textLength="150" x="1008" y="480.7573">media_work_id: UUID «FK»</text><text fill="#000000" font-family="sans-serif" font-size="11" lengthAdjust="spacingAndGlyphs" textLength="85" x="1008" y="493.562">sort_index: INT</text><line style="stroke: #A80036; stroke-width: 1.0;" x1="1003" x2="1264" y1="500.1563" y2="500.1563"/><text fill="#000000" font-family="sans-serif" font-size="11" lengthAdjust="spacingAndGlyphs" textLength="251" x="1008" y="514.3667">UNIQUE(collection_group_id, media_work_id)</text><text fill="#000000" font-family="sans-serif" font-size="11" lengthAdjust="spacingAndGlyphs" textLength="226" x="1008" y="527.1714">UNIQUE(collection_group_id, sort_index)</text><!--MD5=[c70d0026982c74753187fd828a4c968f]
class contributor--><rect fill="#FEFECE" filter="url(#f2mdaxg1g1ut2)" height="79.5469" id="contributor" style="stroke: #A80036; stroke-width: 1.5;" width="102" x="1380.5" y="613"/><ellipse cx="1395.5" cy="631.9688" fill="#ADD1B2" rx="11" ry="11" style="stroke: #A80036; stroke-width: 1.0;"/><path d="M1398.4688,637.6094 Q1397.8906,637.9063 1397.25,638.0469 Q1396.6094,638.2031 1395.9063,638.2031 Q1393.4063,638.2031 1392.0781,636.5625 Q1390.7656,634.9063 1390.7656,631.7813 Q1390.7656,628.6563 1392.0781,627 Q1393.4063,625.3438 1395.9063,625.3438 Q1396.6094,625.3438 1397.25,625.5 Q1397.9063,625.6563 1398.4688,625.9531 L1398.4688,628.6719 Q1397.8438,628.0938 1397.25,627.8281 Q1396.6563,627.5469 1396.0313,627.5469 Q1394.6875,627.5469 1394,628.625 Q1393.3125,629.6875 1393.3125,631.7813 Q1393.3125,633.875 1394,634.9531 Q1394.6875,636.0156 1396.0313,636.0156 Q1396.6563,636.0156 1397.25,635.75 Q1397.8438,635.4688 1398.4688,634.8906 L1398.4688,637.6094 Z "/><text fill="#000000" font-family="sans-serif" font-size="12" font-style="italic" lengthAdjust="spacingAndGlyphs" textLength="46" x="1421.5" y="629.1387">«table»</text><text fill="#000000" font-family="sans-serif" font-size="12" lengthAdjust="spacingAndGlyphs" textLength="70" x="1409.5" y="643.1074">contributor</text><line style="stroke: #A80036; stroke-width: 1.5;" x1="1381.5" x2="1481.5" y1="650.9375" y2="650.9375"/><text fill="#000000" font-family="sans-serif" font-size="11" lengthAdjust="spacingAndGlyphs" textLength="77" x="1386.5" y="665.1479">id: UUID «PK»</text><text fill="#000000" font-family="sans-serif" font-size="11" lengthAdjust="spacingAndGlyphs" textLength="68" x="1386.5" y="677.9526">name: TEXT</text><line style="stroke: #A80036; stroke-width: 1.5;" x1="1381.5" x2="1481.5" y1="684.5469" y2="684.5469"/><!--MD5=[23ff8735309b44f3974df67f35899a34]
class contribution--><rect fill="#FEFECE" filter="url(#f2mdaxg1g1ut2)" height="117.9609" id="contribution" style="stroke: #A80036; stroke-width: 1.5;" width="263" x="1300" y="409.5"/><ellipse cx="1389.25" cy="428.4688" fill="#ADD1B2" rx="11" ry="11" style="stroke: #A80036; stroke-width: 1.0;"/><path d="M1392.2188,434.1094 Q1391.6406,434.4063 1391,434.5469 Q1390.3594,434.7031 1389.6563,434.7031 Q1387.1563,434.7031 1385.8281,433.0625 Q1384.5156,431.4063 1384.5156,428.2813 Q1384.5156,425.1563 1385.8281,423.5 Q1387.1563,421.8438 1389.6563,421.8438 Q1390.3594,421.8438 1391,422 Q1391.6563,422.1563 1392.2188,422.4531 L1392.2188,425.1719 Q1391.5938,424.5938 1391,424.3281 Q1390.4063,424.0469 1389.7813,424.0469 Q1388.4375,424.0469 1387.75,425.125 Q1387.0625,426.1875 1387.0625,428.2813 Q1387.0625,430.375 1387.75,431.4531 Q1388.4375,432.5156 1389.7813,432.5156 Q1390.4063,432.5156 1391,432.25 Q1391.5938,431.9688 1392.2188,431.3906 L1392.2188,434.1094 Z "/><text fill="#000000" font-family="sans-serif" font-size="12" font-style="italic" lengthAdjust="spacingAndGlyphs" textLength="46" x="1424.75" y="425.6387">«table»</text><text fill="#000000" font-family="sans-serif" font-size="12" lengthAdjust="spacingAndGlyphs" textLength="76" x="1409.75" y="439.6074">contribution</text><line style="stroke: #A80036; stroke-width: 1.5;" x1="1301" x2="1562" y1="447.4375" y2="447.4375"/><text fill="#000000" font-family="sans-serif" font-size="11" lengthAdjust="spacingAndGlyphs" textLength="77" x="1306" y="461.6479">id: UUID «PK»</text><text fill="#000000" font-family="sans-serif" font-size="11" lengthAdjust="spacingAndGlyphs" textLength="150" x="1306" y="474.4526">media_work_id: UUID «FK»</text><text fill="#000000" font-family="sans-serif" font-size="11" lengthAdjust="spacingAndGlyphs" textLength="144" x="1306" y="487.2573">contributor_id: UUID «FK»</text><text fill="#000000" font-family="sans-serif" font-size="11" lengthAdjust="spacingAndGlyphs" textLength="58" x="1306" y="500.062">role: TEXT</text><line style="stroke: #A80036; stroke-width: 1.0;" x1="1301" x2="1562" y1="506.6563" y2="506.6563"/><text fill="#000000" font-family="sans-serif" font-size="11" lengthAdjust="spacingAndGlyphs" textLength="251" x="1306" y="520.8667">UNIQUE(media_work_id, contributor_id, role)</text><!--MD5=[0c1fa8cb65f6ba488e60a476ac8cdb04]
link edition to media_work--><path d="M678.91,511.83 C726.97,536.82 788.41,568.76 840.49,595.84 " fill="none" id="edition-&gt;media_work" style="stroke: #A80036; stroke-width: 1.0;"/><polygon fill="#A80036" points="845.18,598.28,839.0561,590.5665,840.7486,595.9642,835.3509,597.6567,845.18,598.28" style="stroke: #A80036; stroke-width: 1.0;"/><text fill="#000000" font-family="sans-serif" font-size="13" lengthAdjust="spacingAndGlyphs" textLength="23" x="686.6041" y="511.855">0..*</text><text fill="#000000" font-family="sans-serif" font-size="13" lengthAdjust="spacingAndGlyphs" textLength="8" x="829.6341" y="590.9781">1</text><!--MD5=[2535c47aa027d00d0b953e03c68ea5e3]
link extra to edition--><path d="M518.41,323.77 C533.98,352.07 554.05,388.54 570.08,417.66 " fill="none" id="extra-&gt;edition" style="stroke: #A80036; stroke-width: 1.0;"/><polygon fill="#A80036" points="572.61,422.27,571.7739,412.4567,570.1988,417.8898,564.7656,416.3147,572.61,422.27" style="stroke: #A80036; stroke-width: 1.0;"/><text fill="#000000" font-family="sans-serif" font-size="13" lengthAdjust="spacingAndGlyphs" textLength="23" x="497.4634" y="344.0537">0..*</text><text fill="#000000" font-family="sans-serif" font-size="13" lengthAdjust="spacingAndGlyphs" textLength="8" x="560.3668" y="411.4292">1</text><!--MD5=[4afa0910609deabdc6d887ae31feab6f]
link media_copy to edition--><path d="M177.13,334.39 C182.93,337.46 188.75,340.36 194.5,343 C299.59,391.14 428.31,427.25 511.56,447.86 " fill="none" id="media_copy-&gt;edition" style="stroke: #A80036; stroke-width: 1.0;"/><polygon fill="#A80036" points="516.48,449.07,508.6854,443.0497,511.6226,447.8842,506.7881,450.8215,516.48,449.07" style="stroke: #A80036; stroke-width: 1.0;"/><text fill="#000000" font-family="sans-serif" font-size="13" lengthAdjust="spacingAndGlyphs" textLength="23" x="181.6502" y="337.1539">0..*</text><text fill="#000000" font-family="sans-serif" font-size="13" lengthAdjust="spacingAndGlyphs" textLength="8" x="500.3765" y="443.5597">1</text><!--MD5=[8c93288d9bbf584fe3f1a7f4b939d11e]
link note to media_copy--><path d="M91.5,132.62 C91.5,155.33 91.5,182.34 91.5,206.8 " fill="none" id="note-&gt;media_copy" style="stroke: #A80036; stroke-width: 1.0;"/><polygon fill="#A80036" points="91.5,211.98,95.5,202.98,91.5,206.98,87.5,202.98,91.5,211.98" style="stroke: #A80036; stroke-width: 1.0;"/><text fill="#000000" font-family="sans-serif" font-size="13" lengthAdjust="spacingAndGlyphs" textLength="23" x="66.9547" y="152.7639">0..*</text><text fill="#000000" font-family="sans-serif" font-size="13" lengthAdjust="spacingAndGlyphs" textLength="8" x="83.0625" y="201.0804">1</text><!--MD5=[fa28379a7cd98c4d64b4e4bec8e77c2d]
link movie_edition to edition--><path d="M826.78,332.74 C820.94,336.22 815.14,339.66 809.5,343 C766.62,368.39 718.76,396.52 679.38,419.61 " fill="none" id="movie_edition-&gt;edition" style="stroke: #A80036; stroke-width: 1.0;"/><polygon fill="#A80036" points="674.62,422.4,684.4073,421.3001,678.9337,419.8718,680.3621,414.3982,674.62,422.4" style="stroke: #A80036; stroke-width: 1.0;"/><text fill="#000000" font-family="sans-serif" font-size="13" lengthAdjust="spacingAndGlyphs" textLength="24" x="800.0216" y="335.9578">0..1</text><text fill="#000000" font-family="sans-serif" font-size="13" lengthAdjust="spacingAndGlyphs" textLength="8" x="677.3595" y="411.5783">1</text><!--MD5=[bc6b3da2900b7c658754e510717d4349]
link tv_edition to edition--><path d="M673.08,330.15 C658.07,357.42 639.74,390.74 624.89,417.73 " fill="none" id="tv_edition-&gt;edition" style="stroke: #A80036; stroke-width: 1.0;"/><polygon fill="#A80036" points="622.34,422.35,630.1694,416.3751,624.7403,417.9638,623.1515,412.5346,622.34,422.35" style="stroke: #A80036; stroke-width: 1.0;"/><text fill="#000000" font-family="sans-serif" font-size="13" lengthAdjust="spacingAndGlyphs" textLength="24" x="643.6486" y="350.298">0..1</text><text fill="#000000" font-family="sans-serif" font-size="13" lengthAdjust="spacingAndGlyphs" textLength="8" x="617.4009" y="411.521">1</text><!--MD5=[39d4c291dd15cfd07f15b580b7b8f76e]
link season to media_work--><path d="M1042.65,342.39 C1020.14,359.24 999.18,379.44 984.5,403 C949.65,458.93 943.37,535.43 944.1,588.82 " fill="none" id="season-&gt;media_work" style="stroke: #A80036; stroke-width: 1.0;"/><polygon fill="#A80036" points="944.19,593.92,948.0351,584.8528,944.1043,588.9207,940.0363,584.9899,944.19,593.92" style="stroke: #A80036; stroke-width: 1.0;"/><text fill="#000000" font-family="sans-serif" font-size="13" lengthAdjust="spacingAndGlyphs" textLength="23" x="1011.8251" y="342.7854">0..*</text><text fill="#000000" font-family="sans-serif" font-size="13" lengthAdjust="spacingAndGlyphs" textLength="8" x="935.1772" y="582.8829">1</text><!--MD5=[0459fe6c4532bbd874eb6b49f8892e93]
link episode to season--><path d="M1166.5,152.13 C1166.5,169.84 1166.5,188.82 1166.5,206.47 " fill="none" id="episode-&gt;season" style="stroke: #A80036; stroke-width: 1.0;"/><polygon fill="#A80036" points="1166.5,211.91,1170.5,202.91,1166.5,206.91,1162.5,202.91,1166.5,211.91" style="stroke: #A80036; stroke-width: 1.0;"/><text fill="#000000" font-family="sans-serif" font-size="13" lengthAdjust="spacingAndGlyphs" textLength="23" x="1142.4398" y="171.5637">0..*</text><text fill="#000000" font-family="sans-serif" font-size="13" lengthAdjust="spacingAndGlyphs" textLength="8" x="1158.0625" y="201.0028">1</text><!--MD5=[310724b6a8e64cb6a7cc6705686439f3]
link tv_edition_season to tv_edition--><path d="M792.7,120.09 C775.98,148.77 753.03,188.13 734.33,220.19 " fill="none" id="tv_edition_season-&gt;tv_edition" style="stroke: #A80036; stroke-width: 1.0;"/><polygon fill="#A80036" points="731.61,224.87,739.5893,219.0967,734.1214,220.5465,732.6716,215.0785,731.61,224.87" style="stroke: #A80036; stroke-width: 1.0;"/><text fill="#000000" font-family="sans-serif" font-size="13" lengthAdjust="spacingAndGlyphs" textLength="23" x="764.4478" y="139.489">1..*</text><text fill="#000000" font-family="sans-serif" font-size="13" lengthAdjust="spacingAndGlyphs" textLength="8" x="727.1185" y="213.8554">1</text><!--MD5=[1256dd5f81a92bacb03ceb1a422bf584]
link tv_edition_season to season--><path d="M885.69,120.09 C931.51,145.62 992.54,179.61 1046,209.38 " fill="none" id="tv_edition_season-&gt;season" style="stroke: #A80036; stroke-width: 1.0;"/><polygon fill="#A80036" points="1050.49,211.88,1044.5652,204.0126,1046.1192,209.4518,1040.68,211.0058,1050.49,211.88" style="stroke: #A80036; stroke-width: 1.0;"/><text fill="#000000" font-family="sans-serif" font-size="13" lengthAdjust="spacingAndGlyphs" textLength="23" x="871.6769" y="139.489">0..*</text><text fill="#000000" font-family="sans-serif" font-size="13" lengthAdjust="spacingAndGlyphs" textLength="8" x="1029.3639" y="200.9695">1</text><!--MD5=[0cbc73ef949991de5f8d1628f2573080]
link audio_track to edition--><path d="M363.03,323.52 C373.22,330.1 383.61,336.76 393.5,343 C434.31,368.74 480.13,396.78 517.99,419.72 " fill="none" id="audio_track-&gt;edition" style="stroke: #A80036; stroke-width: 1.0;"/><polygon fill="#A80036" points="522.57,422.49,516.962,414.3937,518.299,419.8903,512.8024,421.2273,522.57,422.49" style="stroke: #A80036; stroke-width: 1.0;"/><text fill="#000000" font-family="sans-serif" font-size="13" lengthAdjust="spacingAndGlyphs" textLength="23" x="348.7627" y="343.7654">0..*</text><text fill="#000000" font-family="sans-serif" font-size="13" lengthAdjust="spacingAndGlyphs" textLength="8" x="502.4838" y="411.3464">1</text><!--MD5=[f13d3bf9d571007f51edcb8f4e8e0566]
link collection_group_membership to collection_group--><path d="M1140.93,534.1 C1143.73,558.4 1146.84,585.47 1149.38,607.53 " fill="none" id="collection_group_membership-&gt;collection_group" style="stroke: #A80036; stroke-width: 1.0;"/><polygon fill="#A80036" points="1149.98,612.74,1152.9261,603.3421,1149.409,607.7727,1144.9784,604.2556,1149.98,612.74" style="stroke: #A80036; stroke-width: 1.0;"/><text fill="#000000" font-family="sans-serif" font-size="13" lengthAdjust="spacingAndGlyphs" textLength="23" x="1117.5103" y="553.7243">0..*</text><text fill="#000000" font-family="sans-serif" font-size="13" lengthAdjust="spacingAndGlyphs" textLength="8" x="1140.5689" y="601.9452">1</text><!--MD5=[cbc2ac2a960062e46dbd77de08848628]
link collection_group_membership to media_work--><path d="M1068.02,534.1 C1049.5,552.36 1029.4,572.19 1011.06,590.28 " fill="none" id="collection_group_membership-&gt;media_work" style="stroke: #A80036; stroke-width: 1.0;"/><polygon fill="#A80036" points="1007.42,593.87,1016.6336,590.3902,1010.9769,590.356,1011.0112,584.6992,1007.42,593.87" style="stroke: #A80036; stroke-width: 1.0;"/><text fill="#000000" font-family="sans-serif" font-size="13" lengthAdjust="spacingAndGlyphs" textLength="23" x="1037.0814" y="553.7243">0..*</text><text fill="#000000" font-family="sans-serif" font-size="13" lengthAdjust="spacingAndGlyphs" textLength="8" x="1006.1134" y="582.8268">1</text><!--MD5=[04e5859ebe023ac301e218e0336a5283]
link contribution to contributor--><path d="M1431.5,527.75 C1431.5,553.65 1431.5,583.66 1431.5,607.69 " fill="none" id="contribution-&gt;contributor" style="stroke: #A80036; stroke-width: 1.0;"/><polygon fill="#A80036" points="1431.5,612.73,1435.5,603.73,1431.5,607.73,1427.5,603.73,1431.5,612.73" style="stroke: #A80036; stroke-width: 1.0;"/><text fill="#000000" font-family="sans-serif" font-size="13" lengthAdjust="spacingAndGlyphs" textLength="23" x="1407.1703" y="547.5448">0..*</text><text fill="#000000" font-family="sans-serif" font-size="13" lengthAdjust="spacingAndGlyphs" textLength="8" x="1422.8375" y="601.9335">1</text><!--MD5=[6e9cdef0c9dcf3bc3ca33d39ff4df9b5]
link contribution to media_work--><path d="M1299.85,527.6 C1294.01,529.83 1288.21,531.97 1282.5,534 C1189.83,566.94 1161.52,559.28 1069.5,594 C1065.18,595.63 1060.8,597.36 1056.4,599.15 " fill="none" id="contribution-&gt;media_work" style="stroke: #A80036; stroke-width: 1.0;"/><polygon fill="#A80036" points="1051.62,601.13,1061.4655,601.3867,1056.2404,599.2191,1058.408,593.994,1051.62,601.13" style="stroke: #A80036; stroke-width: 1.0;"/><text fill="#000000" font-family="sans-serif" font-size="13" lengthAdjust="spacingAndGlyphs" textLength="23" x="1269.0215" y="527.4935">0..*</text><text fill="#000000" font-family="sans-serif" font-size="13" lengthAdjust="spacingAndGlyphs" textLength="8" x="1059.4866" y="593.8432">1</text><!--MD5=[3068da8bbf3151fd156cee416db23562]
@startuml
skinparam classAttributeIconSize 0

class media_work <<table>> {
    id: UUID <<PK>>
    type: TEXT
    title: TEXT
    original_release_date: DATE
    end_date: DATE (nullable, TV only)
}

class edition <<table>> {
    id: UUID <<PK>>
    media_work_id: UUID <<FK>>
    release_date: DATE
}

edition "0..*" - -> "1" media_work

class extra <<table>> {
    edition_id: UUID <<PK>> <<FK>>
    title: TEXT <<PK>>
    type: TEXT <<PK>>
}

extra "0..*" - -> "1" edition

class media_copy <<table>> {
    id: UUID <<PK>>
    edition_id: UUID <<FK>>
    location_name: TEXT
    notes: TEXT
    date_added: DATE (nullable)
    created_at: TIMESTAMP
}

media_copy "0..*" - -> "1" edition

class note <<table>> {
    id: UUID <<PK>>
    media_copy_id: UUID <<FK>>
    text: TEXT
    created_at: TIMESTAMP
}

note "0..*" - -> "1" media_copy

class movie_edition <<table>> {
    edition_id: UUID <<PK>> <<FK>>
    runtime_minutes: INT
    medium: TEXT (VideoMedium)
    case: TEXT (VideoCase)
    disc_count: INT
}

movie_edition "0..1" - -> "1" edition

class tv_edition <<table>> {
    edition_id: UUID <<PK>> <<FK>>
    medium: TEXT (VideoMedium)
    case: TEXT (VideoCase)
    disc_count: INT
}

tv_edition "0..1" - -> "1" edition

class season <<table>> {
    id: UUID <<PK>>
    media_work_id: UUID <<FK>>
    season_number: INT
    original_release_date: DATE
    title: TEXT (nullable)
    - -
    UNIQUE(media_work_id, season_number)
}

season "0..*" - -> "1" media_work

class episode <<table>> {
    id: UUID <<PK>>
    season_id: UUID <<FK>>
    episode_number: INT
    air_date: DATE
    runtime_minutes: INT
    title: TEXT (nullable)
    UNIQUE(season_id, episode_number)
}

episode "0..*" - -> "1" season

class tv_edition_season <<table>> {
    tv_edition_id: UUID <<PK>> <<FK>>
    season_id: UUID <<PK>> <<FK>>
}

tv_edition_season "1..*" - -> "1" tv_edition
tv_edition_season "0..*" - -> "1" season


class audio_track <<table>> {
    edition_id: UUID <<PK>> <<FK>>
    language: TEXT <<PK>>
    format: TEXT <<PK>>
}

audio_track "0..*" - -> "1" edition

class collection_group <<table>> {
    id: UUID <<PK>>
    title: TEXT
}

class collection_group_membership <<table>> {
    id: UUID <<PK>>
    collection_group_id: UUID <<FK>>
    media_work_id: UUID <<FK>>
    sort_index: INT
    - -
    UNIQUE(collection_group_id, media_work_id)
    UNIQUE(collection_group_id, sort_index)
}

collection_group_membership "0..*" - -> "1" collection_group
collection_group_membership "0..*" - -> "1" media_work

class contributor <<table>> {
    id: UUID <<PK>>
    name: TEXT
}

class contribution <<table>> {
    id: UUID <<PK>>
    media_work_id: UUID <<FK>>
    contributor_id: UUID <<FK>>
    role: TEXT
    - -
    UNIQUE(media_work_id, contributor_id, role)
}

contribution "0..*" - -> "1" contributor
contribution "0..*" - -> "1" media_work

@enduml

PlantUML version 1.2020.02(Sun Mar 01 10:22:07 UTC 2020)
(GPL source distribution)
Java Runtime: OpenJDK Runtime Environment
JVM: OpenJDK 64-Bit Server VM
Java Version: 17.0.18+8
Operating System: Linux
Default Encoding: UTF-8
Language: en
Country: null
--></g></svg>