<?xml version="1.0" encoding="UTF-8" standalone="no"?><svg xmlns="http://www.w3.org/2000/svg" xmlns:xlink="http://www.w3.org/1999/xlink" contentScriptType="application/ecmascript" contentStyleType="text/css" height="518px" preserveAspectRatio="none" style="width:1498px;height:518px;" version="1.1" viewBox="0 0 1498 518" width="1498px" zoomAndPan="magnify"><defs><filter height="300%" id="flw3kku4kr46g" width="300%" x="-1" y="-1"><feGaussianBlur result="blurOut" stdDeviation="2.0"/><feColorMatrix in="blurOut" result="blurOut2" type="matrix" values="0 0 0 0 0 0 0 0 0 0 0 0 0 0 0 0 0 0 .4 0"/><feOffset dx="4.0" dy="4.0" in="blurOut2" result="blurOut3"/><feBlend in="SourceGraphic" in2="blurOut3" mode="normal"/></filter></defs><g><!--MD5=[a46658d446b05034c23a4bc1a7db0e1a]
class media_work--><rect fill="#FEFECE" filter="url(#flw3kku4kr46g)" height="105.1563" id="media_work" style="stroke: #A80036; stroke-width: 1.5;" width="171" x="249" y="186"/><ellipse cx="293.75" cy="204.9688" fill="#ADD1B2" rx="11" ry="11" style="stroke: #A80036; stroke-width: 1.0;"/><path d="M296.7188,210.6094 Q296.1406,210.9063 295.5,211.0469 Q294.8594,211.2031 294.1563,211.2031 Q291.6563,211.2031 290.3281,209.5625 Q289.0156,207.9063 289.0156,204.7813 Q289.0156,201.6563 290.3281,200 Q291.6563,198.3438 294.1563,198.3438 Q294.8594,198.3438 295.5,198.5 Q296.1563,198.6563 296.7188,198.9531 L296.7188,201.6719 Q296.0938,201.0938 295.5,200.8281 Q294.9063,200.5469 294.2813,200.5469 Q292.9375,200.5469 292.25,201.625 Q291.5625,202.6875 291.5625,204.7813 Q291.5625,206.875 292.25,207.9531 Q292.9375,209.0156 294.2813,209.0156 Q294.9063,209.0156 295.5,208.75 Q296.0938,208.4688 296.7188,207.8906 L296.7188,210.6094 Z "/><text fill="#000000" font-family="sans-serif" font-size="12" font-style="italic" lengthAdjust="spacingAndGlyphs" textLength="46" x="327.75" y="202.1387">«table»</text><text fill="#000000" font-family="sans-serif" font-size="12" lengthAdjust="spacingAndGlyphs" textLength="73" x="314.25" y="216.1074">media_work</text><line style="stroke: #A80036; stroke-width: 1.5;" x1="250" x2="419" y1="223.9375" y2="223.9375"/><text fill="#000000" font-family="sans-serif" font-size="11" lengthAdjust="spacingAndGlyphs" textLength="77" x="255" y="238.1479">id: UUID «PK»</text><text fill="#000000" font-family="sans-serif" font-size="11" lengthAdjust="spacingAndGlyphs" textLength="57" x="255" y="250.9526">title: TEXT</text><text fill="#000000" font-family="sans-serif" font-size="11" lengthAdjust="spacingAndGlyphs" textLength="99" x="255" y="263.7573">description: TEXT</text><text fill="#000000" font-family="sans-serif" font-size="11" lengthAdjust="spacingAndGlyphs" textLength="159" x="255" y="276.562">original_release_date: DATE</text><line style="stroke: #A80036; stroke-width: 1.5;" x1="250" x2="419" y1="283.1563" y2="283.1563"/><!--MD5=[48f574f03aa9f209c3e6ebb00fc1f351]
class content--><rect fill="#FEFECE" filter="url(#flw3kku4kr46g)" height="105.1563" id="content" style="stroke: #A80036; stroke-width: 1.5;" width="167" x="889" y="8"/><ellipse cx="943.75" cy="26.9688" fill="#ADD1B2" rx="11" ry="11" style="stroke: #A80036; stroke-width: 1.0;"/><path d="M946.7188,32.6094 Q946.1406,32.9063 945.5,33.0469 Q944.8594,33.2031 944.1563,33.2031 Q941.6563,33.2031 940.3281,31.5625 Q939.0156,29.9063 939.0156,26.7813 Q939.0156,23.6563 940.3281,22 Q941.6563,20.3438 944.1563,20.3438 Q944.8594,20.3438 945.5,20.5 Q946.1563,20.6563 946.7188,20.9531 L946.7188,23.6719 Q946.0938,23.0938 945.5,22.8281 Q944.9063,22.5469 944.2813,22.5469 Q942.9375,22.5469 942.25,23.625 Q941.5625,24.6875 941.5625,26.7813 Q941.5625,28.875 942.25,29.9531 Q942.9375,31.0156 944.2813,31.0156 Q944.9063,31.0156 945.5,30.75 Q946.0938,30.4688 946.7188,29.8906 L946.7188,32.6094 Z "/><text fill="#000000" font-family="sans-serif" font-size="12" font-style="italic" lengthAdjust="spacingAndGlyphs" textLength="46" x="965.75" y="24.1387">«table»</text><text fill="#000000" font-family="sans-serif" font-size="12" lengthAdjust="spacingAndGlyphs" textLength="49" x="964.25" y="38.1074">content</text><line style="stroke: #A80036; stroke-width: 1.5;" x1="890" x2="1055" y1="45.9375" y2="45.9375"/><text fill="#000000" font-family="sans-serif" font-size="11" lengthAdjust="spacingAndGlyphs" textLength="77" x="895" y="60.1479">id: UUID «PK»</text><text fill="#000000" font-family="sans-serif" font-size="11" lengthAdjust="spacingAndGlyphs" textLength="150" x="895" y="72.9526">media_work_id: UUID «FK»</text><line style="stroke: #A80036; stroke-width: 1.5;" x1="890" x2="1055" y1="79.5469" y2="79.5469"/><text fill="#000000" font-family="sans-serif" font-size="11" lengthAdjust="spacingAndGlyphs" textLength="113" x="895" y="93.7573">title: TEXT (nullable)</text><text fill="#000000" font-family="sans-serif" font-size="11" lengthAdjust="spacingAndGlyphs" textLength="155" x="895" y="106.562">description: TEXT (nullable)</text><!--MD5=[5d1a9ee8076010dc62ddec054a37bf42]
class playable_content--><rect fill="#FEFECE" filter="url(#flw3kku4kr46g)" height="92.3516" id="playable_content" style="stroke: #A80036; stroke-width: 1.5;" width="168" x="888.5" y="192.5"/><ellipse cx="916.55" cy="211.4688" fill="#ADD1B2" rx="11" ry="11" style="stroke: #A80036; stroke-width: 1.0;"/><path d="M919.5188,217.1094 Q918.9406,217.4063 918.3,217.5469 Q917.6594,217.7031 916.9563,217.7031 Q914.4563,217.7031 913.1281,216.0625 Q911.8156,214.4063 911.8156,211.2813 Q911.8156,208.1563 913.1281,206.5 Q914.4563,204.8438 916.9563,204.8438 Q917.6594,204.8438 918.3,205 Q918.9563,205.1563 919.5188,205.4531 L919.5188,208.1719 Q918.8938,207.5938 918.3,207.3281 Q917.7063,207.0469 917.0813,207.0469 Q915.7375,207.0469 915.05,208.125 Q914.3625,209.1875 914.3625,211.2813 Q914.3625,213.375 915.05,214.4531 Q915.7375,215.5156 917.0813,215.5156 Q917.7063,215.5156 918.3,215.25 Q918.8938,214.9688 919.5188,214.3906 L919.5188,217.1094 Z "/><text fill="#000000" font-family="sans-serif" font-size="12" font-style="italic" lengthAdjust="spacingAndGlyphs" textLength="46" x="963.95" y="208.6387">«table»</text><text fill="#000000" font-family="sans-serif" font-size="12" lengthAdjust="spacingAndGlyphs" textLength="107" x="933.45" y="222.6074">playable_content</text><line style="stroke: #A80036; stroke-width: 1.5;" x1="889.5" x2="1055.5" y1="230.4375" y2="230.4375"/><text fill="#000000" font-family="sans-serif" font-size="11" lengthAdjust="spacingAndGlyphs" textLength="156" x="894.5" y="244.6479">content_id: UUID «PK» «FK»</text><text fill="#000000" font-family="sans-serif" font-size="11" lengthAdjust="spacingAndGlyphs" textLength="122" x="894.5" y="257.4526">runtime_minutes: INT</text><line style="stroke: #A80036; stroke-width: 1.5;" x1="889.5" x2="1055.5" y1="264.0469" y2="264.0469"/><text fill="#000000" font-family="sans-serif" font-size="11" lengthAdjust="spacingAndGlyphs" textLength="139" x="894.5" y="278.2573">cut_type: TEXT (nullable)</text><!--MD5=[0d0503032abcfd044ebbd4c79c7561fa]
class audio_track--><rect fill="#FEFECE" filter="url(#flw3kku4kr46g)" height="92.3516" id="audio_track" style="stroke: #A80036; stroke-width: 1.5;" width="221" x="862" y="390"/><ellipse cx="931.75" cy="408.9688" fill="#ADD1B2" rx="11" ry="11" style="stroke: #A80036; stroke-width: 1.0;"/><path d="M934.7188,414.6094 Q934.1406,414.9063 933.5,415.0469 Q932.8594,415.2031 932.1563,415.2031 Q929.6563,415.2031 928.3281,413.5625 Q927.0156,411.9063 927.0156,408.7813 Q927.0156,405.6563 928.3281,404 Q929.6563,402.3438 932.1563,402.3438 Q932.8594,402.3438 933.5,402.5 Q934.1563,402.6563 934.7188,402.9531 L934.7188,405.6719 Q934.0938,405.0938 933.5,404.8281 Q932.9063,404.5469 932.2813,404.5469 Q930.9375,404.5469 930.25,405.625 Q929.5625,406.6875 929.5625,408.7813 Q929.5625,410.875 930.25,411.9531 Q930.9375,413.0156 932.2813,413.0156 Q932.9063,413.0156 933.5,412.75 Q934.0938,412.4688 934.7188,411.8906 L934.7188,414.6094 Z "/><text fill="#000000" font-family="sans-serif" font-size="12" font-style="italic" lengthAdjust="spacingAndGlyphs" textLength="46" x="965.75" y="406.1387">«table»</text><text fill="#000000" font-family="sans-serif" font-size="12" lengthAdjust="spacingAndGlyphs" textLength="73" x="952.25" y="420.1074">audio_track</text><line style="stroke: #A80036; stroke-width: 1.5;" x1="863" x2="1082" y1="427.9375" y2="427.9375"/><text fill="#000000" font-family="sans-serif" font-size="11" lengthAdjust="spacingAndGlyphs" textLength="209" x="868" y="442.1479">playable_content_id: UUID «PK» «FK»</text><text fill="#000000" font-family="sans-serif" font-size="11" lengthAdjust="spacingAndGlyphs" textLength="120" x="868" y="454.9526">language: TEXT «PK»</text><text fill="#000000" font-family="sans-serif" font-size="11" lengthAdjust="spacingAndGlyphs" textLength="106" x="868" y="467.7573">format: TEXT «PK»</text><line style="stroke: #A80036; stroke-width: 1.5;" x1="863" x2="1082" y1="474.3516" y2="474.3516"/><!--MD5=[4bdacbfe2c3ba0f099e18ef48a56d9e8]
class media_copy--><rect fill="#FEFECE" filter="url(#flw3kku4kr46g)" height="117.9609" id="media_copy" style="stroke: #A80036; stroke-width: 1.5;" width="171" x="1113" y="179.5"/><ellipse cx="1157.75" cy="198.4688" fill="#ADD1B2" rx="11" ry="11" style="stroke: #A80036; stroke-width: 1.0;"/><path d="M1160.7188,204.1094 Q1160.1406,204.4063 1159.5,204.5469 Q1158.8594,204.7031 1158.1563,204.7031 Q1155.6563,204.7031 1154.3281,203.0625 Q1153.0156,201.4063 1153.0156,198.2813 Q1153.0156,195.1563 1154.3281,193.5 Q1155.6563,191.8438 1158.1563,191.8438 Q1158.8594,191.8438 1159.5,192 Q1160.1563,192.1563 1160.7188,192.4531 L1160.7188,195.1719 Q1160.0938,194.5938 1159.5,194.3281 Q1158.9063,194.0469 1158.2813,194.0469 Q1156.9375,194.0469 1156.25,195.125 Q1155.5625,196.1875 1155.5625,198.2813 Q1155.5625,200.375 1156.25,201.4531 Q1156.9375,202.5156 1158.2813,202.5156 Q1158.9063,202.5156 1159.5,202.25 Q1160.0938,201.9688 1160.7188,201.3906 L1160.7188,204.1094 Z "/><text fill="#000000" font-family="sans-serif" font-size="12" font-style="italic" lengthAdjust="spacingAndGlyphs" textLength="46" x="1191.75" y="195.6387">«table»</text><text fill="#000000" font-family="sans-serif" font-size="12" lengthAdjust="spacingAndGlyphs" textLength="73" x="1178.25" y="209.6074">media_copy</text><line style="stroke: #A80036; stroke-width: 1.5;" x1="1114" x2="1283" y1="217.4375" y2="217.4375"/><text fill="#000000" font-family="sans-serif" font-size="11" lengthAdjust="spacingAndGlyphs" textLength="77" x="1119" y="231.6479">id: UUID «PK»</text><text fill="#000000" font-family="sans-serif" font-size="11" lengthAdjust="spacingAndGlyphs" textLength="120" x="1119" y="244.4526">edition_id: UUID «FK»</text><text fill="#000000" font-family="sans-serif" font-size="11" lengthAdjust="spacingAndGlyphs" textLength="118" x="1119" y="257.2573">location_name: TEXT</text><text fill="#000000" font-family="sans-serif" font-size="11" lengthAdjust="spacingAndGlyphs" textLength="132" x="1119" y="270.062">created_at: TIMESTAMP</text><line style="stroke: #A80036; stroke-width: 1.5;" x1="1114" x2="1283" y1="276.6563" y2="276.6563"/><text fill="#000000" font-family="sans-serif" font-size="11" lengthAdjust="spacingAndGlyphs" textLength="159" x="1119" y="290.8667">date_added: DATE (nullable)</text><!--MD5=[3106ab2c37ca8453f9ed78d5090d39d0]
class note--><rect fill="#FEFECE" filter="url(#flw3kku4kr46g)" height="105.1563" id="note" style="stroke: #A80036; stroke-width: 1.5;" width="161" x="1118" y="383.5"/><ellipse cx="1173.25" cy="402.4688" fill="#ADD1B2" rx="11" ry="11" style="stroke: #A80036; stroke-width: 1.0;"/><path d="M1176.2188,408.1094 Q1175.6406,408.4063 1175,408.5469 Q1174.3594,408.7031 1173.6563,408.7031 Q1171.1563,408.7031 1169.8281,407.0625 Q1168.5156,405.4063 1168.5156,402.2813 Q1168.5156,399.1563 1169.8281,397.5 Q1171.1563,395.8438 1173.6563,395.8438 Q1174.3594,395.8438 1175,396 Q1175.6563,396.1563 1176.2188,396.4531 L1176.2188,399.1719 Q1175.5938,398.5938 1175,398.3281 Q1174.4063,398.0469 1173.7813,398.0469 Q1172.4375,398.0469 1171.75,399.125 Q1171.0625,400.1875 1171.0625,402.2813 Q1171.0625,404.375 1171.75,405.4531 Q1172.4375,406.5156 1173.7813,406.5156 Q1174.4063,406.5156 1175,406.25 Q1175.5938,405.9688 1176.2188,405.3906 L1176.2188,408.1094 Z "/><text fill="#000000" font-family="sans-serif" font-size="12" font-style="italic" lengthAdjust="spacingAndGlyphs" textLength="46" x="1191.75" y="399.6387">«table»</text><text fill="#000000" font-family="sans-serif" font-size="12" lengthAdjust="spacingAndGlyphs" textLength="29" x="1200.25" y="413.6074">note</text><line style="stroke: #A80036; stroke-width: 1.5;" x1="1119" x2="1278" y1="421.4375" y2="421.4375"/><text fill="#000000" font-family="sans-serif" font-size="11" lengthAdjust="spacingAndGlyphs" textLength="77" x="1124" y="435.6479">id: UUID «PK»</text><text fill="#000000" font-family="sans-serif" font-size="11" lengthAdjust="spacingAndGlyphs" textLength="149" x="1124" y="448.4526">media_copy_id: UUID «FK»</text><text fill="#000000" font-family="sans-serif" font-size="11" lengthAdjust="spacingAndGlyphs" textLength="57" x="1124" y="461.2573">text: TEXT</text><text fill="#000000" font-family="sans-serif" font-size="11" lengthAdjust="spacingAndGlyphs" textLength="132" x="1124" y="474.062">created_at: TIMESTAMP</text><line style="stroke: #A80036; stroke-width: 1.5;" x1="1119" x2="1278" y1="480.6563" y2="480.6563"/><!--MD5=[c6f8f8eba72f86f9c5c6666e8cb970d9]
class movie--><rect fill="#FEFECE" filter="url(#flw3kku4kr46g)" height="66.7422" id="movie" style="stroke: #A80036; stroke-width: 1.5;" width="194" x="237.5" y="27"/><ellipse cx="309.25" cy="45.9688" fill="#ADD1B2" rx="11" ry="11" style="stroke: #A80036; stroke-width: 1.0;"/><path d="M312.2188,51.6094 Q311.6406,51.9063 311,52.0469 Q310.3594,52.2031 309.6563,52.2031 Q307.1563,52.2031 305.8281,50.5625 Q304.5156,48.9063 304.5156,45.7813 Q304.5156,42.6563 305.8281,41 Q307.1563,39.3438 309.6563,39.3438 Q310.3594,39.3438 311,39.5 Q311.6563,39.6563 312.2188,39.9531 L312.2188,42.6719 Q311.5938,42.0938 311,41.8281 Q310.4063,41.5469 309.7813,41.5469 Q308.4375,41.5469 307.75,42.625 Q307.0625,43.6875 307.0625,45.7813 Q307.0625,47.875 307.75,48.9531 Q308.4375,50.0156 309.7813,50.0156 Q310.4063,50.0156 311,49.75 Q311.5938,49.4688 312.2188,48.8906 L312.2188,51.6094 Z "/><text fill="#000000" font-family="sans-serif" font-size="12" font-style="italic" lengthAdjust="spacingAndGlyphs" textLength="46" x="327.75" y="43.1387">«table»</text><text fill="#000000" font-family="sans-serif" font-size="12" lengthAdjust="spacingAndGlyphs" textLength="36" x="332.75" y="57.1074">movie</text><line style="stroke: #A80036; stroke-width: 1.5;" x1="238.5" x2="430.5" y1="64.9375" y2="64.9375"/><text fill="#000000" font-family="sans-serif" font-size="11" lengthAdjust="spacingAndGlyphs" textLength="182" x="243.5" y="79.1479">media_work_id: UUID «PK» «FK»</text><line style="stroke: #A80036; stroke-width: 1.5;" x1="238.5" x2="430.5" y1="85.7422" y2="85.7422"/><!--MD5=[733462b47cf04df2ca7bac97249b98e3]
class tv--><rect fill="#FEFECE" filter="url(#flw3kku4kr46g)" height="92.3516" id="tv" style="stroke: #A80036; stroke-width: 1.5;" width="194" x="533.5" y="14.5"/><ellipse cx="605.25" cy="33.4688" fill="#ADD1B2" rx="11" ry="11" style="stroke: #A80036; stroke-width: 1.0;"/><path d="M608.2188,39.1094 Q607.6406,39.4063 607,39.5469 Q606.3594,39.7031 605.6563,39.7031 Q603.1563,39.7031 601.8281,38.0625 Q600.5156,36.4063 600.5156,33.2813 Q600.5156,30.1563 601.8281,28.5 Q603.1563,26.8438 605.6563,26.8438 Q606.3594,26.8438 607,27 Q607.6563,27.1563 608.2188,27.4531 L608.2188,30.1719 Q607.5938,29.5938 607,29.3281 Q606.4063,29.0469 605.7813,29.0469 Q604.4375,29.0469 603.75,30.125 Q603.0625,31.1875 603.0625,33.2813 Q603.0625,35.375 603.75,36.4531 Q604.4375,37.5156 605.7813,37.5156 Q606.4063,37.5156 607,37.25 Q607.5938,36.9688 608.2188,36.3906 L608.2188,39.1094 Z "/><text fill="#000000" font-family="sans-serif" font-size="12" font-style="italic" lengthAdjust="spacingAndGlyphs" textLength="46" x="623.75" y="30.6387">«table»</text><text fill="#000000" font-family="sans-serif" font-size="12" lengthAdjust="spacingAndGlyphs" textLength="11" x="641.25" y="44.6074">tv</text><line style="stroke: #A80036; stroke-width: 1.5;" x1="534.5" x2="726.5" y1="52.4375" y2="52.4375"/><text fill="#000000" font-family="sans-serif" font-size="11" lengthAdjust="spacingAndGlyphs" textLength="182" x="539.5" y="66.6479">media_work_id: UUID «PK» «FK»</text><text fill="#000000" font-family="sans-serif" font-size="11" lengthAdjust="spacingAndGlyphs" textLength="72" x="539.5" y="79.4526">status: TEXT</text><text fill="#000000" font-family="sans-serif" font-size="11" lengthAdjust="spacingAndGlyphs" textLength="91" x="539.5" y="92.2573">ended_on: TEXT</text><line style="stroke: #A80036; stroke-width: 1.5;" x1="534.5" x2="726.5" y1="98.8516" y2="98.8516"/><!--MD5=[65239b9aab999f0c561a5ca3aa8c59c9]
class season--><rect fill="#FEFECE" filter="url(#flw3kku4kr46g)" height="130.7656" id="season" style="stroke: #A80036; stroke-width: 1.5;" width="189" x="602" y="173"/><ellipse cx="669.25" cy="191.9688" fill="#ADD1B2" rx="11" ry="11" style="stroke: #A80036; stroke-width: 1.0;"/><path d="M672.2188,197.6094 Q671.6406,197.9063 671,198.0469 Q670.3594,198.2031 669.6563,198.2031 Q667.1563,198.2031 665.8281,196.5625 Q664.5156,194.9063 664.5156,191.7813 Q664.5156,188.6563 665.8281,187 Q667.1563,185.3438 669.6563,185.3438 Q670.3594,185.3438 671,185.5 Q671.6563,185.6563 672.2188,185.9531 L672.2188,188.6719 Q671.5938,188.0938 671,187.8281 Q670.4063,187.5469 669.7813,187.5469 Q668.4375,187.5469 667.75,188.625 Q667.0625,189.6875 667.0625,191.7813 Q667.0625,193.875 667.75,194.9531 Q668.4375,196.0156 669.7813,196.0156 Q670.4063,196.0156 671,195.75 Q671.5938,195.4688 672.2188,194.8906 L672.2188,197.6094 Z "/><text fill="#000000" font-family="sans-serif" font-size="12" font-style="italic" lengthAdjust="spacingAndGlyphs" textLength="46" x="689.75" y="189.1387">«table»</text><text fill="#000000" font-family="sans-serif" font-size="12" lengthAdjust="spacingAndGlyphs" textLength="46" x="689.75" y="203.1074">season</text><line style="stroke: #A80036; stroke-width: 1.5;" x1="603" x2="790" y1="210.9375" y2="210.9375"/><text fill="#000000" font-family="sans-serif" font-size="11" lengthAdjust="spacingAndGlyphs" textLength="77" x="608" y="225.1479">id: UUID «PK»</text><text fill="#000000" font-family="sans-serif" font-size="11" lengthAdjust="spacingAndGlyphs" textLength="92" x="608" y="237.9526">tv_id: UUID «FK»</text><text fill="#000000" font-family="sans-serif" font-size="11" lengthAdjust="spacingAndGlyphs" textLength="118" x="608" y="250.7573">season_number: INT</text><text fill="#000000" font-family="sans-serif" font-size="11" lengthAdjust="spacingAndGlyphs" textLength="113" x="608" y="263.562">title: TEXT (nullable)</text><text fill="#000000" font-family="sans-serif" font-size="11" lengthAdjust="spacingAndGlyphs" textLength="155" x="608" y="276.3667">description: TEXT (nullable)</text><line style="stroke: #A80036; stroke-width: 1.0;" x1="603" x2="790" y1="282.9609" y2="282.9609"/><text fill="#000000" font-family="sans-serif" font-size="11" lengthAdjust="spacingAndGlyphs" textLength="177" x="608" y="297.1714">UNIQUE(tv_id, season_number)</text><!--MD5=[77ab79214866798d9cf70993822fb05b]
class episode--><rect fill="#FEFECE" filter="url(#flw3kku4kr46g)" height="143.5703" id="episode" style="stroke: #A80036; stroke-width: 1.5;" width="224" x="602.5" y="364"/><ellipse cx="685.25" cy="382.9688" fill="#ADD1B2" rx="11" ry="11" style="stroke: #A80036; stroke-width: 1.0;"/><path d="M688.2188,388.6094 Q687.6406,388.9063 687,389.0469 Q686.3594,389.2031 685.6563,389.2031 Q683.1563,389.2031 681.8281,387.5625 Q680.5156,385.9063 680.5156,382.7813 Q680.5156,379.6563 681.8281,378 Q683.1563,376.3438 685.6563,376.3438 Q686.3594,376.3438 687,376.5 Q687.6563,376.6563 688.2188,376.9531 L688.2188,379.6719 Q687.5938,379.0938 687,378.8281 Q686.4063,378.5469 685.7813,378.5469 Q684.4375,378.5469 683.75,379.625 Q683.0625,380.6875 683.0625,382.7813 Q683.0625,384.875 683.75,385.9531 Q684.4375,387.0156 685.7813,387.0156 Q686.4063,387.0156 687,386.75 Q687.5938,386.4688 688.2188,385.8906 L688.2188,388.6094 Z "/><text fill="#000000" font-family="sans-serif" font-size="12" font-style="italic" lengthAdjust="spacingAndGlyphs" textLength="46" x="707.75" y="380.1387">«table»</text><text fill="#000000" font-family="sans-serif" font-size="12" lengthAdjust="spacingAndGlyphs" textLength="50" x="705.75" y="394.1074">episode</text><line style="stroke: #A80036; stroke-width: 1.5;" x1="603.5" x2="825.5" y1="401.9375" y2="401.9375"/><text fill="#000000" font-family="sans-serif" font-size="11" lengthAdjust="spacingAndGlyphs" textLength="77" x="608.5" y="416.1479">id: UUID «PK»</text><text fill="#000000" font-family="sans-serif" font-size="11" lengthAdjust="spacingAndGlyphs" textLength="124" x="608.5" y="428.9526">season_id: UUID «FK»</text><text fill="#000000" font-family="sans-serif" font-size="11" lengthAdjust="spacingAndGlyphs" textLength="124" x="608.5" y="441.7573">content_id: UUID «FK»</text><text fill="#000000" font-family="sans-serif" font-size="11" lengthAdjust="spacingAndGlyphs" textLength="181" x="608.5" y="454.562">episode_number: INT (nullable))</text><text fill="#000000" font-family="sans-serif" font-size="11" lengthAdjust="spacingAndGlyphs" textLength="83" x="608.5" y="467.3667">air_date: DATE</text><text fill="#000000" font-family="sans-serif" font-size="11" lengthAdjust="spacingAndGlyphs" textLength="114" x="608.5" y="480.1714">role: TEXT (nullable)</text><line style="stroke: #A80036; stroke-width: 1.0;" x1="603.5" x2="825.5" y1="486.7656" y2="486.7656"/><text fill="#000000" font-family="sans-serif" font-size="11" lengthAdjust="spacingAndGlyphs" textLength="212" x="608.5" y="500.9761">UNIQUE(season_id, episode_number)</text><!--MD5=[1e263bdf071388f27938ecfce413abc6]
class edition--><rect fill="#FEFECE" filter="url(#flw3kku4kr46g)" height="105.1563" id="edition" style="stroke: #A80036; stroke-width: 1.5;" width="165" x="1218" y="8"/><ellipse cx="1274.75" cy="26.9688" fill="#ADD1B2" rx="11" ry="11" style="stroke: #A80036; stroke-width: 1.0;"/><path d="M1277.7188,32.6094 Q1277.1406,32.9063 1276.5,33.0469 Q1275.8594,33.2031 1275.1563,33.2031 Q1272.6563,33.2031 1271.3281,31.5625 Q1270.0156,29.9063 1270.0156,26.7813 Q1270.0156,23.6563 1271.3281,22 Q1272.6563,20.3438 1275.1563,20.3438 Q1275.8594,20.3438 1276.5,20.5 Q1277.1563,20.6563 1277.7188,20.9531 L1277.7188,23.6719 Q1277.0938,23.0938 1276.5,22.8281 Q1275.9063,22.5469 1275.2813,22.5469 Q1273.9375,22.5469 1273.25,23.625 Q1272.5625,24.6875 1272.5625,26.7813 Q1272.5625,28.875 1273.25,29.9531 Q1273.9375,31.0156 1275.2813,31.0156 Q1275.9063,31.0156 1276.5,30.75 Q1277.0938,30.4688 1277.7188,29.8906 L1277.7188,32.6094 Z "/><text fill="#000000" font-family="sans-serif" font-size="12" font-style="italic" lengthAdjust="spacingAndGlyphs" textLength="46" x="1293.75" y="24.1387">«table»</text><text fill="#000000" font-family="sans-serif" font-size="12" lengthAdjust="spacingAndGlyphs" textLength="43" x="1295.25" y="38.1074">edition</text><line style="stroke: #A80036; stroke-width: 1.5;" x1="1219" x2="1382" y1="45.9375" y2="45.9375"/><text fill="#000000" font-family="sans-serif" font-size="11" lengthAdjust="spacingAndGlyphs" textLength="77" x="1224" y="60.1479">id: UUID «PK»</text><text fill="#000000" font-family="sans-serif" font-size="11" lengthAdjust="spacingAndGlyphs" textLength="57" x="1224" y="72.9526">title: TEXT</text><text fill="#000000" font-family="sans-serif" font-size="11" lengthAdjust="spacingAndGlyphs" textLength="111" x="1224" y="85.7573">release_date: DATE</text><line style="stroke: #A80036; stroke-width: 1.5;" x1="1219" x2="1382" y1="92.3516" y2="92.3516"/><text fill="#000000" font-family="sans-serif" font-size="11" lengthAdjust="spacingAndGlyphs" textLength="153" x="1224" y="106.562">packaging: TEXT (nullable))</text><!--MD5=[42003243f0c23e482758681e545ffc31]
class edition_content--><rect fill="#FEFECE" filter="url(#flw3kku4kr46g)" height="92.3516" id="edition_content" style="stroke: #A80036; stroke-width: 1.5;" width="168" x="1319.5" y="192.5"/><ellipse cx="1351.6" cy="211.4688" fill="#ADD1B2" rx="11" ry="11" style="stroke: #A80036; stroke-width: 1.0;"/><path d="M1354.5688,217.1094 Q1353.9906,217.4063 1353.35,217.5469 Q1352.7094,217.7031 1352.0063,217.7031 Q1349.5063,217.7031 1348.1781,216.0625 Q1346.8656,214.4063 1346.8656,211.2813 Q1346.8656,208.1563 1348.1781,206.5 Q1349.5063,204.8438 1352.0063,204.8438 Q1352.7094,204.8438 1353.35,205 Q1354.0063,205.1563 1354.5688,205.4531 L1354.5688,208.1719 Q1353.9438,207.5938 1353.35,207.3281 Q1352.7563,207.0469 1352.1313,207.0469 Q1350.7875,207.0469 1350.1,208.125 Q1349.4125,209.1875 1349.4125,211.2813 Q1349.4125,213.375 1350.1,214.4531 Q1350.7875,215.5156 1352.1313,215.5156 Q1352.7563,215.5156 1353.35,215.25 Q1353.9438,214.9688 1354.5688,214.3906 L1354.5688,217.1094 Z "/><text fill="#000000" font-family="sans-serif" font-size="12" font-style="italic" lengthAdjust="spacingAndGlyphs" textLength="46" x="1395.4" y="208.6387">«table»</text><text fill="#000000" font-family="sans-serif" font-size="12" lengthAdjust="spacingAndGlyphs" textLength="98" x="1369.4" y="222.6074">edition_content</text><line style="stroke: #A80036; stroke-width: 1.5;" x1="1320.5" x2="1486.5" y1="230.4375" y2="230.4375"/><text fill="#000000" font-family="sans-serif" font-size="11" lengthAdjust="spacingAndGlyphs" textLength="152" x="1325.5" y="244.6479">edition_id: UUID «PK» «FK»</text><text fill="#000000" font-family="sans-serif" font-size="11" lengthAdjust="spacingAndGlyphs" textLength="156" x="1325.5" y="257.4526">content_id: UUID «PK» «FK»</text><text fill="#000000" font-family="sans-serif" font-size="11" lengthAdjust="spacingAndGlyphs" textLength="106" x="1325.5" y="270.2573">content_role: TEXT</text><line style="stroke: #A80036; stroke-width: 1.5;" x1="1320.5" x2="1486.5" y1="276.8516" y2="276.8516"/><!--MD5=[11097d3e015eb0a58b2213c5fdee36ee]
class collection_group--><rect fill="#FEFECE" filter="url(#flw3kku4kr46g)" height="79.5469" id="collection_group" style="stroke: #A80036; stroke-width: 1.5;" width="135" x="70" y="198.5"/><ellipse cx="85" cy="217.4688" fill="#ADD1B2" rx="11" ry="11" style="stroke: #A80036; stroke-width: 1.0;"/><path d="M87.9688,223.1094 Q87.3906,223.4063 86.75,223.5469 Q86.1094,223.7031 85.4063,223.7031 Q82.9063,223.7031 81.5781,222.0625 Q80.2656,220.4063 80.2656,217.2813 Q80.2656,214.1563 81.5781,212.5 Q82.9063,210.8438 85.4063,210.8438 Q86.1094,210.8438 86.75,211 Q87.4063,211.1563 87.9688,211.4531 L87.9688,214.1719 Q87.3438,213.5938 86.75,213.3281 Q86.1563,213.0469 85.5313,213.0469 Q84.1875,213.0469 83.5,214.125 Q82.8125,215.1875 82.8125,217.2813 Q82.8125,219.375 83.5,220.4531 Q84.1875,221.5156 85.5313,221.5156 Q86.1563,221.5156 86.75,221.25 Q87.3438,220.9688 87.9688,220.3906 L87.9688,223.1094 Z "/><text fill="#000000" font-family="sans-serif" font-size="12" font-style="italic" lengthAdjust="spacingAndGlyphs" textLength="46" x="127.5" y="214.6387">«table»</text><text fill="#000000" font-family="sans-serif" font-size="12" lengthAdjust="spacingAndGlyphs" textLength="103" x="99" y="228.6074">collection_group</text><line style="stroke: #A80036; stroke-width: 1.5;" x1="71" x2="204" y1="236.4375" y2="236.4375"/><text fill="#000000" font-family="sans-serif" font-size="11" lengthAdjust="spacingAndGlyphs" textLength="77" x="76" y="250.6479">id: UUID «PK»</text><text fill="#000000" font-family="sans-serif" font-size="11" lengthAdjust="spacingAndGlyphs" textLength="57" x="76" y="263.4526">title: TEXT</text><line style="stroke: #A80036; stroke-width: 1.5;" x1="71" x2="204" y1="270.0469" y2="270.0469"/><!--MD5=[b50276b9575ad1e45a3dfec34b3243bb]
class collection_group_membership--><rect fill="#FEFECE" filter="url(#flw3kku4kr46g)" height="130.7656" id="collection_group_membership" style="stroke: #A80036; stroke-width: 1.5;" width="263" x="6" y="370.5"/><ellipse cx="41.25" cy="389.4688" fill="#ADD1B2" rx="11" ry="11" style="stroke: #A80036; stroke-width: 1.0;"/><path d="M44.2188,395.1094 Q43.6406,395.4063 43,395.5469 Q42.3594,395.7031 41.6563,395.7031 Q39.1563,395.7031 37.8281,394.0625 Q36.5156,392.4063 36.5156,389.2813 Q36.5156,386.1563 37.8281,384.5 Q39.1563,382.8438 41.6563,382.8438 Q42.3594,382.8438 43,383 Q43.6563,383.1563 44.2188,383.4531 L44.2188,386.1719 Q43.5938,385.5938 43,385.3281 Q42.4063,385.0469 41.7813,385.0469 Q40.4375,385.0469 39.75,386.125 Q39.0625,387.1875 39.0625,389.2813 Q39.0625,391.375 39.75,392.4531 Q40.4375,393.5156 41.7813,393.5156 Q42.4063,393.5156 43,393.25 Q43.5938,392.9688 44.2188,392.3906 L44.2188,395.1094 Z "/><text fill="#000000" font-family="sans-serif" font-size="12" font-style="italic" lengthAdjust="spacingAndGlyphs" textLength="46" x="129.75" y="386.6387">«table»</text><text fill="#000000" font-family="sans-serif" font-size="12" lengthAdjust="spacingAndGlyphs" textLength="186" x="59.75" y="400.6074">collection_group_membership</text><line style="stroke: #A80036; stroke-width: 1.5;" x1="7" x2="268" y1="408.4375" y2="408.4375"/><text fill="#000000" font-family="sans-serif" font-size="11" lengthAdjust="spacingAndGlyphs" textLength="77" x="12" y="422.6479">id: UUID «PK»</text><text fill="#000000" font-family="sans-serif" font-size="11" lengthAdjust="spacingAndGlyphs" textLength="174" x="12" y="435.4526">collection_group_id: UUID «FK»</text><text fill="#000000" font-family="sans-serif" font-size="11" lengthAdjust="spacingAndGlyphs" textLength="150" x="12" y="448.2573">media_work_id: UUID «FK»</text><text fill="#000000" font-family="sans-serif" font-size="11" lengthAdjust="spacingAndGlyphs" textLength="85" x="12" y="461.062">sort_index: INT</text><line style="stroke: #A80036; stroke-width: 1.0;" x1="7" x2="268" y1="467.6563" y2="467.6563"/><text fill="#000000" font-family="sans-serif" font-size="11" lengthAdjust="spacingAndGlyphs" textLength="251" x="12" y="481.8667">UNIQUE(collection_group_id, media_work_id)</text><text fill="#000000" font-family="sans-serif" font-size="11" lengthAdjust="spacingAndGlyphs" textLength="226" x="12" y="494.6714">UNIQUE(collection_group_id, sort_index)</text><!--MD5=[c70d0026982c74753187fd828a4c968f]
class contributor--><rect fill="#FEFECE" filter="url(#flw3kku4kr46g)" height="79.5469" id="contributor" style="stroke: #A80036; stroke-width: 1.5;" width="102" x="455.5" y="198.5"/><ellipse cx="470.5" cy="217.4688" fill="#ADD1B2" rx="11" ry="11" style="stroke: #A80036; stroke-width: 1.0;"/><path d="M473.4688,223.1094 Q472.8906,223.4063 472.25,223.5469 Q471.6094,223.7031 470.9063,223.7031 Q468.4063,223.7031 467.0781,222.0625 Q465.7656,220.4063 465.7656,217.2813 Q465.7656,214.1563 467.0781,212.5 Q468.4063,210.8438 470.9063,210.8438 Q471.6094,210.8438 472.25,211 Q472.9063,211.1563 473.4688,211.4531 L473.4688,214.1719 Q472.8438,213.5938 472.25,213.3281 Q471.6563,213.0469 471.0313,213.0469 Q469.6875,213.0469 469,214.125 Q468.3125,215.1875 468.3125,217.2813 Q468.3125,219.375 469,220.4531 Q469.6875,221.5156 471.0313,221.5156 Q471.6563,221.5156 472.25,221.25 Q472.8438,220.9688 473.4688,220.3906 L473.4688,223.1094 Z "/><text fill="#000000" font-family="sans-serif" font-size="12" font-style="italic" lengthAdjust="spacingAndGlyphs" textLength="46" x="496.5" y="214.6387">«table»</text><text fill="#000000" font-family="sans-serif" font-size="12" lengthAdjust="spacingAndGlyphs" textLength="70" x="484.5" y="228.6074">contributor</text><line style="stroke: #A80036; stroke-width: 1.5;" x1="456.5" x2="556.5" y1="236.4375" y2="236.4375"/><text fill="#000000" font-family="sans-serif" font-size="11" lengthAdjust="spacingAndGlyphs" textLength="77" x="461.5" y="250.6479">id: UUID «PK»</text><text fill="#000000" font-family="sans-serif" font-size="11" lengthAdjust="spacingAndGlyphs" textLength="68" x="461.5" y="263.4526">name: TEXT</text><line style="stroke: #A80036; stroke-width: 1.5;" x1="456.5" x2="556.5" y1="270.0469" y2="270.0469"/><!--MD5=[23ff8735309b44f3974df67f35899a34]
class contribution--><rect fill="#FEFECE" filter="url(#flw3kku4kr46g)" height="117.9609" id="contribution" style="stroke: #A80036; stroke-width: 1.5;" width="263" x="304" y="377"/><ellipse cx="393.25" cy="395.9688" fill="#ADD1B2" rx="11" ry="11" style="stroke: #A80036; stroke-width: 1.0;"/><path d="M396.2188,401.6094 Q395.6406,401.9063 395,402.0469 Q394.3594,402.2031 393.6563,402.2031 Q391.1563,402.2031 389.8281,400.5625 Q388.5156,398.9063 388.5156,395.7813 Q388.5156,392.6563 389.8281,391 Q391.1563,389.3438 393.6563,389.3438 Q394.3594,389.3438 395,389.5 Q395.6563,389.6563 396.2188,389.9531 L396.2188,392.6719 Q395.5938,392.0938 395,391.8281 Q394.4063,391.5469 393.7813,391.5469 Q392.4375,391.5469 391.75,392.625 Q391.0625,393.6875 391.0625,395.7813 Q391.0625,397.875 391.75,398.9531 Q392.4375,400.0156 393.7813,400.0156 Q394.4063,400.0156 395,399.75 Q395.5938,399.4688 396.2188,398.8906 L396.2188,401.6094 Z "/><text fill="#000000" font-family="sans-serif" font-size="12" font-style="italic" lengthAdjust="spacingAndGlyphs" textLength="46" x="428.75" y="393.1387">«table»</text><text fill="#000000" font-family="sans-serif" font-size="12" lengthAdjust="spacingAndGlyphs" textLength="76" x="413.75" y="407.1074">contribution</text><line style="stroke: #A80036; stroke-width: 1.5;" x1="305" x2="566" y1="414.9375" y2="414.9375"/><text fill="#000000" font-family="sans-serif" font-size="11" lengthAdjust="spacingAndGlyphs" textLength="77" x="310" y="429.1479">id: UUID «PK»</text><text fill="#000000" font-family="sans-serif" font-size="11" lengthAdjust="spacingAndGlyphs" textLength="150" x="310" y="441.9526">media_work_id: UUID «FK»</text><text fill="#000000" font-family="sans-serif" font-size="11" lengthAdjust="spacingAndGlyphs" textLength="144" x="310" y="454.7573">contributor_id: UUID «FK»</text><text fill="#000000" font-family="sans-serif" font-size="11" lengthAdjust="spacingAndGlyphs" textLength="58" x="310" y="467.562">role: TEXT</text><line style="stroke: #A80036; stroke-width: 1.0;" x1="305" x2="566" y1="474.1563" y2="474.1563"/><text fill="#000000" font-family="sans-serif" font-size="11" lengthAdjust="spacingAndGlyphs" textLength="251" x="310" y="488.3667">UNIQUE(media_work_id, contributor_id, role)</text><!--MD5=[378a51d7a9e1af673387b76ceb8a041c]
reverse link content to playable_content--><path d="M972.5,118.4 C972.5,142.33 972.5,169.77 972.5,192.28 " fill="none" id="content&lt;-playable_content" style="stroke: #A80036; stroke-width: 1.0;"/><polygon fill="#A80036" points="972.5,113.35,968.5,122.35,972.5,118.35,976.5,122.35,972.5,113.35" style="stroke: #A80036; stroke-width: 1.0;"/><!--MD5=[df91c1d2556f8695b2a9a346fc894770]
reverse link playable_content to audio_track--><path d="M972.5,290.11 C972.5,320.98 972.5,360.1 972.5,389.9 " fill="none" id="playable_content&lt;-audio_track" style="stroke: #A80036; stroke-width: 1.0;"/><polygon fill="#A80036" points="972.5,284.84,968.5,293.84,972.5,289.84,976.5,293.84,972.5,284.84" style="stroke: #A80036; stroke-width: 1.0;"/><text fill="#000000" font-family="sans-serif" font-size="13" lengthAdjust="spacingAndGlyphs" textLength="8" x="963.9125" y="304.7986">1</text><text fill="#000000" font-family="sans-serif" font-size="13" lengthAdjust="spacingAndGlyphs" textLength="23" x="947.8109" y="379.0783">0..*</text><!--MD5=[c1ab768ed2a85aecfd2f2134fa640db1]
reverse link media_copy to note--><path d="M1198.5,302.79 C1198.5,328.87 1198.5,358.69 1198.5,383.41 " fill="none" id="media_copy&lt;-note" style="stroke: #A80036; stroke-width: 1.0;"/><polygon fill="#A80036" points="1198.5,297.63,1194.5,306.63,1198.5,302.63,1202.5,306.63,1198.5,297.63" style="stroke: #A80036; stroke-width: 1.0;"/><text fill="#000000" font-family="sans-serif" font-size="13" lengthAdjust="spacingAndGlyphs" textLength="8" x="1190.0375" y="317.4109">1</text><text fill="#000000" font-family="sans-serif" font-size="13" lengthAdjust="spacingAndGlyphs" textLength="16" x="1181.425" y="372.4007">0..</text><!--MD5=[1b679af2d29bc6812a947d657e6bf80f]
link movie to media_work--><path d="M334.5,94.19 C334.5,118.43 334.5,152.08 334.5,180.69 " fill="none" id="movie-&gt;media_work" style="stroke: #A80036; stroke-width: 1.0;"/><polygon fill="#A80036" points="334.5,185.97,338.5,176.97,334.5,180.97,330.5,176.97,334.5,185.97" style="stroke: #A80036; stroke-width: 1.0;"/><text fill="#000000" font-family="sans-serif" font-size="13" lengthAdjust="spacingAndGlyphs" textLength="8" x="325.7625" y="113.8873">1</text><text fill="#000000" font-family="sans-serif" font-size="13" lengthAdjust="spacingAndGlyphs" textLength="8" x="325.9625" y="174.9688">1</text><!--MD5=[975f161dbd8a3d6bd8c7987f2e830125]
link tv to media_work--><path d="M550.78,106.71 C515.85,126.74 474.47,150.75 437.5,173 C432.03,176.29 426.41,179.71 420.75,183.18 " fill="none" id="tv-&gt;media_work" style="stroke: #A80036; stroke-width: 1.0;"/><polygon fill="#A80036" points="416.42,185.83,426.1825,184.5289,420.6807,183.2135,421.9961,177.7117,416.42,185.83" style="stroke: #A80036; stroke-width: 1.0;"/><text fill="#000000" font-family="sans-serif" font-size="13" lengthAdjust="spacingAndGlyphs" textLength="8" x="529.9604" y="126.9845">1</text><text fill="#000000" font-family="sans-serif" font-size="13" lengthAdjust="spacingAndGlyphs" textLength="8" x="418.8905" y="174.81">1</text><!--MD5=[35fe5c7a75031e048953b380210e08f4]
reverse link tv to season--><path d="M649.29,111.6 C656.42,130.62 664.65,152.57 672.22,172.76 " fill="none" id="tv&lt;-season" style="stroke: #A80036; stroke-width: 1.0;"/><polygon fill="#A80036" points="647.5,106.82,646.9148,116.6515,649.2556,111.5016,654.4054,113.8425,647.5,106.82" style="stroke: #A80036; stroke-width: 1.0;"/><text fill="#000000" font-family="sans-serif" font-size="13" lengthAdjust="spacingAndGlyphs" textLength="8" x="641.4094" y="126.7756">1</text><text fill="#000000" font-family="sans-serif" font-size="13" lengthAdjust="spacingAndGlyphs" textLength="23" x="645.3066" y="161.8364">0..*</text><!--MD5=[433437d5c57c41081fc500fbb31c1699]
reverse link season to episode--><path d="M702.94,309.48 C704.57,327.12 706.31,346.07 707.94,363.77 " fill="none" id="season&lt;-episode" style="stroke: #A80036; stroke-width: 1.0;"/><polygon fill="#A80036" points="702.44,304.06,699.3075,313.3974,702.912,309.0377,707.2718,312.6422,702.44,304.06" style="stroke: #A80036; stroke-width: 1.0;"/><text fill="#000000" font-family="sans-serif" font-size="13" lengthAdjust="spacingAndGlyphs" textLength="8" x="694.6401" y="323.6801">1</text><text fill="#000000" font-family="sans-serif" font-size="13" lengthAdjust="spacingAndGlyphs" textLength="23" x="683.1622" y="353.0162">0..*</text><!--MD5=[8197ba7ab994307a91d769cfc34b01a7]
reverse link edition to media_copy--><path d="M1267.89,117.76 C1256.52,137.39 1243.74,159.45 1232.27,179.23 " fill="none" id="edition&lt;-media_copy" style="stroke: #A80036; stroke-width: 1.0;"/><polygon fill="#A80036" points="1270.45,113.35,1262.4707,119.1233,1267.9386,117.6735,1269.3884,123.1415,1270.45,113.35" style="stroke: #A80036; stroke-width: 1.0;"/><text fill="#000000" font-family="sans-serif" font-size="13" lengthAdjust="spacingAndGlyphs" textLength="8" x="1258.0873" y="133.1477">1</text><text fill="#000000" font-family="sans-serif" font-size="13" lengthAdjust="spacingAndGlyphs" textLength="23" x="1211.845" y="168.5865">0..*</text><!--MD5=[68f60ab505d5801b9ae794ad6398252f]
reverse link edition to edition_content--><path d="M1333.45,117.8 C1347.53,141.87 1363.75,169.58 1377.04,192.28 " fill="none" id="edition&lt;-edition_content" style="stroke: #A80036; stroke-width: 1.0;"/><polygon fill="#A80036" points="1330.85,113.35,1331.9257,123.1399,1333.3676,117.6699,1338.8376,119.1118,1330.85,113.35" style="stroke: #A80036; stroke-width: 1.0;"/><text fill="#000000" font-family="sans-serif" font-size="13" lengthAdjust="spacingAndGlyphs" textLength="8" x="1326.2261" y="133.1477">1</text><text fill="#000000" font-family="sans-serif" font-size="13" lengthAdjust="spacingAndGlyphs" textLength="23" x="1348.4646" y="181.4407">0..*</text><!--MD5=[9d01a5fe61641a672fe317996d4e2234]
reverse link media_work to collection_group_membership--><path d="M278.71,294.86 C254.99,318.41 227.16,346.02 202.52,370.48 " fill="none" id="media_work&lt;-collection_group_membership" style="stroke: #A80036; stroke-width: 1.0;"/><polygon fill="#A80036" points="282.48,291.12,273.2734,294.6184,278.9302,294.6412,278.9074,300.2981,282.48,291.12" style="stroke: #A80036; stroke-width: 1.0;"/><text fill="#000000" font-family="sans-serif" font-size="13" lengthAdjust="spacingAndGlyphs" textLength="8" x="266.9523" y="311.2639">1</text><text fill="#000000" font-family="sans-serif" font-size="13" lengthAdjust="spacingAndGlyphs" textLength="23" x="185.3738" y="359.5804">0..*</text><!--MD5=[ea9056bdfeded17f193f29fe580b6bf4]
reverse link collection_group to collection_group_membership--><path d="M137.5,283.6 C137.5,309.15 137.5,341.77 137.5,370.19 " fill="none" id="collection_group&lt;-collection_group_membership" style="stroke: #A80036; stroke-width: 1.0;"/><polygon fill="#A80036" points="137.5,278.59,133.5,287.59,137.5,283.59,141.5,287.59,137.5,278.59" style="stroke: #A80036; stroke-width: 1.0;"/><text fill="#000000" font-family="sans-serif" font-size="13" lengthAdjust="spacingAndGlyphs" textLength="8" x="128.8875" y="297.989">1</text><text fill="#000000" font-family="sans-serif" font-size="13" lengthAdjust="spacingAndGlyphs" textLength="23" x="113.2422" y="359.2587">0..*</text><!--MD5=[5ef73dc266c42a643b67e9845d2d3e42]
reverse link media_work to contribution--><path d="M363.59,295.81 C376.72,321.23 392.23,351.24 405.47,376.87 " fill="none" id="media_work&lt;-contribution" style="stroke: #A80036; stroke-width: 1.0;"/><polygon fill="#A80036" points="361.17,291.12,361.7554,300.9514,363.4687,295.5603,368.8598,297.2736,361.17,291.12" style="stroke: #A80036; stroke-width: 1.0;"/><text fill="#000000" font-family="sans-serif" font-size="13" lengthAdjust="spacingAndGlyphs" textLength="8" x="356.2163" y="311.2639">1</text><text fill="#000000" font-family="sans-serif" font-size="13" lengthAdjust="spacingAndGlyphs" textLength="23" x="377.4085" y="365.8268">0..*</text><!--MD5=[8380106985c29bc7a3396ae9d3b32f61]
reverse link contributor to contribution--><path d="M490.47,283.63 C480.48,311.14 467.51,346.86 456.68,376.69 " fill="none" id="contributor&lt;-contribution" style="stroke: #A80036; stroke-width: 1.0;"/><polygon fill="#A80036" points="492.3,278.59,485.4582,285.6745,490.5867,283.2873,492.9739,288.4158,492.3,278.59" style="stroke: #A80036; stroke-width: 1.0;"/><text fill="#000000" font-family="sans-serif" font-size="13" lengthAdjust="spacingAndGlyphs" textLength="8" x="481.5131" y="297.989">1</text><text fill="#000000" font-family="sans-serif" font-size="13" lengthAdjust="spacingAndGlyphs" textLength="23" x="434.7993" y="366.0419">0..*</text><!--MD5=[708d8cb10ff8cde6f6e48ff810e476f1]
@startuml
skinparam classAttributeIconSize 0

class media_work <<table>> {
    id: UUID <<PK>>
    title: TEXT
    description: TEXT
    original_release_date: DATE
}

class content <<table>> {
    id: UUID <<PK>>
    media_work_id: UUID <<FK>>
    title: TEXT (nullable)
    description: TEXT (nullable)
}

class playable_content <<table>> {
    content_id: UUID <<PK>> <<FK>>
    runtime_minutes: INT
    cut_type: TEXT (nullable)
}

content <- - playable_content

class audio_track <<table>> {
    playable_content_id: UUID <<PK>> <<FK>>
    language: TEXT <<PK>>
    format: TEXT <<PK>>
}

playable_content "1" <- - "0..*" audio_track

class media_copy <<table>> {
    id: UUID <<PK>>
    edition_id: UUID <<FK>>
    location_name: TEXT
    date_added: DATE (nullable)
    created_at: TIMESTAMP
}

class note <<table>> {
    id: UUID <<PK>>
    media_copy_id: UUID <<FK>>
    text: TEXT
    created_at: TIMESTAMP
}

media_copy "1" <- - "0.." note

class movie <<table>> {
    media_work_id: UUID <<PK>> <<FK>>
}

movie "1" - -> "1" media_work

class tv <<table>> {
    media_work_id: UUID <<PK>> <<FK>>
    status: TEXT
    ended_on: TEXT
}

tv "1" - -> "1" media_work

class season <<table>> {
    id: UUID <<PK>>
    tv_id: UUID <<FK>>
    season_number: INT
    title: TEXT (nullable)
    description: TEXT (nullable)
    - -
    UNIQUE(tv_id, season_number)
}

tv "1" <- - "0..*" season

class episode <<table>> {
    id: UUID <<PK>>
    season_id: UUID <<FK>>
    content_id: UUID <<FK>>
    episode_number: INT (nullable))
    air_date: DATE
    role: TEXT (nullable)
    - -
    UNIQUE(season_id, episode_number)
}

season "1" <- - "0..*" episode

class edition <<table>> {
    id: UUID <<PK>>
    title: TEXT
    release_date: DATE
    packaging: TEXT (nullable))
}

edition "1" <- - "0..*" media_copy

class edition_content <<table>> {
    edition_id: UUID <<PK>> <<FK>>
    content_id: UUID <<PK>> <<FK>>
    content_role: TEXT
}

edition "1" <- - "0..*" edition_content

class collection_group <<table>> {
    id: UUID <<PK>>
    title: TEXT
}

class collection_group_membership <<table>> {
    id: UUID <<PK>>
    collection_group_id: UUID <<FK>>
    media_work_id: UUID <<FK>>
    sort_index: INT
    - -
    UNIQUE(collection_group_id, media_work_id)
    UNIQUE(collection_group_id, sort_index)
}

media_work "1" <- - "0..*" collection_group_membership
collection_group "1" <- - "0..*" collection_group_membership

class contributor <<table>> {
    id: UUID <<PK>>
    name: TEXT
}

class contribution <<table>> {
    id: UUID <<PK>>
    media_work_id: UUID <<FK>>
    contributor_id: UUID <<FK>>
    role: TEXT
    - -
    UNIQUE(media_work_id, contributor_id, role)
}

media_work "1" <- - "0..*" contribution
contributor "1" <- - "0..*" contribution

@enduml

PlantUML version 1.2020.02(Sun Mar 01 10:22:07 UTC 2020)
(GPL source distribution)
Java Runtime: OpenJDK Runtime Environment
JVM: OpenJDK 64-Bit Server VM
Java Version: 17.0.18+8
Operating System: Linux
Default Encoding: UTF-8
Language: en
Country: null
--></g></svg>