<?xml version="1.0" encoding="UTF-8" standalone="no"?><svg xmlns="http://www.w3.org/2000/svg" xmlns:xlink="http://www.w3.org/1999/xlink" contentScriptType="application/ecmascript" contentStyleType="text/css" height="645px" preserveAspectRatio="none" style="width:781px;height:645px;" version="1.1" viewBox="0 0 781 645" width="781px" zoomAndPan="magnify"><defs><filter height="300%" id="f1f2906cu48vrf" width="300%" x="-1" y="-1"><feGaussianBlur result="blurOut" stdDeviation="2.0"/><feColorMatrix in="blurOut" result="blurOut2" type="matrix" values="0 0 0 0 0 0 0 0 0 0 0 0 0 0 0 0 0 0 .4 0"/><feOffset dx="4.0" dy="4.0" in="blurOut2" result="blurOut3"/><feBlend in="SourceGraphic" in2="blurOut3" mode="normal"/></filter></defs><g><!--MD5=[1e263bdf071388f27938ecfce413abc6]
class edition--><rect fill="#FEFECE" filter="url(#f1f2906cu48vrf)" height="105.1563" id="edition" style="stroke: #A80036; stroke-width: 1.5;" width="173" x="250" y="8"/><ellipse cx="310.75" cy="26.9688" fill="#ADD1B2" rx="11" ry="11" style="stroke: #A80036; stroke-width: 1.0;"/><path d="M313.7188,32.6094 Q313.1406,32.9063 312.5,33.0469 Q311.8594,33.2031 311.1563,33.2031 Q308.6563,33.2031 307.3281,31.5625 Q306.0156,29.9063 306.0156,26.7813 Q306.0156,23.6563 307.3281,22 Q308.6563,20.3438 311.1563,20.3438 Q311.8594,20.3438 312.5,20.5 Q313.1563,20.6563 313.7188,20.9531 L313.7188,23.6719 Q313.0938,23.0938 312.5,22.8281 Q311.9063,22.5469 311.2813,22.5469 Q309.9375,22.5469 309.25,23.625 Q308.5625,24.6875 308.5625,26.7813 Q308.5625,28.875 309.25,29.9531 Q309.9375,31.0156 311.2813,31.0156 Q311.9063,31.0156 312.5,30.75 Q313.0938,30.4688 313.7188,29.8906 L313.7188,32.6094 Z "/><text fill="#000000" font-family="sans-serif" font-size="12" font-style="italic" lengthAdjust="spacingAndGlyphs" textLength="46" x="329.75" y="24.1387">«table»</text><text fill="#000000" font-family="sans-serif" font-size="12" lengthAdjust="spacingAndGlyphs" textLength="43" x="331.25" y="38.1074">edition</text><line style="stroke: #A80036; stroke-width: 1.5;" x1="251" x2="422" y1="45.9375" y2="45.9375"/><text fill="#000000" font-family="sans-serif" font-size="11" lengthAdjust="spacingAndGlyphs" textLength="77" x="256" y="60.1479">id: UUID «PK»</text><text fill="#000000" font-family="sans-serif" font-size="11" lengthAdjust="spacingAndGlyphs" textLength="57" x="256" y="72.9526">title: TEXT</text><text fill="#000000" font-family="sans-serif" font-size="11" lengthAdjust="spacingAndGlyphs" textLength="111" x="256" y="85.7573">release_date: DATE</text><text fill="#000000" font-family="sans-serif" font-size="11" lengthAdjust="spacingAndGlyphs" textLength="161" x="256" y="98.562">packaging: MediaPackaging?</text><line style="stroke: #A80036; stroke-width: 1.5;" x1="251" x2="422" y1="105.1563" y2="105.1563"/><!--MD5=[feca3c0599ade2fe70d894afb1a866f0]
class edition_media_work--><rect fill="#FEFECE" filter="url(#f1f2906cu48vrf)" height="117.9609" id="edition_media_work" style="stroke: #A80036; stroke-width: 1.5;" width="213" x="22" y="179.5"/><ellipse cx="63.55" cy="198.4688" fill="#ADD1B2" rx="11" ry="11" style="stroke: #A80036; stroke-width: 1.0;"/><path d="M66.5188,204.1094 Q65.9406,204.4063 65.3,204.5469 Q64.6594,204.7031 63.9563,204.7031 Q61.4563,204.7031 60.1281,203.0625 Q58.8156,201.4063 58.8156,198.2813 Q58.8156,195.1563 60.1281,193.5 Q61.4563,191.8438 63.9563,191.8438 Q64.6594,191.8438 65.3,192 Q65.9563,192.1563 66.5188,192.4531 L66.5188,195.1719 Q65.8938,194.5938 65.3,194.3281 Q64.7063,194.0469 64.0813,194.0469 Q62.7375,194.0469 62.05,195.125 Q61.3625,196.1875 61.3625,198.2813 Q61.3625,200.375 62.05,201.4531 Q62.7375,202.5156 64.0813,202.5156 Q64.7063,202.5156 65.3,202.25 Q65.8938,201.9688 66.5188,201.3906 L66.5188,204.1094 Z "/><text fill="#000000" font-family="sans-serif" font-size="12" font-style="italic" lengthAdjust="spacingAndGlyphs" textLength="46" x="121.45" y="195.6387">«table»</text><text fill="#000000" font-family="sans-serif" font-size="12" lengthAdjust="spacingAndGlyphs" textLength="122" x="83.45" y="209.6074">edition_media_work</text><line style="stroke: #A80036; stroke-width: 1.5;" x1="23" x2="234" y1="217.4375" y2="217.4375"/><text fill="#000000" font-family="sans-serif" font-size="11" lengthAdjust="spacingAndGlyphs" textLength="120" x="28" y="231.6479">edition_id: UUID «FK»</text><text fill="#000000" font-family="sans-serif" font-size="11" lengthAdjust="spacingAndGlyphs" textLength="150" x="28" y="244.4526">media_work_id: UUID «FK»</text><text fill="#000000" font-family="sans-serif" font-size="11" lengthAdjust="spacingAndGlyphs" textLength="85" x="28" y="257.2573">sort_index: INT</text><line style="stroke: #A80036; stroke-width: 1.0;" x1="23" x2="234" y1="263.8516" y2="263.8516"/><text fill="#000000" font-family="sans-serif" font-size="11" lengthAdjust="spacingAndGlyphs" textLength="201" x="28" y="278.062">PRIMARY(edition_id, media_work_id)</text><text fill="#000000" font-family="sans-serif" font-size="11" lengthAdjust="spacingAndGlyphs" textLength="172" x="28" y="290.8667">UNIQUE(edition_id, sort_index)</text><!--MD5=[42003243f0c23e482758681e545ffc31]
class edition_content--><rect fill="#FEFECE" filter="url(#f1f2906cu48vrf)" height="130.7656" id="edition_content" style="stroke: #A80036; stroke-width: 1.5;" width="187" x="438" y="173"/><ellipse cx="478.65" cy="191.9688" fill="#ADD1B2" rx="11" ry="11" style="stroke: #A80036; stroke-width: 1.0;"/><path d="M481.6188,197.6094 Q481.0406,197.9063 480.4,198.0469 Q479.7594,198.2031 479.0563,198.2031 Q476.5563,198.2031 475.2281,196.5625 Q473.9156,194.9063 473.9156,191.7813 Q473.9156,188.6563 475.2281,187 Q476.5563,185.3438 479.0563,185.3438 Q479.7594,185.3438 480.4,185.5 Q481.0563,185.6563 481.6188,185.9531 L481.6188,188.6719 Q480.9938,188.0938 480.4,187.8281 Q479.8063,187.5469 479.1813,187.5469 Q477.8375,187.5469 477.15,188.625 Q476.4625,189.6875 476.4625,191.7813 Q476.4625,193.875 477.15,194.9531 Q477.8375,196.0156 479.1813,196.0156 Q479.8063,196.0156 480.4,195.75 Q480.9938,195.4688 481.6188,194.8906 L481.6188,197.6094 Z "/><text fill="#000000" font-family="sans-serif" font-size="12" font-style="italic" lengthAdjust="spacingAndGlyphs" textLength="46" x="524.35" y="189.1387">«table»</text><text fill="#000000" font-family="sans-serif" font-size="12" lengthAdjust="spacingAndGlyphs" textLength="98" x="498.35" y="203.1074">edition_content</text><line style="stroke: #A80036; stroke-width: 1.5;" x1="439" x2="624" y1="210.9375" y2="210.9375"/><text fill="#000000" font-family="sans-serif" font-size="11" lengthAdjust="spacingAndGlyphs" textLength="120" x="444" y="225.1479">edition_id: UUID «FK»</text><text fill="#000000" font-family="sans-serif" font-size="11" lengthAdjust="spacingAndGlyphs" textLength="124" x="444" y="237.9526">content_id: UUID «FK»</text><text fill="#000000" font-family="sans-serif" font-size="11" lengthAdjust="spacingAndGlyphs" textLength="146" x="444" y="250.7573">content_role: ContentRole</text><text fill="#000000" font-family="sans-serif" font-size="11" lengthAdjust="spacingAndGlyphs" textLength="85" x="444" y="263.562">sort_index: INT</text><line style="stroke: #A80036; stroke-width: 1.0;" x1="439" x2="624" y1="270.1563" y2="270.1563"/><text fill="#000000" font-family="sans-serif" font-size="11" lengthAdjust="spacingAndGlyphs" textLength="175" x="444" y="284.3667">PRIMARY(edition_id, content_id)</text><text fill="#000000" font-family="sans-serif" font-size="11" lengthAdjust="spacingAndGlyphs" textLength="172" x="444" y="297.1714">UNIQUE(edition_id, sort_index)</text><!--MD5=[8537b7f674f0e962e6c5322c17d5d58c]
class media_carrier--><rect fill="#FEFECE" filter="url(#f1f2906cu48vrf)" height="105.1563" id="media_carrier" style="stroke: #A80036; stroke-width: 1.5;" width="132" x="270.5" y="186"/><ellipse cx="292.25" cy="204.9688" fill="#ADD1B2" rx="11" ry="11" style="stroke: #A80036; stroke-width: 1.0;"/><path d="M295.2188,210.6094 Q294.6406,210.9063 294,211.0469 Q293.3594,211.2031 292.6563,211.2031 Q290.1563,211.2031 288.8281,209.5625 Q287.5156,207.9063 287.5156,204.7813 Q287.5156,201.6563 288.8281,200 Q290.1563,198.3438 292.6563,198.3438 Q293.3594,198.3438 294,198.5 Q294.6563,198.6563 295.2188,198.9531 L295.2188,201.6719 Q294.5938,201.0938 294,200.8281 Q293.4063,200.5469 292.7813,200.5469 Q291.4375,200.5469 290.75,201.625 Q290.0625,202.6875 290.0625,204.7813 Q290.0625,206.875 290.75,207.9531 Q291.4375,209.0156 292.7813,209.0156 Q293.4063,209.0156 294,208.75 Q294.5938,208.4688 295.2188,207.8906 L295.2188,210.6094 Z "/><text fill="#000000" font-family="sans-serif" font-size="12" font-style="italic" lengthAdjust="spacingAndGlyphs" textLength="46" x="327.25" y="202.1387">«table»</text><text fill="#000000" font-family="sans-serif" font-size="12" lengthAdjust="spacingAndGlyphs" textLength="85" x="307.75" y="216.1074">media_carrier</text><line style="stroke: #A80036; stroke-width: 1.5;" x1="271.5" x2="401.5" y1="223.9375" y2="223.9375"/><text fill="#000000" font-family="sans-serif" font-size="11" lengthAdjust="spacingAndGlyphs" textLength="77" x="276.5" y="238.1479">id: UUID «PK»</text><text fill="#000000" font-family="sans-serif" font-size="11" lengthAdjust="spacingAndGlyphs" textLength="120" x="276.5" y="250.9526">edition_id: UUID «FK»</text><text fill="#000000" font-family="sans-serif" font-size="11" lengthAdjust="spacingAndGlyphs" textLength="63" x="276.5" y="263.7573">title: TEXT?</text><text fill="#000000" font-family="sans-serif" font-size="11" lengthAdjust="spacingAndGlyphs" textLength="60" x="276.5" y="276.562">type: TEXT</text><line style="stroke: #A80036; stroke-width: 1.5;" x1="271.5" x2="401.5" y1="283.1563" y2="283.1563"/><!--MD5=[b5aa4a27f645408602673744568687d4]
class disc_carrier--><rect fill="#FEFECE" filter="url(#f1f2906cu48vrf)" height="79.5469" id="disc_carrier" style="stroke: #A80036; stroke-width: 1.5;" width="205" x="17" y="383"/><ellipse cx="79.25" cy="401.9688" fill="#ADD1B2" rx="11" ry="11" style="stroke: #A80036; stroke-width: 1.0;"/><path d="M82.2188,407.6094 Q81.6406,407.9063 81,408.0469 Q80.3594,408.2031 79.6563,408.2031 Q77.1563,408.2031 75.8281,406.5625 Q74.5156,404.9063 74.5156,401.7813 Q74.5156,398.6563 75.8281,397 Q77.1563,395.3438 79.6563,395.3438 Q80.3594,395.3438 81,395.5 Q81.6563,395.6563 82.2188,395.9531 L82.2188,398.6719 Q81.5938,398.0938 81,397.8281 Q80.4063,397.5469 79.7813,397.5469 Q78.4375,397.5469 77.75,398.625 Q77.0625,399.6875 77.0625,401.7813 Q77.0625,403.875 77.75,404.9531 Q78.4375,406.0156 79.7813,406.0156 Q80.4063,406.0156 81,405.75 Q81.5938,405.4688 82.2188,404.8906 L82.2188,407.6094 Z "/><text fill="#000000" font-family="sans-serif" font-size="12" font-style="italic" lengthAdjust="spacingAndGlyphs" textLength="46" x="112.75" y="399.1387">«table»</text><text fill="#000000" font-family="sans-serif" font-size="12" lengthAdjust="spacingAndGlyphs" textLength="72" x="99.75" y="413.1074">disc_carrier</text><line style="stroke: #A80036; stroke-width: 1.5;" x1="18" x2="221" y1="420.9375" y2="420.9375"/><text fill="#000000" font-family="sans-serif" font-size="11" lengthAdjust="spacingAndGlyphs" textLength="193" x="23" y="435.1479">media_carrier_id: UUID «PK» «FK»</text><text fill="#000000" font-family="sans-serif" font-size="11" lengthAdjust="spacingAndGlyphs" textLength="112" x="23" y="447.9526">disc_type: DiscType</text><line style="stroke: #A80036; stroke-width: 1.5;" x1="18" x2="221" y1="454.5469" y2="454.5469"/><!--MD5=[9ec3d9a91ec24df708e3acc9e86ec9c6]
class disc_region_code--><rect fill="#FEFECE" filter="url(#f1f2906cu48vrf)" height="92.3516" id="disc_region_code" style="stroke: #A80036; stroke-width: 1.5;" width="227" x="6" y="542"/><ellipse cx="61.25" cy="560.9688" fill="#ADD1B2" rx="11" ry="11" style="stroke: #A80036; stroke-width: 1.0;"/><path d="M64.2188,566.6094 Q63.6406,566.9063 63,567.0469 Q62.3594,567.2031 61.6563,567.2031 Q59.1563,567.2031 57.8281,565.5625 Q56.5156,563.9063 56.5156,560.7813 Q56.5156,557.6563 57.8281,556 Q59.1563,554.3438 61.6563,554.3438 Q62.3594,554.3438 63,554.5 Q63.6563,554.6563 64.2188,554.9531 L64.2188,557.6719 Q63.5938,557.0938 63,556.8281 Q62.4063,556.5469 61.7813,556.5469 Q60.4375,556.5469 59.75,557.625 Q59.0625,558.6875 59.0625,560.7813 Q59.0625,562.875 59.75,563.9531 Q60.4375,565.0156 61.7813,565.0156 Q62.4063,565.0156 63,564.75 Q63.5938,564.4688 64.2188,563.8906 L64.2188,566.6094 Z "/><text fill="#000000" font-family="sans-serif" font-size="12" font-style="italic" lengthAdjust="spacingAndGlyphs" textLength="46" x="112.75" y="558.1387">«table»</text><text fill="#000000" font-family="sans-serif" font-size="12" lengthAdjust="spacingAndGlyphs" textLength="108" x="81.75" y="572.1074">disc_region_code</text><line style="stroke: #A80036; stroke-width: 1.5;" x1="7" x2="232" y1="579.9375" y2="579.9375"/><text fill="#000000" font-family="sans-serif" font-size="11" lengthAdjust="spacingAndGlyphs" textLength="149" x="12" y="594.1479">disc_carrier_id: UUID «FK»</text><text fill="#000000" font-family="sans-serif" font-size="11" lengthAdjust="spacingAndGlyphs" textLength="144" x="12" y="606.9526">region_code: RegionCode</text><line style="stroke: #A80036; stroke-width: 1.0;" x1="7" x2="232" y1="613.5469" y2="613.5469"/><text fill="#000000" font-family="sans-serif" font-size="11" lengthAdjust="spacingAndGlyphs" textLength="215" x="12" y="627.7573">PRIMARY(disc_carrier_id, region_code)</text><!--MD5=[bca748826b8700d7ab4630271dc5b262]
class digital_carrier--><rect fill="#FEFECE" filter="url(#f1f2906cu48vrf)" height="92.3516" id="digital_carrier" style="stroke: #A80036; stroke-width: 1.5;" width="205" x="257" y="377"/><ellipse cx="312.75" cy="395.9688" fill="#ADD1B2" rx="11" ry="11" style="stroke: #A80036; stroke-width: 1.0;"/><path d="M315.7188,401.6094 Q315.1406,401.9063 314.5,402.0469 Q313.8594,402.2031 313.1563,402.2031 Q310.6563,402.2031 309.3281,400.5625 Q308.0156,398.9063 308.0156,395.7813 Q308.0156,392.6563 309.3281,391 Q310.6563,389.3438 313.1563,389.3438 Q313.8594,389.3438 314.5,389.5 Q315.1563,389.6563 315.7188,389.9531 L315.7188,392.6719 Q315.0938,392.0938 314.5,391.8281 Q313.9063,391.5469 313.2813,391.5469 Q311.9375,391.5469 311.25,392.625 Q310.5625,393.6875 310.5625,395.7813 Q310.5625,397.875 311.25,398.9531 Q311.9375,400.0156 313.2813,400.0156 Q313.9063,400.0156 314.5,399.75 Q315.0938,399.4688 315.7188,398.8906 L315.7188,401.6094 Z "/><text fill="#000000" font-family="sans-serif" font-size="12" font-style="italic" lengthAdjust="spacingAndGlyphs" textLength="46" x="352.75" y="393.1387">«table»</text><text fill="#000000" font-family="sans-serif" font-size="12" lengthAdjust="spacingAndGlyphs" textLength="85" x="333.25" y="407.1074">digital_carrier</text><line style="stroke: #A80036; stroke-width: 1.5;" x1="258" x2="461" y1="414.9375" y2="414.9375"/><text fill="#000000" font-family="sans-serif" font-size="11" lengthAdjust="spacingAndGlyphs" textLength="193" x="263" y="429.1479">media_carrier_id: UUID «PK» «FK»</text><text fill="#000000" font-family="sans-serif" font-size="11" lengthAdjust="spacingAndGlyphs" textLength="134" x="263" y="441.9526">digital_type: DigitalType</text><text fill="#000000" font-family="sans-serif" font-size="11" lengthAdjust="spacingAndGlyphs" textLength="90" x="263" y="454.7573">platform: TEXT?</text><line style="stroke: #A80036; stroke-width: 1.5;" x1="258" x2="461" y1="461.3516" y2="461.3516"/><!--MD5=[e14bf1f343dea6e8f9dfbbd32d43353e]
class media_carrier_content--><rect fill="#FEFECE" filter="url(#f1f2906cu48vrf)" height="117.9609" id="media_carrier_content" style="stroke: #A80036; stroke-width: 1.5;" width="228" x="542.5" y="364"/><ellipse cx="582.7" cy="382.9688" fill="#ADD1B2" rx="11" ry="11" style="stroke: #A80036; stroke-width: 1.0;"/><path d="M585.6688,388.6094 Q585.0906,388.9063 584.45,389.0469 Q583.8094,389.2031 583.1063,389.2031 Q580.6063,389.2031 579.2781,387.5625 Q577.9656,385.9063 577.9656,382.7813 Q577.9656,379.6563 579.2781,378 Q580.6063,376.3438 583.1063,376.3438 Q583.8094,376.3438 584.45,376.5 Q585.1063,376.6563 585.6688,376.9531 L585.6688,379.6719 Q585.0438,379.0938 584.45,378.8281 Q583.8563,378.5469 583.2313,378.5469 Q581.8875,378.5469 581.2,379.625 Q580.5125,380.6875 580.5125,382.7813 Q580.5125,384.875 581.2,385.9531 Q581.8875,387.0156 583.2313,387.0156 Q583.8563,387.0156 584.45,386.75 Q585.0438,386.4688 585.6688,385.8906 L585.6688,388.6094 Z "/><text fill="#000000" font-family="sans-serif" font-size="12" font-style="italic" lengthAdjust="spacingAndGlyphs" textLength="46" x="649.3" y="380.1387">«table»</text><text fill="#000000" font-family="sans-serif" font-size="12" lengthAdjust="spacingAndGlyphs" textLength="140" x="602.3" y="394.1074">media_carrier_content</text><line style="stroke: #A80036; stroke-width: 1.5;" x1="543.5" x2="769.5" y1="401.9375" y2="401.9375"/><text fill="#000000" font-family="sans-serif" font-size="11" lengthAdjust="spacingAndGlyphs" textLength="161" x="548.5" y="416.1479">media_carrier_id: UUID «FK»</text><text fill="#000000" font-family="sans-serif" font-size="11" lengthAdjust="spacingAndGlyphs" textLength="124" x="548.5" y="428.9526">content_id: UUID «FK»</text><text fill="#000000" font-family="sans-serif" font-size="11" lengthAdjust="spacingAndGlyphs" textLength="85" x="548.5" y="441.7573">sort_index: INT</text><line style="stroke: #A80036; stroke-width: 1.0;" x1="543.5" x2="769.5" y1="448.3516" y2="448.3516"/><text fill="#000000" font-family="sans-serif" font-size="11" lengthAdjust="spacingAndGlyphs" textLength="216" x="548.5" y="462.562">PRIMARY(media_carrier_id, content_id)</text><text fill="#000000" font-family="sans-serif" font-size="11" lengthAdjust="spacingAndGlyphs" textLength="213" x="548.5" y="475.3667">UNIQUE(media_carrier_id, sort_index)</text><!--MD5=[a46658d446b05034c23a4bc1a7db0e1a]
class media_work--><rect fill="#FEFECE" filter="url(#f1f2906cu48vrf)" height="48" id="media_work" style="stroke: #A80036; stroke-width: 1.5;" width="105" x="76" y="36.5"/><ellipse cx="91" cy="52.5" fill="#ADD1B2" rx="11" ry="11" style="stroke: #A80036; stroke-width: 1.0;"/><path d="M93.9688,58.1406 Q93.3906,58.4375 92.75,58.5781 Q92.1094,58.7344 91.4063,58.7344 Q88.9063,58.7344 87.5781,57.0938 Q86.2656,55.4375 86.2656,52.3125 Q86.2656,49.1875 87.5781,47.5313 Q88.9063,45.875 91.4063,45.875 Q92.1094,45.875 92.75,46.0313 Q93.4063,46.1875 93.9688,46.4844 L93.9688,49.2031 Q93.3438,48.625 92.75,48.3594 Q92.1563,48.0781 91.5313,48.0781 Q90.1875,48.0781 89.5,49.1563 Q88.8125,50.2188 88.8125,52.3125 Q88.8125,54.4063 89.5,55.4844 Q90.1875,56.5469 91.5313,56.5469 Q92.1563,56.5469 92.75,56.2813 Q93.3438,56 93.9688,55.4219 L93.9688,58.1406 Z "/><text fill="#000000" font-family="sans-serif" font-size="12" lengthAdjust="spacingAndGlyphs" textLength="73" x="105" y="56.6543">media_work</text><line style="stroke: #A80036; stroke-width: 1.5;" x1="77" x2="180" y1="68.5" y2="68.5"/><line style="stroke: #A80036; stroke-width: 1.5;" x1="77" x2="180" y1="76.5" y2="76.5"/><!--MD5=[48f574f03aa9f209c3e6ebb00fc1f351]
class content--><rect fill="#FEFECE" filter="url(#f1f2906cu48vrf)" height="48" id="content" style="stroke: #A80036; stroke-width: 1.5;" width="81" x="564" y="36.5"/><ellipse cx="579" cy="52.5" fill="#ADD1B2" rx="11" ry="11" style="stroke: #A80036; stroke-width: 1.0;"/><path d="M581.9688,58.1406 Q581.3906,58.4375 580.75,58.5781 Q580.1094,58.7344 579.4063,58.7344 Q576.9063,58.7344 575.5781,57.0938 Q574.2656,55.4375 574.2656,52.3125 Q574.2656,49.1875 575.5781,47.5313 Q576.9063,45.875 579.4063,45.875 Q580.1094,45.875 580.75,46.0313 Q581.4063,46.1875 581.9688,46.4844 L581.9688,49.2031 Q581.3438,48.625 580.75,48.3594 Q580.1563,48.0781 579.5313,48.0781 Q578.1875,48.0781 577.5,49.1563 Q576.8125,50.2188 576.8125,52.3125 Q576.8125,54.4063 577.5,55.4844 Q578.1875,56.5469 579.5313,56.5469 Q580.1563,56.5469 580.75,56.2813 Q581.3438,56 581.9688,55.4219 L581.9688,58.1406 Z "/><text fill="#000000" font-family="sans-serif" font-size="12" lengthAdjust="spacingAndGlyphs" textLength="49" x="593" y="56.6543">content</text><line style="stroke: #A80036; stroke-width: 1.5;" x1="565" x2="644" y1="68.5" y2="68.5"/><line style="stroke: #A80036; stroke-width: 1.5;" x1="565" x2="644" y1="76.5" y2="76.5"/><!--MD5=[adc2e659898eb8442824abc5432c035e]
reverse link edition to edition_media_work--><path d="M271.43,116.56 C247.82,136.54 221.08,159.16 197.17,179.4 " fill="none" id="edition&lt;-edition_media_work" style="stroke: #A80036; stroke-width: 1.0;"/><polygon fill="#A80036" points="275.5,113.12,266.0462,115.8815,271.6836,116.3504,271.2148,121.9877,275.5,113.12" style="stroke: #A80036; stroke-width: 1.0;"/><text fill="#000000" font-family="sans-serif" font-size="13" lengthAdjust="spacingAndGlyphs" textLength="8" x="258.7656" y="133.2639">1</text><text fill="#000000" font-family="sans-serif" font-size="13" lengthAdjust="spacingAndGlyphs" textLength="16" x="188.5642" y="168.3605">0..</text><!--MD5=[68f60ab505d5801b9ae794ad6398252f]
reverse link edition to edition_content--><path d="M397.6,116.65 C417.31,134.44 439.34,154.32 459.75,172.74 " fill="none" id="edition&lt;-edition_content" style="stroke: #A80036; stroke-width: 1.0;"/><polygon fill="#A80036" points="393.69,113.12,397.7038,122.1139,397.4065,116.4648,403.0555,116.1675,393.69,113.12" style="stroke: #A80036; stroke-width: 1.0;"/><text fill="#000000" font-family="sans-serif" font-size="13" lengthAdjust="spacingAndGlyphs" textLength="8" x="392.8374" y="133.2639">1</text><text fill="#000000" font-family="sans-serif" font-size="13" lengthAdjust="spacingAndGlyphs" textLength="23" x="427.6445" y="161.8142">0..*</text><!--MD5=[f56ffbe7abb043d00d5a48a5df3a1c51]
reverse link edition to media_carrier--><path d="M336.5,118.5 C336.5,140.12 336.5,164.6 336.5,185.71 " fill="none" id="edition&lt;-media_carrier" style="stroke: #A80036; stroke-width: 1.0;"/><polygon fill="#A80036" points="336.5,113.35,332.5,122.35,336.5,118.35,340.5,122.35,336.5,113.35" style="stroke: #A80036; stroke-width: 1.0;"/><text fill="#000000" font-family="sans-serif" font-size="13" lengthAdjust="spacingAndGlyphs" textLength="8" x="327.9875" y="133.1477">1</text><text fill="#000000" font-family="sans-serif" font-size="13" lengthAdjust="spacingAndGlyphs" textLength="23" x="312.0266" y="175.0507">0..*</text><!--MD5=[cfa0e586690d5262c44405605aeb05ee]
reverse link media_carrier to disc_carrier--><path d="M271.1,294.5 C237.29,322.94 196.81,356.98 166.19,382.73 " fill="none" id="media_carrier&lt;-disc_carrier" style="stroke: #A80036; stroke-width: 1.0;"/><polygon fill="#A80036" points="275.19,291.07,265.7311,293.8141,271.3677,294.2933,270.8884,299.9298,275.19,291.07" style="stroke: #A80036; stroke-width: 1.0;"/><text fill="#000000" font-family="sans-serif" font-size="13" lengthAdjust="spacingAndGlyphs" textLength="8" x="258.414" y="311.2072">1</text><text fill="#000000" font-family="sans-serif" font-size="13" lengthAdjust="spacingAndGlyphs" textLength="8" x="165.2605" y="371.9335">1</text><!--MD5=[6ead2a843e86a8ef998f2cf0bfb9c395]
reverse link disc_carrier to disc_region_code--><path d="M119.5,468.14 C119.5,491.02 119.5,518.92 119.5,541.93 " fill="none" id="disc_carrier&lt;-disc_region_code" style="stroke: #A80036; stroke-width: 1.0;"/><polygon fill="#A80036" points="119.5,463.04,115.5,472.04,119.5,468.04,123.5,472.04,119.5,463.04" style="stroke: #A80036; stroke-width: 1.0;"/><text fill="#000000" font-family="sans-serif" font-size="13" lengthAdjust="spacingAndGlyphs" textLength="8" x="110.8625" y="482.7303">1</text><text fill="#000000" font-family="sans-serif" font-size="13" lengthAdjust="spacingAndGlyphs" textLength="23" x="94.7391" y="530.7772">0..*</text><!--MD5=[8529e9a51ac23689407a71af4a2d0a62]
reverse link media_carrier to digital_carrier--><path d="M343.67,296.43 C346.94,322.34 350.75,352.58 353.81,376.89 " fill="none" id="media_carrier&lt;-digital_carrier" style="stroke: #A80036; stroke-width: 1.0;"/><polygon fill="#A80036" points="343.03,291.31,340.1939,300.7417,343.659,296.2703,348.1304,299.7353,343.03,291.31" style="stroke: #A80036; stroke-width: 1.0;"/><text fill="#000000" font-family="sans-serif" font-size="13" lengthAdjust="spacingAndGlyphs" textLength="8" x="335.3542" y="311.1026">1</text><text fill="#000000" font-family="sans-serif" font-size="13" lengthAdjust="spacingAndGlyphs" textLength="8" x="344.3868" y="366.0669">1</text><!--MD5=[769ffdb25e5331a519aec4a2983ff6b8]
reverse link media_carrier to media_carrier_content--><path d="M405.42,294.05 C410.45,297.52 415.51,300.88 420.5,304 C458.94,328.06 502.95,351.16 542.46,370.44 " fill="none" id="media_carrier&lt;-media_carrier_content" style="stroke: #A80036; stroke-width: 1.0;"/><polygon fill="#A80036" points="401.2,291.1,406.2773,299.5393,405.2955,293.9683,410.8665,292.9865,401.2,291.1" style="stroke: #A80036; stroke-width: 1.0;"/><text fill="#000000" font-family="sans-serif" font-size="13" lengthAdjust="spacingAndGlyphs" textLength="8" x="401.3566" y="311.2413">1</text><text fill="#000000" font-family="sans-serif" font-size="13" lengthAdjust="spacingAndGlyphs" textLength="23" x="511.4176" y="363.6648">0..*</text><!--MD5=[f3fed279389eea6d9249153693a34eb7]
reverse link media_work to edition_media_work--><path d="M128.5,89.77 C128.5,113.83 128.5,149.18 128.5,179.27 " fill="none" id="media_work&lt;-edition_media_work" style="stroke: #A80036; stroke-width: 1.0;"/><polygon fill="#A80036" points="128.5,84.51,124.5,93.51,128.5,89.51,132.5,93.51,128.5,84.51" style="stroke: #A80036; stroke-width: 1.0;"/><text fill="#000000" font-family="sans-serif" font-size="13" lengthAdjust="spacingAndGlyphs" textLength="8" x="119.475" y="104.6683">1</text><text fill="#000000" font-family="sans-serif" font-size="13" lengthAdjust="spacingAndGlyphs" textLength="16" x="111.575" y="168.6312">0..</text><!--MD5=[106077ea55ce2ee2989b7ea06d5695d5]
reverse link content to edition_content--><path d="M592.92,89.41 C583.65,111.77 570.26,144.06 558.35,172.78 " fill="none" id="content&lt;-edition_content" style="stroke: #A80036; stroke-width: 1.0;"/><polygon fill="#A80036" points="594.96,84.51,587.824,91.298,593.0491,89.1304,595.2167,94.3555,594.96,84.51" style="stroke: #A80036; stroke-width: 1.0;"/><text fill="#000000" font-family="sans-serif" font-size="13" lengthAdjust="spacingAndGlyphs" textLength="8" x="583.4904" y="104.6683">1</text><text fill="#000000" font-family="sans-serif" font-size="13" lengthAdjust="spacingAndGlyphs" textLength="23" x="537.0289" y="161.8585">0..*</text><!--MD5=[dc091b631568611dafa1f340b37c6baf]
reverse link content to media_carrier_content--><path d="M616.53,89.78 C625.39,111.97 636.83,143.89 642.5,173 C655.06,237.49 657.65,313.02 657.67,363.84 " fill="none" id="content&lt;-media_carrier_content" style="stroke: #A80036; stroke-width: 1.0;"/><polygon fill="#A80036" points="614.57,84.91,614.2247,94.7528,616.4392,89.5474,621.6446,91.762,614.57,84.91" style="stroke: #A80036; stroke-width: 1.0;"/><text fill="#000000" font-family="sans-serif" font-size="13" lengthAdjust="spacingAndGlyphs" textLength="8" x="607.9737" y="104.3714">1</text><text fill="#000000" font-family="sans-serif" font-size="13" lengthAdjust="spacingAndGlyphs" textLength="23" x="633.411" y="352.7932">0..*</text><!--MD5=[25611b69e1f22172048a3eff9f626303]
@startuml
skinparam classAttributeIconSize 0

class edition <<table>> {
    id: UUID <<PK>>
    title: TEXT
    release_date: DATE
    packaging: MediaPackaging?
}

class edition_media_work <<table>> {
    edition_id: UUID <<FK>>
    media_work_id: UUID <<FK>>
    sort_index: INT
    - -
    PRIMARY(edition_id, media_work_id)
    UNIQUE(edition_id, sort_index)
}

edition "1" <- - "0.." edition_media_work

class edition_content <<table>> {
    edition_id: UUID <<FK>>
    content_id: UUID <<FK>>
    content_role: ContentRole
    sort_index: INT
    - -
    PRIMARY(edition_id, content_id)
    UNIQUE(edition_id, sort_index)
}

edition "1" <- - "0..*" edition_content

class media_carrier <<table>> {
    id: UUID <<PK>>
    edition_id: UUID <<FK>>
    title: TEXT?
    type: TEXT
}

edition "1" <- - "0..*" media_carrier

class disc_carrier <<table>> {
    media_carrier_id: UUID <<PK>> <<FK>>
    disc_type: DiscType
}

media_carrier "1" <- - "1" disc_carrier

class disc_region_code <<table>> {
    disc_carrier_id: UUID <<FK>>
    region_code: RegionCode
    - -
    PRIMARY(disc_carrier_id, region_code)
}

disc_carrier "1" <- - "0..*" disc_region_code

class digital_carrier <<table>> {
    media_carrier_id: UUID <<PK>> <<FK>>
    digital_type: DigitalType
    platform: TEXT?
}

media_carrier "1" <- - "1" digital_carrier

class media_carrier_content <<table>> {
    media_carrier_id: UUID <<FK>>
    content_id: UUID <<FK>>
    sort_index: INT
    - -
    PRIMARY(media_carrier_id, content_id)
    UNIQUE(media_carrier_id, sort_index)
}

media_carrier "1" <- - "0..*" media_carrier_content

media_work "1" <- - "0.." edition_media_work
content "1" <- - "0..*" edition_content
content "1" <- - "0..*" media_carrier_content

@enduml

PlantUML version 1.2020.02(Sun Mar 01 10:22:07 UTC 2020)
(GPL source distribution)
Java Runtime: OpenJDK Runtime Environment
JVM: OpenJDK 64-Bit Server VM
Java Version: 17.0.18+8
Operating System: Linux
Default Encoding: UTF-8
Language: en
Country: null
--></g></svg>