<?xml version="1.0" encoding="UTF-8" standalone="no"?><svg xmlns="http://www.w3.org/2000/svg" xmlns:xlink="http://www.w3.org/1999/xlink" contentScriptType="application/ecmascript" contentStyleType="text/css" height="619px" preserveAspectRatio="none" style="width:781px;height:619px;" version="1.1" viewBox="0 0 781 619" width="781px" zoomAndPan="magnify"><defs><filter height="300%" id="f41abtnm2qsw8" width="300%" x="-1" y="-1"><feGaussianBlur result="blurOut" stdDeviation="2.0"/><feColorMatrix in="blurOut" result="blurOut2" type="matrix" values="0 0 0 0 0 0 0 0 0 0 0 0 0 0 0 0 0 0 .4 0"/><feOffset dx="4.0" dy="4.0" in="blurOut2" result="blurOut3"/><feBlend in="SourceGraphic" in2="blurOut3" mode="normal"/></filter></defs><g><!--MD5=[1e263bdf071388f27938ecfce413abc6]
class edition--><rect fill="#FEFECE" filter="url(#f41abtnm2qsw8)" height="105.1563" id="edition" style="stroke: #A80036; stroke-width: 1.5;" width="173" x="250" y="8"/><ellipse cx="310.75" cy="26.9688" fill="#ADD1B2" rx="11" ry="11" style="stroke: #A80036; stroke-width: 1.0;"/><path d="M313.7188,32.6094 Q313.1406,32.9063 312.5,33.0469 Q311.8594,33.2031 311.1563,33.2031 Q308.6563,33.2031 307.3281,31.5625 Q306.0156,29.9063 306.0156,26.7813 Q306.0156,23.6563 307.3281,22 Q308.6563,20.3438 311.1563,20.3438 Q311.8594,20.3438 312.5,20.5 Q313.1563,20.6563 313.7188,20.9531 L313.7188,23.6719 Q313.0938,23.0938 312.5,22.8281 Q311.9063,22.5469 311.2813,22.5469 Q309.9375,22.5469 309.25,23.625 Q308.5625,24.6875 308.5625,26.7813 Q308.5625,28.875 309.25,29.9531 Q309.9375,31.0156 311.2813,31.0156 Q311.9063,31.0156 312.5,30.75 Q313.0938,30.4688 313.7188,29.8906 L313.7188,32.6094 Z "/><text fill="#000000" font-family="sans-serif" font-size="12" font-style="italic" lengthAdjust="spacingAndGlyphs" textLength="46" x="329.75" y="24.1387">«table»</text><text fill="#000000" font-family="sans-serif" font-size="12" lengthAdjust="spacingAndGlyphs" textLength="43" x="331.25" y="38.1074">edition</text><line style="stroke: #A80036; stroke-width: 1.5;" x1="251" x2="422" y1="45.9375" y2="45.9375"/><text fill="#000000" font-family="sans-serif" font-size="11" lengthAdjust="spacingAndGlyphs" textLength="77" x="256" y="60.1479">id: UUID «PK»</text><text fill="#000000" font-family="sans-serif" font-size="11" lengthAdjust="spacingAndGlyphs" textLength="57" x="256" y="72.9526">title: TEXT</text><text fill="#000000" font-family="sans-serif" font-size="11" lengthAdjust="spacingAndGlyphs" textLength="111" x="256" y="85.7573">release_date: DATE</text><text fill="#000000" font-family="sans-serif" font-size="11" lengthAdjust="spacingAndGlyphs" textLength="161" x="256" y="98.562">packaging: MediaPackaging?</text><line style="stroke: #A80036; stroke-width: 1.5;" x1="251" x2="422" y1="105.1563" y2="105.1563"/><!--MD5=[feca3c0599ade2fe70d894afb1a866f0]
class edition_media_work--><rect fill="#FEFECE" filter="url(#f41abtnm2qsw8)" height="105.1563" id="edition_media_work" style="stroke: #A80036; stroke-width: 1.5;" width="213" x="22" y="179.5"/><ellipse cx="63.55" cy="198.4688" fill="#ADD1B2" rx="11" ry="11" style="stroke: #A80036; stroke-width: 1.0;"/><path d="M66.5188,204.1094 Q65.9406,204.4063 65.3,204.5469 Q64.6594,204.7031 63.9563,204.7031 Q61.4563,204.7031 60.1281,203.0625 Q58.8156,201.4063 58.8156,198.2813 Q58.8156,195.1563 60.1281,193.5 Q61.4563,191.8438 63.9563,191.8438 Q64.6594,191.8438 65.3,192 Q65.9563,192.1563 66.5188,192.4531 L66.5188,195.1719 Q65.8938,194.5938 65.3,194.3281 Q64.7063,194.0469 64.0813,194.0469 Q62.7375,194.0469 62.05,195.125 Q61.3625,196.1875 61.3625,198.2813 Q61.3625,200.375 62.05,201.4531 Q62.7375,202.5156 64.0813,202.5156 Q64.7063,202.5156 65.3,202.25 Q65.8938,201.9688 66.5188,201.3906 L66.5188,204.1094 Z "/><text fill="#000000" font-family="sans-serif" font-size="12" font-style="italic" lengthAdjust="spacingAndGlyphs" textLength="46" x="121.45" y="195.6387">«table»</text><text fill="#000000" font-family="sans-serif" font-size="12" lengthAdjust="spacingAndGlyphs" textLength="122" x="83.45" y="209.6074">edition_media_work</text><line style="stroke: #A80036; stroke-width: 1.5;" x1="23" x2="234" y1="217.4375" y2="217.4375"/><text fill="#000000" font-family="sans-serif" font-size="11" lengthAdjust="spacingAndGlyphs" textLength="120" x="28" y="231.6479">edition_id: UUID «FK»</text><text fill="#000000" font-family="sans-serif" font-size="11" lengthAdjust="spacingAndGlyphs" textLength="150" x="28" y="244.4526">media_work_id: UUID «FK»</text><text fill="#000000" font-family="sans-serif" font-size="11" lengthAdjust="spacingAndGlyphs" textLength="85" x="28" y="257.2573">sort_index: INT</text><line style="stroke: #A80036; stroke-width: 1.0;" x1="23" x2="234" y1="263.8516" y2="263.8516"/><text fill="#000000" font-family="sans-serif" font-size="11" lengthAdjust="spacingAndGlyphs" textLength="201" x="28" y="278.062">PRIMARY(edition_id, media_work_id)</text><!--MD5=[42003243f0c23e482758681e545ffc31]
class edition_content--><rect fill="#FEFECE" filter="url(#f41abtnm2qsw8)" height="117.9609" id="edition_content" style="stroke: #A80036; stroke-width: 1.5;" width="187" x="438" y="173"/><ellipse cx="478.65" cy="191.9688" fill="#ADD1B2" rx="11" ry="11" style="stroke: #A80036; stroke-width: 1.0;"/><path d="M481.6188,197.6094 Q481.0406,197.9063 480.4,198.0469 Q479.7594,198.2031 479.0563,198.2031 Q476.5563,198.2031 475.2281,196.5625 Q473.9156,194.9063 473.9156,191.7813 Q473.9156,188.6563 475.2281,187 Q476.5563,185.3438 479.0563,185.3438 Q479.7594,185.3438 480.4,185.5 Q481.0563,185.6563 481.6188,185.9531 L481.6188,188.6719 Q480.9938,188.0938 480.4,187.8281 Q479.8063,187.5469 479.1813,187.5469 Q477.8375,187.5469 477.15,188.625 Q476.4625,189.6875 476.4625,191.7813 Q476.4625,193.875 477.15,194.9531 Q477.8375,196.0156 479.1813,196.0156 Q479.8063,196.0156 480.4,195.75 Q480.9938,195.4688 481.6188,194.8906 L481.6188,197.6094 Z "/><text fill="#000000" font-family="sans-serif" font-size="12" font-style="italic" lengthAdjust="spacingAndGlyphs" textLength="46" x="524.35" y="189.1387">«table»</text><text fill="#000000" font-family="sans-serif" font-size="12" lengthAdjust="spacingAndGlyphs" textLength="98" x="498.35" y="203.1074">edition_content</text><line style="stroke: #A80036; stroke-width: 1.5;" x1="439" x2="624" y1="210.9375" y2="210.9375"/><text fill="#000000" font-family="sans-serif" font-size="11" lengthAdjust="spacingAndGlyphs" textLength="120" x="444" y="225.1479">edition_id: UUID «FK»</text><text fill="#000000" font-family="sans-serif" font-size="11" lengthAdjust="spacingAndGlyphs" textLength="124" x="444" y="237.9526">content_id: UUID «FK»</text><text fill="#000000" font-family="sans-serif" font-size="11" lengthAdjust="spacingAndGlyphs" textLength="146" x="444" y="250.7573">content_role: ContentRole</text><text fill="#000000" font-family="sans-serif" font-size="11" lengthAdjust="spacingAndGlyphs" textLength="85" x="444" y="263.562">sort_index: INT</text><line style="stroke: #A80036; stroke-width: 1.0;" x1="439" x2="624" y1="270.1563" y2="270.1563"/><text fill="#000000" font-family="sans-serif" font-size="11" lengthAdjust="spacingAndGlyphs" textLength="175" x="444" y="284.3667">PRIMARY(edition_id, content_id)</text><!--MD5=[8537b7f674f0e962e6c5322c17d5d58c]
class media_carrier--><rect fill="#FEFECE" filter="url(#f41abtnm2qsw8)" height="105.1563" id="media_carrier" style="stroke: #A80036; stroke-width: 1.5;" width="132" x="270.5" y="179.5"/><ellipse cx="292.25" cy="198.4688" fill="#ADD1B2" rx="11" ry="11" style="stroke: #A80036; stroke-width: 1.0;"/><path d="M295.2188,204.1094 Q294.6406,204.4063 294,204.5469 Q293.3594,204.7031 292.6563,204.7031 Q290.1563,204.7031 288.8281,203.0625 Q287.5156,201.4063 287.5156,198.2813 Q287.5156,195.1563 288.8281,193.5 Q290.1563,191.8438 292.6563,191.8438 Q293.3594,191.8438 294,192 Q294.6563,192.1563 295.2188,192.4531 L295.2188,195.1719 Q294.5938,194.5938 294,194.3281 Q293.4063,194.0469 292.7813,194.0469 Q291.4375,194.0469 290.75,195.125 Q290.0625,196.1875 290.0625,198.2813 Q290.0625,200.375 290.75,201.4531 Q291.4375,202.5156 292.7813,202.5156 Q293.4063,202.5156 294,202.25 Q294.5938,201.9688 295.2188,201.3906 L295.2188,204.1094 Z "/><text fill="#000000" font-family="sans-serif" font-size="12" font-style="italic" lengthAdjust="spacingAndGlyphs" textLength="46" x="327.25" y="195.6387">«table»</text><text fill="#000000" font-family="sans-serif" font-size="12" lengthAdjust="spacingAndGlyphs" textLength="85" x="307.75" y="209.6074">media_carrier</text><line style="stroke: #A80036; stroke-width: 1.5;" x1="271.5" x2="401.5" y1="217.4375" y2="217.4375"/><text fill="#000000" font-family="sans-serif" font-size="11" lengthAdjust="spacingAndGlyphs" textLength="77" x="276.5" y="231.6479">id: UUID «PK»</text><text fill="#000000" font-family="sans-serif" font-size="11" lengthAdjust="spacingAndGlyphs" textLength="120" x="276.5" y="244.4526">edition_id: UUID «FK»</text><text fill="#000000" font-family="sans-serif" font-size="11" lengthAdjust="spacingAndGlyphs" textLength="63" x="276.5" y="257.2573">title: TEXT?</text><text fill="#000000" font-family="sans-serif" font-size="11" lengthAdjust="spacingAndGlyphs" textLength="60" x="276.5" y="270.062">type: TEXT</text><line style="stroke: #A80036; stroke-width: 1.5;" x1="271.5" x2="401.5" y1="276.6563" y2="276.6563"/><!--MD5=[b5aa4a27f645408602673744568687d4]
class disc_carrier--><rect fill="#FEFECE" filter="url(#f41abtnm2qsw8)" height="79.5469" id="disc_carrier" style="stroke: #A80036; stroke-width: 1.5;" width="205" x="17" y="363.5"/><ellipse cx="79.25" cy="382.4688" fill="#ADD1B2" rx="11" ry="11" style="stroke: #A80036; stroke-width: 1.0;"/><path d="M82.2188,388.1094 Q81.6406,388.4063 81,388.5469 Q80.3594,388.7031 79.6563,388.7031 Q77.1563,388.7031 75.8281,387.0625 Q74.5156,385.4063 74.5156,382.2813 Q74.5156,379.1563 75.8281,377.5 Q77.1563,375.8438 79.6563,375.8438 Q80.3594,375.8438 81,376 Q81.6563,376.1563 82.2188,376.4531 L82.2188,379.1719 Q81.5938,378.5938 81,378.3281 Q80.4063,378.0469 79.7813,378.0469 Q78.4375,378.0469 77.75,379.125 Q77.0625,380.1875 77.0625,382.2813 Q77.0625,384.375 77.75,385.4531 Q78.4375,386.5156 79.7813,386.5156 Q80.4063,386.5156 81,386.25 Q81.5938,385.9688 82.2188,385.3906 L82.2188,388.1094 Z "/><text fill="#000000" font-family="sans-serif" font-size="12" font-style="italic" lengthAdjust="spacingAndGlyphs" textLength="46" x="112.75" y="379.6387">«table»</text><text fill="#000000" font-family="sans-serif" font-size="12" lengthAdjust="spacingAndGlyphs" textLength="72" x="99.75" y="393.6074">disc_carrier</text><line style="stroke: #A80036; stroke-width: 1.5;" x1="18" x2="221" y1="401.4375" y2="401.4375"/><text fill="#000000" font-family="sans-serif" font-size="11" lengthAdjust="spacingAndGlyphs" textLength="193" x="23" y="415.6479">media_carrier_id: UUID «PK» «FK»</text><text fill="#000000" font-family="sans-serif" font-size="11" lengthAdjust="spacingAndGlyphs" textLength="112" x="23" y="428.4526">disc_type: DiscType</text><line style="stroke: #A80036; stroke-width: 1.5;" x1="18" x2="221" y1="435.0469" y2="435.0469"/><!--MD5=[9ec3d9a91ec24df708e3acc9e86ec9c6]
class disc_region_code--><rect fill="#FEFECE" filter="url(#f41abtnm2qsw8)" height="92.3516" id="disc_region_code" style="stroke: #A80036; stroke-width: 1.5;" width="227" x="6" y="516"/><ellipse cx="61.25" cy="534.9688" fill="#ADD1B2" rx="11" ry="11" style="stroke: #A80036; stroke-width: 1.0;"/><path d="M64.2188,540.6094 Q63.6406,540.9063 63,541.0469 Q62.3594,541.2031 61.6563,541.2031 Q59.1563,541.2031 57.8281,539.5625 Q56.5156,537.9063 56.5156,534.7813 Q56.5156,531.6563 57.8281,530 Q59.1563,528.3438 61.6563,528.3438 Q62.3594,528.3438 63,528.5 Q63.6563,528.6563 64.2188,528.9531 L64.2188,531.6719 Q63.5938,531.0938 63,530.8281 Q62.4063,530.5469 61.7813,530.5469 Q60.4375,530.5469 59.75,531.625 Q59.0625,532.6875 59.0625,534.7813 Q59.0625,536.875 59.75,537.9531 Q60.4375,539.0156 61.7813,539.0156 Q62.4063,539.0156 63,538.75 Q63.5938,538.4688 64.2188,537.8906 L64.2188,540.6094 Z "/><text fill="#000000" font-family="sans-serif" font-size="12" font-style="italic" lengthAdjust="spacingAndGlyphs" textLength="46" x="112.75" y="532.1387">«table»</text><text fill="#000000" font-family="sans-serif" font-size="12" lengthAdjust="spacingAndGlyphs" textLength="108" x="81.75" y="546.1074">disc_region_code</text><line style="stroke: #A80036; stroke-width: 1.5;" x1="7" x2="232" y1="553.9375" y2="553.9375"/><text fill="#000000" font-family="sans-serif" font-size="11" lengthAdjust="spacingAndGlyphs" textLength="149" x="12" y="568.1479">disc_carrier_id: UUID «FK»</text><text fill="#000000" font-family="sans-serif" font-size="11" lengthAdjust="spacingAndGlyphs" textLength="144" x="12" y="580.9526">region_code: RegionCode</text><line style="stroke: #A80036; stroke-width: 1.0;" x1="7" x2="232" y1="587.5469" y2="587.5469"/><text fill="#000000" font-family="sans-serif" font-size="11" lengthAdjust="spacingAndGlyphs" textLength="215" x="12" y="601.7573">PRIMARY(disc_carrier_id, region_code)</text><!--MD5=[bca748826b8700d7ab4630271dc5b262]
class digital_carrier--><rect fill="#FEFECE" filter="url(#f41abtnm2qsw8)" height="92.3516" id="digital_carrier" style="stroke: #A80036; stroke-width: 1.5;" width="205" x="257" y="357.5"/><ellipse cx="312.75" cy="376.4688" fill="#ADD1B2" rx="11" ry="11" style="stroke: #A80036; stroke-width: 1.0;"/><path d="M315.7188,382.1094 Q315.1406,382.4063 314.5,382.5469 Q313.8594,382.7031 313.1563,382.7031 Q310.6563,382.7031 309.3281,381.0625 Q308.0156,379.4063 308.0156,376.2813 Q308.0156,373.1563 309.3281,371.5 Q310.6563,369.8438 313.1563,369.8438 Q313.8594,369.8438 314.5,370 Q315.1563,370.1563 315.7188,370.4531 L315.7188,373.1719 Q315.0938,372.5938 314.5,372.3281 Q313.9063,372.0469 313.2813,372.0469 Q311.9375,372.0469 311.25,373.125 Q310.5625,374.1875 310.5625,376.2813 Q310.5625,378.375 311.25,379.4531 Q311.9375,380.5156 313.2813,380.5156 Q313.9063,380.5156 314.5,380.25 Q315.0938,379.9688 315.7188,379.3906 L315.7188,382.1094 Z "/><text fill="#000000" font-family="sans-serif" font-size="12" font-style="italic" lengthAdjust="spacingAndGlyphs" textLength="46" x="352.75" y="373.6387">«table»</text><text fill="#000000" font-family="sans-serif" font-size="12" lengthAdjust="spacingAndGlyphs" textLength="85" x="333.25" y="387.6074">digital_carrier</text><line style="stroke: #A80036; stroke-width: 1.5;" x1="258" x2="461" y1="395.4375" y2="395.4375"/><text fill="#000000" font-family="sans-serif" font-size="11" lengthAdjust="spacingAndGlyphs" textLength="193" x="263" y="409.6479">media_carrier_id: UUID «PK» «FK»</text><text fill="#000000" font-family="sans-serif" font-size="11" lengthAdjust="spacingAndGlyphs" textLength="134" x="263" y="422.4526">digital_type: DigitalType</text><text fill="#000000" font-family="sans-serif" font-size="11" lengthAdjust="spacingAndGlyphs" textLength="90" x="263" y="435.2573">platform: TEXT?</text><line style="stroke: #A80036; stroke-width: 1.5;" x1="258" x2="461" y1="441.8516" y2="441.8516"/><!--MD5=[e14bf1f343dea6e8f9dfbbd32d43353e]
class media_carrier_content--><rect fill="#FEFECE" filter="url(#f41abtnm2qsw8)" height="105.1563" id="media_carrier_content" style="stroke: #A80036; stroke-width: 1.5;" width="228" x="542.5" y="351"/><ellipse cx="582.7" cy="369.9688" fill="#ADD1B2" rx="11" ry="11" style="stroke: #A80036; stroke-width: 1.0;"/><path d="M585.6688,375.6094 Q585.0906,375.9063 584.45,376.0469 Q583.8094,376.2031 583.1063,376.2031 Q580.6063,376.2031 579.2781,374.5625 Q577.9656,372.9063 577.9656,369.7813 Q577.9656,366.6563 579.2781,365 Q580.6063,363.3438 583.1063,363.3438 Q583.8094,363.3438 584.45,363.5 Q585.1063,363.6563 585.6688,363.9531 L585.6688,366.6719 Q585.0438,366.0938 584.45,365.8281 Q583.8563,365.5469 583.2313,365.5469 Q581.8875,365.5469 581.2,366.625 Q580.5125,367.6875 580.5125,369.7813 Q580.5125,371.875 581.2,372.9531 Q581.8875,374.0156 583.2313,374.0156 Q583.8563,374.0156 584.45,373.75 Q585.0438,373.4688 585.6688,372.8906 L585.6688,375.6094 Z "/><text fill="#000000" font-family="sans-serif" font-size="12" font-style="italic" lengthAdjust="spacingAndGlyphs" textLength="46" x="649.3" y="367.1387">«table»</text><text fill="#000000" font-family="sans-serif" font-size="12" lengthAdjust="spacingAndGlyphs" textLength="140" x="602.3" y="381.1074">media_carrier_content</text><line style="stroke: #A80036; stroke-width: 1.5;" x1="543.5" x2="769.5" y1="388.9375" y2="388.9375"/><text fill="#000000" font-family="sans-serif" font-size="11" lengthAdjust="spacingAndGlyphs" textLength="161" x="548.5" y="403.1479">media_carrier_id: UUID «FK»</text><text fill="#000000" font-family="sans-serif" font-size="11" lengthAdjust="spacingAndGlyphs" textLength="124" x="548.5" y="415.9526">content_id: UUID «FK»</text><text fill="#000000" font-family="sans-serif" font-size="11" lengthAdjust="spacingAndGlyphs" textLength="85" x="548.5" y="428.7573">sort_index: INT</text><line style="stroke: #A80036; stroke-width: 1.0;" x1="543.5" x2="769.5" y1="435.3516" y2="435.3516"/><text fill="#000000" font-family="sans-serif" font-size="11" lengthAdjust="spacingAndGlyphs" textLength="216" x="548.5" y="449.562">PRIMARY(media_carrier_id, content_id)</text><!--MD5=[a46658d446b05034c23a4bc1a7db0e1a]
class media_work--><rect fill="#FEFECE" filter="url(#f41abtnm2qsw8)" height="48" id="media_work" style="stroke: #A80036; stroke-width: 1.5;" width="105" x="76" y="36.5"/><ellipse cx="91" cy="52.5" fill="#ADD1B2" rx="11" ry="11" style="stroke: #A80036; stroke-width: 1.0;"/><path d="M93.9688,58.1406 Q93.3906,58.4375 92.75,58.5781 Q92.1094,58.7344 91.4063,58.7344 Q88.9063,58.7344 87.5781,57.0938 Q86.2656,55.4375 86.2656,52.3125 Q86.2656,49.1875 87.5781,47.5313 Q88.9063,45.875 91.4063,45.875 Q92.1094,45.875 92.75,46.0313 Q93.4063,46.1875 93.9688,46.4844 L93.9688,49.2031 Q93.3438,48.625 92.75,48.3594 Q92.1563,48.0781 91.5313,48.0781 Q90.1875,48.0781 89.5,49.1563 Q88.8125,50.2188 88.8125,52.3125 Q88.8125,54.4063 89.5,55.4844 Q90.1875,56.5469 91.5313,56.5469 Q92.1563,56.5469 92.75,56.2813 Q93.3438,56 93.9688,55.4219 L93.9688,58.1406 Z "/><text fill="#000000" font-family="sans-serif" font-size="12" lengthAdjust="spacingAndGlyphs" textLength="73" x="105" y="56.6543">media_work</text><line style="stroke: #A80036; stroke-width: 1.5;" x1="77" x2="180" y1="68.5" y2="68.5"/><line style="stroke: #A80036; stroke-width: 1.5;" x1="77" x2="180" y1="76.5" y2="76.5"/><!--MD5=[48f574f03aa9f209c3e6ebb00fc1f351]
class content--><rect fill="#FEFECE" filter="url(#f41abtnm2qsw8)" height="48" id="content" style="stroke: #A80036; stroke-width: 1.5;" width="81" x="564" y="36.5"/><ellipse cx="579" cy="52.5" fill="#ADD1B2" rx="11" ry="11" style="stroke: #A80036; stroke-width: 1.0;"/><path d="M581.9688,58.1406 Q581.3906,58.4375 580.75,58.5781 Q580.1094,58.7344 579.4063,58.7344 Q576.9063,58.7344 575.5781,57.0938 Q574.2656,55.4375 574.2656,52.3125 Q574.2656,49.1875 575.5781,47.5313 Q576.9063,45.875 579.4063,45.875 Q580.1094,45.875 580.75,46.0313 Q581.4063,46.1875 581.9688,46.4844 L581.9688,49.2031 Q581.3438,48.625 580.75,48.3594 Q580.1563,48.0781 579.5313,48.0781 Q578.1875,48.0781 577.5,49.1563 Q576.8125,50.2188 576.8125,52.3125 Q576.8125,54.4063 577.5,55.4844 Q578.1875,56.5469 579.5313,56.5469 Q580.1563,56.5469 580.75,56.2813 Q581.3438,56 581.9688,55.4219 L581.9688,58.1406 Z "/><text fill="#000000" font-family="sans-serif" font-size="12" lengthAdjust="spacingAndGlyphs" textLength="49" x="593" y="56.6543">content</text><line style="stroke: #A80036; stroke-width: 1.5;" x1="565" x2="644" y1="68.5" y2="68.5"/><line style="stroke: #A80036; stroke-width: 1.5;" x1="565" x2="644" y1="76.5" y2="76.5"/><!--MD5=[adc2e659898eb8442824abc5432c035e]
reverse link edition to edition_media_work--><path d="M269.28,116.28 C244.41,136.54 216.32,159.43 191.81,179.41 " fill="none" id="edition&lt;-edition_media_work" style="stroke: #A80036; stroke-width: 1.0;"/><polygon fill="#A80036" points="273.25,113.05,263.753,115.659,269.3821,116.2185,268.8226,121.8476,273.25,113.05" style="stroke: #A80036; stroke-width: 1.0;"/><text fill="#000000" font-family="sans-serif" font-size="13" lengthAdjust="spacingAndGlyphs" textLength="8" x="256.2133" y="133.1845">1</text><text fill="#000000" font-family="sans-serif" font-size="13" lengthAdjust="spacingAndGlyphs" textLength="16" x="183.2423" y="168.4007">0..</text><!--MD5=[68f60ab505d5801b9ae794ad6398252f]
reverse link edition to edition_content--><path d="M399.65,116.39 C420.43,134.45 443.6,154.59 464.64,172.88 " fill="none" id="edition&lt;-edition_content" style="stroke: #A80036; stroke-width: 1.0;"/><polygon fill="#A80036" points="395.8,113.05,399.9776,121.9689,399.577,116.3263,405.2197,115.9257,395.8,113.05" style="stroke: #A80036; stroke-width: 1.0;"/><text fill="#000000" font-family="sans-serif" font-size="13" lengthAdjust="spacingAndGlyphs" textLength="8" x="395.2309" y="133.1845">1</text><text fill="#000000" font-family="sans-serif" font-size="13" lengthAdjust="spacingAndGlyphs" textLength="23" x="432.0899" y="161.8381">0..*</text><!--MD5=[f56ffbe7abb043d00d5a48a5df3a1c51]
reverse link edition to media_carrier--><path d="M336.5,118.49 C336.5,138.14 336.5,160.04 336.5,179.25 " fill="none" id="edition&lt;-media_carrier" style="stroke: #A80036; stroke-width: 1.0;"/><polygon fill="#A80036" points="336.5,113.28,332.5,122.28,336.5,118.28,340.5,122.28,336.5,113.28" style="stroke: #A80036; stroke-width: 1.0;"/><text fill="#000000" font-family="sans-serif" font-size="13" lengthAdjust="spacingAndGlyphs" textLength="8" x="327.9875" y="133.0688">1</text><text fill="#000000" font-family="sans-serif" font-size="13" lengthAdjust="spacingAndGlyphs" textLength="23" x="312.0266" y="168.5959">0..*</text><!--MD5=[cfa0e586690d5262c44405605aeb05ee]
reverse link media_carrier to disc_carrier--><path d="M266.3,287.84 C234.8,312.44 198.37,340.9 169.67,363.31 " fill="none" id="media_carrier&lt;-disc_carrier" style="stroke: #A80036; stroke-width: 1.0;"/><polygon fill="#A80036" points="270.51,284.55,260.9572,286.9468,266.5725,287.6315,265.8877,293.2468,270.51,284.55" style="stroke: #A80036; stroke-width: 1.0;"/><text fill="#000000" font-family="sans-serif" font-size="13" lengthAdjust="spacingAndGlyphs" textLength="8" x="254.4174" y="286.8244">1</text><text fill="#000000" font-family="sans-serif" font-size="13" lengthAdjust="spacingAndGlyphs" textLength="8" x="169.3169" y="352.5268">1</text><!--MD5=[6ead2a843e86a8ef998f2cf0bfb9c395]
reverse link disc_carrier to disc_region_code--><path d="M119.5,448.82 C119.5,469.76 119.5,494.71 119.5,515.76 " fill="none" id="disc_carrier&lt;-disc_region_code" style="stroke: #A80036; stroke-width: 1.0;"/><polygon fill="#A80036" points="119.5,443.59,115.5,452.59,119.5,448.59,123.5,452.59,119.5,443.59" style="stroke: #A80036; stroke-width: 1.0;"/><text fill="#000000" font-family="sans-serif" font-size="13" lengthAdjust="spacingAndGlyphs" textLength="8" x="110.8875" y="462.989">1</text><text fill="#000000" font-family="sans-serif" font-size="13" lengthAdjust="spacingAndGlyphs" textLength="23" x="94.8109" y="504.9178">0..*</text><!--MD5=[8529e9a51ac23689407a71af4a2d0a62]
reverse link media_carrier to digital_carrier--><path d="M344.23,290 C347.21,311.94 350.57,336.67 353.37,357.35 " fill="none" id="media_carrier&lt;-digital_carrier" style="stroke: #A80036; stroke-width: 1.0;"/><polygon fill="#A80036" points="343.53,284.78,340.7742,294.2354,344.2011,289.7348,348.7018,293.1617,343.53,284.78" style="stroke: #A80036; stroke-width: 1.0;"/><text fill="#000000" font-family="sans-serif" font-size="13" lengthAdjust="spacingAndGlyphs" textLength="8" x="335.9182" y="304.5688">1</text><text fill="#000000" font-family="sans-serif" font-size="13" lengthAdjust="spacingAndGlyphs" textLength="8" x="343.8822" y="346.521">1</text><!--MD5=[769ffdb25e5331a519aec4a2983ff6b8]
reverse link media_carrier to media_carrier_content--><path d="M407.24,283.03 C411.68,285.8 416.12,288.48 420.5,291 C459.17,313.29 503.02,334.93 542.34,353.13 " fill="none" id="media_carrier&lt;-media_carrier_content" style="stroke: #A80036; stroke-width: 1.0;"/><polygon fill="#A80036" points="402.8,280.23,408.2724,288.4186,407.0271,282.9005,412.5452,281.6552,402.8,280.23" style="stroke: #A80036; stroke-width: 1.0;"/><text fill="#000000" font-family="sans-serif" font-size="13" lengthAdjust="spacingAndGlyphs" textLength="8" x="410.4891" y="281.7505">1</text><text fill="#000000" font-family="sans-serif" font-size="13" lengthAdjust="spacingAndGlyphs" textLength="23" x="511.6826" y="346.6697">0..*</text><!--MD5=[f3fed279389eea6d9249153693a34eb7]
reverse link media_work to edition_media_work--><path d="M128.5,89.72 C128.5,114.03 128.5,149.76 128.5,179.2 " fill="none" id="media_work&lt;-edition_media_work" style="stroke: #A80036; stroke-width: 1.0;"/><polygon fill="#A80036" points="128.5,84.71,124.5,93.71,128.5,89.71,132.5,93.71,128.5,84.71" style="stroke: #A80036; stroke-width: 1.0;"/><text fill="#000000" font-family="sans-serif" font-size="13" lengthAdjust="spacingAndGlyphs" textLength="8" x="119.525" y="104.5224">1</text><text fill="#000000" font-family="sans-serif" font-size="13" lengthAdjust="spacingAndGlyphs" textLength="16" x="111.475" y="168.5395">0..</text><!--MD5=[106077ea55ce2ee2989b7ea06d5695d5]
reverse link content to edition_content--><path d="M592.5,89.37 C582.77,111.94 568.75,144.51 556.6,172.73 " fill="none" id="content&lt;-edition_content" style="stroke: #A80036; stroke-width: 1.0;"/><polygon fill="#A80036" points="594.5,84.71,587.2531,91.3795,592.5132,89.2983,594.5943,94.5584,594.5,84.71" style="stroke: #A80036; stroke-width: 1.0;"/><text fill="#000000" font-family="sans-serif" font-size="13" lengthAdjust="spacingAndGlyphs" textLength="8" x="583.0875" y="104.5224">1</text><text fill="#000000" font-family="sans-serif" font-size="13" lengthAdjust="spacingAndGlyphs" textLength="23" x="535.1725" y="162.0865">0..*</text><!--MD5=[dc091b631568611dafa1f340b37c6baf]
reverse link content to media_carrier_content--><path d="M616.5,89.79 C625.33,111.99 636.76,143.9 642.5,173 C654.39,233.31 657.04,304.11 657.27,350.96 " fill="none" id="content&lt;-media_carrier_content" style="stroke: #A80036; stroke-width: 1.0;"/><polygon fill="#A80036" points="614.54,84.92,614.1686,94.7619,616.397,89.5624,621.5964,91.7907,614.54,84.92" style="stroke: #A80036; stroke-width: 1.0;"/><text fill="#000000" font-family="sans-serif" font-size="13" lengthAdjust="spacingAndGlyphs" textLength="8" x="607.9368" y="104.3838">1</text><text fill="#000000" font-family="sans-serif" font-size="13" lengthAdjust="spacingAndGlyphs" textLength="23" x="632.8282" y="339.9574">0..*</text><!--MD5=[a83871a46a0420eb701caa3829ada9fe]
@startuml
skinparam classAttributeIconSize 0

class edition <<table>> {
    id: UUID <<PK>>
    title: TEXT
    release_date: DATE
    packaging: MediaPackaging?
}

class edition_media_work <<table>> {
    edition_id: UUID <<FK>>
    media_work_id: UUID <<FK>>
    sort_index: INT
    - -
    PRIMARY(edition_id, media_work_id)
}

edition "1" <- - "0.." edition_media_work

class edition_content <<table>> {
    edition_id: UUID <<FK>>
    content_id: UUID <<FK>>
    content_role: ContentRole
    sort_index: INT
    - -
    PRIMARY(edition_id, content_id)
}

edition "1" <- - "0..*" edition_content

class media_carrier <<table>> {
    id: UUID <<PK>>
    edition_id: UUID <<FK>>
    title: TEXT?
    type: TEXT
}

edition "1" <- - "0..*" media_carrier

class disc_carrier <<table>> {
    media_carrier_id: UUID <<PK>> <<FK>>
    disc_type: DiscType
}

media_carrier "1" <- - "1" disc_carrier

class disc_region_code <<table>> {
    disc_carrier_id: UUID <<FK>>
    region_code: RegionCode
    - -
    PRIMARY(disc_carrier_id, region_code)
}

disc_carrier "1" <- - "0..*" disc_region_code

class digital_carrier <<table>> {
    media_carrier_id: UUID <<PK>> <<FK>>
    digital_type: DigitalType
    platform: TEXT?
}

media_carrier "1" <- - "1" digital_carrier

class media_carrier_content <<table>> {
    media_carrier_id: UUID <<FK>>
    content_id: UUID <<FK>>
    sort_index: INT
    - -
    PRIMARY(media_carrier_id, content_id)
}

media_carrier "1" <- - "0..*" media_carrier_content

media_work "1" <- - "0.." edition_media_work
content "1" <- - "0..*" edition_content
content "1" <- - "0..*" media_carrier_content

@enduml

PlantUML version 1.2020.02(Sun Mar 01 10:22:07 UTC 2020)
(GPL source distribution)
Java Runtime: OpenJDK Runtime Environment
JVM: OpenJDK 64-Bit Server VM
Java Version: 17.0.18+8
Operating System: Linux
Default Encoding: UTF-8
Language: en
Country: null
--></g></svg>