<?xml version="1.0" encoding="UTF-8" standalone="no"?><svg xmlns="http://www.w3.org/2000/svg" xmlns:xlink="http://www.w3.org/1999/xlink" contentScriptType="application/ecmascript" contentStyleType="text/css" height="606px" preserveAspectRatio="none" style="width:539px;height:606px;" version="1.1" viewBox="0 0 539 606" width="539px" zoomAndPan="magnify"><defs><filter height="300%" id="fr2t4tsjd34j5" width="300%" x="-1" y="-1"><feGaussianBlur result="blurOut" stdDeviation="2.0"/><feColorMatrix in="blurOut" result="blurOut2" type="matrix" values="0 0 0 0 0 0 0 0 0 0 0 0 0 0 0 0 0 0 .4 0"/><feOffset dx="4.0" dy="4.0" in="blurOut2" result="blurOut3"/><feBlend in="SourceGraphic" in2="blurOut3" mode="normal"/></filter></defs><g><!--MD5=[1e263bdf071388f27938ecfce413abc6]
class edition--><rect fill="#FEFECE" filter="url(#fr2t4tsjd34j5)" height="105.1563" id="edition" style="stroke: #A80036; stroke-width: 1.5;" width="123" x="207" y="8"/><ellipse cx="243.6" cy="26.9688" fill="#ADD1B2" rx="11" ry="11" style="stroke: #A80036; stroke-width: 1.0;"/><path d="M246.5688,32.6094 Q245.9906,32.9063 245.35,33.0469 Q244.7094,33.2031 244.0063,33.2031 Q241.5063,33.2031 240.1781,31.5625 Q238.8656,29.9063 238.8656,26.7813 Q238.8656,23.6563 240.1781,22 Q241.5063,20.3438 244.0063,20.3438 Q244.7094,20.3438 245.35,20.5 Q246.0063,20.6563 246.5688,20.9531 L246.5688,23.6719 Q245.9438,23.0938 245.35,22.8281 Q244.7563,22.5469 244.1313,22.5469 Q242.7875,22.5469 242.1,23.625 Q241.4125,24.6875 241.4125,26.7813 Q241.4125,28.875 242.1,29.9531 Q242.7875,31.0156 244.1313,31.0156 Q244.7563,31.0156 245.35,30.75 Q245.9438,30.4688 246.5688,29.8906 L246.5688,32.6094 Z "/><text fill="#000000" font-family="sans-serif" font-size="12" font-style="italic" lengthAdjust="spacingAndGlyphs" textLength="46" x="260.9" y="24.1387">«table»</text><text fill="#000000" font-family="sans-serif" font-size="12" lengthAdjust="spacingAndGlyphs" textLength="43" x="262.4" y="38.1074">edition</text><line style="stroke: #A80036; stroke-width: 1.5;" x1="208" x2="329" y1="45.9375" y2="45.9375"/><text fill="#000000" font-family="sans-serif" font-size="11" lengthAdjust="spacingAndGlyphs" textLength="77" x="213" y="60.1479">id: UUID «PK»</text><text fill="#000000" font-family="sans-serif" font-size="11" lengthAdjust="spacingAndGlyphs" textLength="57" x="213" y="72.9526">title: TEXT</text><text fill="#000000" font-family="sans-serif" font-size="11" lengthAdjust="spacingAndGlyphs" textLength="111" x="213" y="85.7573">release_date: DATE</text><text fill="#000000" font-family="sans-serif" font-size="11" lengthAdjust="spacingAndGlyphs" textLength="93" x="213" y="98.562">packaging: TEXT</text><line style="stroke: #A80036; stroke-width: 1.5;" x1="208" x2="329" y1="105.1563" y2="105.1563"/><!--MD5=[8537b7f674f0e962e6c5322c17d5d58c]
class media_carrier--><rect fill="#FEFECE" filter="url(#fr2t4tsjd34j5)" height="92.3516" id="media_carrier" style="stroke: #A80036; stroke-width: 1.5;" width="132" x="173.5" y="186"/><ellipse cx="195.25" cy="204.9688" fill="#ADD1B2" rx="11" ry="11" style="stroke: #A80036; stroke-width: 1.0;"/><path d="M198.2188,210.6094 Q197.6406,210.9063 197,211.0469 Q196.3594,211.2031 195.6563,211.2031 Q193.1563,211.2031 191.8281,209.5625 Q190.5156,207.9063 190.5156,204.7813 Q190.5156,201.6563 191.8281,200 Q193.1563,198.3438 195.6563,198.3438 Q196.3594,198.3438 197,198.5 Q197.6563,198.6563 198.2188,198.9531 L198.2188,201.6719 Q197.5938,201.0938 197,200.8281 Q196.4063,200.5469 195.7813,200.5469 Q194.4375,200.5469 193.75,201.625 Q193.0625,202.6875 193.0625,204.7813 Q193.0625,206.875 193.75,207.9531 Q194.4375,209.0156 195.7813,209.0156 Q196.4063,209.0156 197,208.75 Q197.5938,208.4688 198.2188,207.8906 L198.2188,210.6094 Z "/><text fill="#000000" font-family="sans-serif" font-size="12" font-style="italic" lengthAdjust="spacingAndGlyphs" textLength="46" x="230.25" y="202.1387">«table»</text><text fill="#000000" font-family="sans-serif" font-size="12" lengthAdjust="spacingAndGlyphs" textLength="85" x="210.75" y="216.1074">media_carrier</text><line style="stroke: #A80036; stroke-width: 1.5;" x1="174.5" x2="304.5" y1="223.9375" y2="223.9375"/><text fill="#000000" font-family="sans-serif" font-size="11" lengthAdjust="spacingAndGlyphs" textLength="77" x="179.5" y="238.1479">id: UUID «PK»</text><text fill="#000000" font-family="sans-serif" font-size="11" lengthAdjust="spacingAndGlyphs" textLength="120" x="179.5" y="250.9526">edition_id: UUID «FK»</text><text fill="#000000" font-family="sans-serif" font-size="11" lengthAdjust="spacingAndGlyphs" textLength="57" x="179.5" y="263.7573">title: TEXT</text><line style="stroke: #A80036; stroke-width: 1.5;" x1="174.5" x2="304.5" y1="270.3516" y2="270.3516"/><!--MD5=[b5aa4a27f645408602673744568687d4]
class disc_carrier--><rect fill="#FEFECE" filter="url(#fr2t4tsjd34j5)" height="79.5469" id="disc_carrier" style="stroke: #A80036; stroke-width: 1.5;" width="205" x="17" y="357"/><ellipse cx="79.25" cy="375.9688" fill="#ADD1B2" rx="11" ry="11" style="stroke: #A80036; stroke-width: 1.0;"/><path d="M82.2188,381.6094 Q81.6406,381.9063 81,382.0469 Q80.3594,382.2031 79.6563,382.2031 Q77.1563,382.2031 75.8281,380.5625 Q74.5156,378.9063 74.5156,375.7813 Q74.5156,372.6563 75.8281,371 Q77.1563,369.3438 79.6563,369.3438 Q80.3594,369.3438 81,369.5 Q81.6563,369.6563 82.2188,369.9531 L82.2188,372.6719 Q81.5938,372.0938 81,371.8281 Q80.4063,371.5469 79.7813,371.5469 Q78.4375,371.5469 77.75,372.625 Q77.0625,373.6875 77.0625,375.7813 Q77.0625,377.875 77.75,378.9531 Q78.4375,380.0156 79.7813,380.0156 Q80.4063,380.0156 81,379.75 Q81.5938,379.4688 82.2188,378.8906 L82.2188,381.6094 Z "/><text fill="#000000" font-family="sans-serif" font-size="12" font-style="italic" lengthAdjust="spacingAndGlyphs" textLength="46" x="112.75" y="373.1387">«table»</text><text fill="#000000" font-family="sans-serif" font-size="12" lengthAdjust="spacingAndGlyphs" textLength="72" x="99.75" y="387.1074">disc_carrier</text><line style="stroke: #A80036; stroke-width: 1.5;" x1="18" x2="221" y1="394.9375" y2="394.9375"/><text fill="#000000" font-family="sans-serif" font-size="11" lengthAdjust="spacingAndGlyphs" textLength="193" x="23" y="409.1479">media_carrier_id: UUID «PK» «FK»</text><text fill="#000000" font-family="sans-serif" font-size="11" lengthAdjust="spacingAndGlyphs" textLength="89" x="23" y="421.9526">disc_type: TEXT</text><line style="stroke: #A80036; stroke-width: 1.5;" x1="18" x2="221" y1="428.5469" y2="428.5469"/><!--MD5=[9ec3d9a91ec24df708e3acc9e86ec9c6]
class disc_region_code--><rect fill="#FEFECE" filter="url(#fr2t4tsjd34j5)" height="92.3516" id="disc_region_code" style="stroke: #A80036; stroke-width: 1.5;" width="227" x="6" y="503"/><ellipse cx="61.25" cy="521.9688" fill="#ADD1B2" rx="11" ry="11" style="stroke: #A80036; stroke-width: 1.0;"/><path d="M64.2188,527.6094 Q63.6406,527.9063 63,528.0469 Q62.3594,528.2031 61.6563,528.2031 Q59.1563,528.2031 57.8281,526.5625 Q56.5156,524.9063 56.5156,521.7813 Q56.5156,518.6563 57.8281,517 Q59.1563,515.3438 61.6563,515.3438 Q62.3594,515.3438 63,515.5 Q63.6563,515.6563 64.2188,515.9531 L64.2188,518.6719 Q63.5938,518.0938 63,517.8281 Q62.4063,517.5469 61.7813,517.5469 Q60.4375,517.5469 59.75,518.625 Q59.0625,519.6875 59.0625,521.7813 Q59.0625,523.875 59.75,524.9531 Q60.4375,526.0156 61.7813,526.0156 Q62.4063,526.0156 63,525.75 Q63.5938,525.4688 64.2188,524.8906 L64.2188,527.6094 Z "/><text fill="#000000" font-family="sans-serif" font-size="12" font-style="italic" lengthAdjust="spacingAndGlyphs" textLength="46" x="112.75" y="519.1387">«table»</text><text fill="#000000" font-family="sans-serif" font-size="12" lengthAdjust="spacingAndGlyphs" textLength="108" x="81.75" y="533.1074">disc_region_code</text><line style="stroke: #A80036; stroke-width: 1.5;" x1="7" x2="232" y1="540.9375" y2="540.9375"/><text fill="#000000" font-family="sans-serif" font-size="11" lengthAdjust="spacingAndGlyphs" textLength="149" x="12" y="555.1479">disc_carrier_id: UUID «FK»</text><text fill="#000000" font-family="sans-serif" font-size="11" lengthAdjust="spacingAndGlyphs" textLength="105" x="12" y="567.9526">region_code: TEXT</text><line style="stroke: #A80036; stroke-width: 1.0;" x1="7" x2="232" y1="574.5469" y2="574.5469"/><text fill="#000000" font-family="sans-serif" font-size="11" lengthAdjust="spacingAndGlyphs" textLength="215" x="12" y="588.7573">PRIMARY(disc_carrier_id, region_code)</text><!--MD5=[bca748826b8700d7ab4630271dc5b262]
class digital_carrier--><rect fill="#FEFECE" filter="url(#fr2t4tsjd34j5)" height="92.3516" id="digital_carrier" style="stroke: #A80036; stroke-width: 1.5;" width="205" x="257" y="351"/><ellipse cx="312.75" cy="369.9688" fill="#ADD1B2" rx="11" ry="11" style="stroke: #A80036; stroke-width: 1.0;"/><path d="M315.7188,375.6094 Q315.1406,375.9063 314.5,376.0469 Q313.8594,376.2031 313.1563,376.2031 Q310.6563,376.2031 309.3281,374.5625 Q308.0156,372.9063 308.0156,369.7813 Q308.0156,366.6563 309.3281,365 Q310.6563,363.3438 313.1563,363.3438 Q313.8594,363.3438 314.5,363.5 Q315.1563,363.6563 315.7188,363.9531 L315.7188,366.6719 Q315.0938,366.0938 314.5,365.8281 Q313.9063,365.5469 313.2813,365.5469 Q311.9375,365.5469 311.25,366.625 Q310.5625,367.6875 310.5625,369.7813 Q310.5625,371.875 311.25,372.9531 Q311.9375,374.0156 313.2813,374.0156 Q313.9063,374.0156 314.5,373.75 Q315.0938,373.4688 315.7188,372.8906 L315.7188,375.6094 Z "/><text fill="#000000" font-family="sans-serif" font-size="12" font-style="italic" lengthAdjust="spacingAndGlyphs" textLength="46" x="352.75" y="367.1387">«table»</text><text fill="#000000" font-family="sans-serif" font-size="12" lengthAdjust="spacingAndGlyphs" textLength="85" x="333.25" y="381.1074">digital_carrier</text><line style="stroke: #A80036; stroke-width: 1.5;" x1="258" x2="461" y1="388.9375" y2="388.9375"/><text fill="#000000" font-family="sans-serif" font-size="11" lengthAdjust="spacingAndGlyphs" textLength="193" x="263" y="403.1479">media_carrier_id: UUID «PK» «FK»</text><text fill="#000000" font-family="sans-serif" font-size="11" lengthAdjust="spacingAndGlyphs" textLength="100" x="263" y="415.9526">digital_type: TEXT</text><text fill="#000000" font-family="sans-serif" font-size="11" lengthAdjust="spacingAndGlyphs" textLength="84" x="263" y="428.7573">platform: TEXT</text><line style="stroke: #A80036; stroke-width: 1.5;" x1="258" x2="461" y1="435.3516" y2="435.3516"/><!--MD5=[42003243f0c23e482758681e545ffc31]
class edition_content--><rect fill="#FEFECE" filter="url(#fr2t4tsjd34j5)" height="117.9609" id="edition_content" style="stroke: #A80036; stroke-width: 1.5;" width="187" x="341" y="173"/><ellipse cx="381.65" cy="191.9688" fill="#ADD1B2" rx="11" ry="11" style="stroke: #A80036; stroke-width: 1.0;"/><path d="M384.6188,197.6094 Q384.0406,197.9063 383.4,198.0469 Q382.7594,198.2031 382.0563,198.2031 Q379.5563,198.2031 378.2281,196.5625 Q376.9156,194.9063 376.9156,191.7813 Q376.9156,188.6563 378.2281,187 Q379.5563,185.3438 382.0563,185.3438 Q382.7594,185.3438 383.4,185.5 Q384.0563,185.6563 384.6188,185.9531 L384.6188,188.6719 Q383.9938,188.0938 383.4,187.8281 Q382.8063,187.5469 382.1813,187.5469 Q380.8375,187.5469 380.15,188.625 Q379.4625,189.6875 379.4625,191.7813 Q379.4625,193.875 380.15,194.9531 Q380.8375,196.0156 382.1813,196.0156 Q382.8063,196.0156 383.4,195.75 Q383.9938,195.4688 384.6188,194.8906 L384.6188,197.6094 Z "/><text fill="#000000" font-family="sans-serif" font-size="12" font-style="italic" lengthAdjust="spacingAndGlyphs" textLength="46" x="427.35" y="189.1387">«table»</text><text fill="#000000" font-family="sans-serif" font-size="12" lengthAdjust="spacingAndGlyphs" textLength="98" x="401.35" y="203.1074">edition_content</text><line style="stroke: #A80036; stroke-width: 1.5;" x1="342" x2="527" y1="210.9375" y2="210.9375"/><text fill="#000000" font-family="sans-serif" font-size="11" lengthAdjust="spacingAndGlyphs" textLength="120" x="347" y="225.1479">edition_id: UUID «FK»</text><text fill="#000000" font-family="sans-serif" font-size="11" lengthAdjust="spacingAndGlyphs" textLength="124" x="347" y="237.9526">content_id: UUID «FK»</text><text fill="#000000" font-family="sans-serif" font-size="11" lengthAdjust="spacingAndGlyphs" textLength="161" x="347" y="250.7573">media_carrier_id: UUID «FK»</text><text fill="#000000" font-family="sans-serif" font-size="11" lengthAdjust="spacingAndGlyphs" textLength="106" x="347" y="263.562">content_role: TEXT</text><line style="stroke: #A80036; stroke-width: 1.0;" x1="342" x2="527" y1="270.1563" y2="270.1563"/><text fill="#000000" font-family="sans-serif" font-size="11" lengthAdjust="spacingAndGlyphs" textLength="175" x="347" y="284.3667">PRIMARY(edition_id, content_id)</text><!--MD5=[48f574f03aa9f209c3e6ebb00fc1f351]
class content--><rect fill="#FEFECE" filter="url(#fr2t4tsjd34j5)" height="48" id="content" style="stroke: #A80036; stroke-width: 1.5;" width="81" x="394" y="36.5"/><ellipse cx="409" cy="52.5" fill="#ADD1B2" rx="11" ry="11" style="stroke: #A80036; stroke-width: 1.0;"/><path d="M411.9688,58.1406 Q411.3906,58.4375 410.75,58.5781 Q410.1094,58.7344 409.4063,58.7344 Q406.9063,58.7344 405.5781,57.0938 Q404.2656,55.4375 404.2656,52.3125 Q404.2656,49.1875 405.5781,47.5313 Q406.9063,45.875 409.4063,45.875 Q410.1094,45.875 410.75,46.0313 Q411.4063,46.1875 411.9688,46.4844 L411.9688,49.2031 Q411.3438,48.625 410.75,48.3594 Q410.1563,48.0781 409.5313,48.0781 Q408.1875,48.0781 407.5,49.1563 Q406.8125,50.2188 406.8125,52.3125 Q406.8125,54.4063 407.5,55.4844 Q408.1875,56.5469 409.5313,56.5469 Q410.1563,56.5469 410.75,56.2813 Q411.3438,56 411.9688,55.4219 L411.9688,58.1406 Z "/><text fill="#000000" font-family="sans-serif" font-size="12" lengthAdjust="spacingAndGlyphs" textLength="49" x="423" y="56.6543">content</text><line style="stroke: #A80036; stroke-width: 1.5;" x1="395" x2="474" y1="68.5" y2="68.5"/><line style="stroke: #A80036; stroke-width: 1.5;" x1="395" x2="474" y1="76.5" y2="76.5"/><!--MD5=[f56ffbe7abb043d00d5a48a5df3a1c51]
reverse link edition to media_carrier--><path d="M258.8,118.22 C255.03,140.23 250.78,165.08 247.23,185.85 " fill="none" id="edition&lt;-media_carrier" style="stroke: #A80036; stroke-width: 1.0;"/><polygon fill="#A80036" points="259.64,113.28,254.1801,121.4769,258.7972,118.2085,262.0657,122.8255,259.64,113.28" style="stroke: #A80036; stroke-width: 1.0;"/><text fill="#000000" font-family="sans-serif" font-size="13" lengthAdjust="spacingAndGlyphs" textLength="8" x="249.9923" y="133.0688">1</text><text fill="#000000" font-family="sans-serif" font-size="13" lengthAdjust="spacingAndGlyphs" textLength="23" x="223.6763" y="175.021">0..*</text><!--MD5=[cfa0e586690d5262c44405605aeb05ee]
reverse link media_carrier to disc_carrier--><path d="M203.06,282.5 C185.49,306.37 164.71,334.59 148.27,356.92 " fill="none" id="media_carrier&lt;-disc_carrier" style="stroke: #A80036; stroke-width: 1.0;"/><polygon fill="#A80036" points="206.07,278.4,197.5086,283.2686,203.1021,282.4238,203.9468,288.0173,206.07,278.4" style="stroke: #A80036; stroke-width: 1.0;"/><text fill="#000000" font-family="sans-serif" font-size="13" lengthAdjust="spacingAndGlyphs" textLength="8" x="192.5725" y="298.3674">1</text><text fill="#000000" font-family="sans-serif" font-size="13" lengthAdjust="spacingAndGlyphs" textLength="8" x="144.5273" y="345.8594">1</text><!--MD5=[6ead2a843e86a8ef998f2cf0bfb9c395]
reverse link disc_carrier to disc_region_code--><path d="M119.5,442.31 C119.5,461.37 119.5,483.63 119.5,502.8 " fill="none" id="disc_carrier&lt;-disc_region_code" style="stroke: #A80036; stroke-width: 1.0;"/><polygon fill="#A80036" points="119.5,437.02,115.5,446.02,119.5,442.02,123.5,446.02,119.5,437.02" style="stroke: #A80036; stroke-width: 1.0;"/><text fill="#000000" font-family="sans-serif" font-size="13" lengthAdjust="spacingAndGlyphs" textLength="8" x="110.8625" y="456.7071">1</text><text fill="#000000" font-family="sans-serif" font-size="13" lengthAdjust="spacingAndGlyphs" textLength="23" x="94.8109" y="491.9636">0..*</text><!--MD5=[8529e9a51ac23689407a71af4a2d0a62]
reverse link media_carrier to digital_carrier--><path d="M276.09,282.7 C292.06,304.4 310.67,329.68 326.25,350.84 " fill="none" id="media_carrier&lt;-digital_carrier" style="stroke: #A80036; stroke-width: 1.0;"/><polygon fill="#A80036" points="272.93,278.4,275.0532,288.0173,275.8979,282.4238,281.4914,283.2686,272.93,278.4" style="stroke: #A80036; stroke-width: 1.0;"/><text fill="#000000" font-family="sans-serif" font-size="13" lengthAdjust="spacingAndGlyphs" textLength="8" x="269.2525" y="298.3674">1</text><text fill="#000000" font-family="sans-serif" font-size="13" lengthAdjust="spacingAndGlyphs" textLength="8" x="312.7789" y="340.0095">1</text><!--MD5=[68f60ab505d5801b9ae794ad6398252f]
reverse link edition to edition_content--><path d="M323.12,117.28 C340.54,135.06 359.85,154.78 377.43,172.73 " fill="none" id="edition&lt;-edition_content" style="stroke: #A80036; stroke-width: 1.0;"/><polygon fill="#A80036" points="319.21,113.28,322.6525,122.5076,322.7096,116.8511,328.3662,116.9082,319.21,113.28" style="stroke: #A80036; stroke-width: 1.0;"/><text fill="#000000" font-family="sans-serif" font-size="13" lengthAdjust="spacingAndGlyphs" textLength="8" x="317.1947" y="133.0688">1</text><text fill="#000000" font-family="sans-serif" font-size="13" lengthAdjust="spacingAndGlyphs" textLength="23" x="346.5016" y="162.0865">0..*</text><!--MD5=[106077ea55ce2ee2989b7ea06d5695d5]
reverse link content to edition_content--><path d="M434.5,89.94 C434.5,112.49 434.5,144.75 434.5,172.73 " fill="none" id="content&lt;-edition_content" style="stroke: #A80036; stroke-width: 1.0;"/><polygon fill="#A80036" points="434.5,84.71,430.5,93.71,434.5,89.71,438.5,93.71,434.5,84.71" style="stroke: #A80036; stroke-width: 1.0;"/><text fill="#000000" font-family="sans-serif" font-size="13" lengthAdjust="spacingAndGlyphs" textLength="8" x="425.525" y="104.5224">1</text><text fill="#000000" font-family="sans-serif" font-size="13" lengthAdjust="spacingAndGlyphs" textLength="23" x="410.1703" y="162.0865">0..*</text><!--MD5=[9c9038de2428699c3708e635408bbdf9]
@startuml
skinparam classAttributeIconSize 0

class edition <<table>> {
    id: UUID <<PK>>
    title: TEXT
    release_date: DATE
    packaging: TEXT
}

class media_carrier <<table>> {
    id: UUID <<PK>>
    edition_id: UUID <<FK>>
    title: TEXT
}

edition "1" <- - "0..*" media_carrier

class disc_carrier <<table>> {
    media_carrier_id: UUID <<PK>> <<FK>>
    disc_type: TEXT
}

media_carrier "1" <- - "1" disc_carrier

class disc_region_code <<table>> {
    disc_carrier_id: UUID <<FK>>
    region_code: TEXT
    - -
    PRIMARY(disc_carrier_id, region_code)
}

disc_carrier "1" <- - "0..*" disc_region_code

class digital_carrier <<table>> {
    media_carrier_id: UUID <<PK>> <<FK>>
    digital_type: TEXT
    platform: TEXT
}

media_carrier "1" <- - "1" digital_carrier

class edition_content <<table>> {
    edition_id: UUID <<FK>>
    content_id: UUID <<FK>>
    media_carrier_id: UUID <<FK>>
    content_role: TEXT
    - -
    PRIMARY(edition_id, content_id)
}

edition "1" <- - "0..*" edition_content

content "1" <- - "0..*" edition_content

@enduml

PlantUML version 1.2020.02(Sun Mar 01 10:22:07 UTC 2020)
(GPL source distribution)
Java Runtime: OpenJDK Runtime Environment
JVM: OpenJDK 64-Bit Server VM
Java Version: 17.0.18+8
Operating System: Linux
Default Encoding: UTF-8
Language: en
Country: null
--></g></svg>