<?xml version="1.0" encoding="UTF-8" standalone="no"?><svg xmlns="http://www.w3.org/2000/svg" xmlns:xlink="http://www.w3.org/1999/xlink" contentScriptType="application/ecmascript" contentStyleType="text/css" height="848px" preserveAspectRatio="none" style="width:1057px;height:848px;" version="1.1" viewBox="0 0 1057 848" width="1057px" zoomAndPan="magnify"><defs><filter height="300%" id="f1k1v7cyew31ma" width="300%" x="-1" y="-1"><feGaussianBlur result="blurOut" stdDeviation="2.0"/><feColorMatrix in="blurOut" result="blurOut2" type="matrix" values="0 0 0 0 0 0 0 0 0 0 0 0 0 0 0 0 0 0 .4 0"/><feOffset dx="4.0" dy="4.0" in="blurOut2" result="blurOut3"/><feBlend in="SourceGraphic" in2="blurOut3" mode="normal"/></filter></defs><g><!--MD5=[a46658d446b05034c23a4bc1a7db0e1a]
class media_work--><rect fill="#FEFECE" filter="url(#f1k1v7cyew31ma)" height="105.1563" id="media_work" style="stroke: #A80036; stroke-width: 1.5;" width="171" x="507" y="160"/><ellipse cx="551.75" cy="178.9688" fill="#ADD1B2" rx="11" ry="11" style="stroke: #A80036; stroke-width: 1.0;"/><path d="M554.7188,184.6094 Q554.1406,184.9063 553.5,185.0469 Q552.8594,185.2031 552.1563,185.2031 Q549.6563,185.2031 548.3281,183.5625 Q547.0156,181.9063 547.0156,178.7813 Q547.0156,175.6563 548.3281,174 Q549.6563,172.3438 552.1563,172.3438 Q552.8594,172.3438 553.5,172.5 Q554.1563,172.6563 554.7188,172.9531 L554.7188,175.6719 Q554.0938,175.0938 553.5,174.8281 Q552.9063,174.5469 552.2813,174.5469 Q550.9375,174.5469 550.25,175.625 Q549.5625,176.6875 549.5625,178.7813 Q549.5625,180.875 550.25,181.9531 Q550.9375,183.0156 552.2813,183.0156 Q552.9063,183.0156 553.5,182.75 Q554.0938,182.4688 554.7188,181.8906 L554.7188,184.6094 Z "/><text fill="#000000" font-family="sans-serif" font-size="12" font-style="italic" lengthAdjust="spacingAndGlyphs" textLength="46" x="585.75" y="176.1387">«table»</text><text fill="#000000" font-family="sans-serif" font-size="12" lengthAdjust="spacingAndGlyphs" textLength="73" x="572.25" y="190.1074">media_work</text><line style="stroke: #A80036; stroke-width: 1.5;" x1="508" x2="677" y1="197.9375" y2="197.9375"/><text fill="#000000" font-family="sans-serif" font-size="11" lengthAdjust="spacingAndGlyphs" textLength="77" x="513" y="212.1479">id: UUID «PK»</text><text fill="#000000" font-family="sans-serif" font-size="11" lengthAdjust="spacingAndGlyphs" textLength="57" x="513" y="224.9526">title: TEXT</text><text fill="#000000" font-family="sans-serif" font-size="11" lengthAdjust="spacingAndGlyphs" textLength="99" x="513" y="237.7573">description: TEXT</text><text fill="#000000" font-family="sans-serif" font-size="11" lengthAdjust="spacingAndGlyphs" textLength="159" x="513" y="250.562">original_release_date: DATE</text><line style="stroke: #A80036; stroke-width: 1.5;" x1="508" x2="677" y1="257.1563" y2="257.1563"/><!--MD5=[23ff8735309b44f3974df67f35899a34]
class contribution--><rect fill="#FEFECE" filter="url(#f1k1v7cyew31ma)" height="117.9609" id="contribution" style="stroke: #A80036; stroke-width: 1.5;" width="263" x="251" y="325"/><ellipse cx="340.25" cy="343.9688" fill="#ADD1B2" rx="11" ry="11" style="stroke: #A80036; stroke-width: 1.0;"/><path d="M343.2188,349.6094 Q342.6406,349.9063 342,350.0469 Q341.3594,350.2031 340.6563,350.2031 Q338.1563,350.2031 336.8281,348.5625 Q335.5156,346.9063 335.5156,343.7813 Q335.5156,340.6563 336.8281,339 Q338.1563,337.3438 340.6563,337.3438 Q341.3594,337.3438 342,337.5 Q342.6563,337.6563 343.2188,337.9531 L343.2188,340.6719 Q342.5938,340.0938 342,339.8281 Q341.4063,339.5469 340.7813,339.5469 Q339.4375,339.5469 338.75,340.625 Q338.0625,341.6875 338.0625,343.7813 Q338.0625,345.875 338.75,346.9531 Q339.4375,348.0156 340.7813,348.0156 Q341.4063,348.0156 342,347.75 Q342.5938,347.4688 343.2188,346.8906 L343.2188,349.6094 Z "/><text fill="#000000" font-family="sans-serif" font-size="12" font-style="italic" lengthAdjust="spacingAndGlyphs" textLength="46" x="375.75" y="341.1387">«table»</text><text fill="#000000" font-family="sans-serif" font-size="12" lengthAdjust="spacingAndGlyphs" textLength="76" x="360.75" y="355.1074">contribution</text><line style="stroke: #A80036; stroke-width: 1.5;" x1="252" x2="513" y1="362.9375" y2="362.9375"/><text fill="#000000" font-family="sans-serif" font-size="11" lengthAdjust="spacingAndGlyphs" textLength="77" x="257" y="377.1479">id: UUID «PK»</text><text fill="#000000" font-family="sans-serif" font-size="11" lengthAdjust="spacingAndGlyphs" textLength="150" x="257" y="389.9526">media_work_id: UUID «FK»</text><text fill="#000000" font-family="sans-serif" font-size="11" lengthAdjust="spacingAndGlyphs" textLength="144" x="257" y="402.7573">contributor_id: UUID «FK»</text><text fill="#000000" font-family="sans-serif" font-size="11" lengthAdjust="spacingAndGlyphs" textLength="126" x="257" y="415.562">contributor_role: TEXT</text><line style="stroke: #A80036; stroke-width: 1.0;" x1="252" x2="513" y1="422.1563" y2="422.1563"/><text fill="#000000" font-family="sans-serif" font-size="11" lengthAdjust="spacingAndGlyphs" textLength="251" x="257" y="436.3667">UNIQUE(media_work_id, contributor_id, role)</text><!--MD5=[48f574f03aa9f209c3e6ebb00fc1f351]
class content--><rect fill="#FEFECE" filter="url(#f1k1v7cyew31ma)" height="105.1563" id="content" style="stroke: #A80036; stroke-width: 1.5;" width="162" x="549.5" y="331.5"/><ellipse cx="601.75" cy="350.4688" fill="#ADD1B2" rx="11" ry="11" style="stroke: #A80036; stroke-width: 1.0;"/><path d="M604.7188,356.1094 Q604.1406,356.4063 603.5,356.5469 Q602.8594,356.7031 602.1563,356.7031 Q599.6563,356.7031 598.3281,355.0625 Q597.0156,353.4063 597.0156,350.2813 Q597.0156,347.1563 598.3281,345.5 Q599.6563,343.8438 602.1563,343.8438 Q602.8594,343.8438 603.5,344 Q604.1563,344.1563 604.7188,344.4531 L604.7188,347.1719 Q604.0938,346.5938 603.5,346.3281 Q602.9063,346.0469 602.2813,346.0469 Q600.9375,346.0469 600.25,347.125 Q599.5625,348.1875 599.5625,350.2813 Q599.5625,352.375 600.25,353.4531 Q600.9375,354.5156 602.2813,354.5156 Q602.9063,354.5156 603.5,354.25 Q604.0938,353.9688 604.7188,353.3906 L604.7188,356.1094 Z "/><text fill="#000000" font-family="sans-serif" font-size="12" font-style="italic" lengthAdjust="spacingAndGlyphs" textLength="46" x="623.75" y="347.6387">«table»</text><text fill="#000000" font-family="sans-serif" font-size="12" lengthAdjust="spacingAndGlyphs" textLength="49" x="622.25" y="361.6074">content</text><line style="stroke: #A80036; stroke-width: 1.5;" x1="550.5" x2="710.5" y1="369.4375" y2="369.4375"/><text fill="#000000" font-family="sans-serif" font-size="11" lengthAdjust="spacingAndGlyphs" textLength="77" x="555.5" y="383.6479">id: UUID «PK»</text><text fill="#000000" font-family="sans-serif" font-size="11" lengthAdjust="spacingAndGlyphs" textLength="150" x="555.5" y="396.4526">media_work_id: UUID «FK»</text><text fill="#000000" font-family="sans-serif" font-size="11" lengthAdjust="spacingAndGlyphs" textLength="57" x="555.5" y="409.2573">title: TEXT</text><text fill="#000000" font-family="sans-serif" font-size="11" lengthAdjust="spacingAndGlyphs" textLength="99" x="555.5" y="422.062">description: TEXT</text><line style="stroke: #A80036; stroke-width: 1.5;" x1="550.5" x2="710.5" y1="428.6563" y2="428.6563"/><!--MD5=[5d1a9ee8076010dc62ddec054a37bf42]
class playable_content--><rect fill="#FEFECE" filter="url(#f1k1v7cyew31ma)" height="92.3516" id="playable_content" style="stroke: #A80036; stroke-width: 1.5;" width="168" x="546.5" y="522.5"/><ellipse cx="574.55" cy="541.4688" fill="#ADD1B2" rx="11" ry="11" style="stroke: #A80036; stroke-width: 1.0;"/><path d="M577.5188,547.1094 Q576.9406,547.4063 576.3,547.5469 Q575.6594,547.7031 574.9563,547.7031 Q572.4563,547.7031 571.1281,546.0625 Q569.8156,544.4063 569.8156,541.2813 Q569.8156,538.1563 571.1281,536.5 Q572.4563,534.8438 574.9563,534.8438 Q575.6594,534.8438 576.3,535 Q576.9563,535.1563 577.5188,535.4531 L577.5188,538.1719 Q576.8938,537.5938 576.3,537.3281 Q575.7063,537.0469 575.0813,537.0469 Q573.7375,537.0469 573.05,538.125 Q572.3625,539.1875 572.3625,541.2813 Q572.3625,543.375 573.05,544.4531 Q573.7375,545.5156 575.0813,545.5156 Q575.7063,545.5156 576.3,545.25 Q576.8938,544.9688 577.5188,544.3906 L577.5188,547.1094 Z "/><text fill="#000000" font-family="sans-serif" font-size="12" font-style="italic" lengthAdjust="spacingAndGlyphs" textLength="46" x="621.95" y="538.6387">«table»</text><text fill="#000000" font-family="sans-serif" font-size="12" lengthAdjust="spacingAndGlyphs" textLength="107" x="591.45" y="552.6074">playable_content</text><line style="stroke: #A80036; stroke-width: 1.5;" x1="547.5" x2="713.5" y1="560.4375" y2="560.4375"/><text fill="#000000" font-family="sans-serif" font-size="11" lengthAdjust="spacingAndGlyphs" textLength="156" x="552.5" y="574.6479">content_id: UUID «PK» «FK»</text><text fill="#000000" font-family="sans-serif" font-size="11" lengthAdjust="spacingAndGlyphs" textLength="122" x="552.5" y="587.4526">runtime_minutes: INT</text><text fill="#000000" font-family="sans-serif" font-size="11" lengthAdjust="spacingAndGlyphs" textLength="83" x="552.5" y="600.2573">cut_type: TEXT</text><line style="stroke: #A80036; stroke-width: 1.5;" x1="547.5" x2="713.5" y1="606.8516" y2="606.8516"/><!--MD5=[0d0503032abcfd044ebbd4c79c7561fa]
class audio_track--><rect fill="#FEFECE" filter="url(#f1k1v7cyew31ma)" height="105.1563" id="audio_track" style="stroke: #A80036; stroke-width: 1.5;" width="284" x="230.5" y="713.5"/><ellipse cx="331.75" cy="732.4688" fill="#ADD1B2" rx="11" ry="11" style="stroke: #A80036; stroke-width: 1.0;"/><path d="M334.7188,738.1094 Q334.1406,738.4063 333.5,738.5469 Q332.8594,738.7031 332.1563,738.7031 Q329.6563,738.7031 328.3281,737.0625 Q327.0156,735.4063 327.0156,732.2813 Q327.0156,729.1563 328.3281,727.5 Q329.6563,725.8438 332.1563,725.8438 Q332.8594,725.8438 333.5,726 Q334.1563,726.1563 334.7188,726.4531 L334.7188,729.1719 Q334.0938,728.5938 333.5,728.3281 Q332.9063,728.0469 332.2813,728.0469 Q330.9375,728.0469 330.25,729.125 Q329.5625,730.1875 329.5625,732.2813 Q329.5625,734.375 330.25,735.4531 Q330.9375,736.5156 332.2813,736.5156 Q332.9063,736.5156 333.5,736.25 Q334.0938,735.9688 334.7188,735.3906 L334.7188,738.1094 Z "/><text fill="#000000" font-family="sans-serif" font-size="12" font-style="italic" lengthAdjust="spacingAndGlyphs" textLength="46" x="365.75" y="729.6387">«table»</text><text fill="#000000" font-family="sans-serif" font-size="12" lengthAdjust="spacingAndGlyphs" textLength="73" x="352.25" y="743.6074">audio_track</text><line style="stroke: #A80036; stroke-width: 1.5;" x1="231.5" x2="513.5" y1="751.4375" y2="751.4375"/><text fill="#000000" font-family="sans-serif" font-size="11" lengthAdjust="spacingAndGlyphs" textLength="177" x="236.5" y="765.6479">playable_content_id: UUID «FK»</text><text fill="#000000" font-family="sans-serif" font-size="11" lengthAdjust="spacingAndGlyphs" textLength="88" x="236.5" y="778.4526">language: TEXT</text><text fill="#000000" font-family="sans-serif" font-size="11" lengthAdjust="spacingAndGlyphs" textLength="74" x="236.5" y="791.2573">format: TEXT</text><line style="stroke: #A80036; stroke-width: 1.0;" x1="231.5" x2="513.5" y1="797.8516" y2="797.8516"/><text fill="#000000" font-family="sans-serif" font-size="11" lengthAdjust="spacingAndGlyphs" textLength="272" x="236.5" y="812.062">PRIMARY(playable_content_id, language, format)</text><!--MD5=[92b0941a1a3a24f8fb4ff3ecfd2745d0]
class subtitle_track--><rect fill="#FEFECE" filter="url(#f1k1v7cyew31ma)" height="92.3516" id="subtitle_track" style="stroke: #A80036; stroke-width: 1.5;" width="238" x="549.5" y="720"/><ellipse cx="621.75" cy="738.9688" fill="#ADD1B2" rx="11" ry="11" style="stroke: #A80036; stroke-width: 1.0;"/><path d="M624.7188,744.6094 Q624.1406,744.9063 623.5,745.0469 Q622.8594,745.2031 622.1563,745.2031 Q619.6563,745.2031 618.3281,743.5625 Q617.0156,741.9063 617.0156,738.7813 Q617.0156,735.6563 618.3281,734 Q619.6563,732.3438 622.1563,732.3438 Q622.8594,732.3438 623.5,732.5 Q624.1563,732.6563 624.7188,732.9531 L624.7188,735.6719 Q624.0938,735.0938 623.5,734.8281 Q622.9063,734.5469 622.2813,734.5469 Q620.9375,734.5469 620.25,735.625 Q619.5625,736.6875 619.5625,738.7813 Q619.5625,740.875 620.25,741.9531 Q620.9375,743.0156 622.2813,743.0156 Q622.9063,743.0156 623.5,742.75 Q624.0938,742.4688 624.7188,741.8906 L624.7188,744.6094 Z "/><text fill="#000000" font-family="sans-serif" font-size="12" font-style="italic" lengthAdjust="spacingAndGlyphs" textLength="46" x="661.75" y="736.1387">«table»</text><text fill="#000000" font-family="sans-serif" font-size="12" lengthAdjust="spacingAndGlyphs" textLength="85" x="642.25" y="750.1074">subtitle_track</text><line style="stroke: #A80036; stroke-width: 1.5;" x1="550.5" x2="786.5" y1="757.9375" y2="757.9375"/><text fill="#000000" font-family="sans-serif" font-size="11" lengthAdjust="spacingAndGlyphs" textLength="177" x="555.5" y="772.1479">playable_content_id: UUID «FK»</text><text fill="#000000" font-family="sans-serif" font-size="11" lengthAdjust="spacingAndGlyphs" textLength="88" x="555.5" y="784.9526">language: TEXT</text><line style="stroke: #A80036; stroke-width: 1.0;" x1="550.5" x2="786.5" y1="791.5469" y2="791.5469"/><text fill="#000000" font-family="sans-serif" font-size="11" lengthAdjust="spacingAndGlyphs" textLength="226" x="555.5" y="805.7573">PRIMARY(playable_content_id, language)</text><!--MD5=[c6f8f8eba72f86f9c5c6666e8cb970d9]
class movie--><rect fill="#FEFECE" filter="url(#f1k1v7cyew31ma)" height="66.7422" id="movie" style="stroke: #A80036; stroke-width: 1.5;" width="194" x="348.5" y="20.5"/><ellipse cx="420.25" cy="39.4688" fill="#ADD1B2" rx="11" ry="11" style="stroke: #A80036; stroke-width: 1.0;"/><path d="M423.2188,45.1094 Q422.6406,45.4063 422,45.5469 Q421.3594,45.7031 420.6563,45.7031 Q418.1563,45.7031 416.8281,44.0625 Q415.5156,42.4063 415.5156,39.2813 Q415.5156,36.1563 416.8281,34.5 Q418.1563,32.8438 420.6563,32.8438 Q421.3594,32.8438 422,33 Q422.6563,33.1563 423.2188,33.4531 L423.2188,36.1719 Q422.5938,35.5938 422,35.3281 Q421.4063,35.0469 420.7813,35.0469 Q419.4375,35.0469 418.75,36.125 Q418.0625,37.1875 418.0625,39.2813 Q418.0625,41.375 418.75,42.4531 Q419.4375,43.5156 420.7813,43.5156 Q421.4063,43.5156 422,43.25 Q422.5938,42.9688 423.2188,42.3906 L423.2188,45.1094 Z "/><text fill="#000000" font-family="sans-serif" font-size="12" font-style="italic" lengthAdjust="spacingAndGlyphs" textLength="46" x="438.75" y="36.6387">«table»</text><text fill="#000000" font-family="sans-serif" font-size="12" lengthAdjust="spacingAndGlyphs" textLength="36" x="443.75" y="50.6074">movie</text><line style="stroke: #A80036; stroke-width: 1.5;" x1="349.5" x2="541.5" y1="58.4375" y2="58.4375"/><text fill="#000000" font-family="sans-serif" font-size="11" lengthAdjust="spacingAndGlyphs" textLength="182" x="354.5" y="72.6479">media_work_id: UUID «PK» «FK»</text><line style="stroke: #A80036; stroke-width: 1.5;" x1="349.5" x2="541.5" y1="79.2422" y2="79.2422"/><!--MD5=[4d764836f8e8e45ff386eaaaa91b5b37]
class movie_feature--><rect fill="#FEFECE" filter="url(#f1k1v7cyew31ma)" height="92.3516" id="movie_feature" style="stroke: #A80036; stroke-width: 1.5;" width="189" x="6" y="720"/><ellipse cx="52.25" cy="738.9688" fill="#ADD1B2" rx="11" ry="11" style="stroke: #A80036; stroke-width: 1.0;"/><path d="M55.2188,744.6094 Q54.6406,744.9063 54,745.0469 Q53.3594,745.2031 52.6563,745.2031 Q50.1563,745.2031 48.8281,743.5625 Q47.5156,741.9063 47.5156,738.7813 Q47.5156,735.6563 48.8281,734 Q50.1563,732.3438 52.6563,732.3438 Q53.3594,732.3438 54,732.5 Q54.6563,732.6563 55.2188,732.9531 L55.2188,735.6719 Q54.5938,735.0938 54,734.8281 Q53.4063,734.5469 52.7813,734.5469 Q51.4375,734.5469 50.75,735.625 Q50.0625,736.6875 50.0625,738.7813 Q50.0625,740.875 50.75,741.9531 Q51.4375,743.0156 52.7813,743.0156 Q53.4063,743.0156 54,742.75 Q54.5938,742.4688 55.2188,741.8906 L55.2188,744.6094 Z "/><text fill="#000000" font-family="sans-serif" font-size="12" font-style="italic" lengthAdjust="spacingAndGlyphs" textLength="46" x="93.75" y="736.1387">«table»</text><text fill="#000000" font-family="sans-serif" font-size="12" lengthAdjust="spacingAndGlyphs" textLength="88" x="72.75" y="750.1074">movie_feature</text><line style="stroke: #A80036; stroke-width: 1.5;" x1="7" x2="194" y1="757.9375" y2="757.9375"/><text fill="#000000" font-family="sans-serif" font-size="11" lengthAdjust="spacingAndGlyphs" textLength="116" x="12" y="772.1479">movie_id: UUID «FK»</text><text fill="#000000" font-family="sans-serif" font-size="11" lengthAdjust="spacingAndGlyphs" textLength="177" x="12" y="784.9526">playable_content_id: UUID «FK»</text><line style="stroke: #A80036; stroke-width: 1.0;" x1="7" x2="194" y1="791.5469" y2="791.5469"/><text fill="#000000" font-family="sans-serif" font-size="11" lengthAdjust="spacingAndGlyphs" textLength="171" x="12" y="805.7573">PRIMARY(movie_id, content_id)</text><!--MD5=[733462b47cf04df2ca7bac97249b98e3]
class tv--><rect fill="#FEFECE" filter="url(#f1k1v7cyew31ma)" height="92.3516" id="tv" style="stroke: #A80036; stroke-width: 1.5;" width="194" x="641.5" y="8"/><ellipse cx="713.25" cy="26.9688" fill="#ADD1B2" rx="11" ry="11" style="stroke: #A80036; stroke-width: 1.0;"/><path d="M716.2188,32.6094 Q715.6406,32.9063 715,33.0469 Q714.3594,33.2031 713.6563,33.2031 Q711.1563,33.2031 709.8281,31.5625 Q708.5156,29.9063 708.5156,26.7813 Q708.5156,23.6563 709.8281,22 Q711.1563,20.3438 713.6563,20.3438 Q714.3594,20.3438 715,20.5 Q715.6563,20.6563 716.2188,20.9531 L716.2188,23.6719 Q715.5938,23.0938 715,22.8281 Q714.4063,22.5469 713.7813,22.5469 Q712.4375,22.5469 711.75,23.625 Q711.0625,24.6875 711.0625,26.7813 Q711.0625,28.875 711.75,29.9531 Q712.4375,31.0156 713.7813,31.0156 Q714.4063,31.0156 715,30.75 Q715.5938,30.4688 716.2188,29.8906 L716.2188,32.6094 Z "/><text fill="#000000" font-family="sans-serif" font-size="12" font-style="italic" lengthAdjust="spacingAndGlyphs" textLength="46" x="731.75" y="24.1387">«table»</text><text fill="#000000" font-family="sans-serif" font-size="12" lengthAdjust="spacingAndGlyphs" textLength="11" x="749.25" y="38.1074">tv</text><line style="stroke: #A80036; stroke-width: 1.5;" x1="642.5" x2="834.5" y1="45.9375" y2="45.9375"/><text fill="#000000" font-family="sans-serif" font-size="11" lengthAdjust="spacingAndGlyphs" textLength="182" x="647.5" y="60.1479">media_work_id: UUID «PK» «FK»</text><text fill="#000000" font-family="sans-serif" font-size="11" lengthAdjust="spacingAndGlyphs" textLength="72" x="647.5" y="72.9526">status: TEXT</text><text fill="#000000" font-family="sans-serif" font-size="11" lengthAdjust="spacingAndGlyphs" textLength="91" x="647.5" y="85.7573">ended_on: TEXT</text><line style="stroke: #A80036; stroke-width: 1.5;" x1="642.5" x2="834.5" y1="92.3516" y2="92.3516"/><!--MD5=[65239b9aab999f0c561a5ca3aa8c59c9]
class season--><rect fill="#FEFECE" filter="url(#f1k1v7cyew31ma)" height="130.7656" id="season" style="stroke: #A80036; stroke-width: 1.5;" width="189" x="810" y="503"/><ellipse cx="877.25" cy="521.9688" fill="#ADD1B2" rx="11" ry="11" style="stroke: #A80036; stroke-width: 1.0;"/><path d="M880.2188,527.6094 Q879.6406,527.9063 879,528.0469 Q878.3594,528.2031 877.6563,528.2031 Q875.1563,528.2031 873.8281,526.5625 Q872.5156,524.9063 872.5156,521.7813 Q872.5156,518.6563 873.8281,517 Q875.1563,515.3438 877.6563,515.3438 Q878.3594,515.3438 879,515.5 Q879.6563,515.6563 880.2188,515.9531 L880.2188,518.6719 Q879.5938,518.0938 879,517.8281 Q878.4063,517.5469 877.7813,517.5469 Q876.4375,517.5469 875.75,518.625 Q875.0625,519.6875 875.0625,521.7813 Q875.0625,523.875 875.75,524.9531 Q876.4375,526.0156 877.7813,526.0156 Q878.4063,526.0156 879,525.75 Q879.5938,525.4688 880.2188,524.8906 L880.2188,527.6094 Z "/><text fill="#000000" font-family="sans-serif" font-size="12" font-style="italic" lengthAdjust="spacingAndGlyphs" textLength="46" x="897.75" y="519.1387">«table»</text><text fill="#000000" font-family="sans-serif" font-size="12" lengthAdjust="spacingAndGlyphs" textLength="46" x="897.75" y="533.1074">season</text><line style="stroke: #A80036; stroke-width: 1.5;" x1="811" x2="998" y1="540.9375" y2="540.9375"/><text fill="#000000" font-family="sans-serif" font-size="11" lengthAdjust="spacingAndGlyphs" textLength="77" x="816" y="555.1479">id: UUID «PK»</text><text fill="#000000" font-family="sans-serif" font-size="11" lengthAdjust="spacingAndGlyphs" textLength="92" x="816" y="567.9526">tv_id: UUID «FK»</text><text fill="#000000" font-family="sans-serif" font-size="11" lengthAdjust="spacingAndGlyphs" textLength="118" x="816" y="580.7573">season_number: INT</text><text fill="#000000" font-family="sans-serif" font-size="11" lengthAdjust="spacingAndGlyphs" textLength="57" x="816" y="593.562">title: TEXT</text><text fill="#000000" font-family="sans-serif" font-size="11" lengthAdjust="spacingAndGlyphs" textLength="99" x="816" y="606.3667">description: TEXT</text><line style="stroke: #A80036; stroke-width: 1.0;" x1="811" x2="998" y1="612.9609" y2="612.9609"/><text fill="#000000" font-family="sans-serif" font-size="11" lengthAdjust="spacingAndGlyphs" textLength="177" x="816" y="627.1714">UNIQUE(tv_id, season_number)</text><!--MD5=[77ab79214866798d9cf70993822fb05b]
class episode--><rect fill="#FEFECE" filter="url(#f1k1v7cyew31ma)" height="143.5703" id="episode" style="stroke: #A80036; stroke-width: 1.5;" width="224" x="822.5" y="694"/><ellipse cx="905.25" cy="712.9688" fill="#ADD1B2" rx="11" ry="11" style="stroke: #A80036; stroke-width: 1.0;"/><path d="M908.2188,718.6094 Q907.6406,718.9063 907,719.0469 Q906.3594,719.2031 905.6563,719.2031 Q903.1563,719.2031 901.8281,717.5625 Q900.5156,715.9063 900.5156,712.7813 Q900.5156,709.6563 901.8281,708 Q903.1563,706.3438 905.6563,706.3438 Q906.3594,706.3438 907,706.5 Q907.6563,706.6563 908.2188,706.9531 L908.2188,709.6719 Q907.5938,709.0938 907,708.8281 Q906.4063,708.5469 905.7813,708.5469 Q904.4375,708.5469 903.75,709.625 Q903.0625,710.6875 903.0625,712.7813 Q903.0625,714.875 903.75,715.9531 Q904.4375,717.0156 905.7813,717.0156 Q906.4063,717.0156 907,716.75 Q907.5938,716.4688 908.2188,715.8906 L908.2188,718.6094 Z "/><text fill="#000000" font-family="sans-serif" font-size="12" font-style="italic" lengthAdjust="spacingAndGlyphs" textLength="46" x="927.75" y="710.1387">«table»</text><text fill="#000000" font-family="sans-serif" font-size="12" lengthAdjust="spacingAndGlyphs" textLength="50" x="925.75" y="724.1074">episode</text><line style="stroke: #A80036; stroke-width: 1.5;" x1="823.5" x2="1045.5" y1="731.9375" y2="731.9375"/><text fill="#000000" font-family="sans-serif" font-size="11" lengthAdjust="spacingAndGlyphs" textLength="77" x="828.5" y="746.1479">id: UUID «PK»</text><text fill="#000000" font-family="sans-serif" font-size="11" lengthAdjust="spacingAndGlyphs" textLength="124" x="828.5" y="758.9526">season_id: UUID «FK»</text><text fill="#000000" font-family="sans-serif" font-size="11" lengthAdjust="spacingAndGlyphs" textLength="177" x="828.5" y="771.7573">playable_content_id: UUID «FK»</text><text fill="#000000" font-family="sans-serif" font-size="11" lengthAdjust="spacingAndGlyphs" textLength="121" x="828.5" y="784.562">episode_number: INT</text><text fill="#000000" font-family="sans-serif" font-size="11" lengthAdjust="spacingAndGlyphs" textLength="83" x="828.5" y="797.3667">air_date: DATE</text><text fill="#000000" font-family="sans-serif" font-size="11" lengthAdjust="spacingAndGlyphs" textLength="58" x="828.5" y="810.1714">role: TEXT</text><line style="stroke: #A80036; stroke-width: 1.0;" x1="823.5" x2="1045.5" y1="816.7656" y2="816.7656"/><text fill="#000000" font-family="sans-serif" font-size="11" lengthAdjust="spacingAndGlyphs" textLength="212" x="828.5" y="830.9761">UNIQUE(season_id, episode_number)</text><!--MD5=[c70d0026982c74753187fd828a4c968f]
class contributor--><rect fill="#FEFECE" filter="url(#f1k1v7cyew31ma)" height="48" id="contributor" style="stroke: #A80036; stroke-width: 1.5;" width="102" x="331.5" y="188.5"/><ellipse cx="346.5" cy="204.5" fill="#ADD1B2" rx="11" ry="11" style="stroke: #A80036; stroke-width: 1.0;"/><path d="M349.4688,210.1406 Q348.8906,210.4375 348.25,210.5781 Q347.6094,210.7344 346.9063,210.7344 Q344.4063,210.7344 343.0781,209.0938 Q341.7656,207.4375 341.7656,204.3125 Q341.7656,201.1875 343.0781,199.5313 Q344.4063,197.875 346.9063,197.875 Q347.6094,197.875 348.25,198.0313 Q348.9063,198.1875 349.4688,198.4844 L349.4688,201.2031 Q348.8438,200.625 348.25,200.3594 Q347.6563,200.0781 347.0313,200.0781 Q345.6875,200.0781 345,201.1563 Q344.3125,202.2188 344.3125,204.3125 Q344.3125,206.4063 345,207.4844 Q345.6875,208.5469 347.0313,208.5469 Q347.6563,208.5469 348.25,208.2813 Q348.8438,208 349.4688,207.4219 L349.4688,210.1406 Z "/><text fill="#000000" font-family="sans-serif" font-size="12" lengthAdjust="spacingAndGlyphs" textLength="70" x="360.5" y="208.6543">contributor</text><line style="stroke: #A80036; stroke-width: 1.5;" x1="332.5" x2="432.5" y1="220.5" y2="220.5"/><line style="stroke: #A80036; stroke-width: 1.5;" x1="332.5" x2="432.5" y1="228.5" y2="228.5"/><!--MD5=[5ef73dc266c42a643b67e9845d2d3e42]
reverse link media_work to contribution--><path d="M524.49,268.39 C502.11,286.45 477.17,306.59 454.5,324.88 " fill="none" id="media_work&lt;-contribution" style="stroke: #A80036; stroke-width: 1.0;"/><polygon fill="#A80036" points="528.64,265.05,519.1224,267.5827,524.7468,268.1874,524.1422,273.8118,528.64,265.05" style="stroke: #A80036; stroke-width: 1.0;"/><text fill="#000000" font-family="sans-serif" font-size="13" lengthAdjust="spacingAndGlyphs" textLength="8" x="511.5213" y="285.1845">1</text><text fill="#000000" font-family="sans-serif" font-size="13" lengthAdjust="spacingAndGlyphs" textLength="23" x="438.8734" y="313.8381">0..*</text><!--MD5=[bc69acde750a0ef1fb41ce7773590716]
reverse link media_work to content--><path d="M605.22,270.24 C609.64,289.96 614.57,311.95 618.9,331.25 " fill="none" id="media_work&lt;-content" style="stroke: #A80036; stroke-width: 1.0;"/><polygon fill="#A80036" points="604.11,265.28,602.1845,274.9388,605.2082,270.1579,609.9891,273.1816,604.11,265.28" style="stroke: #A80036; stroke-width: 1.0;"/><!--MD5=[378a51d7a9e1af673387b76ceb8a041c]
reverse link content to playable_content--><path d="M630.5,441.93 C630.5,467.84 630.5,498.08 630.5,522.39 " fill="none" id="content&lt;-playable_content" style="stroke: #A80036; stroke-width: 1.0;"/><polygon fill="#A80036" points="630.5,436.81,626.5,445.81,630.5,441.81,634.5,445.81,630.5,436.81" style="stroke: #A80036; stroke-width: 1.0;"/><!--MD5=[df91c1d2556f8695b2a9a346fc894770]
reverse link playable_content to audio_track--><path d="M566.85,617.73 C528.58,646.73 479.9,683.62 440.83,713.22 " fill="none" id="playable_content&lt;-audio_track" style="stroke: #A80036; stroke-width: 1.0;"/><polygon fill="#A80036" points="570.99,614.6,561.404,616.8602,567.0089,617.6251,566.2441,623.23,570.99,614.6" style="stroke: #A80036; stroke-width: 1.0;"/><text fill="#000000" font-family="sans-serif" font-size="13" lengthAdjust="spacingAndGlyphs" textLength="8" x="553.265" y="634.8576">1</text><text fill="#000000" font-family="sans-serif" font-size="13" lengthAdjust="spacingAndGlyphs" textLength="23" x="425.1113" y="702.562">0..*</text><!--MD5=[86b46bc5549241408c6eae4014782abd]
reverse link playable_content to subtitle_track--><path d="M640.34,620.11 C646.34,650.98 653.94,690.1 659.73,719.9 " fill="none" id="playable_content&lt;-subtitle_track" style="stroke: #A80036; stroke-width: 1.0;"/><polygon fill="#A80036" points="639.31,614.84,637.1044,624.4387,640.2659,619.7478,644.9568,622.9093,639.31,614.84" style="stroke: #A80036; stroke-width: 1.0;"/><text fill="#000000" font-family="sans-serif" font-size="13" lengthAdjust="spacingAndGlyphs" textLength="8" x="632.0165" y="634.7986">1</text><text fill="#000000" font-family="sans-serif" font-size="13" lengthAdjust="spacingAndGlyphs" textLength="23" x="633.7528" y="709.0783">0..*</text><!--MD5=[1b679af2d29bc6812a947d657e6bf80f]
link movie to media_work--><path d="M476.32,87.81 C494.94,107.63 519.15,133.41 540.65,156.3 " fill="none" id="movie-&gt;media_work" style="stroke: #A80036; stroke-width: 1.0;"/><polygon fill="#A80036" points="544.07,159.95,540.8145,150.6547,540.6432,156.309,534.9889,156.1377,544.07,159.95" style="stroke: #A80036; stroke-width: 1.0;"/><text fill="#000000" font-family="sans-serif" font-size="13" lengthAdjust="spacingAndGlyphs" textLength="8" x="473.0973" y="107.27">1</text><text fill="#000000" font-family="sans-serif" font-size="13" lengthAdjust="spacingAndGlyphs" textLength="8" x="529.0247" y="148.9461">1</text><!--MD5=[981abad0ab7efa479b2057aefbd63d23]
reverse link movie to movie_feature--><path d="M390.1,90.49 C364.44,108.93 334.96,133.2 313.5,160 C172.57,336.02 121.32,612.12 106.05,719.84 " fill="none" id="movie&lt;-movie_feature" style="stroke: #A80036; stroke-width: 1.0;"/><polygon fill="#A80036" points="394.19,87.58,384.5388,89.5434,390.1175,90.4808,389.1801,96.0594,394.19,87.58" style="stroke: #A80036; stroke-width: 1.0;"/><text fill="#000000" font-family="sans-serif" font-size="13" lengthAdjust="spacingAndGlyphs" textLength="8" x="375.9922" y="107.257">1</text><text fill="#000000" font-family="sans-serif" font-size="13" lengthAdjust="spacingAndGlyphs" textLength="23" x="82.1761" y="709.0095">0..*</text><!--MD5=[8cc8281e920efc66eee2fa5aab8ce00d]
reverse link playable_content to movie_feature--><path d="M541.26,588.53 C454.84,608.69 321.28,644.47 212.5,694 C196.47,701.3 180.02,710.57 164.83,719.99 " fill="none" id="playable_content&lt;-movie_feature" style="stroke: #A80036; stroke-width: 1.0;"/><polygon fill="#A80036" points="546.37,587.34,536.6943,585.5014,541.5022,588.482,538.5215,593.2899,546.37,587.34" style="stroke: #A80036; stroke-width: 1.0;"/><text fill="#000000" font-family="sans-serif" font-size="13" lengthAdjust="spacingAndGlyphs" textLength="8" x="530.5209" y="585.4071">1</text><text fill="#000000" font-family="sans-serif" font-size="13" lengthAdjust="spacingAndGlyphs" textLength="23" x="149.9196" y="708.8464">0..*</text><!--MD5=[975f161dbd8a3d6bd8c7987f2e830125]
link tv to media_work--><path d="M696.27,100.27 C680.14,117.56 661.56,137.47 644.62,155.64 " fill="none" id="tv-&gt;media_work" style="stroke: #A80036; stroke-width: 1.0;"/><polygon fill="#A80036" points="640.8,159.72,649.8656,155.871,644.2121,156.0652,644.0179,150.4117,640.8,159.72" style="stroke: #A80036; stroke-width: 1.0;"/><text fill="#000000" font-family="sans-serif" font-size="13" lengthAdjust="spacingAndGlyphs" textLength="8" x="681.191" y="120.5537">1</text><text fill="#000000" font-family="sans-serif" font-size="13" lengthAdjust="spacingAndGlyphs" textLength="8" x="638.4759" y="149.062">1</text><!--MD5=[35fe5c7a75031e048953b380210e08f4]
reverse link tv to season--><path d="M754.68,104.94 C784.94,198.37 850.07,399.45 883.61,502.99 " fill="none" id="tv&lt;-season" style="stroke: #A80036; stroke-width: 1.0;"/><polygon fill="#A80036" points="753.09,100.03,752.0617,109.825,754.6325,104.7861,759.6714,107.357,753.09,100.03" style="stroke: #A80036; stroke-width: 1.0;"/><text fill="#000000" font-family="sans-serif" font-size="13" lengthAdjust="spacingAndGlyphs" textLength="8" x="746.7116" y="120.2769">1</text><text fill="#000000" font-family="sans-serif" font-size="13" lengthAdjust="spacingAndGlyphs" textLength="23" x="857.0673" y="492.0915">0..*</text><!--MD5=[433437d5c57c41081fc500fbb31c1699]
reverse link season to episode--><path d="M915.17,639.03 C917.9,656.79 920.83,675.92 923.57,693.77 " fill="none" id="season&lt;-episode" style="stroke: #A80036; stroke-width: 1.0;"/><polygon fill="#A80036" points="914.41,634.06,911.8188,643.5619,915.1671,639.0024,919.7266,642.3506,914.41,634.06" style="stroke: #A80036; stroke-width: 1.0;"/><text fill="#000000" font-family="sans-serif" font-size="13" lengthAdjust="spacingAndGlyphs" textLength="8" x="907.0195" y="653.6801">1</text><text fill="#000000" font-family="sans-serif" font-size="13" lengthAdjust="spacingAndGlyphs" textLength="23" x="898.362" y="683.0162">0..*</text><!--MD5=[b511d1d68e20510f56413cd1af35acda]
reverse link playable_content to episode--><path d="M704.95,617.38 C740.74,640.39 784.36,668.45 823.93,693.89 " fill="none" id="playable_content&lt;-episode" style="stroke: #A80036; stroke-width: 1.0;"/><polygon fill="#A80036" points="700.63,614.6,706.0178,622.8445,704.8294,617.3139,710.36,616.1255,700.63,614.6" style="stroke: #A80036; stroke-width: 1.0;"/><text fill="#000000" font-family="sans-serif" font-size="13" lengthAdjust="spacingAndGlyphs" textLength="8" x="702.7562" y="634.8576">1</text><text fill="#000000" font-family="sans-serif" font-size="13" lengthAdjust="spacingAndGlyphs" textLength="23" x="791.584" y="684.8833">0..*</text><!--MD5=[8380106985c29bc7a3396ae9d3b32f61]
reverse link contributor to contribution--><path d="M382.5,241.94 C382.5,264.49 382.5,296.75 382.5,324.73 " fill="none" id="contributor&lt;-contribution" style="stroke: #A80036; stroke-width: 1.0;"/><polygon fill="#A80036" points="382.5,236.71,378.5,245.71,382.5,241.71,386.5,245.71,382.5,236.71" style="stroke: #A80036; stroke-width: 1.0;"/><text fill="#000000" font-family="sans-serif" font-size="13" lengthAdjust="spacingAndGlyphs" textLength="8" x="373.525" y="256.5224">1</text><text fill="#000000" font-family="sans-serif" font-size="13" lengthAdjust="spacingAndGlyphs" textLength="23" x="358.1703" y="314.0865">0..*</text><!--MD5=[330743400fae6e8ad0fd3d4bf4b25452]
@startuml
skinparam classAttributeIconSize 0

class media_work <<table>> {
    id: UUID <<PK>>
    title: TEXT
    description: TEXT
    original_release_date: DATE
}

class contribution <<table>> {
    id: UUID <<PK>>
    media_work_id: UUID <<FK>>
    contributor_id: UUID <<FK>>
    contributor_role: TEXT
    - -
    UNIQUE(media_work_id, contributor_id, role)
}

media_work "1" <- - "0..*" contribution

class content <<table>> {
    id: UUID <<PK>>
    media_work_id: UUID <<FK>>
    title: TEXT
    description: TEXT
}

media_work <- - content

class playable_content <<table>> {
    content_id: UUID <<PK>> <<FK>>
    runtime_minutes: INT
    cut_type: TEXT
}

content <- - playable_content

class audio_track <<table>> {
    playable_content_id: UUID <<FK>>
    language: TEXT
    format: TEXT
    - -
    PRIMARY(playable_content_id, language, format)
}

playable_content "1" <- - "0..*" audio_track

class subtitle_track <<table>> {
    playable_content_id: UUID <<FK>>
    language: TEXT
    - -
    PRIMARY(playable_content_id, language)
}

playable_content "1" <- - "0..*" subtitle_track

class movie <<table>> {
    media_work_id: UUID <<PK>> <<FK>>
}

movie "1" - -> "1" media_work

class movie_feature <<table>> {
     movie_id: UUID <<FK>>
     playable_content_id: UUID <<FK>>
     - -
     PRIMARY(movie_id, content_id)
}

movie "1" <- - "0..*" movie_feature
playable_content "1" <- - "0..*" movie_feature

class tv <<table>> {
    media_work_id: UUID <<PK>> <<FK>>
    status: TEXT
    ended_on: TEXT
}

tv "1" - -> "1" media_work

class season <<table>> {
    id: UUID <<PK>>
    tv_id: UUID <<FK>>
    season_number: INT
    title: TEXT
    description: TEXT
    - -
    UNIQUE(tv_id, season_number)
}

tv "1" <- - "0..*" season

class episode <<table>> {
    id: UUID <<PK>>
    season_id: UUID <<FK>>
    playable_content_id: UUID <<FK>>
    episode_number: INT
    air_date: DATE
    role: TEXT
    - -
    UNIQUE(season_id, episode_number)
}

season "1" <- - "0..*" episode
playable_content "1" <- - "0..*" episode

contributor "1" <- - "0..*" contribution

@enduml

PlantUML version 1.2020.02(Sun Mar 01 10:22:07 UTC 2020)
(GPL source distribution)
Java Runtime: OpenJDK Runtime Environment
JVM: OpenJDK 64-Bit Server VM
Java Version: 17.0.18+8
Operating System: Linux
Default Encoding: UTF-8
Language: en
Country: null
--></g></svg>