<?xml version="1.0" encoding="UTF-8" standalone="no"?><svg xmlns="http://www.w3.org/2000/svg" xmlns:xlink="http://www.w3.org/1999/xlink" contentScriptType="application/ecmascript" contentStyleType="text/css" height="861px" preserveAspectRatio="none" style="width:1057px;height:861px;" version="1.1" viewBox="0 0 1057 861" width="1057px" zoomAndPan="magnify"><defs><filter height="300%" id="f1mya9fdoz5of9" width="300%" x="-1" y="-1"><feGaussianBlur result="blurOut" stdDeviation="2.0"/><feColorMatrix in="blurOut" result="blurOut2" type="matrix" values="0 0 0 0 0 0 0 0 0 0 0 0 0 0 0 0 0 0 .4 0"/><feOffset dx="4.0" dy="4.0" in="blurOut2" result="blurOut3"/><feBlend in="SourceGraphic" in2="blurOut3" mode="normal"/></filter></defs><g><!--MD5=[a46658d446b05034c23a4bc1a7db0e1a]
class media_work--><rect fill="#FEFECE" filter="url(#f1mya9fdoz5of9)" height="117.9609" id="media_work" style="stroke: #A80036; stroke-width: 1.5;" width="171" x="511" y="160"/><ellipse cx="555.75" cy="178.9688" fill="#ADD1B2" rx="11" ry="11" style="stroke: #A80036; stroke-width: 1.0;"/><path d="M558.7188,184.6094 Q558.1406,184.9063 557.5,185.0469 Q556.8594,185.2031 556.1563,185.2031 Q553.6563,185.2031 552.3281,183.5625 Q551.0156,181.9063 551.0156,178.7813 Q551.0156,175.6563 552.3281,174 Q553.6563,172.3438 556.1563,172.3438 Q556.8594,172.3438 557.5,172.5 Q558.1563,172.6563 558.7188,172.9531 L558.7188,175.6719 Q558.0938,175.0938 557.5,174.8281 Q556.9063,174.5469 556.2813,174.5469 Q554.9375,174.5469 554.25,175.625 Q553.5625,176.6875 553.5625,178.7813 Q553.5625,180.875 554.25,181.9531 Q554.9375,183.0156 556.2813,183.0156 Q556.9063,183.0156 557.5,182.75 Q558.0938,182.4688 558.7188,181.8906 L558.7188,184.6094 Z "/><text fill="#000000" font-family="sans-serif" font-size="12" font-style="italic" lengthAdjust="spacingAndGlyphs" textLength="46" x="589.75" y="176.1387">«table»</text><text fill="#000000" font-family="sans-serif" font-size="12" lengthAdjust="spacingAndGlyphs" textLength="73" x="576.25" y="190.1074">media_work</text><line style="stroke: #A80036; stroke-width: 1.5;" x1="512" x2="681" y1="197.9375" y2="197.9375"/><text fill="#000000" font-family="sans-serif" font-size="11" lengthAdjust="spacingAndGlyphs" textLength="77" x="517" y="212.1479">id: UUID «PK»</text><text fill="#000000" font-family="sans-serif" font-size="11" lengthAdjust="spacingAndGlyphs" textLength="57" x="517" y="224.9526">title: TEXT</text><text fill="#000000" font-family="sans-serif" font-size="11" lengthAdjust="spacingAndGlyphs" textLength="105" x="517" y="237.7573">description: TEXT?</text><text fill="#000000" font-family="sans-serif" font-size="11" lengthAdjust="spacingAndGlyphs" textLength="159" x="517" y="250.562">original_release_date: DATE</text><text fill="#000000" font-family="sans-serif" font-size="11" lengthAdjust="spacingAndGlyphs" textLength="60" x="517" y="263.3667">type: TEXT</text><line style="stroke: #A80036; stroke-width: 1.5;" x1="512" x2="681" y1="269.9609" y2="269.9609"/><!--MD5=[23ff8735309b44f3974df67f35899a34]
class contribution--><rect fill="#FEFECE" filter="url(#f1mya9fdoz5of9)" height="117.9609" id="contribution" style="stroke: #A80036; stroke-width: 1.5;" width="331" x="204" y="338"/><ellipse cx="327.25" cy="356.9688" fill="#ADD1B2" rx="11" ry="11" style="stroke: #A80036; stroke-width: 1.0;"/><path d="M330.2188,362.6094 Q329.6406,362.9063 329,363.0469 Q328.3594,363.2031 327.6563,363.2031 Q325.1563,363.2031 323.8281,361.5625 Q322.5156,359.9063 322.5156,356.7813 Q322.5156,353.6563 323.8281,352 Q325.1563,350.3438 327.6563,350.3438 Q328.3594,350.3438 329,350.5 Q329.6563,350.6563 330.2188,350.9531 L330.2188,353.6719 Q329.5938,353.0938 329,352.8281 Q328.4063,352.5469 327.7813,352.5469 Q326.4375,352.5469 325.75,353.625 Q325.0625,354.6875 325.0625,356.7813 Q325.0625,358.875 325.75,359.9531 Q326.4375,361.0156 327.7813,361.0156 Q328.4063,361.0156 329,360.75 Q329.5938,360.4688 330.2188,359.8906 L330.2188,362.6094 Z "/><text fill="#000000" font-family="sans-serif" font-size="12" font-style="italic" lengthAdjust="spacingAndGlyphs" textLength="46" x="362.75" y="354.1387">«table»</text><text fill="#000000" font-family="sans-serif" font-size="12" lengthAdjust="spacingAndGlyphs" textLength="76" x="347.75" y="368.1074">contribution</text><line style="stroke: #A80036; stroke-width: 1.5;" x1="205" x2="534" y1="375.9375" y2="375.9375"/><text fill="#000000" font-family="sans-serif" font-size="11" lengthAdjust="spacingAndGlyphs" textLength="77" x="210" y="390.1479">id: UUID «PK»</text><text fill="#000000" font-family="sans-serif" font-size="11" lengthAdjust="spacingAndGlyphs" textLength="150" x="210" y="402.9526">media_work_id: UUID «FK»</text><text fill="#000000" font-family="sans-serif" font-size="11" lengthAdjust="spacingAndGlyphs" textLength="144" x="210" y="415.7573">contributor_id: UUID «FK»</text><text fill="#000000" font-family="sans-serif" font-size="11" lengthAdjust="spacingAndGlyphs" textLength="126" x="210" y="428.562">contributor_role: TEXT</text><line style="stroke: #A80036; stroke-width: 1.0;" x1="205" x2="534" y1="435.1563" y2="435.1563"/><text fill="#000000" font-family="sans-serif" font-size="11" lengthAdjust="spacingAndGlyphs" textLength="319" x="210" y="449.3667">UNIQUE(media_work_id, contributor_id, contributor_role)</text><!--MD5=[48f574f03aa9f209c3e6ebb00fc1f351]
class content--><rect fill="#FEFECE" filter="url(#f1mya9fdoz5of9)" height="105.1563" id="content" style="stroke: #A80036; stroke-width: 1.5;" width="162" x="570.5" y="344.5"/><ellipse cx="622.75" cy="363.4688" fill="#ADD1B2" rx="11" ry="11" style="stroke: #A80036; stroke-width: 1.0;"/><path d="M625.7188,369.1094 Q625.1406,369.4063 624.5,369.5469 Q623.8594,369.7031 623.1563,369.7031 Q620.6563,369.7031 619.3281,368.0625 Q618.0156,366.4063 618.0156,363.2813 Q618.0156,360.1563 619.3281,358.5 Q620.6563,356.8438 623.1563,356.8438 Q623.8594,356.8438 624.5,357 Q625.1563,357.1563 625.7188,357.4531 L625.7188,360.1719 Q625.0938,359.5938 624.5,359.3281 Q623.9063,359.0469 623.2813,359.0469 Q621.9375,359.0469 621.25,360.125 Q620.5625,361.1875 620.5625,363.2813 Q620.5625,365.375 621.25,366.4531 Q621.9375,367.5156 623.2813,367.5156 Q623.9063,367.5156 624.5,367.25 Q625.0938,366.9688 625.7188,366.3906 L625.7188,369.1094 Z "/><text fill="#000000" font-family="sans-serif" font-size="12" font-style="italic" lengthAdjust="spacingAndGlyphs" textLength="46" x="644.75" y="360.6387">«table»</text><text fill="#000000" font-family="sans-serif" font-size="12" lengthAdjust="spacingAndGlyphs" textLength="49" x="643.25" y="374.6074">content</text><line style="stroke: #A80036; stroke-width: 1.5;" x1="571.5" x2="731.5" y1="382.4375" y2="382.4375"/><text fill="#000000" font-family="sans-serif" font-size="11" lengthAdjust="spacingAndGlyphs" textLength="77" x="576.5" y="396.6479">id: UUID «PK»</text><text fill="#000000" font-family="sans-serif" font-size="11" lengthAdjust="spacingAndGlyphs" textLength="150" x="576.5" y="409.4526">media_work_id: UUID «FK»</text><text fill="#000000" font-family="sans-serif" font-size="11" lengthAdjust="spacingAndGlyphs" textLength="63" x="576.5" y="422.2573">title: TEXT?</text><text fill="#000000" font-family="sans-serif" font-size="11" lengthAdjust="spacingAndGlyphs" textLength="105" x="576.5" y="435.062">description: TEXT?</text><line style="stroke: #A80036; stroke-width: 1.5;" x1="571.5" x2="731.5" y1="441.6563" y2="441.6563"/><!--MD5=[5d1a9ee8076010dc62ddec054a37bf42]
class playable_content--><rect fill="#FEFECE" filter="url(#f1mya9fdoz5of9)" height="92.3516" id="playable_content" style="stroke: #A80036; stroke-width: 1.5;" width="168" x="567.5" y="535.5"/><ellipse cx="595.55" cy="554.4688" fill="#ADD1B2" rx="11" ry="11" style="stroke: #A80036; stroke-width: 1.0;"/><path d="M598.5188,560.1094 Q597.9406,560.4063 597.3,560.5469 Q596.6594,560.7031 595.9563,560.7031 Q593.4563,560.7031 592.1281,559.0625 Q590.8156,557.4063 590.8156,554.2813 Q590.8156,551.1563 592.1281,549.5 Q593.4563,547.8438 595.9563,547.8438 Q596.6594,547.8438 597.3,548 Q597.9563,548.1563 598.5188,548.4531 L598.5188,551.1719 Q597.8938,550.5938 597.3,550.3281 Q596.7063,550.0469 596.0813,550.0469 Q594.7375,550.0469 594.05,551.125 Q593.3625,552.1875 593.3625,554.2813 Q593.3625,556.375 594.05,557.4531 Q594.7375,558.5156 596.0813,558.5156 Q596.7063,558.5156 597.3,558.25 Q597.8938,557.9688 598.5188,557.3906 L598.5188,560.1094 Z "/><text fill="#000000" font-family="sans-serif" font-size="12" font-style="italic" lengthAdjust="spacingAndGlyphs" textLength="46" x="642.95" y="551.6387">«table»</text><text fill="#000000" font-family="sans-serif" font-size="12" lengthAdjust="spacingAndGlyphs" textLength="107" x="612.45" y="565.6074">playable_content</text><line style="stroke: #A80036; stroke-width: 1.5;" x1="568.5" x2="734.5" y1="573.4375" y2="573.4375"/><text fill="#000000" font-family="sans-serif" font-size="11" lengthAdjust="spacingAndGlyphs" textLength="156" x="573.5" y="587.6479">content_id: UUID «PK» «FK»</text><text fill="#000000" font-family="sans-serif" font-size="11" lengthAdjust="spacingAndGlyphs" textLength="122" x="573.5" y="600.4526">runtime_minutes: INT</text><text fill="#000000" font-family="sans-serif" font-size="11" lengthAdjust="spacingAndGlyphs" textLength="107" x="573.5" y="613.2573">cut_type: CutType?</text><line style="stroke: #A80036; stroke-width: 1.5;" x1="568.5" x2="734.5" y1="619.8516" y2="619.8516"/><!--MD5=[0d0503032abcfd044ebbd4c79c7561fa]
class audio_track--><rect fill="#FEFECE" filter="url(#f1mya9fdoz5of9)" height="105.1563" id="audio_track" style="stroke: #A80036; stroke-width: 1.5;" width="284" x="230.5" y="726.5"/><ellipse cx="331.75" cy="745.4688" fill="#ADD1B2" rx="11" ry="11" style="stroke: #A80036; stroke-width: 1.0;"/><path d="M334.7188,751.1094 Q334.1406,751.4063 333.5,751.5469 Q332.8594,751.7031 332.1563,751.7031 Q329.6563,751.7031 328.3281,750.0625 Q327.0156,748.4063 327.0156,745.2813 Q327.0156,742.1563 328.3281,740.5 Q329.6563,738.8438 332.1563,738.8438 Q332.8594,738.8438 333.5,739 Q334.1563,739.1563 334.7188,739.4531 L334.7188,742.1719 Q334.0938,741.5938 333.5,741.3281 Q332.9063,741.0469 332.2813,741.0469 Q330.9375,741.0469 330.25,742.125 Q329.5625,743.1875 329.5625,745.2813 Q329.5625,747.375 330.25,748.4531 Q330.9375,749.5156 332.2813,749.5156 Q332.9063,749.5156 333.5,749.25 Q334.0938,748.9688 334.7188,748.3906 L334.7188,751.1094 Z "/><text fill="#000000" font-family="sans-serif" font-size="12" font-style="italic" lengthAdjust="spacingAndGlyphs" textLength="46" x="365.75" y="742.6387">«table»</text><text fill="#000000" font-family="sans-serif" font-size="12" lengthAdjust="spacingAndGlyphs" textLength="73" x="352.25" y="756.6074">audio_track</text><line style="stroke: #A80036; stroke-width: 1.5;" x1="231.5" x2="513.5" y1="764.4375" y2="764.4375"/><text fill="#000000" font-family="sans-serif" font-size="11" lengthAdjust="spacingAndGlyphs" textLength="177" x="236.5" y="778.6479">playable_content_id: UUID «FK»</text><text fill="#000000" font-family="sans-serif" font-size="11" lengthAdjust="spacingAndGlyphs" textLength="88" x="236.5" y="791.4526">language: TEXT</text><text fill="#000000" font-family="sans-serif" font-size="11" lengthAdjust="spacingAndGlyphs" textLength="117" x="236.5" y="804.2573">format: AudioFormat</text><line style="stroke: #A80036; stroke-width: 1.0;" x1="231.5" x2="513.5" y1="810.8516" y2="810.8516"/><text fill="#000000" font-family="sans-serif" font-size="11" lengthAdjust="spacingAndGlyphs" textLength="272" x="236.5" y="825.062">PRIMARY(playable_content_id, language, format)</text><!--MD5=[92b0941a1a3a24f8fb4ff3ecfd2745d0]
class subtitle_track--><rect fill="#FEFECE" filter="url(#f1mya9fdoz5of9)" height="117.9609" id="subtitle_track" style="stroke: #A80036; stroke-width: 1.5;" width="238" x="549.5" y="720"/><ellipse cx="621.75" cy="738.9688" fill="#ADD1B2" rx="11" ry="11" style="stroke: #A80036; stroke-width: 1.0;"/><path d="M624.7188,744.6094 Q624.1406,744.9063 623.5,745.0469 Q622.8594,745.2031 622.1563,745.2031 Q619.6563,745.2031 618.3281,743.5625 Q617.0156,741.9063 617.0156,738.7813 Q617.0156,735.6563 618.3281,734 Q619.6563,732.3438 622.1563,732.3438 Q622.8594,732.3438 623.5,732.5 Q624.1563,732.6563 624.7188,732.9531 L624.7188,735.6719 Q624.0938,735.0938 623.5,734.8281 Q622.9063,734.5469 622.2813,734.5469 Q620.9375,734.5469 620.25,735.625 Q619.5625,736.6875 619.5625,738.7813 Q619.5625,740.875 620.25,741.9531 Q620.9375,743.0156 622.2813,743.0156 Q622.9063,743.0156 623.5,742.75 Q624.0938,742.4688 624.7188,741.8906 L624.7188,744.6094 Z "/><text fill="#000000" font-family="sans-serif" font-size="12" font-style="italic" lengthAdjust="spacingAndGlyphs" textLength="46" x="661.75" y="736.1387">«table»</text><text fill="#000000" font-family="sans-serif" font-size="12" lengthAdjust="spacingAndGlyphs" textLength="85" x="642.25" y="750.1074">subtitle_track</text><line style="stroke: #A80036; stroke-width: 1.5;" x1="550.5" x2="786.5" y1="757.9375" y2="757.9375"/><text fill="#000000" font-family="sans-serif" font-size="11" lengthAdjust="spacingAndGlyphs" textLength="177" x="555.5" y="772.1479">playable_content_id: UUID «FK»</text><text fill="#000000" font-family="sans-serif" font-size="11" lengthAdjust="spacingAndGlyphs" textLength="88" x="555.5" y="784.9526">language: TEXT</text><text fill="#000000" font-family="sans-serif" font-size="11" lengthAdjust="spacingAndGlyphs" textLength="78" x="555.5" y="797.7573">region: TEXT?</text><text fill="#000000" font-family="sans-serif" font-size="11" lengthAdjust="spacingAndGlyphs" textLength="102" x="555.5" y="810.562">type: SubtitleType</text><line style="stroke: #A80036; stroke-width: 1.0;" x1="550.5" x2="786.5" y1="817.1563" y2="817.1563"/><text fill="#000000" font-family="sans-serif" font-size="11" lengthAdjust="spacingAndGlyphs" textLength="226" x="555.5" y="831.3667">PRIMARY(playable_content_id, language)</text><!--MD5=[c6f8f8eba72f86f9c5c6666e8cb970d9]
class movie--><rect fill="#FEFECE" filter="url(#f1mya9fdoz5of9)" height="66.7422" id="movie" style="stroke: #A80036; stroke-width: 1.5;" width="194" x="344.5" y="20.5"/><ellipse cx="416.25" cy="39.4688" fill="#ADD1B2" rx="11" ry="11" style="stroke: #A80036; stroke-width: 1.0;"/><path d="M419.2188,45.1094 Q418.6406,45.4063 418,45.5469 Q417.3594,45.7031 416.6563,45.7031 Q414.1563,45.7031 412.8281,44.0625 Q411.5156,42.4063 411.5156,39.2813 Q411.5156,36.1563 412.8281,34.5 Q414.1563,32.8438 416.6563,32.8438 Q417.3594,32.8438 418,33 Q418.6563,33.1563 419.2188,33.4531 L419.2188,36.1719 Q418.5938,35.5938 418,35.3281 Q417.4063,35.0469 416.7813,35.0469 Q415.4375,35.0469 414.75,36.125 Q414.0625,37.1875 414.0625,39.2813 Q414.0625,41.375 414.75,42.4531 Q415.4375,43.5156 416.7813,43.5156 Q417.4063,43.5156 418,43.25 Q418.5938,42.9688 419.2188,42.3906 L419.2188,45.1094 Z "/><text fill="#000000" font-family="sans-serif" font-size="12" font-style="italic" lengthAdjust="spacingAndGlyphs" textLength="46" x="434.75" y="36.6387">«table»</text><text fill="#000000" font-family="sans-serif" font-size="12" lengthAdjust="spacingAndGlyphs" textLength="36" x="439.75" y="50.6074">movie</text><line style="stroke: #A80036; stroke-width: 1.5;" x1="345.5" x2="537.5" y1="58.4375" y2="58.4375"/><text fill="#000000" font-family="sans-serif" font-size="11" lengthAdjust="spacingAndGlyphs" textLength="182" x="350.5" y="72.6479">media_work_id: UUID «PK» «FK»</text><line style="stroke: #A80036; stroke-width: 1.5;" x1="345.5" x2="537.5" y1="79.2422" y2="79.2422"/><!--MD5=[4d764836f8e8e45ff386eaaaa91b5b37]
class movie_feature--><rect fill="#FEFECE" filter="url(#f1mya9fdoz5of9)" height="105.1563" id="movie_feature" style="stroke: #A80036; stroke-width: 1.5;" width="189" x="6" y="726.5"/><ellipse cx="52.25" cy="745.4688" fill="#ADD1B2" rx="11" ry="11" style="stroke: #A80036; stroke-width: 1.0;"/><path d="M55.2188,751.1094 Q54.6406,751.4063 54,751.5469 Q53.3594,751.7031 52.6563,751.7031 Q50.1563,751.7031 48.8281,750.0625 Q47.5156,748.4063 47.5156,745.2813 Q47.5156,742.1563 48.8281,740.5 Q50.1563,738.8438 52.6563,738.8438 Q53.3594,738.8438 54,739 Q54.6563,739.1563 55.2188,739.4531 L55.2188,742.1719 Q54.5938,741.5938 54,741.3281 Q53.4063,741.0469 52.7813,741.0469 Q51.4375,741.0469 50.75,742.125 Q50.0625,743.1875 50.0625,745.2813 Q50.0625,747.375 50.75,748.4531 Q51.4375,749.5156 52.7813,749.5156 Q53.4063,749.5156 54,749.25 Q54.5938,748.9688 55.2188,748.3906 L55.2188,751.1094 Z "/><text fill="#000000" font-family="sans-serif" font-size="12" font-style="italic" lengthAdjust="spacingAndGlyphs" textLength="46" x="93.75" y="742.6387">«table»</text><text fill="#000000" font-family="sans-serif" font-size="12" lengthAdjust="spacingAndGlyphs" textLength="88" x="72.75" y="756.6074">movie_feature</text><line style="stroke: #A80036; stroke-width: 1.5;" x1="7" x2="194" y1="764.4375" y2="764.4375"/><text fill="#000000" font-family="sans-serif" font-size="11" lengthAdjust="spacingAndGlyphs" textLength="116" x="12" y="778.6479">movie_id: UUID «FK»</text><text fill="#000000" font-family="sans-serif" font-size="11" lengthAdjust="spacingAndGlyphs" textLength="177" x="12" y="791.4526">playable_content_id: UUID «FK»</text><text fill="#000000" font-family="sans-serif" font-size="11" lengthAdjust="spacingAndGlyphs" textLength="85" x="12" y="804.2573">sort_index: INT</text><line style="stroke: #A80036; stroke-width: 1.0;" x1="7" x2="194" y1="810.8516" y2="810.8516"/><text fill="#000000" font-family="sans-serif" font-size="11" lengthAdjust="spacingAndGlyphs" textLength="171" x="12" y="825.062">PRIMARY(movie_id, content_id)</text><!--MD5=[733462b47cf04df2ca7bac97249b98e3]
class tv--><rect fill="#FEFECE" filter="url(#f1mya9fdoz5of9)" height="92.3516" id="tv" style="stroke: #A80036; stroke-width: 1.5;" width="194" x="654.5" y="8"/><ellipse cx="726.25" cy="26.9688" fill="#ADD1B2" rx="11" ry="11" style="stroke: #A80036; stroke-width: 1.0;"/><path d="M729.2188,32.6094 Q728.6406,32.9063 728,33.0469 Q727.3594,33.2031 726.6563,33.2031 Q724.1563,33.2031 722.8281,31.5625 Q721.5156,29.9063 721.5156,26.7813 Q721.5156,23.6563 722.8281,22 Q724.1563,20.3438 726.6563,20.3438 Q727.3594,20.3438 728,20.5 Q728.6563,20.6563 729.2188,20.9531 L729.2188,23.6719 Q728.5938,23.0938 728,22.8281 Q727.4063,22.5469 726.7813,22.5469 Q725.4375,22.5469 724.75,23.625 Q724.0625,24.6875 724.0625,26.7813 Q724.0625,28.875 724.75,29.9531 Q725.4375,31.0156 726.7813,31.0156 Q727.4063,31.0156 728,30.75 Q728.5938,30.4688 729.2188,29.8906 L729.2188,32.6094 Z "/><text fill="#000000" font-family="sans-serif" font-size="12" font-style="italic" lengthAdjust="spacingAndGlyphs" textLength="46" x="744.75" y="24.1387">«table»</text><text fill="#000000" font-family="sans-serif" font-size="12" lengthAdjust="spacingAndGlyphs" textLength="11" x="762.25" y="38.1074">tv</text><line style="stroke: #A80036; stroke-width: 1.5;" x1="655.5" x2="847.5" y1="45.9375" y2="45.9375"/><text fill="#000000" font-family="sans-serif" font-size="11" lengthAdjust="spacingAndGlyphs" textLength="182" x="660.5" y="60.1479">media_work_id: UUID «PK» «FK»</text><text fill="#000000" font-family="sans-serif" font-size="11" lengthAdjust="spacingAndGlyphs" textLength="95" x="660.5" y="72.9526">status: TVStatus</text><text fill="#000000" font-family="sans-serif" font-size="11" lengthAdjust="spacingAndGlyphs" textLength="98" x="660.5" y="85.7573">ended_on: DATE?</text><line style="stroke: #A80036; stroke-width: 1.5;" x1="655.5" x2="847.5" y1="92.3516" y2="92.3516"/><!--MD5=[65239b9aab999f0c561a5ca3aa8c59c9]
class season--><rect fill="#FEFECE" filter="url(#f1mya9fdoz5of9)" height="130.7656" id="season" style="stroke: #A80036; stroke-width: 1.5;" width="189" x="814" y="516"/><ellipse cx="881.25" cy="534.9688" fill="#ADD1B2" rx="11" ry="11" style="stroke: #A80036; stroke-width: 1.0;"/><path d="M884.2188,540.6094 Q883.6406,540.9063 883,541.0469 Q882.3594,541.2031 881.6563,541.2031 Q879.1563,541.2031 877.8281,539.5625 Q876.5156,537.9063 876.5156,534.7813 Q876.5156,531.6563 877.8281,530 Q879.1563,528.3438 881.6563,528.3438 Q882.3594,528.3438 883,528.5 Q883.6563,528.6563 884.2188,528.9531 L884.2188,531.6719 Q883.5938,531.0938 883,530.8281 Q882.4063,530.5469 881.7813,530.5469 Q880.4375,530.5469 879.75,531.625 Q879.0625,532.6875 879.0625,534.7813 Q879.0625,536.875 879.75,537.9531 Q880.4375,539.0156 881.7813,539.0156 Q882.4063,539.0156 883,538.75 Q883.5938,538.4688 884.2188,537.8906 L884.2188,540.6094 Z "/><text fill="#000000" font-family="sans-serif" font-size="12" font-style="italic" lengthAdjust="spacingAndGlyphs" textLength="46" x="901.75" y="532.1387">«table»</text><text fill="#000000" font-family="sans-serif" font-size="12" lengthAdjust="spacingAndGlyphs" textLength="46" x="901.75" y="546.1074">season</text><line style="stroke: #A80036; stroke-width: 1.5;" x1="815" x2="1002" y1="553.9375" y2="553.9375"/><text fill="#000000" font-family="sans-serif" font-size="11" lengthAdjust="spacingAndGlyphs" textLength="77" x="820" y="568.1479">id: UUID «PK»</text><text fill="#000000" font-family="sans-serif" font-size="11" lengthAdjust="spacingAndGlyphs" textLength="92" x="820" y="580.9526">tv_id: UUID «FK»</text><text fill="#000000" font-family="sans-serif" font-size="11" lengthAdjust="spacingAndGlyphs" textLength="118" x="820" y="593.7573">season_number: INT</text><text fill="#000000" font-family="sans-serif" font-size="11" lengthAdjust="spacingAndGlyphs" textLength="63" x="820" y="606.562">title: TEXT?</text><text fill="#000000" font-family="sans-serif" font-size="11" lengthAdjust="spacingAndGlyphs" textLength="105" x="820" y="619.3667">description: TEXT?</text><line style="stroke: #A80036; stroke-width: 1.0;" x1="815" x2="1002" y1="625.9609" y2="625.9609"/><text fill="#000000" font-family="sans-serif" font-size="11" lengthAdjust="spacingAndGlyphs" textLength="177" x="820" y="640.1714">UNIQUE(tv_id, season_number)</text><!--MD5=[77ab79214866798d9cf70993822fb05b]
class episode--><rect fill="#FEFECE" filter="url(#f1mya9fdoz5of9)" height="143.5703" id="episode" style="stroke: #A80036; stroke-width: 1.5;" width="224" x="822.5" y="707"/><ellipse cx="905.25" cy="725.9688" fill="#ADD1B2" rx="11" ry="11" style="stroke: #A80036; stroke-width: 1.0;"/><path d="M908.2188,731.6094 Q907.6406,731.9063 907,732.0469 Q906.3594,732.2031 905.6563,732.2031 Q903.1563,732.2031 901.8281,730.5625 Q900.5156,728.9063 900.5156,725.7813 Q900.5156,722.6563 901.8281,721 Q903.1563,719.3438 905.6563,719.3438 Q906.3594,719.3438 907,719.5 Q907.6563,719.6563 908.2188,719.9531 L908.2188,722.6719 Q907.5938,722.0938 907,721.8281 Q906.4063,721.5469 905.7813,721.5469 Q904.4375,721.5469 903.75,722.625 Q903.0625,723.6875 903.0625,725.7813 Q903.0625,727.875 903.75,728.9531 Q904.4375,730.0156 905.7813,730.0156 Q906.4063,730.0156 907,729.75 Q907.5938,729.4688 908.2188,728.8906 L908.2188,731.6094 Z "/><text fill="#000000" font-family="sans-serif" font-size="12" font-style="italic" lengthAdjust="spacingAndGlyphs" textLength="46" x="927.75" y="723.1387">«table»</text><text fill="#000000" font-family="sans-serif" font-size="12" lengthAdjust="spacingAndGlyphs" textLength="50" x="925.75" y="737.1074">episode</text><line style="stroke: #A80036; stroke-width: 1.5;" x1="823.5" x2="1045.5" y1="744.9375" y2="744.9375"/><text fill="#000000" font-family="sans-serif" font-size="11" lengthAdjust="spacingAndGlyphs" textLength="77" x="828.5" y="759.1479">id: UUID «PK»</text><text fill="#000000" font-family="sans-serif" font-size="11" lengthAdjust="spacingAndGlyphs" textLength="124" x="828.5" y="771.9526">season_id: UUID «FK»</text><text fill="#000000" font-family="sans-serif" font-size="11" lengthAdjust="spacingAndGlyphs" textLength="177" x="828.5" y="784.7573">playable_content_id: UUID «FK»</text><text fill="#000000" font-family="sans-serif" font-size="11" lengthAdjust="spacingAndGlyphs" textLength="127" x="828.5" y="797.562">episode_number: INT?</text><text fill="#000000" font-family="sans-serif" font-size="11" lengthAdjust="spacingAndGlyphs" textLength="83" x="828.5" y="810.3667">air_date: DATE</text><text fill="#000000" font-family="sans-serif" font-size="11" lengthAdjust="spacingAndGlyphs" textLength="105" x="828.5" y="823.1714">role: EpisodeRole?</text><line style="stroke: #A80036; stroke-width: 1.0;" x1="823.5" x2="1045.5" y1="829.7656" y2="829.7656"/><text fill="#000000" font-family="sans-serif" font-size="11" lengthAdjust="spacingAndGlyphs" textLength="212" x="828.5" y="843.9761">UNIQUE(season_id, episode_number)</text><!--MD5=[c70d0026982c74753187fd828a4c968f]
class contributor--><rect fill="#FEFECE" filter="url(#f1mya9fdoz5of9)" height="48" id="contributor" style="stroke: #A80036; stroke-width: 1.5;" width="102" x="318.5" y="195"/><ellipse cx="333.5" cy="211" fill="#ADD1B2" rx="11" ry="11" style="stroke: #A80036; stroke-width: 1.0;"/><path d="M336.4688,216.6406 Q335.8906,216.9375 335.25,217.0781 Q334.6094,217.2344 333.9063,217.2344 Q331.4063,217.2344 330.0781,215.5938 Q328.7656,213.9375 328.7656,210.8125 Q328.7656,207.6875 330.0781,206.0313 Q331.4063,204.375 333.9063,204.375 Q334.6094,204.375 335.25,204.5313 Q335.9063,204.6875 336.4688,204.9844 L336.4688,207.7031 Q335.8438,207.125 335.25,206.8594 Q334.6563,206.5781 334.0313,206.5781 Q332.6875,206.5781 332,207.6563 Q331.3125,208.7188 331.3125,210.8125 Q331.3125,212.9063 332,213.9844 Q332.6875,215.0469 334.0313,215.0469 Q334.6563,215.0469 335.25,214.7813 Q335.8438,214.5 336.4688,213.9219 L336.4688,216.6406 Z "/><text fill="#000000" font-family="sans-serif" font-size="12" lengthAdjust="spacingAndGlyphs" textLength="70" x="347.5" y="215.1543">contributor</text><line style="stroke: #A80036; stroke-width: 1.5;" x1="319.5" x2="419.5" y1="227" y2="227"/><line style="stroke: #A80036; stroke-width: 1.5;" x1="319.5" x2="419.5" y1="235" y2="235"/><!--MD5=[5ef73dc266c42a643b67e9845d2d3e42]
reverse link media_work to contribution--><path d="M517.45,281.29 C493.74,299.67 467.81,319.78 444.38,337.94 " fill="none" id="media_work&lt;-contribution" style="stroke: #A80036; stroke-width: 1.0;"/><polygon fill="#A80036" points="521.54,278.12,511.9765,280.4736,517.5886,281.1838,516.8785,286.7959,521.54,278.12" style="stroke: #A80036; stroke-width: 1.0;"/><text fill="#000000" font-family="sans-serif" font-size="13" lengthAdjust="spacingAndGlyphs" textLength="8" x="504.4103" y="297.8998">1</text><text fill="#000000" font-family="sans-serif" font-size="13" lengthAdjust="spacingAndGlyphs" textLength="23" x="429.1044" y="326.9054">0..*</text><!--MD5=[bc69acde750a0ef1fb41ce7773590716]
reverse link media_work to content--><path d="M616.17,282.93 C622.47,303.1 629.37,325.2 635.39,344.46 " fill="none" id="media_work&lt;-content" style="stroke: #A80036; stroke-width: 1.0;"/><polygon fill="#A80036" points="614.66,278.12,613.5165,287.9023,616.1465,282.8939,621.1548,285.5239,614.66,278.12" style="stroke: #A80036; stroke-width: 1.0;"/><!--MD5=[378a51d7a9e1af673387b76ceb8a041c]
reverse link content to playable_content--><path d="M651.5,454.93 C651.5,480.84 651.5,511.08 651.5,535.39 " fill="none" id="content&lt;-playable_content" style="stroke: #A80036; stroke-width: 1.0;"/><polygon fill="#A80036" points="651.5,449.81,647.5,458.81,651.5,454.81,655.5,458.81,651.5,449.81" style="stroke: #A80036; stroke-width: 1.0;"/><!--MD5=[df91c1d2556f8695b2a9a346fc894770]
reverse link playable_content to audio_track--><path d="M582.91,630.56 C541.41,659.64 488.52,696.71 446.14,726.4 " fill="none" id="playable_content&lt;-audio_track" style="stroke: #A80036; stroke-width: 1.0;"/><polygon fill="#A80036" points="587.14,627.6,577.4735,629.4865,583.0445,630.4683,582.0627,636.0393,587.14,627.6" style="stroke: #A80036; stroke-width: 1.0;"/><text fill="#000000" font-family="sans-serif" font-size="13" lengthAdjust="spacingAndGlyphs" textLength="8" x="568.6724" y="647.8576">1</text><text fill="#000000" font-family="sans-serif" font-size="13" lengthAdjust="spacingAndGlyphs" textLength="23" x="431.4901" y="715.3894">0..*</text><!--MD5=[86b46bc5549241408c6eae4014782abd]
reverse link playable_content to subtitle_track--><path d="M655.9,633.07 C658.21,659.63 661.05,692.31 663.45,719.91 " fill="none" id="playable_content&lt;-subtitle_track" style="stroke: #A80036; stroke-width: 1.0;"/><polygon fill="#A80036" points="655.44,627.84,652.252,637.1586,655.8824,632.8204,660.2206,636.4508,655.44,627.84" style="stroke: #A80036; stroke-width: 1.0;"/><text fill="#000000" font-family="sans-serif" font-size="13" lengthAdjust="spacingAndGlyphs" textLength="8" x="647.4312" y="647.7986">1</text><text fill="#000000" font-family="sans-serif" font-size="13" lengthAdjust="spacingAndGlyphs" textLength="23" x="638.433" y="708.8717">0..*</text><!--MD5=[1b679af2d29bc6812a947d657e6bf80f]
link movie to media_work--><path d="M472.49,87.59 C491.11,107.17 515.41,132.72 537.56,156.02 " fill="none" id="movie-&gt;media_work" style="stroke: #A80036; stroke-width: 1.0;"/><polygon fill="#A80036" points="541.09,159.73,537.7778,150.4548,537.641,156.11,531.9858,155.9732,541.09,159.73" style="stroke: #A80036; stroke-width: 1.0;"/><text fill="#000000" font-family="sans-serif" font-size="13" lengthAdjust="spacingAndGlyphs" textLength="8" x="469.4663" y="107.2689">1</text><text fill="#000000" font-family="sans-serif" font-size="13" lengthAdjust="spacingAndGlyphs" textLength="8" x="526.2207" y="149.0865">1</text><!--MD5=[981abad0ab7efa479b2057aefbd63d23]
reverse link movie to movie_feature--><path d="M384.28,90.59 C357.03,109.21 325.09,133.61 300.5,160 C236.45,228.73 221.46,250.8 186.5,338 C132.84,471.83 111.81,642.38 104.28,726.42 " fill="none" id="movie&lt;-movie_feature" style="stroke: #A80036; stroke-width: 1.0;"/><polygon fill="#A80036" points="388.62,87.65,378.9263,89.3911,384.4819,90.4565,383.4166,96.0121,388.62,87.65" style="stroke: #A80036; stroke-width: 1.0;"/><text fill="#000000" font-family="sans-serif" font-size="13" lengthAdjust="spacingAndGlyphs" textLength="8" x="370.1328" y="107.3399">1</text><text fill="#000000" font-family="sans-serif" font-size="13" lengthAdjust="spacingAndGlyphs" textLength="23" x="80.2426" y="715.4121">0..*</text><!--MD5=[8cc8281e920efc66eee2fa5aab8ce00d]
reverse link playable_content to movie_feature--><path d="M562.2,599.89 C471.59,619.34 328.54,655.09 212.5,707 C200.1,712.55 187.47,719.31 175.37,726.43 " fill="none" id="playable_content&lt;-movie_feature" style="stroke: #A80036; stroke-width: 1.0;"/><polygon fill="#A80036" points="567.28,598.8,557.6445,596.7611,562.3895,599.8408,559.3098,604.5859,567.28,598.8" style="stroke: #A80036; stroke-width: 1.0;"/><text fill="#000000" font-family="sans-serif" font-size="13" lengthAdjust="spacingAndGlyphs" textLength="8" x="551.4229" y="596.73">1</text><text fill="#000000" font-family="sans-serif" font-size="13" lengthAdjust="spacingAndGlyphs" textLength="23" x="160.8853" y="715.4234">0..*</text><!--MD5=[975f161dbd8a3d6bd8c7987f2e830125]
link tv to media_work--><path d="M708.32,100.4 C691.95,117.63 673.01,137.54 655.43,156.03 " fill="none" id="tv-&gt;media_work" style="stroke: #A80036; stroke-width: 1.0;"/><polygon fill="#A80036" points="651.93,159.71,661.0338,155.9523,655.3786,156.0897,655.2413,150.4345,651.93,159.71" style="stroke: #A80036; stroke-width: 1.0;"/><text fill="#000000" font-family="sans-serif" font-size="13" lengthAdjust="spacingAndGlyphs" textLength="8" x="693.3904" y="120.3674">1</text><text fill="#000000" font-family="sans-serif" font-size="13" lengthAdjust="spacingAndGlyphs" textLength="8" x="649.8766" y="149.0642">1</text><!--MD5=[35fe5c7a75031e048953b380210e08f4]
reverse link tv to season--><path d="M766.53,105.29 C795.15,201.12 857.48,409.74 889.17,515.8 " fill="none" id="tv&lt;-season" style="stroke: #A80036; stroke-width: 1.0;"/><polygon fill="#A80036" points="765.02,100.26,763.7614,110.0281,766.4502,105.0511,771.4272,107.7398,765.02,100.26" style="stroke: #A80036; stroke-width: 1.0;"/><text fill="#000000" font-family="sans-serif" font-size="13" lengthAdjust="spacingAndGlyphs" textLength="8" x="758.4778" y="120.5421">1</text><text fill="#000000" font-family="sans-serif" font-size="13" lengthAdjust="spacingAndGlyphs" textLength="23" x="862.798" y="504.8807">0..*</text><!--MD5=[433437d5c57c41081fc500fbb31c1699]
reverse link season to episode--><path d="M917.75,652.03 C920.11,669.79 922.65,688.92 925.03,706.77 " fill="none" id="season&lt;-episode" style="stroke: #A80036; stroke-width: 1.0;"/><polygon fill="#A80036" points="917.09,647.06,914.3074,656.5076,917.7471,652.0166,922.238,655.4563,917.09,647.06" style="stroke: #A80036; stroke-width: 1.0;"/><text fill="#000000" font-family="sans-serif" font-size="13" lengthAdjust="spacingAndGlyphs" textLength="8" x="909.5633" y="666.6801">1</text><text fill="#000000" font-family="sans-serif" font-size="13" lengthAdjust="spacingAndGlyphs" textLength="23" x="899.9658" y="696.0162">0..*</text><!--MD5=[b511d1d68e20510f56413cd1af35acda]
reverse link playable_content to episode--><path d="M721.21,630.66 C754.45,653.62 794.88,681.55 831.57,706.89 " fill="none" id="playable_content&lt;-episode" style="stroke: #A80036; stroke-width: 1.0;"/><polygon fill="#A80036" points="716.78,627.6,721.9105,636.007,720.8935,630.4423,726.4582,629.4254,716.78,627.6" style="stroke: #A80036; stroke-width: 1.0;"/><text fill="#000000" font-family="sans-serif" font-size="13" lengthAdjust="spacingAndGlyphs" textLength="8" x="718.1635" y="647.8576">1</text><text fill="#000000" font-family="sans-serif" font-size="13" lengthAdjust="spacingAndGlyphs" textLength="23" x="796.7694" y="695.7761">0..*</text><!--MD5=[8380106985c29bc7a3396ae9d3b32f61]
reverse link contributor to contribution--><path d="M369.5,248.27 C369.5,272.33 369.5,307.68 369.5,337.77 " fill="none" id="contributor&lt;-contribution" style="stroke: #A80036; stroke-width: 1.0;"/><polygon fill="#A80036" points="369.5,243.01,365.5,252.01,369.5,248.01,373.5,252.01,369.5,243.01" style="stroke: #A80036; stroke-width: 1.0;"/><text fill="#000000" font-family="sans-serif" font-size="13" lengthAdjust="spacingAndGlyphs" textLength="8" x="360.475" y="263.1683">1</text><text fill="#000000" font-family="sans-serif" font-size="13" lengthAdjust="spacingAndGlyphs" textLength="23" x="345.1703" y="327.1312">0..*</text><!--MD5=[9d51903204e5154f3b2b7900a7e36aae]
@startuml
skinparam classAttributeIconSize 0

class media_work <<table>> {
    id: UUID <<PK>>
    title: TEXT
    description: TEXT?
    original_release_date: DATE
    type: TEXT
}

class contribution <<table>> {
    id: UUID <<PK>>
    media_work_id: UUID <<FK>>
    contributor_id: UUID <<FK>>
    contributor_role: TEXT
    - -
    UNIQUE(media_work_id, contributor_id, contributor_role)
}

media_work "1" <- - "0..*" contribution

class content <<table>> {
    id: UUID <<PK>>
    media_work_id: UUID <<FK>>
    title: TEXT?
    description: TEXT?
}

media_work <- - content

class playable_content <<table>> {
    content_id: UUID <<PK>> <<FK>>
    runtime_minutes: INT
    cut_type: CutType?
}

content <- - playable_content

class audio_track <<table>> {
    playable_content_id: UUID <<FK>>
    language: TEXT
    format: AudioFormat
    - -
    PRIMARY(playable_content_id, language, format)
}

playable_content "1" <- - "0..*" audio_track

class subtitle_track <<table>> {
    playable_content_id: UUID <<FK>>
    language: TEXT
    region: TEXT?
    type: SubtitleType
    - -
    PRIMARY(playable_content_id, language)
}

playable_content "1" <- - "0..*" subtitle_track

class movie <<table>> {
    media_work_id: UUID <<PK>> <<FK>>
}

movie "1" - -> "1" media_work

class movie_feature <<table>> {
     movie_id: UUID <<FK>>
     playable_content_id: UUID <<FK>>
     sort_index: INT
     - -
     PRIMARY(movie_id, content_id)
}

movie "1" <- - "0..*" movie_feature
playable_content "1" <- - "0..*" movie_feature

class tv <<table>> {
    media_work_id: UUID <<PK>> <<FK>>
    status: TVStatus
    ended_on: DATE?
}

tv "1" - -> "1" media_work

class season <<table>> {
    id: UUID <<PK>>
    tv_id: UUID <<FK>>
    season_number: INT
    title: TEXT?
    description: TEXT?
    - -
    UNIQUE(tv_id, season_number)
}

tv "1" <- - "0..*" season

class episode <<table>> {
    id: UUID <<PK>>
    season_id: UUID <<FK>>
    playable_content_id: UUID <<FK>>
    episode_number: INT?
    air_date: DATE
    role: EpisodeRole?
    - -
    UNIQUE(season_id, episode_number)
}

season "1" <- - "0..*" episode
playable_content "1" <- - "0..*" episode

contributor "1" <- - "0..*" contribution

@enduml

PlantUML version 1.2020.02(Sun Mar 01 10:22:07 UTC 2020)
(GPL source distribution)
Java Runtime: OpenJDK Runtime Environment
JVM: OpenJDK 64-Bit Server VM
Java Version: 17.0.18+8
Operating System: Linux
Default Encoding: UTF-8
Language: en
Country: null
--></g></svg>