<?xml version="1.0" encoding="UTF-8" standalone="no"?><svg xmlns="http://www.w3.org/2000/svg" xmlns:xlink="http://www.w3.org/1999/xlink" contentScriptType="application/ecmascript" contentStyleType="text/css" height="861px" preserveAspectRatio="none" style="width:1133px;height:861px;" version="1.1" viewBox="0 0 1133 861" width="1133px" zoomAndPan="magnify"><defs><filter height="300%" id="fq1xnksk8bzyd" width="300%" x="-1" y="-1"><feGaussianBlur result="blurOut" stdDeviation="2.0"/><feColorMatrix in="blurOut" result="blurOut2" type="matrix" values="0 0 0 0 0 0 0 0 0 0 0 0 0 0 0 0 0 0 .4 0"/><feOffset dx="4.0" dy="4.0" in="blurOut2" result="blurOut3"/><feBlend in="SourceGraphic" in2="blurOut3" mode="normal"/></filter></defs><g><!--MD5=[a46658d446b05034c23a4bc1a7db0e1a]
class media_work--><rect fill="#FEFECE" filter="url(#fq1xnksk8bzyd)" height="117.9609" id="media_work" style="stroke: #A80036; stroke-width: 1.5;" width="171" x="539" y="160"/><ellipse cx="583.75" cy="178.9688" fill="#ADD1B2" rx="11" ry="11" style="stroke: #A80036; stroke-width: 1.0;"/><path d="M586.7188,184.6094 Q586.1406,184.9063 585.5,185.0469 Q584.8594,185.2031 584.1563,185.2031 Q581.6563,185.2031 580.3281,183.5625 Q579.0156,181.9063 579.0156,178.7813 Q579.0156,175.6563 580.3281,174 Q581.6563,172.3438 584.1563,172.3438 Q584.8594,172.3438 585.5,172.5 Q586.1563,172.6563 586.7188,172.9531 L586.7188,175.6719 Q586.0938,175.0938 585.5,174.8281 Q584.9063,174.5469 584.2813,174.5469 Q582.9375,174.5469 582.25,175.625 Q581.5625,176.6875 581.5625,178.7813 Q581.5625,180.875 582.25,181.9531 Q582.9375,183.0156 584.2813,183.0156 Q584.9063,183.0156 585.5,182.75 Q586.0938,182.4688 586.7188,181.8906 L586.7188,184.6094 Z "/><text fill="#000000" font-family="sans-serif" font-size="12" font-style="italic" lengthAdjust="spacingAndGlyphs" textLength="46" x="617.75" y="176.1387">«table»</text><text fill="#000000" font-family="sans-serif" font-size="12" lengthAdjust="spacingAndGlyphs" textLength="73" x="604.25" y="190.1074">media_work</text><line style="stroke: #A80036; stroke-width: 1.5;" x1="540" x2="709" y1="197.9375" y2="197.9375"/><text fill="#000000" font-family="sans-serif" font-size="11" lengthAdjust="spacingAndGlyphs" textLength="77" x="545" y="212.1479">id: UUID «PK»</text><text fill="#000000" font-family="sans-serif" font-size="11" lengthAdjust="spacingAndGlyphs" textLength="57" x="545" y="224.9526">title: TEXT</text><text fill="#000000" font-family="sans-serif" font-size="11" lengthAdjust="spacingAndGlyphs" textLength="105" x="545" y="237.7573">description: TEXT?</text><text fill="#000000" font-family="sans-serif" font-size="11" lengthAdjust="spacingAndGlyphs" textLength="159" x="545" y="250.562">original_release_date: DATE</text><text fill="#000000" font-family="sans-serif" font-size="11" lengthAdjust="spacingAndGlyphs" textLength="60" x="545" y="263.3667">type: TEXT</text><line style="stroke: #A80036; stroke-width: 1.5;" x1="540" x2="709" y1="269.9609" y2="269.9609"/><!--MD5=[23ff8735309b44f3974df67f35899a34]
class contribution--><rect fill="#FEFECE" filter="url(#fq1xnksk8bzyd)" height="117.9609" id="contribution" style="stroke: #A80036; stroke-width: 1.5;" width="331" x="232" y="338"/><ellipse cx="355.25" cy="356.9688" fill="#ADD1B2" rx="11" ry="11" style="stroke: #A80036; stroke-width: 1.0;"/><path d="M358.2188,362.6094 Q357.6406,362.9063 357,363.0469 Q356.3594,363.2031 355.6563,363.2031 Q353.1563,363.2031 351.8281,361.5625 Q350.5156,359.9063 350.5156,356.7813 Q350.5156,353.6563 351.8281,352 Q353.1563,350.3438 355.6563,350.3438 Q356.3594,350.3438 357,350.5 Q357.6563,350.6563 358.2188,350.9531 L358.2188,353.6719 Q357.5938,353.0938 357,352.8281 Q356.4063,352.5469 355.7813,352.5469 Q354.4375,352.5469 353.75,353.625 Q353.0625,354.6875 353.0625,356.7813 Q353.0625,358.875 353.75,359.9531 Q354.4375,361.0156 355.7813,361.0156 Q356.4063,361.0156 357,360.75 Q357.5938,360.4688 358.2188,359.8906 L358.2188,362.6094 Z "/><text fill="#000000" font-family="sans-serif" font-size="12" font-style="italic" lengthAdjust="spacingAndGlyphs" textLength="46" x="390.75" y="354.1387">«table»</text><text fill="#000000" font-family="sans-serif" font-size="12" lengthAdjust="spacingAndGlyphs" textLength="76" x="375.75" y="368.1074">contribution</text><line style="stroke: #A80036; stroke-width: 1.5;" x1="233" x2="562" y1="375.9375" y2="375.9375"/><text fill="#000000" font-family="sans-serif" font-size="11" lengthAdjust="spacingAndGlyphs" textLength="77" x="238" y="390.1479">id: UUID «PK»</text><text fill="#000000" font-family="sans-serif" font-size="11" lengthAdjust="spacingAndGlyphs" textLength="150" x="238" y="402.9526">media_work_id: UUID «FK»</text><text fill="#000000" font-family="sans-serif" font-size="11" lengthAdjust="spacingAndGlyphs" textLength="144" x="238" y="415.7573">contributor_id: UUID «FK»</text><text fill="#000000" font-family="sans-serif" font-size="11" lengthAdjust="spacingAndGlyphs" textLength="126" x="238" y="428.562">contributor_role: TEXT</text><line style="stroke: #A80036; stroke-width: 1.0;" x1="233" x2="562" y1="435.1563" y2="435.1563"/><text fill="#000000" font-family="sans-serif" font-size="11" lengthAdjust="spacingAndGlyphs" textLength="319" x="238" y="449.3667">UNIQUE(media_work_id, contributor_id, contributor_role)</text><!--MD5=[48f574f03aa9f209c3e6ebb00fc1f351]
class content--><rect fill="#FEFECE" filter="url(#fq1xnksk8bzyd)" height="105.1563" id="content" style="stroke: #A80036; stroke-width: 1.5;" width="162" x="598.5" y="344.5"/><ellipse cx="650.75" cy="363.4688" fill="#ADD1B2" rx="11" ry="11" style="stroke: #A80036; stroke-width: 1.0;"/><path d="M653.7188,369.1094 Q653.1406,369.4063 652.5,369.5469 Q651.8594,369.7031 651.1563,369.7031 Q648.6563,369.7031 647.3281,368.0625 Q646.0156,366.4063 646.0156,363.2813 Q646.0156,360.1563 647.3281,358.5 Q648.6563,356.8438 651.1563,356.8438 Q651.8594,356.8438 652.5,357 Q653.1563,357.1563 653.7188,357.4531 L653.7188,360.1719 Q653.0938,359.5938 652.5,359.3281 Q651.9063,359.0469 651.2813,359.0469 Q649.9375,359.0469 649.25,360.125 Q648.5625,361.1875 648.5625,363.2813 Q648.5625,365.375 649.25,366.4531 Q649.9375,367.5156 651.2813,367.5156 Q651.9063,367.5156 652.5,367.25 Q653.0938,366.9688 653.7188,366.3906 L653.7188,369.1094 Z "/><text fill="#000000" font-family="sans-serif" font-size="12" font-style="italic" lengthAdjust="spacingAndGlyphs" textLength="46" x="672.75" y="360.6387">«table»</text><text fill="#000000" font-family="sans-serif" font-size="12" lengthAdjust="spacingAndGlyphs" textLength="49" x="671.25" y="374.6074">content</text><line style="stroke: #A80036; stroke-width: 1.5;" x1="599.5" x2="759.5" y1="382.4375" y2="382.4375"/><text fill="#000000" font-family="sans-serif" font-size="11" lengthAdjust="spacingAndGlyphs" textLength="77" x="604.5" y="396.6479">id: UUID «PK»</text><text fill="#000000" font-family="sans-serif" font-size="11" lengthAdjust="spacingAndGlyphs" textLength="150" x="604.5" y="409.4526">media_work_id: UUID «FK»</text><text fill="#000000" font-family="sans-serif" font-size="11" lengthAdjust="spacingAndGlyphs" textLength="63" x="604.5" y="422.2573">title: TEXT?</text><text fill="#000000" font-family="sans-serif" font-size="11" lengthAdjust="spacingAndGlyphs" textLength="105" x="604.5" y="435.062">description: TEXT?</text><line style="stroke: #A80036; stroke-width: 1.5;" x1="599.5" x2="759.5" y1="441.6563" y2="441.6563"/><!--MD5=[5d1a9ee8076010dc62ddec054a37bf42]
class playable_content--><rect fill="#FEFECE" filter="url(#fq1xnksk8bzyd)" height="92.3516" id="playable_content" style="stroke: #A80036; stroke-width: 1.5;" width="168" x="595.5" y="535.5"/><ellipse cx="623.55" cy="554.4688" fill="#ADD1B2" rx="11" ry="11" style="stroke: #A80036; stroke-width: 1.0;"/><path d="M626.5188,560.1094 Q625.9406,560.4063 625.3,560.5469 Q624.6594,560.7031 623.9563,560.7031 Q621.4563,560.7031 620.1281,559.0625 Q618.8156,557.4063 618.8156,554.2813 Q618.8156,551.1563 620.1281,549.5 Q621.4563,547.8438 623.9563,547.8438 Q624.6594,547.8438 625.3,548 Q625.9563,548.1563 626.5188,548.4531 L626.5188,551.1719 Q625.8938,550.5938 625.3,550.3281 Q624.7063,550.0469 624.0813,550.0469 Q622.7375,550.0469 622.05,551.125 Q621.3625,552.1875 621.3625,554.2813 Q621.3625,556.375 622.05,557.4531 Q622.7375,558.5156 624.0813,558.5156 Q624.7063,558.5156 625.3,558.25 Q625.8938,557.9688 626.5188,557.3906 L626.5188,560.1094 Z "/><text fill="#000000" font-family="sans-serif" font-size="12" font-style="italic" lengthAdjust="spacingAndGlyphs" textLength="46" x="670.95" y="551.6387">«table»</text><text fill="#000000" font-family="sans-serif" font-size="12" lengthAdjust="spacingAndGlyphs" textLength="107" x="640.45" y="565.6074">playable_content</text><line style="stroke: #A80036; stroke-width: 1.5;" x1="596.5" x2="762.5" y1="573.4375" y2="573.4375"/><text fill="#000000" font-family="sans-serif" font-size="11" lengthAdjust="spacingAndGlyphs" textLength="156" x="601.5" y="587.6479">content_id: UUID «PK» «FK»</text><text fill="#000000" font-family="sans-serif" font-size="11" lengthAdjust="spacingAndGlyphs" textLength="122" x="601.5" y="600.4526">runtime_minutes: INT</text><text fill="#000000" font-family="sans-serif" font-size="11" lengthAdjust="spacingAndGlyphs" textLength="107" x="601.5" y="613.2573">cut_type: CutType?</text><line style="stroke: #A80036; stroke-width: 1.5;" x1="596.5" x2="762.5" y1="619.8516" y2="619.8516"/><!--MD5=[0d0503032abcfd044ebbd4c79c7561fa]
class audio_track--><rect fill="#FEFECE" filter="url(#fq1xnksk8bzyd)" height="105.1563" id="audio_track" style="stroke: #A80036; stroke-width: 1.5;" width="284" x="230.5" y="726.5"/><ellipse cx="331.75" cy="745.4688" fill="#ADD1B2" rx="11" ry="11" style="stroke: #A80036; stroke-width: 1.0;"/><path d="M334.7188,751.1094 Q334.1406,751.4063 333.5,751.5469 Q332.8594,751.7031 332.1563,751.7031 Q329.6563,751.7031 328.3281,750.0625 Q327.0156,748.4063 327.0156,745.2813 Q327.0156,742.1563 328.3281,740.5 Q329.6563,738.8438 332.1563,738.8438 Q332.8594,738.8438 333.5,739 Q334.1563,739.1563 334.7188,739.4531 L334.7188,742.1719 Q334.0938,741.5938 333.5,741.3281 Q332.9063,741.0469 332.2813,741.0469 Q330.9375,741.0469 330.25,742.125 Q329.5625,743.1875 329.5625,745.2813 Q329.5625,747.375 330.25,748.4531 Q330.9375,749.5156 332.2813,749.5156 Q332.9063,749.5156 333.5,749.25 Q334.0938,748.9688 334.7188,748.3906 L334.7188,751.1094 Z "/><text fill="#000000" font-family="sans-serif" font-size="12" font-style="italic" lengthAdjust="spacingAndGlyphs" textLength="46" x="365.75" y="742.6387">«table»</text><text fill="#000000" font-family="sans-serif" font-size="12" lengthAdjust="spacingAndGlyphs" textLength="73" x="352.25" y="756.6074">audio_track</text><line style="stroke: #A80036; stroke-width: 1.5;" x1="231.5" x2="513.5" y1="764.4375" y2="764.4375"/><text fill="#000000" font-family="sans-serif" font-size="11" lengthAdjust="spacingAndGlyphs" textLength="177" x="236.5" y="778.6479">playable_content_id: UUID «FK»</text><text fill="#000000" font-family="sans-serif" font-size="11" lengthAdjust="spacingAndGlyphs" textLength="88" x="236.5" y="791.4526">language: TEXT</text><text fill="#000000" font-family="sans-serif" font-size="11" lengthAdjust="spacingAndGlyphs" textLength="117" x="236.5" y="804.2573">format: AudioFormat</text><line style="stroke: #A80036; stroke-width: 1.0;" x1="231.5" x2="513.5" y1="810.8516" y2="810.8516"/><text fill="#000000" font-family="sans-serif" font-size="11" lengthAdjust="spacingAndGlyphs" textLength="272" x="236.5" y="825.062">PRIMARY(playable_content_id, language, format)</text><!--MD5=[92b0941a1a3a24f8fb4ff3ecfd2745d0]
class subtitle_track--><rect fill="#FEFECE" filter="url(#fq1xnksk8bzyd)" height="117.9609" id="subtitle_track" style="stroke: #A80036; stroke-width: 1.5;" width="314" x="549.5" y="720"/><ellipse cx="659.75" cy="738.9688" fill="#ADD1B2" rx="11" ry="11" style="stroke: #A80036; stroke-width: 1.0;"/><path d="M662.7188,744.6094 Q662.1406,744.9063 661.5,745.0469 Q660.8594,745.2031 660.1563,745.2031 Q657.6563,745.2031 656.3281,743.5625 Q655.0156,741.9063 655.0156,738.7813 Q655.0156,735.6563 656.3281,734 Q657.6563,732.3438 660.1563,732.3438 Q660.8594,732.3438 661.5,732.5 Q662.1563,732.6563 662.7188,732.9531 L662.7188,735.6719 Q662.0938,735.0938 661.5,734.8281 Q660.9063,734.5469 660.2813,734.5469 Q658.9375,734.5469 658.25,735.625 Q657.5625,736.6875 657.5625,738.7813 Q657.5625,740.875 658.25,741.9531 Q658.9375,743.0156 660.2813,743.0156 Q660.9063,743.0156 661.5,742.75 Q662.0938,742.4688 662.7188,741.8906 L662.7188,744.6094 Z "/><text fill="#000000" font-family="sans-serif" font-size="12" font-style="italic" lengthAdjust="spacingAndGlyphs" textLength="46" x="699.75" y="736.1387">«table»</text><text fill="#000000" font-family="sans-serif" font-size="12" lengthAdjust="spacingAndGlyphs" textLength="85" x="680.25" y="750.1074">subtitle_track</text><line style="stroke: #A80036; stroke-width: 1.5;" x1="550.5" x2="862.5" y1="757.9375" y2="757.9375"/><text fill="#000000" font-family="sans-serif" font-size="11" lengthAdjust="spacingAndGlyphs" textLength="177" x="555.5" y="772.1479">playable_content_id: UUID «FK»</text><text fill="#000000" font-family="sans-serif" font-size="11" lengthAdjust="spacingAndGlyphs" textLength="88" x="555.5" y="784.9526">language: TEXT</text><text fill="#000000" font-family="sans-serif" font-size="11" lengthAdjust="spacingAndGlyphs" textLength="78" x="555.5" y="797.7573">region: TEXT?</text><text fill="#000000" font-family="sans-serif" font-size="11" lengthAdjust="spacingAndGlyphs" textLength="102" x="555.5" y="810.562">type: SubtitleType</text><line style="stroke: #A80036; stroke-width: 1.0;" x1="550.5" x2="862.5" y1="817.1563" y2="817.1563"/><text fill="#000000" font-family="sans-serif" font-size="11" lengthAdjust="spacingAndGlyphs" textLength="302" x="555.5" y="831.3667">PRIMARY(playable_content_id, language, region, type)</text><!--MD5=[c6f8f8eba72f86f9c5c6666e8cb970d9]
class movie--><rect fill="#FEFECE" filter="url(#fq1xnksk8bzyd)" height="66.7422" id="movie" style="stroke: #A80036; stroke-width: 1.5;" width="194" x="372.5" y="20.5"/><ellipse cx="444.25" cy="39.4688" fill="#ADD1B2" rx="11" ry="11" style="stroke: #A80036; stroke-width: 1.0;"/><path d="M447.2188,45.1094 Q446.6406,45.4063 446,45.5469 Q445.3594,45.7031 444.6563,45.7031 Q442.1563,45.7031 440.8281,44.0625 Q439.5156,42.4063 439.5156,39.2813 Q439.5156,36.1563 440.8281,34.5 Q442.1563,32.8438 444.6563,32.8438 Q445.3594,32.8438 446,33 Q446.6563,33.1563 447.2188,33.4531 L447.2188,36.1719 Q446.5938,35.5938 446,35.3281 Q445.4063,35.0469 444.7813,35.0469 Q443.4375,35.0469 442.75,36.125 Q442.0625,37.1875 442.0625,39.2813 Q442.0625,41.375 442.75,42.4531 Q443.4375,43.5156 444.7813,43.5156 Q445.4063,43.5156 446,43.25 Q446.5938,42.9688 447.2188,42.3906 L447.2188,45.1094 Z "/><text fill="#000000" font-family="sans-serif" font-size="12" font-style="italic" lengthAdjust="spacingAndGlyphs" textLength="46" x="462.75" y="36.6387">«table»</text><text fill="#000000" font-family="sans-serif" font-size="12" lengthAdjust="spacingAndGlyphs" textLength="36" x="467.75" y="50.6074">movie</text><line style="stroke: #A80036; stroke-width: 1.5;" x1="373.5" x2="565.5" y1="58.4375" y2="58.4375"/><text fill="#000000" font-family="sans-serif" font-size="11" lengthAdjust="spacingAndGlyphs" textLength="182" x="378.5" y="72.6479">media_work_id: UUID «PK» «FK»</text><line style="stroke: #A80036; stroke-width: 1.5;" x1="373.5" x2="565.5" y1="79.2422" y2="79.2422"/><!--MD5=[4d764836f8e8e45ff386eaaaa91b5b37]
class movie_feature--><rect fill="#FEFECE" filter="url(#fq1xnksk8bzyd)" height="105.1563" id="movie_feature" style="stroke: #A80036; stroke-width: 1.5;" width="189" x="6" y="726.5"/><ellipse cx="52.25" cy="745.4688" fill="#ADD1B2" rx="11" ry="11" style="stroke: #A80036; stroke-width: 1.0;"/><path d="M55.2188,751.1094 Q54.6406,751.4063 54,751.5469 Q53.3594,751.7031 52.6563,751.7031 Q50.1563,751.7031 48.8281,750.0625 Q47.5156,748.4063 47.5156,745.2813 Q47.5156,742.1563 48.8281,740.5 Q50.1563,738.8438 52.6563,738.8438 Q53.3594,738.8438 54,739 Q54.6563,739.1563 55.2188,739.4531 L55.2188,742.1719 Q54.5938,741.5938 54,741.3281 Q53.4063,741.0469 52.7813,741.0469 Q51.4375,741.0469 50.75,742.125 Q50.0625,743.1875 50.0625,745.2813 Q50.0625,747.375 50.75,748.4531 Q51.4375,749.5156 52.7813,749.5156 Q53.4063,749.5156 54,749.25 Q54.5938,748.9688 55.2188,748.3906 L55.2188,751.1094 Z "/><text fill="#000000" font-family="sans-serif" font-size="12" font-style="italic" lengthAdjust="spacingAndGlyphs" textLength="46" x="93.75" y="742.6387">«table»</text><text fill="#000000" font-family="sans-serif" font-size="12" lengthAdjust="spacingAndGlyphs" textLength="88" x="72.75" y="756.6074">movie_feature</text><line style="stroke: #A80036; stroke-width: 1.5;" x1="7" x2="194" y1="764.4375" y2="764.4375"/><text fill="#000000" font-family="sans-serif" font-size="11" lengthAdjust="spacingAndGlyphs" textLength="116" x="12" y="778.6479">movie_id: UUID «FK»</text><text fill="#000000" font-family="sans-serif" font-size="11" lengthAdjust="spacingAndGlyphs" textLength="177" x="12" y="791.4526">playable_content_id: UUID «FK»</text><text fill="#000000" font-family="sans-serif" font-size="11" lengthAdjust="spacingAndGlyphs" textLength="85" x="12" y="804.2573">sort_index: INT</text><line style="stroke: #A80036; stroke-width: 1.0;" x1="7" x2="194" y1="810.8516" y2="810.8516"/><text fill="#000000" font-family="sans-serif" font-size="11" lengthAdjust="spacingAndGlyphs" textLength="171" x="12" y="825.062">PRIMARY(movie_id, content_id)</text><!--MD5=[733462b47cf04df2ca7bac97249b98e3]
class tv--><rect fill="#FEFECE" filter="url(#fq1xnksk8bzyd)" height="92.3516" id="tv" style="stroke: #A80036; stroke-width: 1.5;" width="194" x="682.5" y="8"/><ellipse cx="754.25" cy="26.9688" fill="#ADD1B2" rx="11" ry="11" style="stroke: #A80036; stroke-width: 1.0;"/><path d="M757.2188,32.6094 Q756.6406,32.9063 756,33.0469 Q755.3594,33.2031 754.6563,33.2031 Q752.1563,33.2031 750.8281,31.5625 Q749.5156,29.9063 749.5156,26.7813 Q749.5156,23.6563 750.8281,22 Q752.1563,20.3438 754.6563,20.3438 Q755.3594,20.3438 756,20.5 Q756.6563,20.6563 757.2188,20.9531 L757.2188,23.6719 Q756.5938,23.0938 756,22.8281 Q755.4063,22.5469 754.7813,22.5469 Q753.4375,22.5469 752.75,23.625 Q752.0625,24.6875 752.0625,26.7813 Q752.0625,28.875 752.75,29.9531 Q753.4375,31.0156 754.7813,31.0156 Q755.4063,31.0156 756,30.75 Q756.5938,30.4688 757.2188,29.8906 L757.2188,32.6094 Z "/><text fill="#000000" font-family="sans-serif" font-size="12" font-style="italic" lengthAdjust="spacingAndGlyphs" textLength="46" x="772.75" y="24.1387">«table»</text><text fill="#000000" font-family="sans-serif" font-size="12" lengthAdjust="spacingAndGlyphs" textLength="11" x="790.25" y="38.1074">tv</text><line style="stroke: #A80036; stroke-width: 1.5;" x1="683.5" x2="875.5" y1="45.9375" y2="45.9375"/><text fill="#000000" font-family="sans-serif" font-size="11" lengthAdjust="spacingAndGlyphs" textLength="182" x="688.5" y="60.1479">media_work_id: UUID «PK» «FK»</text><text fill="#000000" font-family="sans-serif" font-size="11" lengthAdjust="spacingAndGlyphs" textLength="95" x="688.5" y="72.9526">status: TVStatus</text><text fill="#000000" font-family="sans-serif" font-size="11" lengthAdjust="spacingAndGlyphs" textLength="98" x="688.5" y="85.7573">ended_on: DATE?</text><line style="stroke: #A80036; stroke-width: 1.5;" x1="683.5" x2="875.5" y1="92.3516" y2="92.3516"/><!--MD5=[65239b9aab999f0c561a5ca3aa8c59c9]
class season--><rect fill="#FEFECE" filter="url(#fq1xnksk8bzyd)" height="130.7656" id="season" style="stroke: #A80036; stroke-width: 1.5;" width="189" x="870" y="516"/><ellipse cx="937.25" cy="534.9688" fill="#ADD1B2" rx="11" ry="11" style="stroke: #A80036; stroke-width: 1.0;"/><path d="M940.2188,540.6094 Q939.6406,540.9063 939,541.0469 Q938.3594,541.2031 937.6563,541.2031 Q935.1563,541.2031 933.8281,539.5625 Q932.5156,537.9063 932.5156,534.7813 Q932.5156,531.6563 933.8281,530 Q935.1563,528.3438 937.6563,528.3438 Q938.3594,528.3438 939,528.5 Q939.6563,528.6563 940.2188,528.9531 L940.2188,531.6719 Q939.5938,531.0938 939,530.8281 Q938.4063,530.5469 937.7813,530.5469 Q936.4375,530.5469 935.75,531.625 Q935.0625,532.6875 935.0625,534.7813 Q935.0625,536.875 935.75,537.9531 Q936.4375,539.0156 937.7813,539.0156 Q938.4063,539.0156 939,538.75 Q939.5938,538.4688 940.2188,537.8906 L940.2188,540.6094 Z "/><text fill="#000000" font-family="sans-serif" font-size="12" font-style="italic" lengthAdjust="spacingAndGlyphs" textLength="46" x="957.75" y="532.1387">«table»</text><text fill="#000000" font-family="sans-serif" font-size="12" lengthAdjust="spacingAndGlyphs" textLength="46" x="957.75" y="546.1074">season</text><line style="stroke: #A80036; stroke-width: 1.5;" x1="871" x2="1058" y1="553.9375" y2="553.9375"/><text fill="#000000" font-family="sans-serif" font-size="11" lengthAdjust="spacingAndGlyphs" textLength="77" x="876" y="568.1479">id: UUID «PK»</text><text fill="#000000" font-family="sans-serif" font-size="11" lengthAdjust="spacingAndGlyphs" textLength="92" x="876" y="580.9526">tv_id: UUID «FK»</text><text fill="#000000" font-family="sans-serif" font-size="11" lengthAdjust="spacingAndGlyphs" textLength="118" x="876" y="593.7573">season_number: INT</text><text fill="#000000" font-family="sans-serif" font-size="11" lengthAdjust="spacingAndGlyphs" textLength="63" x="876" y="606.562">title: TEXT?</text><text fill="#000000" font-family="sans-serif" font-size="11" lengthAdjust="spacingAndGlyphs" textLength="105" x="876" y="619.3667">description: TEXT?</text><line style="stroke: #A80036; stroke-width: 1.0;" x1="871" x2="1058" y1="625.9609" y2="625.9609"/><text fill="#000000" font-family="sans-serif" font-size="11" lengthAdjust="spacingAndGlyphs" textLength="177" x="876" y="640.1714">UNIQUE(tv_id, season_number)</text><!--MD5=[77ab79214866798d9cf70993822fb05b]
class episode--><rect fill="#FEFECE" filter="url(#fq1xnksk8bzyd)" height="143.5703" id="episode" style="stroke: #A80036; stroke-width: 1.5;" width="224" x="898.5" y="707"/><ellipse cx="981.25" cy="725.9688" fill="#ADD1B2" rx="11" ry="11" style="stroke: #A80036; stroke-width: 1.0;"/><path d="M984.2188,731.6094 Q983.6406,731.9063 983,732.0469 Q982.3594,732.2031 981.6563,732.2031 Q979.1563,732.2031 977.8281,730.5625 Q976.5156,728.9063 976.5156,725.7813 Q976.5156,722.6563 977.8281,721 Q979.1563,719.3438 981.6563,719.3438 Q982.3594,719.3438 983,719.5 Q983.6563,719.6563 984.2188,719.9531 L984.2188,722.6719 Q983.5938,722.0938 983,721.8281 Q982.4063,721.5469 981.7813,721.5469 Q980.4375,721.5469 979.75,722.625 Q979.0625,723.6875 979.0625,725.7813 Q979.0625,727.875 979.75,728.9531 Q980.4375,730.0156 981.7813,730.0156 Q982.4063,730.0156 983,729.75 Q983.5938,729.4688 984.2188,728.8906 L984.2188,731.6094 Z "/><text fill="#000000" font-family="sans-serif" font-size="12" font-style="italic" lengthAdjust="spacingAndGlyphs" textLength="46" x="1003.75" y="723.1387">«table»</text><text fill="#000000" font-family="sans-serif" font-size="12" lengthAdjust="spacingAndGlyphs" textLength="50" x="1001.75" y="737.1074">episode</text><line style="stroke: #A80036; stroke-width: 1.5;" x1="899.5" x2="1121.5" y1="744.9375" y2="744.9375"/><text fill="#000000" font-family="sans-serif" font-size="11" lengthAdjust="spacingAndGlyphs" textLength="77" x="904.5" y="759.1479">id: UUID «PK»</text><text fill="#000000" font-family="sans-serif" font-size="11" lengthAdjust="spacingAndGlyphs" textLength="124" x="904.5" y="771.9526">season_id: UUID «FK»</text><text fill="#000000" font-family="sans-serif" font-size="11" lengthAdjust="spacingAndGlyphs" textLength="177" x="904.5" y="784.7573">playable_content_id: UUID «FK»</text><text fill="#000000" font-family="sans-serif" font-size="11" lengthAdjust="spacingAndGlyphs" textLength="127" x="904.5" y="797.562">episode_number: INT?</text><text fill="#000000" font-family="sans-serif" font-size="11" lengthAdjust="spacingAndGlyphs" textLength="83" x="904.5" y="810.3667">air_date: DATE</text><text fill="#000000" font-family="sans-serif" font-size="11" lengthAdjust="spacingAndGlyphs" textLength="105" x="904.5" y="823.1714">role: EpisodeRole?</text><line style="stroke: #A80036; stroke-width: 1.0;" x1="899.5" x2="1121.5" y1="829.7656" y2="829.7656"/><text fill="#000000" font-family="sans-serif" font-size="11" lengthAdjust="spacingAndGlyphs" textLength="212" x="904.5" y="843.9761">UNIQUE(season_id, episode_number)</text><!--MD5=[c70d0026982c74753187fd828a4c968f]
class contributor--><rect fill="#FEFECE" filter="url(#fq1xnksk8bzyd)" height="48" id="contributor" style="stroke: #A80036; stroke-width: 1.5;" width="102" x="346.5" y="195"/><ellipse cx="361.5" cy="211" fill="#ADD1B2" rx="11" ry="11" style="stroke: #A80036; stroke-width: 1.0;"/><path d="M364.4688,216.6406 Q363.8906,216.9375 363.25,217.0781 Q362.6094,217.2344 361.9063,217.2344 Q359.4063,217.2344 358.0781,215.5938 Q356.7656,213.9375 356.7656,210.8125 Q356.7656,207.6875 358.0781,206.0313 Q359.4063,204.375 361.9063,204.375 Q362.6094,204.375 363.25,204.5313 Q363.9063,204.6875 364.4688,204.9844 L364.4688,207.7031 Q363.8438,207.125 363.25,206.8594 Q362.6563,206.5781 362.0313,206.5781 Q360.6875,206.5781 360,207.6563 Q359.3125,208.7188 359.3125,210.8125 Q359.3125,212.9063 360,213.9844 Q360.6875,215.0469 362.0313,215.0469 Q362.6563,215.0469 363.25,214.7813 Q363.8438,214.5 364.4688,213.9219 L364.4688,216.6406 Z "/><text fill="#000000" font-family="sans-serif" font-size="12" lengthAdjust="spacingAndGlyphs" textLength="70" x="375.5" y="215.1543">contributor</text><line style="stroke: #A80036; stroke-width: 1.5;" x1="347.5" x2="447.5" y1="227" y2="227"/><line style="stroke: #A80036; stroke-width: 1.5;" x1="347.5" x2="447.5" y1="235" y2="235"/><!--MD5=[5ef73dc266c42a643b67e9845d2d3e42]
reverse link media_work to contribution--><path d="M545.45,281.29 C521.74,299.67 495.81,319.78 472.38,337.94 " fill="none" id="media_work&lt;-contribution" style="stroke: #A80036; stroke-width: 1.0;"/><polygon fill="#A80036" points="549.54,278.12,539.9765,280.4736,545.5886,281.1838,544.8785,286.7959,549.54,278.12" style="stroke: #A80036; stroke-width: 1.0;"/><text fill="#000000" font-family="sans-serif" font-size="13" lengthAdjust="spacingAndGlyphs" textLength="8" x="532.4102" y="297.8998">1</text><text fill="#000000" font-family="sans-serif" font-size="13" lengthAdjust="spacingAndGlyphs" textLength="23" x="457.1044" y="326.9054">0..*</text><!--MD5=[bc69acde750a0ef1fb41ce7773590716]
reverse link media_work to content--><path d="M644.17,282.93 C650.47,303.1 657.37,325.2 663.39,344.46 " fill="none" id="media_work&lt;-content" style="stroke: #A80036; stroke-width: 1.0;"/><polygon fill="#A80036" points="642.66,278.12,641.5165,287.9023,644.1465,282.8939,649.1548,285.5239,642.66,278.12" style="stroke: #A80036; stroke-width: 1.0;"/><!--MD5=[378a51d7a9e1af673387b76ceb8a041c]
reverse link content to playable_content--><path d="M679.5,454.93 C679.5,480.84 679.5,511.08 679.5,535.39 " fill="none" id="content&lt;-playable_content" style="stroke: #A80036; stroke-width: 1.0;"/><polygon fill="#A80036" points="679.5,449.81,675.5,458.81,679.5,454.81,683.5,458.81,679.5,449.81" style="stroke: #A80036; stroke-width: 1.0;"/><!--MD5=[df91c1d2556f8695b2a9a346fc894770]
reverse link playable_content to audio_track--><path d="M604.3,630.39 C558.6,659.49 500.25,696.65 453.53,726.4 " fill="none" id="playable_content&lt;-audio_track" style="stroke: #A80036; stroke-width: 1.0;"/><polygon fill="#A80036" points="608.68,627.6,598.9405,629.0636,604.4635,630.2872,603.2399,635.8101,608.68,627.6" style="stroke: #A80036; stroke-width: 1.0;"/><text fill="#000000" font-family="sans-serif" font-size="13" lengthAdjust="spacingAndGlyphs" textLength="8" x="589.2232" y="647.8576">1</text><text fill="#000000" font-family="sans-serif" font-size="13" lengthAdjust="spacingAndGlyphs" textLength="23" x="439.8731" y="715.3894">0..*</text><!--MD5=[86b46bc5549241408c6eae4014782abd]
reverse link playable_content to subtitle_track--><path d="M686.48,633.07 C690.15,659.63 694.67,692.31 698.48,719.91 " fill="none" id="playable_content&lt;-subtitle_track" style="stroke: #A80036; stroke-width: 1.0;"/><polygon fill="#A80036" points="685.76,627.84,683.0309,637.3032,686.4451,632.7928,690.9555,636.207,685.76,627.84" style="stroke: #A80036; stroke-width: 1.0;"/><text fill="#000000" font-family="sans-serif" font-size="13" lengthAdjust="spacingAndGlyphs" textLength="8" x="678.0919" y="647.7986">1</text><text fill="#000000" font-family="sans-serif" font-size="13" lengthAdjust="spacingAndGlyphs" textLength="23" x="673.101" y="708.8717">0..*</text><!--MD5=[1b679af2d29bc6812a947d657e6bf80f]
link movie to media_work--><path d="M500.49,87.59 C519.11,107.17 543.41,132.72 565.56,156.02 " fill="none" id="movie-&gt;media_work" style="stroke: #A80036; stroke-width: 1.0;"/><polygon fill="#A80036" points="569.09,159.73,565.7778,150.4548,565.641,156.11,559.9858,155.9732,569.09,159.73" style="stroke: #A80036; stroke-width: 1.0;"/><text fill="#000000" font-family="sans-serif" font-size="13" lengthAdjust="spacingAndGlyphs" textLength="8" x="497.4663" y="107.2689">1</text><text fill="#000000" font-family="sans-serif" font-size="13" lengthAdjust="spacingAndGlyphs" textLength="8" x="554.2207" y="149.0865">1</text><!--MD5=[981abad0ab7efa479b2057aefbd63d23]
reverse link movie to movie_feature--><path d="M412.28,90.59 C385.03,109.21 353.09,133.61 328.5,160 C172.57,327.33 121.12,610.4 106.07,726.24 " fill="none" id="movie&lt;-movie_feature" style="stroke: #A80036; stroke-width: 1.0;"/><polygon fill="#A80036" points="416.62,87.65,406.9263,89.3911,412.4819,90.4565,411.4166,96.0121,416.62,87.65" style="stroke: #A80036; stroke-width: 1.0;"/><text fill="#000000" font-family="sans-serif" font-size="13" lengthAdjust="spacingAndGlyphs" textLength="8" x="398.1328" y="107.3399">1</text><text fill="#000000" font-family="sans-serif" font-size="13" lengthAdjust="spacingAndGlyphs" textLength="23" x="82.3102" y="715.5846">0..*</text><!--MD5=[8cc8281e920efc66eee2fa5aab8ce00d]
reverse link playable_content to movie_feature--><path d="M590,597.94 C493.94,616.41 338.22,651.94 212.5,707 C199.95,712.49 187.19,719.27 174.98,726.44 " fill="none" id="playable_content&lt;-movie_feature" style="stroke: #A80036; stroke-width: 1.0;"/><polygon fill="#A80036" points="595.1,596.96,585.5075,594.7275,590.1896,597.9021,587.0149,602.5842,595.1,596.96" style="stroke: #A80036; stroke-width: 1.0;"/><text fill="#000000" font-family="sans-serif" font-size="13" lengthAdjust="spacingAndGlyphs" textLength="8" x="579.5031" y="594.7016">1</text><text fill="#000000" font-family="sans-serif" font-size="13" lengthAdjust="spacingAndGlyphs" textLength="23" x="160.4429" y="715.4348">0..*</text><!--MD5=[975f161dbd8a3d6bd8c7987f2e830125]
link tv to media_work--><path d="M736.32,100.4 C719.95,117.63 701.01,137.54 683.43,156.03 " fill="none" id="tv-&gt;media_work" style="stroke: #A80036; stroke-width: 1.0;"/><polygon fill="#A80036" points="679.93,159.71,689.0338,155.9523,683.3786,156.0897,683.2413,150.4345,679.93,159.71" style="stroke: #A80036; stroke-width: 1.0;"/><text fill="#000000" font-family="sans-serif" font-size="13" lengthAdjust="spacingAndGlyphs" textLength="8" x="721.3904" y="120.3674">1</text><text fill="#000000" font-family="sans-serif" font-size="13" lengthAdjust="spacingAndGlyphs" textLength="8" x="677.8766" y="149.0642">1</text><!--MD5=[35fe5c7a75031e048953b380210e08f4]
reverse link tv to season--><path d="M797.1,105.01 C830.79,200.7 904.35,409.63 941.72,515.8 " fill="none" id="tv&lt;-season" style="stroke: #A80036; stroke-width: 1.0;"/><polygon fill="#A80036" points="795.43,100.26,794.6674,110.0793,797.1008,104.9726,802.2075,107.406,795.43,100.26" style="stroke: #A80036; stroke-width: 1.0;"/><text fill="#000000" font-family="sans-serif" font-size="13" lengthAdjust="spacingAndGlyphs" textLength="8" x="789.2568" y="120.5421">1</text><text fill="#000000" font-family="sans-serif" font-size="13" lengthAdjust="spacingAndGlyphs" textLength="23" x="914.9706" y="504.8807">0..*</text><!--MD5=[433437d5c57c41081fc500fbb31c1699]
reverse link season to episode--><path d="M980.86,652.03 C985.04,669.79 989.54,688.92 993.74,706.77 " fill="none" id="season&lt;-episode" style="stroke: #A80036; stroke-width: 1.0;"/><polygon fill="#A80036" points="979.69,647.06,977.8514,656.7357,980.832,651.9278,985.6399,654.9085,979.69,647.06" style="stroke: #A80036; stroke-width: 1.0;"/><text fill="#000000" font-family="sans-serif" font-size="13" lengthAdjust="spacingAndGlyphs" textLength="8" x="972.844" y="666.6801">1</text><text fill="#000000" font-family="sans-serif" font-size="13" lengthAdjust="spacingAndGlyphs" textLength="23" x="967.9582" y="696.0162">0..*</text><!--MD5=[b511d1d68e20510f56413cd1af35acda]
reverse link playable_content to episode--><path d="M760.35,630.26 C801.89,654.79 853.15,685.06 898.44,711.81 " fill="none" id="playable_content&lt;-episode" style="stroke: #A80036; stroke-width: 1.0;"/><polygon fill="#A80036" points="755.85,627.6,761.5724,635.6159,760.1575,630.1388,765.6345,628.7239,755.85,627.6" style="stroke: #A80036; stroke-width: 1.0;"/><text fill="#000000" font-family="sans-serif" font-size="13" lengthAdjust="spacingAndGlyphs" textLength="8" x="758.9286" y="647.8576">1</text><text fill="#000000" font-family="sans-serif" font-size="13" lengthAdjust="spacingAndGlyphs" textLength="23" x="867.5244" y="704.1101">0..*</text><!--MD5=[8380106985c29bc7a3396ae9d3b32f61]
reverse link contributor to contribution--><path d="M397.5,248.27 C397.5,272.33 397.5,307.68 397.5,337.77 " fill="none" id="contributor&lt;-contribution" style="stroke: #A80036; stroke-width: 1.0;"/><polygon fill="#A80036" points="397.5,243.01,393.5,252.01,397.5,248.01,401.5,252.01,397.5,243.01" style="stroke: #A80036; stroke-width: 1.0;"/><text fill="#000000" font-family="sans-serif" font-size="13" lengthAdjust="spacingAndGlyphs" textLength="8" x="388.475" y="263.1683">1</text><text fill="#000000" font-family="sans-serif" font-size="13" lengthAdjust="spacingAndGlyphs" textLength="23" x="373.1703" y="327.1312">0..*</text><!--MD5=[c20b3f51dd94ed3489581d73d98a5b85]
@startuml
skinparam classAttributeIconSize 0

class media_work <<table>> {
    id: UUID <<PK>>
    title: TEXT
    description: TEXT?
    original_release_date: DATE
    type: TEXT
}

class contribution <<table>> {
    id: UUID <<PK>>
    media_work_id: UUID <<FK>>
    contributor_id: UUID <<FK>>
    contributor_role: TEXT
    - -
    UNIQUE(media_work_id, contributor_id, contributor_role)
}

media_work "1" <- - "0..*" contribution

class content <<table>> {
    id: UUID <<PK>>
    media_work_id: UUID <<FK>>
    title: TEXT?
    description: TEXT?
}

media_work <- - content

class playable_content <<table>> {
    content_id: UUID <<PK>> <<FK>>
    runtime_minutes: INT
    cut_type: CutType?
}

content <- - playable_content

class audio_track <<table>> {
    playable_content_id: UUID <<FK>>
    language: TEXT
    format: AudioFormat
    - -
    PRIMARY(playable_content_id, language, format)
}

playable_content "1" <- - "0..*" audio_track

class subtitle_track <<table>> {
    playable_content_id: UUID <<FK>>
    language: TEXT
    region: TEXT?
    type: SubtitleType
    - -
    PRIMARY(playable_content_id, language, region, type)
}

playable_content "1" <- - "0..*" subtitle_track

class movie <<table>> {
    media_work_id: UUID <<PK>> <<FK>>
}

movie "1" - -> "1" media_work

class movie_feature <<table>> {
     movie_id: UUID <<FK>>
     playable_content_id: UUID <<FK>>
     sort_index: INT
     - -
     PRIMARY(movie_id, content_id)
}

movie "1" <- - "0..*" movie_feature
playable_content "1" <- - "0..*" movie_feature

class tv <<table>> {
    media_work_id: UUID <<PK>> <<FK>>
    status: TVStatus
    ended_on: DATE?
}

tv "1" - -> "1" media_work

class season <<table>> {
    id: UUID <<PK>>
    tv_id: UUID <<FK>>
    season_number: INT
    title: TEXT?
    description: TEXT?
    - -
    UNIQUE(tv_id, season_number)
}

tv "1" <- - "0..*" season

class episode <<table>> {
    id: UUID <<PK>>
    season_id: UUID <<FK>>
    playable_content_id: UUID <<FK>>
    episode_number: INT?
    air_date: DATE
    role: EpisodeRole?
    - -
    UNIQUE(season_id, episode_number)
}

season "1" <- - "0..*" episode
playable_content "1" <- - "0..*" episode

contributor "1" <- - "0..*" contribution

@enduml

PlantUML version 1.2020.02(Sun Mar 01 10:22:07 UTC 2020)
(GPL source distribution)
Java Runtime: OpenJDK Runtime Environment
JVM: OpenJDK 64-Bit Server VM
Java Version: 17.0.18+8
Operating System: Linux
Default Encoding: UTF-8
Language: en
Country: null
--></g></svg>