<?xml version="1.0" encoding="UTF-8" standalone="no"?><svg xmlns="http://www.w3.org/2000/svg" xmlns:xlink="http://www.w3.org/1999/xlink" contentScriptType="application/ecmascript" contentStyleType="text/css" height="900px" preserveAspectRatio="none" style="width:1184px;height:900px;" version="1.1" viewBox="0 0 1184 900" width="1184px" zoomAndPan="magnify"><defs><filter height="300%" id="f1uitee91c6vwi" width="300%" x="-1" y="-1"><feGaussianBlur result="blurOut" stdDeviation="2.0"/><feColorMatrix in="blurOut" result="blurOut2" type="matrix" values="0 0 0 0 0 0 0 0 0 0 0 0 0 0 0 0 0 0 .4 0"/><feOffset dx="4.0" dy="4.0" in="blurOut2" result="blurOut3"/><feBlend in="SourceGraphic" in2="blurOut3" mode="normal"/></filter></defs><g><!--MD5=[a46658d446b05034c23a4bc1a7db0e1a]
class media_work--><rect fill="#FEFECE" filter="url(#f1uitee91c6vwi)" height="143.5703" id="media_work" style="stroke: #A80036; stroke-width: 1.5;" width="171" x="444" y="160"/><ellipse cx="488.75" cy="178.9688" fill="#ADD1B2" rx="11" ry="11" style="stroke: #A80036; stroke-width: 1.0;"/><path d="M491.7188,184.6094 Q491.1406,184.9063 490.5,185.0469 Q489.8594,185.2031 489.1563,185.2031 Q486.6563,185.2031 485.3281,183.5625 Q484.0156,181.9063 484.0156,178.7813 Q484.0156,175.6563 485.3281,174 Q486.6563,172.3438 489.1563,172.3438 Q489.8594,172.3438 490.5,172.5 Q491.1563,172.6563 491.7188,172.9531 L491.7188,175.6719 Q491.0938,175.0938 490.5,174.8281 Q489.9063,174.5469 489.2813,174.5469 Q487.9375,174.5469 487.25,175.625 Q486.5625,176.6875 486.5625,178.7813 Q486.5625,180.875 487.25,181.9531 Q487.9375,183.0156 489.2813,183.0156 Q489.9063,183.0156 490.5,182.75 Q491.0938,182.4688 491.7188,181.8906 L491.7188,184.6094 Z "/><text fill="#000000" font-family="sans-serif" font-size="12" font-style="italic" lengthAdjust="spacingAndGlyphs" textLength="46" x="522.75" y="176.1387">«table»</text><text fill="#000000" font-family="sans-serif" font-size="12" lengthAdjust="spacingAndGlyphs" textLength="73" x="509.25" y="190.1074">media_work</text><line style="stroke: #A80036; stroke-width: 1.5;" x1="445" x2="614" y1="197.9375" y2="197.9375"/><text fill="#000000" font-family="sans-serif" font-size="11" lengthAdjust="spacingAndGlyphs" textLength="77" x="450" y="212.1479">id: UUID «PK»</text><text fill="#000000" font-family="sans-serif" font-size="11" lengthAdjust="spacingAndGlyphs" textLength="57" x="450" y="224.9526">title: TEXT</text><text fill="#000000" font-family="sans-serif" font-size="11" lengthAdjust="spacingAndGlyphs" textLength="105" x="450" y="237.7573">description: TEXT?</text><text fill="#000000" font-family="sans-serif" font-size="11" lengthAdjust="spacingAndGlyphs" textLength="159" x="450" y="250.562">original_release_date: DATE</text><text fill="#000000" font-family="sans-serif" font-size="11" lengthAdjust="spacingAndGlyphs" textLength="136" x="450" y="263.3667">original_language: TEXT</text><text fill="#000000" font-family="sans-serif" font-size="11" lengthAdjust="spacingAndGlyphs" textLength="133" x="450" y="276.1714">country_of_origin: TEXT</text><text fill="#000000" font-family="sans-serif" font-size="11" lengthAdjust="spacingAndGlyphs" textLength="60" x="450" y="288.9761">type: TEXT</text><line style="stroke: #A80036; stroke-width: 1.5;" x1="445" x2="614" y1="295.5703" y2="295.5703"/><!--MD5=[23ff8735309b44f3974df67f35899a34]
class contribution--><rect fill="#FEFECE" filter="url(#f1uitee91c6vwi)" height="117.9609" id="contribution" style="stroke: #A80036; stroke-width: 1.5;" width="331" x="6" y="364"/><ellipse cx="129.25" cy="382.9688" fill="#ADD1B2" rx="11" ry="11" style="stroke: #A80036; stroke-width: 1.0;"/><path d="M132.2188,388.6094 Q131.6406,388.9063 131,389.0469 Q130.3594,389.2031 129.6563,389.2031 Q127.1563,389.2031 125.8281,387.5625 Q124.5156,385.9063 124.5156,382.7813 Q124.5156,379.6563 125.8281,378 Q127.1563,376.3438 129.6563,376.3438 Q130.3594,376.3438 131,376.5 Q131.6563,376.6563 132.2188,376.9531 L132.2188,379.6719 Q131.5938,379.0938 131,378.8281 Q130.4063,378.5469 129.7813,378.5469 Q128.4375,378.5469 127.75,379.625 Q127.0625,380.6875 127.0625,382.7813 Q127.0625,384.875 127.75,385.9531 Q128.4375,387.0156 129.7813,387.0156 Q130.4063,387.0156 131,386.75 Q131.5938,386.4688 132.2188,385.8906 L132.2188,388.6094 Z "/><text fill="#000000" font-family="sans-serif" font-size="12" font-style="italic" lengthAdjust="spacingAndGlyphs" textLength="46" x="164.75" y="380.1387">«table»</text><text fill="#000000" font-family="sans-serif" font-size="12" lengthAdjust="spacingAndGlyphs" textLength="76" x="149.75" y="394.1074">contribution</text><line style="stroke: #A80036; stroke-width: 1.5;" x1="7" x2="336" y1="401.9375" y2="401.9375"/><text fill="#000000" font-family="sans-serif" font-size="11" lengthAdjust="spacingAndGlyphs" textLength="77" x="12" y="416.1479">id: UUID «PK»</text><text fill="#000000" font-family="sans-serif" font-size="11" lengthAdjust="spacingAndGlyphs" textLength="150" x="12" y="428.9526">media_work_id: UUID «FK»</text><text fill="#000000" font-family="sans-serif" font-size="11" lengthAdjust="spacingAndGlyphs" textLength="144" x="12" y="441.7573">contributor_id: UUID «FK»</text><text fill="#000000" font-family="sans-serif" font-size="11" lengthAdjust="spacingAndGlyphs" textLength="195" x="12" y="454.562">contributor_role_name: TEXT «FK»</text><line style="stroke: #A80036; stroke-width: 1.0;" x1="7" x2="336" y1="461.1563" y2="461.1563"/><text fill="#000000" font-family="sans-serif" font-size="11" lengthAdjust="spacingAndGlyphs" textLength="319" x="12" y="475.3667">UNIQUE(media_work_id, contributor_id, contributor_role)</text><!--MD5=[ea9017fe3934af957f3ab29a0ae0ecb9]
class contributor_role--><rect fill="#FEFECE" filter="url(#f1uitee91c6vwi)" height="66.7422" id="contributor_role" style="stroke: #A80036; stroke-width: 1.5;" width="132" x="155.5" y="198.5"/><ellipse cx="170.5" cy="217.4688" fill="#ADD1B2" rx="11" ry="11" style="stroke: #A80036; stroke-width: 1.0;"/><path d="M173.4688,223.1094 Q172.8906,223.4063 172.25,223.5469 Q171.6094,223.7031 170.9063,223.7031 Q168.4063,223.7031 167.0781,222.0625 Q165.7656,220.4063 165.7656,217.2813 Q165.7656,214.1563 167.0781,212.5 Q168.4063,210.8438 170.9063,210.8438 Q171.6094,210.8438 172.25,211 Q172.9063,211.1563 173.4688,211.4531 L173.4688,214.1719 Q172.8438,213.5938 172.25,213.3281 Q171.6563,213.0469 171.0313,213.0469 Q169.6875,213.0469 169,214.125 Q168.3125,215.1875 168.3125,217.2813 Q168.3125,219.375 169,220.4531 Q169.6875,221.5156 171.0313,221.5156 Q171.6563,221.5156 172.25,221.25 Q172.8438,220.9688 173.4688,220.3906 L173.4688,223.1094 Z "/><text fill="#000000" font-family="sans-serif" font-size="12" font-style="italic" lengthAdjust="spacingAndGlyphs" textLength="46" x="211.5" y="214.6387">«table»</text><text fill="#000000" font-family="sans-serif" font-size="12" lengthAdjust="spacingAndGlyphs" textLength="100" x="184.5" y="228.6074">contributor_role</text><line style="stroke: #A80036; stroke-width: 1.5;" x1="156.5" x2="286.5" y1="236.4375" y2="236.4375"/><text fill="#000000" font-family="sans-serif" font-size="11" lengthAdjust="spacingAndGlyphs" textLength="100" x="161.5" y="250.6479">name: TEXT «PK»</text><line style="stroke: #A80036; stroke-width: 1.5;" x1="156.5" x2="286.5" y1="257.2422" y2="257.2422"/><!--MD5=[48f574f03aa9f209c3e6ebb00fc1f351]
class content--><rect fill="#FEFECE" filter="url(#f1uitee91c6vwi)" height="105.1563" id="content" style="stroke: #A80036; stroke-width: 1.5;" width="162" x="448.5" y="370.5"/><ellipse cx="500.75" cy="389.4688" fill="#ADD1B2" rx="11" ry="11" style="stroke: #A80036; stroke-width: 1.0;"/><path d="M503.7188,395.1094 Q503.1406,395.4063 502.5,395.5469 Q501.8594,395.7031 501.1563,395.7031 Q498.6563,395.7031 497.3281,394.0625 Q496.0156,392.4063 496.0156,389.2813 Q496.0156,386.1563 497.3281,384.5 Q498.6563,382.8438 501.1563,382.8438 Q501.8594,382.8438 502.5,383 Q503.1563,383.1563 503.7188,383.4531 L503.7188,386.1719 Q503.0938,385.5938 502.5,385.3281 Q501.9063,385.0469 501.2813,385.0469 Q499.9375,385.0469 499.25,386.125 Q498.5625,387.1875 498.5625,389.2813 Q498.5625,391.375 499.25,392.4531 Q499.9375,393.5156 501.2813,393.5156 Q501.9063,393.5156 502.5,393.25 Q503.0938,392.9688 503.7188,392.3906 L503.7188,395.1094 Z "/><text fill="#000000" font-family="sans-serif" font-size="12" font-style="italic" lengthAdjust="spacingAndGlyphs" textLength="46" x="522.75" y="386.6387">«table»</text><text fill="#000000" font-family="sans-serif" font-size="12" lengthAdjust="spacingAndGlyphs" textLength="49" x="521.25" y="400.6074">content</text><line style="stroke: #A80036; stroke-width: 1.5;" x1="449.5" x2="609.5" y1="408.4375" y2="408.4375"/><text fill="#000000" font-family="sans-serif" font-size="11" lengthAdjust="spacingAndGlyphs" textLength="77" x="454.5" y="422.6479">id: UUID «PK»</text><text fill="#000000" font-family="sans-serif" font-size="11" lengthAdjust="spacingAndGlyphs" textLength="150" x="454.5" y="435.4526">media_work_id: UUID «FK»</text><text fill="#000000" font-family="sans-serif" font-size="11" lengthAdjust="spacingAndGlyphs" textLength="63" x="454.5" y="448.2573">title: TEXT?</text><text fill="#000000" font-family="sans-serif" font-size="11" lengthAdjust="spacingAndGlyphs" textLength="105" x="454.5" y="461.062">description: TEXT?</text><line style="stroke: #A80036; stroke-width: 1.5;" x1="449.5" x2="609.5" y1="467.6563" y2="467.6563"/><!--MD5=[5d1a9ee8076010dc62ddec054a37bf42]
class playable_content--><rect fill="#FEFECE" filter="url(#f1uitee91c6vwi)" height="105.1563" id="playable_content" style="stroke: #A80036; stroke-width: 1.5;" width="168" x="445.5" y="555"/><ellipse cx="473.55" cy="573.9688" fill="#ADD1B2" rx="11" ry="11" style="stroke: #A80036; stroke-width: 1.0;"/><path d="M476.5188,579.6094 Q475.9406,579.9063 475.3,580.0469 Q474.6594,580.2031 473.9563,580.2031 Q471.4563,580.2031 470.1281,578.5625 Q468.8156,576.9063 468.8156,573.7813 Q468.8156,570.6563 470.1281,569 Q471.4563,567.3438 473.9563,567.3438 Q474.6594,567.3438 475.3,567.5 Q475.9563,567.6563 476.5188,567.9531 L476.5188,570.6719 Q475.8938,570.0938 475.3,569.8281 Q474.7063,569.5469 474.0813,569.5469 Q472.7375,569.5469 472.05,570.625 Q471.3625,571.6875 471.3625,573.7813 Q471.3625,575.875 472.05,576.9531 Q472.7375,578.0156 474.0813,578.0156 Q474.7063,578.0156 475.3,577.75 Q475.8938,577.4688 476.5188,576.8906 L476.5188,579.6094 Z "/><text fill="#000000" font-family="sans-serif" font-size="12" font-style="italic" lengthAdjust="spacingAndGlyphs" textLength="46" x="520.95" y="571.1387">«table»</text><text fill="#000000" font-family="sans-serif" font-size="12" lengthAdjust="spacingAndGlyphs" textLength="107" x="490.45" y="585.1074">playable_content</text><line style="stroke: #A80036; stroke-width: 1.5;" x1="446.5" x2="612.5" y1="592.9375" y2="592.9375"/><text fill="#000000" font-family="sans-serif" font-size="11" lengthAdjust="spacingAndGlyphs" textLength="156" x="451.5" y="607.1479">content_id: UUID «PK» «FK»</text><text fill="#000000" font-family="sans-serif" font-size="11" lengthAdjust="spacingAndGlyphs" textLength="122" x="451.5" y="619.9526">runtime_minutes: INT</text><text fill="#000000" font-family="sans-serif" font-size="11" lengthAdjust="spacingAndGlyphs" textLength="107" x="451.5" y="632.7573">cut_type: CutType?</text><text fill="#000000" font-family="sans-serif" font-size="11" lengthAdjust="spacingAndGlyphs" textLength="60" x="451.5" y="645.562">type: TEXT</text><line style="stroke: #A80036; stroke-width: 1.5;" x1="446.5" x2="612.5" y1="652.1563" y2="652.1563"/><!--MD5=[0d0503032abcfd044ebbd4c79c7561fa]
class audio_track--><rect fill="#FEFECE" filter="url(#f1uitee91c6vwi)" height="105.1563" id="audio_track" style="stroke: #A80036; stroke-width: 1.5;" width="284" x="281.5" y="758.5"/><ellipse cx="382.75" cy="777.4688" fill="#ADD1B2" rx="11" ry="11" style="stroke: #A80036; stroke-width: 1.0;"/><path d="M385.7188,783.1094 Q385.1406,783.4063 384.5,783.5469 Q383.8594,783.7031 383.1563,783.7031 Q380.6563,783.7031 379.3281,782.0625 Q378.0156,780.4063 378.0156,777.2813 Q378.0156,774.1563 379.3281,772.5 Q380.6563,770.8438 383.1563,770.8438 Q383.8594,770.8438 384.5,771 Q385.1563,771.1563 385.7188,771.4531 L385.7188,774.1719 Q385.0938,773.5938 384.5,773.3281 Q383.9063,773.0469 383.2813,773.0469 Q381.9375,773.0469 381.25,774.125 Q380.5625,775.1875 380.5625,777.2813 Q380.5625,779.375 381.25,780.4531 Q381.9375,781.5156 383.2813,781.5156 Q383.9063,781.5156 384.5,781.25 Q385.0938,780.9688 385.7188,780.3906 L385.7188,783.1094 Z "/><text fill="#000000" font-family="sans-serif" font-size="12" font-style="italic" lengthAdjust="spacingAndGlyphs" textLength="46" x="416.75" y="774.6387">«table»</text><text fill="#000000" font-family="sans-serif" font-size="12" lengthAdjust="spacingAndGlyphs" textLength="73" x="403.25" y="788.6074">audio_track</text><line style="stroke: #A80036; stroke-width: 1.5;" x1="282.5" x2="564.5" y1="796.4375" y2="796.4375"/><text fill="#000000" font-family="sans-serif" font-size="11" lengthAdjust="spacingAndGlyphs" textLength="177" x="287.5" y="810.6479">playable_content_id: UUID «FK»</text><text fill="#000000" font-family="sans-serif" font-size="11" lengthAdjust="spacingAndGlyphs" textLength="88" x="287.5" y="823.4526">language: TEXT</text><text fill="#000000" font-family="sans-serif" font-size="11" lengthAdjust="spacingAndGlyphs" textLength="117" x="287.5" y="836.2573">format: AudioFormat</text><line style="stroke: #A80036; stroke-width: 1.0;" x1="282.5" x2="564.5" y1="842.8516" y2="842.8516"/><text fill="#000000" font-family="sans-serif" font-size="11" lengthAdjust="spacingAndGlyphs" textLength="272" x="287.5" y="857.062">PRIMARY(playable_content_id, language, format)</text><!--MD5=[92b0941a1a3a24f8fb4ff3ecfd2745d0]
class subtitle_track--><rect fill="#FEFECE" filter="url(#f1uitee91c6vwi)" height="117.9609" id="subtitle_track" style="stroke: #A80036; stroke-width: 1.5;" width="314" x="600.5" y="752"/><ellipse cx="710.75" cy="770.9688" fill="#ADD1B2" rx="11" ry="11" style="stroke: #A80036; stroke-width: 1.0;"/><path d="M713.7188,776.6094 Q713.1406,776.9063 712.5,777.0469 Q711.8594,777.2031 711.1563,777.2031 Q708.6563,777.2031 707.3281,775.5625 Q706.0156,773.9063 706.0156,770.7813 Q706.0156,767.6563 707.3281,766 Q708.6563,764.3438 711.1563,764.3438 Q711.8594,764.3438 712.5,764.5 Q713.1563,764.6563 713.7188,764.9531 L713.7188,767.6719 Q713.0938,767.0938 712.5,766.8281 Q711.9063,766.5469 711.2813,766.5469 Q709.9375,766.5469 709.25,767.625 Q708.5625,768.6875 708.5625,770.7813 Q708.5625,772.875 709.25,773.9531 Q709.9375,775.0156 711.2813,775.0156 Q711.9063,775.0156 712.5,774.75 Q713.0938,774.4688 713.7188,773.8906 L713.7188,776.6094 Z "/><text fill="#000000" font-family="sans-serif" font-size="12" font-style="italic" lengthAdjust="spacingAndGlyphs" textLength="46" x="750.75" y="768.1387">«table»</text><text fill="#000000" font-family="sans-serif" font-size="12" lengthAdjust="spacingAndGlyphs" textLength="85" x="731.25" y="782.1074">subtitle_track</text><line style="stroke: #A80036; stroke-width: 1.5;" x1="601.5" x2="913.5" y1="789.9375" y2="789.9375"/><text fill="#000000" font-family="sans-serif" font-size="11" lengthAdjust="spacingAndGlyphs" textLength="177" x="606.5" y="804.1479">playable_content_id: UUID «FK»</text><text fill="#000000" font-family="sans-serif" font-size="11" lengthAdjust="spacingAndGlyphs" textLength="88" x="606.5" y="816.9526">language: TEXT</text><text fill="#000000" font-family="sans-serif" font-size="11" lengthAdjust="spacingAndGlyphs" textLength="78" x="606.5" y="829.7573">region: TEXT?</text><text fill="#000000" font-family="sans-serif" font-size="11" lengthAdjust="spacingAndGlyphs" textLength="102" x="606.5" y="842.562">type: SubtitleType</text><line style="stroke: #A80036; stroke-width: 1.0;" x1="601.5" x2="913.5" y1="849.1563" y2="849.1563"/><text fill="#000000" font-family="sans-serif" font-size="11" lengthAdjust="spacingAndGlyphs" textLength="302" x="606.5" y="863.3667">PRIMARY(playable_content_id, language, region, type)</text><!--MD5=[c6f8f8eba72f86f9c5c6666e8cb970d9]
class movie--><rect fill="#FEFECE" filter="url(#f1uitee91c6vwi)" height="66.7422" id="movie" style="stroke: #A80036; stroke-width: 1.5;" width="194" x="317.5" y="20.5"/><ellipse cx="389.25" cy="39.4688" fill="#ADD1B2" rx="11" ry="11" style="stroke: #A80036; stroke-width: 1.0;"/><path d="M392.2188,45.1094 Q391.6406,45.4063 391,45.5469 Q390.3594,45.7031 389.6563,45.7031 Q387.1563,45.7031 385.8281,44.0625 Q384.5156,42.4063 384.5156,39.2813 Q384.5156,36.1563 385.8281,34.5 Q387.1563,32.8438 389.6563,32.8438 Q390.3594,32.8438 391,33 Q391.6563,33.1563 392.2188,33.4531 L392.2188,36.1719 Q391.5938,35.5938 391,35.3281 Q390.4063,35.0469 389.7813,35.0469 Q388.4375,35.0469 387.75,36.125 Q387.0625,37.1875 387.0625,39.2813 Q387.0625,41.375 387.75,42.4531 Q388.4375,43.5156 389.7813,43.5156 Q390.4063,43.5156 391,43.25 Q391.5938,42.9688 392.2188,42.3906 L392.2188,45.1094 Z "/><text fill="#000000" font-family="sans-serif" font-size="12" font-style="italic" lengthAdjust="spacingAndGlyphs" textLength="46" x="407.75" y="36.6387">«table»</text><text fill="#000000" font-family="sans-serif" font-size="12" lengthAdjust="spacingAndGlyphs" textLength="36" x="412.75" y="50.6074">movie</text><line style="stroke: #A80036; stroke-width: 1.5;" x1="318.5" x2="510.5" y1="58.4375" y2="58.4375"/><text fill="#000000" font-family="sans-serif" font-size="11" lengthAdjust="spacingAndGlyphs" textLength="182" x="323.5" y="72.6479">media_work_id: UUID «PK» «FK»</text><line style="stroke: #A80036; stroke-width: 1.5;" x1="318.5" x2="510.5" y1="79.2422" y2="79.2422"/><!--MD5=[4d764836f8e8e45ff386eaaaa91b5b37]
class movie_feature--><rect fill="#FEFECE" filter="url(#f1uitee91c6vwi)" height="117.9609" id="movie_feature" style="stroke: #A80036; stroke-width: 1.5;" width="236" x="10.5" y="752"/><ellipse cx="80.25" cy="770.9688" fill="#ADD1B2" rx="11" ry="11" style="stroke: #A80036; stroke-width: 1.0;"/><path d="M83.2188,776.6094 Q82.6406,776.9063 82,777.0469 Q81.3594,777.2031 80.6563,777.2031 Q78.1563,777.2031 76.8281,775.5625 Q75.5156,773.9063 75.5156,770.7813 Q75.5156,767.6563 76.8281,766 Q78.1563,764.3438 80.6563,764.3438 Q81.3594,764.3438 82,764.5 Q82.6563,764.6563 83.2188,764.9531 L83.2188,767.6719 Q82.5938,767.0938 82,766.8281 Q81.4063,766.5469 80.7813,766.5469 Q79.4375,766.5469 78.75,767.625 Q78.0625,768.6875 78.0625,770.7813 Q78.0625,772.875 78.75,773.9531 Q79.4375,775.0156 80.7813,775.0156 Q81.4063,775.0156 82,774.75 Q82.5938,774.4688 83.2188,773.8906 L83.2188,776.6094 Z "/><text fill="#000000" font-family="sans-serif" font-size="12" font-style="italic" lengthAdjust="spacingAndGlyphs" textLength="46" x="121.75" y="768.1387">«table»</text><text fill="#000000" font-family="sans-serif" font-size="12" lengthAdjust="spacingAndGlyphs" textLength="88" x="100.75" y="782.1074">movie_feature</text><line style="stroke: #A80036; stroke-width: 1.5;" x1="11.5" x2="245.5" y1="789.9375" y2="789.9375"/><text fill="#000000" font-family="sans-serif" font-size="11" lengthAdjust="spacingAndGlyphs" textLength="116" x="16.5" y="804.1479">movie_id: UUID «FK»</text><text fill="#000000" font-family="sans-serif" font-size="11" lengthAdjust="spacingAndGlyphs" textLength="177" x="16.5" y="816.9526">playable_content_id: UUID «FK»</text><text fill="#000000" font-family="sans-serif" font-size="11" lengthAdjust="spacingAndGlyphs" textLength="85" x="16.5" y="829.7573">sort_index: INT</text><line style="stroke: #A80036; stroke-width: 1.0;" x1="11.5" x2="245.5" y1="836.3516" y2="836.3516"/><text fill="#000000" font-family="sans-serif" font-size="11" lengthAdjust="spacingAndGlyphs" textLength="224" x="16.5" y="850.562">PRIMARY(movie_id, playable_content_id)</text><text fill="#000000" font-family="sans-serif" font-size="11" lengthAdjust="spacingAndGlyphs" textLength="168" x="16.5" y="863.3667">UNIQUE(movie_id, sort_index)</text><!--MD5=[733462b47cf04df2ca7bac97249b98e3]
class tv--><rect fill="#FEFECE" filter="url(#f1uitee91c6vwi)" height="92.3516" id="tv" style="stroke: #A80036; stroke-width: 1.5;" width="194" x="558.5" y="8"/><ellipse cx="630.25" cy="26.9688" fill="#ADD1B2" rx="11" ry="11" style="stroke: #A80036; stroke-width: 1.0;"/><path d="M633.2188,32.6094 Q632.6406,32.9063 632,33.0469 Q631.3594,33.2031 630.6563,33.2031 Q628.1563,33.2031 626.8281,31.5625 Q625.5156,29.9063 625.5156,26.7813 Q625.5156,23.6563 626.8281,22 Q628.1563,20.3438 630.6563,20.3438 Q631.3594,20.3438 632,20.5 Q632.6563,20.6563 633.2188,20.9531 L633.2188,23.6719 Q632.5938,23.0938 632,22.8281 Q631.4063,22.5469 630.7813,22.5469 Q629.4375,22.5469 628.75,23.625 Q628.0625,24.6875 628.0625,26.7813 Q628.0625,28.875 628.75,29.9531 Q629.4375,31.0156 630.7813,31.0156 Q631.4063,31.0156 632,30.75 Q632.5938,30.4688 633.2188,29.8906 L633.2188,32.6094 Z "/><text fill="#000000" font-family="sans-serif" font-size="12" font-style="italic" lengthAdjust="spacingAndGlyphs" textLength="46" x="648.75" y="24.1387">«table»</text><text fill="#000000" font-family="sans-serif" font-size="12" lengthAdjust="spacingAndGlyphs" textLength="11" x="666.25" y="38.1074">tv</text><line style="stroke: #A80036; stroke-width: 1.5;" x1="559.5" x2="751.5" y1="45.9375" y2="45.9375"/><text fill="#000000" font-family="sans-serif" font-size="11" lengthAdjust="spacingAndGlyphs" textLength="182" x="564.5" y="60.1479">media_work_id: UUID «PK» «FK»</text><text fill="#000000" font-family="sans-serif" font-size="11" lengthAdjust="spacingAndGlyphs" textLength="95" x="564.5" y="72.9526">status: TVStatus</text><text fill="#000000" font-family="sans-serif" font-size="11" lengthAdjust="spacingAndGlyphs" textLength="98" x="564.5" y="85.7573">ended_on: DATE?</text><line style="stroke: #A80036; stroke-width: 1.5;" x1="559.5" x2="751.5" y1="92.3516" y2="92.3516"/><!--MD5=[65239b9aab999f0c561a5ca3aa8c59c9]
class season--><rect fill="#FEFECE" filter="url(#f1uitee91c6vwi)" height="130.7656" id="season" style="stroke: #A80036; stroke-width: 1.5;" width="189" x="861" y="542"/><ellipse cx="928.25" cy="560.9688" fill="#ADD1B2" rx="11" ry="11" style="stroke: #A80036; stroke-width: 1.0;"/><path d="M931.2188,566.6094 Q930.6406,566.9063 930,567.0469 Q929.3594,567.2031 928.6563,567.2031 Q926.1563,567.2031 924.8281,565.5625 Q923.5156,563.9063 923.5156,560.7813 Q923.5156,557.6563 924.8281,556 Q926.1563,554.3438 928.6563,554.3438 Q929.3594,554.3438 930,554.5 Q930.6563,554.6563 931.2188,554.9531 L931.2188,557.6719 Q930.5938,557.0938 930,556.8281 Q929.4063,556.5469 928.7813,556.5469 Q927.4375,556.5469 926.75,557.625 Q926.0625,558.6875 926.0625,560.7813 Q926.0625,562.875 926.75,563.9531 Q927.4375,565.0156 928.7813,565.0156 Q929.4063,565.0156 930,564.75 Q930.5938,564.4688 931.2188,563.8906 L931.2188,566.6094 Z "/><text fill="#000000" font-family="sans-serif" font-size="12" font-style="italic" lengthAdjust="spacingAndGlyphs" textLength="46" x="948.75" y="558.1387">«table»</text><text fill="#000000" font-family="sans-serif" font-size="12" lengthAdjust="spacingAndGlyphs" textLength="46" x="948.75" y="572.1074">season</text><line style="stroke: #A80036; stroke-width: 1.5;" x1="862" x2="1049" y1="579.9375" y2="579.9375"/><text fill="#000000" font-family="sans-serif" font-size="11" lengthAdjust="spacingAndGlyphs" textLength="77" x="867" y="594.1479">id: UUID «PK»</text><text fill="#000000" font-family="sans-serif" font-size="11" lengthAdjust="spacingAndGlyphs" textLength="92" x="867" y="606.9526">tv_id: UUID «FK»</text><text fill="#000000" font-family="sans-serif" font-size="11" lengthAdjust="spacingAndGlyphs" textLength="118" x="867" y="619.7573">season_number: INT</text><text fill="#000000" font-family="sans-serif" font-size="11" lengthAdjust="spacingAndGlyphs" textLength="63" x="867" y="632.562">title: TEXT?</text><text fill="#000000" font-family="sans-serif" font-size="11" lengthAdjust="spacingAndGlyphs" textLength="105" x="867" y="645.3667">description: TEXT?</text><line style="stroke: #A80036; stroke-width: 1.0;" x1="862" x2="1049" y1="651.9609" y2="651.9609"/><text fill="#000000" font-family="sans-serif" font-size="11" lengthAdjust="spacingAndGlyphs" textLength="177" x="867" y="666.1714">UNIQUE(tv_id, season_number)</text><!--MD5=[77ab79214866798d9cf70993822fb05b]
class episode--><rect fill="#FEFECE" filter="url(#f1uitee91c6vwi)" height="156.375" id="episode" style="stroke: #A80036; stroke-width: 1.5;" width="224" x="949.5" y="733"/><ellipse cx="1032.25" cy="751.9688" fill="#ADD1B2" rx="11" ry="11" style="stroke: #A80036; stroke-width: 1.0;"/><path d="M1035.2188,757.6094 Q1034.6406,757.9063 1034,758.0469 Q1033.3594,758.2031 1032.6563,758.2031 Q1030.1563,758.2031 1028.8281,756.5625 Q1027.5156,754.9063 1027.5156,751.7813 Q1027.5156,748.6563 1028.8281,747 Q1030.1563,745.3438 1032.6563,745.3438 Q1033.3594,745.3438 1034,745.5 Q1034.6563,745.6563 1035.2188,745.9531 L1035.2188,748.6719 Q1034.5938,748.0938 1034,747.8281 Q1033.4063,747.5469 1032.7813,747.5469 Q1031.4375,747.5469 1030.75,748.625 Q1030.0625,749.6875 1030.0625,751.7813 Q1030.0625,753.875 1030.75,754.9531 Q1031.4375,756.0156 1032.7813,756.0156 Q1033.4063,756.0156 1034,755.75 Q1034.5938,755.4688 1035.2188,754.8906 L1035.2188,757.6094 Z "/><text fill="#000000" font-family="sans-serif" font-size="12" font-style="italic" lengthAdjust="spacingAndGlyphs" textLength="46" x="1054.75" y="749.1387">«table»</text><text fill="#000000" font-family="sans-serif" font-size="12" lengthAdjust="spacingAndGlyphs" textLength="50" x="1052.75" y="763.1074">episode</text><line style="stroke: #A80036; stroke-width: 1.5;" x1="950.5" x2="1172.5" y1="770.9375" y2="770.9375"/><text fill="#000000" font-family="sans-serif" font-size="11" lengthAdjust="spacingAndGlyphs" textLength="77" x="955.5" y="785.1479">id: UUID «PK»</text><text fill="#000000" font-family="sans-serif" font-size="11" lengthAdjust="spacingAndGlyphs" textLength="124" x="955.5" y="797.9526">season_id: UUID «FK»</text><text fill="#000000" font-family="sans-serif" font-size="11" lengthAdjust="spacingAndGlyphs" textLength="177" x="955.5" y="810.7573">playable_content_id: UUID «FK»</text><text fill="#000000" font-family="sans-serif" font-size="11" lengthAdjust="spacingAndGlyphs" textLength="127" x="955.5" y="823.562">episode_number: INT?</text><text fill="#000000" font-family="sans-serif" font-size="11" lengthAdjust="spacingAndGlyphs" textLength="83" x="955.5" y="836.3667">air_date: DATE</text><text fill="#000000" font-family="sans-serif" font-size="11" lengthAdjust="spacingAndGlyphs" textLength="105" x="955.5" y="849.1714">role: EpisodeRole?</text><line style="stroke: #A80036; stroke-width: 1.0;" x1="950.5" x2="1172.5" y1="855.7656" y2="855.7656"/><text fill="#000000" font-family="sans-serif" font-size="11" lengthAdjust="spacingAndGlyphs" textLength="212" x="955.5" y="869.9761">UNIQUE(season_id, episode_number)</text><text fill="#000000" font-family="sans-serif" font-size="11" lengthAdjust="spacingAndGlyphs" textLength="212" x="955.5" y="882.7808">WHERE episode_number IS NOT NULL</text><!--MD5=[c70d0026982c74753187fd828a4c968f]
class contributor--><rect fill="#FEFECE" filter="url(#f1uitee91c6vwi)" height="48" id="contributor" style="stroke: #A80036; stroke-width: 1.5;" width="102" x="18.5" y="208"/><ellipse cx="33.5" cy="224" fill="#ADD1B2" rx="11" ry="11" style="stroke: #A80036; stroke-width: 1.0;"/><path d="M36.4688,229.6406 Q35.8906,229.9375 35.25,230.0781 Q34.6094,230.2344 33.9063,230.2344 Q31.4063,230.2344 30.0781,228.5938 Q28.7656,226.9375 28.7656,223.8125 Q28.7656,220.6875 30.0781,219.0313 Q31.4063,217.375 33.9063,217.375 Q34.6094,217.375 35.25,217.5313 Q35.9063,217.6875 36.4688,217.9844 L36.4688,220.7031 Q35.8438,220.125 35.25,219.8594 Q34.6563,219.5781 34.0313,219.5781 Q32.6875,219.5781 32,220.6563 Q31.3125,221.7188 31.3125,223.8125 Q31.3125,225.9063 32,226.9844 Q32.6875,228.0469 34.0313,228.0469 Q34.6563,228.0469 35.25,227.7813 Q35.8438,227.5 36.4688,226.9219 L36.4688,229.6406 Z "/><text fill="#000000" font-family="sans-serif" font-size="12" lengthAdjust="spacingAndGlyphs" textLength="70" x="47.5" y="228.1543">contributor</text><line style="stroke: #A80036; stroke-width: 1.5;" x1="19.5" x2="119.5" y1="240" y2="240"/><line style="stroke: #A80036; stroke-width: 1.5;" x1="19.5" x2="119.5" y1="248" y2="248"/><!--MD5=[5ef73dc266c42a643b67e9845d2d3e42]
reverse link media_work to contribution--><path d="M439.16,280.7 C391.31,305.95 332.17,337.18 281.65,363.85 " fill="none" id="media_work&lt;-contribution" style="stroke: #A80036; stroke-width: 1.0;"/><polygon fill="#A80036" points="443.75,278.27,433.9251,278.9561,439.3335,280.614,437.6755,286.0225,443.75,278.27" style="stroke: #A80036; stroke-width: 1.0;"/><text fill="#000000" font-family="sans-serif" font-size="13" lengthAdjust="spacingAndGlyphs" textLength="8" x="428.0371" y="278.6929">1</text><text fill="#000000" font-family="sans-serif" font-size="13" lengthAdjust="spacingAndGlyphs" textLength="23" x="270.673" y="352.8044">0..*</text><!--MD5=[eeabc86ca3b5e7c4a8022edb01784eb6]
reverse link contributor_role to contribution--><path d="M211.51,270.78 C204.46,297.42 194.89,333.6 186.87,363.89 " fill="none" id="contributor_role&lt;-contribution" style="stroke: #A80036; stroke-width: 1.0;"/><polygon fill="#A80036" points="212.79,265.92,206.6301,273.6048,211.5168,270.7552,214.3664,275.6419,212.79,265.92" style="stroke: #A80036; stroke-width: 1.0;"/><text fill="#000000" font-family="sans-serif" font-size="13" lengthAdjust="spacingAndGlyphs" textLength="8" x="202.526" y="285.3996">1</text><text fill="#000000" font-family="sans-serif" font-size="13" lengthAdjust="spacingAndGlyphs" textLength="23" x="164.3417" y="352.8493">0..*</text><!--MD5=[bc69acde750a0ef1fb41ce7773590716]
reverse link media_work to content--><path d="M529.5,309.36 C529.5,329.85 529.5,351.52 529.5,370.32 " fill="none" id="media_work&lt;-content" style="stroke: #A80036; stroke-width: 1.0;"/><polygon fill="#A80036" points="529.5,304.18,525.5,313.18,529.5,309.18,533.5,313.18,529.5,304.18" style="stroke: #A80036; stroke-width: 1.0;"/><text fill="#000000" font-family="sans-serif" font-size="13" lengthAdjust="spacingAndGlyphs" textLength="8" x="521.1313" y="323.6183">1</text><text fill="#000000" font-family="sans-serif" font-size="13" lengthAdjust="spacingAndGlyphs" textLength="23" x="504.9547" y="359.2986">0..*</text><!--MD5=[378a51d7a9e1af673387b76ceb8a041c]
reverse link content to playable_content--><path d="M529.5,481.1 C529.5,504.71 529.5,531.88 529.5,554.88 " fill="none" id="content&lt;-playable_content" style="stroke: #A80036; stroke-width: 1.0;"/><polygon fill="#A80036" points="529.5,475.81,525.5,484.81,529.5,480.81,533.5,484.81,529.5,475.81" style="stroke: #A80036; stroke-width: 1.0;"/><text fill="#000000" font-family="sans-serif" font-size="13" lengthAdjust="spacingAndGlyphs" textLength="8" x="520.9875" y="495.6026">1</text><text fill="#000000" font-family="sans-serif" font-size="13" lengthAdjust="spacingAndGlyphs" textLength="8" x="520.9625" y="543.8667">1</text><!--MD5=[df91c1d2556f8695b2a9a346fc894770]
reverse link playable_content to audio_track--><path d="M499.9,664.77 C484.5,694.03 465.81,729.56 450.77,758.15 " fill="none" id="playable_content&lt;-audio_track" style="stroke: #A80036; stroke-width: 1.0;"/><polygon fill="#A80036" points="502.34,660.13,494.611,666.2344,500.013,664.5555,501.6919,669.9575,502.34,660.13" style="stroke: #A80036; stroke-width: 1.0;"/><text fill="#000000" font-family="sans-serif" font-size="13" lengthAdjust="spacingAndGlyphs" textLength="8" x="490.1529" y="680.2753">1</text><text fill="#000000" font-family="sans-serif" font-size="13" lengthAdjust="spacingAndGlyphs" textLength="23" x="429.7905" y="747.483">0..*</text><!--MD5=[86b46bc5549241408c6eae4014782abd]
reverse link playable_content to subtitle_track--><path d="M592.04,663.77 C622.95,691.08 660.23,724.04 691.58,751.74 " fill="none" id="playable_content&lt;-subtitle_track" style="stroke: #A80036; stroke-width: 1.0;"/><polygon fill="#A80036" points="587.92,660.13,592.0062,669.0912,591.6633,663.4447,597.3098,663.1018,587.92,660.13" style="stroke: #A80036; stroke-width: 1.0;"/><text fill="#000000" font-family="sans-serif" font-size="13" lengthAdjust="spacingAndGlyphs" textLength="8" x="587.2327" y="680.2753">1</text><text fill="#000000" font-family="sans-serif" font-size="13" lengthAdjust="spacingAndGlyphs" textLength="23" x="659.6283" y="741.0977">0..*</text><!--MD5=[1b679af2d29bc6812a947d657e6bf80f]
link movie to media_work--><path d="M435.86,87.69 C448.34,106.78 464.63,131.72 480.12,155.42 " fill="none" id="movie-&gt;media_work" style="stroke: #A80036; stroke-width: 1.0;"/><polygon fill="#A80036" points="483,159.83,481.4361,150.1061,480.2695,155.6414,474.7343,154.4749,483,159.83" style="stroke: #A80036; stroke-width: 1.0;"/><text fill="#000000" font-family="sans-serif" font-size="13" lengthAdjust="spacingAndGlyphs" textLength="8" x="431.0608" y="107.3873">1</text><text fill="#000000" font-family="sans-serif" font-size="13" lengthAdjust="spacingAndGlyphs" textLength="8" x="469.7922" y="148.7099">1</text><!--MD5=[981abad0ab7efa479b2057aefbd63d23]
reverse link movie to movie_feature--><path d="M414.93,92.93 C414.57,169.3 407.51,345.93 354.5,482 C313.9,586.23 234.38,689.69 181.33,751.74 " fill="none" id="movie&lt;-movie_feature" style="stroke: #A80036; stroke-width: 1.0;"/><polygon fill="#A80036" points="414.94,87.61,410.9143,96.5985,414.9257,92.61,418.9143,96.6214,414.94,87.61" style="stroke: #A80036; stroke-width: 1.0;"/><text fill="#000000" font-family="sans-serif" font-size="13" lengthAdjust="spacingAndGlyphs" textLength="8" x="406.2836" y="107.2926">1</text><text fill="#000000" font-family="sans-serif" font-size="13" lengthAdjust="spacingAndGlyphs" textLength="23" x="163.1088" y="741.0977">0..*</text><!--MD5=[8cc8281e920efc66eee2fa5aab8ce00d]
reverse link playable_content to movie_feature--><path d="M440.85,660.69 C432.69,665.01 424.49,669.18 416.5,673 C350.61,704.52 329.4,701.49 263.5,733 C251.33,738.82 238.76,745.3 226.42,751.97 " fill="none" id="playable_content&lt;-movie_feature" style="stroke: #A80036; stroke-width: 1.0;"/><polygon fill="#A80036" points="445.37,658.28,435.5468,658.9908,440.9594,660.6352,439.3151,666.0478,445.37,658.28" style="stroke: #A80036; stroke-width: 1.0;"/><text fill="#000000" font-family="sans-serif" font-size="13" lengthAdjust="spacingAndGlyphs" textLength="8" x="429.5209" y="659.2005">1</text><text fill="#000000" font-family="sans-serif" font-size="13" lengthAdjust="spacingAndGlyphs" textLength="23" x="213.9524" y="740.939">0..*</text><!--MD5=[975f161dbd8a3d6bd8c7987f2e830125]
link tv to media_work--><path d="M623.05,100.32 C610.99,117.18 596.95,136.79 583.47,155.61 " fill="none" id="tv-&gt;media_work" style="stroke: #A80036; stroke-width: 1.0;"/><polygon fill="#A80036" points="580.42,159.87,588.8994,154.8601,583.3208,155.7975,582.3834,150.2188,580.42,159.87" style="stroke: #A80036; stroke-width: 1.0;"/><text fill="#000000" font-family="sans-serif" font-size="13" lengthAdjust="spacingAndGlyphs" textLength="8" x="609.6964" y="120.2756">1</text><text fill="#000000" font-family="sans-serif" font-size="13" lengthAdjust="spacingAndGlyphs" textLength="8" x="577.2586" y="148.7541">1</text><!--MD5=[35fe5c7a75031e048953b380210e08f4]
reverse link tv to season--><path d="M682.59,104.8 C737.07,204.95 859.83,430.62 920.38,541.93 " fill="none" id="tv&lt;-season" style="stroke: #A80036; stroke-width: 1.0;"/><polygon fill="#A80036" points="680.05,100.13,680.8235,109.9484,682.4333,104.5255,687.8562,106.1352,680.05,100.13" style="stroke: #A80036; stroke-width: 1.0;"/><text fill="#000000" font-family="sans-serif" font-size="13" lengthAdjust="spacingAndGlyphs" textLength="8" x="675.1967" y="120.3922">1</text><text fill="#000000" font-family="sans-serif" font-size="13" lengthAdjust="spacingAndGlyphs" textLength="23" x="892.2809" y="531.0249">0..*</text><!--MD5=[433437d5c57c41081fc500fbb31c1699]
reverse link season to episode--><path d="M991.84,677.57 C1001.19,695.35 1011.31,714.59 1020.86,732.75 " fill="none" id="season&lt;-episode" style="stroke: #A80036; stroke-width: 1.0;"/><polygon fill="#A80036" points="989.48,673.09,990.1412,682.9166,991.8129,677.5124,997.2171,679.1841,989.48,673.09" style="stroke: #A80036; stroke-width: 1.0;"/><text fill="#000000" font-family="sans-serif" font-size="13" lengthAdjust="spacingAndGlyphs" textLength="8" x="984.5717" y="692.7132">1</text><text fill="#000000" font-family="sans-serif" font-size="13" lengthAdjust="spacingAndGlyphs" textLength="23" x="993.0533" y="721.9007">0..*</text><!--MD5=[b511d1d68e20510f56413cd1af35acda]
reverse link playable_content to episode--><path d="M618.73,629.52 C701.89,650.63 828.38,686.64 932.5,733 C938.1,735.49 943.76,738.18 949.42,741 " fill="none" id="playable_content&lt;-episode" style="stroke: #A80036; stroke-width: 1.0;"/><polygon fill="#A80036" points="613.81,628.28,621.5501,634.3703,618.6565,629.5095,623.5173,626.6159,613.81,628.28" style="stroke: #A80036; stroke-width: 1.0;"/><text fill="#000000" font-family="sans-serif" font-size="13" lengthAdjust="spacingAndGlyphs" textLength="8" x="621.3991" y="626.4871">1</text><text fill="#000000" font-family="sans-serif" font-size="13" lengthAdjust="spacingAndGlyphs" textLength="23" x="918.5032" y="733.0943">0..*</text><!--MD5=[8380106985c29bc7a3396ae9d3b32f61]
reverse link contributor to contribution--><path d="M84.45,260.7 C98.99,287.65 121.54,329.43 140.05,363.72 " fill="none" id="contributor&lt;-contribution" style="stroke: #A80036; stroke-width: 1.0;"/><polygon fill="#A80036" points="82.01,256.18,82.7835,265.9984,84.3933,260.5755,89.8162,262.1852,82.01,256.18" style="stroke: #A80036; stroke-width: 1.0;"/><text fill="#000000" font-family="sans-serif" font-size="13" lengthAdjust="spacingAndGlyphs" textLength="8" x="76.0843" y="275.9851">1</text><text fill="#000000" font-family="sans-serif" font-size="13" lengthAdjust="spacingAndGlyphs" textLength="23" x="112.0839" y="353.0754">0..*</text><!--MD5=[39747e033c1c7a3864fe85532df0cfc9]
@startuml
skinparam classAttributeIconSize 0

class media_work <<table>> {
    id: UUID <<PK>>
    title: TEXT
    description: TEXT?
    original_release_date: DATE
    original_language: TEXT
    country_of_origin: TEXT
    type: TEXT
}

class contribution <<table>> {
    id: UUID <<PK>>
    media_work_id: UUID <<FK>>
    contributor_id: UUID <<FK>>
    contributor_role_name: TEXT <<FK>>
    - -
    UNIQUE(media_work_id, contributor_id, contributor_role)
}

media_work "1" <- - "0..*" contribution

class contributor_role <<table>> {
    name: TEXT <<PK>>
}

contributor_role "1" <- - "0..*" contribution

class content <<table>> {
    id: UUID <<PK>>
    media_work_id: UUID <<FK>>
    title: TEXT?
    description: TEXT?
}

media_work "1" <- - "0..*" content

class playable_content <<table>> {
    content_id: UUID <<PK>> <<FK>>
    runtime_minutes: INT
    cut_type: CutType?
    type: TEXT
}

content "1" <- - "1" playable_content

class audio_track <<table>> {
    playable_content_id: UUID <<FK>>
    language: TEXT
    format: AudioFormat
    - -
    PRIMARY(playable_content_id, language, format)
}

playable_content "1" <- - "0..*" audio_track

class subtitle_track <<table>> {
    playable_content_id: UUID <<FK>>
    language: TEXT
    region: TEXT?
    type: SubtitleType
    - -
    PRIMARY(playable_content_id, language, region, type)
}

playable_content "1" <- - "0..*" subtitle_track

class movie <<table>> {
    media_work_id: UUID <<PK>> <<FK>>
}

movie "1" - -> "1" media_work

class movie_feature <<table>> {
     movie_id: UUID <<FK>>
     playable_content_id: UUID <<FK>>
     sort_index: INT
     - -
     PRIMARY(movie_id, playable_content_id)
     UNIQUE(movie_id, sort_index)
}

movie "1" <- - "0..*" movie_feature
playable_content "1" <- - "0..*" movie_feature

class tv <<table>> {
    media_work_id: UUID <<PK>> <<FK>>
    status: TVStatus
    ended_on: DATE?
}

tv "1" - -> "1" media_work

class season <<table>> {
    id: UUID <<PK>>
    tv_id: UUID <<FK>>
    season_number: INT
    title: TEXT?
    description: TEXT?
    - -
    UNIQUE(tv_id, season_number)
}

tv "1" <- - "0..*" season

class episode <<table>> {
    id: UUID <<PK>>
    season_id: UUID <<FK>>
    playable_content_id: UUID <<FK>>
    episode_number: INT?
    air_date: DATE
    role: EpisodeRole?
    - -
    UNIQUE(season_id, episode_number)
    WHERE episode_number IS NOT NULL
}

season "1" <- - "0..*" episode
playable_content "1" <- - "0..*" episode

contributor "1" <- - "0..*" contribution

@enduml

PlantUML version 1.2020.02(Sun Mar 01 10:22:07 UTC 2020)
(GPL source distribution)
Java Runtime: OpenJDK Runtime Environment
JVM: OpenJDK 64-Bit Server VM
Java Version: 17.0.18+8
Operating System: Linux
Default Encoding: UTF-8
Language: en
Country: null
--></g></svg>