<?xml version="1.0" encoding="UTF-8" standalone="no"?><svg xmlns="http://www.w3.org/2000/svg" xmlns:xlink="http://www.w3.org/1999/xlink" contentScriptType="application/ecmascript" contentStyleType="text/css" height="518px" preserveAspectRatio="none" style="width:857px;height:518px;" version="1.1" viewBox="0 0 857 518" width="857px" zoomAndPan="magnify"><defs><filter height="300%" id="fq4lkpbz68hp3" width="300%" x="-1" y="-1"><feGaussianBlur result="blurOut" stdDeviation="2.0"/><feColorMatrix in="blurOut" result="blurOut2" type="matrix" values="0 0 0 0 0 0 0 0 0 0 0 0 0 0 0 0 0 0 .4 0"/><feOffset dx="4.0" dy="4.0" in="blurOut2" result="blurOut3"/><feBlend in="SourceGraphic" in2="blurOut3" mode="normal"/></filter></defs><g><!--MD5=[a46658d446b05034c23a4bc1a7db0e1a]
class media_work--><rect fill="#FEFECE" filter="url(#fq4lkpbz68hp3)" height="105.1563" id="media_work" style="stroke: #A80036; stroke-width: 1.5;" width="171" x="170" y="186"/><ellipse cx="214.75" cy="204.9688" fill="#ADD1B2" rx="11" ry="11" style="stroke: #A80036; stroke-width: 1.0;"/><path d="M217.7188,210.6094 Q217.1406,210.9063 216.5,211.0469 Q215.8594,211.2031 215.1563,211.2031 Q212.6563,211.2031 211.3281,209.5625 Q210.0156,207.9063 210.0156,204.7813 Q210.0156,201.6563 211.3281,200 Q212.6563,198.3438 215.1563,198.3438 Q215.8594,198.3438 216.5,198.5 Q217.1563,198.6563 217.7188,198.9531 L217.7188,201.6719 Q217.0938,201.0938 216.5,200.8281 Q215.9063,200.5469 215.2813,200.5469 Q213.9375,200.5469 213.25,201.625 Q212.5625,202.6875 212.5625,204.7813 Q212.5625,206.875 213.25,207.9531 Q213.9375,209.0156 215.2813,209.0156 Q215.9063,209.0156 216.5,208.75 Q217.0938,208.4688 217.7188,207.8906 L217.7188,210.6094 Z "/><text fill="#000000" font-family="sans-serif" font-size="12" font-style="italic" lengthAdjust="spacingAndGlyphs" textLength="46" x="248.75" y="202.1387">«table»</text><text fill="#000000" font-family="sans-serif" font-size="12" lengthAdjust="spacingAndGlyphs" textLength="73" x="235.25" y="216.1074">media_work</text><line style="stroke: #A80036; stroke-width: 1.5;" x1="171" x2="340" y1="223.9375" y2="223.9375"/><text fill="#000000" font-family="sans-serif" font-size="11" lengthAdjust="spacingAndGlyphs" textLength="77" x="176" y="238.1479">id: UUID «PK»</text><text fill="#000000" font-family="sans-serif" font-size="11" lengthAdjust="spacingAndGlyphs" textLength="57" x="176" y="250.9526">title: TEXT</text><text fill="#000000" font-family="sans-serif" font-size="11" lengthAdjust="spacingAndGlyphs" textLength="99" x="176" y="263.7573">description: TEXT</text><text fill="#000000" font-family="sans-serif" font-size="11" lengthAdjust="spacingAndGlyphs" textLength="159" x="176" y="276.562">original_release_date: DATE</text><line style="stroke: #A80036; stroke-width: 1.5;" x1="171" x2="340" y1="283.1563" y2="283.1563"/><!--MD5=[23ff8735309b44f3974df67f35899a34]
class contribution--><rect fill="#FEFECE" filter="url(#fq4lkpbz68hp3)" height="117.9609" id="contribution" style="stroke: #A80036; stroke-width: 1.5;" width="263" x="6" y="377"/><ellipse cx="95.25" cy="395.9688" fill="#ADD1B2" rx="11" ry="11" style="stroke: #A80036; stroke-width: 1.0;"/><path d="M98.2188,401.6094 Q97.6406,401.9063 97,402.0469 Q96.3594,402.2031 95.6563,402.2031 Q93.1563,402.2031 91.8281,400.5625 Q90.5156,398.9063 90.5156,395.7813 Q90.5156,392.6563 91.8281,391 Q93.1563,389.3438 95.6563,389.3438 Q96.3594,389.3438 97,389.5 Q97.6563,389.6563 98.2188,389.9531 L98.2188,392.6719 Q97.5938,392.0938 97,391.8281 Q96.4063,391.5469 95.7813,391.5469 Q94.4375,391.5469 93.75,392.625 Q93.0625,393.6875 93.0625,395.7813 Q93.0625,397.875 93.75,398.9531 Q94.4375,400.0156 95.7813,400.0156 Q96.4063,400.0156 97,399.75 Q97.5938,399.4688 98.2188,398.8906 L98.2188,401.6094 Z "/><text fill="#000000" font-family="sans-serif" font-size="12" font-style="italic" lengthAdjust="spacingAndGlyphs" textLength="46" x="130.75" y="393.1387">«table»</text><text fill="#000000" font-family="sans-serif" font-size="12" lengthAdjust="spacingAndGlyphs" textLength="76" x="115.75" y="407.1074">contribution</text><line style="stroke: #A80036; stroke-width: 1.5;" x1="7" x2="268" y1="414.9375" y2="414.9375"/><text fill="#000000" font-family="sans-serif" font-size="11" lengthAdjust="spacingAndGlyphs" textLength="77" x="12" y="429.1479">id: UUID «PK»</text><text fill="#000000" font-family="sans-serif" font-size="11" lengthAdjust="spacingAndGlyphs" textLength="150" x="12" y="441.9526">media_work_id: UUID «FK»</text><text fill="#000000" font-family="sans-serif" font-size="11" lengthAdjust="spacingAndGlyphs" textLength="144" x="12" y="454.7573">contributor_id: UUID «FK»</text><text fill="#000000" font-family="sans-serif" font-size="11" lengthAdjust="spacingAndGlyphs" textLength="126" x="12" y="467.562">contributor_role: TEXT</text><line style="stroke: #A80036; stroke-width: 1.0;" x1="7" x2="268" y1="474.1563" y2="474.1563"/><text fill="#000000" font-family="sans-serif" font-size="11" lengthAdjust="spacingAndGlyphs" textLength="251" x="12" y="488.3667">UNIQUE(media_work_id, contributor_id, role)</text><!--MD5=[48f574f03aa9f209c3e6ebb00fc1f351]
class content--><rect fill="#FEFECE" filter="url(#fq4lkpbz68hp3)" height="105.1563" id="content" style="stroke: #A80036; stroke-width: 1.5;" width="167" x="652" y="8"/><ellipse cx="706.75" cy="26.9688" fill="#ADD1B2" rx="11" ry="11" style="stroke: #A80036; stroke-width: 1.0;"/><path d="M709.7188,32.6094 Q709.1406,32.9063 708.5,33.0469 Q707.8594,33.2031 707.1563,33.2031 Q704.6563,33.2031 703.3281,31.5625 Q702.0156,29.9063 702.0156,26.7813 Q702.0156,23.6563 703.3281,22 Q704.6563,20.3438 707.1563,20.3438 Q707.8594,20.3438 708.5,20.5 Q709.1563,20.6563 709.7188,20.9531 L709.7188,23.6719 Q709.0938,23.0938 708.5,22.8281 Q707.9063,22.5469 707.2813,22.5469 Q705.9375,22.5469 705.25,23.625 Q704.5625,24.6875 704.5625,26.7813 Q704.5625,28.875 705.25,29.9531 Q705.9375,31.0156 707.2813,31.0156 Q707.9063,31.0156 708.5,30.75 Q709.0938,30.4688 709.7188,29.8906 L709.7188,32.6094 Z "/><text fill="#000000" font-family="sans-serif" font-size="12" font-style="italic" lengthAdjust="spacingAndGlyphs" textLength="46" x="728.75" y="24.1387">«table»</text><text fill="#000000" font-family="sans-serif" font-size="12" lengthAdjust="spacingAndGlyphs" textLength="49" x="727.25" y="38.1074">content</text><line style="stroke: #A80036; stroke-width: 1.5;" x1="653" x2="818" y1="45.9375" y2="45.9375"/><text fill="#000000" font-family="sans-serif" font-size="11" lengthAdjust="spacingAndGlyphs" textLength="77" x="658" y="60.1479">id: UUID «PK»</text><text fill="#000000" font-family="sans-serif" font-size="11" lengthAdjust="spacingAndGlyphs" textLength="150" x="658" y="72.9526">media_work_id: UUID «FK»</text><line style="stroke: #A80036; stroke-width: 1.5;" x1="653" x2="818" y1="79.5469" y2="79.5469"/><text fill="#000000" font-family="sans-serif" font-size="11" lengthAdjust="spacingAndGlyphs" textLength="113" x="658" y="93.7573">title: TEXT (nullable)</text><text fill="#000000" font-family="sans-serif" font-size="11" lengthAdjust="spacingAndGlyphs" textLength="155" x="658" y="106.562">description: TEXT (nullable)</text><!--MD5=[5d1a9ee8076010dc62ddec054a37bf42]
class playable_content--><rect fill="#FEFECE" filter="url(#fq4lkpbz68hp3)" height="92.3516" id="playable_content" style="stroke: #A80036; stroke-width: 1.5;" width="168" x="651.5" y="192.5"/><ellipse cx="679.55" cy="211.4688" fill="#ADD1B2" rx="11" ry="11" style="stroke: #A80036; stroke-width: 1.0;"/><path d="M682.5188,217.1094 Q681.9406,217.4063 681.3,217.5469 Q680.6594,217.7031 679.9563,217.7031 Q677.4563,217.7031 676.1281,216.0625 Q674.8156,214.4063 674.8156,211.2813 Q674.8156,208.1563 676.1281,206.5 Q677.4563,204.8438 679.9563,204.8438 Q680.6594,204.8438 681.3,205 Q681.9563,205.1563 682.5188,205.4531 L682.5188,208.1719 Q681.8938,207.5938 681.3,207.3281 Q680.7063,207.0469 680.0813,207.0469 Q678.7375,207.0469 678.05,208.125 Q677.3625,209.1875 677.3625,211.2813 Q677.3625,213.375 678.05,214.4531 Q678.7375,215.5156 680.0813,215.5156 Q680.7063,215.5156 681.3,215.25 Q681.8938,214.9688 682.5188,214.3906 L682.5188,217.1094 Z "/><text fill="#000000" font-family="sans-serif" font-size="12" font-style="italic" lengthAdjust="spacingAndGlyphs" textLength="46" x="726.95" y="208.6387">«table»</text><text fill="#000000" font-family="sans-serif" font-size="12" lengthAdjust="spacingAndGlyphs" textLength="107" x="696.45" y="222.6074">playable_content</text><line style="stroke: #A80036; stroke-width: 1.5;" x1="652.5" x2="818.5" y1="230.4375" y2="230.4375"/><text fill="#000000" font-family="sans-serif" font-size="11" lengthAdjust="spacingAndGlyphs" textLength="156" x="657.5" y="244.6479">content_id: UUID «PK» «FK»</text><text fill="#000000" font-family="sans-serif" font-size="11" lengthAdjust="spacingAndGlyphs" textLength="122" x="657.5" y="257.4526">runtime_minutes: INT</text><line style="stroke: #A80036; stroke-width: 1.5;" x1="652.5" x2="818.5" y1="264.0469" y2="264.0469"/><text fill="#000000" font-family="sans-serif" font-size="11" lengthAdjust="spacingAndGlyphs" textLength="139" x="657.5" y="278.2573">cut_type: TEXT (nullable)</text><!--MD5=[0d0503032abcfd044ebbd4c79c7561fa]
class audio_track--><rect fill="#FEFECE" filter="url(#fq4lkpbz68hp3)" height="92.3516" id="audio_track" style="stroke: #A80036; stroke-width: 1.5;" width="221" x="625" y="390"/><ellipse cx="694.75" cy="408.9688" fill="#ADD1B2" rx="11" ry="11" style="stroke: #A80036; stroke-width: 1.0;"/><path d="M697.7188,414.6094 Q697.1406,414.9063 696.5,415.0469 Q695.8594,415.2031 695.1563,415.2031 Q692.6563,415.2031 691.3281,413.5625 Q690.0156,411.9063 690.0156,408.7813 Q690.0156,405.6563 691.3281,404 Q692.6563,402.3438 695.1563,402.3438 Q695.8594,402.3438 696.5,402.5 Q697.1563,402.6563 697.7188,402.9531 L697.7188,405.6719 Q697.0938,405.0938 696.5,404.8281 Q695.9063,404.5469 695.2813,404.5469 Q693.9375,404.5469 693.25,405.625 Q692.5625,406.6875 692.5625,408.7813 Q692.5625,410.875 693.25,411.9531 Q693.9375,413.0156 695.2813,413.0156 Q695.9063,413.0156 696.5,412.75 Q697.0938,412.4688 697.7188,411.8906 L697.7188,414.6094 Z "/><text fill="#000000" font-family="sans-serif" font-size="12" font-style="italic" lengthAdjust="spacingAndGlyphs" textLength="46" x="728.75" y="406.1387">«table»</text><text fill="#000000" font-family="sans-serif" font-size="12" lengthAdjust="spacingAndGlyphs" textLength="73" x="715.25" y="420.1074">audio_track</text><line style="stroke: #A80036; stroke-width: 1.5;" x1="626" x2="845" y1="427.9375" y2="427.9375"/><text fill="#000000" font-family="sans-serif" font-size="11" lengthAdjust="spacingAndGlyphs" textLength="209" x="631" y="442.1479">playable_content_id: UUID «PK» «FK»</text><text fill="#000000" font-family="sans-serif" font-size="11" lengthAdjust="spacingAndGlyphs" textLength="120" x="631" y="454.9526">language: TEXT «PK»</text><text fill="#000000" font-family="sans-serif" font-size="11" lengthAdjust="spacingAndGlyphs" textLength="106" x="631" y="467.7573">format: TEXT «PK»</text><line style="stroke: #A80036; stroke-width: 1.5;" x1="626" x2="845" y1="474.3516" y2="474.3516"/><!--MD5=[c6f8f8eba72f86f9c5c6666e8cb970d9]
class movie--><rect fill="#FEFECE" filter="url(#fq4lkpbz68hp3)" height="66.7422" id="movie" style="stroke: #A80036; stroke-width: 1.5;" width="194" x="151.5" y="27"/><ellipse cx="223.25" cy="45.9688" fill="#ADD1B2" rx="11" ry="11" style="stroke: #A80036; stroke-width: 1.0;"/><path d="M226.2188,51.6094 Q225.6406,51.9063 225,52.0469 Q224.3594,52.2031 223.6563,52.2031 Q221.1563,52.2031 219.8281,50.5625 Q218.5156,48.9063 218.5156,45.7813 Q218.5156,42.6563 219.8281,41 Q221.1563,39.3438 223.6563,39.3438 Q224.3594,39.3438 225,39.5 Q225.6563,39.6563 226.2188,39.9531 L226.2188,42.6719 Q225.5938,42.0938 225,41.8281 Q224.4063,41.5469 223.7813,41.5469 Q222.4375,41.5469 221.75,42.625 Q221.0625,43.6875 221.0625,45.7813 Q221.0625,47.875 221.75,48.9531 Q222.4375,50.0156 223.7813,50.0156 Q224.4063,50.0156 225,49.75 Q225.5938,49.4688 226.2188,48.8906 L226.2188,51.6094 Z "/><text fill="#000000" font-family="sans-serif" font-size="12" font-style="italic" lengthAdjust="spacingAndGlyphs" textLength="46" x="241.75" y="43.1387">«table»</text><text fill="#000000" font-family="sans-serif" font-size="12" lengthAdjust="spacingAndGlyphs" textLength="36" x="246.75" y="57.1074">movie</text><line style="stroke: #A80036; stroke-width: 1.5;" x1="152.5" x2="344.5" y1="64.9375" y2="64.9375"/><text fill="#000000" font-family="sans-serif" font-size="11" lengthAdjust="spacingAndGlyphs" textLength="182" x="157.5" y="79.1479">media_work_id: UUID «PK» «FK»</text><line style="stroke: #A80036; stroke-width: 1.5;" x1="152.5" x2="344.5" y1="85.7422" y2="85.7422"/><!--MD5=[733462b47cf04df2ca7bac97249b98e3]
class tv--><rect fill="#FEFECE" filter="url(#fq4lkpbz68hp3)" height="92.3516" id="tv" style="stroke: #A80036; stroke-width: 1.5;" width="194" x="380.5" y="14.5"/><ellipse cx="452.25" cy="33.4688" fill="#ADD1B2" rx="11" ry="11" style="stroke: #A80036; stroke-width: 1.0;"/><path d="M455.2188,39.1094 Q454.6406,39.4063 454,39.5469 Q453.3594,39.7031 452.6563,39.7031 Q450.1563,39.7031 448.8281,38.0625 Q447.5156,36.4063 447.5156,33.2813 Q447.5156,30.1563 448.8281,28.5 Q450.1563,26.8438 452.6563,26.8438 Q453.3594,26.8438 454,27 Q454.6563,27.1563 455.2188,27.4531 L455.2188,30.1719 Q454.5938,29.5938 454,29.3281 Q453.4063,29.0469 452.7813,29.0469 Q451.4375,29.0469 450.75,30.125 Q450.0625,31.1875 450.0625,33.2813 Q450.0625,35.375 450.75,36.4531 Q451.4375,37.5156 452.7813,37.5156 Q453.4063,37.5156 454,37.25 Q454.5938,36.9688 455.2188,36.3906 L455.2188,39.1094 Z "/><text fill="#000000" font-family="sans-serif" font-size="12" font-style="italic" lengthAdjust="spacingAndGlyphs" textLength="46" x="470.75" y="30.6387">«table»</text><text fill="#000000" font-family="sans-serif" font-size="12" lengthAdjust="spacingAndGlyphs" textLength="11" x="488.25" y="44.6074">tv</text><line style="stroke: #A80036; stroke-width: 1.5;" x1="381.5" x2="573.5" y1="52.4375" y2="52.4375"/><text fill="#000000" font-family="sans-serif" font-size="11" lengthAdjust="spacingAndGlyphs" textLength="182" x="386.5" y="66.6479">media_work_id: UUID «PK» «FK»</text><text fill="#000000" font-family="sans-serif" font-size="11" lengthAdjust="spacingAndGlyphs" textLength="72" x="386.5" y="79.4526">status: TEXT</text><text fill="#000000" font-family="sans-serif" font-size="11" lengthAdjust="spacingAndGlyphs" textLength="91" x="386.5" y="92.2573">ended_on: TEXT</text><line style="stroke: #A80036; stroke-width: 1.5;" x1="381.5" x2="573.5" y1="98.8516" y2="98.8516"/><!--MD5=[65239b9aab999f0c561a5ca3aa8c59c9]
class season--><rect fill="#FEFECE" filter="url(#fq4lkpbz68hp3)" height="130.7656" id="season" style="stroke: #A80036; stroke-width: 1.5;" width="189" x="383" y="173"/><ellipse cx="450.25" cy="191.9688" fill="#ADD1B2" rx="11" ry="11" style="stroke: #A80036; stroke-width: 1.0;"/><path d="M453.2188,197.6094 Q452.6406,197.9063 452,198.0469 Q451.3594,198.2031 450.6563,198.2031 Q448.1563,198.2031 446.8281,196.5625 Q445.5156,194.9063 445.5156,191.7813 Q445.5156,188.6563 446.8281,187 Q448.1563,185.3438 450.6563,185.3438 Q451.3594,185.3438 452,185.5 Q452.6563,185.6563 453.2188,185.9531 L453.2188,188.6719 Q452.5938,188.0938 452,187.8281 Q451.4063,187.5469 450.7813,187.5469 Q449.4375,187.5469 448.75,188.625 Q448.0625,189.6875 448.0625,191.7813 Q448.0625,193.875 448.75,194.9531 Q449.4375,196.0156 450.7813,196.0156 Q451.4063,196.0156 452,195.75 Q452.5938,195.4688 453.2188,194.8906 L453.2188,197.6094 Z "/><text fill="#000000" font-family="sans-serif" font-size="12" font-style="italic" lengthAdjust="spacingAndGlyphs" textLength="46" x="470.75" y="189.1387">«table»</text><text fill="#000000" font-family="sans-serif" font-size="12" lengthAdjust="spacingAndGlyphs" textLength="46" x="470.75" y="203.1074">season</text><line style="stroke: #A80036; stroke-width: 1.5;" x1="384" x2="571" y1="210.9375" y2="210.9375"/><text fill="#000000" font-family="sans-serif" font-size="11" lengthAdjust="spacingAndGlyphs" textLength="77" x="389" y="225.1479">id: UUID «PK»</text><text fill="#000000" font-family="sans-serif" font-size="11" lengthAdjust="spacingAndGlyphs" textLength="92" x="389" y="237.9526">tv_id: UUID «FK»</text><text fill="#000000" font-family="sans-serif" font-size="11" lengthAdjust="spacingAndGlyphs" textLength="118" x="389" y="250.7573">season_number: INT</text><text fill="#000000" font-family="sans-serif" font-size="11" lengthAdjust="spacingAndGlyphs" textLength="113" x="389" y="263.562">title: TEXT (nullable)</text><text fill="#000000" font-family="sans-serif" font-size="11" lengthAdjust="spacingAndGlyphs" textLength="155" x="389" y="276.3667">description: TEXT (nullable)</text><line style="stroke: #A80036; stroke-width: 1.0;" x1="384" x2="571" y1="282.9609" y2="282.9609"/><text fill="#000000" font-family="sans-serif" font-size="11" lengthAdjust="spacingAndGlyphs" textLength="177" x="389" y="297.1714">UNIQUE(tv_id, season_number)</text><!--MD5=[77ab79214866798d9cf70993822fb05b]
class episode--><rect fill="#FEFECE" filter="url(#fq4lkpbz68hp3)" height="143.5703" id="episode" style="stroke: #A80036; stroke-width: 1.5;" width="224" x="365.5" y="364"/><ellipse cx="448.25" cy="382.9688" fill="#ADD1B2" rx="11" ry="11" style="stroke: #A80036; stroke-width: 1.0;"/><path d="M451.2188,388.6094 Q450.6406,388.9063 450,389.0469 Q449.3594,389.2031 448.6563,389.2031 Q446.1563,389.2031 444.8281,387.5625 Q443.5156,385.9063 443.5156,382.7813 Q443.5156,379.6563 444.8281,378 Q446.1563,376.3438 448.6563,376.3438 Q449.3594,376.3438 450,376.5 Q450.6563,376.6563 451.2188,376.9531 L451.2188,379.6719 Q450.5938,379.0938 450,378.8281 Q449.4063,378.5469 448.7813,378.5469 Q447.4375,378.5469 446.75,379.625 Q446.0625,380.6875 446.0625,382.7813 Q446.0625,384.875 446.75,385.9531 Q447.4375,387.0156 448.7813,387.0156 Q449.4063,387.0156 450,386.75 Q450.5938,386.4688 451.2188,385.8906 L451.2188,388.6094 Z "/><text fill="#000000" font-family="sans-serif" font-size="12" font-style="italic" lengthAdjust="spacingAndGlyphs" textLength="46" x="470.75" y="380.1387">«table»</text><text fill="#000000" font-family="sans-serif" font-size="12" lengthAdjust="spacingAndGlyphs" textLength="50" x="468.75" y="394.1074">episode</text><line style="stroke: #A80036; stroke-width: 1.5;" x1="366.5" x2="588.5" y1="401.9375" y2="401.9375"/><text fill="#000000" font-family="sans-serif" font-size="11" lengthAdjust="spacingAndGlyphs" textLength="77" x="371.5" y="416.1479">id: UUID «PK»</text><text fill="#000000" font-family="sans-serif" font-size="11" lengthAdjust="spacingAndGlyphs" textLength="124" x="371.5" y="428.9526">season_id: UUID «FK»</text><text fill="#000000" font-family="sans-serif" font-size="11" lengthAdjust="spacingAndGlyphs" textLength="124" x="371.5" y="441.7573">content_id: UUID «FK»</text><text fill="#000000" font-family="sans-serif" font-size="11" lengthAdjust="spacingAndGlyphs" textLength="181" x="371.5" y="454.562">episode_number: INT (nullable))</text><text fill="#000000" font-family="sans-serif" font-size="11" lengthAdjust="spacingAndGlyphs" textLength="83" x="371.5" y="467.3667">air_date: DATE</text><text fill="#000000" font-family="sans-serif" font-size="11" lengthAdjust="spacingAndGlyphs" textLength="114" x="371.5" y="480.1714">role: TEXT (nullable)</text><line style="stroke: #A80036; stroke-width: 1.0;" x1="366.5" x2="588.5" y1="486.7656" y2="486.7656"/><text fill="#000000" font-family="sans-serif" font-size="11" lengthAdjust="spacingAndGlyphs" textLength="212" x="371.5" y="500.9761">UNIQUE(season_id, episode_number)</text><!--MD5=[c70d0026982c74753187fd828a4c968f]
class contributor--><rect fill="#FEFECE" filter="url(#fq4lkpbz68hp3)" height="48" id="contributor" style="stroke: #A80036; stroke-width: 1.5;" width="102" x="32.5" y="214.5"/><ellipse cx="47.5" cy="230.5" fill="#ADD1B2" rx="11" ry="11" style="stroke: #A80036; stroke-width: 1.0;"/><path d="M50.4688,236.1406 Q49.8906,236.4375 49.25,236.5781 Q48.6094,236.7344 47.9063,236.7344 Q45.4063,236.7344 44.0781,235.0938 Q42.7656,233.4375 42.7656,230.3125 Q42.7656,227.1875 44.0781,225.5313 Q45.4063,223.875 47.9063,223.875 Q48.6094,223.875 49.25,224.0313 Q49.9063,224.1875 50.4688,224.4844 L50.4688,227.2031 Q49.8438,226.625 49.25,226.3594 Q48.6563,226.0781 48.0313,226.0781 Q46.6875,226.0781 46,227.1563 Q45.3125,228.2188 45.3125,230.3125 Q45.3125,232.4063 46,233.4844 Q46.6875,234.5469 48.0313,234.5469 Q48.6563,234.5469 49.25,234.2813 Q49.8438,234 50.4688,233.4219 L50.4688,236.1406 Z "/><text fill="#000000" font-family="sans-serif" font-size="12" lengthAdjust="spacingAndGlyphs" textLength="70" x="61.5" y="234.6543">contributor</text><line style="stroke: #A80036; stroke-width: 1.5;" x1="33.5" x2="133.5" y1="246.5" y2="246.5"/><line style="stroke: #A80036; stroke-width: 1.5;" x1="33.5" x2="133.5" y1="254.5" y2="254.5"/><!--MD5=[5ef73dc266c42a643b67e9845d2d3e42]
reverse link media_work to contribution--><path d="M221.7,295.5 C206.32,320.98 188.12,351.13 172.58,376.87 " fill="none" id="media_work&lt;-contribution" style="stroke: #A80036; stroke-width: 1.0;"/><polygon fill="#A80036" points="224.34,291.12,216.2657,296.7597,221.757,295.4012,223.1156,300.8925,224.34,291.12" style="stroke: #A80036; stroke-width: 1.0;"/><text fill="#000000" font-family="sans-serif" font-size="13" lengthAdjust="spacingAndGlyphs" textLength="8" x="211.6154" y="311.2639">1</text><text fill="#000000" font-family="sans-serif" font-size="13" lengthAdjust="spacingAndGlyphs" textLength="23" x="152.4538" y="365.8268">0..*</text><!--MD5=[378a51d7a9e1af673387b76ceb8a041c]
reverse link content to playable_content--><path d="M735.5,118.4 C735.5,142.33 735.5,169.77 735.5,192.28 " fill="none" id="content&lt;-playable_content" style="stroke: #A80036; stroke-width: 1.0;"/><polygon fill="#A80036" points="735.5,113.35,731.5,122.35,735.5,118.35,739.5,122.35,735.5,113.35" style="stroke: #A80036; stroke-width: 1.0;"/><!--MD5=[df91c1d2556f8695b2a9a346fc894770]
reverse link playable_content to audio_track--><path d="M735.5,290.11 C735.5,320.98 735.5,360.1 735.5,389.9 " fill="none" id="playable_content&lt;-audio_track" style="stroke: #A80036; stroke-width: 1.0;"/><polygon fill="#A80036" points="735.5,284.84,731.5,293.84,735.5,289.84,739.5,293.84,735.5,284.84" style="stroke: #A80036; stroke-width: 1.0;"/><text fill="#000000" font-family="sans-serif" font-size="13" lengthAdjust="spacingAndGlyphs" textLength="8" x="726.9125" y="304.7986">1</text><text fill="#000000" font-family="sans-serif" font-size="13" lengthAdjust="spacingAndGlyphs" textLength="23" x="710.8109" y="379.0783">0..*</text><!--MD5=[1b679af2d29bc6812a947d657e6bf80f]
link movie to media_work--><path d="M249.8,94.19 C250.76,118.43 252.1,152.08 253.24,180.69 " fill="none" id="movie-&gt;media_work" style="stroke: #A80036; stroke-width: 1.0;"/><polygon fill="#A80036" points="253.45,185.97,257.0871,176.8173,253.2502,180.974,249.0935,177.1371,253.45,185.97" style="stroke: #A80036; stroke-width: 1.0;"/><text fill="#000000" font-family="sans-serif" font-size="13" lengthAdjust="spacingAndGlyphs" textLength="8" x="241.3022" y="113.8873">1</text><text fill="#000000" font-family="sans-serif" font-size="13" lengthAdjust="spacingAndGlyphs" textLength="8" x="244.637" y="174.9688">1</text><!--MD5=[975f161dbd8a3d6bd8c7987f2e830125]
link tv to media_work--><path d="M420.62,106.6 C391.36,129.79 355.45,158.26 324.61,182.71 " fill="none" id="tv-&gt;media_work" style="stroke: #A80036; stroke-width: 1.0;"/><polygon fill="#A80036" points="320.48,185.98,330.0176,183.5236,324.3982,182.8739,325.0479,177.2545,320.48,185.98" style="stroke: #A80036; stroke-width: 1.0;"/><text fill="#000000" font-family="sans-serif" font-size="13" lengthAdjust="spacingAndGlyphs" textLength="8" x="403.2978" y="126.8576">1</text><text fill="#000000" font-family="sans-serif" font-size="13" lengthAdjust="spacingAndGlyphs" textLength="8" x="320.6742" y="174.9801">1</text><!--MD5=[35fe5c7a75031e048953b380210e08f4]
reverse link tv to season--><path d="M477.5,112.08 C477.5,130.99 477.5,152.74 477.5,172.76 " fill="none" id="tv&lt;-season" style="stroke: #A80036; stroke-width: 1.0;"/><polygon fill="#A80036" points="477.5,106.82,473.5,115.82,477.5,111.82,481.5,115.82,477.5,106.82" style="stroke: #A80036; stroke-width: 1.0;"/><text fill="#000000" font-family="sans-serif" font-size="13" lengthAdjust="spacingAndGlyphs" textLength="8" x="468.9125" y="126.7756">1</text><text fill="#000000" font-family="sans-serif" font-size="13" lengthAdjust="spacingAndGlyphs" textLength="23" x="453.2422" y="161.8364">0..*</text><!--MD5=[433437d5c57c41081fc500fbb31c1699]
reverse link season to episode--><path d="M477.5,309.48 C477.5,327.12 477.5,346.07 477.5,363.77 " fill="none" id="season&lt;-episode" style="stroke: #A80036; stroke-width: 1.0;"/><polygon fill="#A80036" points="477.5,304.06,473.5,313.06,477.5,309.06,481.5,313.06,477.5,304.06" style="stroke: #A80036; stroke-width: 1.0;"/><text fill="#000000" font-family="sans-serif" font-size="13" lengthAdjust="spacingAndGlyphs" textLength="8" x="469.0875" y="323.6801">1</text><text fill="#000000" font-family="sans-serif" font-size="13" lengthAdjust="spacingAndGlyphs" textLength="23" x="453.368" y="353.0162">0..*</text><!--MD5=[8380106985c29bc7a3396ae9d3b32f61]
reverse link contributor to contribution--><path d="M91.32,267.8 C99.16,296.19 111.46,340.74 121.4,376.72 " fill="none" id="contributor&lt;-contribution" style="stroke: #A80036; stroke-width: 1.0;"/><polygon fill="#A80036" points="89.91,262.69,88.4483,272.4298,91.2401,267.5098,96.1601,270.3016,89.91,262.69" style="stroke: #A80036; stroke-width: 1.0;"/><text fill="#000000" font-family="sans-serif" font-size="13" lengthAdjust="spacingAndGlyphs" textLength="8" x="82.4974" y="282.4975">1</text><text fill="#000000" font-family="sans-serif" font-size="13" lengthAdjust="spacingAndGlyphs" textLength="23" x="95.2088" y="366.0754">0..*</text><!--MD5=[a731f19384129d7eb60aa26cc258cb6f]
@startuml
skinparam classAttributeIconSize 0

class media_work <<table>> {
    id: UUID <<PK>>
    title: TEXT
    description: TEXT
    original_release_date: DATE
}


class contribution <<table>> {
    id: UUID <<PK>>
    media_work_id: UUID <<FK>>
    contributor_id: UUID <<FK>>
    contributor_role: TEXT
    - -
    UNIQUE(media_work_id, contributor_id, role)
}

media_work "1" <- - "0..*" contribution

class content <<table>> {
    id: UUID <<PK>>
    media_work_id: UUID <<FK>>
    title: TEXT (nullable)
    description: TEXT (nullable)
}


class playable_content <<table>> {
    content_id: UUID <<PK>> <<FK>>
    runtime_minutes: INT
    cut_type: TEXT (nullable)
}

content <- - playable_content

class audio_track <<table>> {
    playable_content_id: UUID <<PK>> <<FK>>
    language: TEXT <<PK>>
    format: TEXT <<PK>>
}

playable_content "1" <- - "0..*" audio_track

class movie <<table>> {
    media_work_id: UUID <<PK>> <<FK>>
}

movie "1" - -> "1" media_work


class tv <<table>> {
    media_work_id: UUID <<PK>> <<FK>>
    status: TEXT
    ended_on: TEXT
}

tv "1" - -> "1" media_work

class season <<table>> {
    id: UUID <<PK>>
    tv_id: UUID <<FK>>
    season_number: INT
    title: TEXT (nullable)
    description: TEXT (nullable)
    - -
    UNIQUE(tv_id, season_number)
}

tv "1" <- - "0..*" season

class episode <<table>> {
    id: UUID <<PK>>
    season_id: UUID <<FK>>
    content_id: UUID <<FK>>
    episode_number: INT (nullable))
    air_date: DATE
    role: TEXT (nullable)
    - -
    UNIQUE(season_id, episode_number)
}

season "1" <- - "0..*" episode

contributor "1" <- - "0..*" contribution

@enduml

PlantUML version 1.2020.02(Sun Mar 01 10:22:07 UTC 2020)
(GPL source distribution)
Java Runtime: OpenJDK Runtime Environment
JVM: OpenJDK 64-Bit Server VM
Java Version: 17.0.18+8
Operating System: Linux
Default Encoding: UTF-8
Language: en
Country: null
--></g></svg>