<?xml version="1.0" encoding="UTF-8" standalone="no"?><svg xmlns="http://www.w3.org/2000/svg" xmlns:xlink="http://www.w3.org/1999/xlink" contentScriptType="application/ecmascript" contentStyleType="text/css" height="900px" preserveAspectRatio="none" style="width:1234px;height:900px;" version="1.1" viewBox="0 0 1234 900" width="1234px" zoomAndPan="magnify"><defs><filter height="300%" id="f12nmvx5qsy1h8" width="300%" x="-1" y="-1"><feGaussianBlur result="blurOut" stdDeviation="2.0"/><feColorMatrix in="blurOut" result="blurOut2" type="matrix" values="0 0 0 0 0 0 0 0 0 0 0 0 0 0 0 0 0 0 .4 0"/><feOffset dx="4.0" dy="4.0" in="blurOut2" result="blurOut3"/><feBlend in="SourceGraphic" in2="blurOut3" mode="normal"/></filter></defs><g><!--MD5=[a46658d446b05034c23a4bc1a7db0e1a]
class media_work--><rect fill="#FEFECE" filter="url(#f12nmvx5qsy1h8)" height="143.5703" id="media_work" style="stroke: #A80036; stroke-width: 1.5;" width="171" x="473.5" y="160"/><ellipse cx="518.25" cy="178.9688" fill="#ADD1B2" rx="11" ry="11" style="stroke: #A80036; stroke-width: 1.0;"/><path d="M521.2188,184.6094 Q520.6406,184.9063 520,185.0469 Q519.3594,185.2031 518.6563,185.2031 Q516.1563,185.2031 514.8281,183.5625 Q513.5156,181.9063 513.5156,178.7813 Q513.5156,175.6563 514.8281,174 Q516.1563,172.3438 518.6563,172.3438 Q519.3594,172.3438 520,172.5 Q520.6563,172.6563 521.2188,172.9531 L521.2188,175.6719 Q520.5938,175.0938 520,174.8281 Q519.4063,174.5469 518.7813,174.5469 Q517.4375,174.5469 516.75,175.625 Q516.0625,176.6875 516.0625,178.7813 Q516.0625,180.875 516.75,181.9531 Q517.4375,183.0156 518.7813,183.0156 Q519.4063,183.0156 520,182.75 Q520.5938,182.4688 521.2188,181.8906 L521.2188,184.6094 Z "/><text fill="#000000" font-family="sans-serif" font-size="12" font-style="italic" lengthAdjust="spacingAndGlyphs" textLength="46" x="552.25" y="176.1387">«table»</text><text fill="#000000" font-family="sans-serif" font-size="12" lengthAdjust="spacingAndGlyphs" textLength="73" x="538.75" y="190.1074">media_work</text><line style="stroke: #A80036; stroke-width: 1.5;" x1="474.5" x2="643.5" y1="197.9375" y2="197.9375"/><text fill="#000000" font-family="sans-serif" font-size="11" lengthAdjust="spacingAndGlyphs" textLength="77" x="479.5" y="212.1479">id: UUID «PK»</text><text fill="#000000" font-family="sans-serif" font-size="11" lengthAdjust="spacingAndGlyphs" textLength="57" x="479.5" y="224.9526">title: TEXT</text><text fill="#000000" font-family="sans-serif" font-size="11" lengthAdjust="spacingAndGlyphs" textLength="105" x="479.5" y="237.7573">description: TEXT?</text><text fill="#000000" font-family="sans-serif" font-size="11" lengthAdjust="spacingAndGlyphs" textLength="159" x="479.5" y="250.562">original_release_date: DATE</text><text fill="#000000" font-family="sans-serif" font-size="11" lengthAdjust="spacingAndGlyphs" textLength="136" x="479.5" y="263.3667">original_language: TEXT</text><text fill="#000000" font-family="sans-serif" font-size="11" lengthAdjust="spacingAndGlyphs" textLength="133" x="479.5" y="276.1714">country_of_origin: TEXT</text><text fill="#000000" font-family="sans-serif" font-size="11" lengthAdjust="spacingAndGlyphs" textLength="60" x="479.5" y="288.9761">type: TEXT</text><line style="stroke: #A80036; stroke-width: 1.5;" x1="474.5" x2="643.5" y1="295.5703" y2="295.5703"/><!--MD5=[23ff8735309b44f3974df67f35899a34]
class contribution--><rect fill="#FEFECE" filter="url(#f12nmvx5qsy1h8)" height="117.9609" id="contribution" style="stroke: #A80036; stroke-width: 1.5;" width="331" x="35.5" y="364"/><ellipse cx="158.75" cy="382.9688" fill="#ADD1B2" rx="11" ry="11" style="stroke: #A80036; stroke-width: 1.0;"/><path d="M161.7188,388.6094 Q161.1406,388.9063 160.5,389.0469 Q159.8594,389.2031 159.1563,389.2031 Q156.6563,389.2031 155.3281,387.5625 Q154.0156,385.9063 154.0156,382.7813 Q154.0156,379.6563 155.3281,378 Q156.6563,376.3438 159.1563,376.3438 Q159.8594,376.3438 160.5,376.5 Q161.1563,376.6563 161.7188,376.9531 L161.7188,379.6719 Q161.0938,379.0938 160.5,378.8281 Q159.9063,378.5469 159.2813,378.5469 Q157.9375,378.5469 157.25,379.625 Q156.5625,380.6875 156.5625,382.7813 Q156.5625,384.875 157.25,385.9531 Q157.9375,387.0156 159.2813,387.0156 Q159.9063,387.0156 160.5,386.75 Q161.0938,386.4688 161.7188,385.8906 L161.7188,388.6094 Z "/><text fill="#000000" font-family="sans-serif" font-size="12" font-style="italic" lengthAdjust="spacingAndGlyphs" textLength="46" x="194.25" y="380.1387">«table»</text><text fill="#000000" font-family="sans-serif" font-size="12" lengthAdjust="spacingAndGlyphs" textLength="76" x="179.25" y="394.1074">contribution</text><line style="stroke: #A80036; stroke-width: 1.5;" x1="36.5" x2="365.5" y1="401.9375" y2="401.9375"/><text fill="#000000" font-family="sans-serif" font-size="11" lengthAdjust="spacingAndGlyphs" textLength="77" x="41.5" y="416.1479">id: UUID «PK»</text><text fill="#000000" font-family="sans-serif" font-size="11" lengthAdjust="spacingAndGlyphs" textLength="150" x="41.5" y="428.9526">media_work_id: UUID «FK»</text><text fill="#000000" font-family="sans-serif" font-size="11" lengthAdjust="spacingAndGlyphs" textLength="144" x="41.5" y="441.7573">contributor_id: UUID «FK»</text><text fill="#000000" font-family="sans-serif" font-size="11" lengthAdjust="spacingAndGlyphs" textLength="195" x="41.5" y="454.562">contributor_role_name: TEXT «FK»</text><line style="stroke: #A80036; stroke-width: 1.0;" x1="36.5" x2="365.5" y1="461.1563" y2="461.1563"/><text fill="#000000" font-family="sans-serif" font-size="11" lengthAdjust="spacingAndGlyphs" textLength="319" x="41.5" y="475.3667">UNIQUE(media_work_id, contributor_id, contributor_role)</text><!--MD5=[ea9017fe3934af957f3ab29a0ae0ecb9]
class contributor_role--><rect fill="#FEFECE" filter="url(#f12nmvx5qsy1h8)" height="66.7422" id="contributor_role" style="stroke: #A80036; stroke-width: 1.5;" width="132" x="185" y="198.5"/><ellipse cx="200" cy="217.4688" fill="#ADD1B2" rx="11" ry="11" style="stroke: #A80036; stroke-width: 1.0;"/><path d="M202.9688,223.1094 Q202.3906,223.4063 201.75,223.5469 Q201.1094,223.7031 200.4063,223.7031 Q197.9063,223.7031 196.5781,222.0625 Q195.2656,220.4063 195.2656,217.2813 Q195.2656,214.1563 196.5781,212.5 Q197.9063,210.8438 200.4063,210.8438 Q201.1094,210.8438 201.75,211 Q202.4063,211.1563 202.9688,211.4531 L202.9688,214.1719 Q202.3438,213.5938 201.75,213.3281 Q201.1563,213.0469 200.5313,213.0469 Q199.1875,213.0469 198.5,214.125 Q197.8125,215.1875 197.8125,217.2813 Q197.8125,219.375 198.5,220.4531 Q199.1875,221.5156 200.5313,221.5156 Q201.1563,221.5156 201.75,221.25 Q202.3438,220.9688 202.9688,220.3906 L202.9688,223.1094 Z "/><text fill="#000000" font-family="sans-serif" font-size="12" font-style="italic" lengthAdjust="spacingAndGlyphs" textLength="46" x="241" y="214.6387">«table»</text><text fill="#000000" font-family="sans-serif" font-size="12" lengthAdjust="spacingAndGlyphs" textLength="100" x="214" y="228.6074">contributor_role</text><line style="stroke: #A80036; stroke-width: 1.5;" x1="186" x2="316" y1="236.4375" y2="236.4375"/><text fill="#000000" font-family="sans-serif" font-size="11" lengthAdjust="spacingAndGlyphs" textLength="100" x="191" y="250.6479">name: TEXT «PK»</text><line style="stroke: #A80036; stroke-width: 1.5;" x1="186" x2="316" y1="257.2422" y2="257.2422"/><!--MD5=[48f574f03aa9f209c3e6ebb00fc1f351]
class content--><rect fill="#FEFECE" filter="url(#f12nmvx5qsy1h8)" height="105.1563" id="content" style="stroke: #A80036; stroke-width: 1.5;" width="162" x="478" y="370.5"/><ellipse cx="530.25" cy="389.4688" fill="#ADD1B2" rx="11" ry="11" style="stroke: #A80036; stroke-width: 1.0;"/><path d="M533.2188,395.1094 Q532.6406,395.4063 532,395.5469 Q531.3594,395.7031 530.6563,395.7031 Q528.1563,395.7031 526.8281,394.0625 Q525.5156,392.4063 525.5156,389.2813 Q525.5156,386.1563 526.8281,384.5 Q528.1563,382.8438 530.6563,382.8438 Q531.3594,382.8438 532,383 Q532.6563,383.1563 533.2188,383.4531 L533.2188,386.1719 Q532.5938,385.5938 532,385.3281 Q531.4063,385.0469 530.7813,385.0469 Q529.4375,385.0469 528.75,386.125 Q528.0625,387.1875 528.0625,389.2813 Q528.0625,391.375 528.75,392.4531 Q529.4375,393.5156 530.7813,393.5156 Q531.4063,393.5156 532,393.25 Q532.5938,392.9688 533.2188,392.3906 L533.2188,395.1094 Z "/><text fill="#000000" font-family="sans-serif" font-size="12" font-style="italic" lengthAdjust="spacingAndGlyphs" textLength="46" x="552.25" y="386.6387">«table»</text><text fill="#000000" font-family="sans-serif" font-size="12" lengthAdjust="spacingAndGlyphs" textLength="49" x="550.75" y="400.6074">content</text><line style="stroke: #A80036; stroke-width: 1.5;" x1="479" x2="639" y1="408.4375" y2="408.4375"/><text fill="#000000" font-family="sans-serif" font-size="11" lengthAdjust="spacingAndGlyphs" textLength="77" x="484" y="422.6479">id: UUID «PK»</text><text fill="#000000" font-family="sans-serif" font-size="11" lengthAdjust="spacingAndGlyphs" textLength="150" x="484" y="435.4526">media_work_id: UUID «FK»</text><text fill="#000000" font-family="sans-serif" font-size="11" lengthAdjust="spacingAndGlyphs" textLength="63" x="484" y="448.2573">title: TEXT?</text><text fill="#000000" font-family="sans-serif" font-size="11" lengthAdjust="spacingAndGlyphs" textLength="105" x="484" y="461.062">description: TEXT?</text><line style="stroke: #A80036; stroke-width: 1.5;" x1="479" x2="639" y1="467.6563" y2="467.6563"/><!--MD5=[5d1a9ee8076010dc62ddec054a37bf42]
class playable_content--><rect fill="#FEFECE" filter="url(#f12nmvx5qsy1h8)" height="105.1563" id="playable_content" style="stroke: #A80036; stroke-width: 1.5;" width="168" x="475" y="555"/><ellipse cx="503.05" cy="573.9688" fill="#ADD1B2" rx="11" ry="11" style="stroke: #A80036; stroke-width: 1.0;"/><path d="M506.0188,579.6094 Q505.4406,579.9063 504.8,580.0469 Q504.1594,580.2031 503.4563,580.2031 Q500.9563,580.2031 499.6281,578.5625 Q498.3156,576.9063 498.3156,573.7813 Q498.3156,570.6563 499.6281,569 Q500.9563,567.3438 503.4563,567.3438 Q504.1594,567.3438 504.8,567.5 Q505.4563,567.6563 506.0188,567.9531 L506.0188,570.6719 Q505.3938,570.0938 504.8,569.8281 Q504.2063,569.5469 503.5813,569.5469 Q502.2375,569.5469 501.55,570.625 Q500.8625,571.6875 500.8625,573.7813 Q500.8625,575.875 501.55,576.9531 Q502.2375,578.0156 503.5813,578.0156 Q504.2063,578.0156 504.8,577.75 Q505.3938,577.4688 506.0188,576.8906 L506.0188,579.6094 Z "/><text fill="#000000" font-family="sans-serif" font-size="12" font-style="italic" lengthAdjust="spacingAndGlyphs" textLength="46" x="550.45" y="571.1387">«table»</text><text fill="#000000" font-family="sans-serif" font-size="12" lengthAdjust="spacingAndGlyphs" textLength="107" x="519.95" y="585.1074">playable_content</text><line style="stroke: #A80036; stroke-width: 1.5;" x1="476" x2="642" y1="592.9375" y2="592.9375"/><text fill="#000000" font-family="sans-serif" font-size="11" lengthAdjust="spacingAndGlyphs" textLength="156" x="481" y="607.1479">content_id: UUID «PK» «FK»</text><text fill="#000000" font-family="sans-serif" font-size="11" lengthAdjust="spacingAndGlyphs" textLength="122" x="481" y="619.9526">runtime_minutes: INT</text><text fill="#000000" font-family="sans-serif" font-size="11" lengthAdjust="spacingAndGlyphs" textLength="107" x="481" y="632.7573">cut_type: CutType?</text><text fill="#000000" font-family="sans-serif" font-size="11" lengthAdjust="spacingAndGlyphs" textLength="60" x="481" y="645.562">type: TEXT</text><line style="stroke: #A80036; stroke-width: 1.5;" x1="476" x2="642" y1="652.1563" y2="652.1563"/><!--MD5=[0d0503032abcfd044ebbd4c79c7561fa]
class audio_track--><rect fill="#FEFECE" filter="url(#f12nmvx5qsy1h8)" height="117.9609" id="audio_track" style="stroke: #A80036; stroke-width: 1.5;" width="338" x="277" y="752"/><ellipse cx="405.25" cy="770.9688" fill="#ADD1B2" rx="11" ry="11" style="stroke: #A80036; stroke-width: 1.0;"/><path d="M408.2188,776.6094 Q407.6406,776.9063 407,777.0469 Q406.3594,777.2031 405.6563,777.2031 Q403.1563,777.2031 401.8281,775.5625 Q400.5156,773.9063 400.5156,770.7813 Q400.5156,767.6563 401.8281,766 Q403.1563,764.3438 405.6563,764.3438 Q406.3594,764.3438 407,764.5 Q407.6563,764.6563 408.2188,764.9531 L408.2188,767.6719 Q407.5938,767.0938 407,766.8281 Q406.4063,766.5469 405.7813,766.5469 Q404.4375,766.5469 403.75,767.625 Q403.0625,768.6875 403.0625,770.7813 Q403.0625,772.875 403.75,773.9531 Q404.4375,775.0156 405.7813,775.0156 Q406.4063,775.0156 407,774.75 Q407.5938,774.4688 408.2188,773.8906 L408.2188,776.6094 Z "/><text fill="#000000" font-family="sans-serif" font-size="12" font-style="italic" lengthAdjust="spacingAndGlyphs" textLength="46" x="439.25" y="768.1387">«table»</text><text fill="#000000" font-family="sans-serif" font-size="12" lengthAdjust="spacingAndGlyphs" textLength="73" x="425.75" y="782.1074">audio_track</text><line style="stroke: #A80036; stroke-width: 1.5;" x1="278" x2="614" y1="789.9375" y2="789.9375"/><text fill="#000000" font-family="sans-serif" font-size="11" lengthAdjust="spacingAndGlyphs" textLength="177" x="283" y="804.1479">playable_content_id: UUID «FK»</text><text fill="#000000" font-family="sans-serif" font-size="11" lengthAdjust="spacingAndGlyphs" textLength="88" x="283" y="816.9526">language: TEXT</text><text fill="#000000" font-family="sans-serif" font-size="11" lengthAdjust="spacingAndGlyphs" textLength="107" x="283" y="829.7573">codec: AudioCodec</text><text fill="#000000" font-family="sans-serif" font-size="11" lengthAdjust="spacingAndGlyphs" textLength="187" x="283" y="842.562">channels: ChannelConfig JSONB?</text><line style="stroke: #A80036; stroke-width: 1.0;" x1="278" x2="614" y1="849.1563" y2="849.1563"/><text fill="#000000" font-family="sans-serif" font-size="11" lengthAdjust="spacingAndGlyphs" textLength="326" x="283" y="863.3667">PRIMARY(playable_content_id, language, codec, channels)</text><!--MD5=[92b0941a1a3a24f8fb4ff3ecfd2745d0]
class subtitle_track--><rect fill="#FEFECE" filter="url(#f12nmvx5qsy1h8)" height="117.9609" id="subtitle_track" style="stroke: #A80036; stroke-width: 1.5;" width="314" x="650" y="752"/><ellipse cx="760.25" cy="770.9688" fill="#ADD1B2" rx="11" ry="11" style="stroke: #A80036; stroke-width: 1.0;"/><path d="M763.2188,776.6094 Q762.6406,776.9063 762,777.0469 Q761.3594,777.2031 760.6563,777.2031 Q758.1563,777.2031 756.8281,775.5625 Q755.5156,773.9063 755.5156,770.7813 Q755.5156,767.6563 756.8281,766 Q758.1563,764.3438 760.6563,764.3438 Q761.3594,764.3438 762,764.5 Q762.6563,764.6563 763.2188,764.9531 L763.2188,767.6719 Q762.5938,767.0938 762,766.8281 Q761.4063,766.5469 760.7813,766.5469 Q759.4375,766.5469 758.75,767.625 Q758.0625,768.6875 758.0625,770.7813 Q758.0625,772.875 758.75,773.9531 Q759.4375,775.0156 760.7813,775.0156 Q761.4063,775.0156 762,774.75 Q762.5938,774.4688 763.2188,773.8906 L763.2188,776.6094 Z "/><text fill="#000000" font-family="sans-serif" font-size="12" font-style="italic" lengthAdjust="spacingAndGlyphs" textLength="46" x="800.25" y="768.1387">«table»</text><text fill="#000000" font-family="sans-serif" font-size="12" lengthAdjust="spacingAndGlyphs" textLength="85" x="780.75" y="782.1074">subtitle_track</text><line style="stroke: #A80036; stroke-width: 1.5;" x1="651" x2="963" y1="789.9375" y2="789.9375"/><text fill="#000000" font-family="sans-serif" font-size="11" lengthAdjust="spacingAndGlyphs" textLength="177" x="656" y="804.1479">playable_content_id: UUID «FK»</text><text fill="#000000" font-family="sans-serif" font-size="11" lengthAdjust="spacingAndGlyphs" textLength="88" x="656" y="816.9526">language: TEXT</text><text fill="#000000" font-family="sans-serif" font-size="11" lengthAdjust="spacingAndGlyphs" textLength="78" x="656" y="829.7573">region: TEXT?</text><text fill="#000000" font-family="sans-serif" font-size="11" lengthAdjust="spacingAndGlyphs" textLength="102" x="656" y="842.562">type: SubtitleType</text><line style="stroke: #A80036; stroke-width: 1.0;" x1="651" x2="963" y1="849.1563" y2="849.1563"/><text fill="#000000" font-family="sans-serif" font-size="11" lengthAdjust="spacingAndGlyphs" textLength="302" x="656" y="863.3667">PRIMARY(playable_content_id, language, region, type)</text><!--MD5=[c6f8f8eba72f86f9c5c6666e8cb970d9]
class movie--><rect fill="#FEFECE" filter="url(#f12nmvx5qsy1h8)" height="66.7422" id="movie" style="stroke: #A80036; stroke-width: 1.5;" width="194" x="347" y="20.5"/><ellipse cx="418.75" cy="39.4688" fill="#ADD1B2" rx="11" ry="11" style="stroke: #A80036; stroke-width: 1.0;"/><path d="M421.7188,45.1094 Q421.1406,45.4063 420.5,45.5469 Q419.8594,45.7031 419.1563,45.7031 Q416.6563,45.7031 415.3281,44.0625 Q414.0156,42.4063 414.0156,39.2813 Q414.0156,36.1563 415.3281,34.5 Q416.6563,32.8438 419.1563,32.8438 Q419.8594,32.8438 420.5,33 Q421.1563,33.1563 421.7188,33.4531 L421.7188,36.1719 Q421.0938,35.5938 420.5,35.3281 Q419.9063,35.0469 419.2813,35.0469 Q417.9375,35.0469 417.25,36.125 Q416.5625,37.1875 416.5625,39.2813 Q416.5625,41.375 417.25,42.4531 Q417.9375,43.5156 419.2813,43.5156 Q419.9063,43.5156 420.5,43.25 Q421.0938,42.9688 421.7188,42.3906 L421.7188,45.1094 Z "/><text fill="#000000" font-family="sans-serif" font-size="12" font-style="italic" lengthAdjust="spacingAndGlyphs" textLength="46" x="437.25" y="36.6387">«table»</text><text fill="#000000" font-family="sans-serif" font-size="12" lengthAdjust="spacingAndGlyphs" textLength="36" x="442.25" y="50.6074">movie</text><line style="stroke: #A80036; stroke-width: 1.5;" x1="348" x2="540" y1="58.4375" y2="58.4375"/><text fill="#000000" font-family="sans-serif" font-size="11" lengthAdjust="spacingAndGlyphs" textLength="182" x="353" y="72.6479">media_work_id: UUID «PK» «FK»</text><line style="stroke: #A80036; stroke-width: 1.5;" x1="348" x2="540" y1="79.2422" y2="79.2422"/><!--MD5=[4d764836f8e8e45ff386eaaaa91b5b37]
class movie_feature--><rect fill="#FEFECE" filter="url(#f12nmvx5qsy1h8)" height="117.9609" id="movie_feature" style="stroke: #A80036; stroke-width: 1.5;" width="236" x="6" y="752"/><ellipse cx="75.75" cy="770.9688" fill="#ADD1B2" rx="11" ry="11" style="stroke: #A80036; stroke-width: 1.0;"/><path d="M78.7188,776.6094 Q78.1406,776.9063 77.5,777.0469 Q76.8594,777.2031 76.1563,777.2031 Q73.6563,777.2031 72.3281,775.5625 Q71.0156,773.9063 71.0156,770.7813 Q71.0156,767.6563 72.3281,766 Q73.6563,764.3438 76.1563,764.3438 Q76.8594,764.3438 77.5,764.5 Q78.1563,764.6563 78.7188,764.9531 L78.7188,767.6719 Q78.0938,767.0938 77.5,766.8281 Q76.9063,766.5469 76.2813,766.5469 Q74.9375,766.5469 74.25,767.625 Q73.5625,768.6875 73.5625,770.7813 Q73.5625,772.875 74.25,773.9531 Q74.9375,775.0156 76.2813,775.0156 Q76.9063,775.0156 77.5,774.75 Q78.0938,774.4688 78.7188,773.8906 L78.7188,776.6094 Z "/><text fill="#000000" font-family="sans-serif" font-size="12" font-style="italic" lengthAdjust="spacingAndGlyphs" textLength="46" x="117.25" y="768.1387">«table»</text><text fill="#000000" font-family="sans-serif" font-size="12" lengthAdjust="spacingAndGlyphs" textLength="88" x="96.25" y="782.1074">movie_feature</text><line style="stroke: #A80036; stroke-width: 1.5;" x1="7" x2="241" y1="789.9375" y2="789.9375"/><text fill="#000000" font-family="sans-serif" font-size="11" lengthAdjust="spacingAndGlyphs" textLength="116" x="12" y="804.1479">movie_id: UUID «FK»</text><text fill="#000000" font-family="sans-serif" font-size="11" lengthAdjust="spacingAndGlyphs" textLength="177" x="12" y="816.9526">playable_content_id: UUID «FK»</text><text fill="#000000" font-family="sans-serif" font-size="11" lengthAdjust="spacingAndGlyphs" textLength="85" x="12" y="829.7573">sort_index: INT</text><line style="stroke: #A80036; stroke-width: 1.0;" x1="7" x2="241" y1="836.3516" y2="836.3516"/><text fill="#000000" font-family="sans-serif" font-size="11" lengthAdjust="spacingAndGlyphs" textLength="224" x="12" y="850.562">PRIMARY(movie_id, playable_content_id)</text><text fill="#000000" font-family="sans-serif" font-size="11" lengthAdjust="spacingAndGlyphs" textLength="168" x="12" y="863.3667">UNIQUE(movie_id, sort_index)</text><!--MD5=[733462b47cf04df2ca7bac97249b98e3]
class tv--><rect fill="#FEFECE" filter="url(#f12nmvx5qsy1h8)" height="92.3516" id="tv" style="stroke: #A80036; stroke-width: 1.5;" width="194" x="588" y="8"/><ellipse cx="659.75" cy="26.9688" fill="#ADD1B2" rx="11" ry="11" style="stroke: #A80036; stroke-width: 1.0;"/><path d="M662.7188,32.6094 Q662.1406,32.9063 661.5,33.0469 Q660.8594,33.2031 660.1563,33.2031 Q657.6563,33.2031 656.3281,31.5625 Q655.0156,29.9063 655.0156,26.7813 Q655.0156,23.6563 656.3281,22 Q657.6563,20.3438 660.1563,20.3438 Q660.8594,20.3438 661.5,20.5 Q662.1563,20.6563 662.7188,20.9531 L662.7188,23.6719 Q662.0938,23.0938 661.5,22.8281 Q660.9063,22.5469 660.2813,22.5469 Q658.9375,22.5469 658.25,23.625 Q657.5625,24.6875 657.5625,26.7813 Q657.5625,28.875 658.25,29.9531 Q658.9375,31.0156 660.2813,31.0156 Q660.9063,31.0156 661.5,30.75 Q662.0938,30.4688 662.7188,29.8906 L662.7188,32.6094 Z "/><text fill="#000000" font-family="sans-serif" font-size="12" font-style="italic" lengthAdjust="spacingAndGlyphs" textLength="46" x="678.25" y="24.1387">«table»</text><text fill="#000000" font-family="sans-serif" font-size="12" lengthAdjust="spacingAndGlyphs" textLength="11" x="695.75" y="38.1074">tv</text><line style="stroke: #A80036; stroke-width: 1.5;" x1="589" x2="781" y1="45.9375" y2="45.9375"/><text fill="#000000" font-family="sans-serif" font-size="11" lengthAdjust="spacingAndGlyphs" textLength="182" x="594" y="60.1479">media_work_id: UUID «PK» «FK»</text><text fill="#000000" font-family="sans-serif" font-size="11" lengthAdjust="spacingAndGlyphs" textLength="95" x="594" y="72.9526">status: TVStatus</text><text fill="#000000" font-family="sans-serif" font-size="11" lengthAdjust="spacingAndGlyphs" textLength="98" x="594" y="85.7573">ended_on: DATE?</text><line style="stroke: #A80036; stroke-width: 1.5;" x1="589" x2="781" y1="92.3516" y2="92.3516"/><!--MD5=[65239b9aab999f0c561a5ca3aa8c59c9]
class season--><rect fill="#FEFECE" filter="url(#f12nmvx5qsy1h8)" height="130.7656" id="season" style="stroke: #A80036; stroke-width: 1.5;" width="189" x="903.5" y="542"/><ellipse cx="970.75" cy="560.9688" fill="#ADD1B2" rx="11" ry="11" style="stroke: #A80036; stroke-width: 1.0;"/><path d="M973.7188,566.6094 Q973.1406,566.9063 972.5,567.0469 Q971.8594,567.2031 971.1563,567.2031 Q968.6563,567.2031 967.3281,565.5625 Q966.0156,563.9063 966.0156,560.7813 Q966.0156,557.6563 967.3281,556 Q968.6563,554.3438 971.1563,554.3438 Q971.8594,554.3438 972.5,554.5 Q973.1563,554.6563 973.7188,554.9531 L973.7188,557.6719 Q973.0938,557.0938 972.5,556.8281 Q971.9063,556.5469 971.2813,556.5469 Q969.9375,556.5469 969.25,557.625 Q968.5625,558.6875 968.5625,560.7813 Q968.5625,562.875 969.25,563.9531 Q969.9375,565.0156 971.2813,565.0156 Q971.9063,565.0156 972.5,564.75 Q973.0938,564.4688 973.7188,563.8906 L973.7188,566.6094 Z "/><text fill="#000000" font-family="sans-serif" font-size="12" font-style="italic" lengthAdjust="spacingAndGlyphs" textLength="46" x="991.25" y="558.1387">«table»</text><text fill="#000000" font-family="sans-serif" font-size="12" lengthAdjust="spacingAndGlyphs" textLength="46" x="991.25" y="572.1074">season</text><line style="stroke: #A80036; stroke-width: 1.5;" x1="904.5" x2="1091.5" y1="579.9375" y2="579.9375"/><text fill="#000000" font-family="sans-serif" font-size="11" lengthAdjust="spacingAndGlyphs" textLength="77" x="909.5" y="594.1479">id: UUID «PK»</text><text fill="#000000" font-family="sans-serif" font-size="11" lengthAdjust="spacingAndGlyphs" textLength="92" x="909.5" y="606.9526">tv_id: UUID «FK»</text><text fill="#000000" font-family="sans-serif" font-size="11" lengthAdjust="spacingAndGlyphs" textLength="118" x="909.5" y="619.7573">season_number: INT</text><text fill="#000000" font-family="sans-serif" font-size="11" lengthAdjust="spacingAndGlyphs" textLength="63" x="909.5" y="632.562">title: TEXT?</text><text fill="#000000" font-family="sans-serif" font-size="11" lengthAdjust="spacingAndGlyphs" textLength="105" x="909.5" y="645.3667">description: TEXT?</text><line style="stroke: #A80036; stroke-width: 1.0;" x1="904.5" x2="1091.5" y1="651.9609" y2="651.9609"/><text fill="#000000" font-family="sans-serif" font-size="11" lengthAdjust="spacingAndGlyphs" textLength="177" x="909.5" y="666.1714">UNIQUE(tv_id, season_number)</text><!--MD5=[77ab79214866798d9cf70993822fb05b]
class episode--><rect fill="#FEFECE" filter="url(#f12nmvx5qsy1h8)" height="156.375" id="episode" style="stroke: #A80036; stroke-width: 1.5;" width="224" x="999" y="733"/><ellipse cx="1081.75" cy="751.9688" fill="#ADD1B2" rx="11" ry="11" style="stroke: #A80036; stroke-width: 1.0;"/><path d="M1084.7188,757.6094 Q1084.1406,757.9063 1083.5,758.0469 Q1082.8594,758.2031 1082.1563,758.2031 Q1079.6563,758.2031 1078.3281,756.5625 Q1077.0156,754.9063 1077.0156,751.7813 Q1077.0156,748.6563 1078.3281,747 Q1079.6563,745.3438 1082.1563,745.3438 Q1082.8594,745.3438 1083.5,745.5 Q1084.1563,745.6563 1084.7188,745.9531 L1084.7188,748.6719 Q1084.0938,748.0938 1083.5,747.8281 Q1082.9063,747.5469 1082.2813,747.5469 Q1080.9375,747.5469 1080.25,748.625 Q1079.5625,749.6875 1079.5625,751.7813 Q1079.5625,753.875 1080.25,754.9531 Q1080.9375,756.0156 1082.2813,756.0156 Q1082.9063,756.0156 1083.5,755.75 Q1084.0938,755.4688 1084.7188,754.8906 L1084.7188,757.6094 Z "/><text fill="#000000" font-family="sans-serif" font-size="12" font-style="italic" lengthAdjust="spacingAndGlyphs" textLength="46" x="1104.25" y="749.1387">«table»</text><text fill="#000000" font-family="sans-serif" font-size="12" lengthAdjust="spacingAndGlyphs" textLength="50" x="1102.25" y="763.1074">episode</text><line style="stroke: #A80036; stroke-width: 1.5;" x1="1000" x2="1222" y1="770.9375" y2="770.9375"/><text fill="#000000" font-family="sans-serif" font-size="11" lengthAdjust="spacingAndGlyphs" textLength="77" x="1005" y="785.1479">id: UUID «PK»</text><text fill="#000000" font-family="sans-serif" font-size="11" lengthAdjust="spacingAndGlyphs" textLength="124" x="1005" y="797.9526">season_id: UUID «FK»</text><text fill="#000000" font-family="sans-serif" font-size="11" lengthAdjust="spacingAndGlyphs" textLength="177" x="1005" y="810.7573">playable_content_id: UUID «FK»</text><text fill="#000000" font-family="sans-serif" font-size="11" lengthAdjust="spacingAndGlyphs" textLength="127" x="1005" y="823.562">episode_number: INT?</text><text fill="#000000" font-family="sans-serif" font-size="11" lengthAdjust="spacingAndGlyphs" textLength="83" x="1005" y="836.3667">air_date: DATE</text><text fill="#000000" font-family="sans-serif" font-size="11" lengthAdjust="spacingAndGlyphs" textLength="105" x="1005" y="849.1714">role: EpisodeRole?</text><line style="stroke: #A80036; stroke-width: 1.0;" x1="1000" x2="1222" y1="855.7656" y2="855.7656"/><text fill="#000000" font-family="sans-serif" font-size="11" lengthAdjust="spacingAndGlyphs" textLength="212" x="1005" y="869.9761">UNIQUE(season_id, episode_number)</text><text fill="#000000" font-family="sans-serif" font-size="11" lengthAdjust="spacingAndGlyphs" textLength="212" x="1005" y="882.7808">WHERE episode_number IS NOT NULL</text><!--MD5=[c70d0026982c74753187fd828a4c968f]
class contributor--><rect fill="#FEFECE" filter="url(#f12nmvx5qsy1h8)" height="48" id="contributor" style="stroke: #A80036; stroke-width: 1.5;" width="102" x="48" y="208"/><ellipse cx="63" cy="224" fill="#ADD1B2" rx="11" ry="11" style="stroke: #A80036; stroke-width: 1.0;"/><path d="M65.9688,229.6406 Q65.3906,229.9375 64.75,230.0781 Q64.1094,230.2344 63.4063,230.2344 Q60.9063,230.2344 59.5781,228.5938 Q58.2656,226.9375 58.2656,223.8125 Q58.2656,220.6875 59.5781,219.0313 Q60.9063,217.375 63.4063,217.375 Q64.1094,217.375 64.75,217.5313 Q65.4063,217.6875 65.9688,217.9844 L65.9688,220.7031 Q65.3438,220.125 64.75,219.8594 Q64.1563,219.5781 63.5313,219.5781 Q62.1875,219.5781 61.5,220.6563 Q60.8125,221.7188 60.8125,223.8125 Q60.8125,225.9063 61.5,226.9844 Q62.1875,228.0469 63.5313,228.0469 Q64.1563,228.0469 64.75,227.7813 Q65.3438,227.5 65.9688,226.9219 L65.9688,229.6406 Z "/><text fill="#000000" font-family="sans-serif" font-size="12" lengthAdjust="spacingAndGlyphs" textLength="70" x="77" y="228.1543">contributor</text><line style="stroke: #A80036; stroke-width: 1.5;" x1="49" x2="149" y1="240" y2="240"/><line style="stroke: #A80036; stroke-width: 1.5;" x1="49" x2="149" y1="248" y2="248"/><!--MD5=[5ef73dc266c42a643b67e9845d2d3e42]
reverse link media_work to contribution--><path d="M468.66,280.7 C420.81,305.95 361.67,337.18 311.15,363.85 " fill="none" id="media_work&lt;-contribution" style="stroke: #A80036; stroke-width: 1.0;"/><polygon fill="#A80036" points="473.25,278.27,463.4251,278.9561,468.8335,280.614,467.1755,286.0225,473.25,278.27" style="stroke: #A80036; stroke-width: 1.0;"/><text fill="#000000" font-family="sans-serif" font-size="13" lengthAdjust="spacingAndGlyphs" textLength="8" x="457.5371" y="278.6929">1</text><text fill="#000000" font-family="sans-serif" font-size="13" lengthAdjust="spacingAndGlyphs" textLength="23" x="300.173" y="352.8044">0..*</text><!--MD5=[eeabc86ca3b5e7c4a8022edb01784eb6]
reverse link contributor_role to contribution--><path d="M241.01,270.78 C233.96,297.42 224.39,333.6 216.37,363.89 " fill="none" id="contributor_role&lt;-contribution" style="stroke: #A80036; stroke-width: 1.0;"/><polygon fill="#A80036" points="242.29,265.92,236.1301,273.6048,241.0168,270.7552,243.8664,275.6419,242.29,265.92" style="stroke: #A80036; stroke-width: 1.0;"/><text fill="#000000" font-family="sans-serif" font-size="13" lengthAdjust="spacingAndGlyphs" textLength="8" x="232.026" y="285.3996">1</text><text fill="#000000" font-family="sans-serif" font-size="13" lengthAdjust="spacingAndGlyphs" textLength="23" x="193.8417" y="352.8493">0..*</text><!--MD5=[bc69acde750a0ef1fb41ce7773590716]
reverse link media_work to content--><path d="M559,309.36 C559,329.85 559,351.52 559,370.32 " fill="none" id="media_work&lt;-content" style="stroke: #A80036; stroke-width: 1.0;"/><polygon fill="#A80036" points="559,304.18,555,313.18,559,309.18,563,313.18,559,304.18" style="stroke: #A80036; stroke-width: 1.0;"/><text fill="#000000" font-family="sans-serif" font-size="13" lengthAdjust="spacingAndGlyphs" textLength="8" x="550.6313" y="323.6183">1</text><text fill="#000000" font-family="sans-serif" font-size="13" lengthAdjust="spacingAndGlyphs" textLength="23" x="534.4547" y="359.2986">0..*</text><!--MD5=[378a51d7a9e1af673387b76ceb8a041c]
reverse link content to playable_content--><path d="M559,481.1 C559,504.71 559,531.88 559,554.88 " fill="none" id="content&lt;-playable_content" style="stroke: #A80036; stroke-width: 1.0;"/><polygon fill="#A80036" points="559,475.81,555,484.81,559,480.81,563,484.81,559,475.81" style="stroke: #A80036; stroke-width: 1.0;"/><text fill="#000000" font-family="sans-serif" font-size="13" lengthAdjust="spacingAndGlyphs" textLength="8" x="550.4875" y="495.6026">1</text><text fill="#000000" font-family="sans-serif" font-size="13" lengthAdjust="spacingAndGlyphs" textLength="8" x="550.4625" y="543.8667">1</text><!--MD5=[df91c1d2556f8695b2a9a346fc894770]
reverse link playable_content to audio_track--><path d="M527.44,664.78 C512.24,691.89 494.02,724.38 478.67,751.74 " fill="none" id="playable_content&lt;-audio_track" style="stroke: #A80036; stroke-width: 1.0;"/><polygon fill="#A80036" points="530.05,660.13,522.1532,666.0156,527.6,664.4886,529.127,669.9355,530.05,660.13" style="stroke: #A80036; stroke-width: 1.0;"/><text fill="#000000" font-family="sans-serif" font-size="13" lengthAdjust="spacingAndGlyphs" textLength="8" x="517.6223" y="680.2753">1</text><text fill="#000000" font-family="sans-serif" font-size="13" lengthAdjust="spacingAndGlyphs" textLength="23" x="458.1178" y="741.0977">0..*</text><!--MD5=[86b46bc5549241408c6eae4014782abd]
reverse link playable_content to subtitle_track--><path d="M626.62,663.44 C660.31,690.82 701.06,723.93 735.3,751.74 " fill="none" id="playable_content&lt;-subtitle_track" style="stroke: #A80036; stroke-width: 1.0;"/><polygon fill="#A80036" points="622.54,660.13,627.0027,668.9098,626.4206,663.283,632.0474,662.7009,622.54,660.13" style="stroke: #A80036; stroke-width: 1.0;"/><text fill="#000000" font-family="sans-serif" font-size="13" lengthAdjust="spacingAndGlyphs" textLength="8" x="622.5407" y="680.2753">1</text><text fill="#000000" font-family="sans-serif" font-size="13" lengthAdjust="spacingAndGlyphs" textLength="23" x="702.68" y="741.0977">0..*</text><!--MD5=[1b679af2d29bc6812a947d657e6bf80f]
link movie to media_work--><path d="M465.36,87.69 C477.84,106.78 494.13,131.72 509.62,155.42 " fill="none" id="movie-&gt;media_work" style="stroke: #A80036; stroke-width: 1.0;"/><polygon fill="#A80036" points="512.5,159.83,510.9361,150.1061,509.7695,155.6414,504.2343,154.4749,512.5,159.83" style="stroke: #A80036; stroke-width: 1.0;"/><text fill="#000000" font-family="sans-serif" font-size="13" lengthAdjust="spacingAndGlyphs" textLength="8" x="460.5608" y="107.3873">1</text><text fill="#000000" font-family="sans-serif" font-size="13" lengthAdjust="spacingAndGlyphs" textLength="8" x="499.2922" y="148.7099">1</text><!--MD5=[981abad0ab7efa479b2057aefbd63d23]
reverse link movie to movie_feature--><path d="M445.19,92.96 C446.23,169.74 441.6,347.61 384,482 C338.05,589.2 247.52,690.9 186.37,751.87 " fill="none" id="movie&lt;-movie_feature" style="stroke: #A80036; stroke-width: 1.0;"/><polygon fill="#A80036" points="445.11,87.6,441.239,96.6562,445.1814,92.5995,449.2382,96.5419,445.11,87.6" style="stroke: #A80036; stroke-width: 1.0;"/><text fill="#000000" font-family="sans-serif" font-size="13" lengthAdjust="spacingAndGlyphs" textLength="8" x="436.5772" y="107.2807">1</text><text fill="#000000" font-family="sans-serif" font-size="13" lengthAdjust="spacingAndGlyphs" textLength="23" x="169.5698" y="740.8268">0..*</text><!--MD5=[8cc8281e920efc66eee2fa5aab8ce00d]
reverse link playable_content to movie_feature--><path d="M470.33,661.38 C462.21,665.53 454.02,669.47 446,673 C366.11,708.16 338.9,697.85 259,733 C246.28,738.6 233.22,745.06 220.46,751.81 " fill="none" id="playable_content&lt;-movie_feature" style="stroke: #A80036; stroke-width: 1.0;"/><polygon fill="#A80036" points="474.83,659.05,464.9971,659.6104,470.3839,661.3374,468.6569,666.7242,474.83,659.05" style="stroke: #A80036; stroke-width: 1.0;"/><text fill="#000000" font-family="sans-serif" font-size="13" lengthAdjust="spacingAndGlyphs" textLength="8" x="458.9774" y="660.0391">1</text><text fill="#000000" font-family="sans-serif" font-size="13" lengthAdjust="spacingAndGlyphs" textLength="23" x="207.8145" y="740.7595">0..*</text><!--MD5=[975f161dbd8a3d6bd8c7987f2e830125]
link tv to media_work--><path d="M652.55,100.32 C640.49,117.18 626.45,136.79 612.97,155.61 " fill="none" id="tv-&gt;media_work" style="stroke: #A80036; stroke-width: 1.0;"/><polygon fill="#A80036" points="609.92,159.87,618.3994,154.8601,612.8208,155.7975,611.8834,150.2188,609.92,159.87" style="stroke: #A80036; stroke-width: 1.0;"/><text fill="#000000" font-family="sans-serif" font-size="13" lengthAdjust="spacingAndGlyphs" textLength="8" x="639.1964" y="120.2756">1</text><text fill="#000000" font-family="sans-serif" font-size="13" lengthAdjust="spacingAndGlyphs" textLength="8" x="606.7586" y="148.7541">1</text><!--MD5=[35fe5c7a75031e048953b380210e08f4]
reverse link tv to season--><path d="M713.1,104.51 C769.85,204.5 898.12,430.51 961.35,541.93 " fill="none" id="tv&lt;-season" style="stroke: #A80036; stroke-width: 1.0;"/><polygon fill="#A80036" points="710.61,100.13,711.5605,109.9329,713.0722,104.4817,718.5233,105.9934,710.61,100.13" style="stroke: #A80036; stroke-width: 1.0;"/><text fill="#000000" font-family="sans-serif" font-size="13" lengthAdjust="spacingAndGlyphs" textLength="8" x="705.919" y="120.3922">1</text><text fill="#000000" font-family="sans-serif" font-size="13" lengthAdjust="spacingAndGlyphs" textLength="23" x="933.0836" y="531.0249">0..*</text><!--MD5=[433437d5c57c41081fc500fbb31c1699]
reverse link season to episode--><path d="M1036.74,677.57 C1046.7,695.35 1057.5,714.59 1067.68,732.75 " fill="none" id="season&lt;-episode" style="stroke: #A80036; stroke-width: 1.0;"/><polygon fill="#A80036" points="1034.22,673.09,1035.1323,682.8965,1036.6652,677.4513,1042.1104,678.9842,1034.22,673.09" style="stroke: #A80036; stroke-width: 1.0;"/><text fill="#000000" font-family="sans-serif" font-size="13" lengthAdjust="spacingAndGlyphs" textLength="8" x="1029.5427" y="692.7132">1</text><text fill="#000000" font-family="sans-serif" font-size="13" lengthAdjust="spacingAndGlyphs" textLength="23" x="1039.6263" y="721.9007">0..*</text><!--MD5=[b511d1d68e20510f56413cd1af35acda]
reverse link playable_content to episode--><path d="M647.95,627.77 C735.16,648.25 870.82,684.39 982,733 C987.62,735.46 993.29,738.11 998.96,740.9 " fill="none" id="playable_content&lt;-episode" style="stroke: #A80036; stroke-width: 1.0;"/><polygon fill="#A80036" points="643.06,626.62,650.9085,632.5699,647.9278,627.762,652.7357,624.7814,643.06,626.62" style="stroke: #A80036; stroke-width: 1.0;"/><text fill="#000000" font-family="sans-serif" font-size="13" lengthAdjust="spacingAndGlyphs" textLength="8" x="650.9028" y="624.7208">1</text><text fill="#000000" font-family="sans-serif" font-size="13" lengthAdjust="spacingAndGlyphs" textLength="23" x="968.0457" y="732.9879">0..*</text><!--MD5=[8380106985c29bc7a3396ae9d3b32f61]
reverse link contributor to contribution--><path d="M113.95,260.7 C128.49,287.65 151.04,329.43 169.55,363.72 " fill="none" id="contributor&lt;-contribution" style="stroke: #A80036; stroke-width: 1.0;"/><polygon fill="#A80036" points="111.51,256.18,112.2835,265.9984,113.8933,260.5755,119.3162,262.1852,111.51,256.18" style="stroke: #A80036; stroke-width: 1.0;"/><text fill="#000000" font-family="sans-serif" font-size="13" lengthAdjust="spacingAndGlyphs" textLength="8" x="105.5843" y="275.9851">1</text><text fill="#000000" font-family="sans-serif" font-size="13" lengthAdjust="spacingAndGlyphs" textLength="23" x="141.5839" y="353.0754">0..*</text><!--MD5=[53cbcf484d69bbe6067a117ce120a63a]
@startuml
skinparam classAttributeIconSize 0

class media_work <<table>> {
    id: UUID <<PK>>
    title: TEXT
    description: TEXT?
    original_release_date: DATE
    original_language: TEXT
    country_of_origin: TEXT
    type: TEXT
}

class contribution <<table>> {
    id: UUID <<PK>>
    media_work_id: UUID <<FK>>
    contributor_id: UUID <<FK>>
    contributor_role_name: TEXT <<FK>>
    - -
    UNIQUE(media_work_id, contributor_id, contributor_role)
}

media_work "1" <- - "0..*" contribution

class contributor_role <<table>> {
    name: TEXT <<PK>>
}

contributor_role "1" <- - "0..*" contribution

class content <<table>> {
    id: UUID <<PK>>
    media_work_id: UUID <<FK>>
    title: TEXT?
    description: TEXT?
}

media_work "1" <- - "0..*" content

class playable_content <<table>> {
    content_id: UUID <<PK>> <<FK>>
    runtime_minutes: INT
    cut_type: CutType?
    type: TEXT
}

content "1" <- - "1" playable_content

class audio_track <<table>> {
    playable_content_id: UUID <<FK>>
    language: TEXT
    codec: AudioCodec
    channels: ChannelConfig JSONB?
    - -
    PRIMARY(playable_content_id, language, codec, channels)
}

playable_content "1" <- - "0..*" audio_track



class subtitle_track <<table>> {
    playable_content_id: UUID <<FK>>
    language: TEXT
    region: TEXT?
    type: SubtitleType
    - -
    PRIMARY(playable_content_id, language, region, type)
}

playable_content "1" <- - "0..*" subtitle_track

class movie <<table>> {
    media_work_id: UUID <<PK>> <<FK>>
}

movie "1" - -> "1" media_work

class movie_feature <<table>> {
     movie_id: UUID <<FK>>
     playable_content_id: UUID <<FK>>
     sort_index: INT
     - -
     PRIMARY(movie_id, playable_content_id)
     UNIQUE(movie_id, sort_index)
}

movie "1" <- - "0..*" movie_feature
playable_content "1" <- - "0..*" movie_feature

class tv <<table>> {
    media_work_id: UUID <<PK>> <<FK>>
    status: TVStatus
    ended_on: DATE?
}

tv "1" - -> "1" media_work

class season <<table>> {
    id: UUID <<PK>>
    tv_id: UUID <<FK>>
    season_number: INT
    title: TEXT?
    description: TEXT?
    - -
    UNIQUE(tv_id, season_number)
}

tv "1" <- - "0..*" season

class episode <<table>> {
    id: UUID <<PK>>
    season_id: UUID <<FK>>
    playable_content_id: UUID <<FK>>
    episode_number: INT?
    air_date: DATE
    role: EpisodeRole?
    - -
    UNIQUE(season_id, episode_number)
    WHERE episode_number IS NOT NULL
}

season "1" <- - "0..*" episode
playable_content "1" <- - "0..*" episode

contributor "1" <- - "0..*" contribution

@enduml

PlantUML version 1.2020.02(Sun Mar 01 10:22:07 UTC 2020)
(GPL source distribution)
Java Runtime: OpenJDK Runtime Environment
JVM: OpenJDK 64-Bit Server VM
Java Version: 17.0.18+8
Operating System: Linux
Default Encoding: UTF-8
Language: en
Country: null
--></g></svg>